<?xml version="1.0" encoding="UTF-8"?>
<svg width="25px" height="25px" viewBox="0 0 25 25" version="1.1" xmlns="http://www.w3.org/2000/svg" xmlns:xlink="http://www.w3.org/1999/xlink">
    <title>right icon</title>
    <g id="Home" stroke="none" stroke-width="1" fill="none" fill-rule="evenodd">
        <g id="home-petición-de-datos" transform="translate(-295.000000, -273.000000)">
            <g id="Group-2" transform="translate(26.000000, 262.000000)">
                <g id="right-icon" transform="translate(269.000000, 12.000000)">
                    <rect id="Rectangle" x="0" y="0" width="24" height="24"></rect>
                    <g id="Group" fill="#016D38" fill-rule="nonzero">
                        <g id="calendar" transform="translate(1.000000, 0.000000)">
                            <rect id="Rectangle" x="5" y="11" width="1" height="1"></rect>
                            <rect id="Rectangle" x="9" y="11" width="1" height="1"></rect>
                            <rect id="Rectangle" x="13" y="11" width="1" height="1"></rect>
                            <rect id="Rectangle" x="17" y="11" width="1" height="1"></rect>
                            <rect id="Rectangle" x="5" y="14" width="1" height="1"></rect>
                            <rect id="Rectangle" x="9" y="14" width="1" height="1"></rect>
                            <rect id="Rectangle-Copy-2" x="13" y="14" width="1" height="1"></rect>
                            <rect id="Rectangle-Copy-7" x="17" y="14" width="1" height="1"></rect>
                            <rect id="Rectangle" x="5" y="17" width="1" height="1"></rect>
                            <rect id="Rectangle" x="9" y="17" width="1" height="1"></rect>
                            <rect id="Rectangle-Copy-4" x="13" y="17" width="1" height="1"></rect>
                            <path d="M19.32,1.84 L19.32,0 L16.56,0 L16.56,1.84 L6.44,1.84 L6.44,0 L3.68,0 L3.68,1.84 L0,1.84 L0,5.98 L0,6.9 L0,23 L19.05044,23 L19.26388,22.78656 L22.78518,19.26526 L23,19.05044 L23,6.9 L23,5.98 L23,1.84 L19.32,1.84 Z M18,1.875 L18,0.875 L18.9583333,0.875 L18.9583333,1.875 L18.9583333,3.875 L18,3.875 L18,1.875 Z M4.75,1.83333333 L4.75,0.833333333 L5.75,0.833333333 L5.75,1.83333333 L5.75,3.83333333 L4.75,3.83333333 L4.75,1.83333333 Z M19.1666667,21.0833333 L19.1666667,19.1666667 L21.0833333,19.1666667 L19.1666667,21.0833333 Z M22.0416667,18.3244949 L18.375,18.3244949 L18.375,22.0416667 L0.958333333,22.0416667 L0.958333333,6.70833333 L22.0416667,6.70833333 L22.0416667,18.3244949 Z M22.0416667,5.75 L0.958333333,5.75 L0.958333333,2.875 L3.70833333,2.875 L3.70833333,4.51785714 L6.45833333,4.51785714 L6.45833333,2.875 L16.5416667,2.875 L16.5416667,4.51785714 L19.2916667,4.51785714 L19.2916667,2.875 L22.0416667,2.875 L22.0416667,5.75 Z" id="Shape" stroke="#016D38" stroke-width="0.4"></path>
                        </g>
                    </g>
                </g>
            </g>
        </g>
    </g>
</svg>