<?xml version="1.0" encoding="UTF-8"?>
<svg width="24px" height="10px" viewBox="0 0 24 10" version="1.1" xmlns="http://www.w3.org/2000/svg" xmlns:xlink="http://www.w3.org/1999/xlink">
    <title>Shape</title>
    <g id="Home" stroke="none" stroke-width="1" fill="none" fill-rule="evenodd">
        <g id="home-petición-de-datos" transform="translate(-295.000000, -348.000000)" fill="#016D38" fill-rule="nonzero">
            <path d="M318,348.8 L296,348.8 C295.6,348.8 295.3,349.1 295.3,349.5 L295.3,356.6 C295.3,357 295.6,357.3 296,357.3 L318,357.3 C318.4,357.3 318.7,357 318.7,356.6 L318.7,349.5 C318.7,349.1 318.4,348.8 318,348.8 Z M317.3,355.9 L296.7,355.9 L296.7,350.1 L298.3,350.1 L298.3,352 C298.3,352.4 298.6,352.7 299,352.7 C299.4,352.7 299.7,352.4 299.7,352 L299.7,350.1 L302.3,350.1 L302.3,352 C302.3,352.4 302.6,352.7 303,352.7 C303.4,352.7 303.7,352.4 303.7,352 L303.7,350.1 L306.3,350.1 L306.3,354 C306.3,354.4 306.6,354.7 307,354.7 C307.4,354.7 307.7,354.4 307.7,354 L307.7,350.1 L310.3,350.1 L310.3,352 C310.3,352.4 310.6,352.7 311,352.7 C311.4,352.7 311.7,352.4 311.7,352 L311.7,350.1 L314.3,350.1 L314.3,352 C314.3,352.4 314.6,352.7 315,352.7 C315.4,352.7 315.7,352.4 315.7,352 L315.7,350.1 L317.4,350.1 L317.4,355.9 L317.3,355.9 Z" id="Shape"></path>
        </g>
    </g>
</svg>