<?xml version="1.0" encoding="UTF-8"?>
<svg width="24px" height="23px" viewBox="0 0 24 23" version="1.1" xmlns="http://www.w3.org/2000/svg" xmlns:xlink="http://www.w3.org/1999/xlink">
    <title>Group 8</title>
    <g id="Home" stroke="none" stroke-width="1" fill="none" fill-rule="evenodd">
        <g id="home-petición-de-datos" transform="translate(-295.000000, -408.000000)" fill="#016D38" fill-rule="nonzero">
            <g id="Group-8" transform="translate(295.600000, 408.200000)">
                <path d="M22.5,2.7 C22.4,2.6 19.4,2.30926389e-14 11.4,2.30926389e-14 C4.5,2.30926389e-14 0.5,2.6 0.4,2.7 C0.1,2.8 -3.64153152e-13,3 -3.64153152e-13,3.3 L1.4,21 C1.4,21.4 1.7,21.7 2.1,21.7 L20.6,21.7 C21,21.7 21.3,21.4 21.3,21.1 L22.8,3.4 C22.8,3.1 22.7,2.9 22.5,2.7 Z M19.9,20.2 L2.8,20.2 L1.5,3.6 C2.5,3 6,1.4 11.4,1.4 C17.6,1.4 20.5,3 21.4,3.6 L19.9,20.2 Z" id="Shape"></path>
                <path d="M5.7,4.5 L6.1,8.7 C6.1,8.9 6.2,9.1 6.4,9.2 C6.5,9.3 6.7,9.3 6.8,9.3 C6.9,9.3 7,9.3 7,9.3 C7,9.3 9.5,8.5 11.2,8.5 C13.3,8.5 15.4,9.3 15.4,9.3 C15.6,9.4 15.8,9.4 16,9.3 C16.2,9.2 16.3,9 16.3,8.8 L17,4.6 C17,4.4 16.9,4.1 16.8,3.9 C16.6,3.8 15.2,2.6 11.2,2.6 C7.8,2.6 6.1,3.8 6,3.8 C5.8,4 5.7,4.2 5.7,4.5 Z M11.3,4 C13.8,4 15.1,4.5 15.6,4.8 L15.1,7.7 C14.3,7.5 13,7.1 11.7,7.1 L10.5,5.1 C10.3,4.8 9.9,4.7 9.5,4.9 C9.2,5 9.1,5.4 9.3,5.8 L10.1,7.1 C9.1,7.2 8.1,7.5 7.4,7.7 L7.2,4.8 C7.8,4.5 9.1,4 11.3,4 Z" id="Shape"></path>
            </g>
        </g>
    </g>
</svg>