<?xml version="1.0" encoding="UTF-8"?>
<svg width="24px" height="24px" viewBox="0 0 24 24" version="1.1" xmlns="http://www.w3.org/2000/svg" xmlns:xlink="http://www.w3.org/1999/xlink">
    <title>right icon</title>
    <defs>
        <filter id="filter-1">
            <feColorMatrix in="SourceGraphic" type="matrix" values="0 0 0 0 0.003922 0 0 0 0 0.427451 0 0 0 0 0.219608 0 0 0 1.000000 0"></feColorMatrix>
        </filter>
    </defs>
    <g id="Home" stroke="none" stroke-width="1" fill="none" fill-rule="evenodd">
        <g id="home-petición-de-datos" transform="translate(-295.000000, -407.000000)">
            <g id="Group-2" transform="translate(26.000000, 395.000000)">
                <g id="right-icon" transform="translate(269.000000, 12.000000)">
                    <rect id="Rectangle" x="0" y="0" width="24" height="24"></rect>
                    <g id="scale" filter="url(#filter-1)">
                        <g transform="translate(0.000000, 1.000000)">
                            <path d="M23.1,2.9 C23,2.8 20,0.2 12,0.2 C5.1,0.2 1.1,2.8 1,2.9 C0.7,3 0.6,3.2 0.6,3.5 L2,21.2 C2,21.6 2.3,21.9 2.7,21.9 L21.2,21.9 C21.6,21.9 21.9,21.6 21.9,21.3 L23.4,3.6 C23.4,3.3 23.3,3.1 23.1,2.9 Z M20.5,20.4 L3.4,20.4 L2.1,3.8 C3.1,3.2 6.6,1.6 12,1.6 C18.2,1.6 21.1,3.2 22,3.8 L20.5,20.4 Z" id="Shape" fill="#000000" fill-rule="nonzero"></path>
                            <path d="M6.3,4.7 L6.7,8.9 C6.7,9.1 6.8,9.3 7,9.4 C7.1,9.5 7.3,9.5 7.4,9.5 C7.5,9.5 7.6,9.5 7.6,9.5 C7.6,9.5 10.1,8.7 11.8,8.7 C13.9,8.7 16,9.5 16,9.5 C16.2,9.6 16.4,9.6 16.6,9.5 C16.8,9.4 16.9,9.2 16.9,9 L17.6,4.8 C17.6,4.6 17.5,4.3 17.4,4.1 C17.2,4 15.8,2.8 11.8,2.8 C8.4,2.8 6.7,4 6.6,4 C6.4,4.2 6.3,4.4 6.3,4.7 Z M11.9,4.2 C14.4,4.2 15.7,4.7 16.2,5 L15.7,7.9 C14.9,7.7 13.6,7.3 12.3,7.3 L11.1,5.3 C10.9,5 10.5,4.9 10.1,5.1 C9.8,5.2 9.7,5.6 9.9,6 L10.7,7.3 C9.7,7.4 8.7,7.7 8,7.9 L7.8,5 C8.4,4.7 9.7,4.2 11.9,4.2 Z" id="Shape" fill="#000000" fill-rule="nonzero"></path>
                        </g>
                    </g>
                </g>
            </g>
        </g>
    </g>
</svg>