<?xml version="1.0" encoding="UTF-8"?>
<svg width="125px" height="37px" viewBox="0 0 125 37" version="1.1" xmlns="http://www.w3.org/2000/svg" xmlns:xlink="http://www.w3.org/1999/xlink">
    <title>atoms / brand / logo-color</title>
    <g id="Menu-1" stroke="none" stroke-width="1" fill="none" fill-rule="evenodd">
        <g id="Panel-perfil-avatar" transform="translate(-124.000000, -14.000000)" fill-rule="nonzero">
            <g id="Group" transform="translate(124.000000, 13.000000)">
                <g id="Logo-seguros-bolivar-02" transform="translate(0.000000, 1.666667)">
                    <polygon id="Path" fill="#FFDC5D" points="92.7486188 1.69198895 121.926796 1.69198895 121.926796 30.9392265 92.7486188 30.9392265"></polygon>
                    <g id="Group" transform="translate(90.124309, 0.000000)" fill="#016D38">
                        <path d="M17.7486188,2.79696133 C21.7196133,1.38121547 24.3439227,3.41850829 24.3439227,3.41850829 C24.3439227,3.41850829 21.6850829,2.69337017 19.5787293,3.24585635 L17.7486188,2.79696133 L17.7486188,2.79696133 Z" id="Path"></path>
                        <path d="M19.6823204,4.66160221 C24.2058011,3.97099448 24.3093923,5.38674033 24.3093923,5.38674033 C24.3093923,5.38674033 23.3770718,4.97237569 21.2707182,5.17955801 L19.6823204,4.66160221 L19.6823204,4.66160221 Z" id="Path"></path>
                        <path d="M16.7127072,19.1643646 C18.5428177,17.5069061 20.8563536,17.8176796 21.5124309,18.8535912 C22.410221,20.2348066 21.9267956,21.8232044 20.6837017,22.9627072 C20.6837017,22.9627072 22.410221,21.0290055 21.1671271,19.4060773 C20.5110497,18.5082873 18.6464088,18.4737569 17.230663,19.6823204 C15.8149171,20.8563536 14.468232,23.8259669 17.8176796,24.551105 C14.9171271,24.7582873 14.2955801,21.3052486 16.7127072,19.1643646 L16.7127072,19.1643646 Z" id="Path"></path>
                        <path d="M26.2085635,12.1546961 C39.1229282,6.87154696 38.6740331,22.4447514 16.6781768,36.4640884 C34.7375691,21.6505525 38.0870166,10.3245856 26.2085635,12.1546961 L26.2085635,12.1546961 Z" id="Path"></path>
                        <path d="M7.38950276,20.6146409 C-5.42127072,25.621547 2.3480663,30.9046961 2.3480663,30.9046961 C2.3480663,30.9046961 -2.3480663,25.8287293 7.38950276,20.6146409 L7.38950276,20.6146409 Z" id="Path"></path>
                        <path d="M18.75,30.9046961 C26.8991713,26.7610497 21.5469613,22.410221 21.5469613,22.410221 C21.5469613,22.410221 24.3439227,27.0372928 17.7831492,30.9046961 L18.75,30.9046961 L18.75,30.9046961 Z" id="Path"></path>
                        <path d="M7.21685083,22.0649171 C7.21685083,22.0649171 8.42541436,19.4406077 9.32320442,15.6422652 C9.32320442,15.6422652 9.80662983,19.3024862 7.21685083,22.0649171 L7.21685083,22.0649171 Z" id="Path"></path>
                        <path d="M4.90331492,22.1685083 C4.90331492,22.1685083 -2.31353591,15.1243094 9.01243094,10.1174033 C12.2928177,8.66712707 16.5055249,8.28729282 18.4392265,11.0151934 C19.0262431,11.8439227 19.0953039,17.4723757 13.0524862,21.788674 C10.4281768,20.9254144 10.1864641,19.4406077 10.1864641,19.4406077 C11.3950276,20.8563536 13.0870166,21.1671271 13.0870166,21.1671271 C18.0939227,17.058011 18.301105,11.9129834 17.679558,11.3259669 C15.711326,9.56491713 12.5345304,9.56491713 9.42679558,10.808011 C-0.483425414,14.9171271 4.90331492,22.1685083 4.90331492,22.1685083 L4.90331492,22.1685083 Z" id="Path"></path>
                        <path d="M9.6339779,30.8701657 L8.39088398,30.8701657 C8.39088398,30.8701657 11.2223757,25.9668508 15.6077348,25.0345304 C15.6077348,25 11.6367403,26.5538674 9.6339779,30.8701657 L9.6339779,30.8701657 Z" id="Path"></path>
                        <path d="M23.8604972,6.73342541 C23.8604972,6.73342541 23.2044199,7.59668508 23.8950276,9.35773481 C24.551105,11.0842541 26.3121547,12.8798343 26.3121547,12.8798343 C26.3121547,12.8798343 24.2748619,9.87569061 23.8604972,6.73342541 L23.8604972,6.73342541 Z" id="Path"></path>
                        <path d="M10.980663,4.62707182 C10.980663,4.62707182 11.1533149,1.62292818 15.2624309,0.621546961 C20.9254144,-0.794198895 23.308011,1.58839779 23.308011,1.58839779 C23.308011,1.58839779 20.0621547,0.552486188 15.7803867,1.38121547 C14.5372928,1.65745856 12.7417127,2.55524862 12.0856354,4.35082873 C12.0165746,4.52348066 13.7430939,5.17955801 13.7430939,5.17955801 C13.7430939,5.17955801 15.2279006,11.7748619 19.2679558,14.1574586 C20.9944751,13.4668508 22.2030387,11.429558 22.2030387,11.429558 C22.2030387,11.3950276 21.961326,13.6740331 19.3370166,14.6754144 C14.4337017,12.1201657 12.8453039,5.66298343 12.8453039,5.66298343 C12.8453039,5.66298343 11.1187845,5.07596685 10.980663,4.62707182 L10.980663,4.62707182 Z" id="Path"></path>
                        <path d="M12.7071823,12.9834254 C3.45303867,15.4350829 7.11325967,19.3370166 7.11325967,19.3370166 C7.11325967,19.3370166 5.07596685,16.2638122 12.7071823,12.9834254 L12.7071823,12.9834254 Z" id="Path"></path>
                    </g>
                    <g id="Group" transform="translate(2.071823, 9.323204)" fill="#016D38">
                        <path d="M0.310773481,4.24723757 L0.414364641,4.24723757 L0.690607735,5.31767956 C0.932320442,5.4558011 1.34668508,5.52486188 1.5538674,5.52486188 C2.20994475,5.52486188 2.83149171,5.2140884 2.83149171,4.45441989 C2.83149171,3.24585635 0.20718232,3.34944751 0.20718232,1.79558011 C0.20718232,0.794198895 1.13950276,0.276243094 2.0718232,0.276243094 C2.41712707,0.276243094 2.96961326,0.379834254 3.31491713,0.552486188 L3.28038674,1.69198895 L3.17679558,1.69198895 L2.8660221,0.759668508 C2.58977901,0.656077348 2.31353591,0.587016575 2.00276243,0.587016575 C1.48480663,0.587016575 1.00138122,1.00138122 1.00138122,1.5538674 C1.00138122,2.8660221 3.62569061,2.52071823 3.62569061,4.28176796 C3.62569061,5.00690608 3.07320442,5.83563536 1.41574586,5.83563536 C1.00138122,5.83563536 0.656077348,5.80110497 0.172651934,5.59392265 L0.310773481,4.24723757 Z" id="Path"></path>
                        <path d="M6.07734807,1.62292818 C6.07734807,0.828729282 6.04281768,0.759668508 5.87016575,0.725138122 L5.17955801,0.483425414 L5.17955801,0.345303867 C5.87016575,0.379834254 6.52624309,0.414364641 7.14779006,0.414364641 C7.94198895,0.414364641 8.73618785,0.379834254 9.46132597,0.345303867 C9.46132597,0.552486188 9.42679558,0.863259669 9.42679558,0.966850829 C9.42679558,1.10497238 9.42679558,1.38121547 9.46132597,1.58839779 L9.35773481,1.58839779 L9.15055249,0.966850829 C9.08149171,0.725138122 9.01243094,0.725138122 8.04558011,0.725138122 C7.5621547,0.725138122 7.18232044,0.725138122 6.87154696,0.725138122 C6.87154696,1.0359116 6.83701657,1.34668508 6.83701657,1.69198895 L6.83701657,2.72790055 L7.70027624,2.72790055 C8.70165746,2.72790055 8.80524862,2.72790055 8.87430939,2.52071823 L9.08149171,1.93370166 L9.18508287,1.93370166 C9.18508287,2.24447514 9.18508287,2.55524862 9.18508287,2.8660221 C9.18508287,3.21132597 9.18508287,3.52209945 9.18508287,3.86740331 L9.08149171,3.86740331 L8.87430939,3.24585635 C8.80524862,3.07320442 8.70165746,3.03867403 7.70027624,3.03867403 L6.83701657,3.03867403 L6.83701657,4.1781768 C6.83701657,4.55801105 6.87154696,4.9378453 6.87154696,5.31767956 C7.25138122,5.31767956 7.66574586,5.35220994 8.04558011,5.35220994 C8.94337017,5.35220994 9.08149171,5.35220994 9.15055249,5.24861878 C9.25414365,5.11049724 9.35773481,4.86878453 9.49585635,4.35082873 L9.59944751,4.35082873 C9.59944751,4.59254144 9.56491713,4.83425414 9.56491713,5.07596685 L9.56491713,5.69751381 C9.1160221,5.66298343 7.83839779,5.62845304 7.35497238,5.62845304 C6.62983425,5.62845304 5.80110497,5.66298343 5.2140884,5.69751381 L5.2140884,5.59392265 L5.87016575,5.38674033 C6.11187845,5.31767956 6.14640884,5.28314917 6.14640884,4.62707182 L6.14640884,1.62292818 L6.07734807,1.62292818 Z" id="Path"></path>
                        <path d="M15.4005525,3.86740331 C15.4005525,3.72928177 15.3660221,3.69475138 14.9861878,3.55662983 L14.5027624,3.34944751 L14.5027624,3.24585635 C14.9171271,3.24585635 15.2969613,3.31491713 15.711326,3.31491713 C16.0911602,3.31491713 16.4709945,3.28038674 16.8162983,3.24585635 L16.8162983,3.34944751 L16.2983425,3.59116022 C16.160221,3.66022099 16.1256906,3.76381215 16.1256906,3.93646409 L16.1256906,5.2140884 C16.1256906,5.28314917 16.1256906,5.4558011 16.1256906,5.59392265 C15.8149171,5.69751381 15.1243094,5.83563536 14.5372928,5.83563536 C12.6381215,5.83563536 11.429558,4.73066298 11.429558,3.14226519 C11.429558,1.20856354 13.2251381,0.241712707 14.7099448,0.241712707 C15.1588398,0.241712707 15.538674,0.276243094 15.9185083,0.345303867 C15.9185083,0.552486188 15.9185083,0.794198895 15.9185083,1.00138122 C15.9185083,1.24309392 15.9185083,1.48480663 15.9185083,1.72651934 L15.8149171,1.72651934 C15.711326,1.38121547 15.538674,0.897790055 15.4005525,0.759668508 C15.3314917,0.656077348 14.8135359,0.587016575 14.468232,0.587016575 C13.2941989,0.587016575 12.2928177,1.41574586 12.2928177,3.07320442 C12.2928177,4.52348066 13.1560773,5.52486188 14.3991713,5.52486188 C14.7444751,5.52486188 15.0552486,5.49033149 15.3660221,5.38674033 C15.3660221,5.24861878 15.3660221,5.14502762 15.3660221,5.07596685 L15.3660221,3.86740331 L15.4005525,3.86740331 Z" id="Path"></path>
                        <path d="M23.6533149,0.483425414 L23.2734807,0.621546961 C23.0662983,0.725138122 22.9281768,0.794198895 22.9281768,0.966850829 C22.9281768,1.45027624 22.9281768,2.14088398 22.9281768,3.62569061 C22.9281768,5.24861878 22.0994475,5.87016575 20.8563536,5.87016575 C19.6477901,5.87016575 18.7845304,5.35220994 18.7845304,4.04005525 L18.7845304,1.69198895 C18.7845304,1.00138122 18.75,0.828729282 18.5082873,0.725138122 L17.8867403,0.483425414 L17.8867403,0.345303867 C18.301105,0.379834254 18.6809392,0.414364641 19.0953039,0.414364641 C19.5441989,0.414364641 19.9930939,0.379834254 20.4074586,0.345303867 L20.4074586,0.448895028 L20.0276243,0.587016575 C19.5787293,0.759668508 19.5096685,0.794198895 19.4751381,1.10497238 C19.4406077,1.58839779 19.4406077,2.31353591 19.4406077,3.62569061 C19.4406077,4.6961326 19.6823204,5.42127072 21.0290055,5.42127072 C21.9267956,5.42127072 22.4447514,4.86878453 22.4447514,3.86740331 C22.4447514,2.83149171 22.4447514,1.48480663 22.3756906,0.932320442 C22.3756906,0.794198895 22.2375691,0.725138122 21.9958564,0.621546961 L21.5469613,0.483425414 L21.5469613,0.345303867 C21.8922652,0.379834254 22.2720994,0.414364641 22.6519337,0.414364641 C22.9627072,0.414364641 23.308011,0.379834254 23.6187845,0.345303867 L23.6187845,0.483425414 L23.6533149,0.483425414 Z" id="Path"></path>
                        <path d="M24.7928177,5.62845304 L25.448895,5.42127072 C25.6906077,5.35220994 25.7251381,5.31767956 25.7251381,4.66160221 L25.7251381,1.62292818 C25.7251381,0.828729282 25.6906077,0.759668508 25.5179558,0.725138122 L24.8273481,0.483425414 L24.8273481,0.345303867 C25.1381215,0.379834254 25.5179558,0.414364641 26.0013812,0.414364641 C26.4502762,0.414364641 26.9337017,0.345303867 27.5207182,0.345303867 C28.6256906,0.345303867 29.3508287,0.794198895 29.3508287,1.62292818 C29.3508287,2.48618785 28.7292818,2.8660221 27.9696133,3.00414365 L29.1436464,4.73066298 C29.6270718,5.4558011 29.6616022,5.52486188 30.1450276,5.59392265 L30.1450276,5.69751381 C29.9378453,5.69751381 29.7651934,5.66298343 29.558011,5.66298343 C29.3508287,5.66298343 29.1436464,5.66298343 28.9364641,5.69751381 C28.3839779,4.79972376 27.6588398,3.72928177 27.140884,3.03867403 L26.4848066,3.03867403 L26.4848066,4.00552486 C26.4848066,5.11049724 26.519337,5.28314917 26.7265193,5.35220994 L27.3825967,5.59392265 L27.3825967,5.69751381 C27.0372928,5.66298343 26.4502762,5.62845304 26.1740331,5.62845304 C25.7596685,5.62845304 25.2417127,5.66298343 24.8618785,5.69751381 L24.8618785,5.62845304 L24.7928177,5.62845304 Z M26.4157459,2.79696133 L27.0027624,2.79696133 C27.7969613,2.79696133 28.5220994,2.65883978 28.5220994,1.76104972 C28.5220994,1.0359116 28.0041436,0.690607735 27.2099448,0.690607735 C26.9337017,0.690607735 26.691989,0.690607735 26.4502762,0.690607735 L26.4502762,2.79696133 L26.4157459,2.79696133 Z" id="Shape"></path>
                        <path d="M31.5607735,3.10773481 C31.5607735,1.45027624 32.5966851,0.276243094 34.3232044,0.276243094 C35.8770718,0.276243094 36.8439227,1.34668508 36.8439227,2.90055249 C36.8439227,4.55801105 35.8425414,5.87016575 34.1850829,5.87016575 C32.4240331,5.83563536 31.5607735,4.45441989 31.5607735,3.10773481 Z M35.980663,3.28038674 C35.980663,1.86464088 35.6008287,0.552486188 34.2196133,0.552486188 C33.0455801,0.552486188 32.4240331,1.51933702 32.4240331,2.72790055 C32.4240331,4.45441989 33.0455801,5.59392265 34.2541436,5.59392265 C35.531768,5.55939227 35.980663,4.4198895 35.980663,3.28038674 Z" id="Shape"></path>
                        <path d="M38.9157459,4.24723757 L39.019337,4.24723757 L39.2955801,5.31767956 C39.5372928,5.4558011 39.9516575,5.52486188 40.1588398,5.52486188 C40.8149171,5.52486188 41.4364641,5.2140884 41.4364641,4.45441989 C41.4364641,3.24585635 38.8121547,3.34944751 38.8121547,1.79558011 C38.8121547,0.794198895 39.7444751,0.276243094 40.6767956,0.276243094 C41.0220994,0.276243094 41.5745856,0.379834254 41.9198895,0.552486188 L41.8853591,1.69198895 L41.781768,1.69198895 L41.4709945,0.759668508 C41.1947514,0.656077348 40.9185083,0.587016575 40.6077348,0.587016575 C40.089779,0.587016575 39.6063536,1.00138122 39.6063536,1.5538674 C39.6063536,2.8660221 42.230663,2.52071823 42.230663,4.28176796 C42.230663,5.00690608 41.6781768,5.83563536 40.0207182,5.83563536 C39.6063536,5.83563536 39.2610497,5.80110497 38.7776243,5.59392265 L38.9157459,4.24723757 Z" id="Path"></path>
                    </g>
                    <g id="Group" transform="translate(0.000000, 16.574586)" fill="#016D38">
                        <path d="M1.86464088,6.28453039 C1.86464088,4.6961326 1.8301105,4.59254144 1.45027624,4.48895028 L0.0345303867,4.00552486 L0.0345303867,3.79834254 C0.966850829,3.86740331 1.79558011,3.93646409 2.48618785,3.93646409 C3.14226519,3.93646409 4.4198895,3.79834254 5.38674033,3.79834254 C7.18232044,3.79834254 8.97790055,4.59254144 8.97790055,6.59530387 C8.97790055,7.97651934 7.45856354,8.80524862 5.90469613,8.94337017 L5.90469613,8.97790055 C7.5621547,9.08149171 9.49585635,9.70303867 9.49585635,11.7058011 C9.49585635,13.2596685 8.28729282,14.5372928 5.87016575,14.5372928 C4.59254144,14.5372928 3.28038674,14.3991713 2.24447514,14.3991713 C1.45027624,14.3991713 0.794198895,14.468232 0.0345303867,14.5372928 L0.0345303867,14.2955801 L1.3121547,13.8466851 C1.79558011,13.7085635 1.86464088,13.6395028 1.86464088,12.3273481 L1.86464088,6.28453039 Z M3.28038674,8.66712707 L4.55801105,8.66712707 C5.66298343,8.66712707 7.35497238,8.49447514 7.35497238,6.56077348 C7.35497238,4.90331492 6.18093923,4.35082873 4.76519337,4.35082873 C4.21270718,4.35082873 3.86740331,4.35082873 3.31491713,4.38535912 C3.28038674,5.14502762 3.28038674,5.62845304 3.28038674,6.38812155 L3.28038674,8.66712707 L3.28038674,8.66712707 Z M3.28038674,12.3964088 C3.28038674,12.9143646 3.28038674,13.4323204 3.31491713,13.9502762 C3.76381215,13.9502762 4.1781768,13.9848066 4.59254144,13.9848066 C6.21546961,13.9848066 7.87292818,13.6049724 7.87292818,11.6367403 C7.87292818,9.80662983 6.31906077,9.21961326 4.45441989,9.21961326 L3.28038674,9.21961326 L3.28038674,12.3964088 Z" id="Shape"></path>
                        <path d="M13.2941989,9.25414365 C13.2941989,5.93922652 15.4005525,3.59116022 18.7845304,3.59116022 C21.8577348,3.59116022 23.8259669,5.76657459 23.8259669,8.80524862 C23.8259669,12.1201657 21.8232044,14.7444751 18.5082873,14.7444751 C15.0207182,14.7444751 13.2941989,11.9820442 13.2941989,9.25414365 Z M22.0994475,9.59944751 C22.0994475,6.80248619 21.339779,4.14364641 18.5773481,4.14364641 C16.2638122,4.14364641 14.9861878,6.07734807 14.9861878,8.45994475 C14.9861878,11.9129834 16.1947514,14.191989 18.6464088,14.191989 C21.2016575,14.191989 22.0994475,11.878453 22.0994475,9.59944751 Z" id="Shape"></path>
                        <path d="M28.4185083,6.28453039 C28.4185083,4.6961326 28.3839779,4.59254144 28.0041436,4.48895028 L26.5883978,4.00552486 L26.5883978,3.79834254 C27.3825967,3.86740331 28.211326,3.93646409 29.0745856,3.93646409 C29.9378453,3.93646409 30.7320442,3.86740331 31.7679558,3.79834254 L31.7679558,4.04005525 L30.2486188,4.48895028 C29.8687845,4.59254144 29.8342541,4.73066298 29.8342541,6.42265193 L29.8342541,12.7417127 L29.8342541,13.7776243 L33.0801105,13.7776243 C33.9088398,13.7776243 34.0469613,13.6395028 34.3232044,12.9834254 L34.8411602,11.8439227 L35.0483425,11.8439227 L34.910221,14.5372928 C33.2872928,14.468232 31.0428177,14.3991713 30.0414365,14.3991713 C28.9019337,14.3991713 27.7624309,14.468232 26.5883978,14.5372928 L26.5883978,14.2955801 L27.8660221,13.8466851 C28.3494475,13.7085635 28.4185083,13.6395028 28.4185083,12.3273481 L28.4185083,6.28453039 L28.4185083,6.28453039 Z" id="Path"></path>
                        <path d="M37.1546961,14.2955801 L38.4323204,13.8466851 C38.8466851,13.7085635 38.9157459,13.6395028 38.9157459,12.3273481 C38.9157459,11.3259669 38.9502762,10.2900552 38.9502762,9.28867403 C38.9502762,8.28729282 38.9157459,7.25138122 38.9157459,6.25 C38.8812155,4.66160221 38.8812155,4.55801105 38.5359116,4.45441989 L37.1201657,3.97099448 L37.1201657,3.79834254 C37.9143646,3.86740331 38.7430939,3.93646409 39.6754144,3.93646409 C40.5041436,3.93646409 41.3328729,3.86740331 42.1616022,3.79834254 L42.1616022,4.04005525 L40.7458564,4.52348066 C40.4350829,4.62707182 40.4005525,4.76519337 40.3660221,6.31906077 C40.3660221,7.32044199 40.3314917,8.35635359 40.3314917,9.35773481 C40.3314917,10.359116 40.3660221,11.3950276 40.3660221,12.3964088 C40.3660221,13.6740331 40.4350829,13.7430939 40.8494475,13.9157459 L42.1270718,14.3646409 L42.1270718,14.6063536 C41.3328729,14.5372928 40.3660221,14.468232 39.640884,14.468232 C38.8121547,14.468232 37.8453039,14.5372928 37.0856354,14.6063536 L37.0856354,14.2955801 L37.1546961,14.2955801 Z M40.9185083,0.621546961 C41.0911602,0.448895028 41.2983425,0.276243094 41.609116,0.276243094 C41.9198895,0.276243094 42.1616022,0.483425414 42.1616022,0.759668508 C42.1616022,1.0359116 42.058011,1.20856354 41.7472376,1.41574586 L39.191989,3.14226519 L38.3977901,3.14226519 L40.9185083,0.621546961 Z" id="Shape"></path>
                        <path d="M43.9917127,3.79834254 C44.7513812,3.86740331 45.5455801,3.93646409 46.3052486,3.93646409 C46.9958564,3.93646409 47.7209945,3.86740331 48.4461326,3.79834254 L48.4461326,4.04005525 L47.859116,4.21270718 C47.0994475,4.4198895 46.9267956,4.52348066 46.9267956,4.6961326 C46.9267956,5.04143646 49.0676796,10.2555249 49.8618785,12.0165746 C50.8977901,9.56491713 51.8301105,7.14779006 52.4171271,5.31767956 C52.5207182,5.00690608 52.589779,4.83425414 52.589779,4.66160221 C52.589779,4.48895028 52.0718232,4.28176796 51.3466851,4.07458564 L51.3466851,3.79834254 C51.968232,3.86740331 52.6243094,3.93646409 53.2458564,3.93646409 C53.7638122,3.93646409 54.281768,3.86740331 54.7651934,3.79834254 L54.7651934,4.04005525 C54.0400552,4.21270718 53.7983425,4.4198895 53.5566298,4.97237569 C52.4861878,7.25138122 51.1740331,10.5662983 49.6546961,14.7444751 L49.2748619,14.7444751 C48.1698895,11.7058011 46.4779006,7.49309392 45.441989,5.04143646 C45.1657459,4.4198895 45.0621547,4.38535912 44.5096685,4.1781768 L44.0262431,4.00552486 L44.0262431,3.79834254 L43.9917127,3.79834254 Z" id="Path"></path>
                        <path d="M54.5925414,14.2955801 C55.0069061,14.1574586 55.4558011,13.9502762 55.8701657,13.7430939 C57.320442,10.3245856 59.1505525,6.45718232 60.3245856,3.45303867 L60.7044199,3.45303867 C62.051105,6.94060773 63.5359116,10.4281768 64.9861878,13.8121547 L66.4019337,14.2955801 L66.4019337,14.5372928 C65.5041436,14.468232 64.640884,14.3991713 63.7430939,14.3991713 C62.9834254,14.3991713 62.2582873,14.468232 61.4986188,14.5372928 L61.4986188,14.2955801 C61.9129834,14.191989 62.6381215,13.9848066 63.1560773,13.7776243 C62.948895,13.0870166 62.4309392,11.4986188 62.1892265,11.0151934 C61.4986188,11.0151934 60.7734807,10.980663 60.0483425,10.980663 C59.3232044,10.980663 58.6671271,10.980663 57.941989,11.0151934 C57.4930939,11.878453 57.2168508,12.8453039 56.9751381,13.7776243 L58.4254144,14.2955801 L58.4254144,14.5372928 C57.769337,14.468232 57.1132597,14.3991713 56.4571823,14.3991713 C55.8356354,14.3991713 55.2140884,14.468232 54.5925414,14.5372928 L54.5925414,14.2955801 Z M60.1174033,5.87016575 L58.1837017,10.2900552 L61.9475138,10.2900552 L60.1174033,5.87016575 Z" id="Shape"></path>
                        <path d="M68.1975138,14.2955801 L69.4751381,13.8466851 C69.9585635,13.7085635 70.0276243,13.6395028 70.0276243,12.3273481 L70.0276243,6.28453039 C70.0276243,4.6961326 69.9930939,4.59254144 69.6132597,4.48895028 L68.1975138,4.00552486 L68.1975138,3.79834254 C68.8190608,3.86740331 69.6132597,3.93646409 70.5110497,3.93646409 C71.3743094,3.93646409 72.3411602,3.79834254 73.5151934,3.79834254 C75.7251381,3.79834254 77.1754144,4.6961326 77.1754144,6.38812155 C77.1754144,8.0801105 75.9668508,8.87430939 74.4129834,9.15055249 L76.7265193,12.6035912 C77.6933702,14.0538674 77.7969613,14.191989 78.7292818,14.3301105 L78.7292818,14.5718232 C78.3494475,14.5372928 77.9350829,14.5027624 77.5552486,14.5027624 C77.140884,14.5027624 76.7265193,14.5372928 76.3121547,14.5718232 C75.2417127,12.7762431 73.7569061,10.6353591 72.7209945,9.25414365 L71.4433702,9.25414365 L71.4433702,11.1878453 C71.4433702,13.3632597 71.4779006,13.7430939 71.9267956,13.8812155 L73.2734807,14.3301105 L73.2734807,14.5718232 C72.5483425,14.5027624 71.4433702,14.4337017 70.8563536,14.4337017 C69.9930939,14.4337017 69.0262431,14.5027624 68.2320442,14.5718232 L68.2320442,14.2955801 L68.1975138,14.2955801 Z M71.4433702,8.66712707 L72.5828729,8.66712707 C74.1367403,8.66712707 75.5870166,8.42541436 75.5870166,6.56077348 C75.5870166,5.07596685 74.551105,4.45441989 72.9972376,4.45441989 C72.4447514,4.45441989 71.961326,4.45441989 71.4433702,4.45441989 L71.4433702,8.66712707 Z" id="Shape"></path>
                    </g>
                </g>
            </g>
        </g>
    </g>
</svg>