<svg width="21" height="22" viewBox="0 0 21 22" fill="none" xmlns="http://www.w3.org/2000/svg">
<path fill-rule="evenodd" clip-rule="evenodd" d="M16.0535 0.710449C16.7036 0.710449 17.3026 1.05702 17.6166 1.6149C19.773 5.44554 20.9129 9.80756 20.9129 14.2294V16.8097C20.9129 17.035 20.7856 17.241 20.584 17.3417C20.5087 17.3794 20.4227 17.4231 20.3261 17.4722C18.5744 18.3627 13.3611 21.013 6.00089 21.013C4.35394 21.013 2.81567 20.2646 1.7806 18.9597C0.747623 17.6575 0.374665 15.9724 0.757221 14.3364C1.20208 12.4344 2.75638 10.9064 4.62918 10.4382C6.50226 9.96994 8.37796 10.4854 9.70231 11.7524C11.4405 11.3989 13.2486 11.4569 14.9639 11.9257V7.25325C14.9639 6.92528 14.6971 6.65845 14.369 6.65845H10.7997C9.81562 6.65845 9.01501 5.85797 9.01501 4.87405V2.49485C9.01501 1.51093 9.81562 0.710449 10.7997 0.710449H16.0535ZM6.00074 19.8235C12.8978 19.8235 17.7903 17.4166 19.7229 16.4433H19.723V14.2295C19.723 10.0116 18.6361 5.85137 16.5797 2.19846C16.4761 2.01447 16.2744 1.90015 16.0534 1.90015H10.7995C10.4715 1.90015 10.2046 2.16698 10.2046 2.49495V4.87415C10.2046 5.20213 10.4715 5.46895 10.7995 5.46895H12.5842V4.27935H11.9893C11.6608 4.27935 11.3944 4.01304 11.3944 3.68455C11.3944 3.35606 11.6608 3.08975 11.9893 3.08975H13.1791C13.5077 3.08975 13.774 3.35606 13.774 3.68455V5.46895H14.3689C15.353 5.46895 16.1536 6.26944 16.1536 7.25336V12.3236C16.4448 12.4395 16.7322 12.5678 17.0145 12.7089C17.3084 12.8559 17.4275 13.2131 17.2805 13.507C17.1339 13.8002 16.7768 13.9202 16.4824 13.773C13.6565 12.3602 10.2824 12.3603 7.45656 13.773C7.16268 13.9199 6.80535 13.8008 6.65845 13.507C6.51151 13.2131 6.63061 12.8559 6.92449 12.7089C7.3676 12.4874 7.82274 12.297 8.28659 12.1377C7.31672 11.4976 6.11563 11.2928 4.9176 11.5923C3.45844 11.9571 2.252 13.1687 1.91561 14.6073C1.61618 15.8876 1.90668 17.2046 2.71257 18.2205C3.52071 19.2392 4.71918 19.8235 6.00074 19.8235Z" fill="#016D38"/>
<path d="M16.9829 14.1563C12.7754 12.4076 10.5614 12.699 6.73633 14.3633" stroke="#FFDC5D" stroke-linecap="round"/>
</svg>
