<svg width="23" height="21" viewBox="0 0 23 21" fill="none" xmlns="http://www.w3.org/2000/svg">
<path fill-rule="evenodd" clip-rule="evenodd" d="M12.1408 13.3899C11.8408 13.3899 11.6408 13.1899 11.5408 12.9899L9.14082 6.68994L7.14082 9.48994C7.04082 9.68994 6.84082 9.78994 6.64082 9.78994L2.04082 9.88994C1.64082 9.88994 1.34082 9.58994 1.34082 9.28994C1.34082 8.88994 1.64082 8.58994 1.94082 8.58994L6.24082 8.48994L8.84082 4.98994C8.94082 4.78994 9.24082 4.68994 9.44082 4.68994C9.64082 4.68994 9.84082 4.88994 9.94082 5.08994L12.3408 11.3899L15.3408 7.18994C15.4408 6.98994 15.7408 6.88994 15.9408 6.88994C16.1408 6.88994 16.3408 7.08994 16.4408 7.28994L17.8408 11.3899H21.9408C22.3408 11.3899 22.6408 11.6899 22.6408 12.0899C22.6408 12.4899 22.3408 12.7899 21.9408 12.7899H17.3408C17.0408 12.7899 16.8408 12.5899 16.7408 12.3899L15.6408 9.08994L12.6408 13.1899C12.5408 13.2899 12.3408 13.3899 12.1408 13.3899Z" fill="#FFDC5D"/>
<path fill-rule="evenodd" clip-rule="evenodd" d="M11.2409 20.1905C11.0409 20.1905 10.9409 20.0905 10.7409 19.9905L3.54092 12.7905C3.24092 12.4905 3.24092 12.0905 3.54092 11.8905C3.84092 11.5905 4.24092 11.5905 4.44092 11.8905L11.1409 18.5905L14.8409 14.8905C15.1409 14.5905 15.5409 14.5905 15.7409 14.8905C16.0409 15.1905 16.0409 15.5905 15.7409 15.7905L11.5409 19.9905C11.6409 20.0905 11.4409 20.1905 11.2409 20.1905Z" fill="#016D38"/>
<path fill-rule="evenodd" clip-rule="evenodd" d="M20.3408 11.1901C20.1408 11.1901 20.0408 11.0901 19.8408 10.9901C19.5408 10.6901 19.5408 10.2901 19.8408 10.0901C21.6408 8.29014 21.6408 5.39014 19.8408 3.49014C18.9408 2.59014 17.8408 2.09014 16.5408 2.09014C15.3408 2.09014 14.1408 2.59014 13.3408 3.49014L11.7408 5.09014C11.4408 5.39014 11.0408 5.39014 10.8408 5.09014L9.44079 3.69014C8.54079 2.69014 7.34079 2.29014 6.14079 2.29014C4.94079 2.29014 3.74079 2.79014 2.84079 3.69014C1.84079 4.59014 1.34079 6.09014 1.54079 7.49014C1.54079 7.89014 1.34079 8.19014 0.94079 8.19014C0.54079 8.19014 0.24079 7.99014 0.24079 7.59014C-0.0592103 5.69014 0.64079 3.89014 1.94079 2.59014C3.04079 1.49014 4.54079 0.890137 6.14079 0.890137C7.74079 0.890137 9.24079 1.49014 10.3408 2.59014L11.2408 3.49014L12.3408 2.49014C14.6408 0.190137 18.4408 0.190137 20.7408 2.49014C23.0408 4.79014 23.0408 8.59014 20.7408 10.8901C20.6408 11.0901 20.4408 11.1901 20.3408 11.1901Z" fill="#016D38"/>
<path fill-rule="evenodd" clip-rule="evenodd" d="M11.1408 14.3899C10.8408 14.3899 10.6408 14.1899 10.5408 13.9899L8.14082 7.68994L6.14082 10.4899C6.04082 10.6899 5.84082 10.7899 5.64082 10.7899L1.04082 10.8899C0.64082 10.8899 0.34082 10.5899 0.34082 10.2899C0.34082 9.88994 0.64082 9.58994 0.94082 9.58994L5.24082 9.48994L7.84082 5.98994C7.94082 5.78994 8.24082 5.68994 8.44082 5.68994C8.64082 5.68994 8.84082 5.88994 8.94082 6.08994L11.3408 12.3899L14.3408 8.18994C14.4408 7.98994 14.7408 7.88994 14.9408 7.88994C15.1408 7.88994 15.3408 8.08994 15.4408 8.28994L16.8408 12.3899H20.9408C21.3408 12.3899 21.6408 12.6899 21.6408 13.0899C21.6408 13.4899 21.3408 13.7899 20.9408 13.7899H16.3408C16.0408 13.7899 15.8408 13.5899 15.7408 13.3899L14.6408 10.0899L11.6408 14.1899C11.5408 14.2899 11.3408 14.3899 11.1408 14.3899Z" fill="#016D38"/>
</svg>
