<svg width="18" height="23" viewBox="0 0 18 23" fill="none" xmlns="http://www.w3.org/2000/svg">
<path d="M6.78937 13.0934L6.78942 13.0934C7.07203 13.2885 7.24369 13.6251 7.24369 13.9966V16.17C6.98233 16.2521 6.74294 16.3988 6.5446 16.6022C6.24844 16.9058 6.07599 17.3019 6.05252 17.726H5.75179C5.03596 17.726 4.45787 18.3225 4.45787 19.0503V21.4987C4.45787 21.7769 4.67858 22.0068 4.95584 22.0068H12.9153C13.1926 22.0068 13.4133 21.7769 13.4133 21.4987V19.0503C13.4133 18.3225 12.8352 17.726 12.1194 17.726H11.8186C11.7776 16.9933 11.2894 16.3795 10.6275 16.1705V13.9987C10.6275 13.6258 10.7992 13.2888 11.0822 13.0934L11.0822 13.0934C12.4371 12.1575 13.507 10.8657 14.1891 9.34681C16.1847 8.77027 17.393 6.77662 17.393 4.11458C17.393 3.38677 16.8149 2.79035 16.0991 2.79035H15.0052V2.23742C15.0052 1.50961 14.4271 0.913184 13.7113 0.913184H4.15989C3.44407 0.913184 2.86597 1.50961 2.86597 2.23742V2.79035H1.77205C1.05622 2.79035 0.478125 3.38677 0.478125 4.11458C0.478125 6.77704 1.68651 8.7707 3.68291 9.34723C4.36498 10.8657 5.43483 12.1575 6.78937 13.0934ZM13.3734 8.71596L13.3734 8.71598C12.7734 10.1562 11.7879 11.3786 10.5236 12.2518C9.96345 12.6383 9.63113 13.2922 9.63113 13.9987V16.6018C9.63113 16.8799 9.85185 17.1099 10.1291 17.1099C10.4779 17.1099 10.7708 17.3766 10.8183 17.726H7.05239C7.07314 17.5721 7.14173 17.4304 7.25052 17.3188C7.37451 17.1917 7.53621 17.1188 7.70885 17.1104C7.71964 17.1112 7.73045 17.1115 7.74126 17.1115C8.0191 17.1115 8.23924 16.8793 8.23924 16.6014V13.9962C8.23924 13.2913 7.90729 12.6383 7.34758 12.2518C6.08333 11.3786 5.0978 10.1558 4.49775 8.71558L4.49774 8.71554C4.07582 7.70393 3.86192 6.63235 3.86192 5.53062V2.23742C3.86192 2.06542 3.99819 1.92934 4.15989 1.92934H13.7113C13.873 1.92934 14.0092 2.06542 14.0092 2.23742V5.53062C14.0092 6.63235 13.7953 7.70394 13.3734 8.71596ZM1.47407 4.11458C1.47407 3.94258 1.61034 3.8065 1.77205 3.8065H2.86597V5.53062C2.86597 6.38713 2.98121 7.2281 3.20931 8.04153C2.11664 7.36812 1.47407 5.98206 1.47407 4.11458ZM12.1194 18.7422C12.2811 18.7422 12.4173 18.8783 12.4173 19.0503V20.9907H5.45381V19.0503C5.45381 18.8783 5.59008 18.7422 5.75179 18.7422H12.1194ZM16.3971 4.11458C16.3971 5.98176 15.7545 7.36819 14.6617 8.04161C14.8896 7.22792 15.0052 6.38724 15.0052 5.53062V3.8065H16.0991C16.2608 3.8065 16.3971 3.94258 16.3971 4.11458Z" fill="#016D38" stroke="#016D38" stroke-width="0.2"/>
</svg>
