<svg width="19" height="19" viewBox="0 0 19 19" fill="none" xmlns="http://www.w3.org/2000/svg">
<path d="M10.0882 0.866372L12.5176 6.24471C12.5591 6.33656 12.644 6.40144 12.7435 6.41741L18.1358 7.28303C18.3775 7.32184 18.4735 7.61825 18.3004 7.79137L14.2562 11.8356C14.1869 11.9048 14.1558 12.0035 14.1729 12.1L15.1909 17.8515C15.2352 18.1021 14.9671 18.2906 14.7463 18.1641L9.9003 15.3878C9.8069 15.3342 9.69199 15.3349 9.59918 15.3894L4.67762 18.2815C4.4605 18.4091 4.19229 18.2285 4.2288 17.9793L5.09911 12.0407C5.11314 11.945 5.08016 11.8484 5.01054 11.7812L0.827326 7.74696C0.647099 7.57315 0.746529 7.26807 0.994563 7.23383L6.9233 6.41554C7.02616 6.40135 7.11437 6.33497 7.15649 6.24006L9.54056 0.868177C9.64569 0.631293 9.98147 0.630187 10.0882 0.866372Z" stroke="#016D38" stroke-width="1.2"/>
<path d="M2.11914 7.94922C4.09966 9.64663 5.27772 10.8233 6.1265 11.5778L5.18495 17.1472" stroke="#FFDC5D" stroke-linecap="round" stroke-linejoin="round"/>
</svg>
