<svg width="36" height="25" viewBox="0 0 36 25" fill="none" xmlns="http://www.w3.org/2000/svg">
<path fill-rule="evenodd" clip-rule="evenodd" d="M33.0334 11.5105C34.7603 12.0302 35.7134 12.7349 35.8997 13.6105L36 21.8252C36 23.0994 34.4594 23.8468 33.1481 24.2454C31.5573 24.7295 29.4793 25 27.2723 25C23.2596 25 18.953 24.096 18.5876 22.1241C16.9108 22.1099 15.3272 21.9391 13.9801 21.6259C12.4538 22.8573 10.5406 23.5336 8.57006 23.5336C3.8336 23.5336 0 19.7181 0 15.0128C0 10.3146 3.84793 6.49203 8.57723 6.49203C9.12182 6.49203 9.65924 6.54186 10.1895 6.64151L10.1107 3.3955C10.0963 3.3172 10.0892 3.2389 10.0892 3.16059C10.0892 1.88639 11.6441 1.14607 12.9411 0.747437C14.5175 0.263383 16.6027 0 18.8097 0C21.0239 0 23.1234 0.263383 24.7357 0.747437C26.3479 1.23149 27.301 1.87927 27.5661 2.67654L27.7596 10.7773C29.7659 10.82 31.586 11.0763 33.0334 11.5105ZM18.7954 1.42369C16.7317 1.42369 14.7898 1.67284 13.3424 2.11418C11.9737 2.53417 11.4936 3.0111 11.4936 3.16059C11.5008 3.16771 11.508 3.17483 11.508 3.18195C11.5438 3.33855 11.9809 3.82973 13.5215 4.27107C14.9475 4.68394 16.8248 4.91173 18.8025 4.91173C20.8447 4.91173 22.8583 4.65547 24.3129 4.22124C25.875 3.75142 26.2118 3.26737 26.2118 3.16771C26.2118 3.06805 25.875 2.584 24.3129 2.11418C22.8511 1.67284 20.8376 1.42369 18.7954 1.42369ZM26.3264 4.92597V6.70558C26.2476 6.82659 26.2118 6.96185 26.2118 7.10421C26.2118 7.19675 25.875 7.68793 24.3201 8.15775C22.8654 8.59909 20.8519 8.84823 18.8097 8.84823C17.0398 8.84823 15.3057 8.66315 13.9299 8.31435C13.9201 8.31109 13.9102 8.30932 13.9011 8.30768C13.8902 8.30574 13.8804 8.30397 13.8726 8.30011C13.199 7.76623 12.4395 7.33912 11.6369 7.04015L11.5868 5.03274C12.0812 5.28189 12.5971 5.48121 13.1346 5.62358C14.6895 6.07204 16.703 6.31407 18.8169 6.31407C21.0311 6.31407 23.1306 6.05068 24.7357 5.56663C25.2803 5.42426 25.8177 5.20359 26.3264 4.92597ZM3.28901 19.7893C5.94029 22.6865 10.4618 22.9001 13.3782 20.2591C14.8686 18.9208 15.7213 17.0131 15.7142 15.0128C15.7142 14.5359 15.664 14.0518 15.5709 13.582C15.2484 12.0444 14.4244 10.6492 13.2205 9.63126C12.4825 8.9906 11.6154 8.51367 10.6839 8.22893C9.99602 8.02249 9.28662 7.91572 8.57006 7.91572C6.79299 7.91572 5.08041 8.57773 3.76194 9.76651C0.845541 12.4003 0.637739 16.8921 3.28901 19.7893ZM15.1982 20.4157C15.7787 19.711 16.2444 18.9208 16.574 18.0737C17.1903 18.1236 17.8352 18.1592 18.5016 18.1663C18.4873 18.2517 18.4873 18.33 18.5016 18.4154L18.5303 20.7076C17.4196 20.6933 16.3089 20.6008 15.1982 20.4157ZM18.4228 14.2155C17.9713 14.2084 17.5342 14.1942 17.1115 14.1657C17.133 14.4505 17.1473 14.7281 17.1473 15.0057C17.1473 15.5609 17.09 16.1233 16.9825 16.6714C17.4626 16.707 17.9713 16.7284 18.4873 16.7355L18.4586 14.365L18.4586 14.365C18.4443 14.3152 18.4299 14.2654 18.4228 14.2155ZM18.8599 12.799H18.8025C18.1075 12.799 17.4482 12.7705 16.832 12.7207C16.5669 11.7739 16.1298 10.877 15.5565 10.0726C16.6314 10.2079 17.7205 10.279 18.8025 10.279C21.0167 10.279 23.1162 10.0157 24.7213 9.53161C25.2803 9.375 25.8105 9.15433 26.3193 8.87671V10.7773C24.5279 10.8272 22.8439 11.055 21.504 11.4322C20.2428 11.7882 19.3615 12.2437 18.8599 12.799ZM21.9053 12.8203C20.508 13.2047 19.9705 13.639 19.8487 13.8596C19.8702 13.9237 19.8846 13.9878 19.8846 14.0518C20.0565 14.2938 20.6369 14.7138 21.9841 15.0769C23.3885 15.4542 25.2158 15.6677 27.1147 15.6677C29.1568 15.6677 31.0987 15.4328 32.5677 14.9986C34.1584 14.5288 34.5096 14.0376 34.5167 13.9308V13.9237C34.4952 13.8027 34.1298 13.3471 32.625 12.8915C31.1704 12.4502 29.164 12.2153 27.1147 12.2153H27.0573C25.1369 12.2153 23.3097 12.4288 21.9053 12.8203ZM34.5669 21.8181C34.5669 21.9177 34.2516 22.4089 32.7253 22.8787C31.2635 23.3272 29.3288 23.5763 27.2651 23.5763C25.1943 23.5763 23.2667 23.3343 21.8264 22.9001C20.4578 22.4801 19.9992 22.0103 19.9992 21.8536V21.8394L19.992 21.4052L19.9705 19.7964C20.5438 20.074 21.1385 20.2876 21.7548 20.4371C23.2596 20.8286 25.1584 21.0421 27.1146 21.0421C29.3288 21.0421 31.4068 20.7788 33.0119 20.2947C33.535 20.1381 34.1369 19.9245 34.5669 19.6469V21.8181ZM32.6035 18.928C34.1441 18.4581 34.4737 17.9741 34.4737 17.8744C34.4737 17.7948 34.5029 17.7196 34.5298 17.6501C34.551 17.5954 34.5709 17.5442 34.574 17.4972V15.7175C34.0581 15.9952 33.5207 16.2087 32.9618 16.3653C31.3639 16.8351 29.293 17.0914 27.1146 17.0914C24.449 17.0914 21.6043 16.6928 19.9132 15.8172L19.9419 18.0666C20.5581 18.75 23.2094 19.6113 27.1075 19.6113C29.1855 19.6113 31.1346 19.3693 32.6035 18.928Z" fill="#016D38"/>
<path fill-rule="evenodd" clip-rule="evenodd" d="M4 14.5C4 12.0182 6.01136 10 8.5 10C10.9818 10.0068 12.9932 12.0182 13 14.5C13 16.9818 10.9818 19 8.5 19C6.01818 19 4 16.9818 4 14.5ZM5.36364 14.5068C5.36364 16.2386 6.76818 17.6432 8.5 17.6432C10.2318 17.6432 11.6364 16.2386 11.6364 14.5068C11.6364 12.775 10.2318 11.3705 8.5 11.3705C6.76818 11.3705 5.36364 12.775 5.36364 14.5068Z" fill="#016D38"/>
</svg>
