<svg width="23" height="21" viewBox="0 0 23 21" fill="none" xmlns="http://www.w3.org/2000/svg">
<path d="M10.9625 10.8685H10.971L10.9795 10.8679C11.3463 10.843 11.7087 10.9522 11.9957 11.1727C12.2058 11.3625 12.3192 11.6305 12.3088 11.9062L12.3085 11.9138L12.3087 11.9214C12.3148 12.1822 12.2029 12.4341 12 12.6097C11.7046 12.8265 11.3368 12.9314 10.966 12.9031L10.9565 12.9024H10.947H1.89728H1.88819L1.87913 12.903C1.43161 12.9356 0.987926 12.8101 0.629377 12.5508C0.168012 12.1304 0.121627 11.4364 0.522279 10.9618C0.736619 10.7136 1.18818 10.2141 1.87958 9.4607C1.87972 9.46054 1.87987 9.46039 1.88002 9.46023L3.87712 7.30545L5.59612 5.49664L5.59615 5.49667L5.59928 5.49326L6.86996 4.10565L6.87003 4.10571L6.87464 4.10038C7.20796 3.71515 7.48099 3.3779 7.6929 3.08931L7.9851 2.69135H7.49139H2.53262V2.69117L2.52335 2.69152C2.02732 2.70993 1.53172 2.65226 1.05425 2.52067C0.939324 2.48357 0.860729 2.41856 0.805676 2.32086C0.746153 2.21523 0.706132 2.05613 0.706132 1.82522H0.706303L0.705962 1.816C0.696371 1.55618 0.808435 1.3044 1.0137 1.13188C1.2877 0.929672 1.6287 0.830061 1.97369 0.85297L1.98196 0.85352H1.99025H9.59886V0.853865L9.61199 0.853175C10.1279 0.826051 10.6428 0.920733 11.1128 1.12846C11.4154 1.30437 11.5834 1.6315 11.5505 1.9667L11.5494 1.97785L11.5493 1.98905C11.548 2.14348 11.5176 2.29642 11.4593 2.43993L11.4592 2.43992L11.4578 2.44353C11.4041 2.58175 11.3325 2.71302 11.2448 2.83401L10.9596 3.18455L10.3918 3.797L10.3912 3.79769L4.27018 10.4492L3.88433 10.8685H4.45414H10.9625Z" fill="#006D31" stroke="white" stroke-width="0.5"/>
<path d="M14.5018 19.9063V19.9058H11.4681H11.1232L11.3584 19.6536L14.2025 16.6024L14.2033 16.6016L14.2033 16.6016L14.4717 16.3181L14.5018 19.9063ZM14.5018 19.9063L14.5133 19.9054C14.6772 19.8928 14.8389 19.9401 14.9665 20.0366C15.0561 20.1162 15.1042 20.2274 15.1013 20.3414L15.101 20.3414L15.1013 20.3498C15.1046 20.4563 15.0602 20.5603 14.9771 20.6351C14.8468 20.7272 14.6854 20.7716 14.5223 20.7591L14.5224 20.7587H14.5108H10.3214V20.7582L10.31 20.7591C10.1125 20.7742 9.91659 20.721 9.75757 20.6102C9.57264 20.4321 9.55505 20.1521 9.71558 19.9544L9.71595 19.9539C9.81423 19.8319 10.024 19.599 10.3496 19.2517L10.3496 19.2517L10.3509 19.2503L11.2538 18.2621L11.2538 18.2621L11.2548 18.261L12.0304 17.3952L14.5018 19.9063Z" fill="#006D31" stroke="white" stroke-width="0.3"/>
<path d="M22.0752 11.1436V11.1439L22.0854 11.1432C22.2853 11.1297 22.4828 11.1891 22.6392 11.3089C22.7526 11.4113 22.8136 11.5557 22.808 11.704L22.8077 11.704L22.808 11.7132C22.8112 11.8524 22.7519 11.9871 22.6437 12.0817C22.4762 12.1943 22.271 12.2434 22.0677 12.2186L22.0586 12.2175H22.0495H17.0532V12.2171L17.0423 12.2179C16.7977 12.2356 16.5552 12.1672 16.3593 12.0259C16.1094 11.7982 16.0844 11.4229 16.3016 11.1661C16.42 11.0292 16.6696 10.7536 17.0519 10.3376C17.052 10.3376 17.0521 10.3375 17.0522 10.3374L18.1572 9.14722L18.1573 9.14709L19.0829 8.1479L19.0829 8.1479L19.0839 8.14685L19.7952 7.36414L19.7952 7.36417L19.7975 7.36151C19.982 7.14869 20.1332 6.96225 20.2506 6.80258L20.4264 6.56371H20.1298H17.3874V6.5636L17.3819 6.56381C17.1088 6.57393 16.836 6.54224 16.5731 6.46996C16.5123 6.45033 16.4714 6.41632 16.4425 6.36518C16.411 6.30929 16.389 6.22375 16.389 6.09754H16.3891L16.3889 6.09199C16.3838 5.95256 16.4439 5.81721 16.5546 5.72427C16.7038 5.61444 16.8895 5.56029 17.0775 5.57275L17.0775 5.57308H17.0875H21.3382V5.57328L21.346 5.57288C21.6294 5.5581 21.9121 5.60988 22.1702 5.72362C22.3333 5.81858 22.4236 5.99454 22.4059 6.17444L22.4053 6.17438L22.4051 6.18788C22.4044 6.27159 22.3879 6.35449 22.3562 6.43229L22.3562 6.43228L22.3554 6.43445C22.3263 6.50919 22.2876 6.58023 22.2401 6.64576L22.0402 6.88044L21.7253 7.21946L21.725 7.21988L18.3398 10.8919L18.1078 11.1436H18.4501H22.0752Z" fill="#006D31" stroke="white" stroke-width="0.3"/>
</svg>
