<svg width="20" height="21" viewBox="0 0 20 21" fill="none" xmlns="http://www.w3.org/2000/svg">
<path d="M8.50002 1.59863C1.57656 12.5986 7.3943 17.0218 15.5 17.0986C15.5 17.0986 8.50002 21.0987 7.49994 19.0987C-0.499985 16.0986 -1.5 4.09863 8.50002 1.59863Z" fill="#FFDC5D"/>
<path d="M9.175 11.5008V5.77363H10.325V10.7986V10.8977L10.41 10.9487L14.7582 13.5576L14.1427 14.5579L9.175 11.5008ZM10 0.773633C15.4033 0.773633 19.825 5.19528 19.825 10.5986C19.825 16.002 15.4033 20.4236 10 20.4236C4.59665 20.4236 0.175 16.002 0.175 10.5986C0.175 5.19528 4.59665 0.773633 10 0.773633ZM10 2.42363C5.50335 2.42363 1.825 6.10198 1.825 10.5986C1.825 15.0953 5.50335 18.7736 10 18.7736C14.4966 18.7736 18.175 15.0953 18.175 10.5986C18.175 6.10198 14.4966 2.42363 10 2.42363Z" fill="#016D38" stroke="white" stroke-width="0.35"/>
</svg>
