<svg width="22" height="23" viewBox="0 0 22 23" fill="none" xmlns="http://www.w3.org/2000/svg">
<path d="M0.916992 2.0625H3.66699V0.6875H5.50033V2.0625C1.45557 3.56359 0.458659 18.1042 2.75033 21.7708H0.916992V2.0625Z" fill="#FFDC5D"/>
<path d="M4.58366 9.39551H3.66699V10.3122H4.58366V9.39551Z" fill="#016D38"/>
<path d="M9.16667 9.39551H8.25V10.3122H9.16667V9.39551Z" fill="#016D38"/>
<path d="M13.7497 9.39551H12.833V10.3122H13.7497V9.39551Z" fill="#016D38"/>
<path d="M18.3337 9.39551H17.417V10.3122H18.3337V9.39551Z" fill="#016D38"/>
<path d="M4.58366 13.0625H3.66699V13.9792H4.58366V13.0625Z" fill="#016D38"/>
<path d="M9.16667 13.0625H8.25V13.9792H9.16667V13.0625Z" fill="#016D38"/>
<path d="M13.7497 13.0625H12.833V13.9792H13.7497V13.0625Z" fill="#016D38"/>
<path d="M18.3337 13.0625H17.417V13.9792H18.3337V13.0625Z" fill="#016D38"/>
<path d="M4.58366 16.729H3.66699V17.6457H4.58366V16.729Z" fill="#016D38"/>
<path d="M9.16667 16.729H8.25V17.6457H9.16667V16.729Z" fill="#016D38"/>
<path d="M13.3239 16.5986H12.4072V17.5153H13.3239V16.5986Z" fill="#016D38"/>
<path d="M18.48 1.989V0.229004H15.84V1.989H6.16V0.229004H3.52V1.989H0V5.949V6.829V22.229H18.2222L18.4263 22.0248L21.7945 18.6566L22 18.4512V6.829V5.949V1.989H18.48ZM16.72 1.989V1.109H17.6V1.989V3.749H16.72V1.989ZM4.4 1.989V1.109H5.28V1.989V3.749H4.4V1.989ZM18.48 20.7268V18.709H20.4978L18.48 20.7268ZM21.12 17.829H17.6V21.349H0.88V6.829H21.12V17.829ZM21.12 5.949H0.88V2.869H3.52V4.629H6.16V2.869H15.84V4.629H18.48V2.869H21.12V5.949Z" fill="#016D38"/>
<rect x="7.87109" y="8.94727" width="1.902" height="1.902" fill="#FFDC5D"/>
</svg>
