<svg width="25" height="18" viewBox="0 0 25 18" fill="none" xmlns="http://www.w3.org/2000/svg">
<path d="M2.83333 1.00345C2.83333 1.00345 8.49999 1.00338 9.71429 1.00345C2.42857 1.81297 2.83333 17.1939 1.21429 17.1939V15.1701H0L1.21429 13.1463L1.61905 9.50345L2.83333 9.09869V1.00345Z" fill="#FFDC5D"/>
<path d="M23.894 13.3486H23.5023V10.2577C23.5013 9.40483 22.8002 8.71323 21.9355 8.71227V2.14409C21.9345 1.29119 21.2334 0.599599 20.3687 0.598633H3.91705C3.05236 0.599599 2.35121 1.29119 2.35023 2.14409V8.71227C1.48554 8.71323 0.784389 9.40483 0.78341 10.2577V13.3486H0.391705C0.175288 13.3486 0 13.5215 0 13.735V15.2805C0 15.4939 0.175288 15.6668 0.391705 15.6668H0.78341V17.2123C0.78341 17.4257 0.958698 17.5986 1.17512 17.5986H2.35023C2.53678 17.5986 2.69787 17.4687 2.7341 17.2881L3.06313 15.6668H21.2226L21.5516 17.2881C21.5878 17.4687 21.7489 17.5986 21.9355 17.5986H23.1106C23.327 17.5986 23.5023 17.4257 23.5023 17.2123V15.6668H23.894C24.1104 15.6668 24.2857 15.4939 24.2857 15.2805V13.735C24.2857 13.5215 24.1104 13.3486 23.894 13.3486ZM3.13364 2.14409C3.13413 1.71764 3.48471 1.37184 3.91705 1.37136H20.3687C20.801 1.37184 21.1516 1.71764 21.1521 2.14409V8.71227H20.3687V7.16681C20.3677 6.31392 19.6665 5.62233 18.8018 5.62136H14.1014C13.2367 5.62233 12.5355 6.31392 12.5346 7.16681V8.71227H11.7512V7.16681C11.7502 6.31392 11.049 5.62233 10.1843 5.62136H5.48387C4.61918 5.62233 3.91803 6.31392 3.91705 7.16681V8.71227H3.13364V2.14409ZM19.5853 7.16681V8.71227H13.318V7.16681C13.3185 6.74037 13.669 6.39457 14.1014 6.39409H18.8018C19.2342 6.39457 19.5848 6.74037 19.5853 7.16681ZM10.9677 7.16681V8.71227H4.70046V7.16681C4.70095 6.74037 5.05153 6.39457 5.48387 6.39409H10.1843C10.6167 6.39457 10.9673 6.74037 10.9677 7.16681ZM1.56682 10.2577C1.56731 9.83127 1.91789 9.48548 2.35023 9.485H21.9355C22.3678 9.48548 22.7184 9.83127 22.7189 10.2577V13.3486H1.56682V10.2577ZM2.02903 16.8259H1.56682V15.6668H2.26406L2.02903 16.8259ZM22.7189 16.8259H22.2567L22.0217 15.6668H22.7189V16.8259ZM23.5023 14.8941H0.78341V14.1214H23.5023V14.8941Z" fill="#016D38"/>
</svg>
