<svg width="27" height="27" viewBox="0 0 27 27" fill="none" xmlns="http://www.w3.org/2000/svg">
<path fill-rule="evenodd" clip-rule="evenodd" d="M20.5376 0C21.4022 0 22.1987 0.460898 22.6164 1.20282C25.4841 6.29712 27 12.0981 27 17.9786V21.4102C27 21.7098 26.8307 21.9837 26.5627 22.1177C26.4625 22.1678 26.3481 22.2259 26.2197 22.2912C23.8902 23.4755 16.9571 27 7.16879 27C4.97854 27 2.93282 26.0047 1.55629 24.2694C0.182555 22.5377 -0.313436 20.2966 0.195319 18.1209C0.786933 15.5916 2.85397 13.5594 5.34458 12.9368C7.83556 12.3141 10.33 12.9996 12.0913 14.6846C14.4028 14.2144 16.8074 14.2915 19.0886 14.915V8.70117C19.0886 8.26501 18.7337 7.91016 18.2975 7.91016H13.5506C12.2419 7.91016 11.1772 6.84561 11.1772 5.53711V2.37305C11.1772 1.06455 12.2419 0 13.5506 0H20.5376ZM7.16879 25.418C16.341 25.418 22.8475 22.2172 25.4177 20.9227H25.4178V17.9786C25.4178 12.3693 23.9723 6.8367 21.2376 1.97875C21.0997 1.73406 20.8315 1.58203 20.5376 1.58203H13.5506C13.1144 1.58203 12.7595 1.93688 12.7595 2.37305V5.53711C12.7595 5.97328 13.1144 6.32812 13.5506 6.32812H15.9241V4.74609H15.1329C14.696 4.74609 14.3418 4.39193 14.3418 3.95508C14.3418 3.51823 14.696 3.16406 15.1329 3.16406H16.7152C17.1521 3.16406 17.5063 3.51823 17.5063 3.95508V6.32812H18.2975C19.6062 6.32812 20.6709 7.39267 20.6709 8.70117V15.4439C21.0582 15.5981 21.4404 15.7687 21.8158 15.9565C22.2066 16.1519 22.365 16.627 22.1696 17.0178C21.9746 17.4078 21.4997 17.5672 21.1082 17.3715C17.3501 15.4927 12.8629 15.4928 9.10486 17.3715C8.71404 17.5669 8.23883 17.4085 8.04347 17.0178C7.84806 16.627 8.00644 16.1519 8.39727 15.9565C8.98656 15.6619 9.59183 15.4087 10.2087 15.1967C8.91889 14.3455 7.32158 14.0731 5.72833 14.4715C3.78783 14.9566 2.1834 16.5679 1.73604 18.481C1.33783 20.1837 1.72417 21.9351 2.7959 23.2862C3.87063 24.641 5.46446 25.418 7.16879 25.418Z" fill="#016D38"/>
</svg>
