<?xml version="1.0" encoding="UTF-8"?>
<svg width="74px" height="74px" viewBox="0 0 74 74" version="1.1" xmlns="http://www.w3.org/2000/svg" xmlns:xlink="http://www.w3.org/1999/xlink">
    <title>Group 2</title>
    <defs>
        <filter id="filter-1">
            <feColorMatrix in="SourceGraphic" type="matrix" values="0 0 0 0 0.003922 0 0 0 0 0.427451 0 0 0 0 0.219608 0 0 0 1.000000 0"></feColorMatrix>
        </filter>
    </defs>
    <g id="Menu-1" stroke="none" stroke-width="1" fill="none" fill-rule="evenodd">
        <g id="Panel-perfil-avatar" transform="translate(-144.000000, -140.000000)">
            <g id="Group-2" transform="translate(144.000000, 140.000000)">
                <circle id="Oval" fill="#FFDD00" cx="37" cy="37" r="37"></circle>
                <g id="atoms-/-avatar-/-profile-default-primary" transform="translate(3.000000, 3.000000)" fill="#FFFFFF">
                    <g id="Group-6" transform="translate(0.000000, 0.500000)">
                        <circle id="👤-avatar---default" cx="34" cy="34" r="34"></circle>
                    </g>
                </g>
                <g id="strong" transform="translate(17.000000, 17.000000)">
                    <g id="Group-18" transform="translate(0.500000, 0.000000)">
                        <path d="M9.56362101,30.6997833 C17.401592,26.6504006 24.9941846,26.6504006 32.3413988,30.6997833" id="Path-3" stroke="#FFDC5D" stroke-width="2"></path>
                        <g id="user-1" transform="translate(0.452510, 0.329413)" filter="url(#filter-1)">
                            <g transform="translate(0.000000, 1.645062)">
                                <path d="M38.6589506,34.0527778 C35.8623457,28.6240741 30.7626543,24.8404321 24.6759259,23.5243827 C28.7885802,21.5503086 31.5851852,17.4376543 31.5851852,12.5024691 C31.5851852,5.75771605 26.3209877,0.329012346 19.7407407,0.329012346 C13.1604938,0.329012346 7.8962963,5.75771605 7.8962963,12.5024691 C7.8962963,17.4376543 10.6929012,21.5503086 14.8055556,23.5243827 C8.71882716,24.8404321 3.6191358,28.6240741 0.822530864,34.0527778 C0.493518519,34.5462963 0.822530864,35.3688272 1.31604938,35.5333333 C1.48055556,35.6978395 1.64506173,35.6978395 1.8095679,35.6978395 C2.30308642,35.6978395 2.63209877,35.5333333 2.79660494,35.0398148 C5.92222222,28.9530864 12.337963,25.1694444 19.7407407,25.1694444 C27.1435185,25.1694444 33.5592593,28.9530864 36.6848765,35.0398148 C37.0138889,35.5333333 37.6719136,35.8623457 38.1654321,35.5333333 C38.8234568,35.3688272 38.987963,34.7108025 38.6589506,34.0527778 Z M10.1993827,12.5024691 C10.1993827,7.07376543 14.4765432,2.63209877 19.7407407,2.63209877 C25.0049383,2.63209877 29.2820988,7.07376543 29.2820988,12.5024691 C29.2820988,17.9311728 25.0049383,22.3728395 19.7407407,22.3728395 C14.4765432,22.3728395 10.1993827,17.9311728 10.1993827,12.5024691 Z" id="Shape" fill="#000000" fill-rule="nonzero"></path>
                            </g>
                        </g>
                    </g>
                </g>
            </g>
        </g>
    </g>
</svg>