<svg width="27" height="30" viewBox="0 0 27 30" fill="none" xmlns="http://www.w3.org/2000/svg">
<path d="M24.2143 3.50668H22.4286V2.63479C22.4286 1.73348 21.6274 1 20.6429 1H6.35714C5.37262 1 4.57143 1.73348 4.57143 2.63479V3.50668H2.78571C1.80119 3.50668 1 4.24015 1 5.14146C1 8.68678 2.81191 11.2921 5.75179 12.0174C6.75952 14.0478 8.35298 15.7741 10.375 17.0215C10.8411 17.3087 11.119 17.8007 11.119 18.3375V21.34C10.7113 21.4359 10.3369 21.6299 10.031 21.91C9.58095 22.322 9.33333 22.8691 9.33333 23.4511H8.7381C7.75357 23.4511 6.95238 24.1846 6.95238 25.0859V28.3555C6.95238 28.6563 7.21905 28.9004 7.54762 28.9004H19.4524C19.781 28.9004 20.0476 28.6563 20.0476 28.3555V25.0859C20.0476 24.1846 19.2464 23.4511 18.2619 23.4511H17.6667C17.6667 22.4375 16.9065 21.5831 15.881 21.3406V18.3402C15.881 17.8018 16.1589 17.3092 16.6256 17.0215C18.6482 15.7741 20.2417 14.0478 21.2494 12.0168C24.1881 11.2915 26 8.68623 26 5.14146C26 4.24015 25.1988 3.50668 24.2143 3.50668ZM2.19048 5.14146C2.19048 4.84121 2.45774 4.59653 2.78571 4.59653H4.57143V7.03237C4.57143 8.27426 4.77679 9.49109 5.18274 10.6621C3.28869 9.80334 2.19048 7.81979 2.19048 5.14146ZM18.2619 24.541C18.5899 24.541 18.8571 24.7856 18.8571 25.0859V27.8105H8.14286V25.0859C8.14286 24.7856 8.41012 24.541 8.7381 24.541H18.2619ZM21.2381 7.03237C21.2381 8.52112 20.9143 9.96954 20.2756 11.3373C19.3673 13.2838 17.875 14.9366 15.9601 16.1174C15.1649 16.6073 14.6899 17.4383 14.6899 18.3402V21.8163C14.6899 22.1171 14.9565 22.3612 15.2851 22.3612C15.9417 22.3612 16.4756 22.85 16.4756 23.4511H10.5238C10.5238 23.1601 10.6476 22.8865 10.8726 22.6806C11.0863 22.4849 11.3673 22.3727 11.6673 22.3618C11.6827 22.3629 11.6982 22.3634 11.7137 22.3634C12.0423 22.3634 12.3089 22.1171 12.3089 21.8158V18.3369C12.3089 17.4373 11.8345 16.6073 11.0399 16.1174C9.125 14.9366 7.63274 13.2833 6.72441 11.3368C6.08571 9.96954 5.76191 8.52112 5.76191 7.03237V2.63479C5.76191 2.33453 6.02917 2.08986 6.35714 2.08986H20.6429C20.9708 2.08986 21.2381 2.33453 21.2381 2.63479V7.03237ZM21.8173 10.6621C22.2226 9.49055 22.4286 8.27426 22.4286 7.03237V4.59653H24.2143C24.5423 4.59653 24.8095 4.84121 24.8095 5.14146C24.8095 7.81925 23.7113 9.80334 21.8173 10.6621Z" fill="#016D38" stroke="#016D38" stroke-width="0.5"/>
</svg>
