<?xml version="1.0" encoding="UTF-8"?>
<svg width="42px" height="21px" viewBox="0 0 42 21" version="1.1" xmlns="http://www.w3.org/2000/svg" xmlns:xlink="http://www.w3.org/1999/xlink">
    <title>hat</title>
    <g id="Menu-1" stroke="none" stroke-width="1" fill="none" fill-rule="evenodd">
        <g id="2" transform="translate(-33.000000, -483.000000)" fill="#999999">
            <g id="hat" transform="translate(33.000000, 483.153191)">
                <path d="M38.2506797,9.47638053 C36.0933398,8.53054693 33.1074023,7.78511084 29.6032734,7.31609362 C29.473582,7.05683292 29.336918,6.79724384 29.1921328,6.5389683 C27.1050117,2.81515383 24.2721445,0.846808511 21,0.846808511 C18.2500664,0.846808511 15.8106211,2.23744087 13.8631172,4.89153813 L12.7690664,4.03026391 C12.4882734,3.80917807 12.1250391,3.71608066 11.7726328,3.77494384 C11.4202266,3.83380702 11.1068672,4.0398692 10.9130273,4.34017814 L10.1645742,5.49979099 L9.893625,5.32016388 C9.58436719,5.11508686 9.20234766,5.05523852 8.84526563,5.15597091 C8.48826563,5.2567033 8.19360938,5.50742596 8.03692969,5.84385736 L7.17445312,7.69529729 C7.07823047,7.90193414 7.04074219,8.12761738 7.06100391,8.34944208 C4.1225625,9.13691156 0,10.7057754 0,13.308234 C0,15.2157458 2.21804297,16.8684301 6.41426953,18.087645 C10.3186289,19.2220543 15.4986562,19.8468085 21,19.8468085 C26.5013438,19.8468085 31.6813711,19.2220543 35.5857305,18.087645 C39.781957,16.8684301 42,15.2157458 42,13.308234 C42,11.8562755 40.7386055,10.5670323 38.2506797,9.47638053 Z M13.881,7.1414744 C16.2265195,2.95668817 19.046918,2.07825579 21,2.07825579 C24.538418,2.07825579 26.8243828,4.8316077 28.119,7.1414744 C28.7793516,8.31972315 29.2748203,9.54805076 29.6212383,10.6045504 C29.2143633,10.8349953 28.5279258,11.1231539 27.3834258,11.3927588 C27.0526758,11.4706683 26.8476797,11.8021739 26.9255273,12.133187 C26.9922187,12.4167482 27.244875,12.6079509 27.5238633,12.6079509 C27.5705391,12.6079509 27.6179531,12.6026147 27.6653672,12.5914496 C28.604625,12.3701995 29.3773594,12.1081475 29.9750391,11.8098089 C30.1597734,12.527989 30.2483672,13.0689227 30.2483672,13.3083161 C30.2483672,13.4684863 29.801543,14.0449678 27.8161406,14.5748185 C26.0034141,15.0586131 23.5827539,15.3250162 21.000082,15.3250162 C18.4174102,15.3250162 15.99675,15.058531 14.1840234,14.5748185 C12.1986211,14.0449678 11.7517969,13.4684863 11.7517969,13.3083161 C11.7517969,13.0688406 11.8405547,12.5274964 12.0253711,11.8088238 C13.8315352,12.7063025 17.206957,13.2659543 21.000082,13.2659543 C22.3953516,13.2659543 23.7468164,13.190836 25.0168242,13.0427339 C25.3543008,13.0034097 25.5960469,12.6976824 25.5567539,12.3599375 C25.5174609,12.0221925 25.2122227,11.7804184 24.874418,11.8195784 C23.6514961,11.96218 22.3480195,12.034507 21.0001641,12.034507 C17.9520469,12.034507 14.077793,11.5857676 12.3785156,10.6061924 C12.7246875,9.54928221 13.2203203,8.32021573 13.881,7.1414744 Z M11.9465391,5.00844353 C11.9493281,5.00417451 11.9566289,4.9927631 11.9750859,4.98964343 C11.9932148,4.98652377 12.004125,4.99489761 12.0082266,4.99818147 L13.1745469,5.91643065 C13.0499414,6.1184701 12.9275508,6.32551744 12.8077852,6.53913249 C12.7097578,6.713998 12.6154219,6.88960238 12.5243672,7.06512467 L11.1901289,6.18020666 L11.9465391,5.00844353 Z M8.28975,8.21554271 L9.1520625,6.36402069 C9.15427734,6.35917699 9.16026562,6.34636994 9.17896875,6.34111577 C9.19775391,6.3357795 9.20940234,6.34366076 9.21383203,6.34653414 L11.9872266,8.18590588 C11.8294805,8.5428614 11.6856797,8.89521951 11.555332,9.23838282 L8.316,8.27399541 C8.31091406,8.27243558 8.29746094,8.26849495 8.28950391,8.2507621 C8.28154688,8.23311136 8.28753516,8.2204685 8.28975,8.21554271 Z M35.2426758,16.9050452 C31.4466797,18.0080114 26.3885508,18.6154433 21,18.6154433 C15.6114492,18.6154433 10.5533203,18.0080114 6.75732422,16.9051273 C3.29658984,15.8995274 1.23046875,14.5549512 1.23046875,13.308234 C1.23046875,11.9245798 3.75760547,10.443395 7.84505859,9.4186667 L11.1506719,10.4027573 C10.7148398,11.7809931 10.5211641,12.8795261 10.5211641,13.3083161 C10.5211641,14.3457693 11.6467969,15.1721526 13.8668906,15.7646429 C15.7801055,16.275283 18.3133945,16.5564635 21,16.5564635 C23.6866055,16.5564635 26.2198945,16.275283 28.1331094,15.7646429 C30.3531211,15.1721526 31.4788359,14.3457693 31.4788359,13.3083161 C31.4788359,12.7086012 31.1005078,10.7992833 30.2089102,8.64507152 C37.4555508,9.72078176 40.7695312,11.7839485 40.7695312,13.308234 C40.7695312,14.5549512 38.7034102,15.8995274 35.2426758,16.9050452 Z" id="Shape"></path>
            </g>
        </g>
    </g>
</svg>