<?xml version="1.0" encoding="UTF-8"?>
<svg width="230px" height="231px" viewBox="0 0 230 231" version="1.1" xmlns="http://www.w3.org/2000/svg" xmlns:xlink="http://www.w3.org/1999/xlink">
    <title>Group 14</title>
    <defs>
        <linearGradient x1="50%" y1="23.6398866%" x2="49.9978653%" y2="89.0729254%" id="linearGradient-1">
            <stop stop-color="#10B457" offset="0%"></stop>
            <stop stop-color="#4ED64D" offset="25.8547966%"></stop>
            <stop stop-color="#F9DC02" offset="100%"></stop>
        </linearGradient>
        <polygon id="path-2" points="0.314727807 0.242870856 10.7492712 0.242870856 10.7492712 12.564821 0.314727807 12.564821"></polygon>
        <polygon id="path-4" points="0 0 197 0 197 196 145.947135 196 134.56665 183.381374 100.258729 189.971631 32.2019231 152.698684 7.24731572 70.0676329"></polygon>
        <linearGradient x1="100%" y1="84.8291227%" x2="0%" y2="15.0507652%" id="linearGradient-6">
            <stop stop-color="#083E16" offset="0%"></stop>
            <stop stop-color="#128C31" offset="100%"></stop>
        </linearGradient>
    </defs>
    <g id="Onboarding" stroke="none" stroke-width="1" fill="none" fill-rule="evenodd">
        <g id="1" transform="translate(-65.000000, -65.000000)">
            <g id="Group-13" transform="translate(65.000000, 66.500000)">
                <g id="Group-10" transform="translate(0.000000, 62.000000)">
                    <path d="M1.0944518,63.9178307 C-15.5322751,188.181346 162.236244,176.306225 198.078666,149.530964 C233.921088,122.755702 255.686875,47.1894874 173.028948,50.9996245 C129.231826,53.0184634 108.924537,14.6700409 77.5921341,3.20226131 C49.7911668,-6.97299921 8.91134246,5.49657222 1.0944518,63.9178307 Z" id="Path-3" fill="url(#linearGradient-1)"></path>
                    <g id="Group-5-Copy-3" transform="translate(50.000000, 12.000000)">
                        <g id="phone" transform="translate(0.000000, 0.903974)">
                            <path d="M13.7482521,46.9523176 L3.10857219,38.4399029 C0.328626076,36.2159336 -0.0948094255,32.1925529 2.16274616,29.4538992 C4.42001408,26.7152456 8.50363526,26.2977731 11.2832937,28.5220258 L13.7479645,30.4940378 L26.375375,41.3712798 L20.9000548,52.7206937 L13.7482521,46.9523176 Z" id="Path" fill="#FED2A4" fill-rule="nonzero"></path>
                            <g id="Group" transform="translate(2.178295, 0.000000)">
                                <path d="M11.686212,107.83442 C11.686212,112.999619 15.8870236,117.186969 21.0688271,117.186969 L70.6016063,117.186969 C74.8456928,117.186969 78.2864721,113.757501 78.2864721,109.526729 L78.2864721,9.35254959 C78.2864721,4.18735062 74.0856605,-6.08942195e-15 68.9035705,-6.08942195e-15 L21.0688271,-6.08942195e-15 C15.886737,-6.08942195e-15 11.686212,4.18735062 11.686212,9.35254959 L11.686212,107.83442 Z" id="Path" fill="#FFDC5D"></path>
                                <path d="M12.8918891,43.7475013 C12.4863666,43.7475013 12.0845698,43.7706405 11.6859254,43.8097773 L11.6859254,103.500806 C13.0655616,104.025582 14.5380524,104.304396 16.0283117,104.304396 C19.7195693,104.304396 23.1703792,102.667221 25.4966167,99.8116638 L25.8625899,99.362305 C27.9154221,96.8426957 28.860877,93.6766153 28.5249955,90.4479731 C28.3771159,89.0279076 27.9890753,87.6709752 27.3858069,86.4217404 C27.7231213,86.0935056 28.0443868,85.7449882 28.3458777,85.3750456 L28.5502152,85.124513 C31.578594,81.4070895 32.0336963,76.4298614 30.1427865,72.350494 C30.5463029,71.9734096 30.9297581,71.5703293 31.2845544,71.1352539 L31.4530683,70.9281432 C33.5059005,68.4082482 34.4513554,65.2424535 34.1154738,62.0138113 C33.7795923,58.7848835 32.2022102,55.8799054 29.6742146,53.833937 L20.5730293,46.4667938 C18.4072813,44.7133515 15.6792471,43.7475013 12.8918891,43.7475013 L12.8918891,43.7475013 Z" id="Path" fill="#F0C527" fill-rule="nonzero"></path>
                                <path d="M78.2861856,109.526729 L78.2861856,53.0534866 L70.123577,44.4208254 C68.4295534,42.6293889 66.0416995,41.6021197 63.5724545,41.6021197 C60.969946,41.6021197 58.4966888,42.7233744 56.7863296,44.6782141 L56.2541351,45.2866911 C50.6639433,51.6765573 50.4020016,61.1670855 55.6310921,67.8531915 L65.1707576,80.0507284 L54.8756453,98.0542221 C51.7208811,103.571366 50.6891631,110.035507 51.9707861,116.255971 L52.1625137,117.186969 L70.6013197,117.186969 C74.8456928,117.186969 78.2861856,113.757501 78.2861856,109.526729 Z" id="Path" fill="#F0C527" fill-rule="nonzero"></path>
                                <path d="M69.6885359,9.35254959 C69.6885359,8.9203309 69.3371786,8.56981383 68.9035705,8.56981383 L58.4181636,8.56981383 C57.8266453,8.56981383 57.3030484,8.95204027 57.1242173,9.51395313 L56.8872087,10.2581234 C56.4576128,11.6076284 55.2006365,12.5246291 53.7803047,12.5246291 L37.1676395,12.5246291 C35.7473078,12.5246291 34.4903314,11.6079141 34.0607355,10.2581234 L33.8240135,9.51395313 C33.6451824,8.9517546 33.1215855,8.56981383 32.5300673,8.56981383 L21.0688271,8.56981383 C20.6352189,8.56981383 20.2838617,8.92004523 20.2838617,9.35226392 L20.2838617,107.834134 C20.2838617,108.266353 20.6352189,108.616584 21.0688271,108.616584 L69.6885359,108.616584 L69.6885359,9.35254959 Z" id="Path" fill="#F9F7F8" fill-rule="nonzero"></path>
                                <path d="M51.5497878,108.617155 L69.6888225,108.617155 L69.6888225,43.9948915 C68.0334883,42.4688424 65.8379352,41.6021197 63.5727411,41.6021197 C60.9702326,41.6021197 58.4969753,42.7233744 56.7866162,44.6782141 L56.2544217,45.2866911 C50.6642299,51.6765573 50.4022882,61.1670855 55.6313787,67.8531915 L65.1710442,80.0507284 L54.8759319,98.0542221 C53.0056565,101.324858 51.887962,104.929156 51.5497878,108.617155 L51.5497878,108.617155 Z" id="Path" fill="#EFEDEF" fill-rule="nonzero"></path>
                                <path d="M20.2838617,46.2422572 L20.2838617,103.541085 C22.2985776,102.795487 24.1012181,101.524827 25.4969032,99.8113782 L25.8628765,99.3620193 C27.9157087,96.84241 28.8611636,93.6763296 28.525282,90.4476875 C28.3774025,89.027622 27.9893619,87.6706895 27.3860935,86.4214547 C27.7234079,86.0932199 28.0446734,85.7447025 28.3461643,85.3747599 L28.5505018,85.1242273 C31.5788806,81.4068038 32.0339829,76.4295757 30.1430731,72.3502083 C30.5465895,71.973124 30.9300446,71.5700436 31.284841,71.1349682 L31.4533549,70.9278575 C33.5061871,68.4079626 34.4516419,65.2421678 34.1157604,62.0135257 C33.7798789,58.7845978 32.2024968,55.8796198 29.6745012,53.8336514 L20.5733159,46.4665082 C20.4784551,46.3896629 20.3810151,46.3162457 20.2838617,46.2422572 L20.2838617,46.2422572 Z" id="Path" fill="#EFEDEF" fill-rule="nonzero"></path>
                                <g transform="translate(0.000000, 47.135547)" fill="#FED2A4" fill-rule="nonzero" id="Path">
                                    <path d="M126.518427,92.3153978 L101.715067,63.2313368 C100.917492,62.2960533 100.479585,61.1085232 100.479585,59.8812849 L100.479585,48.8507098 C100.479585,41.7009615 97.7395143,34.8211713 92.8199391,29.6179782 L65.9531437,1.20438465 C64.6270995,-0.197969298 62.3770946,-0.154547461 61.106362,1.29779873 L60.5741675,1.9062758 C56.7762991,6.2470312 56.5994741,12.662322 60.1517363,17.2047604 L70.1106805,29.9384999 C71.2851194,31.440267 71.4341454,33.4999476 70.4884039,35.1542625 L59.8556906,53.748236 C57.3916042,58.0572821 56.5848581,63.1127838 57.5856245,67.9714588 L58.3777546,71.8165768 C60.0898332,80.1270023 66.7776583,86.5171542 75.1795681,87.8709442 L78.9777232,92.8101782 C79.5107775,93.5034993 80.3372982,93.9100077 81.2133987,93.9100077 L125.778456,93.9100077 C126.606123,93.9100077 127.054347,92.9438718 126.518427,92.3153978 L126.518427,92.3153978 Z"></path>
                                    <path d="M17.7487014,21.3372624 L8.64722944,13.9701192 C5.8776399,11.7284668 5.45578189,7.67309575 7.70492704,4.9126667 L7.87344097,4.70555597 C10.1222995,1.94484125 14.1907074,1.52433503 16.9600103,3.76627306 L26.0614822,11.1334163 C28.8310718,13.3750686 29.2529298,17.4304397 27.0037846,20.1908688 L26.8352707,20.3979795 C24.5864121,23.1584085 20.5180043,23.5789148 17.7487014,21.3372624 Z"></path>
                                    <path d="M14.8120308,35.5750544 L5.63289347,28.1447781 C2.86330392,25.9031257 2.44144591,21.8477547 4.69059107,19.0873256 L4.89292242,18.8387927 C7.14178098,16.078078 11.2101888,15.6575718 13.9794918,17.8995098 L23.1586291,25.3297861 C25.9282187,27.5714384 26.3500767,31.6268095 24.1009315,34.3872386 L23.8986002,34.6357715 C21.6497416,37.3962005 17.5816204,37.8167067 14.8120308,35.5750544 L14.8120308,35.5750544 Z"></path>
                                    <path d="M11.9601904,50.0142437 L2.40332967,42.2785862 C-0.366259875,40.0369338 -0.788117885,35.9815628 1.46102727,33.2211337 L1.82757373,32.7712035 C4.07643229,30.0104888 8.14484011,29.5899825 10.9141431,31.8319206 L20.4710038,39.5675781 C23.2405934,41.8092304 23.6624514,45.8646015 21.4133062,48.6250305 L21.0467598,49.0749608 C18.7979012,51.8353898 14.72978,52.255896 11.9601904,50.0142437 Z"></path>
                                </g>
                                <path d="M31.4330072,84.5114652 L31.4330072,93.6789006 C31.4330072,95.2089491 32.6773736,96.4490425 34.2120541,96.4490425 L57.7521323,96.4490425 C58.8947599,96.4490425 59.8213,95.5257571 59.8213,94.3865052 L59.8213,83.803575 C59.8213,82.6646088 58.8950465,81.7410377 57.7521323,81.7410377 L34.2120541,81.7410377 C32.6770871,81.7413234 31.4330072,82.9817024 31.4330072,84.5114652 Z" id="Path" fill="#FFDC5D"></path>
                            </g>
                        </g>
                        <g id="Group-29" transform="translate(30.677419, 19.494458)">
                            <polygon id="Fill-2" fill="#FFDC53" points="2.7448856 26.1256804 26.4212834 26.1256804 26.4212834 2.44928253 2.7448856 2.44928253"></polygon>
                            <g id="Group-28" transform="translate(0.295603, 0.000000)">
                                <path d="M14.5034515,2.64112994 C17.7604974,1.45396269 19.9012703,3.13653815 19.9012703,3.13653815 C19.9012703,3.13653815 18.0466136,2.75773211 16.3257177,3.22293251 L14.5034515,2.64112994 Z" id="Fill-3" fill="#008137"></path>
                                <path d="M16.0835687,4.17719748 C19.182261,3.72770515 19.8792568,4.75295849 19.8792568,4.75295849 C19.8792568,4.75295849 19.2098529,4.5547952 17.7360846,4.82545725 L16.0835687,4.17719748 Z" id="Fill-5" fill="#008137"></path>
                                <path d="M13.6461826,16.1104334 C15.2219211,14.7402068 17.0459867,15.0875967 17.64941,15.8971663 C18.5143566,17.0589589 17.9385253,18.3234582 16.9098266,19.253859 C16.9098266,19.253859 18.188652,17.8425497 17.1899446,16.4904478 C16.7688679,15.9201242 15.4384576,15.6228793 14.2741987,16.6064458 C13.1105395,17.5900124 12.4219412,19.7166428 14.5603149,20.5546076 C12.0482507,20.65671 11.6319727,17.8612786 13.6461826,16.1104334" id="Fill-7" fill="#008137"></path>
                                <path d="M21.8167492,10.8394109 C32.468429,6.29192598 33.0640546,18.1527236 14.3987222,29.8594614 C27.8797732,18.4360729 30.9490741,9.44803879 21.8167492,10.8394109" id="Fill-9" fill="#008137"></path>
                                <path d="M6.0007622,17.3128254 C-4.89864504,22.1497012 2.38082259,25.8223677 2.38082259,25.8223677 C2.38082259,25.8223677 -1.32849085,21.6265018 6.0007622,17.3128254" id="Fill-11" fill="#008137"></path>
                                <path d="M15.6782074,25.814997 C21.3939331,22.3725141 17.5886478,18.9578224 17.5886478,18.9578224 C17.5886478,18.9578224 20.1738905,22.4873038 13.7965586,25.8210386 L15.6782074,25.814997 Z" id="Fill-13" fill="#008137"></path>
                                <path d="M5.86778116,18.5082092 C5.86778116,18.5082092 7.20119056,16.1924779 7.58747741,13.1976748 C7.58747741,13.1976748 8.71214796,16.7205105 5.86778116,18.5082092" id="Fill-15" fill="#008137"></path>
                                <path d="M3.96699795,18.6857708 C3.96699795,18.6857708 -1.94307082,13.1668024 7.33441154,8.59394295 C10.0054291,7.2780904 13.6307671,7.13128041 15.2400957,9.38055453 C15.7247538,10.0578138 16.0786501,13.903269 10.6946272,18.2459449 C8.64142867,17.5843937 8.27313656,16.3555397 8.27313656,16.3555397 C9.17587212,17.4188549 10.640643,17.4049593 10.640643,17.4049593 C14.1724085,14.6475897 14.9887694,10.3532463 14.3361605,9.71163221 C12.8749885,8.27555255 10.3395312,8.44290386 7.76988397,9.60348822 C-0.12740268,13.1704274 3.96699795,18.6857708 3.96699795,18.6857708" id="Fill-17" fill="#008137"></path>
                                <path d="M7.82422805,25.8200115 L5.87899787,25.8200115 C5.87899787,25.8200115 8.30828626,21.6712698 12.7247992,20.9770942 C12.730191,20.984344 9.46354785,22.1183455 7.82422805,25.8200115" id="Fill-19" fill="#008137"></path>
                                <g id="Group-23" transform="translate(8.397540, 0.000000)">
                                    <mask id="mask-3" fill="white">
                                        <use xlink:href="#path-2"></use>
                                    </mask>
                                    <g id="Clip-22"></g>
                                    <path d="M0.314727807,4.36098184 C0.314727807,4.36098184 0.43529249,2.04947961 4.01384423,0.705835873 C7.98768017,-0.785826175 10.7492712,1.80298382 10.7492712,1.80298382 C10.7492712,1.80298382 4.81281019,-0.787034488 1.86707308,3.84865725 C1.81428854,3.93203083 3.08051763,4.52591653 3.08051763,4.52591653 C3.0799178,4.52652068 3.85848974,9.76636878 7.2253035,11.687586 C8.67567864,11.2556142 9.7487643,9.71864043 9.746365,9.71561964 C9.7487643,9.71320302 9.61980208,11.5697755 7.29068434,12.564821 C2.95515435,10.3614628 1.98283917,5.09261519 1.98283917,5.09261519 C1.98283917,5.09261519 0.408300397,4.73978788 0.314727807,4.36098184" id="Fill-21" fill="#008137" mask="url(#mask-3)"></path>
                                </g>
                                <path d="M10.3682028,11.0399908 C2.78882307,13.050019 5.76635087,16.2586934 5.76635087,16.2586934 C5.76635087,16.2586934 5.00877278,13.7025079 10.3682028,11.0399908" id="Fill-24" fill="#008137"></path>
                                <path d="M19.5246407,5.88109965 C19.5246407,5.88109965 18.6878858,7.130495 19.2517206,8.59194923 C19.7993602,10.0111125 21.5244549,10.9687003 21.5244549,10.9687003 C21.5244549,10.9687003 19.7651702,8.47715952 19.5246407,5.88109965" id="Fill-26" fill="#008137"></path>
                            </g>
                        </g>
                    </g>
                </g>
                <g id="Oval" transform="translate(21.000000, 4.000000)">
                    <mask id="mask-5" fill="white">
                        <use xlink:href="#path-4"></use>
                    </mask>
                    <g id="Mask"></g>
                    <path d="M94.2379808,196 C146.28418,196 188.475962,153.8196 188.475962,101.78744 C188.475962,49.7552793 146.28418,7.57487923 94.2379808,7.57487923 C42.1917811,7.57487923 0,49.7552793 0,101.78744 C0,153.8196 42.1917811,196 94.2379808,196 Z" stroke="#FFDC5D" stroke-width="3" stroke-linecap="round" stroke-dasharray="1,13" mask="url(#mask-5)"></path>
                </g>
                <g id="Group-5" transform="translate(38.000000, 23.000000)">
                    <path d="M14.5523926,22.9898788 C22.5605215,22.9898788 29,23.6067974 29,15.2077751 C29,6.80875284 22.5081289,0 14.5,0 C6.49187113,0 0,6.80875284 0,15.2077751 C0,23.6067974 6.54426371,22.9898788 14.5523926,22.9898788 Z" id="Oval-Copy-6" fill="#EAF7E1"></path>
                    <g id="ritmo-cardiaco" transform="translate(3.741935, 3.833333)" fill="url(#linearGradient-6)">
                        <path d="M4.77096774,10.925 L11.0387097,17.3458333 L14.5,13.8 C14.7806452,13.5125 15.1548387,13.5125 15.3419355,13.8 C15.6225806,14.0875 15.6225806,14.4708333 15.3419355,14.6625 L11.4129032,18.6875 C11.5064516,18.7833333 11.3193548,18.8791667 11.1322581,18.8791667 C10.9451613,18.8791667 10.8516129,18.7833333 10.6645161,18.6875 L3.92903226,11.7875 C3.6483871,11.5 3.6483871,11.1166667 3.92903226,10.925 C4.20967742,10.6375 4.58387097,10.6375 4.77096774,10.925 Z M8.51290323,4.98333333 C8.7,4.98333333 8.88709677,5.175 8.98064516,5.36666667 L11.2258065,11.4041667 L14.0322581,7.37916667 C14.1258065,7.1875 14.4064516,7.09166667 14.5935484,7.09166667 C14.7806452,7.09166667 14.9677419,7.28333333 15.0612903,7.475 L16.3709677,11.4041667 L20.2064516,11.4041667 C20.5806452,11.4041667 20.8612903,11.6916667 20.8612903,12.075 C20.8612903,12.4583333 20.5806452,12.7458333 20.2064516,12.7458333 L15.9032258,12.7458333 C15.6225806,12.7458333 15.4354839,12.5541667 15.3419355,12.3625 L14.3129032,9.2 L11.5064516,13.1291667 C11.4284946,13.2090278 11.2855735,13.2888889 11.131825,13.3132909 L11.0387097,13.3208333 L11.0387097,13.3208333 C10.7580645,13.3208333 10.5709677,13.1291667 10.4774194,12.9375 L8.23225806,6.9 L6.36129032,9.58333333 C6.26774194,9.775 6.08064516,9.87083333 5.89354839,9.87083333 L1.59032258,9.96666667 C1.21612903,9.96666667 0.935483871,9.67916667 0.935483871,9.39166667 C0.935483871,9.00833333 1.21612903,8.72083333 1.49677419,8.72083333 L5.51935484,8.625 L7.9516129,5.27083333 C8.04516129,5.07916667 8.32580645,4.98333333 8.51290323,4.98333333 Z M20.0193548,1.91666667 C22.1709677,4.12083333 22.1709677,7.7625 20.0193548,9.96666667 C19.9258065,10.1583333 19.7387097,10.2541667 19.6451613,10.2541667 C19.4580645,10.2541667 19.3645161,10.1583333 19.1774194,10.0625 C18.8967742,9.775 18.8967742,9.39166667 19.1774194,9.2 C20.8612903,7.475 20.8612903,4.69583333 19.1774194,2.875 C18.3354839,2.0125 17.3064516,1.53333333 16.0903226,1.53333333 C14.9677419,1.53333333 13.8451613,2.0125 13.0967742,2.875 L11.6,4.40833333 C11.3193548,4.69583333 10.9451613,4.69583333 10.7580645,4.40833333 L9.4483871,3.06666667 C8.60645161,2.10833333 7.48387097,1.725 6.36129032,1.725 C5.23870968,1.725 4.11612903,2.20416667 3.27419355,3.06666667 C2.33870968,3.92916667 1.87096774,5.36666667 2.05806452,6.70833333 C2.05806452,7.09166667 1.87096774,7.37916667 1.49677419,7.37916667 C1.12258065,7.37916667 0.841935484,7.1875 0.841935484,6.80416667 C0.561290323,4.98333333 1.21612903,3.25833333 2.43225806,2.0125 C3.46129032,0.958333333 4.86451613,0.383333333 6.36129032,0.383333333 C7.85806452,0.383333333 9.26129032,0.958333333 10.2903226,2.0125 L11.1322581,2.875 L12.1612903,1.91666667 C14.3129032,-0.2875 17.8677419,-0.2875 20.0193548,1.91666667 Z" id="Combined-Shape"></path>
                    </g>
                </g>
                <g id="Group-7" transform="translate(115.000000, 0.000000)">
                    <path d="M14.5523926,22.9898788 C22.5605215,22.9898788 29,23.6067974 29,15.2077751 C29,6.80875284 22.5081289,0 14.5,0 C6.49187113,0 0,6.80875284 0,15.2077751 C0,23.6067974 6.54426371,22.9898788 14.5523926,22.9898788 Z" id="Oval-Copy-6" fill="#EAF7E1"></path>
                    <g id="Group-6" transform="translate(2.806452, 0.958333)" fill-rule="nonzero">
                        <g id="gym">
                            <path d="M23.0445131,15.9015798 C23.2337107,15.9015798 23.3870968,15.7414979 23.3870968,15.5439347 L23.3870968,14.852249 C23.3870968,14.1530289 22.8756879,13.5841824 22.2471154,13.5841824 L21.692678,13.5841824 L21.692678,12.8513437 C21.692678,12.3385759 21.2930428,11.9214186 20.8019149,11.9214186 L18.0443449,11.9214186 C17.5531713,11.9214186 17.1535817,12.3386236 17.1535817,12.8513437 L17.1535817,14.7597858 C14.6902225,14.4597931 11.6239161,14.4593162 9.15640029,14.7597858 L9.15640029,12.8513437 C9.15640029,12.3385759 8.75676504,11.9214186 8.26563712,11.9214186 L8.04775392,11.9214186 C9.92579749,10.7275038 12.0261093,9.10851576 13.6637049,7.53177756 L14.7390521,9.07508786 C15.0283754,9.49043308 15.5869695,9.58117957 15.9834073,9.28013774 L18.2134442,7.58680722 C18.6106128,7.28519316 18.6987253,6.70242233 18.4098131,6.28769702 L17.9968856,5.69505519 L18.4452591,5.3546247 C18.9536075,4.9685587 19.0466533,4.19451924 18.6526821,3.62905844 L16.793138,0.960119673 C16.3991211,0.394754238 15.6651242,0.248691964 15.1567758,0.634710283 L14.7083566,0.97523614 L14.2954748,0.382641989 C14.0066083,-0.0321309989 13.4483796,-0.124021956 13.0511196,0.177544424 L10.8210828,1.87087494 C10.4239141,2.17244132 10.3358016,2.75521215 10.6247138,3.16993745 L11.7000154,4.71324775 C9.53826687,5.98374634 7.05882911,7.86596118 5.23272122,9.62419236 L4.4417184,8.48902669 C3.9962683,7.84970024 3.13441919,7.70759591 2.52210801,8.17272533 L1.07384704,9.2724126 C0.461124765,9.73778046 0.32523325,10.6367573 0.770911742,11.2764652 L0.899449128,11.4609624 L0.451121323,11.8013929 C-0.0673676141,12.195041 -0.142233561,12.9730384 0.243698341,13.5269592 L2.1032424,16.1958026 C2.30669141,16.4878794 2.60487622,16.6736165 2.92288521,16.7229715 L2.92288521,18.152503 C2.92288521,18.851723 3.43429408,19.4206172 4.06286656,19.4206172 L4.61730394,19.4206172 L4.61730394,20.1534083 C4.61730394,20.666176 5.01693919,21.0833333 5.50806712,21.0833333 L8.26563712,21.0833333 C8.75681072,21.0833333 9.15640029,20.6661284 9.15640029,20.1534083 L9.15640029,18.2451569 C10.130023,18.3634182 11.2245093,18.4377607 12.3486861,18.4613653 C12.3510614,18.4614607 12.3533909,18.4614607 12.3557205,18.4614607 C12.5417206,18.4614607 12.6943759,18.3060042 12.6981671,18.1109684 C12.7019584,17.9135006 12.5516783,17.750176 12.3624808,17.7462181 C11.2289857,17.7223751 10.1278305,17.6462205 9.15640029,17.524955 L9.15640029,15.4797493 C11.5799284,15.1765139 14.6797623,15.1702194 17.1535817,15.4797493 L17.1535817,17.524955 C16.1822428,17.6462205 15.081042,17.7223751 13.9475012,17.7462181 C13.7583493,17.750176 13.6080236,17.9135006 13.6118149,18.1109207 C13.6156061,18.3060042 13.76817,18.4614607 13.9542615,18.4614607 C13.9565911,18.4614607 13.9589663,18.4614607 13.9612959,18.4613653 C15.0855184,18.4377607 16.1800046,18.3634182 17.1535817,18.2451569 L17.1535817,20.1534083 C17.1535817,20.666176 17.5532169,21.0833333 18.0443449,21.0833333 L20.8019149,21.0833333 C21.2930885,21.0833333 21.692678,20.6661284 21.692678,20.1534083 L21.692678,19.4206172 L22.2471154,19.4206172 C22.8756879,19.4206172 23.3870968,18.851723 23.3870968,18.152503 L23.3870968,17.2130884 C23.3870968,17.0155252 23.2337107,16.8554433 23.0445131,16.8554433 C22.8553156,16.8554433 22.7019295,17.0155252 22.7019295,17.2130884 L22.7019295,18.152503 C22.7019295,18.4521142 22.4936843,18.7052793 22.2471611,18.7052793 L21.6927237,18.7052793 L21.6927237,14.299568 L22.2471611,14.299568 C22.4936386,14.299568 22.7019295,14.5526854 22.7019295,14.8522967 L22.7019295,15.5439824 C22.7018838,15.7414979 22.8553156,15.9015798 23.0445131,15.9015798 Z M15.5597912,1.21318937 C15.7590835,1.06192932 16.0702408,1.13865613 16.2389747,1.38094879 L18.0985188,4.04988755 C18.267344,4.29213252 18.241536,4.62479019 18.042198,4.77614561 L17.5938245,5.1165761 C17.3162404,4.71801635 15.3935696,1.95856953 15.1114177,1.55361986 L15.5597912,1.21318937 Z M11.1788315,2.7492514 C11.1133295,2.65516688 11.1340672,2.51787884 11.2241439,2.4494494 L13.4541807,0.7560712 C13.5446685,0.687451019 13.6759922,0.709625018 13.7413115,0.803423416 C13.8799894,1.00246486 17.075701,5.58909685 17.2411917,5.8266686 C17.2412831,5.82676397 17.2413288,5.82685934 17.2414201,5.82695471 L17.8556498,6.70847845 C17.9211975,6.80256296 17.9004597,6.93985101 17.8103374,7.00828045 L15.5802549,8.70165865 C15.4897214,8.77032651 15.3595396,8.74963078 15.2931698,8.65430643 C15.1580091,8.4603674 11.341947,2.98334206 11.1788315,2.7492514 Z M12.1056801,5.29558941 L13.2580858,6.94953127 C11.4756916,8.67652812 8.9755618,10.5856856 6.79065463,11.8601898 L5.63843161,10.2064863 C7.41602966,8.48401966 9.91766684,6.57185801 12.1056801,5.29558941 Z M2.92288521,14.852249 L2.92288521,15.9875577 C2.82097799,15.9479306 2.72679032,15.8745895 2.65745139,15.7750211 L0.797907333,13.1061301 C0.621362558,12.8528219 0.660828195,12.5267449 0.854228086,12.379872 L1.30255589,12.0394415 C1.3569125,12.1175035 1.78249275,12.728266 2.98203798,14.4499697 C2.94120201,14.5854457 2.92288521,14.7252611 2.92288521,14.852249 Z M4.61730394,18.7052316 L4.06286656,18.7052316 C3.81638905,18.7052316 3.60809819,18.4521142 3.60809819,18.1524553 C3.60809819,17.8293348 3.60809819,15.1890553 3.60809819,14.8522013 C3.60809819,14.7272639 3.6476095,14.5923602 3.72585561,14.4864019 C3.81903836,14.3599862 3.94506347,14.2994727 4.06286656,14.2994727 L4.61725827,14.2994727 L4.61725827,18.7052316 L4.61730394,18.7052316 Z M4.61730394,12.851296 L4.61730394,13.5841347 L4.06286656,13.5841347 C4.03504877,13.5841347 4.00750505,13.585613 3.98014403,13.5878542 C3.97530218,13.5882357 3.97046033,13.5886172 3.96561848,13.589094 C3.75349069,13.6091222 3.55780691,13.6939556 3.39460005,13.8258074 L1.32507506,10.8555884 C1.10161916,10.5349476 1.16972479,10.0841717 1.47690813,9.85089169 L2.9251691,8.75120442 C3.2309821,8.51883045 3.66496707,8.59021642 3.88755509,8.90976043 C4.13700167,9.26773937 5.71891593,11.5382138 5.98585711,11.9213232 L5.50802144,11.9213232 C5.01693919,11.9213232 4.61730394,12.3385282 4.61730394,12.851296 Z M8.47123299,20.1533606 C8.47123299,20.2696668 8.377091,20.3679477 8.2656828,20.3679477 L5.50811279,20.3679477 C5.39670459,20.3679477 5.3025626,20.2696668 5.3025626,20.1533606 C5.3025626,19.816745 5.3025626,13.0707947 5.3025626,12.8513437 C5.3025626,12.7350375 5.39670459,12.6367566 5.50811279,12.6367566 C6.20529336,12.6367566 6.59022035,12.6367566 6.79060895,12.6367566 C6.93504222,12.6367566 6.98364342,12.6367566 6.98405452,12.6367566 C7.18435176,12.6367566 7.56905036,12.6367566 8.2656828,12.6367566 C8.377091,12.6367566 8.47123299,12.7350375 8.47123299,12.8513437 C8.47123299,13.2939176 8.47123299,19.8812165 8.47123299,20.1533606 Z M21.0075107,20.1533606 C21.0075107,20.2696668 20.9133687,20.3679477 20.8019605,20.3679477 L18.0443905,20.3679477 C17.9329823,20.3679477 17.8388403,20.2696668 17.8388403,20.1533606 L17.8388403,12.8513437 C17.8388403,12.7350375 17.9329823,12.6367566 18.0443905,12.6367566 L20.8019605,12.6367566 C20.9133687,12.6367566 21.0075107,12.7350375 21.0075107,12.8513437 C21.0075107,13.2918671 21.0075107,19.9170287 21.0075107,20.1533606 Z" id="Shape" stroke="#016D38" stroke-width="0.3" fill="#006D31"></path>
                            <path d="M13.6637049,7.53177756 L14.7390521,9.07508786 C15.0283754,9.49043308 15.5869695,9.58117957 15.9834073,9.28013774 L18.2134442,7.58680722 C18.6106128,7.28519316 18.6987253,6.70242233 18.4098131,6.28769702 L17.9968856,5.69505519 L18.4452591,5.3546247 C18.9536075,4.9685587 19.0466533,4.19451924 18.6526821,3.62905844 L16.793138,0.960119673 C16.3991211,0.394754238 15.6651242,0.248691964 15.1567758,0.634710283 L14.7083566,0.97523614 L14.2954748,0.382641989 C14.0066083,-0.0321309989 13.4483796,-0.124021956 13.0511196,0.177544424 L10.8210828,1.87087494 C10.4239141,2.17244132 10.3358016,2.75521215 10.6247138,3.16993745 L11.7000154,4.71324775 C9.53826687,5.98374634 7.05882911,7.86596118 5.23272122,9.62419236 L4.4417184,8.48902669 C3.9962683,7.84970024 3.13441919,7.70759591 2.52210801,8.17272533 L1.07384704,9.2724126 C0.461124765,9.73778046 0.32523325,10.6367573 0.770911742,11.2764652 L0.899449128,11.4609624 L0.451121323,11.8013929 C-0.0673676141,12.195041 -0.142233561,12.9730384 0.243698341,13.5269592 L2.1032424,16.1958026 C2.11475327,16.2123279 2.29695815,16.5418738 2.52210801,16.686924 C2.66048798,16.7760736 2.79419207,16.7955966 2.92322028,16.7454929 C2.9270525,16.2244513 2.9270525,15.7604857 2.92322028,15.3535962 C2.91783522,14.7818332 2.95081434,14.2298825 3.19891942,14.0134996 C3.32879566,13.9002291 3.44211668,13.7616895 3.58968513,13.6950199 C3.87210347,13.5674267 4.12909251,13.5758781 4.33137251,13.5841347 C4.4790432,13.5901623 4.61730394,13.5841347 4.61730394,13.5841347 C4.61730394,13.5841347 4.61768473,13.3840538 4.61730394,13.1331089 C4.61713465,13.0215407 4.60544066,12.8521459 4.61730394,12.7297184 C4.63137802,12.5844757 4.70043695,12.4394036 4.77205369,12.3245347 C4.85033172,12.1989814 4.93577853,12.1074168 5.05736605,12.0394415 C5.16007547,11.9820203 5.27474228,11.9332278 5.42964835,11.9205156 C5.58548281,11.9077272 5.78173882,11.9311602 5.94599535,11.9205156 C6.88436114,11.8597051 8.04224433,12.0001812 8.29808142,11.8424207 C10.8210828,10.2866263 12.9422305,8.22644001 13.6637049,7.53177756 Z M15.5597912,1.21318937 C15.7590835,1.06192932 16.0702408,1.13865613 16.2389747,1.38094879 L18.0985188,4.04988755 C18.267344,4.29213252 18.241536,4.62479019 18.042198,4.77614561 L17.5938245,5.1165761 C17.3162404,4.71801635 15.3935696,1.95856953 15.1114177,1.55361986 L15.5597912,1.21318937 Z M11.1788315,2.7492514 C11.1133295,2.65516688 11.1340672,2.51787884 11.2241439,2.4494494 L13.4541807,0.7560712 C13.5446685,0.687451019 13.6759922,0.709625018 13.7413115,0.803423416 C13.8799894,1.00246486 17.075701,5.58909685 17.2411917,5.8266686 C17.2412831,5.82676397 17.2413288,5.82685934 17.2414201,5.82695471 L17.8556498,6.70847845 C17.9211975,6.80256296 17.9004597,6.93985101 17.8103374,7.00828045 L15.5802549,8.70165865 C15.4897214,8.77032651 15.3595396,8.74963078 15.2931698,8.65430643 C15.1580091,8.4603674 11.341947,2.98334206 11.1788315,2.7492514 Z M12.1056801,5.29558941 L13.2580858,6.94953127 C11.4756916,8.67652812 8.9755618,10.5856856 6.79065463,11.8601898 L5.63843161,10.2064863 C7.41602966,8.48401966 9.91766684,6.57185801 12.1056801,5.29558941 Z M2.92288521,14.852249 L2.92288521,15.9875577 C2.82097799,15.9479306 2.72679032,15.8745895 2.65745139,15.7750211 L0.797907333,13.1061301 C0.621362558,12.8528219 0.660828195,12.5267449 0.854228086,12.379872 L1.30255589,12.0394415 C1.3569125,12.1175035 1.78249275,12.728266 2.98203798,14.4499697 C2.94120201,14.5854457 2.92288521,14.7252611 2.92288521,14.852249 Z M4.61730394,12.851296 L4.61730394,13.5841347 L4.06286656,13.5841347 C4.03504877,13.5841347 4.00750505,13.585613 3.98014403,13.5878542 C3.97530218,13.5882357 3.97046033,13.5886172 3.96561848,13.589094 C3.75349069,13.6091222 3.55780691,13.6939556 3.39460005,13.8258074 L1.32507506,10.8555884 C1.10161916,10.5349476 1.16972479,10.0841717 1.47690813,9.85089169 L2.9251691,8.75120442 C3.2309821,8.51883045 3.66496707,8.59021642 3.88755509,8.90976043 C4.13700167,9.26773937 5.71891593,11.5382138 5.98585711,11.9213232 L5.50802144,11.9213232 C5.01693919,11.9213232 4.61730394,12.3385282 4.61730394,12.851296 Z" id="Shape" fill="#016D38"></path>
                        </g>
                    </g>
                </g>
                <g id="Group-9" transform="translate(195.000000, 111.000000)">
                    <path d="M14.5523926,22.9898788 C22.5605215,22.9898788 29,23.6067974 29,15.2077751 C29,6.80875284 22.5081289,0 14.5,0 C6.49187113,0 0,6.80875284 0,15.2077751 C0,23.6067974 6.54426371,22.9898788 14.5523926,22.9898788 Z" id="Oval-Copy-5" fill="#EAF7E1"></path>
                    <g id="Group-3" transform="translate(1.870968, 2.875000)" fill="#016D38" fill-rule="nonzero" stroke="#016D38">
                        <g id="iconos_obra-copy">
                            <path d="M23.5849876,12.9375 L21.3937965,12.9375 L21.3937965,9.05625 C21.3937965,4.05462123 17.4696779,0 12.6290323,0 C7.78838662,0 3.86426799,4.05462123 3.86426799,9.05625 L3.86426799,12.9375 L1.67307692,12.9375 C0.751049182,12.9375 0.00359801489,13.7098088 0.00359801489,14.6625 C0.00359801489,15.6151912 0.751049182,16.3875 1.67307692,16.3875 L23.5849876,16.3875 C24.5070153,16.3875 25.2544665,15.6151912 25.2544665,14.6625 C25.2544665,13.7098088 24.5070153,12.9375 23.5849876,12.9375 L23.5849876,12.9375 Z M4.69900744,9.05625 C4.69863664,4.51319914 8.23257546,0.813688145 12.6290323,0.7546875 C17.0254891,0.813688145 20.5594279,4.51319914 20.5590571,9.05625 L20.5590571,12.9375 L4.69900744,12.9375 L4.69900744,9.05625 Z M23.5849876,15.525 L1.67307692,15.525 C1.45169026,15.525 1.23937101,15.4341297 1.08282699,15.2723796 C0.92628298,15.1106295 0.838337469,14.8912492 0.838337469,14.6625 C0.885053167,14.2076443 1.23286127,13.8482693 1.67307692,13.8 L23.5849876,13.8 C24.0252032,13.8482693 24.3730113,14.2076443 24.419727,14.6625 C24.419727,14.8912492 24.3317815,15.1106295 24.1752375,15.2723796 C24.0186935,15.4341297 23.8063743,15.525 23.5849876,15.525 L23.5849876,15.525 Z" id="Shape" stroke-width="0.6"></path>
                            <path d="M15.8636476,5.821875 L13.9854839,5.821875 L13.9854839,3.88125 C13.9854839,3.3453612 13.5650426,2.9109375 13.046402,2.9109375 L12.2116625,2.9109375 C11.6930219,2.9109375 11.2725806,3.3453612 11.2725806,3.88125 L11.2725806,5.821875 L9.39441687,5.821875 C9.14535687,5.821875 8.90649772,5.92410406 8.7303857,6.10607295 C8.55427369,6.28804184 8.45533499,6.53484462 8.45533499,6.7921875 L8.45533499,7.7625 C8.45533499,8.01984288 8.55427369,8.26664566 8.7303857,8.44861455 C8.90649772,8.63058344 9.14535687,8.7328125 9.39441687,8.7328125 L11.2725806,8.7328125 L11.2725806,10.6734375 C11.2725806,10.9307804 11.3715193,11.1775832 11.5476314,11.359552 C11.7237434,11.5415209 11.9626025,11.64375 12.2116625,11.64375 L13.046402,11.64375 C13.5650426,11.64375 13.9854839,11.2093263 13.9854839,10.6734375 L13.9854839,8.7328125 L15.8636476,8.7328125 C16.1127076,8.7328125 16.3515668,8.63058344 16.5276788,8.44861455 C16.7037908,8.26664566 16.8027295,8.01984288 16.8027295,7.7625 L16.8027295,6.7921875 C16.8027295,6.53484462 16.7037908,6.28804184 16.5276788,6.10607295 C16.3515668,5.92410406 16.1127076,5.821875 15.8636476,5.821875 L15.8636476,5.821875 Z M15.8636476,7.7625 L13.9854839,7.7625 C13.4879382,7.81178768 13.0941033,8.21872019 13.046402,8.7328125 L13.046402,10.6734375 L12.2116625,10.6734375 L12.2116625,8.7328125 C12.1639612,8.21872019 11.7701263,7.81178768 11.2725806,7.7625 L9.39441687,7.7625 L9.39441687,6.7921875 L11.2725806,6.7921875 C11.7701263,6.74289982 12.1639612,6.33596731 12.2116625,5.821875 L12.2116625,3.88125 L13.046402,3.88125 L13.046402,5.821875 C13.0941033,6.33596731 13.4879382,6.74289982 13.9854839,6.7921875 L15.8636476,6.7921875 L15.8636476,7.7625 Z" id="Shape" stroke-width="0.3"></path>
                        </g>
                    </g>
                </g>
                <g id="Group-6" transform="translate(180.000000, 40.000000)">
                    <path d="M14.5523926,22.9898788 C22.5605215,22.9898788 29,23.6067974 29,15.2077751 C29,6.80875284 22.5081289,0 14.5,0 C6.49187113,0 0,6.80875284 0,15.2077751 C0,23.6067974 6.54426371,22.9898788 14.5523926,22.9898788 Z" id="Oval" fill="#EAF7E1"></path>
                    <g id="Group-4" transform="translate(3.741935, 0.958333)" fill="#016D38" fill-rule="nonzero" stroke="#016D38" stroke-width="0.4">
                        <path d="M15.9359611,1.41916393 C14.1283692,-0.431361305 11.2133005,-0.478021775 9.35015467,1.31374727 L9.24725145,1.31374727 L5.43983209,5.3195806 L5.23402564,5.53041393 L1.32370306,9.53624727 C-0.441234354,11.3808237 -0.441234354,14.3329209 1.32370306,16.1774973 C2.19358054,17.0788013 3.3793674,17.5860132 4.61660629,17.5860132 C5.85384518,17.5860132 7.03963203,17.0788013 7.90950951,16.1774973 L7.90950951,16.1774973 L11.8198321,12.2770806 L11.9227353,12.2770806 L15.8330579,8.06041393 C16.7204942,7.20174666 17.2318842,6.0123734 17.251258,4.76201324 C17.2706318,3.51165309 16.7963477,2.30625206 15.9359611,1.41916393 Z M7.29209016,15.5449973 C5.84287715,17.0296077 3.49323867,17.0296077 2.04402568,15.5449972 C0.594812697,14.0603868 0.59481268,11.6533577 2.04402564,10.1687473 L5.64563855,6.47916393 L10.8937031,11.8554139 L7.29209016,15.5449973 Z M15.2156385,7.42791393 L11.6140256,11.1174973 L6.36596113,5.74124727 L9.96757403,2.05166393 C11.416787,0.567053489 13.7664255,0.567053489 15.2156385,2.05166393 C16.6648515,3.53627438 16.6648515,5.94330349 15.2156385,7.42791393 L15.2156385,7.42791393 Z" id="Shape"></path>
                        <path d="M11.5111224,3.52749727 C11.3110562,3.32660321 10.9908661,3.32660321 10.7907998,3.52749727 L9.14434822,5.21416393 C8.94824407,5.41911687 8.94824407,5.74712767 9.14434822,5.9520806 L9.8646708,5.9520806 L11.5111224,4.26541393 C11.6083232,4.02951923 11.6083232,3.76339197 11.5111224,3.52749727 L11.5111224,3.52749727 Z" id="Path"></path>
                        <path d="M19.0230579,12.8041639 L19.0230579,12.8041639 C18.1848638,11.8950518 17.0238486,11.3711709 15.8033007,11.3513239 C14.5827528,11.3314769 13.406092,11.8173455 12.5401547,12.6987473 L12.4372514,12.6987473 C10.672314,14.5433237 10.672314,17.4954209 12.4372514,19.3399973 C13.3071289,20.2413013 14.4929158,20.7485132 15.7301547,20.7485132 C16.9673936,20.7485132 18.1531804,20.2413013 19.0230579,19.3399973 C20.7758442,17.5313666 20.7758442,14.6127946 19.0230579,12.8041639 Z M12.1285418,16.0720806 C12.1285418,14.03438 13.7410388,12.3824973 15.7301547,12.3824973 C16.5456952,12.3504459 17.346514,12.6114756 17.9940256,13.1204139 L12.8488644,18.3912473 C12.3520606,17.72792 12.0972546,16.9075409 12.1285418,16.0720806 L12.1285418,16.0720806 Z M18.3027353,18.8129139 C17.0062841,20.075083 15.0146813,20.2081427 13.5691869,19.1291639 L18.7143482,13.8583306 C19.7557651,15.3969955 19.582992,17.4766645 18.3027353,18.8129139 L18.3027353,18.8129139 Z" id="Shape"></path>
                    </g>
                </g>
            </g>
        </g>
    </g>
</svg>