<?xml version="1.0" encoding="UTF-8"?>
<svg width="42px" height="14px" viewBox="0 0 42 14" version="1.1" xmlns="http://www.w3.org/2000/svg" xmlns:xlink="http://www.w3.org/1999/xlink">
    <title>Shape</title>
    <defs>
        <linearGradient x1="99.2202323%" y1="54.7813645%" x2="0%" y2="45.1260037%" id="linearGradient-1">
            <stop stop-color="#014A26" offset="0%"></stop>
            <stop stop-color="#0D6122" offset="26.9135346%"></stop>
            <stop stop-color="#128C31" offset="100%"></stop>
        </linearGradient>
    </defs>
    <g id="Menu-1" stroke="none" stroke-width="1" fill="none" fill-rule="evenodd">
        <g id="3" transform="translate(-212.000000, -496.000000)" fill="url(#linearGradient-1)" stroke="#FFFFFF" stroke-width="0.2">
            <path d="M239.123032,496.259646 C240.303596,496.532989 241.556413,497.169451 242.817241,498.262805 C243.653101,498.983252 244.443138,499.789042 245.183665,500.548175 C245.506768,500.876434 245.714413,501.087441 245.863633,501.238196 L245.978558,501.353989 C246.030196,501.405838 246.074097,501.449611 246.114748,501.489795 C247.160652,502.514037 248.196187,503.276979 249.142834,503.377068 C250.094421,503.47768 251.185496,502.931094 252.475171,501.295814 C253.538243,501.051022 253.703378,501.193776 253.801018,501.374082 C253.899274,501.555526 253.929266,501.774991 253.868501,501.990027 C253.692565,502.624828 253.468536,503.244467 253.197839,503.844399 C252.031609,506.50394 249.79451,508.512109 247.06937,509.345142 C244.542874,510.094909 241.859421,510.084621 239.337299,509.315082 C238.618373,509.105635 237.91663,508.838891 237.238338,508.517216 C235.209256,507.553283 233.86727,506.286297 233.087631,504.933104 C232.134671,506.28634 230.792612,507.549102 228.763596,508.517232 C228.087934,508.838511 227.388985,509.105255 226.671818,509.315436 C224.147907,510.084825 221.461351,510.093736 218.933379,509.341104 C216.207456,508.507835 213.970358,506.499666 212.803701,503.839168 C212.533538,503.240201 212.309402,502.620558 212.133077,501.98439 C212.567821,500.986096 212.774539,500.932885 212.97228,500.957174 C213.170328,500.981501 213.35915,501.083511 213.492986,501.258089 C214.808713,502.923205 215.873982,503.486278 216.855085,503.38133 C217.831808,503.27685 218.829384,502.52634 219.832717,501.541376 C219.866735,501.508339 219.90331,501.472419 219.942114,501.433989 L220.199056,501.176294 C220.384674,500.988416 220.595432,500.772372 220.810277,500.552128 C221.550547,499.793257 222.344807,498.983146 223.176351,498.262835 C224.438531,497.175964 225.691113,496.542705 226.87096,496.269528 C228.187506,495.9647 229.412289,496.108955 230.455017,496.568971 C231.466909,497.012442 232.323618,497.760432 232.911699,498.713986 C233.67001,497.760432 234.526718,497.012442 235.539322,496.568656 C236.581354,496.102284 237.806671,495.95486 239.123032,496.259646 Z M229.864312,498.035865 C229.080355,497.690779 228.14121,497.597938 227.10962,497.865692 C226.200594,498.101635 225.218589,498.618363 224.208932,499.492113 C223.414857,500.17761 222.649852,500.957352 221.711252,501.921639 C221.484465,502.157332 221.249554,502.401507 220.936927,502.696351 C219.71183,503.897418 218.449093,504.85122 217.002234,504.981844 C216.460819,505.032243 215.91542,504.964166 215.289202,504.93724 C216.342643,506.307031 217.782645,507.310131 219.412687,507.809949 C221.649845,508.466992 224.02284,508.452015 226.250873,507.767187 C226.888705,507.580703 227.512618,507.343092 228.115622,507.056688 C229.451745,506.419525 230.42121,505.648383 231.081396,504.826635 C231.835389,503.888123 232.187277,502.882662 232.22117,501.930642 C232.252233,501.104046 232.040986,500.286796 231.614666,499.58424 C231.199765,498.896633 230.588743,498.356127 229.864312,498.035865 Z M238.900685,497.85287 C237.869095,497.585115 236.92995,497.677957 236.146138,498.022979 C235.421562,498.343304 234.81054,498.883811 234.39551,499.571631 C233.969422,500.27398 233.758072,501.091227 233.789142,501.918017 C233.823016,502.869489 234.17583,503.87457 234.930366,504.812791 C235.591541,505.634924 236.562178,506.40644 237.898712,507.043798 C238.501865,507.330166 239.125774,507.567881 239.764918,507.754759 C241.991635,508.439192 244.364629,508.454169 246.600651,507.797467 C248.231003,507.295215 249.669525,506.290602 250.608152,504.765024 C250.094948,504.948612 249.549563,505.018255 249.008134,504.969027 C247.556757,504.838367 246.302071,503.884064 245.028854,502.637799 C244.654464,502.266793 244.367097,501.976473 244.001875,501.602506 C243.308097,500.8953 242.568292,500.141344 241.801281,499.479211 C240.791717,498.60554 239.809711,498.088812 238.900685,497.85287 Z" id="Shape"></path>
        </g>
    </g>
</svg>