<?xml version="1.0" encoding="UTF-8"?>
<svg width="42px" height="16px" viewBox="0 0 42 16" version="1.1" xmlns="http://www.w3.org/2000/svg" xmlns:xlink="http://www.w3.org/1999/xlink">
    <title>moustache</title>
    <g id="Menu-1" stroke="none" stroke-width="1" fill="none" fill-rule="evenodd">
        <g id="2" transform="translate(-212.000000, -485.000000)" fill="#999999" stroke="#FFFFFF" stroke-width="0.4">
            <g id="moustache" transform="translate(212.000000, 485.182979)">
                <path d="M27.1004754,1.17408974 C28.267578,1.44431635 29.505458,2.07464803 30.7519529,3.15557248 C31.585619,3.87412818 32.3735009,4.67788577 33.1123965,5.43534471 C33.4820391,5.81088624 33.7007251,6.03312146 33.8537732,6.18732421 L34.0447815,6.37826323 C35.1109103,7.42231031 36.1688075,8.19166269 37.1323194,8.29353537 C38.1057106,8.39645259 39.2288261,7.85465075 40.5573484,6.16981698 C41.4833843,5.95606848 41.6276995,6.08104946 41.7130832,6.23872181 C41.7993999,6.39811703 41.8256603,6.5909127 41.7721338,6.78034018 C41.5975669,7.41020119 41.3752823,8.02501934 41.1062575,8.6212607 C39.9518678,11.2537986 37.7377097,13.2419257 35.0409204,14.0662957 C32.5332586,14.8104735 29.8698116,14.8002608 27.3652691,14.0360944 C26.6514399,13.8281323 25.9546715,13.5632778 25.281248,13.2439119 C23.2744424,12.2905611 21.9455359,11.038848 21.1742783,9.70020346 C20.0563813,11.0389331 18.7273267,12.2864735 16.7206528,13.243943 C16.04978,13.5629451 15.3557855,13.8278 14.6426585,14.0368031 C12.1375635,14.8004567 9.47103464,14.809303 6.96261214,14.0624933 C4.26425651,13.2376515 2.0500984,11.2495244 0.89485777,8.61507328 C0.626794432,8.02076266 0.404401967,7.40593627 0.229056211,6.77334052 C0.608482657,5.89877806 0.788150515,5.85233013 0.96008836,5.87344957 C1.13263362,5.89464363 1.29695389,5.983768 1.41452408,6.13710808 C2.76596491,7.84742085 3.86248395,8.4050997 4.86572114,8.29778364 C5.86019956,8.19140451 6.87970394,7.43409514 7.90238661,6.43013434 C8.14096952,6.19842906 8.50514945,5.82515308 8.8818596,5.43897734 C9.62024109,4.68204254 10.4124011,3.87391669 11.2416035,3.15563362 C12.4892948,2.08123828 13.7270433,1.4540528 14.8935169,1.18397181 C16.1868428,0.88451989 17.3901823,1.02552208 18.4148763,1.47758254 C19.4082914,1.91295528 20.249256,2.64738152 20.826584,3.58349999 C21.7443714,2.64738152 22.585336,1.91295528 23.5801731,1.4769527 C24.6038146,1.01881107 25.8075124,0.874721857 27.1004754,1.17408974 Z M17.9047462,2.76142568 C17.1021222,2.40812297 16.1407812,2.31175694 15.0844968,2.58592093 C14.1630975,2.82507478 13.1670705,3.34772135 12.1434936,4.23351779 C11.3475357,4.92064006 10.5805316,5.70222153 9.6395933,6.66891021 C9.41340867,6.90397485 9.17955696,7.14708563 8.86831539,7.44062279 C7.66061211,8.62461061 6.41932187,9.57052264 4.9932426,9.6992706 C4.46598918,9.74835103 3.935144,9.68207963 3.43532636,9.50480423 C3.2041485,9.42281003 2.98277921,9.31819352 2.77414951,9.19277903 C2.90937757,9.40577841 3.05479312,9.61349568 3.20993248,9.81522359 C4.27612512,11.2015953 5.7336242,12.2167163 7.38337095,12.7225765 C9.64049062,13.3854893 12.0334628,13.3703883 14.2802534,12.6797949 C14.9218511,12.4922192 15.5507259,12.2527199 16.1585248,11.9640379 C17.5109166,11.3191179 18.4912876,10.5378431 19.159354,9.70628648 C19.9287154,8.74864569 20.2865312,7.72240561 20.3211071,6.75122154 C20.3528993,5.90520996 20.136584,5.06859543 19.7001575,4.34938367 C19.2746854,3.64425803 18.6478282,3.08993255 17.9047462,2.76142568 Z M26.9258083,2.57309835 C25.8695239,2.29893436 24.9081829,2.39530039 24.1058504,2.74847452 C23.3624769,3.07710997 22.7356197,3.63143545 22.309889,4.33698847 C21.8738223,5.05578623 21.6574061,5.8923953 21.6892124,6.73879349 C21.7237617,7.70924069 22.0825086,8.73511805 22.8524399,9.69248224 C23.5214925,10.5244097 24.5030304,11.3060437 25.8556684,11.9510814 C26.4637662,12.2397971 27.0926328,12.4793994 27.7368542,12.6677619 C29.9810118,13.3575657 32.3739839,13.3726668 34.6288303,12.7104363 C36.2801348,12.2017383 37.7361324,11.1850865 38.8005055,9.7979539 C38.9559647,9.5953533 39.1016276,9.3867286 39.2372387,9.17278151 C39.0282939,9.29923051 38.8063509,9.40493795 38.5744689,9.48788907 C38.0749743,9.66657316 37.5441581,9.73437237 37.0171891,9.68645949 C35.5862421,9.55763796 34.3527163,8.61072526 33.0988039,7.38335703 C32.7252738,7.01319973 32.4382291,6.72320537 32.0734176,6.34965767 C31.377602,5.64037569 30.6357139,4.88446146 29.8666271,4.22053588 C28.8432346,3.33489876 27.8472076,2.8122522 26.9258083,2.57309835 Z" id="Shape"></path>
            </g>
        </g>
    </g>
</svg>