<?xml version="1.0" encoding="UTF-8"?>
<svg width="245px" height="187px" viewBox="0 0 245 187" version="1.1" xmlns="http://www.w3.org/2000/svg" xmlns:xlink="http://www.w3.org/1999/xlink">
    <title>Group 4</title>
    <defs>
        <linearGradient x1="50%" y1="23.9463181%" x2="49.9978653%" y2="88.6187097%" id="linearGradient-1">
            <stop stop-color="#10B457" offset="0%"></stop>
            <stop stop-color="#4ED64D" offset="25.8547966%"></stop>
            <stop stop-color="#F9DC02" offset="100%"></stop>
        </linearGradient>
        <rect id="path-2" x="13.6146341" y="54.5" width="192" height="48" rx="8"></rect>
        <filter x="-8.1%" y="-30.2%" width="116.1%" height="164.6%" filterUnits="objectBoundingBox" id="filter-3">
            <feOffset dx="0" dy="1" in="SourceAlpha" result="shadowOffsetOuter1"></feOffset>
            <feGaussianBlur stdDeviation="5" in="shadowOffsetOuter1" result="shadowBlurOuter1"></feGaussianBlur>
            <feColorMatrix values="0 0 0 0 0   0 0 0 0 0   0 0 0 0 0  0 0 0 0.15 0" type="matrix" in="shadowBlurOuter1"></feColorMatrix>
        </filter>
        <rect id="path-4" x="0.614634146" y="0.5" width="192" height="48" rx="8"></rect>
        <filter x="-8.1%" y="-30.2%" width="116.1%" height="164.6%" filterUnits="objectBoundingBox" id="filter-5">
            <feOffset dx="0" dy="1" in="SourceAlpha" result="shadowOffsetOuter1"></feOffset>
            <feGaussianBlur stdDeviation="5" in="shadowOffsetOuter1" result="shadowBlurOuter1"></feGaussianBlur>
            <feColorMatrix values="0 0 0 0 0   0 0 0 0 0   0 0 0 0 0  0 0 0 0.15 0" type="matrix" in="shadowBlurOuter1"></feColorMatrix>
        </filter>
        <rect id="path-6" x="0.614634146" y="109.5" width="192" height="48" rx="8"></rect>
        <filter x="-8.1%" y="-30.2%" width="116.1%" height="164.6%" filterUnits="objectBoundingBox" id="filter-7">
            <feOffset dx="0" dy="1" in="SourceAlpha" result="shadowOffsetOuter1"></feOffset>
            <feGaussianBlur stdDeviation="5" in="shadowOffsetOuter1" result="shadowBlurOuter1"></feGaussianBlur>
            <feColorMatrix values="0 0 0 0 0   0 0 0 0 0   0 0 0 0 0  0 0 0 0.15 0" type="matrix" in="shadowBlurOuter1"></feColorMatrix>
        </filter>
        <linearGradient x1="100%" y1="50%" x2="0%" y2="50%" id="linearGradient-8">
            <stop stop-color="#08D56D" offset="0%"></stop>
            <stop stop-color="#FFDD00" offset="100%"></stop>
        </linearGradient>
        <linearGradient x1="100%" y1="50%" x2="0%" y2="50%" id="linearGradient-9">
            <stop stop-color="#08D56D" offset="0%"></stop>
            <stop stop-color="#FFDD00" offset="100%"></stop>
        </linearGradient>
    </defs>
    <g id="Menu-1" stroke="none" stroke-width="1" fill="none" fill-rule="evenodd">
        <g id="5" transform="translate(-58.000000, -91.000000)">
            <g id="Group-4" transform="translate(58.000000, 91.000000)">
                <path d="M1.16582909,67.6894821 C-16.5452496,199.285516 172.816868,186.70967 210.99684,158.354459 C249.176812,129.999248 272.362106,49.9740358 184.313445,54.0090007 C137.659988,56.1469669 116.028312,15.5356879 82.6524907,3.39121975 C53.0384168,-7.38446064 9.49251697,5.82091292 1.16582909,67.6894821 Z" id="Path-3-Copy" fill="url(#linearGradient-1)"></path>
                <g id="Group-2" transform="translate(19.385366, 17.427152)">
                    <g id="Group-7">
                        <g id="Rectangle-Copy-9">
                            <use fill="black" fill-opacity="1" filter="url(#filter-3)" xlink:href="#path-2"></use>
                            <use fill="#FFFFFF" fill-rule="evenodd" xlink:href="#path-2"></use>
                        </g>
                        <g id="Rectangle-Copy-8">
                            <use fill="black" fill-opacity="1" filter="url(#filter-5)" xlink:href="#path-4"></use>
                            <use fill="#FFFFFF" fill-rule="evenodd" xlink:href="#path-4"></use>
                        </g>
                        <g id="Group-11" transform="translate(5.614634, 5.500000)" fill="#F4F4F4">
                            <circle id="Oval-Copy" cx="19" cy="19" r="19"></circle>
                        </g>
                        <g id="Rectangle-Copy-10">
                            <use fill="black" fill-opacity="1" filter="url(#filter-7)" xlink:href="#path-6"></use>
                            <use fill="#FFFFFF" fill-rule="evenodd" xlink:href="#path-6"></use>
                        </g>
                        <g id="Group-12" transform="translate(18.614634, 59.500000)" fill="#F4F4F4">
                            <circle id="Oval" cx="19" cy="19" r="19"></circle>
                        </g>
                        <path d="M57.9247127,143.972602 L55.1554677,141.272611 C54.4343563,140.569533 54.4343563,139.430377 55.1554677,138.727299 C55.8765791,138.024222 57.0449543,138.024222 57.7660657,138.727299 L59.2299501,140.154694 L63.4632026,136.027308 C64.184314,135.324231 65.3526892,135.324231 66.0738006,136.027308 C66.794912,136.730386 66.794912,137.869542 66.0738006,138.57262 L60.5353107,143.972602 C59.8140762,144.675799 58.645824,144.675799 57.9247127,143.972602 Z" id="Path-Copy-2" fill="#0DD56B" fill-rule="nonzero"></path>
                        <path d="M67.9247127,89.9726018 L65.1554677,87.2726108 C64.4343563,86.5695331 64.4343563,85.4303769 65.1554677,84.7272992 C65.8765791,84.0242216 67.0449543,84.0242216 67.7660657,84.7272992 L69.2299501,86.1546945 L73.4632026,82.0273082 C74.184314,81.3242306 75.3526892,81.3242306 76.0738006,82.0273082 C76.794912,82.7303859 76.794912,83.8695421 76.0738006,84.5726198 L70.5353107,89.9726018 C69.8140762,90.6757994 68.645824,90.6757994 67.9247127,89.9726018 Z" id="Path-Copy-3" fill="#0DD56B" fill-rule="nonzero"></path>
                        <path d="M57.9247127,34.9726018 L55.1554677,32.2726108 C54.4343563,31.5695331 54.4343563,30.4303769 55.1554677,29.7272992 C55.8765791,29.0242216 57.0449543,29.0242216 57.7660657,29.7272992 L59.2299501,31.1546945 L63.4632026,27.0273082 C64.184314,26.3242306 65.3526892,26.3242306 66.0738006,27.0273082 C66.794912,27.7303859 66.794912,28.8695421 66.0738006,29.5726198 L60.5353107,34.9726018 C59.8140762,35.6757994 58.645824,35.6757994 57.9247127,34.9726018 Z" id="Path-Copy-4" fill="#0DD56B" fill-rule="nonzero"></path>
                        <g id="Group-13" transform="translate(5.614634, 114.500000)" fill="#F4F4F4">
                            <circle id="Oval-Copy-2" cx="19" cy="19" r="19"></circle>
                        </g>
                        <rect id="Rectangle-Copy-6" fill="url(#linearGradient-8)" fill-rule="nonzero" x="53.6146341" y="14.5" width="117" height="3" rx="1.5"></rect>
                        <rect id="Rectangle-Copy-12" fill="#0DD56B" fill-rule="nonzero" x="74.6146341" y="29.5" width="35" height="3" rx="1.5"></rect>
                        <rect id="Rectangle-Copy-13" fill="#0DD56B" fill-rule="nonzero" x="86.6146341" y="83.5" width="35" height="3" rx="1.5"></rect>
                        <rect id="Rectangle-Copy-14" fill="#0DD56B" fill-rule="nonzero" x="74.6146341" y="138.5" width="35" height="3" rx="1.5"></rect>
                        <rect id="Rectangle-Copy-7" fill="url(#linearGradient-9)" fill-rule="nonzero" x="65.6146341" y="68.5" width="118" height="3" rx="1.5"></rect>
                        <rect id="Rectangle-Copy-11" fill="url(#linearGradient-8)" fill-rule="nonzero" x="53.6146341" y="123.5" width="117" height="3" rx="1.5"></rect>
                        <g id="sleep" transform="translate(15.614634, 14.500000)" fill="#016D38" fill-rule="nonzero">
                            <path d="M11.0326253,5.64070124 C10.9447154,5.57099301 10.8336155,5.5366404 10.7214042,5.54441362 L9.02383439,5.54441362 L10.6203583,3.77512846 L10.7699062,3.6106371 L10.846701,3.51434947 C10.8733771,3.47713831 10.8951019,3.43666742 10.9113703,3.39398993 C10.9297101,3.34800256 10.9392589,3.2990062 10.9396631,3.24955849 C10.9509297,3.13255899 10.8925253,3.01972193 10.7901153,2.96069561 C10.6572906,2.90021494 10.511633,2.87263255 10.3657229,2.88045592 L8.38118298,2.88045592 C8.27528696,2.8732845 8.1704014,2.90467828 8.08612919,2.96871958 C8.01650862,3.0275453 7.97775755,3.11470566 7.98104154,3.20542666 C7.98104154,3.34183413 8.02686582,3.42473176 8.11846385,3.4541697 C8.24982342,3.49123041 8.38618475,3.50747894 8.52264713,3.50231351 L9.81603362,3.50231351 C9.76212567,3.57718717 9.69210092,3.66545083 9.60585831,3.76710449 L9.27442803,4.13620706 L8.82578459,4.6176452 L8.30438816,5.19135898 C8.1238698,5.39195821 8.00529253,5.52570774 7.94870688,5.59255743 C7.82037869,5.74726958 7.83634392,5.97459865 7.98508337,6.11010343 C8.09168671,6.18984162 8.22385464,6.22830652 8.35693199,6.21842701 L10.7173623,6.21842701 C10.830281,6.22720323 10.9425429,6.1943551 11.0326253,6.12615137 C11.1012859,6.06662355 11.1397844,5.97991453 11.1377129,5.88944428 C11.141199,5.7952128 11.1027511,5.70424105 11.0326253,5.64070124 Z" id="Path"></path>
                            <path d="M14.9831169,8.4355263 C14.9116666,8.37956361 14.8211798,8.3524317 14.7299785,8.35957693 L13.3581315,8.35957693 L14.6442381,6.95251506 L14.7667244,6.82060301 L14.8442991,6.72866431 C14.8661935,6.69908403 14.8840051,6.66685551 14.8973765,6.63272827 C14.9128404,6.59590282 14.9211593,6.55662901 14.9218738,6.51680556 C14.932132,6.42351775 14.8858424,6.33292815 14.8034703,6.28496013 C14.6961416,6.23669232 14.5784527,6.21470697 14.4605085,6.22100278 L12.8436889,6.22100278 C12.7585098,6.21635587 12.6744025,6.24188885 12.6068819,6.2929548 C12.5504362,6.33942382 12.5188449,6.40867765 12.5211415,6.48082954 C12.5211415,6.58740848 12.5578874,6.65406404 12.6313792,6.68069629 C12.7376361,6.70952706 12.8478738,6.72166897 12.9580095,6.7166723 L14.0032262,6.7166723 C13.9623974,6.77663232 13.9052371,6.84458702 13.8317453,6.92853105 L13.5622754,7.22433383 L13.2111479,7.62406732 L12.8028601,8.07976349 C12.6558765,8.23965689 12.5592654,8.34893403 12.5129758,8.40754495 C12.4167729,8.5283644 12.4291236,8.70074947 12.5415559,8.80727844 C12.6272453,8.86968683 12.7331449,8.89951694 12.839606,8.89122247 L14.7340614,8.89122247 C14.8245992,8.89831774 14.9146266,8.8727348 14.9871998,8.81927044 C15.0411959,8.77135239 15.0710009,8.70269817 15.0688574,8.63139571 C15.0707457,8.55699531 15.0394606,8.48549298 14.9831169,8.4355263 Z" id="Path"></path>
                            <path d="M18.894824,5.65239415 C18.8070225,5.58289527 18.6960595,5.54864582 18.5839864,5.5563957 L16.876398,5.5563957 L18.4709546,3.79242416 L18.6203181,3.62842681 L18.7172025,3.51242868 C18.7438458,3.47532928 18.7655438,3.43497993 18.7817922,3.39243062 C18.8001094,3.34658136 18.8096464,3.29773215 18.8100501,3.24843294 C18.8213029,3.13178483 18.7629703,3.01928664 18.6606866,2.96043759 C18.5280256,2.90013856 18.3825475,2.87268901 18.2368171,2.88043888 L16.2345385,2.88043888 C16.128773,2.873289 16.0240167,2.90458849 15.9398483,2.96843746 C15.8703136,3.02708652 15.8316102,3.11398511 15.8348902,3.20443365 C15.8348902,3.34043146 15.880658,3.42308013 15.9721432,3.45242965 C16.1033408,3.48937906 16.2395341,3.50557879 16.3758284,3.50042888 L17.667621,3.50042888 C17.6137795,3.57507767 17.543841,3.66307625 17.4577047,3.76442462 L17.122646,4.14041855 L16.686666,4.6204108 L16.1659121,5.19240157 C15.9856162,5.39239834 15.867185,5.52574619 15.8106691,5.59239511 C15.682499,5.74664263 15.6984446,5.97328897 15.8470007,6.10838679 C15.9534727,6.1878855 16.0854778,6.22623489 16.2183911,6.21638504 L18.5718759,6.21638504 C18.685816,6.23058481 18.8010177,6.20203528 18.894824,6.13638634 C18.9634,6.07703729 19.0018511,5.99058869 18.9997822,5.90039014 C19.003264,5.80644166 18.9648634,5.71574312 18.894824,5.65239415 Z" id="Path"></path>
                            <path d="M17.5807185,12.8295774 C17.4673776,12.7065998 17.2939098,12.668544 17.1430705,12.7336559 C12.830845,14.6048547 7.88795883,12.4574645 6.10280253,7.93721652 C5.19632408,5.64182572 5.25103008,3.05288389 6.25359216,0.801856774 C6.34753729,0.593644586 6.26264352,0.345030684 6.064011,0.246554764 C5.96205891,0.195987457 5.84439127,0.193224502 5.7403504,0.23883934 C1.01270747,2.27451228 -1.24550654,7.94211686 0.696506782,12.897765 C2.63852011,17.8534132 8.04536291,20.2205366 12.7730556,18.1848637 C14.9292678,17.2564062 16.6718031,15.5092276 17.6523833,13.2924507 C17.7213626,13.1374124 17.6929652,12.9538582 17.5807185,12.8295774 Z M9.2614276,18.0844067 C4.58769495,18.0835726 0.799552996,14.1113804 0.800348594,9.21224248 C0.800846047,5.99532768 2.46281438,3.03083237 5.14355766,1.4649662 C4.82611365,2.45264474 4.66483041,3.48807551 4.66612346,4.53028334 C4.66637212,9.89005291 8.8116448,14.2348272 13.9248158,14.2345665 C14.7817605,14.2345144 15.6345276,14.1097643 16.4587481,13.8638612 C14.9157902,16.4790251 12.1948131,18.0746061 9.2614276,18.0844067 Z" id="Shape" stroke="#016D38" stroke-width="0.4"></path>
                        </g>
                        <g id="Group-12" transform="translate(27.614634, 70.500000)">
                            <g id="Group-5" transform="translate(0.000000, 0.478755)">
                                <g id="sport" fill="#016D38" fill-rule="nonzero" stroke="#016D38" stroke-width="0.4">
                                    <path d="M18.0189485,9.24610215 L15.0309679,9.02302582 L13.0561725,5.58535365 L12.0689274,3.86404603 L12.0689274,3.38727812 C12.0692326,2.86984939 11.6680784,2.45016605 11.17293,2.44984713 C11.0619984,2.44968768 10.9519824,2.47121396 10.8486802,2.51299097 L8.00932048,3.65755288 L8.2238594,2.90508875 C8.39323223,2.2725341 8.118421,1.60202939 7.56345802,1.29364503 L5.33551892,0.0428866269 C5.17347032,-0.0480022217 4.97159627,0.0100390912 4.87683902,0.174755224 L1.6088593,5.64339497 L1.53988947,5.60161796 C1.37478911,5.50243749 1.16406493,5.56207333 1.06930772,5.73460274 C1.06717146,5.7382702 1.06534045,5.74193761 1.06335677,5.74576451 L0.0402534491,7.75855434 C-0.0479424636,7.93235939 0.0135505187,8.14778192 0.178193108,8.24297609 L12.6209912,15.4498256 C12.6721082,15.4793246 12.7294813,15.4947917 12.7879226,15.4947917 L17.9310577,15.4947917 C19.0731798,15.4936755 19.9989319,14.5264265 20,13.3327528 L20,11.4690526 C19.9963379,10.3012103 19.1334521,9.3330047 18.0189485,9.24610215 Z M14.3102943,9.16892638 L13.9164643,9.3062164 L10.83098,5.11400717 L11.624133,4.49165759 L14.3102943,9.16892638 Z M5.29889777,0.840316893 L7.23722465,1.92747531 C7.50593231,2.07592714 7.64020986,2.39898124 7.56071146,2.70545215 L7.27582943,3.7087377 L5.29645636,2.46834381 L4.61103054,2.0384554 L5.29889777,0.840316893 Z M3.25726875,4.27942413 L3.4338132,3.99113102 L4.56830586,4.87291248 C5.1456993,5.32592173 5.44049955,6.07200774 5.33719736,6.81889101 L5.29416753,7.86028611 L2.21234532,6.00408029 L3.25726875,4.27942413 Z M17.9310577,14.7742183 L12.8765763,14.7742183 L0.807619085,7.78342919 L1.50448903,6.41419634 L12.9310502,13.284757 C12.9835406,13.316329 13.0428974,13.3329122 13.1034748,13.3327528 L19.3103017,13.3327528 C19.3103017,14.1287479 18.6927776,14.7742183 17.9310577,14.7742183 L17.9310577,14.7742183 Z M19.3103017,12.61202 L13.1954855,12.61202 L10.8303696,11.1890511 L11.6255063,10.3418711 C11.7568847,10.197884 11.7516967,9.96970513 11.613757,9.83241511 C11.4787166,9.69783581 11.2657035,9.70006814 11.1331044,9.8373582 L10.2131507,10.8175229 L8.90272393,10.0283843 L10.2169654,8.92974511 C10.3655862,8.8053709 10.3896951,8.57846763 10.2706764,8.42299982 C10.1516577,8.26769145 9.9345248,8.24249771 9.78590395,8.36687195 L8.26063313,9.64218632 L7.13788977,8.96753577 L8.84138352,7.4839743 C8.98786812,7.35657042 9.00770455,7.12934826 8.88593925,6.97627227 C8.76402134,6.82319628 8.54643066,6.80246722 8.39994607,6.92971165 L6.50068179,8.58404849 L5.96753889,8.26338622 L6.02338616,6.8801214 C6.1511024,5.88353291 5.75147411,4.89300373 4.97968343,4.29281824 L3.80475492,3.37994321 L4.24863375,2.65171611 L7.30100646,4.56548487 C7.34205265,4.59020027 7.38752393,4.60550787 7.43452107,4.61061041 C7.44276081,4.61061041 7.44993246,4.61348056 7.45832482,4.61411838 C7.46656456,4.61491568 7.47175257,4.61666964 7.47831383,4.61666964 C7.52088593,4.61682909 7.56330544,4.60869696 7.60313093,4.59259206 L11.0961781,3.18477132 C11.1601126,3.15925866 11.2316764,3.16802865 11.2882866,3.20821109 C11.3450494,3.24887191 11.3787713,3.31632103 11.3783136,3.38839427 L11.3783136,3.78479732 L10.1368566,4.75762712 C9.9845737,4.87721776 9.95390346,5.10316428 10.0683446,5.26214007 C10.0691075,5.26325626 10.0698704,5.26437245 10.0706334,5.26532915 L13.5189723,9.94993282 C13.6080838,10.0719152 13.76174,10.1210271 13.9010529,10.0720747 L14.8702927,9.7343508 L17.9690521,9.96571879 C18.7231426,10.024079 19.3074025,10.6787978 19.3103017,11.4690526 L19.3103017,12.61202 Z" id="Shape"></path>
                                </g>
                                <line x1="-4.62159047e-13" y1="15.3375981" x2="5.28960751" y2="15.3375981" id="Path-5" stroke="#0B561E" stroke-width="0.8"></line>
                                <line x1="3.30463626e-13" y1="13.3165383" x2="2.63770687" y2="13.3165383" id="Path-6" stroke="#0B561E" stroke-width="0.8"></line>
                                <line x1="0" y1="10.8463542" x2="1.40472623" y2="10.8463542" id="Path-7" stroke="#0B561E" stroke-width="0.8"></line>
                            </g>
                        </g>
                    </g>
                    <g id="team" transform="translate(12.614634, 122.572848)" fill="#016D38" fill-rule="nonzero">
                        <path d="M23.8667817,15.2263252 L22.7676063,14.1312208 C22.5909475,13.955217 22.3058076,13.9564384 22.1306348,14.1338444 C21.955417,14.3112504 21.9566329,14.5977145 22.1332467,14.773673 L23.2323771,15.8687775 C23.3201886,15.9563044 23.434884,16 23.5495344,16 C23.6654006,16 23.7812668,15.9553545 23.8693035,15.8661539 C24.0445664,15.6887479 24.0433955,15.4022838 23.8667817,15.2263252 Z" id="Path" stroke="#016D38" stroke-width="0.4"></path>
                        <path d="M21.8536831,13.1464055 C21.6585356,12.9511982 21.3422328,12.9511982 21.1469853,13.1464055 L21.146136,13.1472551 C20.9509885,13.3424623 20.9514381,13.6585622 21.1465856,13.8537695 C21.2440095,13.9512731 21.3718596,14 21.4996597,14 C21.6277596,14 21.7559595,13.9510732 21.8536331,13.8533696 C22.0487806,13.6581624 22.0487806,13.3416627 21.8536831,13.1464055 Z" id="Path" stroke="#016D38" stroke-width="0.4"></path>
                        <path d="M17.073843,14.8797693 L21.4975268,10.498668 C22.1674987,9.83509324 22.1674987,8.75538455 21.4974812,8.09180981 C21.2612243,7.85782477 20.9726737,7.70674141 20.6687585,7.63779213 C20.7729815,7.4159082 20.8281476,7.17239578 20.8281476,6.92039451 C20.8281476,6.46578983 20.649382,6.03841266 20.3248594,5.71701059 C20.0703202,5.46487386 19.7498553,5.30205061 19.4020352,5.24339631 C19.5978521,4.65251859 19.4594353,3.97580421 18.985873,3.50684074 C18.7254981,3.24901469 18.4016593,3.09188077 18.0636871,3.03444561 C18.1203122,2.86426235 18.1501748,2.68455172 18.1501748,2.50014514 C18.1501748,2.04554045 17.9714093,1.61816329 17.6468866,1.29676121 C17.3223184,0.975359131 16.8907918,0.798312552 16.4318188,0.798312552 C16.1403503,0.798312552 15.8600973,0.869925884 15.6111204,1.00439278 L15.5671243,0.957568682 C14.9953116,0.348990821 14.1859198,0 13.3466199,0 L9.76583778,0 C9.51403412,0 9.30982833,0.20224219 9.30982833,0.451624556 L9.30982833,1.04385688 C9.30982833,1.2808672 9.35031387,1.5116012 9.42772879,1.72856341 C9.22147137,1.64372013 8.99829937,1.5991537 8.76824301,1.5991537 C8.3092245,1.5991537 7.87769785,1.77620027 7.55312963,2.09760235 C7.07933936,2.56683674 6.94105935,3.24404781 7.13733217,3.83510614 C6.7990864,3.89240584 6.47479173,4.04963006 6.21418885,4.30768189 C5.88966622,4.62912912 5.71090067,5.05650629 5.71090067,5.51106581 C5.71090067,5.69511117 5.74067213,5.87455088 5.79706922,6.04437292 C5.4496595,6.10320783 5.12951369,6.26594077 4.87520248,6.51785173 C4.35194507,7.03607759 4.23737281,7.80820115 4.53148569,8.43759474 C4.22004792,8.50807924 3.93400479,8.66340702 3.7024895,8.89265096 C3.03251759,9.55618054 3.03251759,10.6358892 3.7024895,11.299464 L4.61222882,12.2004103 L0.133561258,16.6359215 C-0.0445204193,16.8122908 -0.0445204193,17.0982474 0.133561258,17.2746618 C0.222602097,17.3628013 0.339317174,17.4069614 0.45598666,17.4069614 C0.572656146,17.4069614 0.689371224,17.3628465 0.778412063,17.2746618 L5.30030067,12.7962548 C5.55629878,12.9409264 5.84680991,13.0183194 6.14958523,13.0183194 C6.60855816,13.0183194 7.0400848,12.8412728 7.36465302,12.5198256 C7.71726021,12.1706541 7.88403511,11.7061609 7.86547924,11.2477633 C7.8885943,11.2487115 7.91170935,11.2493888 7.93482441,11.2493888 C8.37478554,11.2493437 8.81497464,11.08345 9.1498922,10.7517529 C9.47441482,10.4303057 9.65318038,10.0029285 9.65318038,9.54836899 C9.65318038,9.5253859 9.65240532,9.50253827 9.65149348,9.47969063 C9.67433499,9.4805937 9.69717649,9.48131616 9.72006359,9.48131616 C10.1600703,9.48131616 10.6001682,9.31542247 10.9351314,8.98368026 C11.259654,8.66223303 11.4384196,8.23485586 11.4384196,7.78029634 C11.4384196,7.75731324 11.4376445,7.73446561 11.4367327,7.71161798 C11.4595742,7.71252104 11.4824157,7.7132435 11.5053028,7.7132435 C11.9453551,7.7132435 12.3854074,7.54734982 12.7203706,7.2156076 C13.3499025,6.59212911 13.3877893,5.60132751 12.8343501,4.9334632 L15.8613739,1.93554671 C16.0136962,1.78464397 16.2161239,1.70160682 16.4315453,1.70160682 C16.6469667,1.70160682 16.84944,1.78464397 17.0017623,1.93554671 C17.1540846,2.0864043 17.2379279,2.28688551 17.2379279,2.50023544 C17.2379279,2.71354022 17.1540846,2.91411174 17.0017167,3.06492417 L16.5554183,3.50693105 L14.9360878,5.1106904 C14.7580061,5.28705967 14.7580061,5.57301631 14.9360878,5.74943074 C15.0251286,5.83757023 15.1418437,5.88173028 15.2585132,5.88173028 C15.3751827,5.88173028 15.4918977,5.83761538 15.5809386,5.74943074 L17.2002691,4.1456714 C17.5146247,3.83429338 18.0262106,3.83424823 18.3406575,4.14562625 C18.6550587,4.45704942 18.6550587,4.96367084 18.3406575,5.27509402 L17.8943135,5.71714605 L16.721327,6.87885336 C16.5432453,7.05522264 16.5432453,7.34117928 16.721327,7.51759371 C16.8103678,7.60573319 16.9270829,7.64989324 17.0437524,7.64989324 C17.1604218,7.64989324 17.2771369,7.60577835 17.3661778,7.51759371 L18.5391643,6.35588639 C18.6914866,6.20498365 18.8939599,6.1219465 19.1093357,6.1219465 C19.3247571,6.1219465 19.5272304,6.20498365 19.6795527,6.35588639 C19.831875,6.50674399 19.9157183,6.70722519 19.9157183,6.92057513 C19.9157183,7.1338799 19.831875,7.33445142 19.6795071,7.48526386 L19.0668897,8.09199043 L18.5065205,8.64697117 C18.3284389,8.82334045 18.3284389,9.10929709 18.5065205,9.28571152 C18.5955614,9.37385101 18.7122765,9.41801106 18.8289459,9.41801106 C18.9456154,9.41801106 19.0623305,9.37389616 19.1513713,9.28571152 L19.7121508,8.7303244 C20.0265977,8.41944306 20.5378644,8.41948822 20.8521289,8.73073078 C21.1665757,9.04210879 21.1665757,9.54877537 20.8521289,9.86019855 L16.4284451,14.2412999 C15.3176458,15.3414631 13.8413368,15.9783522 12.2714734,16.0347939 C12.1560805,16.0389481 12.0464778,16.086314 11.9649596,16.1674095 L7.87847291,20.2295923 C7.70071038,20.4062776 7.70121189,20.6922343 7.8796583,20.8682875 C7.96860795,20.9560657 8.08504948,21 8.20149101,21 C8.31843405,21 8.43546827,20.9557045 8.5245091,20.8671135 L11.5302415,17.8793113 C12.2937222,18.3643946 13.1916077,18.5950383 14.104584,18.5352551 L16.4570311,20.8651267 C16.546072,20.9532662 16.662787,20.9974263 16.7794565,20.9974263 C16.8961716,20.9974263 17.0128411,20.9533114 17.1018819,20.8651267 C17.2799636,20.6887574 17.2799636,20.4028008 17.1018819,20.2263864 L14.6007143,17.7489986 C14.5060201,17.6552601 14.3744421,17.6073523 14.2409948,17.6181891 L14.0964231,17.629929 C13.4290955,17.6841131 12.769473,17.5393512 12.193557,17.2197101 L12.4866213,16.9284254 C14.2198402,16.8225406 15.8425445,16.099273 17.073843,14.8797693 Z M6.71980221,11.8811755 C6.56747992,12.0320783 6.36496102,12.1151154 6.14963082,12.1151154 C5.93420944,12.1151154 5.73173613,12.0320783 5.57945943,11.8811755 L4.34729471,10.6609042 C4.03289347,10.3495262 4.03289347,9.84285963 4.34729471,9.53143646 C4.499617,9.38053371 4.7021359,9.29749657 4.91751169,9.29749657 C5.13288748,9.29749657 5.33540638,9.38053371 5.48768308,9.53143646 L6.71984781,10.7517078 C7.03420346,11.0630858 7.03420346,11.5697524 6.71980221,11.8811755 Z M8.50513258,10.1130126 C8.19068575,10.4243906 7.67900867,10.4243906 7.36469861,10.1130126 L6.13253389,8.89269611 L5.51987091,8.28592439 C5.20546967,7.97454637 5.20546967,7.46787979 5.51987091,7.15650177 C5.67219321,7.00559902 5.8747121,6.92256188 6.0900423,6.92256188 C6.30546369,6.92256188 6.50793699,7.00559902 6.6602137,7.15650177 L8.5049958,8.9835448 C8.5049958,8.9835448 8.5049958,8.9835448 8.50504139,8.9835448 C8.65740928,9.13444755 8.74125265,9.33497391 8.74125265,9.54827869 C8.74125265,9.76158347 8.65740928,9.96215498 8.50513258,10.1130126 Z M10.2903718,8.34489476 C9.97592492,8.65622762 9.46429344,8.65627278 9.14993779,8.34489476 L6.8588117,6.0757997 C6.7064894,5.92494211 6.62264603,5.7244609 6.62264603,5.51111097 C6.62264603,5.29780619 6.7064894,5.09723468 6.85885729,4.94642224 C7.01605791,4.79073323 7.22258889,4.71288872 7.42902868,4.71288872 C7.63537729,4.71288872 7.84168031,4.79064292 7.99883534,4.94606101 L9.04307055,5.98025505 L10.2902806,7.21547214 L10.2903262,7.21547214 C10.4426029,7.36632974 10.5264463,7.56681094 10.5264463,7.78016088 C10.5265374,7.99351081 10.4426941,8.19408232 10.2903718,8.34489476 Z M12.0756565,6.57677695 C11.7612553,6.88815497 11.2496694,6.88815497 10.9352682,6.57677695 L8.64414206,4.30768189 C8.6439141,4.30745612 8.64364055,4.30723035 8.643367,4.30695943 L8.19779807,3.86567501 C7.88339683,3.55425184 7.88339683,3.04763041 8.19779807,2.73620724 C8.35499869,2.58047308 8.56152967,2.50262857 8.76801505,2.50262857 C8.97450044,2.50262857 9.18103142,2.58047308 9.33818645,2.73620724 L12.0755653,5.44726402 C12.2279332,5.59812162 12.3117766,5.79864798 12.3117766,6.01195276 C12.3118222,6.22534784 12.2280244,6.42596451 12.0756565,6.57677695 Z M12.195563,4.2887626 L10.9430644,3.04830771 C11.0850829,3.07833474 11.2311135,3.0942739 11.3797429,3.09422875 C11.3830711,3.09422875 11.3864449,3.09422875 11.3898187,3.09422875 L12.6412231,3.08840396 C12.8930268,3.08722997 13.0962752,2.88408471 13.0950898,2.63465719 C13.0939044,2.38595212 12.8899722,2.18515484 12.6391259,2.18515484 C12.6383965,2.18515484 12.637667,2.18515484 12.6369375,2.18515484 L11.385533,2.19097964 C11.3836182,2.19097964 11.3817945,2.19097964 11.3798797,2.19097964 C11.0715421,2.19097964 10.7815325,2.0724519 10.5628741,1.8569346 C10.342848,1.64001755 10.2217105,1.35130655 10.2217105,1.04381172 L10.2217105,0.903203958 L13.3464831,0.903203958 C13.9334779,0.903203958 14.4995004,1.14725822 14.8994319,1.5728744 L14.9179878,1.59260645 L12.195563,4.2887626 Z" id="Shape"></path>
                    </g>
                </g>
            </g>
        </g>
    </g>
</svg>