<?xml version="1.0" encoding="UTF-8"?>
<svg width="174px" height="143px" viewBox="0 0 174 143" version="1.1" xmlns="http://www.w3.org/2000/svg" xmlns:xlink="http://www.w3.org/1999/xlink">
    <title>Group 5</title>
    <defs>
        <linearGradient x1="50%" y1="24.1957326%" x2="49.9978653%" y2="88.249009%" id="linearGradient-1">
            <stop stop-color="#10B457" offset="0%"></stop>
            <stop stop-color="#4ED64D" offset="25.8547966%"></stop>
            <stop stop-color="#F9DC02" offset="100%"></stop>
        </linearGradient>
        <linearGradient x1="96.0164087%" y1="94.3729327%" x2="78.673929%" y2="-20.2097692%" id="linearGradient-2">
            <stop stop-color="#083E16" offset="0%"></stop>
            <stop stop-color="#128C31" offset="100%"></stop>
        </linearGradient>
    </defs>
    <g id="Menu-1" stroke="none" stroke-width="1" fill="none" fill-rule="evenodd">
        <g id="9" transform="translate(-116.000000, -111.000000)">
            <g id="Group-5" transform="translate(116.000000, 111.253113)">
                <path d="M0.827976581,64.8426877 C-11.7505038,157.854301 122.735245,148.965737 149.850817,128.924374 C176.966389,108.883011 193.432679,52.3214726 130.900161,55.1733716 C97.7666855,56.6844786 82.4037805,27.9805696 58.7001363,19.3969022 C37.6681001,11.7806892 6.7416243,21.1142008 0.827976581,64.8426877 Z" id="Path-3" fill="url(#linearGradient-1)"></path>
                <g id="Group-7" transform="translate(36.000000, 0.000000)">
                    <g id="Group-12-Copy-6">
                        <path d="M0,130.667153 C0,136.926025 5.04600026,142 11.2703645,142 L70.768966,142 C75.8669478,142 80,137.84438 80,132.717789 L80,11.3328474 C80,5.0739753 74.9539997,0 68.7292913,0 L11.2703645,0 C5.04565601,0 0,5.0739753 0,11.3328474 L0,130.667153 Z" id="Path" fill="#FFDC5D"></path>
                        <path d="M70,10.9466675 C70,10.4239274 69.5804025,10 69.0625794,10 L56.5407074,10 C55.834305,10 55.2090157,10.4622778 54.9954521,11.1418745 L54.712412,12.0418996 C54.1993805,13.6740373 52.6982754,14.7830894 51.0020883,14.7830894 L31.162928,14.7830894 C29.4667409,14.7830894 27.9656359,13.6743828 27.4526043,12.0418996 L27.1699064,11.1418745 C26.9563429,10.4619323 26.3310536,10 25.6246512,10 L11.9374206,10 C11.4195975,10 11,10.4235819 11,10.946322 L11,130.053678 C11,130.576418 11.4195975,131 11.9374206,131 L70,131 L70,10.9466675 Z" id="Path" fill="#F9F7F8" fill-rule="nonzero"></path>
                        <g id="Group-3" transform="translate(14.000000, 49.000000)" fill-rule="nonzero">
                            <g id="Atoms-/-Brand-/-logo-header-desk-Copy-4" transform="translate(0.029412, 27.000000)" fill="#016D38">
                                <g id="logo-BOLIVAR" transform="translate(0.562335, 0.000000)">
                                    <g id="Group" transform="translate(0.000000, 5.273984)">
                                        <path d="M50.197671,9.70156976 C49.7704394,9.63934395 49.2618305,9.12079551 48.6311554,8.18740834 C48.2649569,7.58589215 47.8987584,6.96363404 47.53256,6.34137592 C48.6718441,6.13395654 49.2211418,5.47021455 49.2211418,4.45385962 C49.2211418,3.83160151 48.9363207,3.33379501 48.4073674,3.04340789 C47.9801359,2.79450464 47.4308382,2.67005302 46.7798187,2.67005302 C46.515342,2.67005302 46.1287992,2.69079496 45.6201902,2.71153689 C44.4605618,2.75302077 43.5247213,2.71153689 43.1788672,2.67005302 L43.0974898,2.67005302 L43.0974898,2.89821433 C43.0974898,2.89821433 44.2571182,3.08489176 44.2571182,3.47898857 C44.2774626,3.54121438 44.2774626,3.91456925 44.2774626,4.41237575 L44.2774626,8.51927933 C44.2774626,8.8926342 44.2367738,9.14153745 44.1960851,9.26598907 C44.1147077,9.53563426 43.2602446,9.74305363 43.2602446,9.74305363 L43.2195559,10.0126988 L43.3009333,10.0126988 C43.8705754,9.97121494 44.4402174,9.950473 44.9895151,9.950473 C45.5388128,9.950473 46.0677661,9.97121494 46.5763751,10.0126988 L46.6577525,10.0126988 L46.6577525,9.76379557 C46.6577525,9.76379557 45.8236338,9.49415038 45.5998459,9.32821489 C45.4777797,9.24524714 45.4574354,9.03782776 45.4574354,8.7266987 C45.4574354,8.66447289 45.4574354,8.47779546 45.4574354,8.24963415 C45.4574354,8.02147284 45.4777797,7.81405346 45.4777797,7.64811797 L45.4777797,6.50731142 L46.2101767,6.50731142 C47.0849841,7.68960184 47.7156592,8.76818258 48.4073674,9.950473 L48.4277118,9.99195688 C48.4277118,9.99195688 49.0380425,9.950473 49.3228636,9.950473 C49.6076846,9.950473 49.9331943,9.97121494 50.1773266,9.99195688 L50.2587041,9.99195688 L50.2587041,9.70156976 L50.197671,9.70156976 Z M46.1898323,5.86431136 L45.4777797,5.86431136 L45.4777797,3.31305307 C45.4777797,3.31305307 46.4746533,3.29231114 46.4746533,3.29231114 C47.4918713,3.31305307 47.9597915,3.70714988 47.9801359,4.57831125 C47.9801359,5.09685968 47.7970366,5.42873068 47.4511825,5.63615005 C47.1867059,5.78134361 46.7594743,5.86431136 46.1898323,5.86431136 Z" id="Shape"></path>
                                        <path d="M5.4584179,6.6110211 C5.15404515,6.40360173 4.82938089,6.27915011 4.40325905,6.19618236 C4.70763179,6.11321461 4.95112999,5.98876298 5.23521122,5.82282749 C5.70191609,5.51169843 5.94541429,4.99314999 5.94541429,4.57831125 C5.94541429,3.93531119 5.68162458,3.41676276 5.17433667,3.08489176 C4.74821482,2.79450464 4.20034388,2.67005302 3.53072384,2.67005302 C3.53072384,2.67005302 2.94226987,2.69079496 1.80594495,2.71153689 C1.60302979,2.71153689 1.42040614,2.71153689 1.2377825,2.71153689 C0.547870941,2.71153689 0,2.67005302 0,2.67005302 L0,2.91895627 C0,2.91895627 1.07545037,3.06414983 1.15661643,3.58269826 C1.17690795,3.64492407 1.19719946,8.95486001 1.1160334,9.14153745 C0.913118235,9.59786007 0,9.74305363 0,9.74305363 L0,10.0126988 C0,10.0126988 0.669620039,9.950473 1.42040614,9.950473 C1.58273827,9.950473 1.76536192,9.950473 1.94798557,9.950473 C3.20605958,9.97121494 3.83509659,9.99195688 3.83509659,9.99195688 C4.48442511,9.99195688 5.03229605,9.84676332 5.47870941,9.51489232 C5.98599732,9.16227939 6.24978703,8.64373096 6.24978703,8.0007309 C6.24978703,7.41995666 5.98599732,6.9428921 5.4584179,6.6110211 Z M2.25235831,4.45385962 C2.25235831,4.10124669 2.25235831,3.76937569 2.27264983,3.31305307 C2.49585651,3.29231114 2.80022926,3.29231114 3.12489352,3.29231114 C4.20034388,3.31305307 4.66704876,3.64492407 4.68734028,4.57831125 C4.68734028,5.44947261 4.18005237,5.80208555 3.00314442,5.82282749 L2.25235831,5.82282749 L2.25235831,4.45385962 Z M3.04372745,9.34895682 C3.02343594,9.34895682 3.02343594,9.34895682 3.04372745,9.34895682 C3.02343594,9.34895682 3.02343594,9.34895682 3.02343594,9.34895682 C3.02343594,9.34895682 3.02343594,9.34895682 3.04372745,9.34895682 L3.04372745,9.34895682 C3.00314442,9.34895682 2.75964622,9.32821489 2.29294135,9.32821489 C2.27264983,9.10005358 2.27264983,8.91337614 2.27264983,8.70595677 L2.27264983,6.59027916 L2.96256139,6.59027916 C4.36267601,6.59027916 4.99171302,7.08808566 5.01200454,8.06295671 C4.99171302,9.01708583 4.38296753,9.34895682 3.04372745,9.34895682 Z" id="Shape"></path>
                                        <path d="M11.8515914,2.53655037 C10.7446685,2.53655037 9.84273129,2.88996595 9.18677697,3.61758628 C8.53082264,4.34520661 8.20284548,5.25992931 8.20284548,6.40333268 C8.20284548,7.46357945 8.51032407,8.35751299 9.14577982,9.06434417 C9.80173415,9.7919645 10.6421756,10.1661692 11.6671043,10.1453801 L11.6671043,10.1453801 C12.7740272,10.1453801 13.6554658,9.72959704 14.3114201,8.9188201 C14.9263773,8.17041062 15.2338559,7.21410962 15.2338559,6.07070625 L15.2338559,6.07070625 C15.2338559,5.03124863 14.9263773,4.17889339 14.3319187,3.51364052 C13.6964629,2.88996595 12.8560215,2.53655037 11.8515914,2.53655037 Z M13.8809501,6.63201336 C13.8809501,7.44279029 13.7169615,8.08725401 13.4299815,8.60698282 C13.0610072,9.20986823 12.5280443,9.52170552 11.7900957,9.52170552 C10.9701528,9.52170552 10.3756942,9.12671162 9.9862213,8.27435638 C9.69924128,7.65068182 9.55575128,6.86069403 9.55575128,5.90439303 C9.55575128,5.15598355 9.74023843,4.53230898 10.0887142,4.03336933 C10.4986856,3.47206222 11.0316485,3.20180324 11.7286,3.20180324 C13.1635001,3.20180324 13.8604515,4.30362831 13.8809501,6.63201336 L13.8809501,6.63201336 Z" id="Shape"></path>
                                        <path d="M21.0290877,9.22227236 L18.9903078,9.22227236 L18.9903078,4.56291638 C18.9903078,4.00129758 18.9903078,3.71008783 19.0106956,3.56448296 C19.0514712,3.08606694 20.2543513,2.89886068 20.2543513,2.89886068 L20.2543513,2.67005302 C20.2543513,2.67005302 19.0106956,2.7532558 18.4194494,2.7532558 C17.8485911,2.7532558 16.6660988,2.67005302 16.6660988,2.67005302 L16.6660988,2.89886068 C16.6660988,2.89886068 17.8282033,3.10686764 17.8282033,3.54368226 C17.8485911,3.62688505 17.8485911,3.95969619 17.8485911,4.4589129 L17.8485911,8.4110452 C17.8485911,8.80625843 17.8689789,8.9934647 17.7874277,9.15987027 C17.5631619,9.59668489 16.6660988,9.72148907 16.6660988,9.72148907 L16.6660988,10.0126988 L16.74765,10.0126988 C17.5019985,9.97109742 18.3378983,9.95029673 19.2553492,9.95029673 C20.1728001,9.95029673 21.1718023,9.97109742 22.2319678,10.0126988 L22.2931312,10.0126988 L22.3950702,8.05743336 L22.0892532,8.05743336 C22.0892532,8.07823406 21.9465386,9.26387375 21.0290877,9.22227236 Z" id="Path"></path>
                                        <g transform="translate(23.697109, 0.000000)" id="Path">
                                            <path d="M3.50127009,0.691786464 L3.50127009,0.691786464 C3.50127009,0.356374845 3.21628299,0.125779357 2.95165211,0.125779357 C2.74808989,0.125779357 2.58524012,0.251558714 2.42239035,0.398301297 L0.916029964,2.20113875 L1.46564794,2.20113875 L3.17557054,1.19490389 C3.39948898,1.04816131 3.50127009,0.880455499 3.50127009,0.691786464 L3.50127009,0.691786464 Z"></path>
                                            <path d="M1.77099126,2.74618263 C1.36386684,2.74618263 0.814248857,2.7252194 0.101781107,2.66232972 L0.0203562214,2.66232972 L0.0203562214,2.91388844 C0.0203562214,2.91388844 0.99745485,3.14448393 1.11959218,3.64760135 C1.18066084,3.89916007 1.16030462,4.33938782 1.16030462,4.80057879 C1.16030462,4.80057879 1.20101706,6.51956334 1.18066084,7.42098206 C1.16030462,8.65781241 1.11959218,9.22381952 0.814248857,9.47537823 C0.549617979,9.70597372 -7.76695121e-15,9.7688634 -7.76695121e-15,9.7688634 L-7.76695121e-15,10.0623486 L0.0814248857,10.0623486 C0.732823972,9.99945888 1.28244195,9.97849566 1.75063504,9.97849566 C2.13740325,9.97849566 2.68702123,9.99945888 3.35877654,10.0623486 L3.44020142,10.0623486 L3.44020142,9.7688634 C3.44020142,9.7688634 2.91093966,9.66404727 2.62595256,9.454415 C2.42239035,9.28670919 2.2798968,8.65781241 2.2798968,7.42098206 C2.2798968,7.25327626 2.30025302,4.8844317 2.30025302,4.80057879 C2.32060924,4.33938782 2.30025302,3.89916007 2.34096546,3.64760135 C2.40203413,3.06063102 3.44020142,2.91388844 3.44020142,2.91388844 L3.44020142,2.66232972 L3.35877654,2.66232972 C2.66666501,2.7252194 2.13740325,2.74618263 1.77099126,2.74618263 Z"></path>
                                        </g>
                                        <path d="M35.3542529,2.94002505 L35.4154599,2.91925797 L35.4154599,2.67005302 L35.3338506,2.6908201 C35.0074135,2.73235425 34.660574,2.75312133 34.2933323,2.75312133 C33.9260905,2.75312133 33.5384464,2.73235425 33.1099977,2.6908201 L33.0283884,2.6908201 L33.0283884,2.91925797 L33.0691931,2.94002505 C33.3548255,3.04386044 33.7832743,3.16846291 33.7628719,3.31383247 C33.640458,3.978379 32.4571235,7.03113961 32.1510887,7.77875446 C31.9266631,7.21804332 30.4168915,3.43843494 30.4168915,3.35536663 C30.4168915,3.35536663 30.3352822,3.14769584 31.2329843,2.94002505 L31.2941912,2.91925797 L31.2941912,2.67005302 C31.2941912,2.67005302 30.2944775,2.73235425 29.8048219,2.75312133 C28.601085,2.75312133 28.2542455,2.67005302 28.2542455,2.67005302 L28.2542455,2.89849089 C28.2542455,2.89849089 28.9683267,3.0853946 29.1723499,3.56303742 C29.9068335,5.2659379 30.7637309,7.48801535 31.6818353,10.1046673 L31.7022376,10.1462015 L32.0490771,10.1462015 L32.0694794,10.1046673 C32.7427559,8.21486312 34.1709183,4.43525474 34.5993671,3.54227034 C34.7421833,3.23076415 34.9870111,3.02309336 35.3542529,2.94002505 Z" id="Path"></path>
                                        <path d="M39.0332441,2.44474443 L39.012721,2.40304772 L38.4996436,2.40304772 L38.4791205,2.44474443 C37.3503503,5.17587949 36.9809346,5.98896549 36.0163492,8.26143665 C35.8726875,8.59501039 35.7905951,8.8451907 35.6469335,9.13706773 C35.4622256,9.5123382 34.7644404,9.72082179 34.7644404,9.72082179 L34.7644404,10.0126988 L34.8465328,10.0126988 C35.2569946,9.9710021 35.6674565,9.95015374 36.0779184,9.95015374 C36.4883803,9.95015374 36.9193653,9.9710021 37.3503503,10.0126988 L37.4324427,10.0126988 L37.4324427,9.72082179 L36.5089034,9.36639968 C36.8167499,8.55331367 37.0219808,8.03210469 37.2066887,7.59428915 L38.4175512,7.59428915 L39.7720755,7.61513751 C39.9567834,8.05295305 40.1414912,8.63670711 40.3672453,9.38724804 C40.0593988,9.5123382 39.7105062,9.61657999 39.3616136,9.69997343 L39.3000443,9.72082179 L39.3000443,10.0126988 L39.3821367,10.0126988 C39.874691,9.9710021 40.3877684,9.95015374 40.9418919,9.95015374 C41.4754924,9.95015374 42.050139,9.9710021 42.6247857,10.0126988 L42.7068781,10.0126988 L42.7068781,9.72082179 C42.7068781,9.72082179 42.0706621,9.55403491 41.8654312,9.32470296 C41.7012464,9.15791609 41.4754924,8.46992024 41.4754924,8.46992024 C39.9362603,4.80060902 39.4026598,3.40376896 39.0332441,2.44474443 Z M37.3913965,7.07308017 L38.4791205,4.27940004 L39.5257984,7.07308017 L37.3913965,7.07308017 Z" id="Shape"></path>
                                    </g>
                                    <path d="M17.5855523,3.91468472 C17.5650407,3.91468472 16.3753695,3.89344566 16.3138348,3.89344566 C16.2933232,3.51114262 16.2933232,3.31999109 16.2933232,3.2137958 L16.2933232,2.555385 L16.8266241,2.555385 C16.9086704,2.555385 16.9907167,2.555385 17.0932746,2.555385 C17.1958324,2.555385 17.359925,2.555385 17.3804366,2.555385 C17.503506,2.555385 17.6675986,2.66158029 17.7496449,3.0651224 L17.7496449,3.08636146 L17.8522027,3.08636146 L17.8522027,3.04388334 C17.8522027,2.8102537 17.8522027,2.57662406 17.8522027,2.36423348 C17.8522027,2.1518429 17.8522027,1.91821326 17.8522027,1.72706174 L17.8522027,1.68458362 L17.7496449,1.68458362 L17.7496449,1.70582268 C17.6881102,2.04564761 17.5240176,2.17308196 17.4009481,2.17308196 C17.3804366,2.17308196 17.1958324,2.17308196 17.0932746,2.17308196 C16.9907167,2.17308196 16.9086704,2.17308196 16.8266241,2.17308196 L16.2933232,2.17308196 L16.2933232,1.57838833 C16.2933232,1.47219304 16.2933232,1.30228058 16.3138348,1.00493376 L17.0522514,1.00493376 C17.1137861,1.00493376 17.1958324,1.00493376 17.2983903,1.00493376 C17.3804366,1.00493376 17.503506,1.00493376 17.5240176,1.00493376 C17.647087,1.00493376 17.8727143,1.04741188 17.934249,1.51467116 L17.934249,1.53591021 L18.0368069,1.53591021 L18.0368069,1.4934321 C18.0368069,1.40847587 18.0368069,1.34475869 18.0368069,1.25980246 C18.0368069,1.06865094 18.0368069,0.856260356 18.0573185,0.643869775 L18.0573185,0.601391658 L18.0162953,0.601391658 C17.5445292,0.622630717 17.0522514,0.643869775 16.5599737,0.643869775 C16.0676959,0.643869775 15.5959297,0.622630717 15.1446751,0.601391658 L15.103652,0.601391658 L15.103652,0.728826007 C15.103652,0.728826007 15.677976,0.813782239 15.6984876,1.02617282 C15.6984876,1.06865094 15.6984876,1.25980246 15.6984876,1.51467116 C15.6984876,1.51467116 15.7395108,2.64034124 15.6984876,3.34123015 C15.677976,3.57485979 15.7189992,3.87220661 15.6574645,3.95716284 C15.534395,4.16955342 15.103652,4.21203153 15.103652,4.21203153 L15.103652,4.33946588 L15.1446751,4.33946588 C15.6984876,4.29698777 16.2728116,4.29698777 16.7240662,4.29698777 C17.1958324,4.29698777 17.6265754,4.31822683 18.0368069,4.33946588 L18.07783,4.33946588 L18.07783,4.29698777 C18.07783,3.99964095 18.07783,3.68105508 18.0983416,3.36246921 L18.0983416,3.31999109 L17.9957838,3.31999109 C17.9957838,3.31999109 17.9137375,3.91468472 17.5855523,3.91468472 Z M21.7937239,2.59366199 C21.5498738,2.59366199 21.2247404,2.57312312 20.9808903,2.57312312 L20.9402486,2.57312312 L20.9402486,2.67581746 C20.9402486,2.67581746 21.5092321,2.75797294 21.5092321,3.02497824 L21.5092321,3.68222206 L21.5092321,3.86707189 C21.3669863,3.9286885 21.2247404,3.94922737 21.0418528,3.96976623 C20.5947944,3.9903051 20.2493401,3.84653302 20.0664525,3.60006659 C19.8226025,3.29198355 19.7209983,2.90174503 19.7209983,2.49096764 C19.7006774,2.08019025 19.8226025,1.7104906 20.0461317,1.42294643 C20.2696609,1.13540226 20.635436,1.01216905 21.1028153,0.991630176 C21.4076279,0.991630176 21.529553,1.03270792 21.6311572,1.11486339 C21.7327614,1.21755774 21.8546864,1.62833513 21.8546864,1.62833513 L21.9562906,1.62833513 L21.9562906,1.58725739 C21.9562906,1.42294643 21.9359698,1.27917435 21.9359698,1.13540226 C21.9359698,0.991630176 21.9359698,0.847858091 21.9562906,0.704086005 L21.9562906,0.683547136 L21.9359698,0.683547136 C21.6921197,0.642469397 21.4279488,0.601391658 21.1637779,0.601391658 C20.5947944,0.601391658 20.0461317,0.806780352 19.6803566,1.11486339 C19.253619,1.50510191 19.0097689,1.95695704 19.0097689,2.53204538 C19.0097689,3.10713372 19.2129773,3.55898885 19.6193941,3.88761076 C19.9851692,4.1956938 20.4525485,4.33946588 21.021532,4.33946588 C21.3873071,4.33946588 21.773403,4.27784928 22.0782156,4.17515493 L22.1188573,4.15461606 L22.1188573,4.13407719 C22.1188573,3.9903051 22.0985365,3.57952772 22.0985365,3.00443937 C22.0985365,2.69635633 22.5252741,2.63473973 22.5252741,2.63473973 L22.5252741,2.53204538 L22.4846324,2.53204538 C22.2407823,2.59366199 22.037574,2.59366199 21.7937239,2.59366199 Z M14.0145729,2.69489069 C13.7992464,2.44859669 13.2511425,2.20230268 13.0162408,2.07915568 C12.7421889,1.91495968 12.6051629,1.73023917 12.6051629,1.52499417 C12.6051629,1.36079817 12.7030386,1.07345517 13.0162408,0.991357164 C13.0749663,0.970832664 13.466469,0.868210162 13.6817956,1.05293067 C13.8579718,1.19660217 13.8579718,1.60709217 13.8579718,1.60709217 L13.9558475,1.60709217 L13.9949978,0.786112161 C13.9949978,0.786112161 13.6426453,0.601391658 13.1924171,0.601391658 C12.8792149,0.601391658 12.6051629,0.68348966 12.3898364,0.847685662 C12.1353596,1.03240616 11.9004579,1.34027367 12.057059,1.87391068 C12.1745099,2.28440068 12.8792149,2.65384169 13.1141165,2.77698869 C13.7013707,3.08485619 13.5643447,3.5569197 13.5643447,3.5569197 C13.5056193,3.7621647 13.3294431,3.88531171 13.1141165,3.94688521 C12.9770906,3.98793421 12.4094115,3.98793421 12.331111,3.84426271 C12.2723856,3.7416402 12.2136601,3.1874787 12.2136601,3.1874787 L12.0766342,3.2285277 L11.9787585,4.17265471 C11.9787585,4.17265471 12.2919607,4.31632621 12.7813392,4.33685071 C13.1532668,4.35737521 13.466469,4.25475271 13.7209458,4.11108121 C14.0341481,3.92636071 14.2103243,3.6390177 14.1907492,3.2695767 C14.171174,2.87961119 14.0145729,2.69489069 14.0145729,2.69489069 Z M33.5994581,0.601391658 C33.0443784,0.601391658 32.5920912,0.785231374 32.263155,1.13248417 C31.9342188,1.47973697 31.7697508,1.94954958 31.7697508,2.50106872 C31.7697508,3.0117346 31.9342188,3.46112057 32.2425965,3.80837337 C32.5715326,4.15562617 32.9827028,4.33946588 33.5172241,4.33946588 L33.5172241,4.33946588 C34.0723039,4.33946588 34.5040326,4.13519953 34.8329687,3.74709347 C35.1413464,3.37941403 35.285256,2.90960143 35.285256,2.35808228 C35.285256,1.8474164 35.1413464,1.4388837 34.8329687,1.11205754 C34.5245911,0.764804739 34.1134209,0.601391658 33.5994581,0.601391658 Z M34.6342365,2.61798433 C34.6342365,3.01849229 34.5556228,3.35576214 34.4180489,3.60871453 C34.2411681,3.92490502 33.9856737,4.07246058 33.6319121,4.07246058 C33.2388438,4.07246058 32.9636959,3.86166692 32.7671617,3.4400796 C32.6295878,3.12388911 32.5509741,2.72338116 32.5509741,2.23855575 C32.5509741,1.85912716 32.6295878,1.54293667 32.8064686,1.28998428 C33.0030028,1.01595252 33.2584972,0.86839696 33.5926053,0.86839696 C34.3001284,0.889476326 34.6342365,1.43753984 34.6342365,2.61798433 L34.6342365,2.61798433 Z M26.2478912,0.642696346 C26.0131194,0.642696346 25.7783476,0.622044002 25.5631401,0.601391658 L25.5240115,0.601391658 L25.5240115,0.725305721 C25.5240115,0.725305721 25.9544265,0.787262753 26.0131194,0.99378619 C26.052248,1.22096197 26.0718124,1.53074713 26.0718124,1.90248932 C26.0718124,2.02640338 26.0718124,3.32750104 25.8761692,3.59598151 C25.739219,3.7818526 25.5240115,3.90576666 25.2501111,3.90576666 C24.8783891,3.90576666 24.6631816,3.80250494 24.5262314,3.61663385 C24.1740737,3.16228229 24.3501525,1.26226666 24.3501525,1.11770025 C24.3501525,0.849219784 24.8979534,0.745958065 24.8979534,0.745958065 L24.8979534,0.622044002 L24.8588248,0.622044002 C24.5849243,0.642696346 24.3110239,0.66334869 24.0175592,0.66334869 C23.7436587,0.66334869 23.4697583,0.642696346 23.2154222,0.622044002 L23.1762936,0.622044002 L23.1762936,0.745958065 C23.1762936,0.745958065 23.7632231,0.869872128 23.7632231,1.17965728 C23.7632231,1.282919 23.6654015,2.31553619 23.6849658,2.74923541 C23.6849658,3.22423932 23.7632231,3.59598151 23.9393019,3.84380963 C24.1545094,4.17424713 24.6436173,4.33946588 25.1522895,4.33946588 C25.7000904,4.33946588 26.0913767,4.13294245 26.3065842,3.74054791 C26.4435344,3.47206744 26.5022273,3.05902057 26.5022273,2.50140729 C26.5022273,2.48075494 26.5022273,2.43945026 26.5022273,2.41879791 C26.5022273,2.00575104 26.5022273,1.67531354 26.5022273,1.44813775 C26.5022273,1.22096197 26.5022273,1.09704791 26.5022273,1.05574322 C26.5217916,0.787262753 26.9522066,0.745958065 26.9522066,0.745958065 L26.9522066,0.622044002 L26.913078,0.622044002 C26.6978705,0.622044002 26.4630987,0.642696346 26.2478912,0.642696346 Z M29.231842,2.20342347 L28.905265,2.20342347 L28.905265,1.00189961 L29.3471045,1.00189961 L29.3663149,1.00189961 C29.8465752,1.00189961 30.0771001,1.19887074 30.0771001,1.6125101 C30.0771001,1.86857256 30.0002585,2.02614946 29.8273648,2.10493791 C29.7121023,2.16402924 29.5007878,2.20342347 29.231842,2.20342347 Z M30.3996507,3.41022709 C30.2132224,3.09344114 30.026794,2.77665519 29.8403657,2.4809883 C30.4203649,2.37539299 30.6896502,2.03748797 30.6896502,1.50951139 C30.6896502,1.19272543 30.5446505,0.939296673 30.2753651,0.791463229 C30.0682226,0.664748849 29.778223,0.601391658 29.4467949,0.601391658 C29.3225093,0.601391658 29.1153668,0.601391658 28.8667957,0.622510722 C28.6182246,0.622510722 28.3489393,0.643629785 28.2246538,0.643629785 C28.0175112,0.643629785 27.8103686,0.643629785 27.6446546,0.622510722 L27.6032261,0.622510722 L27.6032261,0.749225102 C27.6032261,0.749225102 28.1417967,0.791463229 28.2039395,1.04489199 C28.2039395,1.08713012 28.2246538,1.23496356 28.2246538,1.48839232 L28.2246538,3.55806054 C28.2246538,3.74813211 28.2039395,3.91708461 28.1832252,3.95932274 C28.1417967,4.12827525 27.7067973,4.19163244 27.7067973,4.19163244 L27.6446546,4.33946588 L27.6860831,4.33946588 C27.9760827,4.31834682 28.2660823,4.29722776 28.5353676,4.29722776 C28.8046529,4.29722776 29.0739383,4.31834682 29.3432236,4.33946588 L29.3846521,4.33946588 L29.3846521,4.23387057 C29.3846521,4.23387057 28.9910812,4.12827525 28.8667957,4.00156087 C28.8046529,3.95932274 28.7839387,3.89596555 28.7839387,3.72701304 C28.7839387,3.70589398 28.7839387,3.5791796 28.7839387,3.45246522 C28.7839387,3.32575084 28.7839387,3.24127459 28.7839387,3.15679833 L28.7839387,2.58658362 L29.1567953,2.58658362 C29.5917947,3.1779174 29.9232228,3.74813211 30.2753651,4.33946588 L30.2960794,4.33946588 L30.3167936,4.33946588 C30.4617934,4.31834682 30.6067932,4.31834682 30.751793,4.31834682 C30.8967928,4.31834682 31.0625069,4.31834682 31.2075067,4.33946588 L31.2489352,4.33946588 L31.2489352,4.19163244 L31.2282209,4.19163244 C30.9796498,4.14939431 30.7103645,3.89596555 30.3996507,3.41022709 Z M38.1750911,2.74923541 L38.1555029,2.76988776 L38.1750911,2.74923541 C38.1555029,2.72858307 38.1555029,2.72858307 38.1359147,2.70793072 L38.1359147,2.70793072 C38.0379737,2.58401666 37.9204446,2.50140729 37.8225036,2.43945026 C37.6070334,2.31553619 37.4111514,2.23292682 37.1760931,2.10901275 C36.9018583,1.943794 36.7647409,1.75792291 36.7647409,1.55139947 C36.7647409,1.38618072 36.8235055,1.24161432 36.9410347,1.11770025 C36.9606229,1.09704791 36.9802111,1.07639557 36.9997993,1.07639557 C36.9997993,1.07639557 36.9997993,1.07639557 37.0193875,1.07639557 C37.0585639,1.03509088 37.1173285,1.03509088 37.1760931,1.01443853 C37.2348577,0.99378619 37.3132105,0.973133847 37.4307396,0.973133847 C37.4895042,0.973133847 37.567857,0.973133847 37.6462098,0.99378619 C37.7049744,0.99378619 37.7833272,1.01443853 37.86168,1.03509088 L38.0575619,1.6133565 L38.1555029,1.6133565 L38.1946793,0.787262753 L38.1750911,0.787262753 C37.9204446,0.66334869 37.665798,0.601391658 37.3915632,0.601391658 C37.0781521,0.601391658 36.8039173,0.684001034 36.5884472,0.849219784 C36.3338006,1.03509088 36.2162714,1.30357135 36.2162714,1.63400885 C36.2162714,1.73727057 36.2358596,1.84053229 36.275036,1.92314166 C36.3925652,2.19162213 36.6080354,2.37749322 36.7255646,2.43945026 C36.7451527,2.43945026 36.7647409,2.4601026 36.7647409,2.4601026 L36.7647409,2.4601026 L36.7843291,2.4601026 C36.9802111,2.58401666 37.1565049,2.70793072 37.371975,2.83184479 C37.6462098,2.99706354 37.7833272,3.18293463 37.7833272,3.38945807 C37.7833272,3.4514151 37.7833272,3.53402448 37.763739,3.59598151 L37.763739,3.59598151 C37.665798,3.94707135 37.2936223,3.9677237 37.2936223,3.9677237 C37.1956813,3.98837604 37.1173285,3.98837604 37.0389757,3.98837604 C36.7451527,3.98837604 36.5296826,3.86446198 36.5296826,3.86446198 L36.4317416,3.20358698 L36.3142124,3.22423932 L36.2946242,3.22423932 L36.1966832,4.17424713 L36.2162714,4.17424713 C36.470918,4.27750885 36.7255646,4.33946588 36.9997993,4.33946588 C37.371975,4.33946588 37.6853862,4.25685651 37.9400328,4.1122901 C38.2534439,3.92641901 38.4101495,3.63728619 38.4101495,3.26554401 C38.3317967,3.07967291 38.2730321,2.89380182 38.1750911,2.74923541 Z" id="Shape"></path>
                                </g>
                            </g>
                            <g id="Group-2" transform="translate(13.029412, 0.000000)">
                                <polygon id="Path-Copy-3" fill="#FFDC5D" points="2.26808511 1.52506982 23.4368794 1.52506982 23.4368794 22.8760473 2.26808511 22.8760473"></polygon>
                                <path d="M13.6085106,1.86521781 C16.3397126,0.903114276 18.1446809,2.28760473 18.1446809,2.28760473 C18.1446809,2.28760473 16.315963,1.79481999 14.8672385,2.17027503 L13.6085106,1.86521781 L13.6085106,1.86521781 Z" id="Path-Copy-4" fill="#016D38"></path>
                                <path d="M14.364539,3.20835338 C18.0600508,2.63280941 18.1446809,3.81267454 18.1446809,3.81267454 C18.1446809,3.81267454 17.3830105,3.46734816 15.6621996,3.64001135 L14.364539,3.20835338 L14.364539,3.20835338 Z" id="Path-Copy-5" fill="#016D38"></path>
                                <path d="M12.3435093,14.5382955 C13.5724276,13.3825022 15.1259658,13.5992135 15.5665214,14.3215842 C16.169387,15.2847453 15.8447671,16.3923805 15.0100301,17.1869883 C15.0100301,17.1869883 16.169387,15.8385629 15.3346501,14.7068487 C14.8940944,14.080794 13.641989,14.056715 12.6913163,14.8994809 C11.7406437,15.7181677 10.8363453,17.788964 13.0854977,18.2946235 C11.1377781,18.4390977 10.7204096,16.0311951 12.3435093,14.5382955 L12.3435093,14.5382955 Z" id="Path-Copy-6" fill="#016D38"></path>
                                <path d="M18.8537197,8.41801052 C28.0103045,4.44724514 27.6920275,16.1519196 12.0964539,26.6887218 C24.9009829,15.5550071 27.2758191,7.04251663 18.8537197,8.41801052 L18.8537197,8.41801052 Z" id="Path-Copy-7" fill="#016D38"></path>
                                <path d="M4.53617021,15.2506982 C-3.34281096,18.589987 1.4355469,22.1135124 1.4355469,22.1135124 C1.4355469,22.1135124 -1.45270496,18.7281644 4.53617021,15.2506982 L4.53617021,15.2506982 Z" id="Path-Copy-8" fill="#016D38"></path>
                                <path d="M14.2743407,22.1135124 C19.8863367,19.1377664 16.2004919,16.0132331 16.2004919,16.0132331 C16.2004919,16.0132331 18.126643,19.3361494 13.6085106,22.1135124 L14.2743407,22.1135124 L14.2743407,22.1135124 Z" id="Path-Copy-9" fill="#016D38"></path>
                                <path d="M4.53617021,15.2506982 C4.53617021,15.2506982 5.38927463,13.3812578 6.02300935,10.6754887 C6.02300935,10.6754887 6.36425112,13.2828662 4.53617021,15.2506982 L4.53617021,15.2506982 Z" id="Path-Copy-10" fill="#016D38"></path>
                                <path d="M3.86827028,15.2506982 C3.86827028,15.2506982 -1.2285032,10.3583382 6.77026092,6.88092547 C9.08697613,5.87367489 12.0621262,5.60987116 13.4277689,7.50446155 C13.8423389,8.08003331 13.8911119,11.9891249 9.62347861,14.9868944 C7.77010643,14.3873405 7.5994011,13.3561078 7.5994011,13.3561078 C8.45292776,14.3393762 9.64786508,14.5552156 9.64786508,14.5552156 C13.1839041,11.701339 13.330223,8.12799762 12.8912664,7.72030096 C11.5012373,6.49721096 9.25768147,6.49721096 7.06289863,7.36056861 C0.0639800229,10.2144453 3.86827028,15.2506982 3.86827028,15.2506982 L3.86827028,15.2506982 Z" id="Path-Copy-11" fill="#016D38"></path>
                                <path d="M6.82957684,22.8760473 L6.04822695,22.8760473 C6.04822695,22.8760473 7.82796837,19.0321583 10.5843972,18.301278 C10.5843972,18.2742083 8.08841834,19.4923422 6.82957684,22.8760473 L6.82957684,22.8760473 Z" id="Path-Copy-12" fill="#016D38"></path>
                                <path d="M17.6223433,4.57520945 C17.6223433,4.57520945 17.0779279,5.21779505 17.6509967,6.52866967 C18.1954121,7.81384086 19.6567376,9.1504189 19.6567376,9.1504189 C19.6567376,9.1504189 17.9661846,6.91422103 17.6223433,4.57520945 L17.6223433,4.57520945 Z" id="Path-Copy-13" fill="#016D38"></path>
                                <path d="M7.56028369,3.27909522 C7.56028369,3.27909522 7.67675865,1.06780232 10.4488627,0.330704688 C14.2692413,-0.711398863 15.8765957,1.04238516 15.8765957,1.04238516 C15.8765957,1.04238516 13.6868665,0.279870368 10.7982875,0.889882203 C9.95966784,1.09321948 8.74832827,1.75406564 8.30572342,3.07575795 C8.25913344,3.20284374 9.42388303,3.68576978 9.42388303,3.68576978 C9.42388303,3.68576978 10.4255677,8.5404473 13.1510817,10.2942313 C14.3158313,9.78588813 15.131156,8.2862757 15.131156,8.2862757 C15.131156,8.26085854 14.9680911,9.93839109 13.1976717,10.6754887 C9.88978286,8.7946189 8.81821324,4.04161002 8.81821324,4.04161002 C8.81821324,4.04161002 7.65346365,3.6095183 7.56028369,3.27909522 L7.56028369,3.27909522 Z" id="Path-Copy-14" fill="#016D38"></path>
                                <path d="M9.07234043,9.1504189 C3.52661758,10.915853 5.72007513,13.7256284 5.72007513,13.7256284 C5.72007513,13.7256284 4.49918838,11.5126194 9.07234043,9.1504189 L9.07234043,9.1504189 Z" id="Path-Copy-15" fill="#016D38"></path>
                            </g>
                        </g>
                    </g>
                    <g id="Group-25" transform="translate(59.000000, 11.000000)">
                        <path d="M55,6 L37,6 L37,24 L55,24 L55,6 Z M51.4,20.4 L40.6,20.4 L40.6,9.6 L51.4,9.6 L51.4,20.4 Z" id="Shape" fill="#016D38"></path>
                        <path d="M26,6 L8,6 L8,24 L26,24 L26,6 Z M22.4,20.4 L11.6,20.4 L11.6,9.6 L22.4,9.6 L22.4,20.4 Z" id="Shape-Copy" fill="#016D38"></path>
                        <path d="M26,37 L8,37 L8,55 L26,55 L26,37 Z M22.4,51.4 L11.6,51.4 L11.6,40.6 L22.4,40.6 L22.4,51.4 Z" id="Shape-Copy-2" fill="#016D38"></path>
                        <rect id="Rectangle" fill="#016D38" x="43" y="12" width="6" height="6"></rect>
                        <rect id="Rectangle" fill="url(#linearGradient-2)" x="14" y="12" width="6" height="6"></rect>
                        <rect id="Rectangle-Copy" fill="url(#linearGradient-2)" x="14" y="44" width="6" height="6"></rect>
                        <path d="M11.2,31 L16,31 L16,27.6666667 C13.9536,27.6666667 11.2,27.6866667 11.2,27.6866667 L11.2,26 L8,26 L8,36 L11.2,36 L11.2,31 Z" id="Path" fill="#016D38"></path>
                        <rect id="Rectangle" fill="#016D38" x="19" y="28" width="5" height="4"></rect>
                        <rect id="Rectangle-Copy-5" fill="#016D38" x="49" y="33" width="5" height="4"></rect>
                        <rect id="Rectangle" fill="#016D38" x="29" y="6" width="4" height="4"></rect>
                        <polygon id="Path" fill="#016D38" points="32.8 21 36 21 36 16 28 16 28 19.3333333 32.8 19.3333333"></polygon>
                        <polygon id="Path" fill="#016D38" points="29.6 36 32.8 36 32.8 31.2 36 31.2 36 28 28 28 28 31.2 29.6 31.2"></polygon>
                        <rect id="Rectangle" fill="#016D38" x="28" y="40" width="12" height="4"></rect>
                        <polygon id="Path" fill="#016D38" points="40.6 29.4285714 55 29.4285714 55 26 37 26 37 38 40.6 38"></polygon>
                        <polygon id="Path" fill="#016D38" points="37 50 33.6666667 50 33.6666667 51.6666667 27 51.6666667 27 55 37 55"></polygon>
                        <polygon id="Path" fill="#016D38" points="54 41 50.5714286 41 50.5714286 48 45.4285714 48 45.4285714 44.5 48.8571429 44.5 48.8571429 41 42 41 42 51.5 42 55 45.4285714 55 45.4285714 51.5 54 51.5"></polygon>
                        <polygon id="Path" fill="#016D38" points="12 0 0 0 0 12 3.42857143 12 3.42857143 3.42857143 12 3.42857143"></polygon>
                        <polygon id="Path" fill="#016D38" points="50 0 50 3.42857143 58.5714286 3.42857143 58.5714286 12 62 12 62 0"></polygon>
                        <polygon id="Path" fill="url(#linearGradient-2)" points="0 50 0 62 12 62 12 58.5714286 3.42857143 58.5714286 3.42857143 50"></polygon>
                        <polygon id="Path" fill="#016D38" points="58.5714286 58.5714286 50 58.5714286 50 62 62 62 62 50 58.5714286 50"></polygon>
                    </g>
                </g>
            </g>
        </g>
    </g>
</svg>