<?xml version="1.0" encoding="UTF-8"?>
<svg width="230px" height="168px" viewBox="0 0 230 168" version="1.1" xmlns="http://www.w3.org/2000/svg" xmlns:xlink="http://www.w3.org/1999/xlink">
    <title>Group 10</title>
    <defs>
        <linearGradient x1="50%" y1="23.6398866%" x2="49.9978653%" y2="89.0729254%" id="linearGradient-1">
            <stop stop-color="#10B457" offset="0%"></stop>
            <stop stop-color="#4ED64D" offset="25.8547966%"></stop>
            <stop stop-color="#F9DC02" offset="100%"></stop>
        </linearGradient>
    </defs>
    <g id="Menu-1" stroke="none" stroke-width="1" fill="none" fill-rule="evenodd">
        <g id="1" transform="translate(-65.000000, -128.000000)">
            <g id="Group-10" transform="translate(65.000000, 128.500000)">
                <path d="M1.0944518,63.9178307 C-15.5322751,188.181346 162.236244,176.306225 198.078666,149.530964 C233.921088,122.755702 255.686875,47.1894874 173.028948,50.9996245 C129.231826,53.0184634 108.924537,14.6700409 77.5921341,3.20226131 C49.7911668,-6.97299921 8.91134246,5.49657222 1.0944518,63.9178307 Z" id="Path-3" fill="url(#linearGradient-1)"></path>
                <g id="Group-5-Copy-3" transform="translate(50.000000, 12.000000)">
                    <g id="phone" transform="translate(0.000000, 0.903974)">
                        <path d="M13.7482521,46.9523176 L3.10857219,38.4399029 C0.328626076,36.2159336 -0.0948094255,32.1925529 2.16274616,29.4538992 C4.42001408,26.7152456 8.50363526,26.2977731 11.2832937,28.5220258 L13.7479645,30.4940378 L26.375375,41.3712798 L20.9000548,52.7206937 L13.7482521,46.9523176 Z" id="Path" fill="#FED2A4" fill-rule="nonzero"></path>
                        <g id="Group" transform="translate(2.178295, 0.000000)">
                            <path d="M11.686212,107.83442 C11.686212,112.999619 15.8870236,117.186969 21.0688271,117.186969 L70.6016063,117.186969 C74.8456928,117.186969 78.2864721,113.757501 78.2864721,109.526729 L78.2864721,9.35254959 C78.2864721,4.18735062 74.0856605,-6.08942195e-15 68.9035705,-6.08942195e-15 L21.0688271,-6.08942195e-15 C15.886737,-6.08942195e-15 11.686212,4.18735062 11.686212,9.35254959 L11.686212,107.83442 Z" id="Path" fill="#FFDC5D"></path>
                            <path d="M12.8918891,43.7475013 C12.4863666,43.7475013 12.0845698,43.7706405 11.6859254,43.8097773 L11.6859254,103.500806 C13.0655616,104.025582 14.5380524,104.304396 16.0283117,104.304396 C19.7195693,104.304396 23.1703792,102.667221 25.4966167,99.8116638 L25.8625899,99.362305 C27.9154221,96.8426957 28.860877,93.6766153 28.5249955,90.4479731 C28.3771159,89.0279076 27.9890753,87.6709752 27.3858069,86.4217404 C27.7231213,86.0935056 28.0443868,85.7449882 28.3458777,85.3750456 L28.5502152,85.124513 C31.578594,81.4070895 32.0336963,76.4298614 30.1427865,72.350494 C30.5463029,71.9734096 30.9297581,71.5703293 31.2845544,71.1352539 L31.4530683,70.9281432 C33.5059005,68.4082482 34.4513554,65.2424535 34.1154738,62.0138113 C33.7795923,58.7848835 32.2022102,55.8799054 29.6742146,53.833937 L20.5730293,46.4667938 C18.4072813,44.7133515 15.6792471,43.7475013 12.8918891,43.7475013 L12.8918891,43.7475013 Z" id="Path" fill="#F0C527" fill-rule="nonzero"></path>
                            <path d="M78.2861856,109.526729 L78.2861856,53.0534866 L70.123577,44.4208254 C68.4295534,42.6293889 66.0416995,41.6021197 63.5724545,41.6021197 C60.969946,41.6021197 58.4966888,42.7233744 56.7863296,44.6782141 L56.2541351,45.2866911 C50.6639433,51.6765573 50.4020016,61.1670855 55.6310921,67.8531915 L65.1707576,80.0507284 L54.8756453,98.0542221 C51.7208811,103.571366 50.6891631,110.035507 51.9707861,116.255971 L52.1625137,117.186969 L70.6013197,117.186969 C74.8456928,117.186969 78.2861856,113.757501 78.2861856,109.526729 Z" id="Path" fill="#F0C527" fill-rule="nonzero"></path>
                            <path d="M69.6885359,9.35254959 C69.6885359,8.9203309 69.3371786,8.56981383 68.9035705,8.56981383 L58.4181636,8.56981383 C57.8266453,8.56981383 57.3030484,8.95204027 57.1242173,9.51395313 L56.8872087,10.2581234 C56.4576128,11.6076284 55.2006365,12.5246291 53.7803047,12.5246291 L37.1676395,12.5246291 C35.7473078,12.5246291 34.4903314,11.6079141 34.0607355,10.2581234 L33.8240135,9.51395313 C33.6451824,8.9517546 33.1215855,8.56981383 32.5300673,8.56981383 L21.0688271,8.56981383 C20.6352189,8.56981383 20.2838617,8.92004523 20.2838617,9.35226392 L20.2838617,107.834134 C20.2838617,108.266353 20.6352189,108.616584 21.0688271,108.616584 L69.6885359,108.616584 L69.6885359,9.35254959 Z" id="Path" fill="#F9F7F8" fill-rule="nonzero"></path>
                            <path d="M51.5497878,108.617155 L69.6888225,108.617155 L69.6888225,43.9948915 C68.0334883,42.4688424 65.8379352,41.6021197 63.5727411,41.6021197 C60.9702326,41.6021197 58.4969753,42.7233744 56.7866162,44.6782141 L56.2544217,45.2866911 C50.6642299,51.6765573 50.4022882,61.1670855 55.6313787,67.8531915 L65.1710442,80.0507284 L54.8759319,98.0542221 C53.0056565,101.324858 51.887962,104.929156 51.5497878,108.617155 L51.5497878,108.617155 Z" id="Path" fill="#EFEDEF" fill-rule="nonzero"></path>
                            <path d="M20.2838617,46.2422572 L20.2838617,103.541085 C22.2985776,102.795487 24.1012181,101.524827 25.4969032,99.8113782 L25.8628765,99.3620193 C27.9157087,96.84241 28.8611636,93.6763296 28.525282,90.4476875 C28.3774025,89.027622 27.9893619,87.6706895 27.3860935,86.4214547 C27.7234079,86.0932199 28.0446734,85.7447025 28.3461643,85.3747599 L28.5505018,85.1242273 C31.5788806,81.4068038 32.0339829,76.4295757 30.1430731,72.3502083 C30.5465895,71.973124 30.9300446,71.5700436 31.284841,71.1349682 L31.4533549,70.9278575 C33.5061871,68.4079626 34.4516419,65.2421678 34.1157604,62.0135257 C33.7798789,58.7845978 32.2024968,55.8796198 29.6745012,53.8336514 L20.5733159,46.4665082 C20.4784551,46.3896629 20.3810151,46.3162457 20.2838617,46.2422572 L20.2838617,46.2422572 Z" id="Path" fill="#EFEDEF" fill-rule="nonzero"></path>
                            <g transform="translate(0.000000, 47.135547)" fill="#FED2A4" fill-rule="nonzero" id="Path">
                                <path d="M126.518427,92.3153978 L101.715067,63.2313368 C100.917492,62.2960533 100.479585,61.1085232 100.479585,59.8812849 L100.479585,48.8507098 C100.479585,41.7009615 97.7395143,34.8211713 92.8199391,29.6179782 L65.9531437,1.20438465 C64.6270995,-0.197969298 62.3770946,-0.154547461 61.106362,1.29779873 L60.5741675,1.9062758 C56.7762991,6.2470312 56.5994741,12.662322 60.1517363,17.2047604 L70.1106805,29.9384999 C71.2851194,31.440267 71.4341454,33.4999476 70.4884039,35.1542625 L59.8556906,53.748236 C57.3916042,58.0572821 56.5848581,63.1127838 57.5856245,67.9714588 L58.3777546,71.8165768 C60.0898332,80.1270023 66.7776583,86.5171542 75.1795681,87.8709442 L78.9777232,92.8101782 C79.5107775,93.5034993 80.3372982,93.9100077 81.2133987,93.9100077 L125.778456,93.9100077 C126.606123,93.9100077 127.054347,92.9438718 126.518427,92.3153978 L126.518427,92.3153978 Z"></path>
                                <path d="M17.7487014,21.3372624 L8.64722944,13.9701192 C5.8776399,11.7284668 5.45578189,7.67309575 7.70492704,4.9126667 L7.87344097,4.70555597 C10.1222995,1.94484125 14.1907074,1.52433503 16.9600103,3.76627306 L26.0614822,11.1334163 C28.8310718,13.3750686 29.2529298,17.4304397 27.0037846,20.1908688 L26.8352707,20.3979795 C24.5864121,23.1584085 20.5180043,23.5789148 17.7487014,21.3372624 Z"></path>
                                <path d="M14.8120308,35.5750544 L5.63289347,28.1447781 C2.86330392,25.9031257 2.44144591,21.8477547 4.69059107,19.0873256 L4.89292242,18.8387927 C7.14178098,16.078078 11.2101888,15.6575718 13.9794918,17.8995098 L23.1586291,25.3297861 C25.9282187,27.5714384 26.3500767,31.6268095 24.1009315,34.3872386 L23.8986002,34.6357715 C21.6497416,37.3962005 17.5816204,37.8167067 14.8120308,35.5750544 L14.8120308,35.5750544 Z"></path>
                                <path d="M11.9601904,50.0142437 L2.40332967,42.2785862 C-0.366259875,40.0369338 -0.788117885,35.9815628 1.46102727,33.2211337 L1.82757373,32.7712035 C4.07643229,30.0104888 8.14484011,29.5899825 10.9141431,31.8319206 L20.4710038,39.5675781 C23.2405934,41.8092304 23.6624514,45.8646015 21.4133062,48.6250305 L21.0467598,49.0749608 C18.7979012,51.8353898 14.72978,52.255896 11.9601904,50.0142437 Z"></path>
                            </g>
                            <path d="M34.2120541,81.7413234 C32.6770871,81.7413234 31.4330072,82.9817024 31.4330072,84.5114652 L31.4330072,93.6789006 C31.4330072,95.2089491 32.6773736,96.4490425 34.2120541,96.4490425 L57.7521323,96.4490425 C58.8947599,96.4490425 59.8213,95.5257571 59.8213,94.3865052 L59.8213,83.803575 C59.8213,82.6646088 58.8950465,81.7410377 57.7521323,81.7410377 L34.2120541,81.7410377 L34.2120541,81.7413234 Z" id="Path" fill="#FFDC5D"></path>
                        </g>
                    </g>
                    <g id="Group-3" transform="translate(30.364964, 16.056291)" fill-rule="nonzero">
                        <g id="Atoms-/-Brand-/-logo-header-desk-Copy-4" transform="translate(0.285537, 17.345417)" fill="#016D38">
                            <g id="logo-BOLIVAR" transform="translate(0.360407, 0.000000)">
                                <g id="Group" transform="translate(0.000000, 3.370037)">
                                    <path d="M32.1722655,6.19923171 C31.8984479,6.15946988 31.5724746,5.82812124 31.1682676,5.2316937 C30.9335668,4.84732929 30.698866,4.44971093 30.4641652,4.05209257 C31.1943455,3.91955311 31.5463967,3.49542686 31.5463967,2.84598354 C31.5463967,2.44836518 31.3638516,2.13027049 31.0248394,1.94471525 C30.7510217,1.78566791 30.3989705,1.70614424 29.9817246,1.70614424 C29.8122185,1.70614424 29.5644788,1.71939818 29.2385054,1.73265213 C28.4952862,1.75916002 27.8954952,1.73265213 27.6738333,1.70614424 L27.6216776,1.70614424 L27.6216776,1.85193764 C27.6216776,1.85193764 28.3648968,1.97122314 28.3648968,2.22304811 C28.3779358,2.26280994 28.3779358,2.50138096 28.3779358,2.81947565 L28.3779358,5.44375683 C28.3779358,5.68232784 28.3518579,5.84137519 28.32578,5.92089886 C28.2736243,6.09320015 27.7259891,6.2257396 27.7259891,6.2257396 L27.6999112,6.39804089 L27.7520669,6.39804089 C28.1171571,6.371533 28.4822472,6.35827906 28.8342985,6.35827906 C29.1863497,6.35827906 29.525362,6.371533 29.8513353,6.39804089 L29.903491,6.39804089 L29.903491,6.23899355 C29.903491,6.23899355 29.3688947,6.06669226 29.2254665,5.9606607 C29.1472329,5.90764491 29.1341939,5.77510546 29.1341939,5.57629628 C29.1341939,5.53653444 29.1341939,5.41724894 29.1341939,5.27145554 C29.1341939,5.12566214 29.1472329,4.99312269 29.1472329,4.88709112 L29.1472329,4.15812413 L29.6166345,4.15812413 C30.1773087,4.91359901 30.5815156,5.60280417 31.0248394,6.35827906 L31.0378783,6.38478695 C31.0378783,6.38478695 31.4290463,6.35827906 31.6115914,6.35827906 C31.7941365,6.35827906 32.0027594,6.371533 32.1592266,6.38478695 L32.2113823,6.38478695 L32.2113823,6.19923171 L32.1722655,6.19923171 Z M29.6035956,3.74725182 L29.1472329,3.74725182 L29.1472329,2.11701654 C29.1472329,2.11701654 29.7861406,2.1037626 29.7861406,2.1037626 C30.4380873,2.11701654 30.7379828,2.36884151 30.7510217,2.92550721 C30.7510217,3.25685584 30.6336713,3.46891897 30.4120095,3.60145842 C30.2425033,3.69423604 29.9686857,3.74725182 29.6035956,3.74725182 Z" id="Shape"></path>
                                    <path d="M3.4983629,4.22439385 C3.3032869,4.0918544 3.09520584,4.01233073 2.82209944,3.95931495 C3.01717544,3.90629917 3.17323624,3.82677549 3.35530717,3.72074393 C3.6544237,3.52193475 3.8104845,3.19058612 3.8104845,2.92550721 C3.8104845,2.5146349 3.64141864,2.18328627 3.31629197,1.97122314 C3.04318557,1.78566791 2.69204878,1.70614424 2.26288158,1.70614424 C2.26288158,1.70614424 1.88573465,1.71939818 1.15745092,1.73265213 C1.02740026,1.73265213 0.910354659,1.73265213 0.79330906,1.73265213 C0.351136797,1.73265213 0,1.70614424 0,1.70614424 L0,1.86519158 C0,1.86519158 0.689268527,1.9579692 0.741288794,2.28931783 C0.75429386,2.32907967 0.767298927,5.72208968 0.71527866,5.84137519 C0.585227995,6.13296199 0,6.2257396 0,6.2257396 L0,6.39804089 C0,6.39804089 0.429167196,6.35827906 0.910354659,6.35827906 C1.01439519,6.35827906 1.13144079,6.35827906 1.24848639,6.35827906 C2.05480052,6.371533 2.45795758,6.38478695 2.45795758,6.38478695 C2.87411971,6.38478695 3.22525651,6.29200933 3.51136797,6.0799462 C3.83649463,5.85462913 4.0055605,5.5232805 4.0055605,5.11240819 C4.0055605,4.74129772 3.83649463,4.43645698 3.4983629,4.22439385 Z M1.44356239,2.84598354 C1.44356239,2.62066647 1.44356239,2.40860334 1.45656745,2.11701654 C1.59962319,2.1037626 1.79469918,2.1037626 2.00278025,2.1037626 C2.69204878,2.11701654 2.99116531,2.32907967 3.00417037,2.92550721 C3.00417037,3.48217292 2.67904371,3.70748999 1.92474985,3.72074393 L1.44356239,3.72074393 L1.44356239,2.84598354 Z M1.95075998,5.97391464 C1.93775492,5.97391464 1.93775492,5.97391464 1.95075998,5.97391464 C1.93775492,5.97391464 1.93775492,5.97391464 1.93775492,5.97391464 C1.93775492,5.97391464 1.93775492,5.97391464 1.95075998,5.97391464 L1.95075998,5.97391464 C1.92474985,5.97391464 1.76868905,5.9606607 1.46957252,5.9606607 C1.45656745,5.8148673 1.45656745,5.69558179 1.45656745,5.56304234 L1.45656745,4.21113991 L1.89873972,4.21113991 C2.79608931,4.21113991 3.19924637,4.5292346 3.21225144,5.15217003 C3.19924637,5.76185152 2.80909438,5.97391464 1.95075998,5.97391464 Z" id="Shape"></path>
                                    <path d="M7.59582145,1.62083703 C6.8863818,1.62083703 6.30831986,1.84666699 5.88791118,2.31161102 C5.4675025,2.77655506 5.25729815,3.36105614 5.25729815,4.09168248 C5.25729815,4.76917237 5.45436472,5.34038933 5.86163563,5.79204925 C6.28204432,6.25699328 6.82069294,6.49610736 7.47758151,6.48282325 L7.47758151,6.48282325 C8.18702116,6.48282325 8.75194532,6.21714094 9.17235401,5.69906044 C9.56648715,5.22083229 9.76355372,4.60976298 9.76355372,3.87913664 L9.76355372,3.87913664 C9.76355372,3.21493087 9.56648715,2.67028214 9.18549178,2.24519045 C8.77822087,1.84666699 8.23957224,1.62083703 7.59582145,1.62083703 Z M8.89646081,4.23780775 C8.89646081,4.75588825 8.79135864,5.16769583 8.60742984,5.49979871 C8.37094996,5.88503806 8.0293679,6.08429979 7.55640813,6.08429979 C7.03089728,6.08429979 6.64990191,5.83190159 6.40028426,5.28725286 C6.21635546,4.8887294 6.12439106,4.38393302 6.12439106,3.77286371 C6.12439106,3.29463556 6.242631,2.8961121 6.46597312,2.57729333 C6.72872854,2.21862222 7.0703106,2.04592872 7.51699482,2.04592872 C8.43663881,2.04592872 8.88332304,2.74998683 8.89646081,4.23780775 L8.89646081,4.23780775 Z" id="Shape"></path>
                                    <path d="M13.4777845,5.8929642 L12.171107,5.8929642 L12.171107,2.91567 C12.171107,2.55679972 12.171107,2.37071883 12.1841738,2.27767839 C12.2103073,1.97197408 12.9812471,1.85235065 12.9812471,1.85235065 L12.9812471,1.70614424 C12.9812471,1.70614424 12.1841738,1.75931021 11.8052373,1.75931021 C11.4393676,1.75931021 10.6814947,1.70614424 10.6814947,1.70614424 L10.6814947,1.85235065 C10.6814947,1.85235065 11.4263008,1.98526557 11.4263008,2.2643869 C11.4393676,2.31755287 11.4393676,2.53021674 11.4393676,2.84921254 L11.4393676,5.37459601 C11.4393676,5.62713436 11.4524344,5.74675779 11.4001673,5.85308972 C11.2564328,6.13221105 10.6814947,6.21196001 10.6814947,6.21196001 L10.6814947,6.39804089 L10.7337618,6.39804089 C11.2172324,6.37145791 11.7529702,6.35816642 12.3409751,6.35816642 C12.92898,6.35816642 13.569252,6.37145791 14.2487243,6.39804089 L14.2879246,6.39804089 L14.3532585,5.14864065 L14.1572568,5.14864065 C14.1572568,5.16193214 14.0657894,5.91954718 13.4777845,5.8929642 Z" id="Path"></path>
                                    <g transform="translate(15.187750, 0.000000)" id="Path">
                                        <path d="M2.24400433,0.442046462 L2.24400433,0.442046462 C2.24400433,0.227720904 2.06135281,0.0803720839 1.89174783,0.0803720839 C1.76128247,0.0803720839 1.65691017,0.160744168 1.55253788,0.254511599 L0.587094156,1.40651147 L0.939350649,1.40651147 L2.03525974,0.763534797 C2.17877164,0.669767366 2.24400433,0.562604588 2.24400433,0.442046462 L2.24400433,0.442046462 Z"></path>
                                        <path d="M1.1350487,1.7547905 C0.874117965,1.7547905 0.521861472,1.74139515 0.065232684,1.70120911 L0.0130465368,1.70120911 L0.0130465368,1.86195328 C0.0130465368,1.86195328 0.639280303,2.0093021 0.717559524,2.33079043 C0.756699134,2.4915346 0.743652597,2.7728369 0.743652597,3.06753454 C0.743652597,3.06753454 0.769745671,4.16595302 0.756699134,4.74195295 C0.743652597,5.53227844 0.717559524,5.89395282 0.521861472,6.05469699 C0.352256493,6.20204581 -4.9779285e-15,6.24223185 -4.9779285e-15,6.24223185 L-4.9779285e-15,6.42976671 L0.0521861472,6.42976671 C0.469675325,6.38958067 0.821931818,6.37618533 1.12200216,6.37618533 C1.36988636,6.37618533 1.72214286,6.38958067 2.15267857,6.42976671 L2.20486472,6.42976671 L2.20486472,6.24223185 C2.20486472,6.24223185 1.86565476,6.17525512 1.68300325,6.04130164 C1.55253788,5.93413886 1.46121212,5.53227844 1.46121212,4.74195295 C1.46121212,4.63479017 1.47425866,3.12111593 1.47425866,3.06753454 C1.48730519,2.7728369 1.47425866,2.4915346 1.50035173,2.33079043 C1.53949134,1.95572071 2.20486472,1.86195328 2.20486472,1.86195328 L2.20486472,1.70120911 L2.15267857,1.70120911 C1.70909632,1.74139515 1.36988636,1.7547905 1.1350487,1.7547905 Z"></path>
                                    </g>
                                    <path d="M22.6589479,1.87865438 L22.6981762,1.86538437 L22.6981762,1.70614424 L22.6458718,1.71941425 C22.4366545,1.74595427 22.2143611,1.75922428 21.9789917,1.75922428 C21.7436222,1.75922428 21.4951766,1.74595427 21.2205789,1.71941425 L21.1682746,1.71941425 L21.1682746,1.86538437 L21.1944267,1.87865438 C21.3774919,1.94500443 21.6520896,2.0246245 21.6390135,2.11751457 C21.560557,2.54215491 20.8021443,4.49284649 20.6060031,4.97056688 C20.4621662,4.61227659 19.4945361,2.19713464 19.4945361,2.14405459 C19.4945361,2.14405459 19.4422318,2.01135448 20.0175794,1.87865438 L20.0568076,1.86538437 L20.0568076,1.70614424 C20.0568076,1.70614424 19.4160796,1.74595427 19.1022536,1.75922428 C18.3307648,1.75922428 18.1084714,1.70614424 18.1084714,1.70614424 L18.1084714,1.85211436 C18.1084714,1.85211436 18.5661343,1.97154445 18.6968951,2.2767547 C19.1676341,3.36489558 19.7168295,4.78478673 20.3052532,6.45680808 L20.3183293,6.4833481 L20.5406226,6.4833481 L20.5536987,6.45680808 C20.9852094,5.24923711 21.9005352,2.83409515 22.1751329,2.26348469 C22.2666655,2.06443453 22.4235784,1.93173442 22.6589479,1.87865438 Z" id="Path"></path>
                                    <path d="M25.0168557,1.56217371 L25.0037023,1.53552981 L24.6748651,1.53552981 L24.6617116,1.56217371 C23.9382697,3.30734892 23.701507,3.8269049 23.083293,5.27899725 C22.9912186,5.49214842 22.9386047,5.6520118 22.8465303,5.83851907 C22.7281489,6.07831414 22.2809303,6.21153362 22.2809303,6.21153362 L22.2809303,6.39804089 L22.3335442,6.39804089 C22.596614,6.371397 22.8596837,6.35807505 23.1227535,6.35807505 C23.3858233,6.35807505 23.6620465,6.371397 23.9382697,6.39804089 L23.9908837,6.39804089 L23.9908837,6.21153362 L23.3989767,5.9850605 C23.5962791,5.46550452 23.7278139,5.13245582 23.8461953,4.85269491 L24.6222511,4.85269491 L25.4903813,4.86601685 C25.6087627,5.14577777 25.7271441,5.51879231 25.8718325,5.99838245 C25.6745301,6.07831414 25.4509208,6.14492388 25.2273116,6.19821167 L25.1878511,6.21153362 L25.1878511,6.39804089 L25.240465,6.39804089 C25.5561488,6.371397 25.8849859,6.35807505 26.2401301,6.35807505 C26.5821208,6.35807505 26.9504185,6.371397 27.3187161,6.39804089 L27.3713301,6.39804089 L27.3713301,6.21153362 C27.3713301,6.21153362 26.963572,6.10495803 26.8320371,5.9584166 C26.7268092,5.85184102 26.5821208,5.41221673 26.5821208,5.41221673 C25.5956092,3.06755385 25.2536185,2.17498333 25.0168557,1.56217371 Z M23.9645767,4.5196462 L24.6617116,2.73450515 L25.3325395,4.5196462 L23.9645767,4.5196462 Z" id="Shape"></path>
                                </g>
                                <path d="M11.270783,2.50145474 C11.2576369,2.50145474 10.4951629,2.48788314 10.4557246,2.48788314 C10.4425785,2.24359431 10.4425785,2.12144989 10.4425785,2.05359188 L10.4425785,1.63287222 L10.7843772,1.63287222 C10.8369616,1.63287222 10.889546,1.63287222 10.9552766,1.63287222 C11.0210071,1.63287222 11.1261759,1.63287222 11.139322,1.63287222 C11.2181986,1.63287222 11.3233674,1.70073023 11.3759519,1.95859067 L11.3759519,1.97216227 L11.4416824,1.97216227 L11.4416824,1.94501906 C11.4416824,1.79573144 11.4416824,1.64644382 11.4416824,1.5107278 C11.4416824,1.37501178 11.4416824,1.22572416 11.4416824,1.10357975 L11.4416824,1.07643654 L11.3759519,1.07643654 L11.3759519,1.09000814 C11.3365135,1.30715377 11.2313447,1.38858339 11.1524681,1.38858339 C11.139322,1.38858339 11.0210071,1.38858339 10.9552766,1.38858339 C10.889546,1.38858339 10.8369616,1.38858339 10.7843772,1.38858339 L10.4425785,1.38858339 L10.4425785,1.00857853 C10.4425785,0.940720524 10.4425785,0.832147709 10.4557246,0.642145282 L10.9289843,0.642145282 C10.9684227,0.642145282 11.0210071,0.642145282 11.0867376,0.642145282 C11.139322,0.642145282 11.2181986,0.642145282 11.2313447,0.642145282 C11.3102213,0.642145282 11.4548285,0.669288486 11.4942668,0.967863727 L11.4942668,0.981435329 L11.5599973,0.981435329 L11.5599973,0.954292126 C11.5599973,0.900005718 11.5599973,0.859290912 11.5599973,0.805004505 C11.5599973,0.682860088 11.5599973,0.547144069 11.5731434,0.41142805 L11.5731434,0.384284846 L11.5468512,0.384284846 C11.2444908,0.397856448 10.9289843,0.41142805 10.6134779,0.41142805 C10.2979714,0.41142805 9.99561102,0.397856448 9.70639674,0.384284846 L9.68010454,0.384284846 L9.68010454,0.465714457 C9.68010454,0.465714457 10.0481954,0.520000865 10.0613415,0.655716884 C10.0613415,0.682860088 10.0613415,0.805004505 10.0613415,0.967863727 C10.0613415,0.967863727 10.0876337,1.68715863 10.0613415,2.13502149 C10.0481954,2.28430911 10.0744876,2.47431154 10.0350493,2.52859795 C9.95617271,2.66431396 9.68010454,2.69145717 9.68010454,2.69145717 L9.68010454,2.77288678 L9.70639674,2.77288678 C10.0613415,2.74574358 10.4294324,2.74574358 10.7186467,2.74574358 C11.0210071,2.74574358 11.2970752,2.75931518 11.5599973,2.77288678 L11.5862895,2.77288678 L11.5862895,2.74574358 C11.5862895,2.55574115 11.5862895,2.35216712 11.5994356,2.14859309 L11.5994356,2.12144989 L11.5337051,2.12144989 C11.5337051,2.12144989 11.4811207,2.50145474 11.270783,2.50145474 Z M13.9678487,1.65733093 C13.8115624,1.65733093 13.6031806,1.64420674 13.4468943,1.64420674 L13.4208466,1.64420674 L13.4208466,1.70982768 C13.4208466,1.70982768 13.7855146,1.76232442 13.7855146,1.93293885 L13.7855146,2.35291281 L13.7855146,2.47103049 C13.6943476,2.51040305 13.6031806,2.52352724 13.4859659,2.53665142 C13.1994409,2.54977561 12.9780353,2.4579063 12.8608206,2.30041607 C12.7045343,2.10355327 12.639415,1.85419373 12.639415,1.59171 C12.6263911,1.32922627 12.7045343,1.09299091 12.8477967,0.909252304 C12.9910592,0.725513694 13.2254887,0.646768575 13.5250374,0.633644389 C13.7203953,0.633644389 13.7985385,0.659892761 13.8636578,0.712389507 C13.9287771,0.778010439 14.0069203,1.04049417 14.0069203,1.04049417 L14.0720396,1.04049417 L14.0720396,1.0142458 C14.0720396,0.909252304 14.0590157,0.817382999 14.0590157,0.725513694 C14.0590157,0.633644389 14.0590157,0.541775083 14.0720396,0.449905778 L14.0720396,0.436781592 L14.0590157,0.436781592 C13.9027294,0.410533219 13.7334192,0.384284846 13.564109,0.384284846 C13.1994409,0.384284846 12.8477967,0.515526711 12.6133672,0.712389507 C12.3398662,0.96174905 12.1835799,1.25048115 12.1835799,1.61795837 C12.1835799,1.98543559 12.3138185,2.27416769 12.5742957,2.48415468 C12.8087251,2.68101747 13.1082739,2.77288678 13.472942,2.77288678 C13.7073715,2.77288678 13.9548248,2.73351422 14.1501827,2.66789329 L14.1762304,2.6547691 L14.1762304,2.64164491 C14.1762304,2.54977561 14.1632066,2.28729188 14.1632066,1.91981466 C14.1632066,1.72295186 14.4367076,1.6835793 14.4367076,1.6835793 L14.4367076,1.61795837 L14.4106599,1.61795837 C14.2543736,1.65733093 14.124135,1.65733093 13.9678487,1.65733093 Z M8.98210121,1.72201533 C8.84409596,1.56463527 8.49280986,1.40725521 8.34225868,1.32856519 C8.16661563,1.22364515 8.07879411,1.10561011 8.07879411,0.974460058 C8.07879411,0.869540021 8.14152377,0.685929955 8.34225868,0.633469936 C8.37989648,0.620354931 8.63081511,0.554779907 8.76882037,0.67281495 C8.88173375,0.764619983 8.88173375,1.02692008 8.88173375,1.02692008 L8.94446341,1.02692008 L8.96955528,0.502319889 C8.96955528,0.502319889 8.7437285,0.384284846 8.45517207,0.384284846 C8.25443716,0.384284846 8.07879411,0.436744865 7.94078886,0.541664903 C7.77769174,0.659699945 7.62714056,0.856425016 7.72750802,1.19741514 C7.80278361,1.45971523 8.25443716,1.69578532 8.40498834,1.77447535 C8.7813663,1.97120042 8.69354477,2.27284553 8.69354477,2.27284553 C8.65590698,2.40399557 8.54299359,2.4826856 8.40498834,2.52203062 C8.31716682,2.54826062 7.95333479,2.54826062 7.90315106,2.45645559 C7.86551327,2.39088057 7.82787547,2.03677544 7.82787547,2.03677544 L7.74005395,2.06300545 L7.67732429,2.66629567 C7.67732429,2.66629567 7.8780592,2.7581007 8.1917075,2.7712157 C8.4300802,2.78433071 8.63081511,2.71875569 8.79391223,2.62695065 C8.99464714,2.50891561 9.10756053,2.32530554 9.0950146,2.08923546 C9.08246866,1.84005037 8.98210121,1.72201533 8.98210121,1.72201533 Z M21.5342797,0.384284846 C21.1785227,0.384284846 20.8886466,0.501757072 20.6778277,0.723649055 C20.4670087,0.945541038 20.3615992,1.24574784 20.3615992,1.59816452 C20.3615992,1.92447626 20.4670087,2.21163059 20.6646515,2.43352257 C20.8754704,2.65541455 21.1389942,2.77288678 21.481575,2.77288678 L21.481575,2.77288678 C21.837332,2.77288678 22.1140319,2.64236208 22.3248509,2.39436516 C22.5224937,2.15942071 22.614727,1.85921391 22.614727,1.50679723 C22.614727,1.18048549 22.5224937,0.919436099 22.3248509,0.710596586 C22.1272081,0.488704603 21.8636844,0.384284846 21.5342797,0.384284846 Z M22.1974811,1.67287273 C22.1974811,1.92879437 22.1470967,2.14430732 22.058924,2.30594204 C21.9455591,2.50798544 21.7818097,2.60227236 21.5550799,2.60227236 C21.3031578,2.60227236 21.1268124,2.46757676 21.0008514,2.19818556 C20.9126787,1.99614217 20.8622943,1.74022053 20.8622943,1.43042066 C20.8622943,1.18796858 20.9126787,0.985925183 21.0260436,0.824290465 C21.1520046,0.649186188 21.3157539,0.55489927 21.5298877,0.55489927 C21.9833474,0.56836883 22.1974811,0.918577384 22.1974811,1.67287273 L22.1974811,1.67287273 Z M16.8225758,0.410678238 C16.6721079,0.410678238 16.5216399,0.397481542 16.383711,0.384284846 L16.358633,0.384284846 L16.358633,0.463465021 C16.358633,0.463465021 16.6344909,0.503055108 16.6721079,0.635022066 C16.6971859,0.780185719 16.7097249,0.978136155 16.7097249,1.21567668 C16.7097249,1.29485685 16.7097249,2.12624869 16.5843349,2.29780573 C16.4965619,2.41657599 16.358633,2.49575617 16.183087,2.49575617 C15.9448461,2.49575617 15.8069172,2.42977269 15.7191442,2.31100243 C15.4934423,2.02067512 15.6062932,0.80657911 15.6062932,0.71420224 C15.6062932,0.542645195 15.9573851,0.476661716 15.9573851,0.476661716 L15.9573851,0.397481542 L15.9323071,0.397481542 C15.7567612,0.410678238 15.5812153,0.423874933 15.3931303,0.423874933 C15.2175844,0.423874933 15.0420384,0.410678238 14.8790315,0.397481542 L14.8539535,0.397481542 L14.8539535,0.476661716 C14.8539535,0.476661716 15.2301234,0.555841891 15.2301234,0.753792327 C15.2301234,0.819775806 15.1674284,1.47961059 15.1799674,1.75674121 C15.1799674,2.06026521 15.2301234,2.29780573 15.3429743,2.45616608 C15.4809033,2.66731321 15.7943782,2.77288678 16.1203921,2.77288678 C16.4714839,2.77288678 16.7222638,2.64091982 16.8601928,2.3901826 C16.9479658,2.21862556 16.9855828,1.95469164 16.9855828,1.59838086 C16.9855828,1.58518416 16.9855828,1.55879077 16.9855828,1.54559407 C16.9855828,1.28166016 16.9855828,1.07051303 16.9855828,0.925349372 C16.9855828,0.780185719 16.9855828,0.701005544 16.9855828,0.674612153 C16.9981217,0.503055108 17.2739797,0.476661716 17.2739797,0.476661716 L17.2739797,0.397481542 L17.2489017,0.397481542 C17.1109727,0.397481542 16.9605048,0.410678238 16.8225758,0.410678238 Z M18.7350243,1.40797139 L18.5257173,1.40797139 L18.5257173,0.640206482 L18.8088973,0.640206482 L18.8212095,0.640206482 C19.1290138,0.640206482 19.2767599,0.766069581 19.2767599,1.03038209 C19.2767599,1.19400412 19.2275112,1.2946946 19.1167016,1.34503984 C19.0428286,1.38279877 18.9073947,1.40797139 18.7350243,1.40797139 Z M19.4834863,2.17911003 C19.3640022,1.97668613 19.2445182,1.77426224 19.1250341,1.58533328 C19.4967623,1.51785864 19.6693503,1.30193983 19.6693503,0.964566672 C19.6693503,0.762142779 19.5764183,0.600203665 19.4038302,0.505739182 C19.2710702,0.424769625 19.0852061,0.384284846 18.87279,0.384284846 C18.793134,0.384284846 18.6603739,0.384284846 18.5010619,0.397779772 C18.3417498,0.397779772 18.1691617,0.411274698 18.0895057,0.411274698 C17.9567456,0.411274698 17.8239856,0.411274698 17.7177775,0.397779772 L17.6912255,0.397779772 L17.6912255,0.478749329 C17.6912255,0.478749329 18.0364017,0.505739182 18.0762297,0.667678296 C18.0762297,0.694668148 18.0895057,0.789132631 18.0895057,0.951071745 L18.0895057,2.27357451 C18.0895057,2.39502885 18.0762297,2.50298826 18.0629537,2.52997811 C18.0364017,2.63793752 17.7576056,2.6784223 17.7576056,2.6784223 L17.7177775,2.77288678 L17.7443296,2.77288678 C17.9301936,2.75939185 18.1160577,2.74589693 18.2886458,2.74589693 C18.4612339,2.74589693 18.6338219,2.75939185 18.80641,2.77288678 L18.832962,2.77288678 L18.832962,2.70541215 C18.832962,2.70541215 18.5807179,2.63793752 18.5010619,2.55696796 C18.4612339,2.52997811 18.4479578,2.48949333 18.4479578,2.38153392 C18.4479578,2.36803899 18.4479578,2.28706944 18.4479578,2.20609988 C18.4479578,2.12513032 18.4479578,2.07115062 18.4479578,2.01717091 L18.4479578,1.65280791 L18.6869259,1.65280791 C18.9657221,2.03066584 19.1781381,2.39502885 19.4038302,2.77288678 L19.4171062,2.77288678 L19.4303822,2.77288678 C19.5233143,2.75939185 19.6162463,2.75939185 19.7091784,2.75939185 C19.8021104,2.75939185 19.9083184,2.75939185 20.0012505,2.77288678 L20.0278025,2.77288678 L20.0278025,2.6784223 L20.0145265,2.6784223 C19.8552144,2.65143244 19.6826264,2.48949333 19.4834863,2.17911003 Z M24.4668556,1.75674121 L24.4543013,1.7699379 L24.4668556,1.75674121 C24.4543013,1.74354451 24.4543013,1.74354451 24.441747,1.73034781 L24.441747,1.73034781 C24.3789755,1.65116764 24.3036497,1.59838086 24.2408782,1.55879077 C24.1027809,1.47961059 23.9772379,1.42682381 23.8265863,1.34764364 C23.6508261,1.24207007 23.5629459,1.12329981 23.5629459,0.991332851 C23.5629459,0.885759285 23.6006089,0.793382415 23.6759347,0.71420224 C23.688489,0.701005544 23.7010433,0.687808849 23.7135976,0.687808849 C23.7135976,0.687808849 23.7135976,0.687808849 23.7261519,0.687808849 C23.7512605,0.661415457 23.7889234,0.661415457 23.8265863,0.648218761 C23.8642492,0.635022066 23.9144664,0.62182537 23.9897922,0.62182537 C24.0274551,0.62182537 24.0776723,0.62182537 24.1278895,0.635022066 C24.1655524,0.635022066 24.2157696,0.648218761 24.2659868,0.661415457 L24.3915298,1.03092294 L24.4543013,1.03092294 L24.4794099,0.503055108 L24.4668556,0.503055108 C24.3036497,0.423874933 24.1404438,0.384284846 23.9646836,0.384284846 C23.7638148,0.384284846 23.5880546,0.437071629 23.4499572,0.542645195 C23.2867513,0.661415457 23.2114255,0.832972502 23.2114255,1.04411963 C23.2114255,1.11010311 23.2239798,1.17608659 23.2490884,1.22887337 C23.3244142,1.40043042 23.4625115,1.51920068 23.5378373,1.55879077 C23.5503916,1.55879077 23.5629459,1.57198746 23.5629459,1.57198746 L23.5629459,1.57198746 L23.5755003,1.57198746 C23.7010433,1.65116764 23.814032,1.73034781 23.9521293,1.80952799 C24.1278895,1.91510155 24.2157696,2.03387182 24.2157696,2.16583877 C24.2157696,2.20542886 24.2157696,2.25821564 24.2032153,2.29780573 L24.2032153,2.29780573 C24.1404438,2.52214956 23.9019121,2.53534626 23.9019121,2.53534626 C23.8391406,2.54854295 23.7889234,2.54854295 23.7387062,2.54854295 C23.5503916,2.54854295 23.4122943,2.46936278 23.4122943,2.46936278 L23.3495228,2.04706851 L23.274197,2.06026521 L23.2616427,2.06026521 L23.1988712,2.66731321 L23.2114255,2.66731321 C23.3746314,2.73329669 23.5378373,2.77288678 23.7135976,2.77288678 C23.9521293,2.77288678 24.1529981,2.7201 24.316204,2.62772313 C24.5170728,2.50895286 24.6175072,2.32419912 24.6175072,2.0866586 C24.56729,1.96788834 24.5296271,1.84911808 24.4668556,1.75674121 Z" id="Shape"></path>
                            </g>
                        </g>
                        <g id="Group-2" transform="translate(8.280567, 0.000000)">
                            <polygon id="Path-Copy-3" fill="#FFDC5D" points="1.45364187 0.991166658 15.020966 0.991166658 15.020966 14.8674999 1.45364187 14.8674999"></polygon>
                            <path d="M8.72185122,1.21223414 C10.47231,0.586948052 11.629135,1.48674999 11.629135,1.48674999 C11.629135,1.48674999 10.4570886,1.1664815 9.5285844,1.41049559 L8.72185122,1.21223414 L8.72185122,1.21223414 Z" id="Path-Copy-4" fill="#016D38"></path>
                            <path d="M9.20639851,2.08515889 C11.5748946,1.71110389 11.629135,2.47791665 11.629135,2.47791665 C11.629135,2.47791665 11.1409716,2.25348364 10.0380842,2.36570015 L9.20639851,2.08515889 L9.20639851,2.08515889 Z" id="Path-Copy-5" fill="#016D38"></path>
                            <path d="M7.91109726,9.44866496 C8.69872516,8.69749691 9.69440572,8.83834092 9.97676289,9.30782095 C10.3631464,9.93379433 10.1550937,10.6536637 9.6201012,11.1700917 C9.6201012,11.1700917 10.3631464,10.293729 9.82815385,9.5582103 C9.54579668,9.15132761 8.74330787,9.13567827 8.13401082,9.68340498 C7.52471376,10.2154823 6.94513851,11.5613251 8.38664618,11.8899611 C7.13833026,11.9838571 6.87083399,10.4189237 7.91109726,9.44866496 L7.91109726,9.44866496 Z" id="Path-Copy-6" fill="#016D38"></path>
                            <path d="M12.0835661,5.47099632 C17.9521268,2.89033397 17.7481394,10.4973844 7.75275664,17.3454165 C15.9593268,10.1094417 17.4813866,4.57704139 12.0835661,5.47099632 L12.0835661,5.47099632 Z" id="Path-Copy-7" fill="#016D38"></path>
                            <path d="M2.90728374,9.91166658 C-2.14244605,12.0819224 0.920058541,14.3719165 0.920058541,14.3719165 C0.920058541,14.3719165 -0.931055343,12.1717261 2.90728374,9.91166658 L2.90728374,9.91166658 Z" id="Path-Copy-8" fill="#016D38"></path>
                            <path d="M9.14858936,14.3719165 C12.7453823,12.4379328 10.3830818,10.4072499 10.3830818,10.4072499 C10.3830818,10.4072499 11.6175743,12.5668651 8.72185122,14.3719165 L9.14858936,14.3719165 L9.14858936,14.3719165 Z" id="Path-Copy-9" fill="#016D38"></path>
                            <path d="M2.90728374,9.91166658 C2.90728374,9.91166658 3.45404819,8.6966881 3.86021607,6.93816661 C3.86021607,6.93816661 4.07892185,8.63274186 2.90728374,9.91166658 L2.90728374,9.91166658 Z" id="Path-Copy-10" fill="#016D38"></path>
                            <path d="M2.47921898,9.91166658 C2.47921898,9.91166658 -0.787361854,6.73204554 4.33913821,4.47202077 C5.82394767,3.81739291 7.73075562,3.64594276 8.60601173,4.87726659 C8.87171448,5.25133966 8.90297362,7.79191922 6.16779829,9.74021643 C4.97995071,9.35055699 4.8705437,8.68034275 4.8705437,8.68034275 C5.41757877,9.31938423 6.18342786,9.45966163 6.18342786,9.45966163 C8.449716,7.60488269 8.54349344,5.28251241 8.26216112,5.01754399 C7.37127544,4.22263873 5.93335469,4.22263873 4.52669309,4.78374833 C0.0410055336,6.63852727 2.47921898,9.91166658 2.47921898,9.91166658 L2.47921898,9.91166658 Z" id="Path-Copy-11" fill="#016D38"></path>
                            <path d="M4.37715447,14.8674999 L3.87637832,14.8674999 C3.87637832,14.8674999 5.0170351,12.3692965 6.78366206,11.894286 C6.78366206,11.876693 5.18396048,12.6683772 4.37715447,14.8674999 L4.37715447,14.8674999 Z" id="Path-Copy-12" fill="#016D38"></path>
                            <path d="M11.2943628,2.97349998 C11.2943628,2.97349998 10.9454407,3.39112638 11.3127271,4.24308423 C11.6616492,5.07833704 12.5982295,5.94699995 12.5982295,5.94699995 C12.5982295,5.94699995 11.5147346,4.49366007 11.2943628,2.97349998 L11.2943628,2.97349998 Z" id="Path-Copy-13" fill="#016D38"></path>
                            <path d="M4.8454729,2.13113512 C4.8454729,2.13113512 4.92012304,0.693981382 6.69679644,0.214930134 C9.14532112,-0.462349216 10.1754931,0.677462373 10.1754931,0.677462373 C10.1754931,0.677462373 8.77207041,0.181892117 6.92074687,0.578348322 C6.38326584,0.71050039 5.60690436,1.13999461 5.32323381,1.99898306 C5.29337376,2.0815781 6.03987518,2.39543926 6.03987518,2.39543926 C6.03987518,2.39543926 6.68186641,5.55056989 8.42867975,6.69038148 C9.17518118,6.36000131 9.69773218,5.38537981 9.69773218,5.38537981 C9.69773218,5.3688608 9.59322198,6.45911536 8.45853981,6.93816661 C6.33847575,5.71575998 5.65169444,2.62670538 5.65169444,2.62670538 C5.65169444,2.62670538 4.90519301,2.34588224 4.8454729,2.13113512 L4.8454729,2.13113512 Z" id="Path-Copy-14" fill="#016D38"></path>
                            <path d="M5.81456748,5.94699995 C2.26024983,7.09438309 3.66606204,8.92049993 3.66606204,8.92049993 C3.66606204,8.92049993 2.88358166,7.48223092 5.81456748,5.94699995 L5.81456748,5.94699995 Z" id="Path-Copy-15" fill="#016D38"></path>
                        </g>
                    </g>
                </g>
            </g>
        </g>
    </g>
</svg>