<?xml version="1.0" encoding="UTF-8"?>
<svg width="33px" height="29px" viewBox="0 0 33 29" version="1.1" xmlns="http://www.w3.org/2000/svg" xmlns:xlink="http://www.w3.org/1999/xlink">
    <title>Group 30</title>
    <g id="Menu-1" stroke="none" stroke-width="1" fill="none" fill-rule="evenodd">
        <g id="Mi-estilo-de-vida" transform="translate(-29.000000, -434.000000)" fill-rule="nonzero">
            <g id="Group" transform="translate(17.000000, 423.000000)">
                <g id="Group-30" transform="translate(12.000000, 11.000000)">
                    <g id="gym" transform="translate(0.741935, 0.838710)">
                        <path d="M31.5312511,21.1183036 C31.7901255,21.1183036 32,20.9057047 32,20.6433283 L32,19.7247259 C32,18.7961174 31.3002516,18.0406533 30.440191,18.0406533 L29.6815677,18.0406533 L29.6815677,17.0673971 C29.6815677,16.3864091 29.1347565,15.8323978 28.462758,15.8323978 L24.6896415,15.8323978 C24.0175805,15.8323978 23.4708318,16.3864724 23.4708318,17.0673971 L23.4708318,19.601929 C20.1002769,19.2035196 15.9047239,19.2028863 12.5284815,19.601929 L12.5284815,17.0673971 C12.5284815,16.3864091 11.9816702,15.8323978 11.3096718,15.8323978 L11.0115474,15.8323978 C13.5812291,14.2468034 16.4550351,12.096685 18.6957176,10.0026769 L20.1670892,12.0522906 C20.5629633,12.6038953 21.3272741,12.7244124 21.8697104,12.3246098 L24.921016,10.0757598 C25.4644523,9.67519724 25.5850145,8.90124072 25.1897029,8.35045929 L24.6247042,7.56339345 L25.2382028,7.11128024 C25.9337637,6.59856017 26.0610759,5.57058682 25.5220146,4.81961911 L22.9776454,1.27509964 C22.4385216,0.524258593 21.4342114,0.330278655 20.7386504,0.842935395 L20.1250893,1.29517527 L19.5601531,0.508172761 C19.164904,-0.0426719985 18.4010932,-0.164709001 17.857532,0.235790223 L14.8062264,2.48464023 C14.2627901,2.88513946 14.1422279,3.65909598 14.5375395,4.20987741 L16.0088486,6.25949109 C13.0509803,7.94679356 9.65842549,10.4464939 7.15980613,12.7815361 L6.07749608,11.2739643 C5.46799746,10.4248983 4.28875012,10.2361748 3.45093951,10.8538961 L1.46931899,12.3143503 C0.630945886,12.9323883 0.445008806,14.1262863 1.05481993,14.9758589 L1.23069453,15.2208829 L0.617258417,15.6729961 C-0.0921774802,16.1957857 -0.194614749,17.2290154 0.333446558,17.9646572 L2.87781581,21.50905 C3.15619018,21.8969466 3.56418926,22.1436171 3.99931327,22.2091637 L3.99931327,24.1076719 C3.99931327,25.0362804 4.69906169,25.7918079 5.55912225,25.7918079 L6.31774554,25.7918079 L6.31774554,26.7650007 C6.31774554,27.4459887 6.8645568,28 7.53655528,28 L11.3096718,28 C11.9817327,28 12.5284815,27.4459254 12.5284815,26.7650007 L12.5284815,24.2307222 C13.860666,24.3877807 15.3582251,24.4865123 16.8964091,24.5178606 C16.8996591,24.5179873 16.9028466,24.5179873 16.9060341,24.5179873 C17.1605335,24.5179873 17.3694081,24.3115313 17.3745955,24.0525114 C17.379783,23.7902617 17.1741585,23.5733563 16.9152841,23.5680999 C15.3643501,23.5364349 13.857666,23.4352968 12.5284815,23.2742485 L12.5284815,20.558086 C15.8445365,20.1553703 20.0859644,20.1470107 23.4708318,20.558086 L23.4708318,23.2742485 C22.1417723,23.4352968 20.6350257,23.5364349 19.0840292,23.5680999 C18.8252173,23.5733563 18.6195302,23.7902617 18.6247177,24.0524481 C18.6299052,24.3115313 18.8386547,24.5179873 19.0932792,24.5179873 C19.0964667,24.5179873 19.0997167,24.5179873 19.1029041,24.5178606 C20.6411507,24.4865123 22.1387098,24.3877807 23.4708318,24.2307222 L23.4708318,26.7650007 C23.4708318,27.4459887 24.017643,28 24.6896415,28 L28.462758,28 C29.134819,28 29.6815677,27.4459254 29.6815677,26.7650007 L29.6815677,25.7918079 L30.440191,25.7918079 C31.3002516,25.7918079 32,25.0362804 32,24.1076719 L32,22.86007 C32,22.5976936 31.7901255,22.3850946 31.5312511,22.3850946 C31.2723766,22.3850946 31.0625021,22.5976936 31.0625021,22.86007 L31.0625021,24.1076719 C31.0625021,24.5055746 30.7775653,24.8417938 30.4402535,24.8417938 L29.6816302,24.8417938 L29.6816302,18.9907307 L30.4402535,18.9907307 C30.7775028,18.9907307 31.0625021,19.3268866 31.0625021,19.7247893 L31.0625021,20.6433916 C31.0624396,20.9057047 31.2723766,21.1183036 31.5312511,21.1183036 Z M21.2900867,1.61119221 C21.5627736,1.4103093 21.9885226,1.51220734 22.2193971,1.83398732 L24.7637664,5.37850679 C24.9947658,5.70022343 24.9594534,6.14201385 24.686704,6.34302342 L24.0732054,6.79513663 C23.6933938,6.26582409 21.0626497,2.60110419 20.6765881,2.06330542 L21.2900867,1.61119221 Z M15.2957252,3.65117972 C15.2061004,3.52622954 15.2344754,3.34390233 15.3577251,3.25302371 L18.4090307,1.00411037 C18.5328429,0.912978429 18.71253,0.942426901 18.8019048,1.06699711 C18.9916544,1.33133673 23.3642695,7.42267408 23.5907065,7.73818438 C23.5908315,7.73831104 23.590894,7.7384377 23.591019,7.73856436 L24.4314546,8.90928363 C24.5211419,9.03423382 24.492767,9.21656103 24.3694547,9.30743965 L21.3180866,11.556353 C21.1942119,11.6475483 21.0160873,11.620063 20.925275,11.4934662 C20.7403379,11.2359029 15.5189122,3.96206693 15.2957252,3.65117972 Z M16.5639099,7.03287764 L18.1407188,9.22941703 C15.7019118,11.5229781 12.2810446,14.0584599 9.29148882,15.7510821 L7.71492988,13.5548593 C10.1471744,11.2673146 13.5701041,8.72784305 16.5639099,7.03287764 Z M3.99931327,19.7247259 L3.99931327,21.2324877 C3.85987609,21.1798605 3.73100138,21.0824588 3.63612659,20.9502257 L1.09175734,17.4057696 C0.85019539,17.0693603 0.904195268,16.6363095 1.16881967,16.4412529 L1.78225578,15.9891397 C1.85663062,16.092811 2.4389418,16.9039423 4.08025059,19.1904736 C4.02437572,19.3703943 3.99931327,19.556078 3.99931327,19.7247259 Z M6.31774554,24.8417305 L5.55912225,24.8417305 C5.22187301,24.8417305 4.93687366,24.5055746 4.93687366,24.1076086 C4.93687366,23.6784842 4.93687366,20.1720261 4.93687366,19.7246626 C4.93687366,19.5587379 4.99093603,19.3795772 5.09799829,19.2388578 C5.225498,19.0709698 5.39793511,18.990604 5.55912225,18.990604 L6.31768304,18.990604 L6.31768304,24.8417305 L6.31774554,24.8417305 Z M6.31774554,17.0673338 L6.31774554,18.04059 L5.55912225,18.04059 C5.52105984,18.04059 5.48337242,18.0425532 5.44593501,18.0455297 C5.43931002,18.0460363 5.43268504,18.046543 5.42606005,18.0471763 C5.13581071,18.0737749 4.86806131,18.1864391 4.64474932,18.3615466 L1.81306821,14.4169079 C1.50731891,13.9910767 1.60050619,13.3924177 2.02081774,13.0826071 L4.00243827,11.6221529 C4.42087482,11.3135456 5.01468598,11.4083507 5.31924779,11.8327253 C5.66055952,12.308144 7.82505463,15.3234776 8.1903038,15.8322712 L7.53649278,15.8322712 C6.8645568,15.8322712 6.31774554,16.3863458 6.31774554,17.0673338 Z M11.5909836,26.7649374 C11.5909836,26.9193994 11.4621714,27.0499226 11.3097343,27.0499226 L7.53661778,27.0499226 C7.38418063,27.0499226 7.25536842,26.9193994 7.25536842,26.7649374 C7.25536842,26.3178906 7.25536842,17.358842 7.25536842,17.0673971 C7.25536842,16.9129351 7.38418063,16.7824119 7.53661778,16.7824119 C8.49055313,16.7824119 9.01723943,16.7824119 9.29142632,16.7824119 C9.48905087,16.7824119 9.55555072,16.7824119 9.55611322,16.7824119 C9.8301751,16.7824119 10.3565489,16.7824119 11.3097343,16.7824119 C11.4621714,16.7824119 11.5909836,16.9129351 11.5909836,17.0673971 C11.5909836,17.6551633 11.5909836,26.4035128 11.5909836,26.7649374 Z M28.7440699,26.7649374 C28.7440699,26.9193994 28.6152576,27.0499226 28.4628205,27.0499226 L24.689704,27.0499226 C24.5372669,27.0499226 24.4084547,26.9193994 24.4084547,26.7649374 L24.4084547,17.0673971 C24.4084547,16.9129351 24.5372669,16.7824119 24.689704,16.7824119 L28.4628205,16.7824119 C28.6152576,16.7824119 28.7440699,16.9129351 28.7440699,17.0673971 C28.7440699,17.6524401 28.7440699,26.4510737 28.7440699,26.7649374 Z" id="Shape" fill="#006D31"></path>
                        <path d="M18.6957176,10.0026769 L20.1670892,12.0522906 C20.5629633,12.6038953 21.3272741,12.7244124 21.8697104,12.3246098 L24.921016,10.0757598 C25.4644523,9.67519724 25.5850145,8.90124072 25.1897029,8.35045929 L24.6247042,7.56339345 L25.2382028,7.11128024 C25.9337637,6.59856017 26.0610759,5.57058682 25.5220146,4.81961911 L22.9776454,1.27509964 C22.4385216,0.524258593 21.4342114,0.330278655 20.7386504,0.842935395 L20.1250893,1.29517527 L19.5601531,0.508172761 C19.164904,-0.0426719985 18.4010932,-0.164709001 17.857532,0.235790223 L14.8062264,2.48464023 C14.2627901,2.88513946 14.1422279,3.65909598 14.5375395,4.20987741 L16.0088486,6.25949109 C13.0509803,7.94679356 9.65842549,10.4464939 7.15980613,12.7815361 L6.07749608,11.2739643 C5.46799746,10.4248983 4.28875012,10.2361748 3.45093951,10.8538961 L1.46931899,12.3143503 C0.630945886,12.9323883 0.445008806,14.1262863 1.05481993,14.9758589 L1.23069453,15.2208829 L0.617258417,15.6729961 C-0.0921774802,16.1957857 -0.194614749,17.2290154 0.333446558,17.9646572 L2.87781581,21.50905 C2.89356585,21.5309967 3.1428724,21.9686545 3.45093951,22.1612903 C3.64028149,22.2796867 3.82322557,22.3056145 3.99977175,22.2390736 C4.00501529,21.5470973 4.00501529,20.9309217 3.99977175,20.3905468 C3.99240351,19.6312093 4.03752804,18.8981839 4.37700423,18.6108137 C4.55471075,18.4603833 4.70976516,18.2763939 4.91167952,18.1878525 C5.29810572,18.0184007 5.64973762,18.0296247 5.92651245,18.04059 C6.12856669,18.048595 6.31774554,18.04059 6.31774554,18.04059 C6.31774554,18.04059 6.31826656,17.7748699 6.31774554,17.4415992 C6.31751389,17.2934295 6.30151329,17.0684626 6.31774554,16.905871 C6.33700275,16.7129796 6.43149442,16.5203147 6.52948588,16.3677615 C6.63659181,16.2010188 6.75350662,16.0794152 6.91987189,15.9891397 C7.06040671,15.9128807 7.21730254,15.8480812 7.42925677,15.8311986 C7.6424813,15.8142148 7.91101366,15.8453353 8.13576192,15.8311986 C9.41970517,15.7504384 11.0040088,15.9369996 11.3540645,15.7274837 C14.8062264,13.6612903 17.7085417,10.9252326 18.6957176,10.0026769 Z M21.2900867,1.61119221 C21.5627736,1.4103093 21.9885226,1.51220734 22.2193971,1.83398732 L24.7637664,5.37850679 C24.9947658,5.70022343 24.9594534,6.14201385 24.686704,6.34302342 L24.0732054,6.79513663 C23.6933938,6.26582409 21.0626497,2.60110419 20.6765881,2.06330542 L21.2900867,1.61119221 Z M15.2957252,3.65117972 C15.2061004,3.52622954 15.2344754,3.34390233 15.3577251,3.25302371 L18.4090307,1.00411037 C18.5328429,0.912978429 18.71253,0.942426901 18.8019048,1.06699711 C18.9916544,1.33133673 23.3642695,7.42267408 23.5907065,7.73818438 C23.5908315,7.73831104 23.590894,7.7384377 23.591019,7.73856436 L24.4314546,8.90928363 C24.5211419,9.03423382 24.492767,9.21656103 24.3694547,9.30743965 L21.3180866,11.556353 C21.1942119,11.6475483 21.0160873,11.620063 20.925275,11.4934662 C20.7403379,11.2359029 15.5189122,3.96206693 15.2957252,3.65117972 Z M16.5639099,7.03287764 L18.1407188,9.22941703 C15.7019118,11.5229781 12.2810446,14.0584599 9.29148882,15.7510821 L7.71492988,13.5548593 C10.1471744,11.2673146 13.5701041,8.72784305 16.5639099,7.03287764 Z M3.99931327,19.7247259 L3.99931327,21.2324877 C3.85987609,21.1798605 3.73100138,21.0824588 3.63612659,20.9502257 L1.09175734,17.4057696 C0.85019539,17.0693603 0.904195268,16.6363095 1.16881967,16.4412529 L1.78225578,15.9891397 C1.85663062,16.092811 2.4389418,16.9039423 4.08025059,19.1904736 C4.02437572,19.3703943 3.99931327,19.556078 3.99931327,19.7247259 Z M6.31774554,17.0673338 L6.31774554,18.04059 L5.55912225,18.04059 C5.52105984,18.04059 5.48337242,18.0425532 5.44593501,18.0455297 C5.43931002,18.0460363 5.43268504,18.046543 5.42606005,18.0471763 C5.13581071,18.0737749 4.86806131,18.1864391 4.64474932,18.3615466 L1.81306821,14.4169079 C1.50731891,13.9910767 1.60050619,13.3924177 2.02081774,13.0826071 L4.00243827,11.6221529 C4.42087482,11.3135456 5.01468598,11.4083507 5.31924779,11.8327253 C5.66055952,12.308144 7.82505463,15.3234776 8.1903038,15.8322712 L7.53649278,15.8322712 C6.8645568,15.8322712 6.31774554,16.3863458 6.31774554,17.0673338 Z" id="Shape" fill="#FFDC5D"></path>
                    </g>
                </g>
            </g>
        </g>
    </g>
</svg>