<?xml version="1.0" encoding="UTF-8"?>
<svg width="29px" height="29px" viewBox="0 0 29 29" version="1.1" xmlns="http://www.w3.org/2000/svg" xmlns:xlink="http://www.w3.org/1999/xlink">
    <title>bad-habits</title>
    <g id="Menu-1" stroke="none" stroke-width="1" fill="none" fill-rule="evenodd">
        <g id="Mi-estilo-de-vida" transform="translate(-34.000000, -1030.000000)" fill-rule="nonzero">
            <g id="Group-42" transform="translate(17.000000, 1018.000000)">
                <g id="bad-habits" transform="translate(17.000000, 12.000000)">
                    <path d="M28.5898438,23.046875 L2.23046875,23.046875 C1.55196094,23.046875 1,23.7197417 1,24.546875 C1,24.7174083 1.02417187,24.8866083 1.07082031,25.046875 C1.02417187,25.2071417 1,25.3763417 1,25.546875 C1,25.7174083 1.02417187,25.8866083 1.07082031,26.046875 C1.02417187,26.2071417 1,26.3763417 1,26.546875 C1,27.3740083 1.55196094,28.046875 2.23046875,28.046875 L3.05078125,28.046875 C3.27729688,28.046875 3.4609375,27.8230083 3.4609375,27.546875 C3.4609375,27.2707417 3.27729688,27.046875 3.05078125,27.046875 L2.23046875,27.046875 C2.00428125,27.046875 1.8203125,26.8226083 1.8203125,26.546875 C1.8203125,26.4587417 1.83896094,26.3748083 1.87571094,26.297475 C1.94932031,26.142475 1.94932031,25.9513417 1.87571094,25.796275 C1.83896094,25.7189417 1.8203125,25.6350083 1.8203125,25.546875 C1.8203125,25.4587417 1.83896094,25.3748083 1.87571094,25.297475 C1.94932031,25.142475 1.94932031,24.9513417 1.87571094,24.796275 C1.83896094,24.7189417 1.8203125,24.6350083 1.8203125,24.546875 C1.8203125,24.2711417 2.00428125,24.046875 2.23046875,24.046875 L4.28125,24.046875 L4.28125,27.546875 C4.28125,27.8230083 4.46489062,28.046875 4.69140625,28.046875 L28.5898438,28.046875 C28.8163594,28.046875 29,27.8230083 29,27.546875 L29,23.546875 C29,23.2707417 28.8163594,23.046875 28.5898438,23.046875 L28.5898438,23.046875 Z M19.9765625,27.046875 L5.1015625,27.046875 L5.1015625,24.046875 L19.9765625,24.046875 L19.9765625,27.046875 Z M28.1796875,27.046875 L20.796875,27.046875 L20.796875,24.046875 L28.1796875,24.046875 L28.1796875,27.046875 Z" id="Shape" fill="#016D38"></path>
                    <path d="M0.441176471,23.046875 C0.684823529,23.046875 0.882352941,22.863856 0.882352941,22.6381072 C0.882352941,17.6203466 2.56323529,15.1739532 4.34276471,12.5839461 C6.11182353,10.0090906 7.94117647,7.34664988 7.94117647,2.09071386 C7.94117647,1.41450296 8.53488235,0.864410545 9.26470588,0.864410545 C9.49688235,0.864410545 9.72558824,0.921202014 9.92605882,1.02873519 C10.0627647,1.10204088 10.2312941,1.10204088 10.3680588,1.02873519 C10.5685294,0.921202014 10.7972353,0.864410545 11.0294118,0.864410545 C11.2615882,0.864410545 11.4902941,0.921202014 11.6907647,1.02873519 C11.8274706,1.10204088 11.996,1.10204088 12.1327647,1.02873519 C12.3332353,0.921202014 12.5619412,0.864410545 12.7941176,0.864410545 C13.5239412,0.864410545 14.1176471,1.41450296 14.1176471,2.09071386 C14.1176471,7.04519727 11.1886471,9.48118069 8.08764706,12.0602328 C4.97911765,14.6455527 1.76470588,17.318894 1.76470588,22.6381072 C1.76470588,22.863856 1.96223529,23.046875 2.20588235,23.046875 C2.44952941,23.046875 2.64705882,22.863856 2.64705882,22.6381072 C2.64705882,17.6836238 5.57605882,15.2476404 8.67705882,12.6685883 C11.7855882,10.0832684 15,7.40992713 15,2.09071386 C15,0.963713863 14.0104706,0.046875 12.7941176,0.046875 C12.4898235,0.046875 12.1890588,0.105465047 11.9117647,0.217630924 C11.6344706,0.105465047 11.3337059,0.046875 11.0294118,0.046875 C10.7251176,0.046875 10.4243529,0.105465047 10.1470588,0.217630924 C9.86976471,0.105465047 9.569,0.046875 9.26470588,0.046875 C8.04835294,0.046875 7.05882353,0.963713863 7.05882353,2.09071386 C7.05882353,7.10847453 5.37794118,9.55486789 3.59841176,12.144875 C1.82935294,14.7197305 0,17.3821712 0,22.6381072 C0,22.863856 0.197529412,23.046875 0.441176471,23.046875 Z" id="Path" fill="#FFDC5D"></path>
                </g>
            </g>
        </g>
    </g>
</svg>