<?xml version="1.0" encoding="UTF-8"?>
<svg width="25px" height="29px" viewBox="0 0 25 29" version="1.1" xmlns="http://www.w3.org/2000/svg" xmlns:xlink="http://www.w3.org/1999/xlink">
    <title>apple</title>
    <g id="Menu-1" stroke="none" stroke-width="1" fill="none" fill-rule="evenodd">
        <g id="Mi-estilo-de-vida" transform="translate(-29.000000, -1241.000000)">
            <g id="Group-3" transform="translate(17.000000, 1229.000000)">
                <g id="Group-41" transform="translate(12.000000, 12.000000)">
                    <path d="M17.9994435,25 C17.5743593,25 17.1904026,24.7210245 17.0526105,24.3204289 C16.9224234,23.9420553 17.0397018,23.5103289 17.3397024,23.2466686 C17.6669212,22.9590846 18.1575492,22.9184444 18.5275967,23.1485717 C18.8716267,23.362583 19.0573509,23.7790943 18.9842019,24.1780883 C18.8980443,24.6472517 18.4770629,25 17.9994435,25 L17.9994435,25 Z" id="Path" fill="#FFDC5D" fill-rule="nonzero"></path>
                    <path d="M23.1038227,10.4382466 C22.0185647,9.01821838 20.5509112,8.01568557 18.9711493,7.61529548 C17.9204441,7.34919949 16.6503838,7.3715724 15.1954633,7.68201772 L15.1954055,7.68167788 C15.1889232,7.68320717 15.1752063,7.68626575 15.1532129,7.69108017 C15.1151875,7.69855668 15.077683,7.70710937 15.0409887,7.71549213 C14.9496583,7.73639239 14.8089585,7.76935702 14.658188,7.80775913 C14.4604212,7.85788577 14.2594132,7.90155542 14.058984,7.93803175 C14.0559165,7.79139009 14.0503024,7.64067033 14.041505,7.48655215 C14.2128219,5.61917903 14.9873943,4.01416365 16.3504635,2.70650969 C17.5301772,1.57478042 18.733968,1.09798262 18.744791,1.0937346 C19.0422806,0.979321248 19.1887102,0.65052447 19.071798,0.359393474 C18.9548858,0.0682058368 18.6189078,-0.0749807702 18.3214762,0.0393759385 C18.26493,0.0611824431 16.9213077,0.586577604 15.5768171,1.86262629 C14.8645786,2.53862793 14.0740899,3.5070633 13.5279594,4.80684425 C13.2363155,3.99796453 12.797258,3.22374866 12.1464273,2.58750848 C9.52302129,0.0230068999 4.60645726,0.821521451 4.31678119,0.87130825 C4.31654968,0.87136489 4.31631817,0.87136489 4.31608666,0.87142153 C4.1040241,0.90461273 3.92587765,1.04961183 3.86308074,1.25057151 C3.85382037,1.28019437 3.84641207,1.30783482 3.84218702,1.33088741 C3.80890755,1.51383549 3.13498384,5.37358681 4.8328734,8.04525179 C2.48322715,9.1479246 0,11.8760599 0,16.4101137 C0,18.0184142 0.50075472,19.9841715 1.41012344,21.9452276 C2.30102929,23.8665789 3.50429913,25.622314 4.798147,26.8887905 C6.2078653,28.2699635 7.65636141,29 8.98690352,29 C9.76610611,29 10.5688648,28.8846238 11.3087686,28.6661622 C12.0375601,28.4505327 12.8116116,28.4368258 13.5475798,28.6264574 C13.5501264,28.6271371 13.5527309,28.6278168 13.5552775,28.6284398 C13.6007691,28.640221 13.646087,28.6527951 13.6916365,28.6662755 C14.4311931,28.8845671 15.2339518,29 16.0131544,29 C17.2862243,29 18.6738334,28.3282464 20.0256744,27.0575785 C22.8150148,24.439212 25,19.7623115 25,16.4101137 C25,14.1261514 24.3441919,12.0611037 23.1038227,10.4382466 L23.1038227,10.4382466 Z M11.3281576,3.38902497 C12.4346565,4.47074088 12.7956374,6.12112512 12.8786335,7.50852857 C12.858145,7.76323987 12.8473798,8.87599465 12.8473798,8.87599465 L8.45738376,4.5844179 C8.23119913,4.36335092 7.86471983,4.3634642 7.63888246,4.58487103 C7.41298721,4.80616457 7.41316084,5.16481077 7.6392876,5.38593439 L12.059785,9.70730392 C10.5480289,9.78654366 7.93232056,9.67416936 6.4147189,8.19059072 C4.59193005,6.40868778 4.79230139,3.08367726 4.92565077,1.93314342 C6.10235491,1.80275752 9.50484781,1.60655562 11.3281576,3.38902497 L11.3281576,3.38902497 Z M19.2238418,26.240316 C18.0915295,27.3045867 16.9811528,27.8671946 16.012865,27.8671946 C15.3549154,27.8671946 14.649217,27.7658085 14.025936,27.5818409 C13.9681744,27.5647355 13.9101813,27.5487063 13.8520146,27.53364 C13.8510886,27.5334134 13.8502204,27.5331302 13.8493522,27.5329037 C12.9041574,27.2880478 11.909709,27.3049266 10.9738904,27.5817276 C10.3503199,27.7658085 9.6445637,27.8671946 8.98661413,27.8671946 C7.9699987,27.8671946 6.80475428,27.2520246 5.6166483,26.0880103 C3.11605795,23.6402444 1.15731523,19.3891654 1.15731523,16.4101137 C1.15731523,12.2472236 3.47570772,9.83219572 5.5671053,8.96293747 C5.57688657,8.9726796 5.58678359,8.98242172 5.59668062,8.99210721 C7.18315631,10.5429745 9.62008158,10.8617459 11.3560544,10.8616893 C12.4571708,10.8616893 13.2776978,10.7396862 13.4170085,10.7098934 C13.8792169,10.6108862 13.8679309,10.4000144 13.8966959,10.2698551 C13.8970432,10.2682125 13.8974483,10.26657 13.8977956,10.2649274 C13.8982007,10.2631149 13.898548,10.2612458 13.8989531,10.2594333 C13.8994161,10.257111 13.8998792,10.2547888 13.9003422,10.2524099 C13.9005158,10.2513904 13.9007473,10.2504275 13.9009209,10.249408 C13.911744,10.1902755 13.9898205,9.74689547 14.0331128,9.08358125 C14.0670289,9.08380781 14.101408,9.08114572 14.1359608,9.07536841 C14.4071161,9.02982963 14.6804129,8.97233976 14.948848,8.90431479 C15.0521012,8.87797706 15.1519975,8.85401823 15.2349936,8.83470389 C17.6226074,9.64953084 19.9838291,12.2775262 19.9838291,16.4101703 C19.9838291,17.6207428 19.6647513,19.0643335 19.0610328,20.5850115 C18.9452781,20.8765389 19.0929811,21.2047693 19.3909336,21.3180499 C19.4598077,21.3442177 19.5307074,21.3566785 19.6003917,21.3566785 C19.8321904,21.3566785 20.0510247,21.2193825 20.14004,20.9952003 C20.7950957,19.3450993 21.1413758,17.7596248 21.1413758,16.4101703 C21.1413758,12.6457446 19.372355,9.96677301 17.2369707,8.564813 C17.7683425,8.55399471 18.2509237,8.60304518 18.6810681,8.71196443 C21.1668997,9.34197417 23.8423375,12.0196997 23.8423375,16.4101137 C23.8423375,19.4400284 21.7705603,23.8497567 19.2238418,26.240316 L19.2238418,26.240316 Z" id="Shape" fill="#016D38" fill-rule="nonzero"></path>
                    <path d="M19.7932063,20.9916993 C20.809569,19.5265493 21.0688223,17.3626495 20.5709663,14.5 C20.0731103,11.6373505 18.4558984,9.65846614 15.7193305,8.56334685" id="Path-18" stroke="#FFDC5D" stroke-width="2" stroke-linecap="round"></path>
                </g>
            </g>
        </g>
    </g>
</svg>