<?xml version="1.0" encoding="UTF-8"?>
<svg width="26px" height="26px" viewBox="0 0 26 26" version="1.1" xmlns="http://www.w3.org/2000/svg" xmlns:xlink="http://www.w3.org/1999/xlink">
    <title>food</title>
    <g id="Menu-1" stroke="none" stroke-width="1" fill="none" fill-rule="evenodd">
        <g id="Mi-estilo-de-vida" transform="translate(-35.000000, -863.000000)" fill-rule="nonzero">
            <g id="Group-5" transform="translate(17.000000, 850.000000)">
                <g id="food" transform="translate(18.000000, 13.000000)">
                    <path d="M25.4921875,10.5737776 L21.328125,10.5737776 L21.328125,9.50495 C21.328125,9.22606611 21.1007266,9 20.8203125,9 L9.8515625,9 C9.57114844,9 9.34375,9.22606611 9.34375,9.50495 C9.34375,9.78383388 9.57114844,10.0099 9.8515625,10.0099 L20.3125,10.0099 L20.3125,13.8811496 C20.3125,17.2818868 18.4865586,20.4425708 15.5381484,22.1623295 L5.78997656,22.1623295 C2.84156641,20.4426213 1.015625,17.2818868 1.015625,13.8812001 L1.015625,10.0099505 L4.41796875,10.0099505 C4.69838281,10.0099505 4.92578125,9.78388437 4.92578125,9.50500049 C4.92578125,9.22611661 4.69838281,9 4.41796875,9 L0.5078125,9 C0.227398437,9 0,9.22611661 0,9.50500049 L0,13.8812001 C0,15.7899111 0.5159375,17.6614578 1.49205469,19.2934057 C2.15033203,20.3940452 3.00447266,21.3659729 4.00471094,22.16238 L0.5078125,22.16238 C0.227398437,22.16238 0,22.3884462 0,22.66733 C0,24.5049945 1.50348047,26 3.3515625,26 L19.1953125,26 C21.0433945,26 22.546875,24.5049945 22.546875,22.66733 C22.546875,22.3884462 22.3194766,22.16238 22.0390625,22.16238 L17.3234141,22.16238 C18.2440273,21.4293946 19.0404297,20.5473985 19.6746875,19.5534549 L21.1080898,19.5534549 C23.8054883,19.5534549 26,17.3713135 26,14.6891201 L26,11.0787276 C26,10.7998438 25.7726523,10.5737776 25.4921875,10.5737776 Z M21.4756445,23.17228 C21.243168,24.2110632 20.3089961,24.9901 19.1953125,24.9901 L3.3515625,24.9901 C2.23787891,24.9901 1.30375781,24.2110632 1.07123047,23.17228 L5.65393359,23.17228 L15.6741914,23.17228 L21.4756445,23.17228 Z M21.328125,13.8812001 L21.328125,13.6034776 L22.953125,13.6034776 L22.953125,14.6891201 C22.953125,15.7007369 22.1254414,16.5237549 21.1080898,16.5237549 L20.9927656,16.5237549 C21.2144258,15.665037 21.328125,14.7772339 21.328125,13.8812001 Z M24.984375,14.6891201 C24.984375,16.8144546 23.2454727,18.5435549 21.1080898,18.5435549 L20.243793,18.5435549 C20.4059375,18.214277 20.5507656,17.8771724 20.6773125,17.5336549 L21.1080898,17.5336549 C22.6855078,17.5336549 23.96875,16.2575958 23.96875,14.6891201 L23.96875,13.0985276 C23.96875,12.8196437 23.7413516,12.5935776 23.4609375,12.5935776 L21.328125,12.5935776 L21.328125,11.5836776 L24.984375,11.5836776 L24.984375,14.6891201 Z" id="Shape" fill="#006D31"></path>
                    <path d="M11.1682873,2.90552511 L10.8039404,2.56254262 C10.2690794,2.05917264 10.2683091,1.35551515 10.8020497,0.851410168 C11.04252,0.624295175 10.991821,0.294070184 10.6888871,0.113837689 C10.3858833,-0.0664998065 9.94548775,-0.0284373075 9.70501737,0.198677686 C8.76372361,1.08781766 8.76512414,2.32886513 9.70844866,3.2167451 L10.0727956,3.55972759 C10.7717283,4.21755258 10.7727787,5.13709005 10.0753165,5.79591253 L9.70193622,6.14860752 C9.46146584,6.37572252 9.5121649,6.70594751 9.81509875,6.88618 C9.94387714,6.9627775 10.0974449,7 10.2499622,7 C10.4562597,7 10.6606665,6.93196 10.7989685,6.80134001 L11.1723488,6.44864502 C12.2773641,5.40484004 12.2757535,3.94786008 11.1682873,2.90552511 Z" id="Path" fill="#FFDC5D"></path>
                    <path d="M14.168338,3.90552511 L13.8039825,3.56259512 C13.269109,3.05917264 13.2683387,2.35551515 13.8020918,1.85141017 C14.0425678,1.62429517 13.9918675,1.29407018 13.6889266,1.11383769 C13.3859156,0.933500194 12.9455098,0.971562692 12.7050338,1.19867769 C11.7637181,2.08781766 11.7651187,3.32886513 12.7084652,4.2167976 L13.0728207,4.55978009 C13.7716996,5.21765758 13.7727501,6.13724755 13.0752716,6.79601753 L12.7019526,7.14866002 C12.4614766,7.37577502 12.5121769,7.70600001 12.8151178,7.8862325 C12.9438992,7.96283 13.0974705,8 13.2499914,8 C13.4562937,8 13.6607754,7.9319075 13.7990105,7.80134001 L14.1722595,7.44869752 C15.2773707,6.40494504 15.27576,4.94796508 14.168338,3.90552511 Z" id="Path" fill="#FFDC5D"></path>
                    <path d="M8.16833406,3.90552374 L7.80398075,3.56259364 C7.26911037,3.05922348 7.26834007,2.35551326 7.80201997,1.85140811 C8.04249456,1.62429304 7.99179462,1.29406794 7.68885546,1.11378288 C7.38584628,0.933497827 6.94544306,0.971612838 6.70496848,1.19862291 C5.76372826,2.08776318 5.76512881,3.32886356 6.70846985,4.21674384 L7.07282316,4.55972644 C7.77169805,5.21760414 7.77274846,6.13719443 7.07534415,6.79591213 L6.70195729,7.14855474 C6.46148271,7.37566981 6.51211262,7.70589491 6.81505178,7.88617996 C6.94383243,7.96277749 7.0973328,8 7.24992282,8 C7.45622396,8 7.66063436,7.93195998 7.79886874,7.80139244 L8.17232563,7.44869733 C9.27736026,6.40494451 9.27574963,4.94796406 8.16833406,3.90552374 Z" id="Path" fill="#FFDC5D"></path>
                    <path d="M7.8535,9.1465 C7.7605,9.0535 7.6315,9 7.5,9 C7.3685,9 7.2395,9.0535 7.1465,9.1465 C7.05355,9.24 7,9.3685 7,9.5 C7,9.6315 7.0535,9.7605 7.1465,9.854 C7.2395,9.947 7.3685,10 7.5,10 C7.6315,10 7.7605,9.947 7.8535,9.854 C7.94695,9.7605 8,9.632 8,9.5 C8,9.3685 7.94695,9.2395 7.8535,9.1465 Z" id="Path" fill="#FFDC5D"></path>
                    <path d="M18.5327492,14 C18.2747334,14 18.0654985,14.2113072 18.0654985,14.4719838 C18.0654985,16.2239406 17.3620057,17.9456904 16.135379,19.1957396 C15.9537119,19.3808516 15.9550669,19.6797118 16.1383227,19.8632191 C16.2294366,19.9544536 16.3483519,20 16.4672672,20 C16.5875375,20 16.7078079,19.9533208 16.7991554,19.8601984 C18.1978239,18.4348072 19,16.4708825 19,14.4719838 C19,14.2113072 18.7907651,14 18.5327492,14 Z" id="Path" fill="#000000"></path>
                    <path d="M14.9361491,20.2527619 C14.8020026,20.0137987 14.5005437,19.9294091 14.262797,20.0641643 L14.2515275,20.0705717 C14.0137313,20.2053766 13.9297538,20.5083149 14.0638509,20.7472285 C14.1546988,20.9090539 14.3222089,21 14.4948101,21 C14.5770576,21 14.6604914,20.9792875 14.737203,20.9358261 L14.7484725,20.9294187 C14.9862687,20.7946138 15.0702462,20.4916754 14.9361491,20.2527619 Z" id="Path" fill="#000000"></path>
                </g>
            </g>
        </g>
    </g>
</svg>