<?xml version="1.0" encoding="UTF-8"?>
<svg width="22px" height="30px" viewBox="0 0 22 30" version="1.1" xmlns="http://www.w3.org/2000/svg" xmlns:xlink="http://www.w3.org/1999/xlink">
    <title>Group 22</title>
    <defs>
        <filter id="filter-1">
            <feColorMatrix in="SourceGraphic" type="matrix" values="0 0 0 0 0.000000 0 0 0 0 0.427451 0 0 0 0 0.192157 0 0 0 1.000000 0"></feColorMatrix>
        </filter>
    </defs>
    <g id="Menu-1" stroke="none" stroke-width="1" fill="none" fill-rule="evenodd">
        <g id="Mi-estilo-de-vida" transform="translate(-35.000000, -620.000000)">
            <g id="Group-39" transform="translate(17.000000, 609.000000)">
                <g id="Group-22" transform="translate(18.000000, 11.000000)">
                    <g filter="url(#filter-1)" id="beer">
                        <g>
                            <path d="M19.5121452,9.98460234 L16.956062,9.98460234 L16.956062,9.01613237 C17.635369,8.63879195 18.0965087,7.91183861 18.0965087,7.07854762 C18.0965087,6.4874767 17.8673104,5.93175397 17.4512283,5.51384813 C17.0350878,5.09588367 16.4818486,4.8656808 15.893357,4.86573942 L15.2453918,4.86573942 L15.2453918,4.61443316 C15.2453918,3.39430521 14.2570436,2.40162496 13.0422401,2.40162496 L11.7154348,2.40162496 C11.569523,1.05311803 10.4290179,0 9.04828355,0 C7.66754921,0 6.52704409,1.05311803 6.38113228,2.40162496 L5.05432695,2.40162496 C3.83952353,2.40162496 2.85117525,3.39430521 2.85117525,4.61443316 L2.85117525,4.86573942 L2.20321006,4.86573942 C0.988406643,4.86573942 0,5.85841967 0,7.07854762 C0,7.88774557 0.434933942,8.59652654 1.08214039,8.98242556 L1.08214039,27.1046142 C1.08214039,28.701086 2.37532764,30 3.9648326,30 L14.0733698,30 C15.6628747,30 16.9561203,28.7011447 16.9561203,27.1046142 L16.9561203,24.3030213 L19.5122035,24.3030213 C20.8840081,24.3030213 22,23.1821379 22,21.8043207 L22,12.4833029 C22,11.1054857 20.8839497,9.98460234 19.5121452,9.98460234 Z M2.20321006,5.74504754 L3.2889107,5.74504754 C3.5306574,5.74504754 3.72664615,5.54825838 3.72664615,5.30539348 L3.72664615,4.61443316 C3.72664615,3.87915571 4.32225818,3.28093308 5.05432695,3.28093308 L6.65713907,3.28093308 C6.97902053,3.28093308 7.2408447,3.01796133 7.2408447,2.69466905 C7.2408447,1.69366468 8.05164748,0.879308121 9.04828355,0.879308121 C10.0449196,0.879308121 10.8557224,1.69366468 10.8557224,2.69466905 C10.8557224,3.01796133 11.1176049,3.28093308 11.4394864,3.28093308 L13.0422985,3.28093308 C13.7743673,3.28093308 14.3699793,3.87915571 14.3699793,4.61443316 L14.3699793,5.30539348 C14.3699793,5.54825838 14.5659097,5.74504754 14.8077148,5.74504754 L15.8934154,5.74504754 C16.2480395,5.74504754 16.5814772,5.88368512 16.832212,6.13557759 C17.0830053,6.38747005 17.2210962,6.72236921 17.2210962,7.07854762 C17.2210962,7.81382507 16.6254842,8.41204769 15.8934154,8.41204769 L8.79101183,8.41204769 C7.95715498,8.41204769 7.17325834,8.73815377 6.58365788,9.33033848 C5.99405741,9.9225818 5.66931607,10.7099143 5.66931607,11.5473674 L5.66931607,14.0163473 C5.66931607,14.4432221 5.32356343,14.7904902 4.89855149,14.7904902 C4.47353956,14.7904902 4.12778692,14.4432221 4.12778692,14.0163473 L4.12778692,9.37817284 C4.12778692,8.84542936 3.69623813,8.41204769 3.16581949,8.41204769 L2.2031517,8.41204769 C1.47108293,8.41204769 0.875470897,7.81382507 0.875470897,7.07854762 C0.875470897,6.34327017 1.47108293,5.74504754 2.20321006,5.74504754 Z M2.2031517,9.29135581 L3.16581949,9.29135581 C3.21350348,9.29135581 3.25231602,9.33033848 3.25231602,9.37817284 L3.25231602,10.7231625 L1.95761129,10.7231625 L1.95761129,9.27728689 C2.03827134,9.28631445 2.12015705,9.29135581 2.2031517,9.29135581 Z M14.0733698,29.1206919 L3.9648326,29.1206919 C2.85806229,29.1206919 1.95761129,28.2162942 1.95761129,27.1046142 L1.95761129,11.6025293 L3.25231602,11.6025293 L3.25231602,14.0164059 C3.25231602,14.9281312 3.9908049,15.6698569 4.89855149,15.6698569 C5.80629808,15.6698569 6.54478697,14.9281312 6.54478697,14.0164059 L6.54478697,11.6025293 L12.4277763,11.6025293 C12.6695814,11.6025293 12.8655118,11.4057401 12.8655118,11.1628752 C12.8655118,10.9200103 12.6695814,10.7232212 12.4277763,10.7232212 L6.69939513,10.7232212 C6.81081339,10.4376805 6.98024619,10.1755294 7.20267417,9.95218518 C7.62692736,9.52601384 8.19102244,9.29141444 8.79095347,9.29141444 L15.893357,9.29141444 C15.9564493,9.29141444 16.0187828,9.28813169 16.0805911,9.28285584 L16.0805911,10.7232798 L14.2932297,10.7232798 C14.0514246,10.7232798 13.8554942,10.9200689 13.8554942,11.1629338 C13.8554942,11.4057987 14.0514246,11.6025879 14.2932297,11.6025879 L16.0805911,11.6025879 L16.0805911,27.1046728 C16.0805911,28.2162942 15.1801984,29.1206919 14.0733698,29.1206919 L14.0733698,29.1206919 Z M21.1244707,21.8043207 C21.1244707,22.6972288 20.4011567,23.4237132 19.5121452,23.4237132 L16.956062,23.4237132 L16.956062,22.427164 L19.5121452,22.427164 C19.8540457,22.427164 20.1322704,22.1477199 20.1322704,21.8043207 L20.1322704,16.4278205 C20.1322704,16.1849556 19.93634,15.9881665 19.6945349,15.9881665 C19.4527299,15.9881665 19.2567995,16.1849556 19.2567995,16.4278205 L19.2567995,21.5478559 L16.956062,21.5478559 L16.956062,12.7397678 L19.2567995,12.7397678 L19.2567995,14.5541908 C19.2567995,14.7970557 19.4527299,14.9938448 19.6945349,14.9938448 C19.93634,14.9938448 20.1322704,14.7970557 20.1322704,14.5541908 L20.1322704,12.4833029 C20.1322704,12.1399038 19.8540457,11.8604597 19.5121452,11.8604597 L16.956062,11.8604597 L16.956062,10.8639105 L19.5121452,10.8639105 C20.4011567,10.8639105 21.1244707,11.5903948 21.1244707,12.4833029 L21.1244707,21.8043207 Z" id="Shape" fill="#000000" fill-rule="nonzero"></path>
                        </g>
                    </g>
                    <path d="M9.87637433,13 L9.12362567,13 C8.50409103,13 8,13.459471 8,14.0241671 L8,25.9758329 C8,26.540529 8.5040271,27 9.12362567,27 L9.87637433,27 C10.495909,27 11,26.540529 11,25.9758329 L11,14.0241671 C11,13.459471 10.4959729,13 9.87637433,13 Z M10.0411659,25.9758329 C10.0411659,26.0586845 9.9672718,26.1260378 9.87637433,26.1260378 L9.12362567,26.1260378 C9.03279212,26.1260378 8.95883406,26.0586845 8.95883406,25.9758329 L8.95883406,14.0241671 C8.95883406,13.9413155 9.0327282,13.8739622 9.12362567,13.8739622 L9.87637433,13.8739622 C9.96720788,13.8739622 10.0411659,13.9413155 10.0411659,14.0241671 L10.0411659,25.9758329 Z" id="Shape" fill="#FFDC5D" fill-rule="nonzero"></path>
                    <path d="M5.52058297,16.1068357 C5.25581693,16.1068357 5.04116594,16.2996569 5.04116594,16.5376249 L5.04116594,25.9904025 C5.04116594,26.0720227 4.9672718,26.1384217 4.87637433,26.1384217 L4.12362567,26.1384217 C4.03279212,26.1384217 3.95883406,26.0720227 3.95883406,25.9904025 L3.95883406,16.4307892 C3.95883406,16.1928212 3.74418307,16 3.47941703,16 C3.21465098,16 3,16.1928212 3,16.4307892 L3,25.9904025 C3,26.547097 3.5040271,27 4.12362567,27 L4.87637433,27 C5.49590897,27 6,26.547097 6,25.9904025 L6,16.5376249 C6,16.2996569 5.78534902,16.1068357 5.52058297,16.1068357 L5.52058297,16.1068357 Z" id="Path" fill="#FFDC5D" fill-rule="nonzero"></path>
                    <path d="M13.8763504,13 L13.1235857,13 C12.5040378,13 12,13.4594147 12,14.0241131 L12,17.761657 C12,18.0030464 12.2145916,18.1986399 12.4794272,18.1986399 C12.7442629,18.1986399 12.9588545,18.0030464 12.9588545,17.761657 L12.9588545,14.0241131 C12.9588545,13.9413194 13.0327502,13.8739658 13.1235857,13.8739658 L13.8763504,13.8739658 C13.9672498,13.8739658 14.0411455,13.9413194 14.0411455,14.0241131 L14.0411455,25.9758869 C14.0411455,26.0586806 13.9672498,26.1260342 13.8763504,26.1260342 L13.1235857,26.1260342 C13.0327502,26.1260342 12.9588545,26.0586806 12.9588545,25.9758869 L12.9588545,19.6239034 C12.9588545,19.382514 12.7442629,19.1869205 12.4794272,19.1869205 C12.2145916,19.1869205 12,19.382514 12,19.6239034 L12,25.9758869 C12,26.5405853 12.5040378,27 13.1235857,27 L13.8763504,27 C14.4958982,27 15,26.5405853 15,25.9758869 L15,14.0241131 C15,13.4594147 14.4958982,13 13.8763504,13 L13.8763504,13 Z" id="Path" fill="#FFDC5D" fill-rule="nonzero"></path>
                </g>
            </g>
        </g>
    </g>
</svg>