<svg width="23" height="23" viewBox="0 0 23 23" fill="none" xmlns="http://www.w3.org/2000/svg">
<path d="M1.91406 2.0625H4.66406V0.6875H6.4974V2.0625C2.45264 3.56359 1.45573 18.1042 3.7474 21.7708H1.91406V2.0625Z" fill="#FFDC5D"/>
<path d="M5.58073 9.39551H4.66406V10.3122H5.58073V9.39551Z" fill="#016D38"/>
<path d="M10.1647 9.39551H9.24805V10.3122H10.1647V9.39551Z" fill="#016D38"/>
<path d="M14.7487 9.39551H13.832V10.3122H14.7487V9.39551Z" fill="#016D38"/>
<path d="M19.3307 9.39551H18.4141V10.3122H19.3307V9.39551Z" fill="#016D38"/>
<path d="M5.58073 13.0625H4.66406V13.9792H5.58073V13.0625Z" fill="#016D38"/>
<path d="M10.1647 13.0625H9.24805V13.9792H10.1647V13.0625Z" fill="#016D38"/>
<path d="M14.7487 13.0625H13.832V13.9792H14.7487V13.0625Z" fill="#016D38"/>
<path d="M19.3307 13.0625H18.4141V13.9792H19.3307V13.0625Z" fill="#016D38"/>
<path d="M5.58073 16.729H4.66406V17.6457H5.58073V16.729Z" fill="#016D38"/>
<path d="M10.1647 16.729H9.24805V17.6457H10.1647V16.729Z" fill="#016D38"/>
<path d="M14.3229 16.5986H13.4062V17.5153H14.3229V16.5986Z" fill="#016D38"/>
<path d="M19.478 1.989V0.229004H16.838V1.989H7.15805V0.229004H4.51805V1.989H0.998047V5.949V6.829V22.229H19.2202L19.4244 22.0248L22.7926 18.6566L22.998 18.4512V6.829V5.949V1.989H19.478ZM17.718 1.989V1.109H18.598V1.989V3.749H17.718V1.989ZM5.39805 1.989V1.109H6.27805V1.989V3.749H5.39805V1.989ZM19.478 20.7268V18.709H21.4959L19.478 20.7268ZM22.118 17.829H18.598V21.349H1.87805V6.829H22.118V17.829ZM22.118 5.949H1.87805V2.869H4.51805V4.629H7.15805V2.869H16.838V4.629H19.478V2.869H22.118V5.949Z" fill="#016D38"/>
<rect x="8.86914" y="8.94727" width="1.902" height="1.902" fill="#FFDC5D"/>
</svg>
