<svg width="20" height="20" viewBox="0 0 20 20" fill="none" xmlns="http://www.w3.org/2000/svg">
<path d="M8.50002 1C1.57656 12 7.3943 16.4231 15.5 16.5C15.5 16.5 8.50002 20.5 7.49994 18.5C-0.499985 15.5 -1.5 3.5 8.50002 1Z" fill="#FFDC5D"/>
<path d="M9.15 10.9162V5.15H10.35V10.2V10.2849L10.4228 10.3286L14.7927 12.9506L14.1509 13.9936L9.15 10.9162ZM10 0.15C15.4172 0.15 19.85 4.58284 19.85 10C19.85 15.4172 15.4172 19.85 10 19.85C4.58284 19.85 0.15 15.4172 0.15 10C0.15 4.58284 4.58284 0.15 10 0.15ZM10 1.85C5.51716 1.85 1.85 5.51716 1.85 10C1.85 14.4828 5.51716 18.15 10 18.15C14.4828 18.15 18.15 14.4828 18.15 10C18.15 5.51716 14.4828 1.85 10 1.85Z" fill="#016D38" stroke="white" stroke-width="0.3"/>
</svg>
