<?xml version="1.0" encoding="UTF-8"?>
<svg width="20px" height="24px" viewBox="0 0 20 24" version="1.1" xmlns="http://www.w3.org/2000/svg" xmlns:xlink="http://www.w3.org/1999/xlink">
    <title>icon / yellow / fire</title>
    <defs>
        <linearGradient x1="86.0788887%" y1="93.71521%" x2="13.9211113%" y2="6.1340332%" id="linearGradient-1">
            <stop stop-color="#083E16" offset="0%"></stop>
            <stop stop-color="#128C31" offset="100%"></stop>
        </linearGradient>
    </defs>
    <g id="Menu-1" stroke="none" stroke-width="1" fill="none" fill-rule="evenodd">
        <g id="Cronometro-2" transform="translate(-196.000000, -664.000000)">
            <g id="Group" transform="translate(194.000000, 664.000000)">
                <path d="M12.2276923,21.7938462 C9.46769231,21.7938462 6.59692308,20.4923077 5.08307692,18.5630769 C4.43692308,17.7415385 3.75384615,16.4123077 4.16,14.7876923 C4.4,13.8369231 4.77846154,12.9415385 5.14769231,12.0738462 C5.89538462,10.32 6.65230769,8.52 5.83076923,6.75692308 C6.85538462,6.96923077 6.98144531,10.6620944 6.98144531,11.7236328 C6.98144531,11.7790174 7.54980469,20.0888672 13.9709473,19.5490723 C20.3920898,19.0092773 20.2676923,13.6153846 20.2676923,14.6215385 C20.2676923,18.5723077 16.6584615,21.7938462 12.2276923,21.7938462 Z" id="Path-Copy" fill="#FFDC5D"></path>
                <g id="fuego" transform="translate(2.000000, 0.000000)" fill="url(#linearGradient-1)">
                    <path d="M16.9938462,9.70153846 C15.5169231,7.79076923 13.8369231,5.62153846 14.16,4.00615385 C14.3076923,3.28615385 14.8430769,2.66769231 15.8030769,2.11384615 C16.0984615,1.94769231 16.2276923,1.58769231 16.1076923,1.26461538 C15.9876923,0.950769231 15.6553846,0.766153846 15.3138462,0.830769231 C15.0553846,0.886153846 8.91692308,2.24307692 6.72,6.6 C6.71076923,6.61846154 6.70153846,6.62769231 6.70153846,6.64615385 C5.65846154,5.53846154 3.68307692,5.19692308 2.36307692,5.19692308 C2.08615385,5.19692308 1.82769231,5.36307692 1.72615385,5.62153846 C1.62461538,5.88 1.68,6.17538462 1.87384615,6.37846154 C3.34153846,7.84615385 2.88,9.15692308 1.87384615,11.5292308 C1.48615385,12.4430769 1.08,13.3938462 0.821538462,14.4553846 C0.396923077,16.1630769 0.803076923,17.88 1.99384615,19.4123077 C3.77538462,21.7015385 7.00615385,23.1784615 10.2276923,23.1784615 C15.4246154,23.1784615 19.6523077,19.3384615 19.6523077,14.6215385 C19.6523077,13.1353846 18.36,11.4646154 16.9938462,9.70153846 Z M10.2276923,21.7938462 C7.46769231,21.7938462 4.59692308,20.4923077 3.08307692,18.5630769 C2.43692308,17.7415385 1.75384615,16.4123077 2.16,14.7876923 C2.4,13.8369231 2.77846154,12.9415385 3.14769231,12.0738462 C3.89538462,10.32 4.65230769,8.52 3.83076923,6.75692308 C4.85538462,6.96923077 6.03692308,7.44923077 6.03692308,8.51076923 C6.03692308,8.56615385 6.04615385,8.63076923 6.05538462,8.68615385 C5.78769231,10.3292308 6.09230769,12.12 6.96923077,14.04 C7.12615385,14.3907692 7.54153846,14.5384615 7.88307692,14.3815385 C8.23384615,14.2246154 8.38153846,13.8092308 8.22461538,13.4676923 C7.15384615,11.1138462 7.06153846,9.01846154 7.95692308,7.24615385 C9.00923077,5.16 11.2246154,3.84 13.0061538,3.07384615 C12.9230769,3.28615385 12.8492308,3.50769231 12.8030769,3.73846154 C12.36,5.97230769 14.16,8.29846154 15.8953846,10.5507692 C17.0584615,12.0553846 18.2676923,13.6153846 18.2676923,14.6215385 C18.2676923,18.5723077 14.6584615,21.7938462 10.2276923,21.7938462 Z" id="Shape"></path>
                </g>
            </g>
        </g>
    </g>
</svg>