<svg width="22" height="19" viewBox="0 0 22 19" fill="none" xmlns="http://www.w3.org/2000/svg">
<path fill-rule="evenodd" clip-rule="evenodd" d="M11.7063 12.3485C11.4128 12.3485 11.2172 12.1529 11.1194 11.9573L8.77192 5.79511L6.81568 8.53385C6.71787 8.72947 6.52224 8.82728 6.32662 8.82728L1.82726 8.9251C1.43601 8.9251 1.14258 8.63166 1.14258 8.33822C1.14258 7.94698 1.43601 7.65354 1.72945 7.65354L5.93537 7.55573L8.47849 4.1323C8.5763 3.93668 8.86973 3.83887 9.06536 3.83887C9.26098 3.83887 9.45661 4.03449 9.55442 4.23012L11.9019 10.3923L14.8363 6.28417C14.9341 6.08855 15.2275 5.99073 15.4231 5.99073C15.6188 5.99073 15.8144 6.18636 15.9122 6.38198L17.2816 10.3923H21.2919C21.6831 10.3923 21.9766 10.6857 21.9766 11.077C21.9766 11.4682 21.6831 11.7616 21.2919 11.7616H16.7925C16.4991 11.7616 16.3035 11.566 16.2056 11.3704L15.1297 8.1426L12.1953 12.1529C12.0975 12.2507 11.9019 12.3485 11.7063 12.3485Z" fill="#FFDC5D"/>
<path fill-rule="evenodd" clip-rule="evenodd" d="M4.17551 10.8816L10.7289 17.435L14.348 13.816C14.6414 13.5225 15.0327 13.5225 15.2283 13.816C15.5217 14.1094 15.5217 14.5006 15.2283 14.6963L11.1202 18.8044C11.218 18.9022 11.0224 19 10.8267 19C10.6311 19 10.5333 18.9022 10.3377 18.8044L3.29521 11.7619C3.00177 11.4685 3.00177 11.0772 3.29521 10.8816C3.58864 10.5882 3.97989 10.5882 4.17551 10.8816ZM8.088 4.81725C8.28362 4.81725 8.47925 5.01287 8.57706 5.20849L10.9245 11.3707L13.8589 7.26255C13.9567 7.06692 14.2502 6.96911 14.4458 6.96911C14.6414 6.96911 14.837 7.16474 14.9348 7.36036L16.3042 11.3707H20.3145C20.7058 11.3707 20.9992 11.6641 20.9992 12.0553C20.9992 12.4466 20.7058 12.74 20.3145 12.74H15.8152C15.5217 12.74 15.3261 12.5444 15.2283 12.3488L14.1523 9.12098L11.218 13.1313C11.1365 13.2128 10.987 13.2943 10.8263 13.3192L10.7289 13.3269C10.4355 13.3269 10.2399 13.1313 10.1421 12.9356L7.79456 6.77349L5.83832 9.51223C5.74051 9.70785 5.54488 9.80566 5.34926 9.80566L0.849904 9.90347C0.458655 9.90347 0.165219 9.61004 0.165219 9.3166C0.165219 8.92535 0.458655 8.63192 0.752092 8.63192L4.95801 8.53411L7.50113 5.11068C7.59894 4.91506 7.89237 4.81725 8.088 4.81725ZM20.1189 1.68726C22.3686 3.93694 22.3686 7.6538 20.1189 9.90347C20.0211 10.0991 19.8254 10.1969 19.7276 10.1969C19.532 10.1969 19.4342 10.0991 19.2386 10.0013C18.9451 9.70785 18.9451 9.3166 19.2386 9.12098C20.9992 7.36036 20.9992 4.52381 19.2386 2.66538C18.3583 1.78507 17.2823 1.29601 16.0108 1.29601C14.837 1.29601 13.6633 1.78507 12.8808 2.66538L11.3158 4.23037C11.0224 4.52381 10.6311 4.52381 10.4355 4.23037L9.06612 2.861C8.18581 1.88288 7.01207 1.49163 5.83832 1.49163C4.66458 1.49163 3.49083 1.98069 2.61052 2.861C1.6324 3.74131 1.14334 5.20849 1.33896 6.57786C1.33896 6.96911 1.14334 7.26255 0.752092 7.26255C0.360843 7.26255 0.0674069 7.06692 0.0674069 6.67568C-0.226029 4.81725 0.458655 3.05663 1.73021 1.78507C2.80615 0.709137 4.27333 0.122265 5.83832 0.122265C7.40331 0.122265 8.87049 0.709137 9.94643 1.78507L10.8267 2.66538L11.9027 1.68726C14.1523 -0.56242 17.8692 -0.56242 20.1189 1.68726Z" fill="#016D38"/>
</svg>
