<?xml version="1.0" encoding="UTF-8"?>
<svg width="86px" height="62px" viewBox="0 0 86 62" version="1.1" xmlns="http://www.w3.org/2000/svg" xmlns:xlink="http://www.w3.org/1999/xlink">
    <title>Group</title>
    <defs>
        <linearGradient x1="50%" y1="0%" x2="50%" y2="100%" id="linearGradient-1">
            <stop stop-color="#17521A" offset="0%"></stop>
            <stop stop-color="#082A0D" offset="100%"></stop>
        </linearGradient>
        <linearGradient x1="50%" y1="0%" x2="50%" y2="100%" id="linearGradient-2">
            <stop stop-color="#17521A" offset="0%"></stop>
            <stop stop-color="#082A0D" offset="100%"></stop>
        </linearGradient>
        <linearGradient x1="50%" y1="0%" x2="50%" y2="100%" id="linearGradient-3">
            <stop stop-color="#17521A" offset="0%"></stop>
            <stop stop-color="#082A0D" offset="100%"></stop>
        </linearGradient>
    </defs>
    <g id="Menu-1" stroke="none" stroke-width="1" fill="none" fill-rule="evenodd">
        <g id="perfil-alicia-1" transform="translate(-138.000000, -282.000000)">
            <g id="Group" transform="translate(138.000000, 282.000000)">
                <g id="Group-7" fill="#FBF8F8">
                    <path d="M0.960026874,23.7299731 C-5.18463308,69.8637333 60.5124282,65.4550057 73.7585408,55.5144895 C87.0046535,45.5739733 95.0485309,17.5194504 64.5010364,18.9339923 C48.3151433,19.6835014 40.8102759,5.4463625 29.2309095,1.18886348 C18.9566389,-2.58877815 3.84887777,2.04064358 0.960026874,23.7299731 Z" id="Path-3"></path>
                </g>
                <g id="idea" transform="translate(23.555556, 9.000000)" fill-rule="nonzero">
                    <path d="M19.253667,10 C12.9245303,10 7.75366695,15.2406832 7.75366695,21.6552795 C7.75366695,25.0093168 9.20150868,28.2375776 11.6421562,30.4177019 C13.4623,32.2624224 13.2968324,36.2034161 13.2554655,36.2453416 C13.2554655,36.4549689 13.2968324,36.6226708 13.4623,36.7903727 C13.5864008,36.9161491 13.7932353,37 13.9587029,37 L24.5072641,37 C24.7140986,37 24.8795662,36.9161491 25.003667,36.7903727 C25.1277677,36.6645963 25.2105015,36.4549689 25.2105015,36.2453416 C25.2105015,36.2034161 25.003667,32.2624224 26.8238108,30.4177019 C26.8651777,30.3757764 26.9065447,30.3338509 26.9479116,30.2919255 C29.3471921,28.0698758 30.753667,24.9254658 30.753667,21.6552795 C30.753667,15.2406832 25.5828036,10 19.253667,10 Z M25.872372,29.3276398 C25.8310051,29.3695652 25.7482713,29.4534161 25.7482713,29.4953416 C24.1349619,31.2562112 23.8453936,34.1490683 23.8040267,35.5326087 L14.6619403,35.5326087 C14.6205734,34.1490683 14.3310051,31.1304348 12.593595,29.3276398 C10.401149,27.3990683 9.11877487,24.5900621 9.11877487,21.613354 C9.11877487,15.9534161 13.6277677,11.3835404 19.2123,11.3835404 C24.7968324,11.3835404 29.3058252,15.9534161 29.3058252,21.613354 C29.3058252,24.5900621 28.064818,27.3990683 25.872372,29.3276398 Z" id="Shape" fill="url(#linearGradient-1)"></path>
                    <path d="M19.4832567,12 C19.0970033,12 18.753667,12.3433476 18.753667,12.7296137 C18.753667,13.1158798 19.0970033,13.4592275 19.4832567,13.4592275 C23.8178781,13.4592275 27.2941586,16.9785408 27.2941586,21.2703863 C27.2941586,21.6566524 27.6374949,22 28.0237483,22 C28.4100017,22 28.7533381,21.6566524 28.7533381,21.2703863 C28.7962551,16.1630901 24.6333019,12 19.4832567,12 Z" id="Path" fill="#FFDC5D"></path>
                    <path d="M23.9693532,38 L14.5379807,38 C13.5608565,38 12.753667,38.9047619 12.753667,40 C12.753667,41.0952381 13.5608565,42 14.5379807,42 L23.9268696,42 C24.9464774,41.952381 25.753667,41.0952381 25.753667,40 C25.753667,38.9047619 24.9464774,38 23.9693532,38 Z M23.9693532,40.3333333 L14.5379807,40.3333333 C14.368046,40.3333333 14.1981114,40.1904762 14.1981114,39.952381 C14.1981114,39.7142857 14.3255624,39.5714286 14.5379807,39.5714286 L23.9268696,39.5714286 C24.0968042,39.5714286 24.2667388,39.7142857 24.2667388,39.952381 C24.2667388,40.1904762 24.1392879,40.3333333 23.9693532,40.3333333 Z" id="Shape" fill="url(#linearGradient-2)"></path>
                    <path d="M23.003667,43 L16.503667,43 C15.5453336,43 14.753667,43.9047619 14.753667,45 C14.753667,46.0952381 15.5453336,47 16.503667,47 L23.003667,47 C23.9620003,47 24.753667,46.0952381 24.753667,45 C24.753667,43.8571429 23.9620003,43 23.003667,43 Z M23.003667,45.3333333 L16.503667,45.3333333 C16.3370003,45.3333333 16.1703336,45.1904762 16.1703336,44.952381 C16.1703336,44.7142857 16.2953336,44.5714286 16.503667,44.5714286 L23.003667,44.5714286 C23.1703336,44.5714286 23.3370003,44.7142857 23.3370003,44.952381 C23.3370003,45.1904762 23.1703336,45.3333333 23.003667,45.3333333 Z" id="Shape" fill="url(#linearGradient-3)"></path>
                    <path d="M19.253667,6 C19.5477846,6 19.753667,5.68 19.753667,5.32 L19.753667,0.68 C19.753667,0.32 19.5183728,0 19.253667,0 C18.9889611,0 18.753667,0.32 18.753667,0.68 L18.753667,5.32 C18.753667,5.68 18.9889611,6 19.253667,6 Z" id="Path" fill="#FFDC5D"></path>
                    <path d="M30.4479364,4.12352563 C30.1213302,3.89314101 29.7130725,4.00833332 29.5089437,4.27711537 L26.8960944,7.96326923 C26.6511398,8.27044872 26.7327914,8.69282051 27.0593975,8.88480769 C27.1818748,8.96160256 27.3043521,9 27.4268294,9 C27.6717841,9 27.8759129,8.88480769 27.9983902,8.69282051 L30.6112395,5.00666665 C30.8561941,4.7378846 30.7745425,4.31551281 30.4479364,4.12352563 Z" id="Path" fill="#FFDC5D"></path>
                    <path d="M11.0600172,9 C11.1844315,9 11.3088458,8.96204241 11.4332602,8.88612723 C11.7650317,8.69633929 11.8479745,8.2788058 11.6406173,7.97514509 L9.06938824,4.29325893 C8.86203105,3.98959822 8.40584525,3.91368304 8.07407375,4.10347099 C7.74230225,4.29325893 7.65935938,4.71079242 7.86671656,5.01445313 L10.4379457,8.69633929 C10.6038314,8.92408482 10.8111886,9 11.0600172,9 Z" id="Path" fill="#FFDC5D"></path>
                    <path d="M5.42948737,13.5579747 L1.69352634,11.0794938 C1.39760863,10.8992406 0.990721789,11.0344305 0.842762936,11.3949368 C0.65781437,11.7554431 0.768783509,12.2511393 1.10169093,12.4313925 L4.83765196,14.9098734 C4.9486211,14.9549367 5.02260053,15 5.13356967,15 C5.35550795,15 5.57744623,14.8648101 5.68841537,14.5944304 C5.83637422,14.2339241 5.72540508,13.7382279 5.42948737,13.5579747 Z" id="Path" fill="#FFDC5D"></path>
                    <path d="M37.6755704,11.3949368 C37.4984853,11.0344305 37.0115014,10.8992406 36.6573313,11.0794938 L32.1416624,13.5579747 C31.7874923,13.7382279 31.6546785,14.2339241 31.8317635,14.5944304 C31.9645773,14.8648101 32.2302049,15 32.4958325,15 C32.6286463,15 32.7614601,14.9549367 32.8500026,14.9098734 L37.3656715,12.4313925 C37.7198416,12.2511393 37.8526554,11.7554431 37.6755704,11.3949368 Z" id="Path" fill="#FFDC5D"></path>
                </g>
            </g>
        </g>
    </g>
</svg>