<?xml version="1.0" encoding="UTF-8"?>
<svg width="17px" height="17px" viewBox="0 0 17 17" version="1.1" xmlns="http://www.w3.org/2000/svg" xmlns:xlink="http://www.w3.org/1999/xlink">
    <title>0C407522-FB9E-4F4E-8967-857ADF943A87</title>
    <g id="Menu-1" stroke="none" stroke-width="1" fill="none" fill-rule="evenodd">
        <g id="Principal-actividades-tipo-1" transform="translate(-297.000000, -324.000000)">
            <g id="Group-13" transform="translate(32.000000, 315.000000)">
                <g id="atoms-/-icons-/-outline-/-arrow_right-2" transform="translate(265.000000, 9.000000)">
                    <g id="atoms-/-icons-/-outline-/-arrow_right" transform="translate(8.500000, 8.500000) rotate(-270.000000) translate(-8.500000, -8.500000) ">
                        <rect id="bg-base" x="0" y="0" width="17" height="17"></rect>
                        <path d="M11.5357143,10.3214286 L10.8880952,10.3214286 L10.6452698,10.0785714 C11.4547937,9.18809524 11.9405079,7.97380952 11.9405079,6.67857143 C11.9404762,3.76428571 9.59285714,1.41666667 6.67857143,1.41666667 C3.76428571,1.41666667 1.41666667,3.76428571 1.41666667,6.67857143 C1.41666667,9.59285714 3.76428571,11.9404762 6.67857143,11.9404762 C7.97380952,11.9404762 9.18809524,11.4547619 10.0785714,10.6452381 L10.3214286,10.8880635 L10.3214286,11.5356825 L14.3690476,15.5833333 L15.5833333,14.3690476 L11.5357143,10.3214286 Z M6.67857143,10.3214286 C4.6547619,10.3214286 3.03571429,8.70238095 3.03571429,6.67857143 C3.03571429,4.6547619 4.6547619,3.03571429 6.67857143,3.03571429 C8.70238095,3.03571429 10.3214286,4.6547619 10.3214286,6.67857143 C10.3214286,8.70238095 8.70238095,10.3214286 6.67857143,10.3214286 Z" id="searching-magnifying-glass-" fill="#016D38"></path>
                    </g>
                </g>
            </g>
        </g>
    </g>
</svg>