<?xml version="1.0" encoding="UTF-8"?>
<svg width="23px" height="23px" viewBox="0 0 23 23" version="1.1" xmlns="http://www.w3.org/2000/svg" xmlns:xlink="http://www.w3.org/1999/xlink">
    <title>send</title>
    <g id="Mi-comunidad" stroke="none" stroke-width="1" fill="none" fill-rule="evenodd">
        <g id="Comentarios-3" transform="translate(-308.000000, -440.000000)" fill="#ABABAB" fill-rule="nonzero">
            <g id="send" transform="translate(319.500000, 451.500000) rotate(-315.000000) translate(-319.500000, -451.500000) translate(312.000000, 444.000000)">
                <path d="M14.8712928,0.128735915 C14.7469863,0.00439977803 14.5604827,-0.0338327052 14.3973579,0.031440837 L0.276255026,5.6798288 C0.114682991,5.74445781 0.00648978633,5.89832525 0.000278857703,6.07226107 C-0.00590277409,6.2461676 0.0911283373,6.40732997 0.247690614,6.48326759 L5.8160811,9.18388716 L8.51672177,14.7522945 C8.59037401,14.9041698 8.74418238,15 8.91202394,15 C8.91723878,15 8.92248291,15 8.92772704,14.999707 C9.10160375,14.9935254 9.25552931,14.8853318 9.32012883,14.7237593 L14.9685583,0.602701519 C15.0338316,0.43945907 14.9955992,0.253042755 14.8712928,0.128735915 Z M1.52617512,6.12648967 L12.7359052,1.64262506 L6.05537763,8.32311429 L1.52617512,6.12648967 Z M8.87349861,13.4738354 L6.67685135,8.9445606 L13.3574082,2.26407137 L8.87349861,13.4738354 Z" id="Shape"></path>
            </g>
        </g>
    </g>
</svg>