<?xml version="1.0" encoding="UTF-8"?>
<svg width="23px" height="23px" viewBox="0 0 23 23" version="1.1" xmlns="http://www.w3.org/2000/svg" xmlns:xlink="http://www.w3.org/1999/xlink">
    <title>Group 3</title>
    <g id="Green-Button" stroke="none" stroke-width="1" fill="none" fill-rule="evenodd">
        <g id="mvp-home-" transform="translate(-319.000000, -29.000000)">
            <g id="Group-3" transform="translate(319.000000, 29.000000)">
                <path d="M11.5,21.5 C10.417,21.5 9.535,20.664 9.439,19.605 L13.561,19.605 C13.465,20.664 12.583,21.5 11.5,21.5 M4.589,18.027 L4.589,13.128 C4.589,8.588 7.689,4.895 11.5,4.895 C15.311,4.895 18.411,8.588 18.411,13.128 L18.411,18.027 C18.411,18.055 18.424,18.078 18.427,18.105 L4.573,18.105 C4.576,18.078 4.589,18.055 4.589,18.027 M22.25,18.105 L19.896,18.105 C19.898,18.078 19.911,18.055 19.911,18.027 L19.911,13.128 C19.911,8.038 16.516,3.855 12.209,3.437 C12.229,3.37 12.25,3.306 12.25,3.234 L12.25,0.75 C12.25,0.336 11.914,0 11.5,0 C11.086,0 10.75,0.336 10.75,0.75 L10.75,3.234 C10.75,3.306 10.771,3.37 10.791,3.437 C6.484,3.855 3.089,8.038 3.089,13.128 L3.089,18.027 C3.089,18.055 3.102,18.078 3.104,18.105 L0.75,18.105 C0.336,18.105 0,18.441 0,18.855 C0,19.27 0.336,19.605 0.75,19.605 L7.939,19.605 C8.038,21.492 9.59,23 11.5,23 C13.41,23 14.962,21.492 15.061,19.605 L22.25,19.605 C22.664,19.605 23,19.27 23,18.855 C23,18.441 22.664,18.105 22.25,18.105" id="Fill-1" fill="#016D38"></path>
                <circle id="Oval" fill="#02D46F" cx="17.5" cy="5.5" r="3.5"></circle>
            </g>
        </g>
    </g>
</svg>