<?xml version="1.0" encoding="UTF-8"?>
<svg width="23px" height="23px" viewBox="0 0 23 23" version="1.1" xmlns="http://www.w3.org/2000/svg" xmlns:xlink="http://www.w3.org/1999/xlink">
    <title>Fill 1</title>
    <g id="Menu-1" stroke="none" stroke-width="1" fill="none" fill-rule="evenodd">
        <g id="Bienestar-Home" transform="translate(-319.000000, -22.000000)" fill="#016D38">
            <path d="M330.5,43.5 C329.417,43.5 328.535,42.664 328.439,41.605 L332.561,41.605 C332.465,42.664 331.583,43.5 330.5,43.5 M323.589,40.027 L323.589,35.128 C323.589,30.588 326.689,26.895 330.5,26.895 C334.311,26.895 337.411,30.588 337.411,35.128 L337.411,40.027 C337.411,40.055 337.424,40.078 337.427,40.105 L323.573,40.105 C323.576,40.078 323.589,40.055 323.589,40.027 M341.25,40.105 L338.896,40.105 C338.898,40.078 338.911,40.055 338.911,40.027 L338.911,35.128 C338.911,30.038 335.516,25.855 331.209,25.437 C331.229,25.37 331.25,25.306 331.25,25.234 L331.25,22.75 C331.25,22.336 330.914,22 330.5,22 C330.086,22 329.75,22.336 329.75,22.75 L329.75,25.234 C329.75,25.306 329.771,25.37 329.791,25.437 C325.484,25.855 322.089,30.038 322.089,35.128 L322.089,40.027 C322.089,40.055 322.102,40.078 322.104,40.105 L319.75,40.105 C319.336,40.105 319,40.441 319,40.855 C319,41.27 319.336,41.605 319.75,41.605 L326.939,41.605 C327.038,43.492 328.59,45 330.5,45 C332.41,45 333.962,43.492 334.061,41.605 L341.25,41.605 C341.664,41.605 342,41.27 342,40.855 C342,40.441 341.664,40.105 341.25,40.105" id="Fill-1"></path>
        </g>
    </g>
</svg>