<?xml version="1.0" encoding="UTF-8"?>
<svg width="244px" height="176px" viewBox="0 0 244 176" version="1.1" xmlns="http://www.w3.org/2000/svg" xmlns:xlink="http://www.w3.org/1999/xlink">
    <title>0898E8B5-2C1E-4699-9AC0-5EA6FB9E8359</title>
    <defs>
        <linearGradient x1="50%" y1="23.8167934%" x2="49.9978653%" y2="88.810701%" id="linearGradient-1">
            <stop stop-color="#10B457" offset="0%"></stop>
            <stop stop-color="#4ED64D" offset="25.8547966%"></stop>
            <stop stop-color="#F9DC02" offset="100%"></stop>
        </linearGradient>
    </defs>
    <g id="Home" stroke="none" stroke-width="1" fill="none" fill-rule="evenodd">
        <g id="home-petición-de-datos-prop-2" transform="translate(-58.000000, -117.000000)">
            <g id="Group-3" transform="translate(58.000000, 117.000000)">
                <path d="M1.15732426,67.3625042 C-16.4245505,198.322856 171.556153,185.807758 209.457599,157.589519 C247.359044,129.371279 270.375199,49.7326335 182.968861,53.7481072 C136.655746,55.8757458 115.181874,15.4606419 82.0495332,3.37483827 C52.6514967,-7.34878959 9.42326818,5.79279467 1.15732426,67.3625042 Z" id="Path-3" fill="url(#linearGradient-1)"></path>
                <g id="plugin" transform="translate(41.000000, 10.000000)" fill-rule="nonzero">
                    <g id="Group" transform="translate(48.000000, 57.000000)" fill="#FFDC5D">
                        <path d="M7.66979775,29.5784407 L0.0909213483,21.9567458 L20.1036854,1.83091525 C22.1977079,-0.274937853 25.5913708,-0.274937853 27.6825618,1.83091525 L27.6825618,1.83091525 C29.7765843,3.93676836 29.7765843,7.34960452 27.6825618,9.45261017 L7.66979775,29.5784407 Z" id="Path"></path>
                        <path d="M34.5752809,55.8819887 L26.9964045,48.2602938 L46.6341573,28.5115932 C48.7281798,26.4057401 52.1218427,26.4057401 54.2130337,28.5115932 L54.2130337,28.5115932 C56.3070562,30.6174463 56.3070562,34.0302825 54.2130337,36.1332881 L34.5752809,55.8819887 Z" id="Path"></path>
                    </g>
                    <polygon id="Rectangle" fill="#6C797A" transform="translate(145.339978, 16.349784) rotate(-135.000000) translate(-145.339978, -16.349784) " points="139.959924 -1.3904673 150.720031 -1.3904673 150.720031 34.0900345 139.959924 34.0900345"></polygon>
                    <path d="M133.696474,47 L115,28.3035262 L121.69875,21.6047763 C123.838452,19.4650746 127.307164,19.4650746 129.446866,21.6047763 L140.395224,32.5531339 C142.534925,34.6928356 142.534925,38.1615484 140.395224,40.3012501 L133.696474,47 Z" id="Path" fill="#AFB6BB"></path>
                    <path d="M121.589674,90 L72,40.4120701 L88.6836663,23.7289907 C96.3225893,16.0903364 108.707422,16.0903364 116.346345,23.7289907 L138.270808,45.6526821 C145.909731,53.2913364 145.909731,65.6757334 138.270808,73.3143877 L121.589674,90 Z" id="Path" fill="#E7ECED"></path>
                    <path d="M116.228974,40.999025 C115.519822,40.999025 114.810671,40.7178899 114.270648,40.1585448 L106.708769,32.3231632 C104.664467,30.2057121 101.33773,30.2057121 99.2909169,32.3231632 L91.7290378,40.1585448 C90.6486797,41.2804851 88.895255,41.2804851 87.8123866,40.1585448 C86.7292045,39.0366044 86.7292045,37.2233643 87.8123866,36.101749 L95.3742658,28.2663674 C99.5789706,23.9112109 106.418205,23.9112109 110.625734,28.2663674 L118.187613,36.101749 C119.270796,37.2236893 119.270796,39.0369295 118.187613,40.1585448 C117.644453,40.720815 116.935615,40.999025 116.228974,40.999025 Z" id="Path" fill="#AFB6BB"></path>
                    <polygon id="Rectangle" fill="#6C797A" transform="translate(16.558019, 145.170061) rotate(45.000000) translate(-16.558019, -145.170061) " points="11.1779651 127.163602 21.9380725 127.163602 21.9380725 163.17652 11.1779651 163.17652"></polygon>
                    <path d="M28.3035262,115 L47,133.696474 L40.3012501,140.395224 C38.1615484,142.534925 34.6928356,142.534925 32.5531339,140.395224 L21.6047763,129.446866 C19.4650746,127.307164 19.4650746,123.838452 21.6047763,121.69875 L28.3035262,115 Z" id="Path" fill="#AFB6BB"></path>
                    <path d="M43.2924023,68 L93,117.707805 L72.4510613,138.25683 C64.793533,145.91439 52.378536,145.91439 44.7210077,138.25683 L22.7431462,116.278876 C15.0856179,108.621316 15.0856179,96.2062674 22.7431462,88.5487071 L43.2924023,68 Z" id="Path" fill="#E7ECED"></path>
                    <polygon id="Rectangle" fill="#CCCCCC" transform="translate(53.289533, 108.433716) rotate(-135.000000) translate(-53.289533, -108.433716) " points="29.0791336 97.6736086 77.4999324 97.6736086 77.4999324 119.193823 29.0791336 119.193823"></polygon>
                    <path d="M59.2098513,117 C58.4957249,117 57.7815985,116.726703 57.2377881,116.182954 L45.8180855,104.761681 C44.7273048,103.671022 44.7273048,101.908337 45.8180855,100.817994 C46.9088662,99.7273352 48.6717472,99.7273352 49.7622119,100.817994 L61.1819145,112.239267 C62.2726952,113.329926 62.2726952,115.09261 61.1819145,116.182954 C60.6381041,116.729231 59.9239777,117 59.2098513,117 Z" id="Path" fill="#FFFFFF"></path>
                </g>
            </g>
        </g>
    </g>
</svg>