<?xml version="1.0" encoding="UTF-8"?>
<svg width="41px" height="45px" viewBox="0 0 41 45" version="1.1" xmlns="http://www.w3.org/2000/svg" xmlns:xlink="http://www.w3.org/1999/xlink">
    <title>Group 4</title>
    <g id="Menu-1" stroke="none" stroke-width="1" fill="none" fill-rule="evenodd">
        <g id="Legal" transform="translate(-247.000000, -195.000000)">
            <g id="Group-4" transform="translate(247.413574, 195.000000)">
                <g id="Group-5" fill="#05571B" transform="translate(0.586426, -0.000000)">
                    <g id="terms" transform="translate(0.000000, -0.000000)">
                        <path d="M38.4428571,34.1129032 C38.4374678,29.586284 35.0978753,25.8164068 30.7542857,25.4337097 L30.7542857,6.53225806 C30.7542925,6.33975954 30.6806566,6.1551427 30.5495775,6.01902218 L24.9578892,0.212570565 C24.8268034,0.0764570601 24.6490149,0 24.4636364,0 L0.698961039,0 C0.312935516,0 0,0.324954617 0,0.725806452 L0,44.2741935 C0,44.6750454 0.312935516,45 0.698961039,45 L30.0553247,45 C30.4413502,45 30.7542857,44.6750454 30.7542857,44.2741935 L30.7542857,42.7920968 C35.0978753,42.4093996 38.4374678,38.6395225 38.4428571,34.1129032 Z M25.1625974,2.47799395 L28.3679454,5.80645161 L25.1625974,5.80645161 L25.1625974,2.47799395 Z M1.39792208,43.5483871 L1.39792208,1.4516129 L23.7646753,1.4516129 L23.7646753,6.53225806 C23.7646753,6.9331099 24.0776108,7.25806452 24.4636364,7.25806452 L29.3563636,7.25806452 L29.3563636,25.4337097 C25.011134,25.812215 21.6699682,29.5849359 21.6699682,34.1129032 C21.6699682,38.6408706 25.011134,42.4135915 29.3563636,42.7920968 L29.3563636,43.5483871 L1.39792208,43.5483871 Z M30.0553247,41.3709677 C26.1950694,41.3709677 23.0657143,38.1214216 23.0657143,34.1129032 C23.0657143,30.1043849 26.1950694,26.8548387 30.0553247,26.8548387 C33.9155799,26.8548387 37.0449351,30.1043849 37.0449351,34.1129032 C37.0405536,38.1195355 33.9137636,41.366418 30.0553247,41.3709677 L30.0553247,41.3709677 Z" id="Shape"></path>
                        <path d="M33.9925813,31.2092174 C33.8781469,31.0752581 33.7229369,31 33.561098,31 C33.399259,31 33.244049,31.0752581 33.1296146,31.2092174 L29.1951604,35.8147305 L26.5527156,33.9588827 C26.3657794,33.8275908 26.1332058,33.8230111 25.9426029,33.9468687 C25.752,34.0707263 25.6323249,34.3042043 25.6286581,34.5593538 C25.6249913,34.8145033 25.7378899,35.0525611 25.924826,35.183853 L28.9757957,37.3266581 C29.2158431,37.4953659 29.523175,37.4511931 29.7212238,37.2195179 L33.9925813,32.2196393 C34.1070917,32.085676 34.1714286,31.9039361 34.1714286,31.7144283 C34.1714286,31.5249206 34.1070917,31.3431806 33.9925813,31.2092174 L33.9925813,31.2092174 Z" id="Path"></path>
                    </g>
                </g>
                <line x1="2.96189712" y1="2.47799395" x2="2.96189712" y2="42.5603527" id="Path-21" stroke="#FFDC5D" stroke-width="2" stroke-linecap="square"></line>
            </g>
        </g>
    </g>
</svg>