<?xml version="1.0" encoding="UTF-8"?>
<svg width="55px" height="46px" viewBox="0 0 55 46" version="1.1" xmlns="http://www.w3.org/2000/svg" xmlns:xlink="http://www.w3.org/1999/xlink">
    <title>Group 11</title>
    <g id="Menu-1" stroke="none" stroke-width="1" fill="none" fill-rule="evenodd">
        <g id="Centro-de-ayuda-1" transform="translate(-240.000000, -195.000000)">
            <g id="Group-11" transform="translate(241.000000, 196.000000)">
                <g id="Group-10" transform="translate(0.959124, -0.000000)">
                    <g id="Group" transform="translate(0.144840, -0.000000)" fill-rule="nonzero" stroke="#05571B" stroke-width="1.5">
                        <path d="M25.5770732,4.9041381e-14 C11.5038334,4.9041381e-14 0.0979403823,9.14375 0.0979403823,20.4285714 C0.0979403823,25.1035714 2.07854485,29.3857143 5.36296432,32.8330357 C3.87999917,36.7026786 0.794635421,39.9830357 0.74487149,40.0223214 C0.087987596,40.7098214 -0.0911625568,41.7116071 0.287043321,42.5758929 C0.6652492,43.4401786 1.52118882,44 2.4766563,44 C8.59761986,44 13.4247212,41.4758929 16.320982,39.4526786 C19.20729,40.3464286 22.3125593,40.8571429 25.5770732,40.8571429 C39.650313,40.8571429 51.0562061,31.7133929 51.0562061,20.4285714 C51.0562061,9.14375 39.650313,4.9041381e-14 25.5770732,4.9041381e-14 Z" id="Path"></path>
                    </g>
                    <path d="M17.1940203,38.2435912 C21.3867245,39.2070608 24.5571428,39.6315859 26.7052752,39.5171665 C37.1875388,38.9588332 45.3402643,33.8379982 48.8866052,25.5366227 C49.7520107,23.5108572 49.920353,21.302138 49.6194309,18.9567037" id="Path-18" stroke="#FFDC5D" stroke-width="2" stroke-linecap="round"></path>
                </g>
            </g>
        </g>
    </g>
</svg>