<?xml version="1.0" encoding="UTF-8"?>
<svg width="22px" height="22px" viewBox="0 0 22 22" version="1.1" xmlns="http://www.w3.org/2000/svg" xmlns:xlink="http://www.w3.org/1999/xlink">
    <title>info</title>
    <defs>
        <filter id="filter-1">
            <feColorMatrix in="SourceGraphic" type="matrix" values="0 0 0 0 1.000000 0 0 0 0 1.000000 0 0 0 0 1.000000 0 0 0 1.000000 0"></feColorMatrix>
        </filter>
    </defs>
    <g id="Menu-1" stroke="none" stroke-width="1" fill="none" fill-rule="evenodd">
        <g id="info" transform="translate(-17.000000, -198.000000)" filter="url(#filter-1)">
            <g transform="translate(17.500000, 199.000000)">
                <path d="M11,4 C10.1727447,4 9.5,4.67270959 9.5,5.5 C9.5,6.32729041 10.1727096,7 11,7 C11.8272904,7 12.5,6.32729041 12.5,5.5 C12.5,4.67270959 11.8272553,4 11,4 Z M11,6.24998242 C10.5865657,6.24998242 10.2500176,5.91343427 10.2500176,5.5 C10.2500176,5.08656573 10.5865657,4.75001758 11,4.75001758 C11.4134343,4.75001758 11.7499824,5.08656573 11.7499824,5.5 C11.7499824,5.91343427 11.4134343,6.24998242 11,6.24998242 Z" id="Shape" fill="#000000" fill-rule="nonzero"></path>
                <path d="M12.099955,8 L8.9000075,8 C8.67891026,8 8.5,8.18297765 8.5,8.40910137 L8.5,10.0454685 C8.5,10.2715922 8.67891026,10.4545699 8.9000075,10.4545699 L9.300015,10.4545699 L9.300015,16.5908986 C9.300015,16.8170223 9.47892526,17 9.7000225,17 L12.0999925,17 C12.3210897,17 12.5,16.8170223 12.5,16.5908986 L12.5,8.40910137 C12.5,8.18297765 12.3210522,8 12.099955,8 Z M11.6999475,16.1817589 L10.099955,16.1817589 L10.099955,10.0454301 C10.099955,9.81930642 9.92104474,9.63632877 9.6999475,9.63632877 L9.29994,9.63632877 L9.29994,8.81816439 L11.69991,8.81816439 L11.69991,16.1817589 L11.6999475,16.1817589 Z" id="Shape" fill="#000000" fill-rule="nonzero"></path>
                <path d="M10.5,0 C4.98609375,0 0.5,4.48609375 0.5,10 C0.5,15.5139062 4.98609375,20 10.5,20 C16.0139062,20 20.5,15.5139062 20.5,10 C20.5,4.48609375 16.0139062,0 10.5,0 Z M10.5,19.1666797 C5.44546875,19.1666797 1.33332031,15.0545313 1.33332031,10 C1.33332031,4.94546875 5.44546875,0.833320312 10.5,0.833320312 C15.5545313,0.833320312 19.6666797,4.94546875 19.6666797,10 C19.6666797,15.0545313 15.5545313,19.1666797 10.5,19.1666797 Z" id="Shape" stroke="#979797" stroke-width="0.5" fill="#000000" fill-rule="nonzero"></path>
            </g>
        </g>
    </g>
</svg>