<?xml version="1.0" encoding="UTF-8"?>
<svg width="24px" height="18px" viewBox="0 0 24 18" version="1.1" xmlns="http://www.w3.org/2000/svg" xmlns:xlink="http://www.w3.org/1999/xlink">
    <title>icon / mail</title>
    <defs>
        <filter id="filter-1">
            <feColorMatrix in="SourceGraphic" type="matrix" values="0 0 0 0 0.393439 0 0 0 0 0.395126 0 0 0 0 0.394298 0 0 0 1.000000 0"></feColorMatrix>
        </filter>
    </defs>
    <g id="Menu-1" stroke="none" stroke-width="1" fill="none" fill-rule="evenodd">
        <g id="Panel-perfil-avatar" transform="translate(-299.000000, -586.000000)">
            <g id="filled" transform="translate(24.000000, 551.000000)">
                <g id="Group" transform="translate(0.000000, 20.000000)">
                    <g transform="translate(275.000000, 12.000000)" id="mail" filter="url(#filter-1)">
                        <g transform="translate(0.000000, 3.000000)">
                            <path d="M21.5,0.1 L2.5,0.1 C1.1,0.1 0,1.2 0,2.6 L0,15.5 C0,16.9 1.1,18 2.5,18 L21.5,18 C22.9,18 24,16.9 24,15.5 L24,2.6 C24,1.2 22.9,0.1 21.5,0.1 Z M22.6,13.1 L17.9,9.2 L22.6,5.7 L22.6,13.1 Z M2.5,1.5 L21.5,1.5 C22.1,1.5 22.6,2 22.6,2.6 L22.6,4 L12,11.9 L1.4,4 L1.4,2.6 C1.4,2 1.9,1.5 2.5,1.5 Z M1.4,5.7 L6.1,9.2 L1.4,13.1 L1.4,5.7 Z M21.5,16.5 L2.5,16.5 C1.9,16.5 1.4,16 1.4,15.4 L1.4,15 L7.2,10.1 L11.5,13.3 C11.6,13.4 11.8,13.4 11.9,13.4 C12,13.4 12.2,13.4 12.3,13.3 L16.6,10.1 L22.4,15 L22.4,15.5 C22.6,16 22.1,16.5 21.5,16.5 Z" id="Shape" fill="#016D38"></path>
                        </g>
                    </g>
                </g>
            </g>
        </g>
    </g>
</svg>