<?xml version="1.0" encoding="UTF-8"?>
<svg width="62px" height="40px" viewBox="0 0 62 40" version="1.1" xmlns="http://www.w3.org/2000/svg" xmlns:xlink="http://www.w3.org/1999/xlink">
    <title>Group 3</title>
    <g id="Menu-1" stroke="none" stroke-width="1" fill="none" fill-rule="evenodd">
        <g id="Centro-de-ayuda-1" transform="translate(-65.000000, -399.000000)">
            <g id="Group-3" transform="translate(65.000000, 399.000000)">
                <g id="Group-14" transform="translate(0.055556, 0.000000)">
                    <path d="M57.8716116,0 L3.12826928,0 C1.40764374,0 0,1.38456761 0,3.07686899 L0,36.9230138 C0,38.615198 1.40764374,40 3.12826928,40 L57.8717307,40 C59.592118,40 61,38.6154324 61,36.9230138 L61,3.07686899 C61,1.38456761 59.5922371,0 57.8716116,0 Z M58.0967914,1.11111111 L32.3956514,20.5382599 C31.9335515,20.8926489 31.2242118,21.1143634 30.4999372,21.1111111 C29.7757882,21.1143634 29.066574,20.8926489 28.6043486,20.5382599 L2.90320856,1.11111111 L58.0967914,1.11111111 Z M44.151834,21.9221604 L57.9380837,38.8437147 C57.9519206,38.860655 57.9688461,38.8735444 57.9835478,38.8888889 L3.01694636,38.8888889 C3.03152453,38.8728078 3.04857357,38.860655 3.06241047,38.8437147 L16.8486601,21.9221604 C17.2710563,21.4032705 17.1909999,20.6425512 16.6677921,20.2218662 C16.1455725,19.8021633 15.3799718,19.8817092 14.9574521,20.4007218 L1.3058651,37.1570464 L1.3058651,3.33333333 L27.17519,22.6116812 C28.147603,23.3312772 29.3306582,23.6479878 30.5,23.6511795 C31.6677357,23.6487243 32.8517793,23.3320137 33.82481,22.6116812 L59.6941349,3.33333333 L59.6941349,37.1568009 L46.0429186,20.4007218 C45.6203989,19.881832 44.8540568,19.8020405 44.3325786,20.2218662 C43.8094942,20.6415692 43.7291908,21.4032705 44.151834,21.9221604 Z" id="Shape" fill="#05571B" fill-rule="nonzero"></path>
                    <path d="M3.57881949,1.98202825 L27.7678011,20 L27.8806626,20.0600472 C29.5040672,20.9237681 31.4556066,20.9011364 33.0585443,20 L33.0585443,20 L33.0585443,20 L57.3932341,1.98202825" id="Path-24" stroke="#FFDC5D" stroke-width="2" stroke-linecap="round"></path>
                </g>
            </g>
        </g>
    </g>
</svg>