<?xml version="1.0" encoding="UTF-8"?>
<svg width="20px" height="20px" viewBox="0 0 20 20" version="1.1" xmlns="http://www.w3.org/2000/svg" xmlns:xlink="http://www.w3.org/1999/xlink">
    <title>icon / mail</title>
    <g id="Menu-1" stroke="none" stroke-width="1" fill="none" fill-rule="evenodd">
        <g id="Panel-perfil-avatar" transform="translate(-301.000000, -668.000000)">
            <g id="filled-copy-2" transform="translate(24.000000, 634.000000)">
                <g id="Group" transform="translate(0.000000, 20.000000)">
                    <g transform="translate(275.000000, 12.000000)" id="icon-/-mail">
                        <rect id="bg-base" x="0" y="0" width="24" height="24"></rect>
                        <path d="M6,10.6666667 C7.55555556,13.7777778 10.2222222,16.3333333 13.3333333,18 L15.7777778,15.5555556 C16.1110675,15.2222658 16.5555556,15.1111547 16.8888889,15.3333333 C18.1111111,15.7777778 19.4444009,16 20.8888889,16 C21.5555556,16 22,16.4444444 22,17.1111111 L22,20.8888889 C22,21.5555556 21.5555556,22 20.8888889,22 C10.4444444,22 2,13.5555556 2,3.11111111 C2,2.44444444 2.44444444,2 3.11111111,2 L7,2 C7.66666667,2 8.11111111,2.44444444 8.11111111,3.11111111 C8.11111111,4.44444444 8.33333333,5.77777778 8.77777778,7.11111111 C8.88888889,7.44444444 8.77777778,7.88888889 8.55555556,8.22222222 L6,10.6666667 Z" id="phone-call-button-" fill="#016D38"></path>
                    </g>
                </g>
            </g>
        </g>
    </g>
</svg>