<?xml version="1.0" encoding="UTF-8"?>
<svg width="18px" height="20px" viewBox="0 0 18 20" version="1.1" xmlns="http://www.w3.org/2000/svg" xmlns:xlink="http://www.w3.org/1999/xlink">
    <title>icon / mail</title>
    <g id="Menu-1" stroke="none" stroke-width="1" fill="none" fill-rule="evenodd">
        <g id="Panel-perfil-avatar" transform="translate(-302.000000, -751.000000)">
            <g id="filled-copy" transform="translate(24.000000, 717.000000)">
                <g id="Group" transform="translate(0.000000, 20.000000)">
                    <g transform="translate(275.000000, 12.000000)" id="icon-/-mail">
                        <rect id="bg-base" x="0" y="0" width="24" height="24"></rect>
                        <path d="M17,11 L7,11 L7,13 L17,13 L17,11 L17,11 Z M19,4 L18,4 L18,2 L16,2 L16,4 L8,4 L8,2 L6,2 L6,4 L5,4 C3.89,4 3.01,4.9 3.01,6 L3,20 C3,21.1 3.89,22 5,22 L19,22 C20.1,22 21,21.1 21,20 L21,6 C21,4.9 20.1,4 19,4 L19,4 Z M19,20 L5,20 L5,9 L19,9 L19,20 L19,20 Z M14,15 L7,15 L7,17 L14,17 L14,15 L14,15 Z" id="Shape" fill="#016D38"></path>
                    </g>
                </g>
            </g>
        </g>
    </g>
</svg>