<svg width="58" height="58" viewBox="0 0 58 58" fill="none" xmlns="http://www.w3.org/2000/svg">
<g filter="url(#filter0_d)">
<circle cx="29" cy="27" r="25" fill="white"/>
</g>
<path d="M22.1526 18.0435C22.5773 17.8312 20.2056 39.9061 29.7178 41.3695C21.5222 41.3695 19.8559 36.3985 19.6309 30.6521C19.9257 29.0155 20.3476 28.6174 21.5222 28.7608L22.1526 18.0435Z" fill="#FFDC5D"/>
<path d="M23.7658 13C23.4886 13 23.2637 13.2091 23.2637 13.4669V15.3355C23.2637 15.5933 23.4886 15.8024 23.7658 15.8024C24.043 15.8024 24.2679 15.5933 24.2679 15.3355V13.4669C24.2685 13.2091 24.0436 13 23.7658 13Z" fill="#016D38"/>
<path d="M21.2785 16.3393L19.8579 15.0178C19.6615 14.8352 19.3436 14.8352 19.1473 15.0178C18.9509 15.2004 18.9509 15.496 19.1473 15.6785L20.5679 17.0001C20.6658 17.0911 20.7946 17.1368 20.9229 17.1368C21.0518 17.1368 21.18 17.0911 21.2779 17.0001C21.4749 16.8175 21.4749 16.5213 21.2785 16.3393Z" fill="#016D38"/>
<path d="M28.384 15.0178C28.1876 14.8352 27.8697 14.8352 27.6734 15.0178L26.2527 16.3393C26.0564 16.5219 26.0564 16.8175 26.2527 17.0001C26.3506 17.0911 26.4795 17.1368 26.6077 17.1368C26.736 17.1368 26.8649 17.0911 26.9627 17.0001L28.3834 15.6785C28.5803 15.496 28.5803 15.2004 28.384 15.0178Z" fill="#016D38"/>
<path d="M35.789 25.2625C35.1432 25.2625 34.5528 25.484 34.1034 25.8479C33.7432 24.9644 32.8099 24.3329 31.719 24.3329C31.0732 24.3329 30.4828 24.5545 30.0334 24.9183C29.6733 24.0349 28.74 23.4034 27.6491 23.4034C27.0771 23.4034 26.5483 23.5771 26.1229 23.8696V19.1903C26.1229 17.9093 24.9815 16.8667 23.5791 16.8667C22.1767 16.8667 21.0353 17.9093 21.0353 19.1903V28.0978C19.8754 28.3137 19 29.2523 19 30.3747V33.1628C19 37.5187 22.4494 41.1875 27.1018 41.8763C27.1042 41.8769 27.1073 41.878 27.1098 41.8786C27.1276 41.8831 27.1461 41.8865 27.1652 41.8893C28.575 42.0945 29.9669 42.009 31.2653 41.6801L31.2598 41.6711C35.3833 40.6313 38.3334 37.1909 38.3334 33.1623V27.5855C38.3328 26.3051 37.1914 25.2625 35.789 25.2625ZM37.3151 33.1628C37.3151 37.1965 34.0104 40.5717 29.6277 41.0143C29.5932 41.0176 29.56 41.0244 29.528 41.0334C28.9536 41.0846 28.3663 41.084 27.774 41.0261C27.7513 41.021 27.7279 41.0165 27.7038 41.0137C23.3224 40.5717 20.0176 37.1965 20.0176 33.1628V30.3747C20.0176 29.7691 20.443 29.2523 21.0353 29.0605V32.2338C21.0353 32.4908 21.2631 32.6983 21.5438 32.6983C21.8245 32.6983 22.0523 32.4903 22.0523 32.2338V19.1903C22.0523 18.4216 22.7369 17.7963 23.5785 17.7963C24.4201 17.7963 25.1046 18.4216 25.1046 19.1903V28.5156C25.1046 28.7726 25.3324 28.9801 25.6132 28.9801C25.8939 28.9801 26.1217 28.7721 26.1217 28.5156V25.7275C26.1217 24.9588 26.8063 24.3335 27.6478 24.3335C28.4894 24.3335 29.174 24.9588 29.174 25.7275V28.5156C29.174 28.7726 29.4018 28.9801 29.6825 28.9801C29.9632 28.9801 30.191 28.7721 30.191 28.5156V26.6565C30.191 25.8878 30.8756 25.2625 31.7172 25.2625C32.5587 25.2625 33.2433 25.8878 33.2433 26.6565V28.5156C33.2433 28.7726 33.4711 28.9801 33.7518 28.9801C34.0326 28.9801 34.2604 28.7721 34.2604 28.5156V27.5861C34.2604 26.8174 34.9449 26.192 35.7865 26.192C36.6281 26.192 37.3127 26.8174 37.3127 27.5861V33.1628H37.3151Z" fill="#016D38"/>
<defs>
<filter id="filter0_d" x="0" y="0" width="58" height="58" filterUnits="userSpaceOnUse" color-interpolation-filters="sRGB">
<feFlood flood-opacity="0" result="BackgroundImageFix"/>
<feColorMatrix in="SourceAlpha" type="matrix" values="0 0 0 0 0 0 0 0 0 0 0 0 0 0 0 0 0 0 127 0"/>
<feOffset dy="2"/>
<feGaussianBlur stdDeviation="2"/>
<feColorMatrix type="matrix" values="0 0 0 0 0 0 0 0 0 0 0 0 0 0 0 0 0 0 0.155868 0"/>
<feBlend mode="normal" in2="BackgroundImageFix" result="effect1_dropShadow"/>
<feBlend mode="normal" in="SourceGraphic" in2="effect1_dropShadow" result="shape"/>
</filter>
</defs>
</svg>
