<svg width="58" height="58" viewBox="0 0 58 58" fill="none" xmlns="http://www.w3.org/2000/svg">
<g filter="url(#filter0_d)">
<circle cx="29" cy="27" r="25" fill="white"/>
</g>
<path d="M29.4046 27.5944C29.0607 27.327 28.626 27.1952 28.187 27.225H21.5453L27.7917 20.4373L28.3768 19.8063L28.6772 19.4369C28.7816 19.2941 28.8666 19.1388 28.9302 18.9751C29.002 18.7987 29.0394 18.6107 29.0409 18.421C29.085 17.9722 28.8565 17.5393 28.4558 17.3128C27.9362 17.0808 27.3663 16.975 26.7954 17.005H19.031C18.6167 16.9775 18.2063 17.0979 17.8766 17.3436C17.6042 17.5693 17.4526 17.9037 17.4655 18.2517C17.4655 18.775 17.6448 19.0931 18.0031 19.206C18.5171 19.3482 19.0506 19.4105 19.5845 19.3907H24.6448C24.4339 19.6779 24.1599 20.0165 23.8225 20.4065L22.5258 21.8226L20.7705 23.6696L18.7306 25.8706C18.0243 26.6401 17.5604 27.1533 17.339 27.4097C16.8369 28.0033 16.8994 28.8754 17.4813 29.3952C17.8984 29.7011 18.4155 29.8487 18.9361 29.8108H28.1712C28.613 29.8445 29.0522 29.7185 29.4046 29.4568C29.6733 29.2284 29.8239 28.8958 29.8158 28.5487C29.8294 28.1872 29.679 27.8382 29.4046 27.5944Z" fill="#FFDC5D"/>
<path d="M32.3707 36.7171C32.2095 36.5933 32.0053 36.5333 31.7995 36.5491H28.7036L31.606 33.4355L31.8824 33.1436L32.0575 32.9402C32.1069 32.8747 32.1471 32.8034 32.1772 32.7279C32.2121 32.6464 32.2309 32.5595 32.2325 32.4713C32.2557 32.2649 32.1512 32.0645 31.9653 31.9583C31.7231 31.8515 31.4575 31.8029 31.1914 31.8168H27.5427C27.3505 31.8065 27.1607 31.863 27.0083 31.976C26.8809 32.0788 26.8096 32.2321 26.8148 32.3917C26.8148 32.6276 26.8978 32.7751 27.0636 32.834C27.3034 32.8978 27.5522 32.9247 27.8007 32.9136H30.1594C30.0673 33.0463 29.9383 33.1967 29.7724 33.3824L29.1643 34.037L28.372 34.9215L27.4506 35.9299C27.1189 36.2837 26.9009 36.5255 26.7964 36.6552C26.5793 36.9226 26.6072 37.304 26.8609 37.5398C27.0543 37.6779 27.2933 37.7439 27.5335 37.7255H31.8087C32.013 37.7412 32.2162 37.6846 32.3799 37.5663C32.5018 37.4603 32.5691 37.3083 32.5642 37.1506C32.5685 36.9859 32.4979 36.8277 32.3707 36.7171Z" fill="#006D31"/>
<path d="M40.2011 27.8111C40.0109 27.6635 39.7705 27.5908 39.5277 27.6072H35.8283L39.2828 23.86L39.6064 23.5116L39.8163 23.2652C39.874 23.1864 39.921 23.1007 39.9562 23.0103C39.9959 22.9129 40.0165 22.8091 40.0174 22.7044C40.0418 22.4566 39.9154 22.2176 39.6938 22.0926C39.4064 21.9645 39.0913 21.9062 38.7755 21.9226H34.4378C34.2086 21.9075 33.9817 21.9739 33.7994 22.1096C33.6487 22.2342 33.5649 22.4188 33.572 22.6109C33.572 22.8998 33.6711 23.0754 33.8693 23.1377C34.1535 23.2162 34.4486 23.2506 34.7439 23.2397H37.5424C37.4258 23.3983 37.2743 23.5852 37.0877 23.8005L36.3618 24.5992L35.4173 25.6189L34.2891 26.834C33.8985 27.2588 33.6419 27.5421 33.5195 27.6837C33.2418 28.0114 33.2764 28.4928 33.5982 28.7798C33.8289 28.9487 34.1148 29.0302 34.4028 29.0092H39.5014C39.7483 29.0394 39.9978 28.9788 40.2011 28.8393C40.3496 28.7132 40.4329 28.5296 40.4284 28.338C40.436 28.1384 40.3528 27.9457 40.2011 27.8111Z" fill="#006D31"/>
<defs>
<filter id="filter0_d" x="0" y="0" width="58" height="58" filterUnits="userSpaceOnUse" color-interpolation-filters="sRGB">
<feFlood flood-opacity="0" result="BackgroundImageFix"/>
<feColorMatrix in="SourceAlpha" type="matrix" values="0 0 0 0 0 0 0 0 0 0 0 0 0 0 0 0 0 0 127 0"/>
<feOffset dy="2"/>
<feGaussianBlur stdDeviation="2"/>
<feColorMatrix type="matrix" values="0 0 0 0 0 0 0 0 0 0 0 0 0 0 0 0 0 0 0.155868 0"/>
<feBlend mode="normal" in2="BackgroundImageFix" result="effect1_dropShadow"/>
<feBlend mode="normal" in="SourceGraphic" in2="effect1_dropShadow" result="shape"/>
</filter>
</defs>
</svg>
