<svg width="28" height="30" viewBox="0 0 28 30" fill="none" xmlns="http://www.w3.org/2000/svg">
<path d="M27.5013 5.43201C27.3771 5.64067 27.1808 5.67016 26.9592 5.67016C24.4846 5.66689 22.0099 5.66798 19.5358 5.66853C19.1557 5.66853 19.1546 5.66907 19.1546 6.03941C19.154 9.04305 19.1557 12.0467 19.1518 15.0503C19.1513 15.2606 19.2082 15.4365 19.3203 15.6118C22.0493 19.8827 24.775 24.1552 27.5013 28.4277C27.6533 28.666 27.5719 28.8625 27.4811 28.9537C27.3903 29.0449 27.137 28.9739 26.9549 28.9739C26.811 28.8827 26.7306 28.7385 26.6425 28.6009C24.0891 24.5976 21.5357 20.5944 18.9823 16.5912C18.9478 16.5377 18.9084 16.4869 18.8794 16.4301C18.7788 16.2329 18.6978 16.1979 18.5507 16.4115C17.7931 17.5132 17.0223 18.6062 16.256 19.7019C15.4896 20.7982 14.7249 21.8944 13.9569 22.9896C13.696 23.3621 13.539 23.3916 13.1665 23.1431C11.9182 22.3101 10.6683 21.4793 9.42609 20.6376C9.23464 20.5076 9.12086 20.4967 8.95512 20.6851C7.44758 22.3991 5.92909 24.1044 4.41443 25.8124C3.67043 26.6513 2.57752 27.7285 2.16847 28.1901C2.09303 28.2752 26.8067 28.4277 26.8067 28.4277L27.2212 28.9739C27.2212 28.9739 1.31346 28.9739 1.18601 28.9739C0.930013 28.6457 0.936577 28.5058 1.2161 28.1901C3.7077 25.3776 6.19931 22.5652 8.68982 19.7527C8.94528 19.4643 9.10172 19.4435 9.44524 19.673C10.6782 20.4972 11.9128 21.3187 13.1381 22.1533C13.3492 22.297 13.4564 22.2937 13.6101 22.0719C15.1286 19.8805 16.6569 17.6962 18.1875 15.5135C18.3018 15.3502 18.3149 15.182 18.3149 14.9979C18.3149 10.5473 18.3166 6.09621 18.3149 1.64564C18.3149 1.3993 18.3368 1.17262 18.5463 1.00766C21.4307 1.00766 24.315 1.01203 27.1994 1.00002C27.4565 0.998924 27.5522 1.05027 27.5019 1.30808C27.4865 1.38728 27.4997 1.4714 27.4997 1.55333C27.2213 2.08316 26.9428 2.61299 26.6655 3.14282C26.6195 3.23076 26.5648 3.3187 26.6245 3.42358C26.9281 3.95887 27.1573 4.53458 27.4997 5.04912C27.5013 5.17693 27.5013 5.3042 27.5013 5.43201ZM22.7768 4.86723C23.913 4.86723 25.0491 4.8634 26.1852 4.8705C26.4079 4.87214 26.4347 4.81151 26.3324 4.6258C26.1617 4.31555 26.0178 3.98946 25.8401 3.68358C25.6978 3.43887 25.6809 3.21929 25.8286 2.96967C26.0042 2.67253 26.1546 2.36064 26.3127 2.05367C26.4456 1.79531 26.4434 1.79094 26.1535 1.79094C23.9179 1.78985 21.6817 1.79312 19.4461 1.78602C19.2147 1.78548 19.1491 1.8685 19.1518 2.08808C19.1617 2.90631 19.165 3.72509 19.154 4.54332C19.1507 4.78966 19.2229 4.87597 19.4784 4.87269C20.5773 4.85958 21.6768 4.86668 22.7768 4.86723Z" fill="url(#paint0_linear)" stroke="url(#paint1_linear)" stroke-width="0.4"/>
<defs>
<linearGradient id="paint0_linear" x1="38.8741" y1="14.9335" x2="11.1122" y2="-8.10202" gradientUnits="userSpaceOnUse">
<stop stop-color="#083E16"/>
<stop offset="1" stop-color="#128C31"/>
</linearGradient>
<linearGradient id="paint1_linear" x1="28" y1="29" x2="12.5" y2="1" gradientUnits="userSpaceOnUse">
<stop stop-color="#094919"/>
<stop offset="1" stop-color="#0E7227"/>
</linearGradient>
</defs>
</svg>
