<?xml version="1.0" encoding="UTF-8"?>
<svg width="372px" height="375px" viewBox="0 0 372 375" version="1.1" xmlns="http://www.w3.org/2000/svg" xmlns:xlink="http://www.w3.org/1999/xlink">
    <title>leitmotiv copy 6</title>
    <defs>
        <linearGradient x1="96.50118%" y1="11.7827791%" x2="3.92011834%" y2="96.2453767%" id="linearGradient-1">
            <stop stop-color="#014A26" offset="0.0448690878%"></stop>
            <stop stop-color="#0D6122" offset="15.6962627%"></stop>
            <stop stop-color="#128C31" offset="100%"></stop>
        </linearGradient>
        <linearGradient x1="96.50118%" y1="11.1554207%" x2="3.92011834%" y2="97.0045221%" id="linearGradient-2">
            <stop stop-color="#014A26" offset="0.0448690878%"></stop>
            <stop stop-color="#0D6122" offset="15.6962627%"></stop>
            <stop stop-color="#128C31" offset="100%"></stop>
        </linearGradient>
        <linearGradient x1="25.4047028%" y1="36.1421647%" x2="96.5638674%" y2="74.325539%" id="linearGradient-3">
            <stop stop-color="#FFFFFF" offset="0%"></stop>
            <stop stop-color="#FFFFFF" stop-opacity="0.167477054" offset="100%"></stop>
        </linearGradient>
    </defs>
    <g id="Menu-1" stroke="none" stroke-width="1" fill="none" fill-rule="evenodd">
        <g id="reanudar-2" transform="translate(10.000000, -204.000000)">
            <g id="leitmotiv-copy-6" transform="translate(-10.000000, 204.000000)">
                <path d="M2.46165229,46.7879849 C47.5589167,24.8905509 106.573328,11.073947 179.504886,5.33817324 C252.436444,-0.397600472 316.545518,-0.445651797 371.832107,5.19401927 L372,368 C307.805028,310.936704 245.516746,277.547194 185.135156,267.83147 C124.753566,258.115746 63.0418473,256.920623 0,264.246102 L2.46165229,46.7879849 Z" id="Rectangle" fill="url(#linearGradient-1)" transform="translate(186.000000, 184.500000) scale(1, -1) translate(-186.000000, -184.500000) "></path>
                <path d="M2.46165229,42.9096662 C39.5660762,22.4426769 94.5840671,9.33951381 167.515625,3.60017706 C240.447183,-2.13915969 308.552677,-1.01633679 371.832107,6.96864575 L372,370 C307.805028,312.901256 245.516746,279.491005 185.135156,269.769246 C124.753566,260.047487 63.0418473,258.851621 0,266.18165 L2.46165229,42.9096662 Z" id="Rectangle-Copy" fill="url(#linearGradient-2)" transform="translate(186.000000, 185.000000) scale(1, -1) translate(-186.000000, -185.000000) "></path>
                <g id="Group-7" transform="translate(310.500000, 289.500000) scale(1, -1) rotate(-180.000000) translate(-310.500000, -289.500000) translate(252.000000, 205.000000)" opacity="0.04">
                    <path d="M-26,26.3317389 C74.3030825,21.9572168 130.636416,60.8466372 143,143" id="Path-17" stroke="#FFFFFF" transform="translate(58.500000, 84.500000) scale(-1, 1) rotate(-90.000000) translate(-58.500000, -84.500000) "></path>
                    <path d="M39.3750421,145.581006 C39.3750421,145.581006 71.0563596,145.581006 134.418994,145.581006 C121.390346,68.3678846 69.7776828,32.5566112 -20.4189944,38.1471854 C-20.4189944,38.1471854 -20.4189944,86.2364534 -20.4189944,86.2364534 C-20.4189944,86.2364534 22.1435669,95.1233073 39.3750421,145.581006 Z" id="Path-16" fill="url(#linearGradient-3)" transform="translate(57.000000, 91.581006) scale(1, -1) rotate(-270.000000) translate(-57.000000, -91.581006) "></path>
                </g>
            </g>
        </g>
    </g>
</svg>