<?xml version="1.0" encoding="UTF-8"?>
<svg width="57px" height="57px" viewBox="0 0 57 57" version="1.1" xmlns="http://www.w3.org/2000/svg" xmlns:xlink="http://www.w3.org/1999/xlink">
    <title>Group 3</title>
    <defs>
        <circle id="path-1" cx="26.5" cy="26.5" r="26.5"></circle>
        <filter x="-7.5%" y="-3.8%" width="115.1%" height="115.1%" filterUnits="objectBoundingBox" id="filter-2">
            <feOffset dx="0" dy="2" in="SourceAlpha" result="shadowOffsetOuter1"></feOffset>
            <feGaussianBlur stdDeviation="1" in="shadowOffsetOuter1" result="shadowBlurOuter1"></feGaussianBlur>
            <feColorMatrix values="0 0 0 0 0   0 0 0 0 0   0 0 0 0 0  0 0 0 0.15 0" type="matrix" in="shadowBlurOuter1"></feColorMatrix>
        </filter>
    </defs>
    <g id="Menu-1" stroke="none" stroke-width="1" fill="none" fill-rule="evenodd">
        <g id="reanudar-2" transform="translate(-152.000000, -433.000000)">
            <g id="Group-23" transform="translate(154.000000, 433.000000)">
                <g id="Oval-Copy-2">
                    <use fill="black" fill-opacity="1" filter="url(#filter-2)" xlink:href="#path-1"></use>
                    <use fill="#FFDC5D" fill-rule="evenodd" xlink:href="#path-1"></use>
                </g>
                <g id="Group-22" transform="translate(11.242424, 11.242424)">
                    <path d="M15.5515245,-0.000186794906 C6.96265469,-0.000186794906 -2.82819003e-15,6.9624679 0,15.5513377 L0,16.4783991 L0,16.4783991 C-2.4933248e-15,24.2306834 6.28446814,30.5151515 14.0367525,30.5151515 L15.2575758,30.5151515 L15.2575758,30.5151515 C22.5050689,30.5151515 28.380323,24.6398975 28.380323,17.3924043 L28.380323,15.6736088 L28.380323,15.6736088" id="Path-10" stroke="#FFFFFF" stroke-width="2" stroke-linecap="round"></path>
                    <polygon id="Path-11" fill="#FFFFFF" transform="translate(28.372086, 12.237278) rotate(-3.000000) translate(-28.372086, -12.237278) " points="23.9492722 14.5643097 32.7949001 16.2524295 29.2534136 8.22212646"></polygon>
                </g>
            </g>
        </g>
    </g>
</svg>