<svg width="28" height="22" viewBox="0 0 28 22" fill="none" xmlns="http://www.w3.org/2000/svg">
<path fill-rule="evenodd" clip-rule="evenodd" d="M11.791 17.3588L17.3661 21H25.0678C25.0678 21 27.1648 19.2412 26.7099 18.3C26.2551 17.3588 19.291 17.3588 19.291 17.3588H18.0688L13.9757 15L11.791 17.3588Z" fill="#FFDC5D"/>
<path fill-rule="evenodd" clip-rule="evenodd" d="M25.1166 12.5809L21.0828 12.2774L18.4168 7.59984L17.0841 5.2577V4.60898C17.0845 3.90492 16.5429 3.33387 15.8745 3.33344C15.7247 3.33322 15.5762 3.36251 15.4367 3.41936L11.6036 4.97673L11.8932 3.95287C12.1219 3.09217 11.7509 2.17984 11.0017 1.76023L7.99397 0.0583546C7.7752 -0.0653153 7.50267 0.0136599 7.37475 0.237785L2.96298 7.67881L2.86987 7.62197C2.64698 7.48701 2.3625 7.56816 2.23458 7.80292C2.2317 7.80791 2.22923 7.8129 2.22655 7.8181L0.845358 10.5568C0.726293 10.7933 0.809309 11.0865 1.03158 11.216L17.8294 21.0222C17.8984 21.0623 17.9758 21.0833 18.0547 21.0833H24.9979C26.5398 21.0818 27.7896 19.7657 27.791 18.1415V15.6056C27.7861 14.0166 26.6212 12.6992 25.1166 12.5809ZM20.1099 12.4759L19.5782 12.6627L15.4128 6.95849L16.4836 6.11167L20.1099 12.4759ZM7.94453 1.1434L10.5613 2.62266C10.924 2.82466 11.1053 3.26423 10.998 3.68123L10.6134 5.04638L7.94123 3.35861L7.01591 2.77367L7.94453 1.1434ZM5.18833 5.82289L5.42666 5.43062L6.95823 6.63044C7.73771 7.24683 8.13569 8.26201 7.99623 9.27828L7.93814 10.6953L3.77768 8.16959L5.18833 5.82289ZM24.9979 20.1029H18.1744L1.8813 10.5907L2.82208 8.72762L18.2479 18.0762C18.3188 18.1192 18.3989 18.1417 18.4807 18.1415H26.8599C26.8599 19.2246 26.0263 20.1029 24.9979 20.1029ZM26.8599 17.1608H18.6049L15.412 15.2246L16.4854 14.0719C16.6628 13.876 16.6558 13.5655 16.4696 13.3787C16.2873 13.1956 15.9997 13.1986 15.8207 13.3854L14.5788 14.7191L12.8097 13.6453L14.5839 12.1505C14.7846 11.9812 14.8171 11.6725 14.6564 11.4609C14.4958 11.2496 14.2026 11.2153 14.002 11.3846L11.9429 13.1199L10.4272 12.2019L12.7269 10.1832C12.9246 10.0099 12.9514 9.70071 12.787 9.49242C12.6224 9.28413 12.3287 9.25593 12.1309 9.42907L9.56694 11.6801L8.84719 11.2438L8.92259 9.36159C9.095 8.00556 8.55551 6.65777 7.51359 5.84112L5.92743 4.599L6.52667 3.60812L10.6474 6.21213C10.7028 6.24576 10.7642 6.26659 10.8276 6.27353C10.8387 6.27353 10.8484 6.27743 10.8598 6.2783C10.8709 6.27939 10.8779 6.28177 10.8867 6.28177C10.9442 6.28199 11.0015 6.27093 11.0552 6.24901L15.7709 4.33343C15.8572 4.29872 15.9538 4.31065 16.0302 4.36532C16.1068 4.42065 16.1524 4.51243 16.1517 4.61049V5.14987L14.4758 6.47357C14.2702 6.63629 14.2288 6.94373 14.3833 7.16005C14.3843 7.16157 14.3853 7.16309 14.3864 7.16439L19.0416 13.5386C19.1619 13.7046 19.3694 13.7714 19.5574 13.7048L20.8659 13.2453L25.0492 13.5601C26.0673 13.6395 26.856 14.5303 26.8599 15.6056V17.1608Z" fill="url(#paint0_linear)"/>
<path d="M0.791016 20.8693H7.93199" stroke="#0B561E" stroke-width="0.8"/>
<path d="M0.791016 18.1193H4.35192" stroke="#0B561E" stroke-width="0.8"/>
<path d="M0.791016 14.7584H2.6874" stroke="#0B561E" stroke-width="0.8"/>
<defs>
<linearGradient id="paint0_linear" x1="39.6145" y1="9.21662" x2="18.4848" y2="-14.4823" gradientUnits="userSpaceOnUse">
<stop stop-color="#083E16"/>
<stop offset="1" stop-color="#128C31"/>
</linearGradient>
</defs>
</svg>
