<?xml version="1.0" encoding="UTF-8" standalone="no"?>
<svg
   xmlns:dc="http://purl.org/dc/elements/1.1/"
   xmlns:cc="http://creativecommons.org/ns#"
   xmlns:rdf="http://www.w3.org/1999/02/22-rdf-syntax-ns#"
   xmlns:svg="http://www.w3.org/2000/svg"
   xmlns="http://www.w3.org/2000/svg"
   viewBox="0 0 76 76"
   height="76"
   width="76"
   xml:space="preserve"
   id="svg2"
   version="1.1"><metadata
     id="metadata8"><rdf:RDF><cc:Work
         rdf:about=""><dc:format>image/svg+xml</dc:format><dc:type
           rdf:resource="http://purl.org/dc/dcmitype/StillImage" /></cc:Work></rdf:RDF></metadata><defs
     id="defs6"><clipPath
       id="clipPath20"
       clipPathUnits="userSpaceOnUse"><path
         style="clip-rule:evenodd"
         id="path18"
         d="M 91.7578,440 C 73.0781,188.84 175.813,63.2578 399.957,63.2578 403.531,62.0117 175.27,-70.0859 53.0156,182.664 0.09375,294.078 13.0078,379.855 91.7578,440 Z" /></clipPath><clipPath
       id="clipPath26"
       clipPathUnits="userSpaceOnUse"><path
         id="path24"
         d="M 0,0 H 570 V 570 H 0 Z" /></clipPath><clipPath
       id="clipPath36"
       clipPathUnits="userSpaceOnUse"><path
         style="clip-rule:evenodd"
         id="path34"
         d="m 228.031,232.152 -61.648,60.727 -20.551,-20.242 82.199,-80.969 176.137,173.508 -20.551,20.242 z" /></clipPath><clipPath
       id="clipPath42"
       clipPathUnits="userSpaceOnUse"><path
         id="path40"
         d="M 0,0 H 570 V 570 H 0 Z" /></clipPath><clipPath
       id="clipPath52"
       clipPathUnits="userSpaceOnUse"><path
         id="path50"
         d="M 280,14.5 C 127.75,14.5 4.5,137.75 4.5,290 4.5,442.25 127.75,565.5 280,565.5 432.25,565.5 555.5,442.25 555.5,290 555.5,137.75 432.25,14.5 280,14.5 Z m 0,517.168 C 147.082,531.668 38.332,422.918 38.332,290 38.332,157.082 147.082,48.332 280,48.332 c 132.918,0 241.668,108.75 241.668,241.668 0,132.918 -108.75,241.668 -241.668,241.668 z" /></clipPath><clipPath
       id="clipPath58"
       clipPathUnits="userSpaceOnUse"><path
         id="path56"
         d="M 0,0 H 570 V 570 H 0 Z" /></clipPath></defs><g
     transform="matrix(1.3333333,0,0,-1.3333333,0,76)"
     id="g10"><g
       transform="scale(0.1)"
       id="g12"><g
         id="g14"><g
           clip-path="url(#clipPath20)"
           id="g16"><g
             clip-path="url(#clipPath26)"
             id="g22"><path
               id="path28"
               style="fill:#ffdd58;fill-opacity:1;fill-rule:nonzero;stroke:none"
               d="M 0,0 H 449.996 V 490 H 0 Z" /></g></g></g><g
         id="g30"><g
           clip-path="url(#clipPath36)"
           id="g32"><g
             clip-path="url(#clipPath42)"
             id="g38"><path
               id="path44"
               style="fill:#046c36;fill-opacity:1;fill-rule:nonzero;stroke:none"
               d="m 95.832,141.668 h 358.336 v 293.75 H 95.832 Z" /></g></g></g><g
         id="g46"><g
           clip-path="url(#clipPath52)"
           id="g48"><g
             clip-path="url(#clipPath58)"
             id="g54"><path
               id="path60"
               style="fill:#046c36;fill-opacity:1;fill-rule:nonzero;stroke:none"
               d="M 0,0 H 605.5 V 615.5 H 0 Z" /></g></g></g></g></g></svg>