<?xml version="1.0" encoding="UTF-8" standalone="no"?>
<svg
   xmlns:dc="http://purl.org/dc/elements/1.1/"
   xmlns:cc="http://creativecommons.org/ns#"
   xmlns:rdf="http://www.w3.org/1999/02/22-rdf-syntax-ns#"
   xmlns:svg="http://www.w3.org/2000/svg"
   xmlns="http://www.w3.org/2000/svg"
   viewBox="0 0 74.666664 74.666664"
   height="74.666664"
   width="74.666664"
   xml:space="preserve"
   id="svg2"
   version="1.1"><metadata
     id="metadata8"><rdf:RDF><cc:Work
         rdf:about=""><dc:format>image/svg+xml</dc:format><dc:type
           rdf:resource="http://purl.org/dc/dcmitype/StillImage" /></cc:Work></rdf:RDF></metadata><defs
     id="defs6"><clipPath
       id="clipPath20"
       clipPathUnits="userSpaceOnUse"><path
         style="clip-rule:evenodd"
         id="path18"
         d="M 81.7578,430 C 63.0781,178.84 165.813,53.2578 389.957,53.2578 393.531,52.0117 175.988,-75.5 53.7383,177.25 0.816406,288.66 10.1563,372.91 81.7578,430 Z" /></clipPath><clipPath
       id="clipPath26"
       clipPathUnits="userSpaceOnUse"><path
         id="path24"
         d="M 0,0 H 560 V 560 H 0 Z" /></clipPath><clipPath
       id="clipPath36"
       clipPathUnits="userSpaceOnUse"><path
         style="clip-rule:evenodd"
         id="path34"
         d="M 389.168,368.332 368.332,389.168 285,305.832 201.668,389.168 180.832,368.332 264.168,285 180.832,201.668 201.668,180.832 285,264.168 368.332,180.832 389.168,201.668 305.832,285 Z" /></clipPath><clipPath
       id="clipPath42"
       clipPathUnits="userSpaceOnUse"><path
         id="path40"
         d="M 0,0 H 560 V 560 H 0 Z" /></clipPath><clipPath
       id="clipPath52"
       clipPathUnits="userSpaceOnUse"><path
         id="path50"
         d="M 275.5,9 C 123.25,9 0,132.25 0,284.5 0,436.75 123.25,560 275.5,560 427.75,560 551,436.75 551,284.5 551,132.25 427.75,9 275.5,9 Z m 0,517.168 C 142.582,526.168 33.832,417.418 33.832,284.5 33.832,151.582 142.582,42.832 275.5,42.832 c 132.918,0 241.668,108.75 241.668,241.668 0,132.918 -108.75,241.668 -241.668,241.668 z" /></clipPath><clipPath
       id="clipPath58"
       clipPathUnits="userSpaceOnUse"><path
         id="path56"
         d="M 0,0 H 560 V 560 H 0 Z" /></clipPath></defs><g
     transform="matrix(1.3333333,0,0,-1.3333333,0,74.666667)"
     id="g10"><g
       transform="scale(0.1)"
       id="g12"><g
         id="g14"><g
           clip-path="url(#clipPath20)"
           id="g16"><g
             clip-path="url(#clipPath26)"
             id="g22"><path
               id="path28"
               style="fill:#ffdd58;fill-opacity:1;fill-rule:nonzero;stroke:none"
               d="M 0,0 H 440 V 480 H 0 Z" /></g></g></g><g
         id="g30"><g
           clip-path="url(#clipPath36)"
           id="g32"><g
             clip-path="url(#clipPath42)"
             id="g38"><path
               id="path44"
               style="fill:#046c36;fill-opacity:1;fill-rule:nonzero;stroke:none"
               d="M 130.832,130.832 H 439.168 V 439.168 H 130.832 Z" /></g></g></g><g
         id="g46"><g
           clip-path="url(#clipPath52)"
           id="g48"><g
             clip-path="url(#clipPath58)"
             id="g54"><path
               id="path60"
               style="fill:#046c36;fill-opacity:1;fill-rule:nonzero;stroke:none"
               d="M 0,0 H 601 V 610 H 0 Z" /></g></g></g></g></g></svg>