<svg width="36" height="36" viewBox="0 0 36 36" fill="none" xmlns="http://www.w3.org/2000/svg">
<circle cx="17.9742" cy="17.9742" r="16.9742" fill="white" stroke="#FFDC5D" stroke-width="2"/>
<circle cx="17.9741" cy="17.9746" r="12" fill="#FFDD00"/>
<path d="M20.7495 22.9746H15.1646V22.0518L17.8989 18.4561C18.341 17.8317 18.6486 17.3167 18.8218 16.9111C18.9995 16.501 19.0884 16.1045 19.0884 15.7217C19.0884 15.1976 18.9767 14.7715 18.7534 14.4434C18.5347 14.1107 18.2316 13.9443 17.8442 13.9443C17.3566 13.9443 16.9897 14.1266 16.7437 14.4912C16.5021 14.8558 16.3813 15.3525 16.3813 15.9814H15.0483L15.0347 15.9473C15.0164 15.0859 15.2603 14.359 15.7661 13.7666C16.272 13.1742 16.9647 12.8779 17.8442 12.8779C18.6554 12.8779 19.2957 13.1354 19.7651 13.6504C20.2391 14.1608 20.4761 14.8376 20.4761 15.6807C20.4761 16.2503 20.3302 16.8132 20.0386 17.3691C19.7515 17.9206 19.3322 18.5381 18.7808 19.2217L16.9009 21.9219H20.7495V22.9746Z" fill="#016D38"/>
</svg>
