<svg width="96" height="88" viewBox="0 0 96 88" fill="none" xmlns="http://www.w3.org/2000/svg">
<ellipse cx="44.0661" cy="43.8549" rx="44.0656" ry="43.7738" fill="url(#paint0_linear)"/>
<g filter="url(#filter0_i)">
<path fill-rule="evenodd" clip-rule="evenodd" d="M44.0656 87.9197C68.4024 87.9197 88.1312 68.3215 88.1312 44.1459C88.1312 19.9703 68.4024 0.37207 44.0656 0.37207C19.7289 0.37207 0 19.9703 0 44.1459C0 68.3215 19.7289 87.9197 44.0656 87.9197ZM44.0655 76.2485C61.9554 76.2485 76.4581 61.8765 76.4581 44.1477C76.4581 26.4189 61.9554 12.0469 44.0655 12.0469C26.1755 12.0469 11.6729 26.4189 11.6729 44.1477C11.6729 61.8765 26.1755 76.2485 44.0655 76.2485Z" fill="#F6F6F6"/>
</g>
<path d="M43.9055 6.20947C67.3095 6.53936 82.2527 25.211 82.2944 44.1464C82.3361 63.0818 67.4973 82.0833 44.0724 82.0833C26.3544 82.1493 9.82879 70.0109 5.83668 50.4142" stroke="url(#paint1_linear)" stroke-width="5.45623" stroke-linecap="round" stroke-linejoin="bevel"/>
<path d="M41.3581 22.6162H43.362V23.6357H41.3581V26.2959H40.1979V23.6357H38.194V22.6162H40.1979V20.085H41.3581V22.6162ZM48.4479 24.2393H49.362V25.1475H48.4479V27.1514H47.2643V25.1475H44.1647L44.1296 24.4795L47.2292 18.6201H48.4479V24.2393ZM45.3014 24.2393H47.2643V20.3428L47.2292 20.3369L47.112 20.583L45.3014 24.2393Z" fill="#016D38"/>
<path d="M31.7693 41.2725L32.3845 34.2236H38.1238V35.6914H33.8699L33.5359 39.4883C33.7527 39.2656 34.0047 39.084 34.2918 38.9434C34.5789 38.7969 34.907 38.7178 35.2761 38.7061C36.2839 38.6943 37.075 39.0693 37.6492 39.8311C38.2234 40.5869 38.5105 41.6211 38.5105 42.9336C38.5105 44.2051 38.2088 45.2363 37.6052 46.0273C37.0076 46.8125 36.1316 47.2051 34.9773 47.2051C34.0164 47.2051 33.2078 46.9004 32.5515 46.291C31.8953 45.6816 31.5789 44.8057 31.6023 43.6631L31.6199 43.6191L33.2986 43.584C33.2986 44.3105 33.4509 44.8701 33.7556 45.2627C34.0662 45.6553 34.4734 45.8516 34.9773 45.8516C35.5574 45.8516 35.9939 45.5967 36.2869 45.0869C36.5798 44.5713 36.7263 43.8594 36.7263 42.9512C36.7263 42.0957 36.574 41.4102 36.2693 40.8945C35.9646 40.373 35.5281 40.1123 34.9597 40.1123C34.4558 40.1123 34.0779 40.2236 33.8259 40.4463C33.5798 40.6631 33.407 40.9883 33.3074 41.4219L31.7693 41.2725ZM42.3162 39.8311H43.5379C44.1297 39.8311 44.5603 39.6348 44.8298 39.2422C45.1052 38.8438 45.2429 38.3076 45.2429 37.6338C45.2429 36.9424 45.0994 36.4004 44.8123 36.0078C44.531 35.6094 44.1179 35.4102 43.573 35.4102C43.075 35.4102 42.6648 35.6094 42.3425 36.0078C42.0261 36.4004 41.8679 36.9189 41.8679 37.5635H40.1716L40.1453 37.5107C40.1218 36.5205 40.4324 35.6943 41.0769 35.0322C41.7214 34.3701 42.5418 34.0391 43.5379 34.0391C44.5925 34.0391 45.4363 34.3555 46.0691 34.9883C46.7019 35.6152 47.0183 36.5029 47.0183 37.6514C47.0183 38.2197 46.8689 38.7646 46.5701 39.2861C46.2713 39.8018 45.8464 40.1943 45.2957 40.4639C45.9402 40.7041 46.4177 41.0938 46.7283 41.6328C47.0388 42.166 47.1941 42.7842 47.1941 43.4873C47.1941 44.6475 46.8513 45.5586 46.1658 46.2207C45.4861 46.877 44.6131 47.2051 43.5466 47.2051C42.5506 47.2051 41.7068 46.8916 41.0154 46.2646C40.3298 45.6318 39.9988 44.7529 40.0222 43.6279L40.0486 43.5752H41.7537C41.7537 44.249 41.9207 44.7969 42.2547 45.2188C42.5886 45.6406 43.0281 45.8516 43.573 45.8516C44.1472 45.8516 44.5955 45.6494 44.9177 45.2451C45.2459 44.835 45.4099 44.2549 45.4099 43.5049C45.4099 42.708 45.2547 42.1221 44.9441 41.7471C44.6336 41.3662 44.1648 41.1758 43.5379 41.1758H42.3162V39.8311ZM56.0711 42.0723C56.0711 43.7305 55.7517 45.002 55.1131 45.8867C54.4802 46.7656 53.6189 47.2051 52.5291 47.2051C51.4334 47.2051 50.5632 46.7627 49.9187 45.8779C49.28 44.9932 48.9607 43.7246 48.9607 42.0723V39.1807C48.9607 37.5342 49.28 36.2656 49.9187 35.375C50.5574 34.4844 51.4216 34.0391 52.5115 34.0391C53.6013 34.0391 54.4656 34.4844 55.1043 35.375C55.7488 36.2656 56.0711 37.5342 56.0711 39.1807V42.0723ZM54.2957 38.9258C54.2957 37.7656 54.1404 36.8896 53.8298 36.2979C53.5252 35.7061 53.0857 35.4102 52.5115 35.4102C51.9373 35.4102 51.4978 35.709 51.1931 36.3066C50.8943 36.8984 50.7449 37.7715 50.7449 38.9258V42.3184C50.7449 43.4785 50.8972 44.3574 51.2019 44.9551C51.5125 45.5527 51.9548 45.8516 52.5291 45.8516C53.0974 45.8516 53.5339 45.5557 53.8386 44.9639C54.1433 44.3662 54.2957 43.4844 54.2957 42.3184V38.9258Z" fill="#333333"/>
<path d="M31.3786 64.7334H29.9977L26.2243 57.3301L26.1833 57.3438V64.7334H24.7956V54.7803H26.1833L29.9567 62.1631L29.9977 62.1494V54.7803H31.3786V64.7334ZM32.8825 60.5703C32.8825 59.5905 33.1377 58.7839 33.6481 58.1504C34.1631 57.5169 34.8672 57.2002 35.7604 57.2002C36.6491 57.2002 37.3509 57.5169 37.8659 58.1504C38.3809 58.7793 38.6384 59.5859 38.6384 60.5703V61.5137C38.6384 62.5026 38.3809 63.3115 37.8659 63.9404C37.3555 64.5648 36.6559 64.877 35.7673 64.877C34.8695 64.877 34.1631 64.5648 33.6481 63.9404C33.1377 63.3115 32.8825 62.5026 32.8825 61.5137V60.5703ZM34.2702 61.5137C34.2702 62.1882 34.3932 62.7419 34.6393 63.1748C34.8854 63.6077 35.2614 63.8242 35.7673 63.8242C36.2595 63.8242 36.6286 63.6077 36.8747 63.1748C37.1253 62.7419 37.2507 62.1882 37.2507 61.5137V60.5703C37.2507 59.9049 37.1253 59.3558 36.8747 58.9229C36.6286 58.4854 36.2572 58.2666 35.7604 58.2666C35.2591 58.2666 34.8854 58.4831 34.6393 58.916C34.3932 59.349 34.2702 59.9004 34.2702 60.5703V61.5137ZM43.1501 58.5059L42.5007 58.4717C42.2136 58.4717 41.9743 58.5583 41.7829 58.7314C41.596 58.9046 41.4525 59.1484 41.3522 59.4629V64.7334H39.9645V57.3369H41.2292L41.3317 58.4512C41.4867 58.0592 41.6895 57.7539 41.9401 57.5352C42.1908 57.3118 42.4802 57.2002 42.8083 57.2002C42.8994 57.2002 42.9929 57.2093 43.0886 57.2275C43.1843 57.2412 43.2595 57.2594 43.3141 57.2822L43.1501 58.5059ZM45.5632 57.3369L45.6384 58.3418C45.8389 57.9772 46.0941 57.6969 46.404 57.501C46.7139 57.3005 47.0762 57.2002 47.4909 57.2002C47.8965 57.2002 48.2451 57.3141 48.5368 57.542C48.8285 57.7653 49.0495 58.1071 49.1999 58.5674C49.3913 58.139 49.6465 57.804 49.9655 57.5625C50.2845 57.321 50.6628 57.2002 51.1003 57.2002C51.7292 57.2002 52.2237 57.46 52.5837 57.9795C52.9483 58.4945 53.1306 59.2806 53.1306 60.3379V64.7334H51.7429V60.3311C51.7429 59.5745 51.6494 59.0436 51.4626 58.7383C51.2757 58.4329 51 58.2803 50.6354 58.2803C50.321 58.2803 50.0567 58.401 49.8425 58.6426C49.6328 58.8796 49.4802 59.1963 49.3845 59.5928C49.3799 59.5563 49.3822 59.6156 49.3913 59.7705C49.4004 59.9209 49.405 60.0303 49.405 60.0986V64.7334H48.0241V60.3311C48.0241 59.5973 47.9284 59.0732 47.737 58.7588C47.5456 58.4398 47.2676 58.2803 46.903 58.2803C46.6113 58.2803 46.363 58.3623 46.1579 58.5264C45.9528 58.6859 45.7933 58.9092 45.6794 59.1963V64.7334H44.2985V57.3369H45.5632ZM58.4968 64.7334C58.4466 64.5648 58.4056 64.4007 58.3737 64.2412C58.3418 64.0771 58.3213 63.9131 58.3122 63.749C58.1071 64.0817 57.8496 64.3529 57.5397 64.5625C57.2298 64.7721 56.8858 64.877 56.5075 64.877C55.8832 64.877 55.3932 64.681 55.0378 64.2891C54.6869 63.8926 54.5114 63.3639 54.5114 62.7031C54.5114 61.9967 54.7507 61.443 55.2292 61.042C55.7123 60.6364 56.389 60.4336 57.2595 60.4336H58.2917V59.6748C58.2917 59.2236 58.1914 58.8727 57.9909 58.6221C57.7904 58.3669 57.5056 58.2393 57.1364 58.2393C56.8037 58.2393 56.5349 58.3532 56.3298 58.5811C56.1293 58.8089 56.029 59.0938 56.029 59.4355L54.7097 59.4287L54.6891 59.3877C54.6664 58.818 54.8942 58.3122 55.3727 57.8701C55.8513 57.4235 56.4688 57.2002 57.2253 57.2002C57.9544 57.2002 58.5446 57.4167 58.9958 57.8496C59.4515 58.278 59.6794 58.891 59.6794 59.6885V63.1201C59.6794 63.4072 59.6953 63.6852 59.7272 63.9541C59.7637 64.2184 59.8207 64.4782 59.8981 64.7334H58.4968ZM56.822 63.8105C57.1455 63.8105 57.4395 63.7148 57.7038 63.5234C57.9727 63.332 58.1686 63.0928 58.2917 62.8057V61.2949H57.239C56.8151 61.2949 56.4847 61.4316 56.2477 61.7051C56.0153 61.974 55.8991 62.3044 55.8991 62.6963C55.8991 63.029 55.9789 63.2979 56.1384 63.5029C56.2979 63.708 56.5257 63.8105 56.822 63.8105ZM62.7419 64.7334H61.3542V54.0693H62.7419V64.7334Z" fill="#333333"/>
<path d="M91.6604 19.5908L94.4944 22.4248L91.7893 25.1299" stroke="#016D38" stroke-linecap="round"/>
<path d="M53.2727 22.3604H93.7463" stroke="#016D38" stroke-linecap="round"/>
<defs>
<filter id="filter0_i" x="0" y="0.37207" width="88.1312" height="88.5476" filterUnits="userSpaceOnUse" color-interpolation-filters="sRGB">
<feFlood flood-opacity="0" result="BackgroundImageFix"/>
<feBlend mode="normal" in="SourceGraphic" in2="BackgroundImageFix" result="shape"/>
<feColorMatrix in="SourceAlpha" type="matrix" values="0 0 0 0 0 0 0 0 0 0 0 0 0 0 0 0 0 0 127 0" result="hardAlpha"/>
<feOffset dy="1"/>
<feGaussianBlur stdDeviation="1"/>
<feComposite in2="hardAlpha" operator="arithmetic" k2="-1" k3="1"/>
<feColorMatrix type="matrix" values="0 0 0 0 0 0 0 0 0 0 0 0 0 0 0 0 0 0 0.15 0"/>
<feBlend mode="normal" in2="shape" result="effect1_innerShadow"/>
</filter>
<linearGradient id="paint0_linear" x1="72.6721" y1="65.8361" x2="57.9574" y2="32.1608" gradientUnits="userSpaceOnUse">
<stop stop-color="#EEEEEE"/>
<stop offset="1" stop-color="white"/>
</linearGradient>
<linearGradient id="paint1_linear" x1="72.0725" y1="18.9886" x2="43.888" y2="75.1229" gradientUnits="userSpaceOnUse">
<stop offset="0.000712627" stop-color="#FFDD00"/>
<stop offset="1" stop-color="#02D46F"/>
</linearGradient>
</defs>
</svg>
