<svg width="57" height="56" viewBox="0 0 57 56" fill="none" xmlns="http://www.w3.org/2000/svg">
<path fill-rule="evenodd" clip-rule="evenodd" d="M8.55063 13C8.55063 13 5.74881 50.6741 39.3706 50.6741C39.7281 50.7989 17.11 64.2751 4.88486 39C-3.05362 22.2884 8.55063 13 8.55063 13Z" fill="#FFDC5D"/>
<path fill-rule="evenodd" clip-rule="evenodd" d="M0.375 27.55C0.375 42.775 12.7 55.1 27.925 55.1C43.15 55.1 55.475 42.775 55.475 27.55C55.475 12.325 43.15 0 27.925 0C12.7 0 0.375 12.325 0.375 27.55ZM3.75833 27.55C3.75833 14.2583 14.6333 3.38333 27.925 3.38333C41.2167 3.38333 52.0917 14.2583 52.0917 27.55C52.0917 40.8417 41.2167 51.7167 27.925 51.7167C14.6333 51.7167 3.75833 40.8417 3.75833 27.55Z" fill="#016D38"/>
<path d="M29.7541 20.6198C28.9277 19.7934 27.583 19.7934 26.7564 20.6198L25.9375 21.4387C25.7138 21.6624 25.7138 22.0252 25.9375 22.2488C26.1612 22.4726 26.524 22.4726 26.7477 22.2488L27.5665 21.43C27.9463 21.0502 28.5641 21.0503 28.9438 21.43C29.1277 21.6139 29.229 21.8585 29.229 22.1186C29.229 22.3787 29.1277 22.6233 28.9438 22.8072L21.1823 30.5689C20.9984 30.7528 20.7539 30.8541 20.4937 30.8541C20.2335 30.8541 19.989 30.7527 19.8051 30.5689C19.6211 30.385 19.5199 30.1403 19.5199 29.8802C19.5199 29.6202 19.6212 29.3756 19.8051 29.1916L25.6402 23.3566C25.8639 23.1328 25.8639 22.7701 25.6402 22.5464C25.4164 22.3227 25.0537 22.3227 24.83 22.5464L18.9948 28.3815C18.1684 29.2079 18.1684 30.5527 18.9948 31.3792C19.3952 31.7795 19.9275 32 20.4938 32C21.06 32 21.5923 31.7795 21.9926 31.3792L29.7542 23.6176C30.1545 23.2172 30.375 22.6849 30.375 22.1187C30.375 21.5525 30.1545 21.0202 29.7541 20.6198Z" fill="#016D38" stroke="#016D38" stroke-width="0.4"/>
<path fill-rule="evenodd" clip-rule="evenodd" d="M23.8799 17.1065L26.2144 19.4409C26.4285 19.655 26.4285 20.0022 26.2143 20.2164C26.0002 20.4305 25.653 20.4305 25.4389 20.2164L23.1044 17.882C22.6232 17.4008 21.9835 17.1358 21.3031 17.1358C20.6227 17.1358 19.983 17.4007 19.5018 17.882L16.2569 21.1269C15.2636 22.1201 15.2636 23.7363 16.2569 24.7295L18.5913 27.0639C18.8054 27.278 18.8054 27.6252 18.5912 27.8393C18.4842 27.9464 18.3438 28 18.2035 28C18.0632 28 17.9228 27.9464 17.8158 27.8393L15.4813 25.5049C14.0604 24.0841 14.0604 21.7721 15.4813 20.3512L15.5916 20.2409L13.1876 17.837C12.9735 17.6229 12.9735 17.2757 13.1876 17.0615L13.9243 16.3248L11.5356 13.9361C11.3215 13.722 11.3215 13.3748 11.5356 13.1606C11.7497 12.9465 12.0969 12.9465 12.3111 13.1606L14.6998 15.5493L15.4365 14.8126C15.5392 14.7097 15.6788 14.6519 15.8242 14.6519C15.9696 14.6519 16.1091 14.7097 16.2119 14.8126L18.616 17.2168L18.7262 17.1065C19.4145 16.4183 20.3297 16.0392 21.3031 16.0392C22.2765 16.0392 23.1917 16.4182 23.8799 17.1065ZM16.3671 19.4655L17.1038 18.7288L17.8405 17.9922L15.8242 15.9759L14.3508 17.4493L16.3671 19.4655Z" fill="#016D38"/>
<path d="M26.2144 19.4409L26.073 19.5824L26.073 19.5824L26.2144 19.4409ZM23.8799 17.1065L23.7385 17.2479L23.7385 17.2479L23.8799 17.1065ZM26.2143 20.2164L26.0729 20.075L26.0729 20.075L26.2143 20.2164ZM25.4389 20.2164L25.5803 20.075L25.5803 20.075L25.4389 20.2164ZM23.1044 17.882L22.963 18.0234L22.963 18.0234L23.1044 17.882ZM19.5018 17.882L19.6432 18.0234L19.6432 18.0234L19.5018 17.882ZM16.2569 21.1269L16.1154 20.9854L16.1154 20.9854L16.2569 21.1269ZM16.2569 24.7295L16.1154 24.8709L16.2569 24.7295ZM18.5913 27.0639L18.4499 27.2054L18.4499 27.2054L18.5913 27.0639ZM18.5912 27.8393L18.4498 27.6979L18.4497 27.698L18.5912 27.8393ZM17.8158 27.8393L17.6743 27.9808H17.6743L17.8158 27.8393ZM15.4813 25.5049L15.6228 25.3635L15.6228 25.3635L15.4813 25.5049ZM15.4813 20.3512L15.6228 20.4926L15.4813 20.3512ZM15.5916 20.2409L15.733 20.3823L15.8744 20.2409L15.733 20.0995L15.5916 20.2409ZM13.1876 17.837L13.3291 17.6955L13.329 17.6955L13.1876 17.837ZM13.1876 17.0615L13.3291 17.2029L13.3291 17.2029L13.1876 17.0615ZM13.9243 16.3248L14.0657 16.4662L14.2071 16.3248L14.0657 16.1834L13.9243 16.3248ZM11.5356 13.9361L11.677 13.7947L11.677 13.7946L11.5356 13.9361ZM11.5356 13.1606L11.677 13.302L11.6771 13.302L11.5356 13.1606ZM12.3111 13.1606L12.1696 13.302L12.3111 13.1606ZM14.6998 15.5493L14.5583 15.6907L14.6998 15.8322L14.8412 15.6907L14.6998 15.5493ZM15.4365 14.8126L15.5779 14.954L15.578 14.9539L15.4365 14.8126ZM16.2119 14.8126L16.0705 14.954L16.0705 14.954L16.2119 14.8126ZM18.616 17.2168L18.4745 17.3582L18.616 17.4996L18.7574 17.3582L18.616 17.2168ZM18.7262 17.1065L18.5848 16.9651L18.5848 16.9651L18.7262 17.1065ZM17.1038 18.7288L16.9624 18.5874L16.9624 18.5874L17.1038 18.7288ZM16.3671 19.4655L16.2257 19.6069L16.3671 19.7483L16.5085 19.6069L16.3671 19.4655ZM17.8405 17.9922L17.9819 18.1336L18.1234 17.9922L17.9819 17.8508L17.8405 17.9922ZM15.8242 15.9759L15.9656 15.8345L15.8242 15.6931L15.6828 15.8345L15.8242 15.9759ZM14.3508 17.4493L14.2094 17.3079L14.068 17.4493L14.2094 17.5907L14.3508 17.4493ZM26.3558 19.2995L24.0213 16.9651L23.7385 17.2479L26.073 19.5824L26.3558 19.2995ZM26.3557 20.3578C26.6481 20.0656 26.6481 19.5917 26.3558 19.2995L26.073 19.5824C26.209 19.7183 26.209 19.9389 26.0729 20.075L26.3557 20.3578ZM25.2974 20.3578C25.5897 20.6501 26.0636 20.6501 26.3558 20.3578L26.0729 20.075C25.9369 20.211 25.7164 20.211 25.5803 20.075L25.2974 20.3578ZM22.963 18.0234L25.2975 20.3578L25.5803 20.075L23.2458 17.7405L22.963 18.0234ZM21.3031 17.3358C21.9304 17.3358 22.5193 17.5797 22.963 18.0234L23.2458 17.7405C22.7271 17.2219 22.0365 16.9358 21.3031 16.9358V17.3358ZM19.6432 18.0234C20.0869 17.5797 20.6757 17.3358 21.3031 17.3358V16.9358C20.5697 16.9358 19.879 17.2218 19.3604 17.7406L19.6432 18.0234ZM16.3983 21.2683L19.6432 18.0234L19.3604 17.7405L16.1154 20.9854L16.3983 21.2683ZM16.3983 24.5881C15.4832 23.6729 15.4832 22.1834 16.3983 21.2683L16.1154 20.9854C15.0441 22.0568 15.0441 23.7996 16.1154 24.8709L16.3983 24.5881ZM18.7327 26.9225L16.3983 24.5881L16.1154 24.8709L18.4499 27.2054L18.7327 26.9225ZM18.7326 27.9808C19.025 27.6886 19.025 27.2147 18.7327 26.9225L18.4499 27.2054C18.5859 27.3414 18.5859 27.5619 18.4498 27.6979L18.7326 27.9808ZM18.2035 28.2C18.3947 28.2 18.5866 28.1269 18.7327 27.9807L18.4497 27.698C18.3817 27.766 18.2929 27.8 18.2035 27.8V28.2ZM17.6743 27.9808C17.8204 28.1268 18.0123 28.2 18.2035 28.2V27.8C18.1142 27.8 18.0253 27.766 17.9572 27.6979L17.6743 27.9808ZM15.3399 25.6463L17.6743 27.9808L17.9572 27.6979L15.6228 25.3635L15.3399 25.6463ZM15.3399 20.2098C13.8409 21.7088 13.8409 24.1474 15.3399 25.6463L15.6228 25.3635C14.28 24.0207 14.28 21.8354 15.6228 20.4926L15.3399 20.2098ZM15.4502 20.0995L15.3399 20.2098L15.6228 20.4926L15.733 20.3823L15.4502 20.0995ZM13.0462 17.9784L15.4502 20.3823L15.733 20.0995L13.3291 17.6955L13.0462 17.9784ZM13.0462 16.9201C12.754 17.2123 12.7539 17.6862 13.0462 17.9784L13.329 17.6955C13.193 17.5596 13.193 17.339 13.3291 17.2029L13.0462 16.9201ZM13.7829 16.1834L13.0462 16.9201L13.3291 17.2029L14.0657 16.4662L13.7829 16.1834ZM11.3942 14.0775L13.7829 16.4662L14.0657 16.1834L11.677 13.7947L11.3942 14.0775ZM11.3942 13.0192C11.1019 13.3114 11.1019 13.7853 11.3942 14.0775L11.677 13.7946C11.541 13.6587 11.541 13.4381 11.677 13.302L11.3942 13.0192ZM12.4525 13.0192C12.1602 12.7269 11.6864 12.7269 11.3942 13.0192L11.6771 13.302C11.813 13.166 12.0336 13.166 12.1696 13.302L12.4525 13.0192ZM14.8412 15.4079L12.4525 13.0192L12.1696 13.302L14.5583 15.6907L14.8412 15.4079ZM15.2951 14.6712L14.5583 15.4079L14.8412 15.6907L15.5779 14.954L15.2951 14.6712ZM15.8242 14.4519C15.6258 14.4519 15.4353 14.5307 15.295 14.6713L15.578 14.9539C15.6432 14.8886 15.7318 14.8519 15.8242 14.8519V14.4519ZM16.3534 14.6712C16.213 14.5307 16.0227 14.4519 15.8242 14.4519V14.8519C15.9166 14.8519 16.0052 14.8886 16.0705 14.954L16.3534 14.6712ZM18.7574 17.0753L16.3534 14.6712L16.0705 14.954L18.4745 17.3582L18.7574 17.0753ZM18.5848 16.9651L18.4745 17.0753L18.7574 17.3582L18.8676 17.2479L18.5848 16.9651ZM21.3031 15.8392C20.2766 15.8392 19.3106 16.2393 18.5848 16.9651L18.8676 17.2479C19.5184 16.5972 20.3827 16.2392 21.3031 16.2392V15.8392ZM24.0213 16.9651C23.2956 16.2393 22.3295 15.8392 21.3031 15.8392V16.2392C22.2235 16.2392 23.0878 16.5971 23.7385 17.2479L24.0213 16.9651ZM16.9624 18.5874L16.2257 19.324L16.5085 19.6069L17.2452 18.8702L16.9624 18.5874ZM17.6991 17.8508L16.9624 18.5874L17.2452 18.8702L17.9819 18.1336L17.6991 17.8508ZM15.6828 16.1173L17.6991 18.1336L17.9819 17.8508L15.9656 15.8345L15.6828 16.1173ZM14.4922 17.5907L15.9656 16.1173L15.6828 15.8345L14.2094 17.3079L14.4922 17.5907ZM16.5085 19.324L14.4922 17.3079L14.2094 17.5907L16.2257 19.6069L16.5085 19.324Z" fill="#016D38"/>
<path fill-rule="evenodd" clip-rule="evenodd" d="M33.2849 22C33.8433 22 34.3681 22.2174 34.7629 22.6121C35.1576 23.0069 35.375 23.5317 35.375 24.09C35.375 24.6483 35.1576 25.1731 34.7629 25.5679L23.9428 36.3879C23.5481 36.7826 23.0233 37 22.4651 37C21.9067 37 21.3819 36.7827 20.9871 36.3879C20.5924 35.993 20.375 35.4682 20.375 34.9099C20.375 34.3517 20.5924 33.8269 20.9871 33.4322L31.8072 22.6121C32.2019 22.2174 32.7267 22 33.2849 22ZM23.144 35.5889L33.964 24.769C34.1454 24.5876 34.2452 24.3465 34.2452 24.09C34.2452 23.8335 34.1454 23.5923 33.964 23.411C33.7826 23.2297 33.5415 23.1298 33.285 23.1298C33.0285 23.1298 32.7874 23.2296 32.606 23.411L21.786 34.231C21.4116 34.6054 21.4116 35.2145 21.786 35.5889C22.1604 35.9633 22.7695 35.9633 23.144 35.5889Z" fill="#016D38"/>
<path d="M34.7629 22.6121L34.9043 22.4707L34.7629 22.6121ZM34.7629 25.5679L34.9043 25.7093L34.9043 25.7093L34.7629 25.5679ZM23.9428 36.3879L23.8014 36.2464L23.8014 36.2465L23.9428 36.3879ZM20.9871 36.3879L20.8457 36.5293H20.8457L20.9871 36.3879ZM31.8072 22.6121L31.9486 22.7536L31.9486 22.7535L31.8072 22.6121ZM33.964 24.769L34.1054 24.9104V24.9104L33.964 24.769ZM23.144 35.5889L23.2854 35.7304L23.2854 35.7304L23.144 35.5889ZM32.606 23.411L32.7475 23.5524V23.5524L32.606 23.411ZM21.786 34.231L21.6446 34.0895L21.6446 34.0895L21.786 34.231ZM21.786 35.5889L21.6446 35.7304H21.6446L21.786 35.5889ZM34.9043 22.4707C34.472 22.0384 33.8963 21.8 33.2849 21.8V22.2C33.7903 22.2 34.2642 22.3963 34.6214 22.7536L34.9043 22.4707ZM35.575 24.09C35.575 23.4786 35.3366 22.903 34.9043 22.4707L34.6214 22.7536C34.9787 23.1108 35.175 23.5847 35.175 24.09H35.575ZM34.9043 25.7093C35.3366 25.277 35.575 24.7013 35.575 24.09H35.175C35.175 24.5952 34.9787 25.0691 34.6214 25.4265L34.9043 25.7093ZM24.0842 36.5293L34.9043 25.7093L34.6214 25.4265L23.8014 36.2464L24.0842 36.5293ZM22.4651 37.2C23.0764 37.2 23.652 36.9616 24.0843 36.5293L23.8014 36.2465C23.4442 36.6037 22.9703 36.8 22.4651 36.8V37.2ZM20.8457 36.5293C21.278 36.9617 21.8537 37.2 22.4651 37.2V36.8C21.9597 36.8 21.4858 36.6038 21.1286 36.2465L20.8457 36.5293ZM20.175 34.9099C20.175 35.5212 20.4134 36.0969 20.8457 36.5293L21.1286 36.2465C20.7713 35.8891 20.575 35.4151 20.575 34.9099H20.175ZM20.8457 33.2908C20.4134 33.723 20.175 34.2987 20.175 34.9099H20.575C20.575 34.4048 20.7713 33.9309 21.1286 33.5736L20.8457 33.2908ZM31.6658 22.4707L20.8457 33.2908L21.1286 33.5736L31.9486 22.7536L31.6658 22.4707ZM33.2849 21.8C32.6736 21.8 32.098 22.0384 31.6657 22.4707L31.9486 22.7535C32.3058 22.3963 32.7797 22.2 33.2849 22.2V21.8ZM33.8226 24.6275L23.0025 35.4475L23.2854 35.7304L34.1054 24.9104L33.8226 24.6275ZM34.0452 24.09C34.0452 24.2935 33.9664 24.4837 33.8226 24.6275L34.1054 24.9104C34.3243 24.6915 34.4452 24.3995 34.4452 24.09H34.0452ZM33.8226 23.5524C33.9664 23.6962 34.0452 23.8865 34.0452 24.09H34.4452C34.4452 23.7805 34.3243 23.4884 34.1054 23.2695L33.8226 23.5524ZM33.285 23.3298C33.4885 23.3298 33.6787 23.4086 33.8226 23.5524L34.1054 23.2695C33.8865 23.0508 33.5946 22.9298 33.285 22.9298V23.3298ZM32.7475 23.5524C32.8913 23.4086 33.0815 23.3298 33.285 23.3298V22.9298C32.9755 22.9298 32.6835 23.0507 32.4646 23.2696L32.7475 23.5524ZM21.9274 34.3724L32.7475 23.5524L32.4646 23.2696L21.6446 34.0895L21.9274 34.3724ZM21.9274 35.4475C21.6311 35.1512 21.6311 34.6687 21.9274 34.3724L21.6446 34.0895C21.1921 34.5421 21.1921 35.2778 21.6446 35.7304L21.9274 35.4475ZM23.0025 35.4475C22.7062 35.7438 22.2237 35.7438 21.9274 35.4475L21.6446 35.7304C22.0971 36.1829 22.8329 36.1828 23.2854 35.7304L23.0025 35.4475Z" fill="#016D38"/>
<path d="M39.3635 31.3702C39.1688 30.5189 38.6815 29.7434 37.9545 29.1281L34.4421 26.155C34.198 25.9483 33.8022 25.9483 33.5582 26.155C33.3139 26.3615 33.3139 26.6965 33.5581 26.9031L37.0705 29.8763C37.6206 30.3419 37.989 30.928 38.1362 31.5714C38.1941 31.8243 38.4557 32 38.7492 32C38.7886 32 38.8286 31.9968 38.8686 31.9902C39.2075 31.9347 39.4291 31.6571 39.3635 31.3702Z" fill="#016D38" stroke="#016D38" stroke-width="0.4"/>
<path fill-rule="evenodd" clip-rule="evenodd" d="M39.3283 40.5402L42.2152 43.1562C42.4282 43.3491 42.4282 43.6621 42.2154 43.8552C42.1089 43.9518 41.9693 44 41.8298 44C41.6902 44 41.5506 43.9517 41.4441 43.8552L38.5572 41.2392L37.8245 41.9032C37.7223 41.9959 37.5835 42.048 37.4389 42.048C37.2943 42.048 37.1555 41.9959 37.0533 41.9032L34.6622 39.7365L33.9317 40.3985C33.086 41.1648 31.9616 41.5868 30.7657 41.5868C29.5696 41.5868 28.4452 41.1648 27.5996 40.3985L24.5347 37.6213C24.3218 37.4283 24.3218 37.1154 24.5347 36.9224C24.7477 36.7294 25.093 36.7294 25.306 36.9224L28.3709 39.6997C29.0104 40.2792 29.8609 40.5985 30.7655 40.5985C31.6701 40.5985 32.5205 40.2792 33.1602 39.6997L37.6293 35.6499C38.0281 35.2885 38.3228 34.8404 38.4817 34.3541C38.5671 34.0924 38.8705 33.943 39.1594 34.0204C39.4482 34.0979 39.6131 34.3728 39.5276 34.6346C39.3173 35.2785 38.9276 35.8712 38.4006 36.3488L37.67 37.0108L40.061 39.1773C40.274 39.3703 40.274 39.6832 40.061 39.8762L39.3283 40.5402ZM38.1713 40.1906L38.1716 40.1905L38.9041 39.5267L36.8988 37.7096L36.166 38.3736L35.4333 39.0375L37.4387 40.8547L38.1712 40.1907L38.1713 40.1906Z" fill="#016D38"/>
<path d="M42.2152 43.1562L42.0809 43.3044L42.081 43.3044L42.2152 43.1562ZM39.3283 40.5402L39.194 40.392L39.0305 40.5402L39.194 40.6884L39.3283 40.5402ZM42.2154 43.8552L42.3498 44.0033L42.2154 43.8552ZM41.4441 43.8552L41.5784 43.707L41.4441 43.8552ZM38.5572 41.2392L38.6915 41.091L38.5572 40.9693L38.4229 41.091L38.5572 41.2392ZM37.8245 41.9032L37.6902 41.755L37.6901 41.7551L37.8245 41.9032ZM37.0533 41.9032L37.1876 41.755L37.1876 41.755L37.0533 41.9032ZM34.6622 39.7365L34.7965 39.5883L34.6622 39.4666L34.5279 39.5883L34.6622 39.7365ZM33.9317 40.3985L34.066 40.5467L34.066 40.5467L33.9317 40.3985ZM27.5996 40.3985L27.7339 40.2503L27.7339 40.2503L27.5996 40.3985ZM24.5347 37.6213L24.669 37.4731L24.669 37.473L24.5347 37.6213ZM24.5347 36.9224L24.669 37.0706L24.6691 37.0706L24.5347 36.9224ZM25.306 36.9224L25.1717 37.0706H25.1717L25.306 36.9224ZM28.3709 39.6997L28.5052 39.5515L28.5052 39.5514L28.3709 39.6997ZM33.1602 39.6997L33.2944 39.8479L33.2945 39.8479L33.1602 39.6997ZM37.6293 35.6499L37.495 35.5017L37.495 35.5017L37.6293 35.6499ZM38.4817 34.3541L38.2915 34.292L38.2915 34.292L38.4817 34.3541ZM39.1594 34.0204L39.2112 33.8273L39.2112 33.8273L39.1594 34.0204ZM39.5276 34.6346L39.7177 34.6967L39.7177 34.6967L39.5276 34.6346ZM38.4006 36.3488L38.5349 36.497V36.497L38.4006 36.3488ZM37.67 37.0108L37.5357 36.8626L37.3722 37.0108L37.5357 37.159L37.67 37.0108ZM40.061 39.1773L39.9268 39.3255L39.9268 39.3255L40.061 39.1773ZM40.061 39.8762L39.9268 39.728L39.9268 39.728L40.061 39.8762ZM38.1716 40.1905L38.2745 40.362L38.2913 40.3519L38.3059 40.3387L38.1716 40.1905ZM38.1713 40.1906L38.0684 40.0191L38.0513 40.0294L38.0366 40.0429L38.1713 40.1906ZM38.9041 39.5267L39.0384 39.6749L39.2019 39.5267L39.0384 39.3785L38.9041 39.5267ZM36.8988 37.7096L37.0331 37.5614L36.8988 37.4397L36.7645 37.5614L36.8988 37.7096ZM36.166 38.3736L36.3003 38.5218L36.3003 38.5218L36.166 38.3736ZM35.4333 39.0375L35.299 38.8893L35.1354 39.0375L35.299 39.1857L35.4333 39.0375ZM37.4387 40.8547L37.3044 41.0029L37.4387 41.1246L37.573 41.0029L37.4387 40.8547ZM38.1712 40.1907L38.3055 40.3389L38.306 40.3385L38.1712 40.1907ZM42.3495 43.008L39.4626 40.392L39.194 40.6884L42.0809 43.3044L42.3495 43.008ZM42.3498 44.0033C42.6501 43.7308 42.6502 43.2803 42.3495 43.008L42.081 43.3044C42.2063 43.4179 42.2064 43.5933 42.081 43.7071L42.3498 44.0033ZM41.8298 44.2C42.0143 44.2 42.2031 44.1364 42.3498 44.0033L42.081 43.7071C42.0147 43.7672 41.9244 43.8 41.8298 43.8V44.2ZM41.3098 44.0034C41.4563 44.1362 41.6452 44.2 41.8298 44.2V43.8C41.7353 43.8 41.6448 43.7672 41.5784 43.707L41.3098 44.0034ZM38.4229 41.3874L41.3098 44.0034L41.5784 43.707L38.6915 41.091L38.4229 41.3874ZM37.9588 42.0514L38.6915 41.3874L38.4229 41.091L37.6902 41.755L37.9588 42.0514ZM37.4389 42.248C37.6305 42.248 37.818 42.1792 37.9589 42.0513L37.6901 41.7551C37.6267 41.8126 37.5365 41.848 37.4389 41.848V42.248ZM36.9189 42.0513C37.0599 42.1792 37.2472 42.248 37.4389 42.248V41.848C37.3413 41.848 37.2512 41.8127 37.1876 41.755L36.9189 42.0513ZM34.5279 39.8847L36.919 42.0514L37.1876 41.755L34.7965 39.5883L34.5279 39.8847ZM34.066 40.5467L34.7965 39.8847L34.5279 39.5883L33.7974 40.2503L34.066 40.5467ZM30.7657 41.7868C32.0086 41.7868 33.1816 41.3481 34.066 40.5467L33.7974 40.2503C32.9903 40.9816 31.9145 41.3868 30.7657 41.3868V41.7868ZM27.4653 40.5467C28.3496 41.3481 29.5226 41.7868 30.7657 41.7868V41.3868C29.6166 41.3868 28.5408 40.9816 27.7339 40.2503L27.4653 40.5467ZM24.4004 37.7695L27.4653 40.5467L27.7339 40.2503L24.669 37.4731L24.4004 37.7695ZM24.4004 36.7742C24.0999 37.0466 24.0998 37.4972 24.4005 37.7695L24.669 37.473C24.5437 37.3595 24.5436 37.1842 24.669 37.0706L24.4004 36.7742ZM25.4403 36.7742C25.1511 36.5121 24.6896 36.5121 24.4004 36.7742L24.6691 37.0706C24.8058 36.9467 25.0349 36.9466 25.1717 37.0706L25.4403 36.7742ZM28.5052 39.5514L25.4403 36.7742L25.1717 37.0706L28.2366 39.8479L28.5052 39.5514ZM30.7655 40.3985C29.908 40.3985 29.1061 40.096 28.5052 39.5515L28.2366 39.8478C28.9148 40.4625 29.8139 40.7985 30.7655 40.7985V40.3985ZM33.0259 39.5514C32.4248 40.096 31.6231 40.3985 30.7655 40.3985V40.7985C31.7172 40.7985 32.6161 40.4625 33.2944 39.8479L33.0259 39.5514ZM37.495 35.5017L33.0259 39.5514L33.2945 39.8479L37.7635 35.7981L37.495 35.5017ZM38.2915 34.292C38.1441 34.7435 37.8694 35.1624 37.495 35.5017L37.7635 35.7981C38.1868 35.4146 38.5016 34.9373 38.6718 34.4161L38.2915 34.292ZM39.2112 33.8273C38.8338 33.7261 38.4144 33.9159 38.2915 34.292L38.6718 34.4162C38.7199 34.2689 38.9072 34.1599 39.1076 34.2136L39.2112 33.8273ZM39.7177 34.6967C39.8439 34.3102 39.5941 33.93 39.2112 33.8273L39.1076 34.2136C39.3022 34.2658 39.3822 34.4355 39.3375 34.5725L39.7177 34.6967ZM38.5349 36.497C39.0863 35.9973 39.4961 35.3753 39.7177 34.6967L39.3375 34.5725C39.1385 35.1816 38.7688 35.7452 38.2663 36.2006L38.5349 36.497ZM37.8043 37.159L38.5349 36.497L38.2663 36.2006L37.5357 36.8626L37.8043 37.159ZM40.1953 39.0291L37.8043 36.8626L37.5357 37.159L39.9268 39.3255L40.1953 39.0291ZM40.1953 40.0244C40.4959 39.752 40.496 39.3014 40.1953 39.0291L39.9268 39.3255C40.0521 39.4391 40.0522 39.6144 39.9268 39.728L40.1953 40.0244ZM39.4626 40.6884L40.1953 40.0244L39.9268 39.728L39.194 40.392L39.4626 40.6884ZM38.0686 40.019L38.0684 40.0191L38.2743 40.3621L38.2745 40.362L38.0686 40.019ZM38.7698 39.3785L38.0373 40.0423L38.3059 40.3387L39.0384 39.6749L38.7698 39.3785ZM36.7645 37.8578L38.7698 39.6749L39.0384 39.3785L37.0331 37.5614L36.7645 37.8578ZM36.3003 38.5218L37.0331 37.8578L36.7645 37.5614L36.0317 38.2253L36.3003 38.5218ZM35.5676 39.1857L36.3003 38.5218L36.0317 38.2253L35.299 38.8893L35.5676 39.1857ZM37.573 40.7065L35.5676 38.8893L35.299 39.1857L37.3044 41.0029L37.573 40.7065ZM38.0369 40.0426L37.3044 40.7065L37.573 41.0029L38.3055 40.3389L38.0369 40.0426ZM38.0366 40.0429L38.0364 40.043L38.306 40.3385L38.3061 40.3384L38.0366 40.0429Z" fill="#016D38"/>
</svg>
