<?xml version="1.0" encoding="UTF-8"?>
<svg width="56px" height="56px" viewBox="0 0 56 56" version="1.1" xmlns="http://www.w3.org/2000/svg" xmlns:xlink="http://www.w3.org/1999/xlink">
    <title>Group 3</title>
    <g id="Modales" stroke="none" stroke-width="1" fill="none" fill-rule="evenodd">
        <g id="modal-no-se-guardaron" transform="translate(-115.000000, -54.000000)">
            <g id="Group-5" transform="translate(1.000000, 0.000000)">
                <g id="Group-5-Copy-2" transform="translate(35.000000, 54.000000)">
                    <g id="Group-5-Copy">
                        <g id="Group-3" transform="translate(79.000000, 0.000000)">
                            <g id="Group-4">
                                <g id="Group-2">
                                    <g id="Group">
                                        <path d="M8.17566979,13 C6.30779235,38.1160913 16.5811183,50.6741369 38.9956476,50.6741369 C39.353171,50.7989474 16.7350101,64.2750539 4.50989818,39 C-0.78242123,27.8589569 0.439502638,19.1922903 8.17566979,13 Z" id="Path-7" fill="#FFDC5D"></path>
                                        <path d="M27.55,55.1 C12.325,55.1 0,42.775 0,27.55 C0,12.325 12.325,0 27.55,0 C42.775,0 55.1,12.325 55.1,27.55 C55.1,42.775 42.775,55.1 27.55,55.1 Z M27.55,3.38333333 C14.2583333,3.38333333 3.38333333,14.2583333 3.38333333,27.55 C3.38333333,40.8416667 14.2583333,51.7166667 27.55,51.7166667 C40.8416667,51.7166667 51.7166667,40.8416667 51.7166667,27.55 C51.7166667,14.2583333 40.8416667,3.38333333 27.55,3.38333333 Z" id="Shape" fill="#016D38" fill-rule="nonzero"></path>
                                    </g>
                                </g>
                            </g>
                            <g id="plug" transform="translate(9.000000, 9.000000)" fill="#016D38" fill-rule="nonzero" stroke="#016D38" stroke-width="0.4">
                                <path d="M18.3790897,7.61984475 C17.5526994,6.79338508 16.2079899,6.79338508 15.381376,7.61984475 L14.5625106,8.43870514 C14.3387772,8.66243708 14.3387772,9.02519126 14.5625106,9.2488487 C14.7862439,9.47258064 15.1490003,9.47258064 15.3726592,9.2488487 L16.1915246,8.42998831 C16.5712678,8.05024749 17.1891235,8.05032199 17.5687921,8.42998831 C17.7527407,8.61393575 17.8539907,8.85852848 17.8539907,9.11861779 C17.8539907,9.3787071 17.7526662,9.62329982 17.5687921,9.80724726 L9.80733919,17.5688755 C9.62339061,17.752823 9.37887087,17.8540723 9.11870544,17.8540723 C8.85854002,17.8540723 8.61402027,17.7527485 8.43007169,17.5688755 C8.24612311,17.3850026 8.14487317,17.1403354 8.14487317,16.880246 C8.14487317,16.6201567 8.24619762,16.375564 8.43007169,16.1916166 L14.265168,10.3565565 C14.4889013,10.1328245 14.4889013,9.77007036 14.265168,9.54641292 C14.0414347,9.32268098 13.6786782,9.32268098 13.4550194,9.54641292 L7.6198486,15.381473 C6.7933838,16.2079327 6.7933838,17.5527084 7.6198486,18.3791681 C8.02022919,18.7795462 8.55248057,19 9.11877995,19 C9.68500482,19 10.2172562,18.7795462 10.6175623,18.3791681 L18.3791642,10.6176143 C18.7795448,10.2172362 19,9.68491365 19,9.11869229 C19,8.55247093 18.7794703,8.02022286 18.3790897,7.61984475 Z" id="Path"></path>
                                <path d="M14.839395,6.44093915 L12.5049042,4.10650719 C11.8166659,3.41819385 10.9015107,3.03916511 9.92809308,3.03916511 C8.95467546,3.03916511 8.03952028,3.41826517 7.35121062,4.10650719 L7.24096127,4.21675714 L4.83694066,1.81258104 C4.73410783,1.70967635 4.59462029,1.65191279 4.44921381,1.65191279 C4.30380732,1.65191279 4.16424847,1.70967635 4.06148695,1.81258104 L3.32475601,2.54931593 L0.936067619,0.160614766 C0.721915743,-0.0535382553 0.37469447,-0.0535382553 0.160613907,0.160614766 C-0.0535379689,0.374767787 -0.0535379689,0.721990917 0.160613907,0.936072625 L2.54930229,3.32477379 L1.81264266,4.06150867 C1.59849079,4.2756617 1.59849079,4.62288483 1.81264266,4.83696653 L4.21659196,7.24092869 L4.10634261,7.35117863 C2.68543814,8.7720907 2.68543814,11.084059 4.10634261,12.5048998 L6.44076207,14.8393317 C6.54780235,14.9463726 6.68821695,15 6.82848893,15 C6.96883221,15 7.1091755,14.9464439 7.21621578,14.8393317 C7.43043897,14.62525 7.43043897,14.2780269 7.21628709,14.0639452 L4.88186763,11.7295133 C3.8886251,10.7362654 3.8886251,9.12009827 4.88186763,8.12685042 L8.12680696,4.88196505 C8.60795338,4.40074475 9.24769913,4.13581685 9.92809308,4.13581685 C10.608487,4.13581685 11.2482328,4.40081606 11.7293792,4.88196505 L14.06387,7.216397 C14.2780219,7.43055003 14.6252431,7.43055003 14.8393237,7.216397 C15.0535469,7.00224398 15.0535469,6.65502085 14.839395,6.44093915 Z M5.72877661,5.72880725 L4.99211698,6.46547083 L2.97582323,4.44930892 L4.44921381,2.97591046 L6.46550756,4.99221499 L5.72877661,5.72880725 Z" id="Shape"></path>
                                <path d="M29.3878675,15.6121325 C28.9930998,15.2173647 28.4683099,15 27.9099493,15 C27.3516621,15 26.8268722,15.2173647 26.4321779,15.6121325 L15.6121325,26.4321779 C15.2173647,26.8269457 15,27.3517356 15,27.9099493 C15,28.4681629 15.2173647,28.9930263 15.6121325,29.3878675 C16.0069002,29.7827088 16.5316901,30 17.0900507,30 C17.6483379,30 18.1731278,29.7826353 18.5678221,29.3878675 L29.3878675,18.5678956 C29.7826353,18.1730543 30,17.6482644 30,17.0899773 C30,16.5316901 29.7826353,16.0069002 29.3878675,15.6121325 Z M28.5890027,17.7689573 L17.7689573,28.5889293 C17.3945376,28.9632755 16.785417,28.9633489 16.4109973,28.5889293 C16.0365776,28.2145096 16.0365776,27.6053889 16.4109973,27.2309693 L27.2310427,16.4109973 C27.4124126,16.2296274 27.6535045,16.1297969 27.9100227,16.1297969 C28.166541,16.1297969 28.4076329,16.2297009 28.5890027,16.4109973 C28.7703726,16.5922937 28.8702031,16.833459 28.8702031,17.0899773 C28.8702031,17.3464955 28.7703726,17.5875874 28.5890027,17.7689573 Z" id="Shape"></path>
                                <path d="M33.9884958,24.3702371 C33.7938237,23.5188566 33.3065336,22.7434357 32.5794595,22.1281216 L29.0670697,19.1549638 C28.8229776,18.9483454 28.4272119,18.9483454 28.1832011,19.1549638 C27.9389465,19.3615133 27.9389465,19.69652 28.1831199,19.9031383 L31.6955097,22.8762962 C32.24555,23.3418927 32.6140047,23.9279651 32.7612077,24.5713512 C32.819081,24.8242746 33.0807302,25 33.3741609,25 C33.413583,25 33.4535741,24.996835 33.4936465,24.9902298 C33.8325143,24.934705 34.054091,24.6571497 33.9884958,24.3702371 Z" id="Path"></path>
                                <path d="M21.4210994,14.6216467 L18.9751774,12.1757048 C18.7409843,11.9414317 18.361064,11.9414317 18.1268709,12.1757048 C17.8925997,12.4099779 17.8925997,12.7898232 18.1268709,13.0240183 L20.5727929,15.4699601 C20.8768071,15.7739768 20.8768071,16.2687353 20.5727929,16.57283 C20.2687006,16.8769247 19.7740242,16.8768467 19.4699319,16.57283 L17.0240099,14.1268882 C16.7897388,13.8926151 16.4098965,13.8926151 16.1757034,14.1268882 C15.9414322,14.3611612 15.9414322,14.7410066 16.1757034,14.9752016 L18.6216254,17.4211435 C19.0075526,17.8070738 19.514477,18 20.0214014,18 C20.5282478,18 21.0352502,17.8069958 21.4211774,17.4211435 C22.1929539,16.6494388 22.1929539,15.3934294 21.4210994,14.6216467 Z" id="Path"></path>
                                <path d="M17.4202273,18.6216807 L14.9746988,16.1757071 C14.7405433,15.941431 14.3607622,15.941431 14.1265287,16.1757071 C13.8922952,16.4099832 13.8922952,16.7898335 14.1265287,17.0240316 L16.5720572,19.4700832 C16.7193209,19.6173737 16.8003627,19.8131889 16.8003627,20.0214083 C16.8003627,20.2297058 16.7192429,20.425521 16.5720572,20.5728114 C16.2680139,20.8769101 15.773417,20.8768321 15.4693737,20.5728114 L13.0238452,18.1268378 C12.7896117,17.8925617 12.4098306,17.8925617 12.1756751,18.1268378 C11.9414416,18.3611139 11.9414416,18.7409642 12.1756751,18.9751623 L14.6212036,21.4211359 C15.0070687,21.8071493 15.5138336,22.000078 16.0207545,22 C16.5275193,22 17.0345182,21.8069933 17.4203053,21.4211359 C17.7941585,21.0472927 18,20.5500314 18,20.0213303 C18,19.4927073 17.7941585,18.9955239 17.4202273,18.6216807 Z" id="Path"></path>
                                <path d="M36.8402374,36.1561906 L33.9533036,33.5401821 L34.6860484,32.8762019 C34.8990416,32.6831972 34.8990416,32.3702633 34.6860484,32.1773228 L32.2950348,30.0107591 L33.0255809,29.3487713 C33.5525671,28.8712403 33.9423099,28.2784721 34.1526079,27.6346087 C34.2380747,27.3728343 34.0731699,27.0978844 33.7844268,27.0204383 C33.495471,26.9429921 33.1921171,27.0924214 33.1066503,27.3540672 C32.9478452,27.8404033 32.6530733,28.2884983 32.2542519,28.6498922 L27.7851538,32.6996505 C27.145465,33.2792432 26.2951235,33.5984756 25.390523,33.5984756 C24.4859225,33.5984756 23.6354392,33.2792432 22.9958922,32.6996505 L19.931003,29.9223869 C19.7180098,29.7293821 19.3726672,29.7293821 19.1597449,29.9223869 C18.9467517,30.1153917 18.9467517,30.4283255 19.1597449,30.621266 L22.2246341,33.3985296 C23.0702234,34.1648286 24.1946261,34.5868297 25.3906648,34.5868297 C26.5865617,34.5868297 27.7109644,34.1648286 28.5566956,33.3985296 L29.2872417,32.7365418 L31.6782553,34.9031699 C31.7805318,34.9959124 31.9192646,35.0479717 32.0638844,35.0479717 C32.2085041,35.0479717 32.3473079,34.9959124 32.4495134,34.9031699 L33.1821873,34.2391897 L36.0691211,36.8551982 C36.1755823,36.9516685 36.3152371,37 36.4547502,37 C36.5943341,37 36.7339181,36.951797 36.8403792,36.8551982 C37.0532306,36.6620649 37.0532306,36.3491311 36.8402374,36.1561906 Z M32.7965583,33.1904855 C32.7964873,33.1905497 32.7964164,33.1905497 32.7963455,33.190614 C32.7962746,33.1906783 32.7962036,33.1907425 32.7962036,33.1907425 L32.0636716,33.8546584 L30.0582871,32.0374699 L30.7910319,31.373554 L31.5237767,30.7095739 L33.5290903,32.5266981 L32.7965583,33.1904855 Z" id="Shape"></path>
                            </g>
                        </g>
                    </g>
                </g>
            </g>
        </g>
    </g>
</svg>