<svg width="18" height="19" viewBox="0 0 18 19" fill="none" xmlns="http://www.w3.org/2000/svg">
<path d="M10.1098 14.3296C9.88492 14.3296 9.67585 14.4167 9.53571 14.5684C9.40037 14.7152 9.33542 14.9111 9.34821 15.1346C9.3912 15.8926 9.40238 16.641 9.40517 17.3456C8.43284 17.3605 7.48574 17.3681 6.58678 17.3681C4.9279 17.3681 3.38768 17.3434 1.88505 17.2928C1.87257 14.2601 1.80108 11.1827 1.73191 8.20508C1.6829 6.08156 1.63192 3.88777 1.60264 1.72616C2.75275 1.66 3.98915 1.63025 5.57602 1.63025C6.30984 1.63025 7.04366 1.63629 7.77752 1.64241C8.16932 1.64575 8.56133 1.64885 8.95302 1.65119C8.97451 2.12086 9.011 2.58707 9.05238 3.09613C9.05379 3.11308 9.05627 3.12902 9.05986 3.14847C9.05454 3.1862 9.05175 3.22381 9.05175 3.26114V3.74523C9.05175 4.19433 9.40876 4.55975 9.84816 4.55975C10.2871 4.55975 10.6443 4.19437 10.6443 3.74523V3.26114C10.6443 3.24837 10.6435 3.23597 10.6419 3.22361C10.6476 3.16961 10.6481 3.11666 10.6435 3.06218C10.5882 2.37788 10.5308 1.6706 10.526 0.959964C10.5248 0.777877 10.4708 0.611655 10.3695 0.477204C10.2441 0.19453 9.98527 0.0265762 9.67101 0.0257306C9.01915 0.0245226 8.36741 0.0188852 7.71544 0.012966C6.97201 0.00652325 6.22827 0 5.48505 0C4.20263 0 2.50935 0.0167511 0.781151 0.147417C0.513778 0.167551 0.291519 0.303854 0.153975 0.531806C0.0512303 0.667868 -0.00195285 0.837714 5.48077e-05 1.02427C0.0270597 3.42716 0.0844157 5.86919 0.139882 8.23056C0.214716 11.4219 0.292385 14.7213 0.296007 17.9667C0.296401 18.2972 0.465122 18.5638 0.750052 18.689C0.886809 18.8211 1.06281 18.8943 1.2622 18.902C2.95194 18.9679 4.68856 19 6.57162 19C6.57162 19 6.57182 19 6.57202 19C7.73284 19 8.92192 18.9879 10.2076 18.963C10.5504 18.9562 10.8279 18.7491 10.9347 18.4211C10.978 18.3197 11 18.2074 11 18.0878C11 17.0311 10.9956 16.0779 10.9404 15.1101C10.911 14.5978 10.5003 14.3296 10.1098 14.3296Z" fill="#016D38"/>
<path fill-rule="evenodd" clip-rule="evenodd" d="M12.701 3.23277C14.3134 5.06949 15.9255 6.90625 17.5377 8.743C17.8104 8.8687 18.0173 9.17629 17.9989 9.49971C18.0171 9.82341 17.8104 10.1311 17.5377 10.2569L12.701 15.7672C12.2327 16.301 11.5411 15.8252 11.5101 15.261C11.5085 15.2542 11.5069 15.2474 11.5053 15.2407C11.4987 15.2132 11.4922 15.1857 11.4893 15.1555C11.4226 14.4934 11.4034 13.8302 11.3974 13.1661H6.80432C6.46112 13.1661 6.24646 12.9615 6.16075 12.7056C6.06342 12.5915 6 12.4395 6 12.2441V9.76418V9.23556V6.75577C6 6.56044 6.06346 6.40833 6.16075 6.29426C6.24646 6.03843 6.46112 5.83383 6.80432 5.83383H11.3974C11.4034 5.16969 11.4226 4.50634 11.4893 3.8444C11.4922 3.81406 11.4988 3.78621 11.5054 3.75841C11.507 3.75186 11.5085 3.7453 11.5101 3.73873C11.5411 3.17454 12.2327 2.69921 12.701 3.23277ZM12.8146 12.4383C12.8146 12.7781 12.8168 13.1174 12.8221 13.4567L16.2949 9.50031L12.8221 5.54371C12.8168 5.88319 12.8146 6.22252 12.8146 6.56204C12.8144 7.03342 12.4564 7.26791 12.0999 7.26579C12.0427 7.28006 11.9824 7.28994 11.9152 7.28994H7.4196V9.23596V9.76458V11.7105H11.9152C11.9823 11.7105 12.0427 11.7203 12.0999 11.7347C12.4564 11.7326 12.8144 11.967 12.8146 12.4383Z" fill="#016D38"/>
</svg>
