<svg width="42" height="33" viewBox="0 0 77 21" fill="none" xmlns="http://www.w3.org/2000/svg">
    <path fill-rule="evenodd" clip-rule="evenodd"
        d="M11.6876 1.56634C11.6876 2.42054 10.9747 3.13267 10.1195 3.13267C9.26436 3.13267 8.55145 2.42054 8.55145 1.56634C8.55145 0.712129 9.26436 0 10.1195 0C10.9747 0 11.6876 0.712129 11.6876 1.56634ZM10.1195 4.41312C9.19324 4.41312 8.48033 5.12525 8.48033 6.0505C8.48033 6.97574 9.19324 7.68787 10.1195 7.68787C11.0458 7.68787 11.7587 6.97574 11.7587 6.0505C11.7587 5.12525 11.0458 4.41312 10.1195 4.41312ZM10.1195 8.82797C9.19324 8.82797 8.40921 9.61114 8.40921 10.5364C8.40921 11.4616 9.19324 12.2448 10.1195 12.2448C11.0458 12.2448 11.8298 11.4616 11.8298 10.5364C11.8298 9.60941 11.0458 8.82797 10.1195 8.82797ZM10.1195 13.3121C9.19324 13.3121 8.48033 14.0243 8.48033 14.9495C8.48033 15.8748 9.19324 16.5869 10.1195 16.5869C11.0458 16.5869 11.7587 15.8748 11.7587 14.9495C11.7587 14.0953 11.0458 13.3121 10.1195 13.3121ZM10.1195 17.8673C9.26436 17.8673 8.55145 18.5795 8.55145 19.4337C8.55145 20.2879 9.26436 21 10.1195 21C10.9747 21 11.6876 20.2879 11.6876 19.4337C11.6876 18.5795 10.9747 17.8673 10.1195 17.8673ZM14.4681 4.2C13.4707 4.2 12.6156 5.05421 12.6156 6.0505C12.6156 7.04678 13.4707 7.90099 14.4681 7.90099C15.4655 7.90099 16.3206 7.04678 16.3206 6.0505C16.3206 5.05421 15.4655 4.2 14.4681 4.2ZM14.4681 8.61312C13.3996 8.61312 12.5444 9.46733 12.5444 10.5347C12.5444 11.602 13.3996 12.4562 14.4681 12.4562C15.5366 12.4562 16.3917 11.602 16.3917 10.5347C16.3917 9.46733 15.5366 8.61312 14.4681 8.61312ZM14.4681 13.099C13.4707 13.099 12.6156 13.9532 12.6156 14.9495C12.6156 15.9458 13.4707 16.8 14.4681 16.8C15.4655 16.8 16.3206 15.9458 16.3206 14.9495C16.3206 13.9532 15.4655 13.099 14.4681 13.099ZM18.9572 8.4C17.8175 8.4 16.8184 9.32525 16.8184 10.5364C16.8184 11.6748 17.7447 12.6728 18.9572 12.6728C20.1679 12.6728 21.0959 11.7475 21.0959 10.5364C21.023 9.32525 20.0968 8.4 18.9572 8.4ZM5.70155 4.62797C4.91752 4.62797 4.27573 5.26906 4.27573 6.05223C4.27573 6.8354 4.91752 7.47649 5.70155 7.47649C6.48557 7.47649 7.12737 6.8354 7.12737 6.05223C7.12737 5.26733 6.48557 4.62797 5.70155 4.62797ZM5.70154 9.04109C4.8464 9.04109 4.20461 9.68218 4.20461 10.5364C4.20461 11.3906 4.8464 12.0317 5.70154 12.0317C6.55669 12.0317 7.19848 11.3906 7.19848 10.5364C7.19848 9.68218 6.55669 9.04109 5.70154 9.04109ZM5.70155 13.5252C4.91752 13.5252 4.27573 14.1663 4.27573 14.9495C4.27573 15.7327 4.91752 16.3738 5.70155 16.3738C6.48557 16.3738 7.12737 15.7327 7.12737 14.9495C7.12737 14.1663 6.48557 13.5252 5.70155 13.5252ZM1.28358 9.25421C0.570675 9.25421 0 9.82426 0 10.5364C0 11.2485 0.570675 11.8186 1.28358 11.8186C1.99649 11.8186 2.56717 11.2485 2.56717 10.5364C2.56544 9.82426 1.99649 9.25421 1.28358 9.25421Z"
        fill="#00AEB6" />
    <path fill-rule="evenodd" clip-rule="evenodd"
        d="M37.2299 8.40002C37.074 8.40002 36.918 8.53976 36.918 8.67949V19.6706C36.918 19.8103 37.074 19.95 37.2299 19.95H38.7156C38.8716 19.95 39.0276 19.8103 39.0276 19.6706V8.67949C39.0276 8.53976 38.8716 8.40002 38.7156 8.40002H37.2299Z"
        fill="#041821" />
    <path fill-rule="evenodd" clip-rule="evenodd"
        d="M38.5002 3.15002C37.6214 3.15002 36.918 3.85026 36.918 4.72502C36.918 5.59979 37.6214 6.30002 38.5002 6.30002C39.3789 6.30002 40.0824 5.59979 40.0824 4.72502C40.0824 3.84813 39.3789 3.15002 38.5002 3.15002Z"
        fill="#041821" />
    <path fill-rule="evenodd" clip-rule="evenodd"
        d="M65.7094 8.40002C65.5534 8.40002 65.3975 8.53976 65.3975 8.67949V19.6706C65.3975 19.8103 65.5534 19.95 65.7094 19.95H67.1951C67.3511 19.95 67.5071 19.8103 67.5071 19.6706V8.67949C67.5071 8.53976 67.3511 8.40002 67.1951 8.40002H65.7094Z"
        fill="#041821" />
    <ellipse cx="66.9797" cy="4.72502" rx="1.58219" ry="1.575" fill="#041821" />
    <path fill-rule="evenodd" clip-rule="evenodd"
        d="M48.21 9.43523C48.3651 9.43523 48.5203 9.29735 48.5203 9.15947V7.84627C48.5203 7.70839 48.3651 7.57052 48.21 7.57052H45.101V3.42578C45.101 3.2879 44.9458 3.15002 44.7907 3.15002H43.3128C43.1576 3.15002 43.0025 3.2879 43.0025 3.42578V7.57052H41.447C41.2919 7.57052 41.1367 7.70839 41.1367 7.84627V9.15947C41.1367 9.29735 41.2919 9.43523 41.447 9.43523H43.0025V15.7221C43.0025 17.6558 44.4803 18.9 46.5788 18.9H48.1343C48.2894 18.9 48.4446 18.7621 48.4446 18.6243V17.3111C48.4446 17.1732 48.2894 17.0353 48.1343 17.0353H46.8135C45.803 17.0353 45.1029 16.4132 45.1029 15.4464V9.36797H48.2118V9.43523H48.21Z"
        fill="#041821" />
    <path fill-rule="evenodd" clip-rule="evenodd"
        d="M76.6894 9.43523C76.8446 9.43523 76.9998 9.29735 76.9998 9.15947V7.84627C76.9998 7.70839 76.8446 7.57052 76.6894 7.57052H73.5805V3.42578C73.5805 3.2879 73.4253 3.15002 73.2701 3.15002H71.7923C71.6371 3.15002 71.482 3.2879 71.482 3.42578V7.57052H69.9265C69.7714 7.57052 69.6162 7.70839 69.6162 7.84627V9.15947C69.6162 9.29735 69.7714 9.43523 69.9265 9.43523H71.482V15.7221C71.482 17.6558 72.9598 18.9 75.0583 18.9H76.6138C76.7689 18.9 76.9241 18.7621 76.9241 18.6243V17.3111C76.9241 17.1732 76.7689 17.0353 76.6138 17.0353H75.2135C74.203 17.0353 73.5029 16.4132 73.5029 15.4464V9.36797H76.6894V9.43523Z"
        fill="#041821" />
    <path fill-rule="evenodd" clip-rule="evenodd"
        d="M28.1602 10.136V19.6661C28.1602 19.808 28.3091 19.95 28.4579 19.95H29.8758C30.0247 19.95 30.1736 19.808 30.1736 19.6661V10.136H33.4559C33.6048 10.136 33.7537 9.99407 33.7537 9.85211V8.50008C33.7537 8.35812 33.6048 8.21617 33.4559 8.21617H30.1736V5.72676C30.1736 4.73134 30.9197 4.01983 31.8147 4.01983H33.4559C33.6048 4.01983 33.7537 3.87788 33.7537 3.73592V2.38389C33.7537 2.24193 33.6048 2.09998 33.4559 2.09998H31.8892C29.8014 2.09998 28.1602 3.73592 28.1602 5.65578V8.21617H26.6679C26.519 8.21617 26.3701 8.35812 26.3701 8.50008V9.85211C26.3701 9.99407 26.519 10.136 26.6679 10.136H28.1602Z"
        fill="#041821" />
    <path fill-rule="evenodd" clip-rule="evenodd"
        d="M61.7063 9.53043C60.633 8.41967 59.1294 7.79412 57.5544 7.79412C56.0508 7.79412 54.5472 8.41967 53.6168 9.32248V2.37724C53.6168 2.23861 53.4739 2.09998 53.331 2.09998H51.9703C51.8274 2.09998 51.6846 2.23861 51.6846 2.37724V13.8382C51.6846 18.075 54.6186 19.95 57.483 19.95C60.3456 19.95 63.2813 18.075 63.2813 13.8382C63.3528 12.1696 62.7796 10.6412 61.7063 9.53043ZM57.5544 18.212C54.6918 18.212 53.6168 15.9888 53.6168 13.9059C53.6168 11.3361 55.1918 9.66907 57.5544 9.66907C59.917 9.66907 61.492 11.4054 61.492 13.9059C61.4206 15.9904 60.4187 18.212 57.5544 18.212Z"
        fill="#041821" />
</svg>