<svg width="84" height="23" viewBox="0 0 84 23" fill="none" xmlns="http://www.w3.org/2000/svg">
<path fill-rule="evenodd" clip-rule="evenodd" d="M11.777 14.2946C11.6158 14.5735 11.3411 14.5449 10.9236 14.3411C9.11792 13.4758 7.19138 13.2862 5.14396 13.7797C2.85115 14.2696 1.74504 17.5199 3.40055 19.7297C4.67881 21.2923 7.78839 21.607 10.6929 20.5307V18.7714C10.6892 18.4782 10.5207 18.3137 10.1215 18.3137H7.45509C7.07784 18.3137 6.88738 18.1564 6.88372 17.8417V17.1659C6.88738 16.837 7.04853 16.6689 7.39282 16.6689L11.9894 16.6617C12.4802 16.6653 12.7952 16.98 12.7915 17.4556V20.7274C12.7915 21.6356 12.722 21.8859 12.081 22.1326C8.57585 23.2876 4.06349 23.5772 1.55458 21.1779C-0.862759 19.0325 -0.459868 14.3876 2.75593 12.471C5.33076 10.9692 9.73691 11.3518 12.1213 12.6498C12.3813 12.7999 12.4839 13.0252 12.3044 13.3256L11.777 14.2946ZM29.5811 11.6772C29.0537 11.6772 28.7606 11.9453 28.7606 12.3744H28.7643V22.2363C28.7643 22.6118 28.9035 22.8442 29.3357 22.8442H30.6652C31.0132 22.8406 31.1853 22.6368 31.189 22.2363L31.2329 18.3102L33.4012 18.3066C33.9836 18.303 34.4084 18.4854 34.7161 18.918L37.4045 22.4974C37.6242 22.7942 37.7964 22.8406 38.2359 22.8371H39.8255C40.1771 22.8371 40.2943 22.7083 40.0709 22.3972L37.4631 18.7571C37.192 18.3745 37.2726 18.1207 37.6938 17.9919C39.3969 17.4734 40.1734 16.6474 40.1844 14.9919C40.1734 12.4817 38.1114 11.67 35.5072 11.67L29.5811 11.6772ZM42.9973 12.4459C42.9973 11.931 43.261 11.6736 43.7921 11.6772H45.1656C45.8992 11.6807 46.0134 11.8811 46.4187 12.592L46.4292 12.6104L49.4216 18.0313C49.5791 18.3066 49.7732 18.3102 49.938 18.0313L53.1904 12.4388C53.4322 12.0133 53.6885 11.6772 54.0292 11.6736H55.6554C56.1279 11.6736 56.3549 11.7379 56.3586 12.3708L56.3549 22.2363C56.3549 22.7119 56.2011 22.8371 55.7799 22.8406H54.6152C54.1757 22.8406 54.0255 22.6225 54.0255 22.2328V15.0098L50.0259 22.2328C49.7512 22.7262 49.5095 22.7226 49.2348 22.2328L45.1656 14.9061V22.2328C45.1546 22.6368 44.9825 22.8371 44.6308 22.8371H43.6236C43.239 22.8335 42.9936 22.6726 42.9936 22.2256V12.4459H42.9973ZM62.2518 11.6772H60.6366C60.4278 11.6772 60.2556 11.8488 60.2556 12.0562V22.4652C60.2556 22.6726 60.4278 22.8406 60.6366 22.8406H62.2518C62.4606 22.8406 62.6327 22.6726 62.6327 22.4652V12.0526C62.6327 11.8452 62.4606 11.6772 62.2518 11.6772ZM66.625 12.2886C66.625 11.8881 66.863 11.6772 67.3428 11.6772H68.3794C68.8775 11.6772 69.2877 11.9096 69.6247 12.2636L75.9574 18.75C76.1625 18.9574 76.4335 18.9967 76.4298 18.7571V12.1921C76.4298 11.8738 76.602 11.6807 77.0195 11.6772L78.0414 11.6807C78.3527 11.6772 78.6274 11.813 78.6238 12.1813L78.6274 22.1541C78.6238 22.7298 78.5761 22.8442 78.0524 22.8442H77.0964C76.6862 22.8406 76.4701 22.7655 76.1918 22.4759L69.4342 15.5282C69.1449 15.2243 68.8445 15.2243 68.8445 15.6141L68.8482 22.3508C68.8445 22.6583 68.7017 22.8335 68.3244 22.8371H67.1524C66.8118 22.8371 66.6323 22.6869 66.6286 22.3722L66.625 12.2886ZM81.5246 21.3031V22.8085H81.7297V21.5248L82.1948 22.8085H82.3853L82.8504 21.5462V22.8085H83.0556V21.2995H82.7699L82.3853 22.3508C82.3638 22.4136 82.3449 22.4679 82.3292 22.5128C82.3181 22.5446 82.3086 22.5717 82.3011 22.5939C82.2864 22.5474 82.2608 22.4723 82.2241 22.3722L81.8432 21.3031H81.5246ZM80.5686 21.4819V22.812H80.7811V21.4819H81.3121V21.3031H80.0375V21.4819H80.5686ZM20.5344 11.6807C21.3768 11.6772 21.5452 11.9954 21.8309 12.5425L26.8671 22.1291C27.1784 22.7262 27.0172 22.8406 26.4678 22.8406H24.9625C24.4973 22.8406 24.3801 22.7906 24.2116 22.4473L23.7904 21.6034C23.6476 21.3174 23.5267 21.2602 22.9151 21.2602H17.7215C17.3186 21.2602 17.1428 21.3531 17.0182 21.6142L16.652 22.3651C16.4542 22.7763 16.3297 22.8371 15.8792 22.8371H14.7364C14.3335 22.8371 14.1907 22.6654 14.3885 22.2685L19.2048 12.5818L19.2083 12.5749C19.481 12.0317 19.659 11.6772 20.5344 11.6807Z" fill="black"/>
<path fill-rule="evenodd" clip-rule="evenodd" d="M67.9549 6.35474C67.5143 7.00191 67.7015 7.66315 68.5094 7.66667L75.7614 7.65963C76.7455 7.66315 76.9034 7.13908 76.3526 6.2633L72.8312 0.378985C72.4971 -0.123977 71.8361 -0.127495 71.5277 0.375468L67.9549 6.35474Z" fill="#00AEEF"/>
<path fill-rule="evenodd" clip-rule="evenodd" d="M31.4773 12.7821L34.5133 12.7778C35.7773 12.7778 37.0522 13.3679 37.0558 14.7462C37.063 15.9263 36.2167 16.6111 34.6681 16.6025L31.4845 16.6111C31.0092 16.6154 30.6634 16.3656 30.667 15.8488V13.5445C30.6706 13.0233 30.9552 12.7821 31.4773 12.7821Z" fill="white"/>
<path fill-rule="evenodd" clip-rule="evenodd" d="M20.6053 14.2375L22.9261 18.6623C23.0954 18.9871 22.9798 19.1667 22.509 19.1667H18.2803C17.9375 19.1667 17.8013 18.9603 17.9458 18.6928L20.2088 14.2375C20.3244 14.0006 20.4772 13.9892 20.6053 14.2375Z" fill="white"/>
</svg>
