<svg width="42" height="33" viewBox="0 0 40 33" fill="none" xmlns="http://www.w3.org/2000/svg">
    <path
        d="M4.09399 17.457L6.05222 19.4205L10.2813 15.1965L8.33956 13.233L7.45095 12.342C6.74335 11.6325 6.36487 10.7085 6.36487 9.702C6.36487 8.8275 6.66108 8.0355 7.1712 7.4085C7.86234 6.534 8.91551 5.973 10.1003 5.973C11.1041 5.973 12.0256 6.369 12.7497 7.0785L13.6218 7.92L15.5801 9.9L19.8256 5.676L17.851 3.7125L16.9623 2.8545C15.2016 1.089 12.7826 0 10.1003 0C4.7193 0 0.375 4.356 0.375 9.7185C0.375 11.055 0.638291 12.3255 1.13196 13.497C1.62563 14.6685 2.33323 15.708 3.22184 16.5825L4.09399 17.457Z"
        fill="#EA4335" />
    <path
        d="M13.7859 20.163L19.8252 14.1405L15.5796 9.90002L10.2809 15.1965L6.05176 19.4205L8.32264 21.714L10.2809 23.661L12.3214 21.615"
        fill="#FBBC04" />
    <path
        d="M24.0382 28.974L33.5825 19.4205L29.3369 15.1965L19.8091 24.7335L14.5104 19.437L10.2812 23.661L15.58 28.974L15.5635 28.9905L19.8091 33L24.0547 28.974H24.0382Z"
        fill="#34A853" />
    <path
        d="M36.3965 16.5825C38.3712 14.6025 39.5067 11.5665 39.194 8.49753C38.7332 3.84453 34.8826 0.346533 30.2092 0.0330326C27.2636 -0.164967 24.5649 0.940532 22.656 2.85453L15.5801 9.90003L19.8092 14.1405L26.8851 7.07853C27.7408 6.23703 28.9256 5.84103 30.1434 6.03903C31.7231 6.28653 33.0067 7.59003 33.2206 9.17403C33.3851 10.362 32.9902 11.517 32.151 12.3585L29.337 15.1965L33.5826 19.4205L36.3965 16.5825Z"
        fill="#4285F4" />
</svg>