<svg width="42" height="33" viewBox="0 0 42 33" fill="none" xmlns="http://www.w3.org/2000/svg">
    <path
        d="M0.375 33C1.10313 32.7057 1.92623 32.1169 2.65436 31.6918L18.8631 21.8474C18.4516 21.2914 13.1647 18.3152 12.3416 17.7919C11.7085 17.3667 10.8537 16.8107 10.1889 16.5164L10.1572 21.3568L5.72515 23.9732L5.66184 9.05946L20.9842 18.2498L36.2748 9.02676L36.3382 23.9405L31.8744 21.2914L31.8428 16.4836L23.0736 21.7166C23.8017 22.3707 37.0346 30.2854 39.2507 31.5937C39.9471 32.0188 40.8969 32.6402 41.5933 32.9346L41.625 0L31.3996 6.08325C29.69 7.09713 27.9489 8.14371 26.271 9.15758L20.9842 12.3954C20.1294 12.0357 19.2113 11.3816 18.3882 10.891L0.375 0.0654113L0.375 33Z"
        fill="black" />
</svg>