<svg width="82" height="14" viewBox="0 0 82 14" fill="none" xmlns="http://www.w3.org/2000/svg">
<path fill-rule="evenodd" clip-rule="evenodd" d="M46.2682 10.6101L45.472 12.9317H34.1782C33.1714 13.0318 32.906 12.5266 33.2767 11.368L35.13 5.7145H40.4337L39.9029 7.83565C39.4773 8.59352 39.7976 8.89405 40.9645 8.89405H45.3667C46.4284 8.84614 46.6938 9.3993 46.2682 10.6101ZM48.1215 12.9317C47.1651 12.8794 46.9546 12.3785 47.7509 11.4159L52.4688 5.7145H62.3303L63.4972 12.9317H58.0379L57.562 10.2573C57.5071 9.65192 57.0312 9.34703 56.235 9.34703C55.123 9.34703 54.5921 9.49947 54.5921 9.90018L51.9929 12.9317H48.1215ZM68.3753 0.317962H76.4888C79.9346 0.0653396 81.6826 1.58107 81.6826 4.86081C81.6826 5.46623 81.6277 5.97147 81.4172 6.37654L80.8361 7.58738L79.9346 8.39316L79.0331 8.89841L80.3601 12.936H74.9009L73.9994 10.2617C73.8392 9.60401 73.3084 9.25121 72.3566 9.25121L71.8806 9.35138L71.3498 9.50383L71.0295 9.85663L70.6588 10.5143L70.0227 12.936H65.6205C64.8243 13.1364 64.6641 12.5309 65.0897 11.2722L66.6822 5.72321H76.3835C77.0196 5.72321 77.285 5.47058 77.285 4.86516C77.285 4.31201 77.0196 3.95485 76.4888 3.95485H67.3183L68.3753 0.317962ZM62.0146 3.9505H53.8508L56.871 0.317962H61.4837L62.0146 3.9505ZM12.1763 0.317962C15.6221 0.0653396 17.2649 1.58107 17.2649 4.86081C17.2649 7.6353 15.8875 9.15103 12.9725 9.35138H8.35982C7.19292 9.09876 6.61175 9.50383 6.34634 10.51L5.71026 12.9317H1.30806C0.511815 13.132 0.301315 12.5266 0.777229 11.2678L2.36971 5.71885H12.071C12.7071 5.71885 12.9725 5.46623 12.9725 4.86081C12.9725 4.30765 12.7071 3.9505 12.1763 3.9505H2.95088L4.01253 0.317962H12.1763ZM40.9691 3.9505H35.5052L36.6172 0.317962H42.1314L40.9691 3.9505Z" fill="#222222"/>
<path fill-rule="evenodd" clip-rule="evenodd" d="M26.2747 0.104886L27.2812 0.369381L28.2372 0.688599L29.1384 1.21759L29.9344 1.85147L30.6252 2.54007L31.261 3.33355L31.6865 4.33681L18.8091 4.23192L19.2345 3.33355L19.8704 2.54007L20.4513 1.85147L21.3525 1.21759L22.1485 0.688599L23.1046 0.369381L24.1659 0.104886L25.2272 0L26.2747 0.104886ZM18.6947 9.77264L18.3242 8.45016L18.1641 7.0228L18.2693 6.06971H32.2079V7.0228L32.1027 8.45016L31.6773 9.77264C31.5172 10.1967 31.3068 10.5661 31.0414 10.9355L30.1951 11.9935C29.9298 12.3127 29.5593 12.5726 29.1338 12.8371L27.9673 13.471L26.6453 13.8951L25.2135 14L23.7313 13.8951L22.5145 13.471L21.2427 12.8371L20.2867 11.9935L19.3855 10.9355L18.6947 9.77264Z" fill="#222222"/>
</svg>
