<svg width="38" height="37" viewBox="0 0 38 37" fill="none" xmlns="http://www.w3.org/2000/svg">
<path fill-rule="evenodd" clip-rule="evenodd" d="M30.9811 13.6564C30.5129 8.03613 26.2547 4.10143 20.8431 4.62119C17.4339 4.94859 14.4484 6.3728 11.8871 8.66287C11.5308 8.98209 11.0843 9.35276 11.0843 9.35276C11.0843 9.35276 10.6818 8.83418 10.4442 8.45065C9.06766 6.22781 7.34451 4.40837 4.68041 3.85413C4.25334 4.07045 3.94445 4.38207 3.88279 4.89305C4.44689 6.15063 4.8597 7.46668 5.82119 8.53484C6.93228 9.76962 7.9326 11.1178 8.59377 12.6847C8.74792 13.0501 9.63748 15.1659 9.63748 15.1659C8.71652 14.1738 7.38505 13.3278 7.38505 13.3278C7.38505 13.3278 7.04076 13.7791 6.72559 14.1931C4.78833 16.7363 3.11028 19.4462 1.94095 22.4478C0.715677 25.5914 -0.214414 28.8164 0.043088 32.2629C0.331422 36.1134 3.73376 38.0883 7.10585 36.3823C10.2695 34.7815 12.1948 32.0647 13.3521 28.7766C15.1295 23.7287 14.8126 18.6703 13.0564 13.6792C12.9485 13.3722 12.7875 12.8969 12.7875 12.8969C12.7875 12.8969 13.1552 12.5186 13.3773 12.3164C14.6379 11.1675 16.0111 10.1941 17.5441 9.48314C19.0497 8.78448 20.6313 8.2507 22.3025 8.38867C25.6888 8.66814 27.4103 11.9574 27.223 14.8251C26.9118 19.5882 22.5183 22.4156 18.4565 21.9514C18.2538 21.928 18.0391 21.852 17.869 21.7386C17.6971 21.6234 17.7023 21.4135 17.825 21.2422C17.9575 21.0575 18.1807 21.0276 18.2926 21.1937C18.8248 21.9835 18.9401 21.9052 19.9724 21.8169C20.504 21.7713 20.9122 21.6918 20.9122 21.6918C20.9122 21.6918 20.9248 21.379 20.5388 20.8797C19.3997 19.4058 16.8938 19.7432 15.9334 21.4498C14.7407 23.5691 16.1652 25.8031 18.8031 26.0188C25.3651 26.5555 31.5743 20.7751 30.9811 13.6564ZM6.6822 32.2845C6.34362 32.5891 5.94966 32.851 5.5437 33.051C4.50399 33.5631 3.96272 33.2468 3.72235 32.1003C3.50595 31.0684 3.59959 30.0371 3.79486 29.0397C4.68498 24.4911 6.77697 20.5079 9.42908 16.8035C9.56211 16.6182 9.94865 16.047 9.94865 16.047C9.94865 16.047 10.2039 16.7883 10.2604 17.021C10.6663 18.6902 10.8776 20.3851 10.8839 22.7646C10.7537 26.0498 9.68258 29.5881 6.6822 32.2845Z" fill="#40C2D2"/>
<path fill-rule="evenodd" clip-rule="evenodd" d="M37.1842 25.152C37.5014 29.5911 35.9622 32.5838 32.2421 34.3949C26.8019 37.043 19.4738 34.7993 17.9317 27.0559C17.8955 26.8756 17.8455 26.5496 17.8369 25.6146C20.0713 26.5755 22.0126 26.4032 22.0126 26.4032C22.0126 26.4032 22.0034 26.6446 22.0879 27.0254C22.1338 27.2339 22.2143 27.4361 22.2907 27.6366C23.1973 30.0002 24.7594 31.5958 27.3902 31.7888C29.99 31.9795 31.9485 30.768 33.1062 28.5312C33.8715 27.0519 35.0177 25.943 36.0041 24.6762C36.4764 24.6359 36.9044 24.7096 37.1842 25.152Z" fill="#40C2D2"/>
<path fill-rule="evenodd" clip-rule="evenodd" d="M4.65306 3.63071C4.20774 3.83773 3.88565 4.13597 3.82135 4.625C2.65029 3.50593 1.47328 2.39302 0.311747 1.26499C0.00394967 0.966202 -0.1562 0.597469 0.2153 0.240486C0.610019 -0.138879 1.01843 -0.034246 1.37207 0.309868C2.48895 1.39648 3.65644 2.4389 4.65306 3.63071Z" fill="#FCB535"/>
<path fill-rule="evenodd" clip-rule="evenodd" d="M36.8103 25.4375C36.5406 25.0052 36.1287 24.9332 35.6738 24.9726C35.8739 23.4631 36.383 22.0308 36.7423 20.5607C36.8407 20.1589 37.1337 19.954 37.5466 20.0773C38.0319 20.2219 38.0501 20.6451 37.9545 21.0318C37.5913 22.5047 37.1945 23.9691 36.8103 25.4375Z" fill="#FCB535"/>
</svg>
