<svg width="57" height="56" viewBox="0 0 57 56" fill="none" xmlns="http://www.w3.org/2000/svg">
<path fill-rule="evenodd" clip-rule="evenodd" d="M8.30063 13C8.30063 13 5.49881 50.6741 39.1206 50.6741C39.4781 50.7989 16.86 64.2751 4.63486 39C-3.30362 22.2884 8.30063 13 8.30063 13Z" fill="#FFDC5D"/>
<path fill-rule="evenodd" clip-rule="evenodd" d="M0.125 27.55C0.125 42.775 12.45 55.1 27.675 55.1C42.9 55.1 55.225 42.775 55.225 27.55C55.225 12.325 42.9 0 27.675 0C12.45 0 0.125 12.325 0.125 27.55ZM3.50833 27.55C3.50833 14.2583 14.3833 3.38333 27.675 3.38333C40.9667 3.38333 51.8417 14.2583 51.8417 27.55C51.8417 40.8417 40.9667 51.7167 27.675 51.7167C14.3833 51.7167 3.50833 40.8417 3.50833 27.55Z" fill="#016D38"/>
<path fill-rule="evenodd" clip-rule="evenodd" d="M18.1407 10H37.8565C39.1098 10 40.1296 11.1322 40.1296 12.5236V44.4764C40.1296 45.8678 39.1098 47 37.8565 47H18.1407C16.8872 47 15.8673 45.8678 15.8673 44.4764V12.5236C15.8673 11.1322 16.8872 10 18.1407 10ZM37.9626 45.7869C38.4888 45.7869 38.9165 45.289 38.9165 44.6774V42.1475H17.0804V44.6774C17.0804 45.289 17.5084 45.7869 18.0346 45.7869H37.9626ZM38.9165 40.3279H17.0804V16.0656H38.9165V40.3279ZM17.0804 14.8525H38.9165V12.3229C38.9165 11.711 38.4888 11.2131 37.9626 11.2131H18.0346C17.5084 11.2131 17.0804 11.711 17.0804 12.3229V14.8525Z" fill="#016D38"/>
<path d="M38.9165 42.1475H39.4165V41.6475H38.9165V42.1475ZM17.0804 42.1475V41.6475H16.5804V42.1475H17.0804ZM17.0804 40.3279H16.5804V40.8279H17.0804V40.3279ZM38.9165 40.3279V40.8279H39.4165V40.3279H38.9165ZM17.0804 16.0656V15.5656H16.5804V16.0656H17.0804ZM38.9165 16.0656H39.4165V15.5656H38.9165V16.0656ZM38.9165 14.8525V15.3525H39.4165V14.8525H38.9165ZM17.0804 14.8525H16.5804V15.3525H17.0804V14.8525ZM37.8565 9.5H18.1407V10.5H37.8565V9.5ZM40.6296 12.5236C40.6296 10.9065 39.4338 9.5 37.8565 9.5V10.5C38.7858 10.5 39.6296 11.3579 39.6296 12.5236H40.6296ZM40.6296 44.4764V12.5236H39.6296V44.4764H40.6296ZM37.8565 47.5C39.4338 47.5 40.6296 46.0935 40.6296 44.4764H39.6296C39.6296 45.6421 38.7858 46.5 37.8565 46.5V47.5ZM18.1407 47.5H37.8565V46.5H18.1407V47.5ZM15.3673 44.4764C15.3673 46.0936 16.5632 47.5 18.1407 47.5V46.5C17.2111 46.5 16.3673 45.6421 16.3673 44.4764H15.3673ZM15.3673 12.5236V44.4764H16.3673V12.5236H15.3673ZM18.1407 9.5C16.5632 9.5 15.3673 10.9064 15.3673 12.5236H16.3673C16.3673 11.3579 17.2111 10.5 18.1407 10.5V9.5ZM38.4165 44.6774C38.4165 45.0865 38.1443 45.2869 37.9626 45.2869V46.2869C38.8333 46.2869 39.4165 45.4914 39.4165 44.6774H38.4165ZM38.4165 42.1475V44.6774H39.4165V42.1475H38.4165ZM17.0804 42.6475H38.9165V41.6475H17.0804V42.6475ZM17.5804 44.6774V42.1475H16.5804V44.6774H17.5804ZM18.0346 45.2869C17.8527 45.2869 17.5804 45.0863 17.5804 44.6774H16.5804C16.5804 45.4916 17.1641 46.2869 18.0346 46.2869V45.2869ZM37.9626 45.2869H18.0346V46.2869H37.9626V45.2869ZM17.0804 40.8279H38.9165V39.8279H17.0804V40.8279ZM16.5804 16.0656V40.3279H17.5804V16.0656H16.5804ZM38.9165 15.5656H17.0804V16.5656H38.9165V15.5656ZM39.4165 40.3279V16.0656H38.4165V40.3279H39.4165ZM38.9165 14.3525H17.0804V15.3525H38.9165V14.3525ZM38.4165 12.3229V14.8525H39.4165V12.3229H38.4165ZM37.9626 11.7131C38.1442 11.7131 38.4165 11.9134 38.4165 12.3229H39.4165C39.4165 11.5087 38.8334 10.7131 37.9626 10.7131V11.7131ZM18.0346 11.7131H37.9626V10.7131H18.0346V11.7131ZM17.5804 12.3229C17.5804 11.9136 17.8528 11.7131 18.0346 11.7131V10.7131C17.164 10.7131 16.5804 11.5085 16.5804 12.3229H17.5804ZM17.5804 14.8525V12.3229H16.5804V14.8525H17.5804Z" fill="#016D38"/>
<path d="M26.9544 44.359H28.976C29.4231 44.359 29.7849 44.0874 29.7849 43.7526C29.7849 43.4175 29.4231 43.1459 28.976 43.1459H26.9544C26.5073 43.1459 26.1455 43.4175 26.1455 43.7526C26.1455 44.0874 26.5073 44.359 26.9544 44.359Z" fill="#016D38"/>
<path d="M28.8586 12.6869C28.8402 12.6505 28.8218 12.6139 28.8042 12.5838C28.7798 12.5472 28.7555 12.5168 28.7249 12.4926C28.5855 12.3527 28.373 12.2859 28.1791 12.3223C28.1426 12.3345 28.1003 12.3464 28.0638 12.3586C28.0275 12.3771 27.991 12.3953 27.9607 12.4137C27.9246 12.4378 27.8943 12.462 27.8699 12.4926C27.8391 12.5168 27.815 12.5472 27.7906 12.5838C27.7728 12.6139 27.7546 12.6505 27.7362 12.6869C27.7243 12.7235 27.7119 12.7598 27.6999 12.8024C27.694 12.8388 27.6875 12.8816 27.6875 12.9177C27.6875 13.0818 27.7546 13.234 27.8699 13.3496C27.8943 13.3799 27.9246 13.4043 27.9607 13.4285C27.991 13.4467 28.0275 13.4651 28.0638 13.4833C28.1003 13.4952 28.1426 13.5074 28.1791 13.5137C28.2154 13.5256 28.2579 13.5256 28.2942 13.5256C28.4582 13.5256 28.6158 13.4651 28.7249 13.3496C28.8402 13.234 28.9006 13.0818 28.9006 12.9177C28.9006 12.8816 28.9006 12.8388 28.889 12.8024C28.883 12.7598 28.8706 12.7235 28.8586 12.6869Z" fill="#016D38"/>
<path fill-rule="evenodd" clip-rule="evenodd" d="M21.5316 30.4729L19.5621 29.6099C19.2892 29.4904 19.1123 29.2197 19.1123 28.9213V27.4722C19.1123 27.1738 19.2892 26.9034 19.5621 26.7836L21.5316 25.9206C21.6299 25.6338 21.7461 25.3528 21.8787 25.0811L21.0973 23.0799C20.9888 22.8021 21.0546 22.4861 21.2661 22.2747L22.2947 21.246C22.507 21.0347 22.8225 20.9702 23.1006 21.0774L25.0952 21.8598C25.3716 21.7255 25.6541 21.609 25.9388 21.5113L26.7938 19.5496C26.9135 19.2757 27.1841 19.0984 27.4827 19.0984H28.9386C29.2381 19.0984 29.5081 19.276 29.6276 19.5503L30.4812 21.5139C30.773 21.6112 31.0571 21.7284 31.3316 21.8636L33.3195 21.0784C33.5962 20.9692 33.9147 21.0331 34.1266 21.246L35.1555 22.2747C35.3668 22.4861 35.4329 22.8021 35.3241 23.0799L34.5443 25.0766C34.6807 25.3502 34.7972 25.6335 34.8942 25.9226L36.8593 26.7836C37.1321 26.9034 37.309 27.1738 37.309 27.4722V28.9213C37.309 29.2197 37.1321 29.4904 36.8593 29.6099L34.8942 30.4709C34.7972 30.7603 34.6807 31.0433 34.5443 31.3172L35.3241 33.3139C35.4329 33.5927 35.3661 33.9097 35.1533 34.1207L34.1243 35.1426C33.9131 35.3524 33.5982 35.4169 33.3208 35.309L31.3323 34.5292C31.0587 34.6654 30.774 34.7823 30.4812 34.8796L29.6276 36.8435C29.5081 37.1175 29.2381 37.2951 28.9386 37.2951H27.4827C27.1841 37.2951 26.9135 37.1178 26.7938 36.8442L25.9388 34.8822C25.6528 34.7842 25.3709 34.668 25.0936 34.5337L23.0983 35.31C22.8238 35.416 22.5076 35.3524 22.297 35.1426L21.2684 34.1207C21.0555 33.9097 20.9888 33.5927 21.0973 33.3139L21.8787 31.3127C21.7461 31.0407 21.6299 30.76 21.5316 30.4729ZM22.4466 27.161L20.6151 27.9639V28.4299L22.4466 29.2325C22.6514 29.3221 22.8055 29.4984 22.8672 29.7127C22.9869 30.1276 23.1526 30.5291 23.3603 30.9058C23.4681 31.1014 23.4836 31.3349 23.403 31.5424L22.6765 33.4016L23.0087 33.7314L24.864 33.0101C25.0695 32.9298 25.299 32.9443 25.4942 33.0496C25.8897 33.2645 26.2836 33.4266 26.6984 33.5461C26.9135 33.6081 27.0901 33.7629 27.1797 33.9678L27.9745 35.7917H28.4461L29.2417 33.9614C29.3329 33.7526 29.5133 33.5959 29.7335 33.5358C30.1496 33.4225 30.5464 33.2587 30.914 33.0499C31.1108 32.9375 31.347 32.9205 31.5599 33.0033L33.4132 33.7305L33.7452 33.4016L33.0187 31.5424C32.9365 31.3313 32.9532 31.0943 33.0656 30.8971C33.2762 30.5268 33.4399 30.1318 33.5513 29.7229C33.6116 29.5039 33.767 29.3237 33.9747 29.2325L35.8062 28.4299V27.9639L33.9747 27.161C33.767 27.0701 33.6116 26.8899 33.5513 26.6706C33.4399 26.2617 33.2762 25.8667 33.0656 25.4964C32.9532 25.2995 32.9365 25.0622 33.0187 24.8511L33.7458 22.9906L33.4126 22.6576L31.5612 23.3895C31.3493 23.4727 31.1114 23.4563 30.914 23.3442C30.5457 23.1345 30.148 22.9707 29.7335 22.8577C29.5133 22.7979 29.3329 22.6412 29.2417 22.4324L28.4461 20.6018H27.9745L27.1797 22.4257C27.0901 22.6309 26.9135 22.7854 26.6984 22.8474C26.2852 22.9669 25.8913 23.129 25.4936 23.3442C25.2997 23.4499 25.0695 23.4637 24.8618 23.3831L23.0097 22.6569L22.6758 22.9906L23.403 24.8511C23.4836 25.0589 23.4681 25.2924 23.3603 25.488C23.1526 25.8648 22.9869 26.2662 22.8672 26.6808C22.8055 26.8954 22.6514 27.0714 22.4466 27.161Z" fill="black"/>
<path fill-rule="evenodd" clip-rule="evenodd" d="M31.8501 28.5C31.8501 30.6738 30.0816 32.4426 27.9076 32.4426C25.7333 32.4426 23.9648 30.6738 23.9648 28.5C23.9648 26.3259 25.7333 24.5574 27.9076 24.5574C30.0816 24.5574 31.8501 26.3259 31.8501 28.5ZM30.3387 28.5C30.3387 27.1593 29.2479 26.0689 27.9076 26.0689C26.5673 26.0689 25.4766 27.1593 25.4766 28.5C25.4766 29.8407 26.5673 30.9311 27.9076 30.9311C29.2479 30.9311 30.3387 29.8407 30.3387 28.5Z" fill="#016D38"/>
</svg>
