<svg width="42" height="33" viewBox="0 0 86 18" fill="none" xmlns="http://www.w3.org/2000/svg">
    <path fill-rule="evenodd" clip-rule="evenodd"
        d="M38.3823 8.59312H35.8768V5.48933H38.0514C39.0225 5.48933 40.2143 5.744 40.1768 6.96562C40.1434 8.06389 39.4835 8.59312 38.3823 8.59312ZM45.1427 15.5647L42.4007 11.5537C42.9326 11.2691 43.1217 11.1896 43.6201 10.7797C44.67 9.91224 45.2117 8.97115 45.4421 7.60628C45.7829 5.58285 45.1565 3.72455 43.5944 2.42334C42.4401 1.46037 40.4959 1.00276 38.9024 1.00276H30.5819V17.047H35.8768V12.4629C37.2064 12.4629 36.9286 12.3376 37.3521 12.9782L39.8735 16.8301C39.9621 16.9773 39.9621 17.047 40.1788 17.047H49.3975L52.9904 10.1709L56.4888 17.047H61.5078L52.9904 0L45.1427 15.5647ZM8.36846 11.4064C8.94758 11.5238 10.4466 11.8163 10.0428 12.6281C9.57201 13.5751 6.16425 12.8011 5.16556 12.3495C3.87534 11.7208 3.88125 11.7208 3.21152 11.2194L0.375 14.6575C3.17212 16.5496 4.93903 17.3176 8.51226 17.2997C11.9693 17.2818 15.2549 15.9845 15.4814 12.4371C15.7966 7.52669 11.4157 7.43716 8.00799 6.49608C7.47023 6.34686 6.50503 6.17575 6.67443 5.4197C6.80641 4.84072 8.10057 4.93821 8.60287 4.98994C9.92657 5.12722 11.4985 5.744 12.5247 6.49011L15.1249 2.90881C12.7572 1.25743 10.7007 0.608821 7.81889 0.686415C4.5431 0.773958 1.47218 2.10103 1.23974 5.86338C0.989579 9.91621 5.2936 10.7857 8.36846 11.4064ZM15.1702 5.53708H19.8504V17.045H25.1925V5.53708H29.8728V1.00077H15.1702V5.53708ZM64.8092 18L73.3661 1.00077H68.2603L64.8565 7.82911L61.4054 1.00077H56.2997L64.8092 18ZM81.3083 3.2928H81.6392L81.7338 1.57378L82.3011 3.24505H82.4409H82.4429H82.5828L83.1501 1.57378L83.2446 3.2928H83.5755L83.4337 1.14403H82.961L82.4409 2.76556L81.9209 1.14403H81.4482L81.3083 3.2928ZM79.6064 1.43053H80.2682V3.2928H80.5992V1.43053H81.261V1.14403H79.6064V1.43053ZM76.6753 0.0218857L85.2321 17.0211H80.1264L76.7226 10.1928L73.2715 17.0211H68.1658L76.6753 0.0218857Z"
        fill="#F76F39" />
</svg>