<?xml version="1.0" encoding="UTF-8"?>
<svg width="16px" height="16px" viewBox="0 0 16 16" version="1.1" xmlns="http://www.w3.org/2000/svg" xmlns:xlink="http://www.w3.org/1999/xlink">
    <title>Shape</title>
    <g id="Desafíos" stroke="none" stroke-width="1" fill="none" fill-rule="evenodd">
        <g id="desafios-info-card" transform="translate(-35.000000, -348.000000)" fill="#FFFFFF" fill-rule="nonzero" stroke="#FFFFFF" stroke-width="0.5">
            <g id="Group-3" transform="translate(18.000000, 246.000000)">
                <g id="Group-6" transform="translate(17.000000, 102.000000)">
                    <path d="M15.6666667,14.4666667 C14.5333333,12.2666667 12.4666667,10.7333333 10,10.2 C11.6666667,9.4 12.8,7.73333333 12.8,5.73333333 C12.8,3 10.6666667,0.8 8,0.8 C5.33333333,0.8 3.2,3 3.2,5.73333333 C3.2,7.73333333 4.33333333,9.4 6,10.2 C3.53333333,10.7333333 1.46666667,12.2666667 0.333333333,14.4666667 C0.2,14.6666667 0.333333333,15 0.533333333,15.0666667 C0.6,15.1333333 0.666666667,15.1333333 0.733333333,15.1333333 C0.933333333,15.1333333 1.06666667,15.0666667 1.13333333,14.8666667 C2.4,12.4 5,10.8666667 8,10.8666667 C11,10.8666667 13.6,12.4 14.8666667,14.8666667 C15,15.0666667 15.2666667,15.2 15.4666667,15.0666667 C15.7333333,15 15.8,14.7333333 15.6666667,14.4666667 Z M4.13333333,5.73333333 C4.13333333,3.53333333 5.86666667,1.73333333 8,1.73333333 C10.1333333,1.73333333 11.8666667,3.53333333 11.8666667,5.73333333 C11.8666667,7.93333333 10.1333333,9.73333333 8,9.73333333 C5.86666667,9.73333333 4.13333333,7.93333333 4.13333333,5.73333333 Z" id="Shape"></path>
                </g>
            </g>
        </g>
    </g>
</svg>