<?xml version="1.0" encoding="UTF-8"?>
<svg width="16px" height="17px" viewBox="0 0 16 17" version="1.1" xmlns="http://www.w3.org/2000/svg" xmlns:xlink="http://www.w3.org/1999/xlink">
    <title>icon / user 1</title>
    <defs>
        <filter id="filter-1">
            <feColorMatrix in="SourceGraphic" type="matrix" values="0 0 0 0 0.439216 0 0 0 0 0.439216 0 0 0 0 0.439216 0 0 0 1.000000 0"></feColorMatrix>
        </filter>
    </defs>
    <g id="Menu-1" stroke="none" stroke-width="1" fill="none" fill-rule="evenodd">
        <g id="desafios-aceptados" transform="translate(-107.000000, -370.000000)">
            <g id="user-1" transform="translate(107.000000, 371.000000)" filter="url(#filter-1)">
                <g transform="translate(0.000000, 0.666667)">
                    <path d="M15.6666667,13.8 C14.5333333,11.6 12.4666667,10.0666667 10,9.53333333 C11.6666667,8.73333333 12.8,7.06666667 12.8,5.06666667 C12.8,2.33333333 10.6666667,0.133333333 8,0.133333333 C5.33333333,0.133333333 3.2,2.33333333 3.2,5.06666667 C3.2,7.06666667 4.33333333,8.73333333 6,9.53333333 C3.53333333,10.0666667 1.46666667,11.6 0.333333333,13.8 C0.2,14 0.333333333,14.3333333 0.533333333,14.4 C0.6,14.4666667 0.666666667,14.4666667 0.733333333,14.4666667 C0.933333333,14.4666667 1.06666667,14.4 1.13333333,14.2 C2.4,11.7333333 5,10.2 8,10.2 C11,10.2 13.6,11.7333333 14.8666667,14.2 C15,14.4 15.2666667,14.5333333 15.4666667,14.4 C15.7333333,14.3333333 15.8,14.0666667 15.6666667,13.8 Z M4.13333333,5.06666667 C4.13333333,2.86666667 5.86666667,1.06666667 8,1.06666667 C10.1333333,1.06666667 11.8666667,2.86666667 11.8666667,5.06666667 C11.8666667,7.26666667 10.1333333,9.06666667 8,9.06666667 C5.86666667,9.06666667 4.13333333,7.26666667 4.13333333,5.06666667 Z" id="Shape" stroke="#979797" stroke-width="0.5" fill="#000000" fill-rule="nonzero"></path>
                </g>
            </g>
        </g>
    </g>
</svg>