<?xml version="1.0" encoding="UTF-8"?>
<svg width="23px" height="27px" viewBox="0 0 23 27" version="1.1" xmlns="http://www.w3.org/2000/svg" xmlns:xlink="http://www.w3.org/1999/xlink">
    <title>Group 9</title>
    <defs>
        <filter id="filter-1">
            <feColorMatrix in="SourceGraphic" type="matrix" values="0 0 0 0 0.003922 0 0 0 0 0.427451 0 0 0 0 0.219608 0 0 0 1.000000 0"></feColorMatrix>
        </filter>
    </defs>
    <g id="Menu-1" stroke="none" stroke-width="1" fill="none" fill-rule="evenodd">
        <g id="Propósitos-confirmar-eliminar" transform="translate(-119.000000, -43.000000)">
            <g id="Group-9" transform="translate(119.000000, 43.000000)">
                <g filter="url(#filter-1)" id="bin-copy-2">
                    <g>
                        <path d="M2.27045131,8.0382169 L2.27045131,23.6171165 C2.27045131,24.5379248 2.60919249,25.4026645 3.20093649,26.0231232 C3.78995469,26.645311 4.60967384,26.998518 5.46755393,27 L17.4699461,27 C18.3280741,26.998518 19.1477931,26.645311 19.7365636,26.0231232 C20.3283076,25.4026645 20.6670488,24.5379248 20.6670488,23.6171165 L20.6670488,8.0382169 C21.8433506,7.72699953 22.6055803,6.59426705 22.4482279,5.39114018 C22.2906278,4.18826035 21.2625097,3.28844692 20.0453211,3.28819994 L16.7974197,3.28819994 L16.7974197,2.4978066 C16.8011366,1.83313519 16.5374785,1.19489258 16.0654214,0.72534955 C15.5933643,0.256053507 14.9520605,-0.0052702892 14.2852334,8.05840217e-05 L8.65226663,8.05840217e-05 C7.98543952,-0.0052702892 7.34413571,0.256053507 6.87207864,0.72534955 C6.40002157,1.19489258 6.13636344,1.83313519 6.14008044,2.4978066 L6.14008044,3.28819994 L2.89217898,3.28819994 C1.67499031,3.28844692 0.646872285,4.18826035 0.48927206,5.39114018 C0.331919745,6.59426705 1.09414946,7.72699953 2.27045131,8.0382169 Z M17.4699461,25.7353707 L5.46755393,25.7353707 C4.38293774,25.7353707 3.53918217,24.8066585 3.53918217,23.6171165 L3.53918217,8.09379142 L19.3983179,8.09379142 L19.3983179,23.6171165 C19.3983179,24.8066585 18.5545623,25.7353707 17.4699461,25.7353707 Z M7.4088113,2.4978066 C7.40459867,2.1685584 7.53444534,1.85166005 7.76886322,1.61923503 C8.00303326,1.38681 8.32170274,1.25911203 8.65226663,1.264793 L14.2852334,1.264793 C14.6157972,1.25911203 14.9344668,1.38681 15.1686368,1.61923503 C15.4030547,1.85141307 15.5329014,2.1685584 15.5286888,2.4978066 L15.5286888,3.28819994 L7.4088113,3.28819994 L7.4088113,2.4978066 Z M2.89217898,4.55282928 L20.0453211,4.55282928 C20.6759695,4.55282928 21.1871788,5.062386 21.1871788,5.69099568 C21.1871788,6.31960536 20.6759695,6.82916208 20.0453211,6.82916208 L2.89217898,6.82916208 C2.26153048,6.82916208 1.7503212,6.31960536 1.7503212,5.69099568 C1.7503212,5.062386 2.26153048,4.55282928 2.89217898,4.55282928 Z" id="Shape" fill="#000000" fill-rule="nonzero"></path>
                    </g>
                </g>
                <path d="M15.46875,10 C14.9164062,10 14.46875,10.2998655 14.46875,10.6698565 L14.46875,23.3301435 C14.46875,23.6998729 14.9164062,24 15.46875,24 C16.0210937,24 16.46875,23.6998729 16.46875,23.3301435 L16.46875,10.6698565 C16.46875,10.2998655 16.0210937,10 15.46875,10 Z" id="Path" fill="#F8E71C" fill-rule="nonzero"></path>
                <path d="M7.46875,10 C6.9164062,10 6.46875,10.2998655 6.46875,10.6698565 L6.46875,23.3301435 C6.46875,23.6998729 6.9164062,24 7.46875,24 C8.0210937,24 8.46875,23.6998729 8.46875,23.3301435 L8.46875,10.6698565 C8.46875,10.2998655 8.0210937,10 7.46875,10 Z" id="Path" fill="#F8E71C" fill-rule="nonzero"></path>
                <path d="M11.46875,10 C10.9164062,10 10.46875,10.2998655 10.46875,10.6698565 L10.46875,23.3301435 C10.46875,23.6998729 10.9164062,24 11.46875,24 C12.0210937,24 12.46875,23.6998729 12.46875,23.3301435 L12.46875,10.6698565 C12.46875,10.2998655 12.0210937,10 11.46875,10 Z" id="Path" fill="#F8E71C" fill-rule="nonzero"></path>
            </g>
        </g>
    </g>
</svg>