<svg width="22" height="19" viewBox="0 0 22 19" fill="none" xmlns="http://www.w3.org/2000/svg">
<path d="M20.5295 4.34075C21.619 7.2864 20.7055 8.74641 18.9284 10.7704C17.8799 11.8647 16.828 12.9553 15.7774 14.0476C15.7447 14.0812 15.7145 14.1173 15.641 14.1996C16.0489 14.1202 16.4029 14.0546 16.7561 13.9819C17.1416 13.903 17.525 13.8125 17.9113 13.7373C18.1812 13.6846 18.4527 13.7012 18.7182 13.7764C19.4789 13.9911 19.8027 14.8051 19.4115 15.5148C19.1857 15.9243 18.8333 16.1664 18.405 16.3068C16.6667 16.8762 14.9285 17.4443 13.1898 18.0129C12.757 18.1545 12.3262 18.3061 11.8758 18.3816C11.2425 18.4884 10.6189 18.4323 10.0015 18.26C8.2343 17.7666 6.46623 17.2769 4.69898 16.7836C4.57771 16.7499 4.49073 16.7258 4.43602 16.8924C4.3715 17.0876 4.20408 17.181 4.00482 17.1818C3.1559 17.186 2.30699 17.1877 1.45807 17.181C1.18245 17.1789 1.00197 16.9829 1.00156 16.7034C0.999515 14.8973 0.999515 13.0907 1.00156 11.2846C1.00197 10.9984 1.14611 10.8481 1.42704 10.797C1.60507 10.7646 1.77902 10.8028 1.95501 10.802C2.62058 10.7991 3.28616 10.8028 3.95174 10.8003C4.19469 10.7995 4.37313 10.89 4.45929 11.1317C4.48175 11.1944 4.50829 11.2443 4.58914 11.231C4.95541 11.172 5.32209 11.1151 5.73001 11.0508C5.46378 10.763 5.22246 10.5142 4.9942 10.2534C4.13753 9.27451 3.67571 8.12497 3.56668 6.82051C3.47726 5.74779 3.65652 4.72739 4.10772 3.75517C4.13957 3.68665 4.73592 2.69616 4.78451 2.64092C5.41548 1.98805 4.98014 2.24274 5.641 2.24274C6.18389 2.24274 5.52205 2.79107 5.52205 2.79107C5.52205 2.79107 4.73906 3.97236 4.68428 4.08741C3.76962 6.00859 4.16734 8.45554 5.641 9.97679C5.88436 10.228 6.13467 10.4731 6.36251 10.738C6.48338 10.8784 6.60915 10.9096 6.77534 10.8788C7.44295 10.7563 8.11384 10.6512 8.7786 10.5146C9.74675 10.3161 10.7055 10.3481 11.6647 10.5707C11.9885 10.6458 12.32 10.6865 12.6438 10.7617C13.0085 10.8464 13.3298 11.0254 13.5883 11.3053C13.9628 11.7111 14.1102 12.1895 13.9121 12.7186C13.708 13.2651 13.2666 13.5222 12.7104 13.5683C12.1375 13.6157 11.5752 13.4873 11.0093 13.4279C10.7868 13.4047 10.565 13.3719 10.3433 13.3416C10.1216 13.3112 9.95745 13.4167 9.91376 13.6211C9.86557 13.8449 9.95704 14.031 10.1788 14.0866C10.4944 14.1655 10.8162 14.2212 11.1363 14.2801C11.7235 14.3885 12.3127 14.487 12.8991 14.5999C13.4319 14.7025 13.9358 14.5384 14.447 14.4413C14.5005 14.4313 14.5503 14.3769 14.592 14.3333C16.0019 12.8635 17.416 11.3763 18.8182 9.89948C20.335 8.30185 20.5295 5.97654 19.877 4.78199C19.2245 3.58744 17.7137 1.06561 14.3123 2.24039C14.3123 2.24039 13.6585 2.50819 12.9844 3.14302C12.3103 3.77785 12.708 3.42999 12.5577 3.55915C12.2886 3.79047 12.0783 3.78258 11.8182 3.53839C11.5736 3.30873 11.3511 3.05539 11.0926 2.84068C10.1167 2.03043 9.01461 1.5952 7.74267 1.6957C6.94928 1.75841 6.26697 2.0919 5.68673 2.64466C5.63201 2.69657 5.58261 2.7543 5.52503 2.80248C5.37191 2.9308 5.19224 2.92707 5.06566 2.79791C4.93459 2.66418 4.92928 2.49017 5.06852 2.33319C5.36701 1.99679 5.71368 1.71979 6.10772 1.50757C7.32209 0.85347 8.56913 0.872575 9.83413 1.33107C10.6692 1.63382 11.3731 2.14173 11.9938 2.77922C12.2339 3.02591 12.1722 3.02715 12.4054 2.78669C12.9954 2.17911 13.6659 1.69321 14.4507 1.38215C16.4045 0.754951 19.44 1.3951 20.5295 4.34075ZM4.48665 13.9857C4.48665 14.5879 4.49196 15.1901 4.48338 15.7922C4.48093 15.9663 4.53157 16.046 4.7047 16.0933C6.52625 16.5929 8.34659 17.0988 10.1653 17.6108C10.8782 17.8114 11.5846 17.8185 12.2906 17.5934C13.042 17.3538 13.7929 17.1121 14.5426 16.8675C15.7643 16.4688 16.9848 16.0663 18.2065 15.6664C18.4601 15.5833 18.6773 15.4471 18.8182 15.2112C19.0493 14.8246 18.8582 14.4404 18.4172 14.4002C18.2412 14.384 18.0624 14.3781 17.8897 14.4193C16.8717 14.6601 15.8447 14.857 14.8178 15.0509C14.1681 15.1734 13.5279 15.4044 12.8488 15.2727C12.4756 15.2004 12.1004 15.1394 11.7267 15.0705C11.1861 14.9708 10.6447 14.8736 10.1057 14.7664C9.54177 14.6543 9.1706 14.1431 9.24165 13.5907C9.3176 12.9981 9.7737 12.6164 10.3707 12.6729C10.8905 12.7223 11.407 12.8042 11.9256 12.864C12.2208 12.898 12.5148 12.9566 12.8149 12.8764C13.3425 12.7348 13.5071 12.224 13.149 11.8037C12.9697 11.5936 12.7374 11.4652 12.4703 11.4104C12.1445 11.3435 11.8166 11.2879 11.4907 11.221C10.8096 11.0815 10.1281 10.9748 9.43111 11.0948C7.85292 11.3668 6.27432 11.6384 4.69449 11.9009C4.52544 11.9291 4.48379 12.0022 4.48502 12.1592C4.48992 12.7676 4.48665 13.3769 4.48665 13.9857ZM1.64141 13.9741C1.64141 14.7345 1.64753 15.4953 1.63733 16.2557C1.63447 16.4605 1.70429 16.5161 1.89539 16.5128C2.45848 16.5028 3.02156 16.5037 3.58465 16.512C3.75901 16.5145 3.82271 16.4592 3.82189 16.2748C3.81576 14.7399 3.81536 13.2049 3.82107 11.67C3.82189 11.4889 3.7537 11.4499 3.59363 11.4519C3.01707 11.459 2.4401 11.4619 1.86354 11.4507C1.67693 11.447 1.63651 11.518 1.63855 11.6928C1.64549 12.4528 1.64141 13.2132 1.64141 13.9741Z" fill="#016D38" stroke="#016D38" stroke-width="0.3"/>
<path d="M16.4738 7.8709C16.1272 7.8709 15.7802 7.87718 15.434 7.86797C15.2926 7.86421 15.2096 7.91733 15.1402 8.0399C14.8733 8.50966 14.5982 8.9744 14.328 9.44207C14.2418 9.59099 14.1486 9.72694 13.954 9.71732C13.7697 9.70811 13.6896 9.56882 13.6132 9.42492C13.1538 8.56279 12.6944 7.70023 12.2333 6.83894C12.2051 6.78581 12.192 6.69922 12.1283 6.69587C12.0473 6.69127 12.0388 6.7879 12.0073 6.84437C11.6787 7.43042 11.355 8.0194 11.0255 8.60462C10.8224 8.9652 10.5641 8.96938 10.3438 8.618C10.1562 8.31891 9.96981 8.0194 9.78997 7.71571C9.71844 7.59482 9.67103 7.58311 9.59869 7.71278C9.47035 7.94243 9.33016 8.16539 9.201 8.39462C9.11026 8.55609 8.98438 8.62595 8.80004 8.62386C8.21557 8.61758 7.63068 8.62386 7.04621 8.62218C6.78667 8.62135 6.6379 8.4946 6.64117 8.2867C6.64444 8.0855 6.78708 7.96084 7.0364 7.96502C7.51829 7.97339 8.00058 7.9006 8.48206 7.96335C8.63001 7.98259 8.71911 7.92026 8.79187 7.78808C8.97252 7.46054 9.1634 7.13886 9.3555 6.81844C9.54555 6.50136 9.81204 6.49885 10.0103 6.81216C10.195 7.10456 10.3802 7.39696 10.5522 7.6973C10.6475 7.86379 10.7014 7.832 10.7803 7.68852C11.1146 7.08197 11.4539 6.47793 11.7915 5.87306C11.8606 5.74924 11.937 5.63546 12.0919 5.61789C12.2771 5.59656 12.3788 5.70615 12.4597 5.85758C12.9098 6.70131 13.3614 7.5442 13.8143 8.38626C13.8625 8.4762 13.8907 8.62637 13.981 8.63181C14.0942 8.6385 14.1151 8.47912 14.1694 8.38961C14.3562 8.08215 14.5373 7.77051 14.7134 7.45636C14.807 7.28904 14.9305 7.2083 15.1254 7.20956C15.9274 7.21625 16.7297 7.21123 17.5316 7.2129C17.7785 7.21332 17.9219 7.33505 17.9232 7.53709C17.9248 7.73788 17.7785 7.86588 17.5349 7.86797C17.1813 7.8709 16.8278 7.86881 16.4746 7.86881C16.4738 7.86965 16.4738 7.87007 16.4738 7.8709Z" fill="#016D38" stroke="#016D38" stroke-width="0.3"/>
</svg>
