<svg width="24" height="24" viewBox="0 0 24 24" fill="none" xmlns="http://www.w3.org/2000/svg">
<g id="Group 4">
<path id="Path 4" fill-rule="evenodd" clip-rule="evenodd" d="M4.90332 15.7396L7.5703 13.625L11.1505 22.2007L8.02692 22.6893L4.90332 15.7396Z" fill="#FFE277"/>
<g id="health / person accident">
<g id="accident person">
<path id="Shape" fill-rule="evenodd" clip-rule="evenodd" d="M21.9 17.7793C20.42 14.4693 17.62 12.2093 14.22 11.5193C16.22 10.6393 17.63 8.6093 17.63 6.2593C17.63 3.0993 15.1 0.529297 12 0.529297C8.89004 0.529297 6.37004 3.0993 6.37004 6.2593C6.37004 8.6193 7.78004 10.6493 9.79004 11.5293C6.87004 12.1393 4.29004 13.9393 2.72004 16.5993C2.28004 17.3493 2.04004 18.2193 2.04004 19.1193V20.0893C2.04004 21.9593 3.49004 23.4793 5.28004 23.4793H14.09C15.88 23.4793 17.33 21.9593 17.33 20.0893C17.33 18.2193 15.88 16.6993 14.09 16.6993H9.97004L8.53004 13.3893C9.78004 12.8893 11.14 12.6493 12.55 12.7293C16.11 12.9293 19.12 15.0393 20.61 18.3693C20.77 18.7293 21.19 18.8893 21.55 18.7293C21.9 18.5593 22.06 18.1393 21.9 17.7793ZM7.78004 6.2593C7.78004 3.8793 9.67004 1.9493 12 1.9493C14.32 1.9493 16.22 3.8793 16.22 6.2593C16.22 8.6393 14.33 10.5693 12 10.5693C9.68004 10.5693 7.78004 8.6293 7.78004 6.2593ZM3.46004 20.0793V19.1093C3.46004 18.4593 3.63004 17.8393 3.94004 17.3093C3.97004 17.2493 4.01004 17.2093 4.05004 17.1493L6.18004 22.0493H5.28004C4.28004 22.0493 3.46004 21.1693 3.46004 20.0793ZM14.08 18.1093C15.08 18.1093 15.9 18.9893 15.9 20.0793C15.9 21.1693 15.08 22.0493 14.08 22.0493H12.29V22.0393L10.58 18.1093H14.08ZM10.75 22.0493H7.72004L5.02004 15.8493C5.67004 15.1193 6.42004 14.4993 7.25004 14.0093L10.75 22.0493Z" fill="#016D38"/>
</g>
</g>
</g>
</svg>
