<?xml version="1.0" encoding="UTF-8"?>
<svg width="58px" height="58px" viewBox="0 0 58 58" version="1.1" xmlns="http://www.w3.org/2000/svg" xmlns:xlink="http://www.w3.org/1999/xlink">
    <title>Group 8</title>
    <defs>
        <circle id="path-1" cx="25" cy="25" r="25"></circle>
        <filter x="-14.0%" y="-10.0%" width="128.0%" height="128.0%" filterUnits="objectBoundingBox" id="filter-2">
            <feOffset dx="0" dy="2" in="SourceAlpha" result="shadowOffsetOuter1"></feOffset>
            <feGaussianBlur stdDeviation="2" in="shadowOffsetOuter1" result="shadowBlurOuter1"></feGaussianBlur>
            <feColorMatrix values="0 0 0 0 0   0 0 0 0 0   0 0 0 0 0  0 0 0 0.15586757 0" type="matrix" in="shadowBlurOuter1"></feColorMatrix>
        </filter>
    </defs>
    <g id="Green-Button" stroke="none" stroke-width="1" fill="none" fill-rule="evenodd">
        <g id="mvp-home--copy" transform="translate(-152.000000, -466.000000)">
            <g id="Group-8" transform="translate(156.000000, 468.000000)">
                <g id="Oval-Copy-22">
                    <use fill="black" fill-opacity="1" filter="url(#filter-2)" xlink:href="#path-1"></use>
                    <use fill="#FFFFFF" fill-rule="evenodd" xlink:href="#path-1"></use>
                </g>
                <g id="Group-9" transform="translate(13.000000, 14.000000)">
                    <path d="M13.0180664,13.3144531 C15.7794902,13.3144531 18,13.5375661 18,10.5 C18,7.46243388 15.7614237,5 13,5 C10.2385763,5 8,7.46243388 8,10.5 C8,13.5375661 10.2566427,13.3144531 13.0180664,13.3144531 Z" id="Oval" fill="#FFDC5D"></path>
                    <g id="virus" transform="translate(0.406698, 0.000000)" fill="#016D38" fill-rule="nonzero">
                        <path d="M22.7615439,10.3451952 C22.4915073,10.2910637 22.2171809,10.347664 21.9888363,10.5046177 C21.7997258,10.6346428 21.6609315,10.8206738 21.5887639,11.0376567 L20.4153583,10.5133957 C20.4177714,10.4312385 20.4189779,10.35027 20.4189779,10.2714045 C20.4189779,9.56554731 20.3326001,8.86467348 20.1621683,8.1856991 L20.6885229,7.82040348 C21.0221474,8.11936068 21.5070335,8.20874153 21.931549,8.02005879 C22.5027682,7.76608918 22.7763796,7.08976651 22.5543803,6.48033089 L22.3065973,5.79998493 C22.0819616,5.18309709 21.4357596,4.85808 20.835584,5.0596098 C20.5318543,5.16165484 20.2874228,5.3793692 20.1473773,5.67261152 C20.0677025,5.8393948 20.0275299,6.01829365 20.0274405,6.19806115 L19.4303036,6.283373 C19.3484838,6.12993969 19.2591121,5.97444903 19.1636632,5.81955271 C19.0649521,5.65935298 18.8579226,5.61139364 18.7014328,5.71234142 C18.5448089,5.81333491 18.4978888,6.02506007 18.5965998,6.1852598 C18.7092528,6.36809049 18.8124771,6.55128693 18.9034128,6.72986574 C18.994706,6.90890175 19.1872126,7.01044387 19.3820429,6.98264666 L20.4588823,6.8288476 C20.5587999,6.81458324 20.6471438,6.75501125 20.6993369,6.66668195 C20.7515299,6.57835264 20.7620758,6.47063844 20.7280252,6.37348535 C20.6817753,6.24163146 20.6894613,6.09967365 20.7495638,5.97376324 C20.8095322,5.84821859 20.9143205,5.75499734 21.0446691,5.71119844 C21.2975016,5.62634379 21.5816589,5.77360501 21.6784931,6.03950731 L21.9262761,6.71985326 C22.0221719,6.98314957 21.9046928,7.28430129 21.6643724,7.39119255 C21.4343296,7.49342046 21.163444,7.40577694 21.0339892,7.1873768 C20.9863987,7.10704833 20.9086007,7.05021949 20.8189162,7.03019452 C20.7292317,7.01012384 20.6353467,7.02873151 20.5593361,7.08144564 L19.6662002,7.7012595 C19.500505,7.81619732 19.4250753,8.02636803 19.4785196,8.2242403 C19.6577992,8.88840169 19.7486902,9.57720568 19.7486902,10.2714502 C19.7486902,10.3851994 19.745875,10.504069 19.7404233,10.6248132 C19.7315309,10.8214968 19.8438264,11.0064762 20.0197992,11.0850674 L21.6942672,11.8332148 C21.7873925,11.8748649 21.8939682,11.8709787 21.9839208,11.8227451 C22.0739628,11.7745114 22.1376848,11.6870965 22.1572572,11.5850515 L22.210344,11.3084509 C22.2288439,11.2120293 22.2829585,11.1287291 22.362678,11.0739119 C22.4423529,11.0190947 22.5381593,10.9992983 22.6324465,11.0182718 C22.8270533,11.0573159 22.9543186,11.2510734 22.9161569,11.4501344 L22.6415624,12.8819195 C22.6224369,12.9815872 22.5658199,13.066579 22.4820786,13.121259 C22.3984267,13.1758933 22.298956,13.1924436 22.2020324,13.1682125 C22.0188205,13.1221734 21.9010733,12.9214208 21.9395478,12.7206225 L21.9468763,12.6823556 C21.9666274,12.5790762 21.9389669,12.4722306 21.871804,12.3925422 C21.8046412,12.3127624 21.704679,12.2686892 21.6027059,12.2738555 L19.7914099,12.3583901 C19.5996629,12.3673053 19.4300802,12.4988849 19.3694862,12.6859674 C19.2016908,13.2043306 18.9789766,13.7051834 18.7074654,14.1745357 C18.6063413,14.3492741 18.6240816,14.5708288 18.7515703,14.7258166 L19.5528769,15.6997706 C19.6123984,15.772144 19.698508,15.81608 19.7907396,15.8213377 C19.8830159,15.8264583 19.9733706,15.7925347 20.0402654,15.727385 C20.2199024,15.5526008 20.492933,15.5376507 20.6895507,15.6915869 C20.7959923,15.7748871 20.8642723,15.8955855 20.8819679,16.0314627 C20.8996635,16.1673399 20.8644957,16.3021198 20.7831228,16.410977 L20.5509352,16.7214554 C20.3841229,16.9444275 20.0725732,17.0017592 19.8564278,16.8493774 C19.6727243,16.7198552 19.5941666,16.4784584 19.6653958,16.2623442 C19.7208956,16.0940522 19.6415783,15.9102614 19.482586,15.8388481 L18.3282613,15.3201192 C18.1446919,15.2375048 17.9304232,15.284184 17.7949358,15.4362914 C17.2802442,16.0145466 16.6858778,16.5072157 16.0283256,16.9006286 C15.8622283,16.999839 15.7715607,17.1967055 15.8025727,17.3904173 L16.0980802,19.2339943 C16.1145246,19.336588 16.1755655,19.4260146 16.2640881,19.4771285 C16.3526108,19.5282425 16.4589184,19.5354661 16.5533396,19.4968792 L16.809032,19.3921824 C16.9012189,19.3544642 17.001762,19.356933 17.0921168,19.3991775 C17.1824269,19.4413305 17.2500813,19.5177271 17.2827913,19.6142858 C17.3445471,19.7966593 17.2436912,20.0069215 17.0579768,20.0829066 L15.7521671,20.6173629 C15.6599802,20.6551269 15.5594817,20.6526124 15.4690823,20.6104136 C15.3788169,20.5682606 15.3111178,20.491864 15.2784078,20.395351 C15.2166519,20.2129775 15.3174632,20.0027153 15.5030435,19.9267302 L15.53839,19.9122829 C15.6339283,19.8731931 15.7065875,19.7914016 15.7355439,19.6904081 C15.7644557,19.5894146 15.746492,19.4804203 15.6867023,19.3947427 L14.6332335,17.8845493 C14.5217871,17.7246696 14.3216392,17.6504675 14.1355673,17.6998442 C13.5213604,17.8627413 12.8864192,17.9453557 12.2483054,17.9453557 C11.7430425,17.9453557 11.2365285,17.8931445 10.7429287,17.7901851 C10.5544884,17.7509124 10.3586751,17.8356299 10.2553167,18.0011788 L9.20086486,19.693197 C9.14621408,19.7808405 9.13343392,19.8891491 9.16609928,19.987628 C9.19867526,20.086107 9.27321124,20.1641038 9.36870489,20.1997189 L9.40601757,20.2136633 C9.53404252,20.261394 9.63623904,20.3573127 9.69374972,20.483726 C9.7512604,20.6100936 9.75720362,20.7518685 9.7105516,20.8828537 C9.69710116,20.9204806 9.69026423,20.9602562 9.69026423,21.0003061 C9.69026423,21.1300112 9.65286217,21.2282616 9.58493969,21.276861 C9.51706189,21.3255061 9.41410571,21.3278835 9.29492856,21.2833531 L7.99957532,20.8001022 C7.74017399,20.7033606 7.60209474,20.4074208 7.69168985,20.1404213 C7.73445421,20.0131393 7.82650704,19.9096312 7.95091243,19.8489163 C8.0823335,19.7847724 8.2351144,19.7768172 8.36993159,19.8271083 L8.39960299,19.8381723 C8.4961691,19.8742904 8.60368324,19.8629063 8.69108875,19.8074033 C8.77853895,19.7519003 8.83618369,19.6584048 8.84748921,19.5537995 L9.06216,17.5708249 C9.08329641,17.3756957 8.98266389,17.1839955 8.81178522,17.093746 C8.02821894,16.6797139 7.32714274,16.1320905 6.72821837,15.4662832 C6.59639513,15.3196163 6.38708664,15.2717484 6.20736017,15.3472306 L4.62659844,16.0104776 C4.53888013,16.0472815 4.47051079,16.1203406 4.43842635,16.211596 C4.40629723,16.3028513 4.41349165,16.4037534 4.45813281,16.4892938 C4.55845253,16.681314 4.49969064,16.9165388 4.3214835,17.0364143 C4.13777999,17.1600845 3.88056828,17.1022498 3.74829818,16.9074864 L3.34339975,16.3111722 C3.21354268,16.1199292 3.24446529,15.8632164 3.41377995,15.7266992 C3.50131952,15.6561089 3.6099508,15.6252028 3.71943112,15.6396043 C3.82976047,15.654143 3.92735435,15.7120233 3.99433843,15.8026386 C4.05493244,15.8846587 4.14832585,15.9345382 4.24877963,15.9385158 C4.34887592,15.9424476 4.44606763,15.9001117 4.51264954,15.823075 L5.62604203,14.5355337 C5.75670344,14.3844321 5.78011882,14.164066 5.68426768,13.9869502 C5.56455431,13.7660355 5.45319718,13.5334167 5.35336901,13.2954945 C5.28026297,13.1215333 5.08324308,13.041022 4.91312407,13.1157727 C4.74304975,13.1905234 4.66440267,13.3921447 4.73741933,13.5661516 C4.82692508,13.7792483 4.92492114,13.9886418 5.02957538,14.1903088 L4.23211181,15.1126002 C4.10386344,15.0321346 3.95917068,14.9796491 3.8050492,14.9593498 C3.51517213,14.9212658 3.22909336,15.0024629 2.99891657,15.187991 C2.55165596,15.5486233 2.46121181,16.2138362 2.7930042,16.7023905 L3.19790264,17.2986591 C3.5357723,17.7962658 4.2049875,17.9355719 4.6898736,17.6093203 C5.05249922,17.3653175 5.22726556,16.9397184 5.16626938,16.5251376 L6.33167619,16.0361261 C6.93019839,16.6791195 7.61836038,17.2165475 8.38070088,17.6362946 L8.22126179,19.1092269 C8.02991701,19.1036492 7.83741039,19.1443392 7.66233125,19.2297882 C7.37419693,19.3704201 7.15948145,19.6146059 7.05777647,19.9174949 C6.85034478,20.53548 7.16984857,21.2203979 7.76997945,21.4442843 L9.0653327,21.9275352 C9.19532382,21.9760432 9.32594054,22 9.45173119,22 C9.64119917,22 9.81980849,21.9455943 9.96928264,21.8386116 C10.2037939,21.6706853 10.3440181,21.38933 10.3592113,21.0602896 C10.4461253,20.7735394 10.4261954,20.4681815 10.3014325,20.1940955 C10.2214895,20.0183513 10.1041892,19.8681183 9.95904958,19.7521746 L10.746012,18.4893216 C11.876117,18.70443 13.0545274,18.6727924 14.168188,18.3982034 L14.9329415,19.4945018 C14.6319377,19.7732054 14.5069067,20.2117888 14.6450306,20.619786 C14.7383347,20.8951522 14.9320925,21.1133237 15.1906448,21.2341593 C15.4456222,21.3532576 15.7409062,21.3604812 16.0011119,21.2540471 L17.3069663,20.7195908 C17.8287183,20.5060369 18.0963418,19.921884 17.9161684,19.3897593 C17.8229091,19.1143932 17.6291513,18.8961759 17.370599,18.7753403 C17.1584753,18.6762213 16.9182442,18.6545047 16.6936531,18.7114707 L16.4865342,17.4194946 C17.1138341,17.0293735 17.6863045,16.5552665 18.1912992,16.0075973 L18.9711565,16.3580343 C18.9493498,16.767906 19.1351089,17.173663 19.4761066,17.4140998 C19.9904406,17.776698 20.6963876,17.6554509 21.0832776,17.1382307 L21.3154653,16.8277523 C21.5056929,16.5734169 21.5877361,16.2585038 21.5464464,15.9410303 C21.5051567,15.6235569 21.3455389,15.3415157 21.0969068,15.1468895 C20.7341918,14.8629282 20.2607006,14.824707 19.8708166,15.0212534 L19.3565719,14.3961819 C19.5969371,13.963222 19.7996321,13.5071739 19.9607246,13.036953 L21.275248,12.9755979 C21.3404447,13.3855611 21.632422,13.7311975 22.0422805,13.834157 C22.3188859,13.9036957 22.6032219,13.8556907 22.8427827,13.6992399 C23.0789921,13.5449379 23.2454022,13.2951745 23.299338,13.0138648 L23.5739325,11.5820797 C23.6832341,11.0119168 23.318821,10.4570698 22.7615439,10.3451952 L22.7615439,10.3451952 Z" id="Path" stroke="#016D38" stroke-width="0.3"></path>
                        <path d="M2.71521013,12.8348928 L3.94966009,13.1476529 C3.97653415,13.3359447 4.00977542,13.5271268 4.04885696,13.7178271 C4.08323994,13.8858399 4.21919104,14 4.36989651,14 C4.39378456,14 4.41806781,13.9971099 4.44235106,13.9911369 C4.61979886,13.9473996 4.73137887,13.7541945 4.69150691,13.5594962 C4.64614597,13.337727 4.60930392,13.1156206 4.58207857,12.8993426 C4.55612667,12.6935173 4.41499398,12.5238667 4.23095941,12.4772875 L2.48260905,12.0343753 C2.38543212,12.009761 2.28302969,12.034857 2.20464703,12.1026305 C2.12622047,12.1704522 2.08006911,12.2736298 2.07919087,12.3831656 L2.07739049,12.6076805 C2.07532663,12.8590253 1.88725217,13.0635501 1.65807622,13.0635501 C1.54895527,13.0635501 1.44650892,13.01673 1.36970709,12.9317121 C1.29286135,12.846646 1.25110118,12.7339309 1.25206724,12.6142314 L1.26348432,11.2209967 C1.2644943,11.093253 1.31398295,10.968255 1.39921586,10.8780829 C1.47931107,10.7933058 1.58052789,10.7478345 1.68745325,10.7513026 C1.90991069,10.7577572 2.08994928,10.9618003 2.08871975,11.2061607 C2.08814889,11.3168045 2.13386113,11.421668 2.21277073,11.4906457 C2.29168032,11.5596716 2.39513664,11.5852011 2.49323572,11.5598643 L4.22929076,11.1133394 C4.41319359,11.0660376 4.55371152,10.8959536 4.57904866,10.6900801 C4.70713953,9.64804416 5.01535681,8.65745254 5.49509379,7.74571327 C5.59187551,7.56161207 5.57281776,7.32934206 5.44744943,7.16768752 L4.6195793,6.10113369 C4.55485323,6.01780164 4.45969625,5.97098156 4.35931375,5.97420887 C4.25950212,5.97738801 4.16636508,6.03003652 4.10611802,6.11736658 L4.03436605,6.22141121 C3.98074968,6.29915567 3.90258659,6.34804702 3.81423594,6.35917401 C3.72619268,6.37025284 3.63964242,6.34183324 3.5710082,6.27911745 C3.44129259,6.160574 3.42381567,5.93639635 3.53205839,5.77941419 L4.08350342,4.97961924 C4.19056051,4.82437116 4.3928185,4.79354312 4.53434639,4.91102685 C4.66687236,5.02094808 4.70081622,5.22744778 4.61167516,5.38115445 C4.559947,5.47041126 4.54646606,5.57999531 4.57478921,5.68110165 C4.60311235,5.78220798 4.67038531,5.86462482 4.75882378,5.90657986 L5.91647191,6.45580065 C6.09593965,6.54101128 6.30544309,6.49159008 6.43779341,6.332633 C6.96482345,5.69935763 7.57572513,5.16449114 8.25372411,4.7429177 C8.41795443,4.64070348 8.50951064,4.43473364 8.48158271,4.23020886 L8.21490603,2.28380351 C8.20006383,2.17547185 8.14117804,2.08038661 8.05489125,2.02528149 C7.96851664,1.9701282 7.86400643,1.96097613 7.77095722,2.00028188 L7.51833234,2.10687946 C7.42725916,2.14522183 7.32854532,2.14122382 7.24032641,2.09546345 C7.15215141,2.04975125 7.08663493,1.96829779 7.0557649,1.86613174 C6.99740604,1.67307114 7.0991498,1.45308417 7.28265743,1.37567689 L8.57261198,0.831417486 C8.66368515,0.792978774 8.762399,0.797073123 8.85061791,0.842833495 C8.9387929,0.888545697 9.0043533,0.969999158 9.03522333,1.07216521 C9.09353827,1.26522581 8.99179451,1.48521277 8.80828688,1.56266822 L8.77342087,1.57740788 C8.67909821,1.61724349 8.60664366,1.70235778 8.57691534,1.80832916 C8.54723093,1.91430055 8.56347831,2.02937584 8.62113457,2.12046306 L9.63664004,3.72631492 C9.74404843,3.89615815 9.93950008,3.97722626 10.1230077,3.92794957 C10.6953548,3.77419472 11.2873744,3.69620941 11.883346,3.69620941 L11.8835217,3.69620941 C12.0778316,3.69620941 12.2520299,3.56186659 12.3169755,3.36211053 L12.6532086,2.33004557 C12.683376,2.23746511 12.6778431,2.13534723 12.6378394,2.04739098 C12.5978796,1.95938656 12.526962,1.89300993 12.4413778,1.86367513 C12.1965253,1.77966872 12.04077,1.5158963 12.0709813,1.2365172 C12.087097,1.08786824 12.1582781,0.952562048 12.271395,0.855501892 C12.3901766,0.753576686 12.5421555,0.706708432 12.6886015,0.726987502 L13.1503786,0.790763009 C13.4496817,0.83209185 13.6677041,1.12250162 13.6363949,1.43810367 C13.6121995,1.68174152 13.4567076,1.87932999 13.2402661,1.94146776 C13.0817443,1.98698729 12.977805,2.1534587 12.9964675,2.33206866 L13.113317,3.45045213 C13.1355803,3.66388814 13.2793477,3.83835558 13.4711985,3.8846458 C14.2068099,4.06190703 14.9117268,4.36233591 15.5661452,4.77745473 C15.7300681,4.88149937 15.9386494,4.86358057 16.0852711,4.73304309 L17.4785502,3.49245534 C17.5560985,3.42342943 17.6008447,3.3195293 17.6003178,3.20999342 C17.5997469,3.10050571 17.5539468,2.99713544 17.4757837,2.92902474 L17.2638212,2.74439369 C17.1874146,2.67787256 17.1404289,2.58249831 17.1315587,2.47580439 C17.1227325,2.36930315 17.1533829,2.26602921 17.2179773,2.1849611 C17.3399205,2.03173611 17.5643539,2.01622575 17.7183967,2.15027956 L18.8008239,3.09299138 C18.8772305,3.15951251 18.9242162,3.25488676 18.9330864,3.36153251 C18.9419126,3.46803375 18.9112622,3.57130768 18.8466678,3.65242396 C18.7246807,3.80555261 18.5001155,3.82106297 18.3463362,3.68715367 L18.3171348,3.66172054 C18.2379178,3.59269463 18.134198,3.56745418 18.0359672,3.59317632 C17.9376047,3.61889847 17.8554895,3.69274126 17.8132024,3.79346224 L17.0669205,5.57050605 C16.9880109,5.75846076 17.0237991,5.98446882 17.155842,6.13287693 C17.202652,6.18547728 17.2488912,6.23990803 17.3039128,6.30546579 C17.4270855,6.45228433 17.6354472,6.46172541 17.7692906,6.32656373 C17.90309,6.19140204 17.9116967,5.9628892 17.7885239,5.81607066 C17.7652507,5.78827725 17.7433387,5.76226609 17.7220853,5.73736282 L18.2640893,4.44672767 C18.6432681,4.5827564 19.0699157,4.47047489 19.34274,4.12785014 C19.5269063,3.89659167 19.6143787,3.60117234 19.5889977,3.29602292 C19.5640118,2.99516052 19.4259969,2.71496254 19.2103458,2.52720051 L18.1279186,1.58453686 C17.6954308,1.20790492 17.0778545,1.2627692 16.7219051,1.7097276 C16.5377388,1.94098607 16.4502664,2.23640539 16.4756474,2.54155482 C16.4964616,2.7919363 16.5954829,3.02805982 16.7525116,3.20845202 L15.7765268,4.07765823 C15.1389267,3.68898409 14.4589956,3.39895967 13.7518392,3.21394327 L13.6794725,2.52093857 C14.0142125,2.31785886 14.2490092,1.9438762 14.2914719,1.51637799 C14.3614235,0.811282923 13.8865168,0.164231271 13.2328889,0.0739147488 L12.7711119,0.0101392417 C12.4520484,-0.0338870524 12.121963,0.0667857647 11.865913,0.286387379 C11.6135077,0.502906188 11.4541077,0.810078703 11.4171778,1.15135474 C11.3634297,1.6474935 11.5720988,2.12157095 11.9345033,2.38967855 L11.7437941,2.97497779 C11.1888362,2.98538225 10.6372594,3.05806899 10.1002614,3.19154477 L9.36324486,2.02605219 C9.66250412,1.73684665 9.79103411,1.27659365 9.660572,0.844808416 C9.57244092,0.553338935 9.38484949,0.320683573 9.13235634,0.189664404 C8.88337615,0.0605238191 8.59330214,0.0486261225 8.33627839,0.157054118 L7.04636776,0.701265356 C6.53088654,0.918699374 6.26043344,1.53025061 6.43067969,2.09348853 C6.51876687,2.38495801 6.70631438,2.61761337 6.95885144,2.74863254 C7.16602755,2.85609716 7.40161464,2.8824455 7.62319384,2.82565447 L7.81008268,4.18969889 C7.15979207,4.61026079 6.56821161,5.12788284 6.04838311,5.7310527 L5.30482374,5.37831249 C5.36524644,4.99214313 5.23074444,4.5827564 4.93179256,4.33468701 C4.72290388,4.16137563 4.4650974,4.08753284 4.20557836,4.12717577 C3.94614714,4.16662603 3.7162686,4.31460062 3.55831767,4.54373966 L3.00682873,5.34353461 C2.68412054,5.81144645 2.74678275,6.46625328 3.14945443,6.83421484 C3.35781616,7.02462615 3.62054077,7.11089649 3.88945694,7.07698565 C4.0590006,7.05564687 4.22006927,6.98536857 4.35628384,6.87636255 L4.85516638,7.51917534 C4.39417976,8.43134814 4.08868501,9.4139919 3.94579585,10.4441301 L2.67143001,10.7719189 C2.51672856,10.3484187 2.14242394,10.0416797 1.70488625,10.0290113 C1.42003007,10.0211598 1.15010392,10.1376801 0.941786101,10.3581488 C0.730306625,10.5820374 0.607441265,10.8941232 0.604762642,11.2144458 L0.593302135,12.6077768 C0.590798673,12.921693 0.700358742,13.2174013 0.901782404,13.4403747 C1.10320607,13.6633482 1.37181486,13.7861305 1.65803231,13.7861305 C2.17838775,13.7861786 2.61640846,13.3760212 2.71521013,12.8348928 Z" id="Path" stroke="#016D38" stroke-width="0.3"></path>
                        <path d="M10.3398321,9.65536564 C10.4703317,9.56568022 10.520085,9.35568962 10.4508941,9.18640203 C10.3817389,9.01720696 10.2198894,8.95254465 10.0892471,9.04236883 C9.45001627,9.48177649 8.72140802,9.3656341 8.35701474,8.76600454 C8.15254506,8.42964954 8.08221291,7.98390517 8.15896483,7.51096377 C8.23942595,7.01503441 8.46953904,6.55199125 8.80689796,6.20717187 C9.14418555,5.86230624 9.54513587,5.68053023 9.93570755,5.69459127 C10.3082325,5.70823604 10.6259755,5.90102037 10.8304808,6.23742162 C11.1374885,6.74255541 11.133601,7.49653269 10.8205302,8.15828062 C10.743279,8.32160151 10.7826892,8.53519989 10.9086594,8.63538483 C11.0345582,8.73556978 11.199261,8.68441348 11.2765122,8.52113884 C11.7081348,7.60883604 11.6979345,6.54385064 11.2505835,5.8079122 C10.9462507,5.30717248 10.4846336,5.02063244 9.95082967,5.00111349 C9.43496548,4.98168704 8.91125489,5.21702453 8.47570915,5.66230638 C8.04009208,6.10758822 7.74171543,6.71341574 7.63543257,7.3680869 C7.52544051,8.04579226 7.63250801,8.6948205 7.93684078,9.19551396 C8.25729431,9.72271064 8.75907068,10 9.29890202,10 C9.64282337,10 10.0021522,9.88751164 10.3398321,9.65536564 L10.3398321,9.65536564 Z" id="Path" stroke="#016D38" stroke-width="0.3"></path>
                        <path d="M13.5933021,12.5 C13.5933021,11.6728927 12.9204191,11 12.0933238,11 C11.2661851,11 10.5933021,11.6728927 10.5933021,12.5 C10.5933021,13.3271073 11.2661851,14 12.0933238,14 C12.9204191,14 13.5933021,13.3271073 13.5933021,12.5 Z M11.2443966,12.5 C11.2443966,12.0318875 11.6252181,11.6510605 12.0933672,11.6510605 C12.5614296,11.6510605 12.9422945,12.0318875 12.9422945,12.5 C12.9422945,12.9681125 12.561473,13.3489395 12.0933672,13.3489395 C11.6252181,13.3489395 11.2443966,12.9681125 11.2443966,12.5 L11.2443966,12.5 Z" id="Shape" stroke="#016D38" stroke-width="0.3"></path>
                        <path d="M15.5933021,9.5 C15.5933021,9.22386667 15.438101,9 15.2465615,9 L14.9400428,9 C14.7485032,9 14.5933021,9.22386667 14.5933021,9.5 C14.5933021,9.77613333 14.7485032,10 14.9400428,10 L15.2465615,10 C15.438101,10 15.5933021,9.77613333 15.5933021,9.5 Z" id="Path"></path>
                        <path d="M9.93714956,17 L10.2494547,17 C10.439396,17 10.5933021,16.7761333 10.5933021,16.5 C10.5933021,16.2238667 10.439396,16 10.2494547,16 L9.93714956,16 C9.74720824,16 9.59330214,16.2238667 9.59330214,16.5 C9.59330214,16.7761333 9.74725409,17 9.93714956,17 Z" id="Path"></path>
                        <path d="M8.24546798,12 C8.43761157,12 8.59330214,11.7761333 8.59330214,11.5 C8.59330214,11.2238667 8.43761157,11 8.24546798,11 L7.94113629,11 C7.7489927,11 7.59330214,11.2238667 7.59330214,11.5 C7.59330214,11.7761333 7.7489927,12 7.94113629,12 L8.24546798,12 Z" id="Path"></path>
                        <path d="M13.2825115,6 C13.4541922,6 13.5933021,5.77613333 13.5933021,5.5 C13.5933021,5.22386667 13.4541922,5 13.2825115,5 L12.9040928,5 C12.732412,5 12.5933021,5.22386667 12.5933021,5.5 C12.5933021,5.77613333 12.732412,6 12.9040928,6 L13.2825115,6 Z" id="Path"></path>
                        <path d="M15.8922975,14 C15.7271325,14 15.5933021,14.2238667 15.5933021,14.5 C15.5933021,14.7761333 15.7271325,15 15.8922975,15 L16.2943068,15 C16.4594718,15 16.5933021,14.7761333 16.5933021,14.5 C16.5933021,14.2238667 16.4594718,14 16.2943068,14 L15.8922975,14 Z" id="Path"></path>
                    </g>
                </g>
            </g>
        </g>
    </g>
</svg>