<?xml version="1.0" encoding="UTF-8"?>
<svg width="29px" height="19px" viewBox="0 0 29 19" version="1.1" xmlns="http://www.w3.org/2000/svg" xmlns:xlink="http://www.w3.org/1999/xlink">
    <!-- Generator: Sketch 63.1 (92452) - https://sketch.com -->
    <title>Group 3</title>
    <desc>Created with Sketch.</desc>
    <g id="Green-Button" stroke="none" stroke-width="1" fill="none" fill-rule="evenodd">
        <g id="Bv15" transform="translate(-55.000000, -478.000000)">
            <g id="Group-10" transform="translate(44.000000, 463.000000)">
                <g id="Group-3" transform="translate(12.000000, 16.000000)">
                    <path d="M13.522583,14.9955995 C16.9743627,14.9955995 19.75,15.2638249 19.75,11.6120761 C19.75,7.96032732 16.9517797,5 13.5,5 C10.0482203,5 7.25,7.96032732 7.25,11.6120761 C7.25,15.2638249 10.0708033,14.9955995 13.522583,14.9955995 Z" id="Oval" fill="#FFDC5D"></path>
                    <g id="iconos_obra-copy" fill="#016D38" fill-rule="nonzero" stroke="#016D38">
                        <path d="M25.2115385,13.5 L22.8692308,13.5 L22.8692308,9.45 C22.8692308,4.23090911 18.6744833,0 13.5,0 C8.32551673,0 4.13076923,4.23090911 4.13076923,9.45 L4.13076923,13.5 L1.78846154,13.5 C0.802845677,13.5 0.00384615385,14.3058875 0.00384615385,15.3 C0.00384615385,16.2941125 0.802845677,17.1 1.78846154,17.1 L25.2115385,17.1 C26.1971543,17.1 26.9961538,16.2941125 26.9961538,15.3 C26.9961538,14.3058875 26.1971543,13.5 25.2115385,13.5 L25.2115385,13.5 Z M5.02307692,9.45 C5.02268054,4.70942519 8.80033928,0.84906589 13.5,0.7875 C18.1996607,0.84906589 21.9773195,4.70942519 21.9769231,9.45 L21.9769231,13.5 L5.02307692,13.5 L5.02307692,9.45 Z M25.2115385,16.2 L1.78846154,16.2 C1.55180682,16.2 1.32484487,16.1051788 1.15750472,15.9363961 C0.990164565,15.7676134 0.896153846,15.5386948 0.896153846,15.3 C0.946091316,14.825368 1.31788619,14.450368 1.78846154,14.4 L25.2115385,14.4 C25.6821138,14.450368 26.0539087,14.825368 26.1038462,15.3 C26.1038462,15.5386948 26.0098354,15.7676134 25.8424953,15.9363961 C25.6751551,16.1051788 25.4481932,16.2 25.2115385,16.2 L25.2115385,16.2 Z" id="Shape" stroke-width="0.6"></path>
                        <path d="M16.9576923,6.075 L14.95,6.075 L14.95,4.05 C14.95,3.49081169 14.5005628,3.0375 13.9461538,3.0375 L13.0538462,3.0375 C12.4994372,3.0375 12.05,3.49081169 12.05,4.05 L12.05,6.075 L10.0423077,6.075 C9.77607114,6.075 9.52073894,6.1816738 9.33248127,6.37155438 C9.1442236,6.56143497 9.03846154,6.8189683 9.03846154,7.0875 L9.03846154,8.1 C9.03846154,8.3685317 9.1442236,8.62606503 9.33248127,8.81594562 C9.52073894,9.0058262 9.77607114,9.1125 10.0423077,9.1125 L12.05,9.1125 L12.05,11.1375 C12.05,11.4060317 12.1557621,11.663565 12.3440197,11.8534456 C12.5322774,12.0433262 12.7876096,12.15 13.0538462,12.15 L13.9461538,12.15 C14.5005628,12.15 14.95,11.6966883 14.95,11.1375 L14.95,9.1125 L16.9576923,9.1125 C17.2239289,9.1125 17.4792611,9.0058262 17.6675187,8.81594562 C17.8557764,8.62606503 17.9615385,8.3685317 17.9615385,8.1 L17.9615385,7.0875 C17.9615385,6.8189683 17.8557764,6.56143497 17.6675187,6.37155438 C17.4792611,6.1816738 17.2239289,6.075 16.9576923,6.075 L16.9576923,6.075 Z M16.9576923,8.1 L14.95,8.1 C14.4181408,8.15143062 13.9971449,8.57605585 13.9461538,9.1125 L13.9461538,11.1375 L13.0538462,11.1375 L13.0538462,9.1125 C13.0028551,8.57605585 12.5818592,8.15143062 12.05,8.1 L10.0423077,8.1 L10.0423077,7.0875 L12.05,7.0875 C12.5818592,7.03606938 13.0028551,6.61144415 13.0538462,6.075 L13.0538462,4.05 L13.9461538,4.05 L13.9461538,6.075 C13.9971449,6.61144415 14.4181408,7.03606938 14.95,7.0875 L16.9576923,7.0875 L16.9576923,8.1 Z" id="Shape" stroke-width="0.3"></path>
                    </g>
                </g>
            </g>
        </g>
    </g>
</svg>