<?xml version="1.0" encoding="UTF-8"?>
<svg width="52px" height="52px" viewBox="0 0 52 52" version="1.1" xmlns="http://www.w3.org/2000/svg" xmlns:xlink="http://www.w3.org/1999/xlink">
    <title>whatsapp</title>
    <g id="Green-Button" stroke="none" stroke-width="1" fill="none" fill-rule="evenodd">
        <g id="Bv22" transform="translate(-156.000000, -389.000000)" fill="#006D38" fill-rule="nonzero">
            <g id="whatsapp" transform="translate(156.000000, 389.000000)">
                <path d="M26,0 C11.663,0 0,11.663 0,26 C0,30.891 1.359,35.639 3.937,39.762 C2.91,43.36 1.055,50.166 1.035,50.237 C0.939,50.589 1.042,50.965 1.305,51.218 C1.568,51.471 1.948,51.561 2.294,51.455 L12.6,48.285 C16.637,50.717 21.26,52 26,52 C40.337,52 52,40.337 52,26 C52,11.663 40.337,0 26,0 Z M26,50 C21.481,50 17.079,48.737 13.269,46.349 C13.108,46.248 12.923,46.197 12.738,46.197 C12.639,46.197 12.54,46.212 12.444,46.241 L3.445,49.011 C4.106,46.598 5.294,42.282 5.983,39.881 C6.063,39.603 6.018,39.303 5.861,39.06 C3.335,35.173 2,30.657 2,26 C2,12.767 12.767,2 26,2 C39.233,2 50,12.767 50,26 C50,39.233 39.233,50 26,50 Z" id="Shape"></path>
                <path d="M42.4882666,32.3780926 C40.6508995,31.3518226 39.086251,30.3225489 37.944615,29.5716196 C37.0727117,28.9989108 36.4426719,28.5853991 35.9808418,28.3521104 C34.6899073,27.7043087 33.7115043,28.161875 33.3392533,28.5403433 C33.2924731,28.5874016 33.2506695,28.6384648 33.2148379,28.6925317 C31.8741372,30.7160358 30.1233632,32.6514309 29.6107716,32.7555598 C29.0185542,32.6624445 26.2465783,31.0774831 23.491523,28.7696271 C20.6787388,26.4117091 18.9090537,24.153915 18.6492743,22.6160118 C20.4537957,20.7476997 21.103742,19.5722451 21.103742,18.2345897 C21.103742,16.8558835 17.906763,11.0997602 17.32848,10.5180403 C16.7482065,9.93531914 15.4413468,9.84420639 13.4437326,10.244702 C13.2516351,10.2837503 13.0744676,10.378868 12.9351223,10.5180403 C12.6932587,10.7613414 7.03384943,16.5655242 9.72321344,23.6002298 C12.6753428,31.3207842 20.2527404,40.2948899 29.91335,41.752694 C31.0111917,41.9178984 32.0403562,42 33.0038293,42 C38.6871263,42 42.0413664,39.1234402 42.9859284,33.4173788 C43.0565963,32.9998621 42.8565363,32.5833467 42.4882666,32.3780926 Z M30.208961,39.7722431 C19.992961,38.2313362 13.5581948,28.0497362 11.5814824,22.8813402 C9.62069512,17.7549962 13.2367053,13.1843399 14.1444403,12.1510612 C14.8829703,12.0249051 15.6603179,11.9718394 15.9847934,12.0229026 C16.6626087,12.971076 19.0095814,17.431596 19.113095,18.2345897 C19.113095,18.7602402 18.9428947,19.492146 16.9164161,21.5316699 C16.7292953,21.7189016 16.6247864,21.9732163 16.6247864,22.2395459 C16.6247864,27.4820336 27.6171387,34.7550342 29.5639914,34.7550342 C31.2570366,34.7550342 33.4646641,31.8924917 34.7217576,30.0271833 C34.7944162,30.0301871 34.916841,30.055218 35.0910226,30.1433271 C35.4493391,30.3245513 36.0704209,30.7320556 36.8557311,31.248695 C37.8928582,31.9305388 39.2703859,32.8356589 40.8967444,33.7738199 C40.1582144,37.3482433 38.0939135,40.9637176 30.208961,39.7722431 Z" id="Shape"></path>
            </g>
        </g>
    </g>
</svg>