<?xml version="1.0" encoding="UTF-8"?>
<svg width="47px" height="47px" viewBox="0 0 47 47" version="1.1" xmlns="http://www.w3.org/2000/svg" xmlns:xlink="http://www.w3.org/1999/xlink">
    <title>Group 3</title>
    <g id="Green-Button" stroke="none" stroke-width="1" fill="none" fill-rule="evenodd">
        <g id="Bv14" transform="translate(-157.000000, -392.000000)" fill-rule="nonzero">
            <g id="phone0" transform="translate(157.000000, 392.000000)">
                <path d="M45.7666994,36.2588117 L36.2537283,29.9143169 C35.0465027,29.1156559 33.4282715,29.3784494 32.5357708,30.5182004 L29.7647414,34.0812878 C29.4086222,34.5508832 28.7612747,34.687099 28.246095,34.4008991 L27.7189836,34.1102933 C25.9716133,33.157793 23.7974507,31.9719636 19.4169095,27.5895625 C15.0363684,23.2071615 13.8482336,21.031198 12.8957984,19.2869209 L12.6067728,18.7597734 C12.3166459,18.2446504 12.4502823,17.5945049 12.9200292,17.2355159 L16.4804867,14.4651232 C17.6197009,13.5724696 17.8828436,11.9545867 17.085155,10.7469114 L10.7410939,1.23329001 C9.92358008,0.00349340439 8.28341266,-0.365684232 7.01781285,0.395159484 L3.03983321,2.78490085 C1.78992834,3.51976811 0.872921471,4.70991163 0.481098599,6.10593915 C-0.951363235,11.3256446 0.126264393,20.3340563 13.3955584,33.6058179 C23.9510041,44.1611591 31.8090306,46.9998787 37.2101102,46.9998787 C38.4531314,47.0050752 39.691288,46.843342 40.8912627,46.5188659 C42.2874701,46.1274751 43.4777159,45.2103138 44.212074,43.9599563 L46.6040384,39.9840913 C47.3659315,38.7181296 46.9969626,37.0768403 45.7666994,36.2588117 Z M45.2544568,39.1803818 L42.8679995,43.1586334 C42.3407045,44.0611084 41.4846417,44.7246552 40.4791557,45.0103043 C35.6608083,46.3332674 27.2428119,45.2374835 14.5037499,32.4975506 C1.76468793,19.7576178 0.66907078,11.3397802 1.99194336,6.52036904 C2.2779401,5.51362107 2.94226757,4.65639831 3.84578229,4.12824115 L7.82376194,1.74162063 C8.37290137,1.41117819 9.08477258,1.57135099 9.439515,2.10501553 L12.8857023,7.27928517 L15.7781609,11.6178108 C16.1245511,12.1416539 16.0107398,12.8437523 15.5165785,13.2313796 L11.955295,16.0017723 C10.8715179,16.8305403 10.5620247,18.3301064 11.2292892,19.52025 L11.5120735,20.034088 C12.5130621,21.8700629 13.7575517,24.1540626 18.3010083,28.6970954 C22.8444648,33.2400364 25.1275741,34.484703 26.9625975,35.4856682 L27.4771346,35.7692062 C28.667105,36.4364245 30.1666604,36.1270019 30.9953718,35.0431507 L33.7655751,31.4816237 C34.1532677,30.9877041 34.8550427,30.8739768 35.3790336,31.2200235 L44.8911786,37.5645183 C45.4251738,37.9190096 45.5853356,38.6312966 45.2544568,39.1803818 Z" id="Shape" fill="#006D38"></path>
                <path d="M26.7999719,7.59994375 C34.307595,7.60828753 40.3916187,13.692405 40.4000563,21.2000281 C40.4000563,21.6418736 40.7581826,22 41.2000281,22 C41.6418736,22 42,21.6418736 42,21.2000281 C41.9907187,12.8090891 35.1909109,6.00918754 26.7999719,6 C26.3581264,6 26,6.3581264 26,6.79997187 C26,7.24181735 26.3581264,7.59994375 26.7999719,7.59994375 Z" id="Path" fill="#FFDC5D"></path>
                <path d="M26.785688,11.571376 C31.5567191,11.5769926 35.4230074,15.4432809 35.428624,20.214312 C35.428624,20.6482681 35.780448,21 36.214312,21 C36.6482681,21 37,20.6482681 37,20.214312 C36.9934626,14.575737 32.4241709,10.0064453 26.785688,10 C26.3517319,10 26,10.3517319 26,10.785688 C26,11.2196441 26.3517319,11.571376 26.785688,11.571376 Z" id="Path" fill="#FFDC5D"></path>
                <path d="M26.8749744,16.7499487 C29.2899979,16.7528199 31.2470776,18.7098995 31.2500513,21.1250256 C31.2500513,21.608297 31.6418569,22 32.1250256,22 C32.6081944,22 33,21.608297 33,21.1250256 C32.9961035,17.7438696 30.2561304,15.003794 26.8749744,15 C26.391703,15 26,15.391703 26,15.8749744 C26,16.3582457 26.391703,16.7499487 26.8749744,16.7499487 Z" id="Path" fill="#FFDC5D"></path>
            </g>
        </g>
    </g>
</svg>