<?xml version="1.0" encoding="UTF-8"?>
<svg width="22px" height="22px" viewBox="0 0 22 22" version="1.1" xmlns="http://www.w3.org/2000/svg" xmlns:xlink="http://www.w3.org/1999/xlink">
    <title>Group 6</title>
    <defs>
        <filter id="filter-1">
            <feColorMatrix in="SourceGraphic" type="matrix" values="0 0 0 0 0.003922 0 0 0 0 0.427451 0 0 0 0 0.219608 0 0 0 1.000000 0"></feColorMatrix>
        </filter>
    </defs>
    <g id="login" stroke="none" stroke-width="1" fill="none" fill-rule="evenodd">
        <g id="sign-in-main1" transform="translate(-133.000000, -784.000000)">
            <g id="Group-6" transform="translate(133.000000, 784.000000)">
                <path d="M5,17 C9.47337858,14.3333333 13.8067119,14.3333333 18,17" id="Path-3" stroke="#FFDC5D" stroke-width="2"></path>
                <g id="user-1" filter="url(#filter-1)">
                    <g transform="translate(0.000000, 0.916667)">
                        <path d="M21.5416667,18.975 C19.9833333,15.95 17.1416667,13.8416667 13.75,13.1083333 C16.0416667,12.0083333 17.6,9.71666667 17.6,6.96666667 C17.6,3.20833333 14.6666667,0.183333333 11,0.183333333 C7.33333333,0.183333333 4.4,3.20833333 4.4,6.96666667 C4.4,9.71666667 5.95833333,12.0083333 8.25,13.1083333 C4.85833333,13.8416667 2.01666667,15.95 0.458333333,18.975 C0.275,19.25 0.458333333,19.7083333 0.733333333,19.8 C0.825,19.8916667 0.916666667,19.8916667 1.00833333,19.8916667 C1.28333333,19.8916667 1.46666667,19.8 1.55833333,19.525 C3.3,16.1333333 6.875,14.025 11,14.025 C15.125,14.025 18.7,16.1333333 20.4416667,19.525 C20.625,19.8 20.9916667,19.9833333 21.2666667,19.8 C21.6333333,19.7083333 21.725,19.3416667 21.5416667,18.975 Z M5.68333333,6.96666667 C5.68333333,3.94166667 8.06666667,1.46666667 11,1.46666667 C13.9333333,1.46666667 16.3166667,3.94166667 16.3166667,6.96666667 C16.3166667,9.99166667 13.9333333,12.4666667 11,12.4666667 C8.06666667,12.4666667 5.68333333,9.99166667 5.68333333,6.96666667 Z" id="Shape" fill="#000000" fill-rule="nonzero"></path>
                    </g>
                </g>
            </g>
        </g>
    </g>
</svg>