<?xml version="1.0" encoding="UTF-8"?>
<svg width="54px" height="53px" viewBox="0 0 54 53" version="1.1" xmlns="http://www.w3.org/2000/svg" xmlns:xlink="http://www.w3.org/1999/xlink">
    <title>Group 5</title>
    <g id="Menu-1" stroke="none" stroke-width="1" fill="none" fill-rule="evenodd">
        <g id="Centro-de-ayuda-1" transform="translate(-65.000000, -192.000000)">
            <g id="Group-5" transform="translate(66.000000, 193.000000)">
                <g id="Group-2" transform="translate(0.425926, 0.500000)" fill-rule="nonzero" stroke="#05571B" stroke-width="1.5">
                    <g id="phone-(3)" transform="translate(0.928571, 0.000000)">
                        <path d="M48.8465795,38.5733035 L38.8478397,31.8238235 C37.5789685,30.9741819 35.8781042,31.2537503 34.940029,32.4662545 L32.0275002,36.2567828 C31.6531962,36.7563537 30.9727926,36.9012644 30.431306,36.5967956 L29.8772782,36.2876398 C28.0406805,35.2743389 25.7554968,34.012815 21.1512684,29.3506742 C16.54704,24.6885334 15.2982346,22.3736727 14.2971644,20.5180539 L13.9933801,19.9572573 C13.6884381,19.4092526 13.8288986,18.7176067 14.3226325,18.3357025 L18.0649006,15.3884686 C19.2622874,14.4388348 19.5388672,12.7176783 18.7004456,11.432914 L12.0324324,1.31201404 C11.1731732,0.00371639724 9.44925258,-0.389026783 8.1190264,0.420383515 L3.93791587,2.96266812 C2.62418608,3.74444383 1.66035333,5.01055722 1.24852248,6.49569671 C-0.257086343,12.0485892 0.375757501,22.137851 14.3226325,36.2567828 C25.4170797,47.4858981 34.1761787,49.9998646 39.8530581,49.9998646 C41.1595526,50.0055282 42.4609343,49.8334712 43.7221843,49.4882829 C45.1896875,49.0719088 46.4407117,48.0962027 47.212569,46.7660317 L49.7266762,42.5363771 C50.5274745,41.1896059 50.1396647,39.443549 48.8465795,38.5733035 Z" id="Shape"></path>
                    </g>
                </g>
                <path d="M4.41797212,16.2876591 C5.46004081,19.663484 6.66751434,22.3978685 8.04039271,24.4908126 C15.0720438,35.210519 24.1400918,43.4428249 33.0106204,47.058255 C36.1400827,48.3337542 38.7401335,48.6598065 41.7710345,48.7504608" id="Path-15" stroke="#FFDC5D" stroke-width="2" stroke-linecap="round"></path>
            </g>
        </g>
    </g>
</svg>