<?xml version="1.0" encoding="UTF-8"?>
<svg width="56px" height="56px" viewBox="0 0 56 56" version="1.1" xmlns="http://www.w3.org/2000/svg" xmlns:xlink="http://www.w3.org/1999/xlink">
    <title>Group 8</title>
    <g id="Green-Button" stroke="none" stroke-width="1" fill="none" fill-rule="evenodd">
        <g id="Btn-verde-3-actualizado" transform="translate(-152.000000, -345.000000)">
            <g id="Group-8" transform="translate(152.000000, 345.000000)">
                <g id="Group-4" fill="#016D38" fill-rule="nonzero" stroke="#FFFFFF" stroke-width="0.7">
                    <g id="Group">
                        <path d="M27.55,0.35 C35.0657895,0.35 41.8658234,3.3920481 46.7868876,8.31311237 C51.7079519,13.2341766 54.75,20.0342105 54.75,27.55 C54.75,35.0657895 51.7079519,41.8658234 46.7868876,46.7868876 C41.8658234,51.7079519 35.0657895,54.75 27.55,54.75 C20.0342105,54.75 13.2341766,51.7079519 8.31311237,46.7868876 C3.3920481,41.8658234 0.35,35.0657895 0.35,27.55 C0.35,20.0342105 3.3920481,13.2341766 8.31311237,8.31311237 C13.2341766,3.3920481 20.0342105,0.35 27.55,0.35 Z M27.55,3.03333333 C20.8079167,3.03333333 14.6785271,5.7910815 10.2348043,10.2348043 C5.7910815,14.6785271 3.03333333,20.8079167 3.03333333,27.55 C3.03333333,34.2920833 5.7910815,40.4214729 10.2348043,44.8651957 C14.6785271,49.3089185 20.8079167,52.0666667 27.55,52.0666667 C34.2920833,52.0666667 40.4214729,49.3089185 44.8651957,44.8651957 C49.3089185,40.4214729 52.0666667,34.2920833 52.0666667,27.55 C52.0666667,20.8079167 49.3089185,14.6785271 44.8651957,10.2348043 C40.4214729,5.7910815 34.2920833,3.03333333 27.55,3.03333333 Z" id="Shape"></path>
                    </g>
                </g>
                <g id="Group-3" transform="translate(25.000000, 16.000000)" fill="#006D38">
                    <path d="M2.75,24.25 C4.26878306,24.25 5.5,23.0187831 5.5,21.5 L5.5,10.5 C5.5,8.98121694 4.26878306,7.75 2.75,7.75 C1.23121694,7.75 2.03444877e-15,8.98121694 2.22044605e-15,10.5 L2.22044605e-15,21.5 C2.40644333e-15,23.0187831 1.23121694,24.25 2.75,24.25 Z" id="Path"></path>
                    <path d="M2.75,5.5 C4.26878306,5.5 5.5,4.26878306 5.5,2.75 C5.5,1.23121694 4.26878306,1.94145013e-15 2.75,2.22044605e-15 C1.23121694,2.49944197e-15 2.03444877e-15,1.23121694 2.22044605e-15,2.75 C2.40644333e-15,4.26878306 1.23121694,5.5 2.75,5.5 Z" id="Path"></path>
                </g>
            </g>
        </g>
    </g>
</svg>