<?xml version="1.0" encoding="UTF-8"?>
<svg width="19px" height="19px" viewBox="0 0 19 19" version="1.1" xmlns="http://www.w3.org/2000/svg" xmlns:xlink="http://www.w3.org/1999/xlink">
    <title>app</title>
    <g id="Perfil-de-usuario" stroke="none" stroke-width="1" fill="none" fill-rule="evenodd">
        <g id="main-Menu-Copy" transform="translate(-19.000000, -247.000000)" fill="#FFFFFF" fill-rule="nonzero" stroke="#FFFFFF" stroke-width="0.4">
            <g id="app" transform="translate(20.000000, 248.000000)">
                <path d="M6.46448052,0 L1.14040683,0 C0.511440692,0 0,0.511850664 0,1.14078264 L0,6.46448052 C0,7.09344666 0.511850664,7.60526316 1.14078264,7.60526316 L6.46448052,7.60526316 C7.09344666,7.60526316 7.60526316,7.09341249 7.60526316,6.46448052 L7.60526316,1.14078264 C7.60526316,0.511850664 7.09344666,0 6.46448052,0 Z M6.84476417,6.46448052 C6.84476417,6.67401063 6.67401063,6.84473001 6.46451468,6.84473001 L1.14078264,6.84473001 C0.93125253,6.84473001 0.760533149,6.67397646 0.760533149,6.46448052 L0.760533149,1.14078264 C0.760533149,0.93125253 0.930876722,0.760533149 1.14040683,0.760533149 L6.46448052,0.760533149 C6.67401063,0.760533149 6.84476417,0.931286694 6.84476417,1.14078264 L6.84476417,6.46448052 L6.84476417,6.46448052 Z" id="Shape"></path>
                <path d="M15.8592174,0 L10.5355195,0 C9.90655334,0 9.39473684,0.511850664 9.39473684,1.14078264 L9.39473684,6.46448052 C9.39473684,7.09344666 9.90658751,7.60526316 10.5355195,7.60526316 L15.8592174,7.60526316 C16.4881835,7.60526316 17,7.09341249 17,6.46448052 L17,1.14078264 C17,0.511850664 16.4881493,0 15.8592174,0 Z M16.2394669,6.46448052 C16.2394669,6.67401063 16.0691233,6.84473001 15.8592174,6.84473001 L10.5355195,6.84473001 C10.3256136,6.84473001 10.15527,6.67397646 10.15527,6.46448052 L10.15527,1.14078264 C10.15527,0.93125253 10.3256136,0.760533149 10.5355195,0.760533149 L15.8592174,0.760533149 C16.0691233,0.760533149 16.2394669,0.931286694 16.2394669,1.14078264 L16.2394669,6.46448052 L16.2394669,6.46448052 Z" id="Shape"></path>
                <path d="M6.46448052,9.39473684 L1.14040683,9.39473684 C0.511440692,9.39473684 0,9.90658521 0,10.5355485 L0,15.8592225 C0,16.4881516 0.511850664,17 1.14078264,17 L6.46448052,17 C7.09344666,17 7.60526316,16.4881516 7.60526316,15.8592225 L7.60526316,10.5355485 C7.60526316,9.90658521 7.09344666,9.39473684 6.46448052,9.39473684 Z M6.84476417,15.8592225 C6.84476417,16.0691275 6.67401063,16.2394703 6.46451468,16.2394703 L1.14078264,16.2394703 C0.93125253,16.2394703 0.760533149,16.0691275 0.760533149,15.8592225 L0.760533149,10.5355485 C0.760533149,10.3256435 0.930876722,10.1553007 1.14040683,10.1553007 L6.46448052,10.1553007 C6.67401063,10.1553007 6.84476417,10.3256435 6.84476417,10.5355485 L6.84476417,15.8592225 L6.84476417,15.8592225 Z" id="Shape"></path>
                <path d="M15.8592174,9.39473684 L10.5355195,9.39473684 C9.90655334,9.39473684 9.39473684,9.90658751 9.39473684,10.5355195 L9.39473684,15.8592174 C9.39473684,16.4881835 9.90658751,17 10.5355195,17 L15.8592174,17 C16.4881835,17 17,16.4881493 17,15.8592174 L17,10.5355536 C17,9.90658751 16.4881493,9.39473684 15.8592174,9.39473684 Z M16.2394669,15.8592515 C16.2394669,16.0691574 16.0691233,16.239501 15.8592174,16.239501 L10.5355195,16.239501 C10.3256136,16.239501 10.15527,16.0691574 10.15527,15.8592515 L10.15527,10.5355536 C10.15527,10.3256477 10.3256136,10.1553042 10.5355195,10.1553042 L15.8592174,10.1553042 C16.0691233,10.1553042 16.2394669,10.3256477 16.2394669,10.5355536 L16.2394669,15.8592515 L16.2394669,15.8592515 Z" id="Shape"></path>
            </g>
        </g>
    </g>
</svg>