<?xml version="1.0" encoding="UTF-8"?>
<svg width="20px" height="20px" viewBox="0 0 20 20" version="1.1" xmlns="http://www.w3.org/2000/svg" xmlns:xlink="http://www.w3.org/1999/xlink">
    <title>Shape</title>
    <g id="Menu-1" stroke="none" stroke-width="1" fill="none" fill-rule="evenodd">
        <g id="main-menu-copy" transform="translate(-18.000000, -108.000000)" fill="#FFFFFF" fill-rule="nonzero">
            <path d="M28,108.083333 C22.5833333,108.083333 18.0833333,112.583333 18.0833333,118 C18.0833333,123.416667 22.5,127.916667 28,127.916667 C33.4166667,127.916667 37.9166667,123.5 37.9166667,118 C37.9166667,112.583333 33.4166667,108.083333 28,108.083333 Z M22.4166667,124.583333 C23.5,122.666667 25.5833333,121.5 28,121.5 L28,121.5 C30.4166667,121.5 32.5,122.666667 33.5833333,124.583333 C32.0833333,125.833333 30.1666667,126.666667 28,126.666667 C25.8333333,126.666667 23.9166667,125.833333 22.4166667,124.583333 Z M28,119.333333 C26.4166667,119.333333 25.1666667,118 25.1666667,116.416667 C25.1666667,114.833333 26.4166667,113.5 28,113.5 C29.5833333,113.5 30.8333333,114.833333 30.8333333,116.416667 C30.8333333,118 29.5833333,119.333333 28,119.333333 Z M34.5,123.666667 C33.4166667,121.916667 31.5833333,120.666667 29.4166667,120.333333 C31,119.75 32.1666667,118.25 32.1666667,116.416667 C32.1666667,114.083333 30.3333333,112.25 28.0833333,112.25 C25.8333333,112.25 24,114.083333 24,116.416667 C24,118.25 25.1666667,119.75 26.75,120.333333 C24.5833333,120.666667 22.75,121.916667 21.6666667,123.666667 C20.1666667,122.166667 19.3333333,120.166667 19.3333333,118 C19.3333333,113.25 23.25,109.333333 28,109.333333 C32.75,109.333333 36.6666667,113.166667 36.6666667,118 C36.6666667,120.166667 35.8333333,122.166667 34.5,123.666667 Z" id="Shape"></path>
        </g>
    </g>
</svg>