<?xml version="1.0" encoding="UTF-8"?>
<svg width="20px" height="17px" viewBox="0 0 20 17" version="1.1" xmlns="http://www.w3.org/2000/svg" xmlns:xlink="http://www.w3.org/1999/xlink">
    <title>Shape</title>
    <g id="Menu-1" stroke="none" stroke-width="1" fill="none" fill-rule="evenodd">
        <g id="main-menu-copy" transform="translate(-18.000000, -155.000000)" fill="#FFFFFF" fill-rule="nonzero">
            <path d="M35.5307692,163.312821 L35.3076923,163.312821 L35.3076923,163.182051 C35.3076923,158.966667 32.2307692,155.905128 28,155.905128 C23.7692308,155.905128 20.6923077,158.966667 20.6923077,163.182051 L20.6923077,163.312821 L20.4692308,163.312821 C19.2923077,163.312821 18.3384615,164.335897 18.3384615,165.589744 L18.3384615,167.44359 C18.3384615,168.697436 19.2923077,169.720513 20.4692308,169.720513 L21.2692308,169.720513 C21.5846154,169.720513 21.8461538,169.458974 21.8461538,169.14359 C21.8461538,169.135897 21.8461538,169.135897 21.8461538,169.128205 C21.8461538,169.120513 21.8461538,169.120513 21.8461538,169.112821 L21.8461538,163.189744 C21.8461538,159.64359 24.4307692,157.066667 28,157.066667 C31.5692308,157.066667 34.1538462,159.64359 34.1538462,163.189744 L34.1538462,169.112821 C34.1538462,169.497436 34.1538462,169.935897 34.1230769,170.005128 C34.1153846,170.012821 34.0307692,170.051282 33.7153846,170.051282 L30.3307692,170.051282 C30.1307692,169.705128 29.7615385,169.474359 29.3384615,169.474359 C28.7,169.474359 28.1846154,169.989744 28.1846154,170.628205 C28.1846154,171.266667 28.7,171.782051 29.3384615,171.782051 C29.7615385,171.782051 30.1307692,171.551282 30.3307692,171.205128 L33.7153846,171.205128 C35,171.205128 35.2384615,170.566667 35.2846154,169.728205 L35.5230769,169.728205 C36.7,169.728205 37.6538924,168.705128 37.6538924,167.451282 L37.6538924,165.589744 C37.6615385,164.328205 36.7076923,163.312821 35.5307692,163.312821 Z M19.4923077,167.435897 L19.4923077,165.589744 C19.4923077,164.974359 19.9307692,164.466667 20.4692308,164.466667 L20.6923077,164.466667 L20.6923077,168.566667 L20.4692308,168.566667 C19.9307692,168.558974 19.4923077,168.058974 19.4923077,167.435897 Z M36.5076923,167.435897 C36.5076923,168.051282 36.0692308,168.558974 35.5307692,168.558974 L35.3076923,168.558974 L35.3076923,164.458974 L35.5307692,164.458974 C36.0692308,164.458974 36.5076923,164.958974 36.5076923,165.582051 L36.5076923,167.435897 Z" id="Shape"></path>
        </g>
    </g>
</svg>