<svg width="21" height="21" viewBox="0 0 21 21" fill="none" xmlns="http://www.w3.org/2000/svg">
<path d="M20.7555 10.4805L18.6415 9.04036C18.2585 8.77945 17.7291 9.04514 17.7291 9.49752V10.3784H7.57886C7.2592 10.3784 7 10.6288 7 10.9377C7 11.2467 7.2592 11.4971 7.57886 11.4971H17.729V12.3778C17.729 12.8332 18.2613 13.0939 18.6414 12.835L20.7554 11.3948C21.0782 11.1751 21.0848 10.7053 20.7555 10.4805Z" fill="white"/>
<path d="M17.7092 14.3545C17.4309 14.1858 17.0747 14.2854 16.9136 14.5771C15.5459 17.0544 12.9892 18.7174 10.0676 18.7174C5.70983 18.7174 2.16452 15.0031 2.16452 10.4375C2.16452 5.87195 5.70983 2.15756 10.0676 2.15756C12.9911 2.15756 15.5467 3.82219 16.9136 6.29785C17.0746 6.58952 17.4309 6.68903 17.7092 6.52047C17.9875 6.35178 18.0826 5.97858 17.9216 5.68695C16.3486 2.83788 13.4106 0.9375 10.0676 0.9375C5.05589 0.9375 1 5.18638 1 10.4375C1 15.6882 5.05547 19.9375 10.0676 19.9375C13.4121 19.9375 16.3493 18.0358 17.9217 15.188C18.0827 14.8963 17.9876 14.5232 17.7092 14.3545Z" fill="white" stroke="white" stroke-width="0.2"/>
</svg>
