<?xml version="1.0" encoding="UTF-8"?>
<svg width="67px" height="56px" viewBox="0 0 67 56" version="1.1" xmlns="http://www.w3.org/2000/svg" xmlns:xlink="http://www.w3.org/1999/xlink">
    <title>Atoms / Brand / logo-header-desk Copy 4</title>
    <g id="Menu-1" stroke="none" stroke-width="1" fill="none" fill-rule="evenodd">
        <g id="main-menu-copy" transform="translate(-112.000000, -554.000000)" fill="#FFDC5D" fill-rule="nonzero">
            <g id="Atoms-/-Brand-/-logo-header-desk-Copy-4" transform="translate(112.272727, 554.000000)">
                <g id="logo-BOLIVAR" transform="translate(0.727273, 0.000000)">
                    <g id="Group" transform="translate(0.000000, 42.661364)">
                        <path d="M64.9210654,12.2536745 C64.3685233,12.1750795 63.7107351,11.5201212 62.8950777,10.3411962 C62.4214702,9.58144457 61.9478627,8.79549461 61.4742552,8.00954464 C62.9477008,7.74756132 63.658112,6.90921469 63.658112,5.62549641 C63.658112,4.83954645 63.2897506,4.21078648 62.6056509,3.84400983 C62.0531088,3.52962984 61.3426975,3.37243985 60.5007286,3.37243985 C60.1586788,3.37243985 59.6587597,3.39863818 59.0009715,3.42483651 C57.5012144,3.47723318 56.2908841,3.42483651 55.8435881,3.37243985 L55.738342,3.37243985 L55.738342,3.6606215 C55.738342,3.6606215 57.2380991,3.89640649 57.2380991,4.3941748 C57.2644106,4.4727698 57.2644106,4.94433978 57.2644106,5.57309975 L57.2644106,10.7603695 C57.2644106,11.2319395 57.2117876,11.5463195 57.1591645,11.7035095 C57.0539184,12.0440878 55.9488342,12.3060711 55.9488342,12.3060711 L55.8962111,12.6466494 L56.0014573,12.6466494 C56.7381801,12.5942528 57.4749028,12.5680544 58.1853141,12.5680544 C58.8957254,12.5680544 59.5798251,12.5942528 60.2376133,12.6466494 L60.3428595,12.6466494 L60.3428595,12.3322694 C60.3428595,12.3322694 59.2640868,11.9916911 58.97466,11.7821045 C58.8167908,11.6773111 58.7904793,11.4153278 58.7904793,11.0223528 C58.7904793,10.9437578 58.7904793,10.7079729 58.7904793,10.4197912 C58.7904793,10.1316095 58.8167908,9.86962622 58.8167908,9.66003957 L58.8167908,8.2191313 L59.7640058,8.2191313 C60.8954016,9.71243623 61.7110589,11.0747495 62.6056509,12.5680544 L62.6319624,12.6204511 C62.6319624,12.6204511 63.4213083,12.5680544 63.7896697,12.5680544 C64.1580311,12.5680544 64.5790155,12.5942528 64.8947539,12.6204511 L65,12.6204511 L65,12.2536745 L64.9210654,12.2536745 Z M59.7376943,7.406983 L58.8167908,7.406983 L58.8167908,4.18458815 C58.8167908,4.18458815 60.1060557,4.15838981 60.1060557,4.15838981 C61.4216321,4.18458815 62.0267973,4.68235646 62.0531088,5.78268641 C62.0531088,6.43764471 61.8163051,6.85681803 61.3690091,7.11880135 C61.0269592,7.30218967 60.4744171,7.406983 59.7376943,7.406983 Z" id="Shape"></path>
                        <path d="M7.05941727,8.35012296 C6.66576946,8.08813964 6.24587847,7.93094964 5.69477155,7.82615632 C6.08841935,7.72136299 6.4033376,7.56417299 6.77074221,7.35458634 C7.37433551,6.96161135 7.68925375,6.30665305 7.68925375,5.78268641 C7.68925375,4.97053811 7.34809232,4.31557981 6.69201265,3.89640649 C6.14090573,3.52962984 5.43233968,3.37243985 4.56631451,3.37243985 C4.56631451,3.37243985 3.8052621,3.39863818 2.33564363,3.42483651 C2.07321176,3.42483651 1.83702308,3.42483651 1.6008344,3.42483651 C0.708566045,3.42483651 0,3.37243985 0,3.37243985 L0,3.68681983 C0,3.68681983 1.3908889,3.87020816 1.49586165,4.52516646 C1.52210484,4.60376146 1.54834803,11.3105345 1.44337528,11.5463195 C1.18094341,12.1226828 0,12.3060711 0,12.3060711 L0,12.6466494 C0,12.6466494 0.866025167,12.5680544 1.83702308,12.5680544 C2.04696858,12.5680544 2.28315726,12.5680544 2.51934594,12.5680544 C4.14642352,12.5942528 4.95996232,12.6204511 4.95996232,12.6204511 C5.7997443,12.6204511 6.50831034,12.4370628 7.08566045,12.0178895 C7.74174013,11.5725178 8.08290155,10.9175595 8.08290155,10.1054112 C8.08290155,9.37185791 7.74174013,8.76929627 7.05941727,8.35012296 Z M2.91299374,5.62549641 C2.91299374,5.18012477 2.91299374,4.76095145 2.93923693,4.18458815 C3.22791198,4.15838981 3.62155979,4.15838981 4.04145078,4.15838981 C5.43233968,4.18458815 6.03593298,4.60376146 6.06217617,5.78268641 C6.06217617,6.88301636 5.40609649,7.328388 3.88399166,7.35458634 L2.91299374,7.35458634 L2.91299374,5.62549641 Z M3.93647803,11.8083028 C3.91023484,11.8083028 3.91023484,11.8083028 3.93647803,11.8083028 C3.91023484,11.8083028 3.91023484,11.8083028 3.91023484,11.8083028 C3.91023484,11.8083028 3.91023484,11.8083028 3.93647803,11.8083028 L3.93647803,11.8083028 C3.88399166,11.8083028 3.56907341,11.7821045 2.96548012,11.7821045 C2.93923693,11.4939228 2.93923693,11.2581378 2.93923693,10.9961545 L2.93923693,8.32392463 L3.83150528,8.32392463 C5.64228518,8.32392463 6.45582397,8.9526846 6.48206716,10.1840062 C6.45582397,11.3891295 5.66852836,11.8083028 3.93647803,11.8083028 Z" id="Shape"></path>
                        <path d="M15.3277617,3.20381786 C13.8961691,3.20381786 12.7296862,3.6502033 11.8813351,4.56923217 C11.0329839,5.48826103 10.6088083,6.6436116 10.6088083,8.08779981 C10.6088083,9.42695616 11.0064729,10.5560488 11.8283131,11.4488197 C12.6766643,12.3678485 13.7636143,12.8404919 15.089163,12.814234 L15.089163,12.814234 C16.5207556,12.814234 17.6607275,12.2890746 18.5090787,11.2650139 C19.3044079,10.3197271 19.7020725,9.11186055 19.7020725,7.66767233 L19.7020725,7.66767233 C19.7020725,6.35477396 19.3044079,5.27819729 18.5355897,4.43794233 C17.7137495,3.6502033 16.6267995,3.20381786 15.3277617,3.20381786 Z M17.9523482,8.37663746 C17.9523482,9.40069819 17.7402604,10.2146952 17.3691068,10.8711444 C16.8919092,11.6326254 16.2026239,12.0264949 15.2482288,12.0264949 C14.1877898,12.0264949 13.4189716,11.5275936 12.9152631,10.4510169 C12.5441094,9.66327787 12.3585326,8.6654751 12.3585326,7.45760859 C12.3585326,6.51232176 12.5971314,5.72458274 13.0478179,5.09439152 C13.5780374,4.38542639 14.2673228,4.04407282 15.1686959,4.04407282 C17.0244641,4.04407282 17.9258372,5.4357451 17.9523482,8.37663746 L17.9523482,8.37663746 Z" id="Shape"></path>
                        <path d="M27.197094,11.6482926 L24.5603231,11.6482926 L24.5603231,5.76324175 C24.5603231,5.05388295 24.5603231,4.68606727 24.5866908,4.50215943 C24.6394262,3.89789082 26.1951211,3.66143788 26.1951211,3.66143788 L26.1951211,3.37243985 C26.1951211,3.37243985 24.5866908,3.47753004 23.8220272,3.47753004 C23.0837313,3.47753004 21.5544041,3.37243985 21.5544041,3.37243985 L21.5544041,3.66143788 C21.5544041,3.66143788 23.0573636,3.92416337 23.0573636,4.47588688 C23.0837313,4.58097708 23.0837313,5.00133785 23.0837313,5.63187901 L23.0837313,10.6236632 C23.0837313,11.1228416 23.110099,11.3592946 23.0046282,11.5694749 C22.7145834,12.1211985 21.5544041,12.2788338 21.5544041,12.2788338 L21.5544041,12.6466494 L21.659875,12.6466494 C22.6354802,12.5941043 23.7165563,12.5678318 24.9031033,12.5678318 C26.0896502,12.5678318 27.381668,12.5941043 28.7527889,12.6466494 L28.831892,12.6466494 L28.9637306,10.1770299 L28.5682149,10.1770299 C28.5682149,10.2033024 28.383641,11.7008377 27.197094,11.6482926 Z" id="Path"></path>
                        <g transform="translate(30.647668, 0.000000)" id="Path">
                            <path d="M4.52822173,0.873768506 L4.52822173,0.873768506 C4.52822173,0.45012317 4.15964554,0.158867001 3.81739622,0.158867001 C3.55412752,0.158867001 3.34351255,0.317734002 3.13289759,0.503078837 L1.18470917,2.78017252 L1.89553468,2.78017252 L4.1069918,1.50923651 C4.39658737,1.32389168 4.52822173,1.11206901 4.52822173,0.873768506 L4.52822173,0.873768506 Z"></path>
                            <path d="M2.29043773,3.46859619 C1.76390032,3.46859619 1.05307482,3.44211836 0.131634352,3.36268486 L0.0263268705,3.36268486 L0.0263268705,3.68041886 C0.0263268705,3.68041886 1.29001665,3.97167503 1.44797788,4.60714303 C1.52695849,4.92487704 1.50063162,5.48091154 1.50063162,6.06342388 C1.50063162,6.06342388 1.55328536,8.23460623 1.52695849,9.37315307 C1.50063162,10.9353452 1.44797788,11.6502468 1.05307482,11.9679808 C0.710825503,12.2592369 -1.00450626e-14,12.3386704 -1.00450626e-14,12.3386704 L-1.00450626e-14,12.7093601 L0.105307482,12.7093601 C0.947767338,12.6299266 1.65859284,12.6034488 2.26411086,12.6034488 C2.7643214,12.6034488 3.47514691,12.6299266 4.34393363,12.7093601 L4.44924111,12.7093601 L4.44924111,12.3386704 C4.44924111,12.3386704 3.76474248,12.2062813 3.39616629,11.9415029 C3.13289759,11.7296803 2.9486095,10.9353452 2.9486095,9.37315307 C2.9486095,9.1613304 2.97493637,6.16933521 2.97493637,6.06342388 C3.00126324,5.48091154 2.97493637,4.92487704 3.02759011,4.60714303 C3.10657072,3.86576369 4.44924111,3.68041886 4.44924111,3.68041886 L4.44924111,3.36268486 L4.34393363,3.36268486 C3.44882004,3.44211836 2.7643214,3.46859619 2.29043773,3.46859619 Z"></path>
                        </g>
                        <path d="M45.7239493,3.71343099 L45.8031088,3.6872009 L45.8031088,3.37243985 L45.6975628,3.39866994 C45.275379,3.45113011 44.8268087,3.4773602 44.3518519,3.4773602 C43.876895,3.4773602 43.3755517,3.45113011 42.8214354,3.39866994 L42.7158895,3.39866994 L42.7158895,3.6872009 L42.7686624,3.71343099 C43.1380733,3.84458143 43.6921896,4.00196195 43.6658031,4.18557257 C43.5074842,5.02493537 41.9770677,8.88075827 41.5812704,9.82504143 C41.291019,9.11682906 39.3384187,4.34295309 39.3384187,4.23803274 C39.3384187,4.23803274 39.2328728,3.97573187 40.3938783,3.71343099 L40.4730378,3.6872009 L40.4730378,3.37243985 C40.4730378,3.37243985 39.1800998,3.45113011 38.546824,3.4773602 C36.9900211,3.4773602 36.5414508,3.37243985 36.5414508,3.37243985 L36.5414508,3.66097081 C36.5414508,3.66097081 37.4649779,3.8970416 37.7288428,4.50033362 C38.6787565,6.65120081 39.7869891,9.4578202 40.9743811,12.7628113 L41.0007676,12.8152714 L41.4493379,12.8152714 L41.4757244,12.7628113 C42.3464786,10.3758733 44.1935329,5.6019973 44.7476492,4.47410353 C44.9323546,4.08065222 45.2489925,3.81835134 45.7239493,3.71343099 Z" id="Path"></path>
                        <path d="M50.4820193,3.08786136 L50.4554766,3.03519586 L49.7919093,3.03519586 L49.7653666,3.08786136 C48.3055187,6.53745155 47.8277503,7.56442878 46.5802439,10.4346985 C46.3944451,10.8560225 46.2882744,11.1720155 46.1024755,11.540674 C45.8635913,12.0146634 44.9611399,12.2779909 44.9611399,12.2779909 L44.9611399,12.6466494 L45.0673107,12.6466494 C45.5981644,12.5939839 46.1290182,12.5676512 46.659872,12.5676512 C47.1907258,12.5676512 47.7481223,12.5939839 48.3055187,12.6466494 L48.4116895,12.6466494 L48.4116895,12.2779909 L47.2172685,11.8303342 C47.6154088,10.803357 47.8808357,10.1450382 48.1197199,9.59205049 L49.6857386,9.59205049 L51.4375561,9.61838324 C51.6764403,10.171371 51.9153245,10.908688 52.2072941,11.8566669 C51.8091537,12.0146634 51.357928,12.1463272 50.9067023,12.2516582 L50.8270742,12.2779909 L50.8270742,12.6466494 L50.933245,12.6466494 C51.5702695,12.5939839 52.2338367,12.5676512 52.9504893,12.5676512 C53.6405993,12.5676512 54.3837946,12.5939839 55.1269899,12.6466494 L55.2331606,12.6466494 L55.2331606,12.2779909 C55.2331606,12.2779909 54.4103373,12.0673289 54.1449104,11.7776687 C53.9325689,11.5670067 53.6405993,10.698026 53.6405993,10.698026 C51.6498976,6.06346206 50.9597877,4.29916784 50.4820193,3.08786136 Z M48.3586041,8.93373175 L49.7653666,5.40514332 L51.1190438,8.93373175 L48.3586041,8.93373175 Z" id="Shape"></path>
                    </g>
                    <path d="M24.1186672,9.72904522 C25.5168034,9.03680757 27.1146733,8.63300227 28.626943,8.63300227 C27.8850748,6.98893784 27.6282743,5.66214901 27.6282743,5.66214901 C27.6282743,5.66214901 25.8021373,5.25834371 25.6880037,4.82569518 C25.6880037,4.82569518 25.7736039,3.29700369 27.5997409,1.85484192 L18.3549223,1.85484192 L18.3549223,15.0073573 C19.0111903,13.3056064 20.6375936,11.4596394 24.1186672,9.72904522 Z M18.5233161,18.3797972 L18.5233161,21.920859 C18.9642016,21.6117187 19.4601978,21.2744747 20.0388601,20.9372307 C19.6530853,20.4875721 18.9366463,19.5601511 18.5233161,18.3797972 Z M32.2568786,11.0052531 C31.8098758,10.5890342 31.2734724,10.311555 30.6476684,10.1173195 C31.1244714,10.8942614 31.7204752,11.6712032 32.4654799,12.3094054 C32.5548805,11.6712032 32.4654799,11.1994885 32.2568786,11.0052531 Z M46.1398964,19.168614 L46.1398964,12.8231022 C45.1247877,12.1627095 43.5006139,11.9330078 41.1803655,12.2775604 C43.1235735,11.4448915 44.8057536,11.1003388 46.1398964,11.1290515 L46.1398964,1.85484192 L30.1301827,1.85484192 C29.2020834,2.34295821 28.3319902,3.08948901 27.6069126,4.20928522 C27.5489064,4.29542339 29.0280647,4.98452874 29.0280647,4.98452874 C29.0280647,4.98452874 29.2890927,6.73600486 30.1591858,8.68847003 C31.4933286,8.91817182 32.6824559,9.521139 33.4655397,10.5835098 C33.6975646,10.8993497 33.9005863,11.7894441 33.6395583,13.0815167 C33.7265677,13.1389421 33.813577,13.1963676 33.9005863,13.253793 C35.6117694,12.7656767 36.8589029,10.9854879 36.8589029,10.9854879 C36.8589029,10.9854879 36.7138874,13.1389421 33.9875956,14.2874511 C33.7845739,14.2013129 33.6105552,14.086462 33.4365366,13.9716111 C32.8564745,15.8379381 31.3773162,18.2498068 28.1289685,20.8339519 C25.7217108,20.0587084 25.2866643,18.651785 25.2866643,18.651785 C26.330776,19.8864321 28.0419592,19.8864321 28.0419592,19.8864321 C30.6232355,17.9052542 31.9573783,15.2349709 32.421428,13.3399312 C31.058282,12.3062732 30.0721765,11.0429133 29.376102,9.83697896 C27.9549499,9.77955351 26.3017729,10.1528189 24.6775991,10.8993497 C16.614736,14.4884401 19.1670092,19.7428685 20.0080992,21.0923664 C20.76218,20.6903883 21.6322731,20.2596975 22.6183786,19.8290066 C20.501152,21.0636537 19.1670092,22.2695881 18.3549223,23.418097 L18.3549223,29.6774707 L37.699993,29.6774707 C41.8184338,25.6289767 44.660738,22.0398863 46.1398964,19.168614 Z M32.3316062,2.86488281 C36.1885159,1.45372657 38.7305699,3.45286458 38.7305699,3.45286458 C38.7305699,3.45286458 36.539144,3.01187825 34.4938131,3.54106184 L32.3316062,2.86488281 Z M22.229275,18.7170412 C22.229275,18.7170412 18.7433716,14.9880862 27.6165803,12.6466494 C21.3650015,15.7396586 22.229275,18.7170412 22.229275,18.7170412 Z M24.1677233,15.3446013 C24.1677233,15.3446013 25.4424122,19.3726183 22.2279793,21.414993 C22.2279793,21.414993 23.7520639,18.7769256 24.1677233,15.3446013 Z M24.477066,29.6774707 L22.2279793,29.6774707 C22.2279793,29.6774707 25.0179856,24.9119537 30.142487,24.1129449 C30.142487,24.1129449 26.3560499,25.3970662 24.477066,29.6774707 Z M31.6575363,18.5795567 C33.5229207,17.035679 35.6797715,17.428666 36.3792907,18.3269222 C37.3994228,19.6462359 36.7290503,21.0778316 35.5048917,22.1164403 C35.5048917,22.1164403 37.0205166,20.5164216 35.8255047,19.0006143 C35.330012,18.3549927 33.7560938,18.0181466 32.3862021,19.1409668 C31.0163104,20.263787 30.2002047,22.6497799 32.7359617,23.6041771 C29.7630052,23.7164591 29.2675124,20.5444921 31.6575363,18.5795567 Z M33.7899777,29.6774707 L31.6580311,29.6774707 C38.9234806,25.8297123 35.9780281,21.752237 35.9780281,21.752237 C35.9780281,21.752237 40.2980251,25.7148538 33.7899777,29.6774707 Z M36.162018,5.56452575 L34.1839378,4.70399557 C37.9039096,4.1082439 38.7305699,5.46523381 38.7305699,5.46523381 C38.7305699,5.46523381 37.9039096,5.20045529 36.162018,5.56452575 Z M38.2957493,6.7448797 C38.5989031,9.68137001 40.7512953,12.4780274 40.7512953,12.4780274 C40.7512953,12.4780274 38.6292185,11.387331 37.96228,9.7932363 C37.2650262,8.14320842 38.2957493,6.7448797 38.2957493,6.7448797 Z M39.0673575,29.6774707 L45.8031088,29.6774707 L45.8031088,22.932591 C44.1753022,25.0565105 41.9300518,27.3239382 39.0673575,29.6774707 Z M38.0569948,1.85484192 C38.0569948,1.85484192 34.8253478,-1.22444261 30.1798553,0.552067693 C29.1699657,0.936978259 28.3909079,1.38110584 27.7849741,1.85484192 L30.1798553,1.85484192 C33.7000422,-0.0993194185 38.0569948,1.85484192 38.0569948,1.85484192 Z M18.5233161,23.5275766 L18.5233161,22.258103 C11.7033679,26.6025236 18.5233161,29.6774707 18.5233161,29.6774707 C18.5233161,29.6774707 15.8519078,26.9410499 18.5233161,23.5275766 Z M32.3316062,34.2302645 C34.8684476,32.721977 37.113698,31.1857582 39.0673575,29.6774707 L37.5802436,29.6774707 C36.0348115,31.1578269 34.2852657,32.6661145 32.3316062,34.2302645 Z M45.8031088,11.2976735 L45.8031088,12.9760601 C47.438641,14.0286077 47.408904,16.2474917 45.8031088,19.2628982 L45.8031088,22.932591 C51.2747073,16.3612806 50.6502314,11.4114624 45.8031088,11.2976735 Z M18.3549223,18.3797972 L18.3549223,14.8387353 C17.832278,16.1523551 17.9859969,17.351747 18.3549223,18.3797972 Z" id="Shape"></path>
                    <path d="M22.7435411,40.9444856 C22.7170133,40.9444856 21.1784016,40.9176594 21.0988182,40.9176594 C21.0722904,40.4347873 21.0722904,40.1933513 21.0722904,40.0592202 L21.0722904,39.2276072 L21.7620129,39.2276072 C21.8681241,39.2276072 21.9742352,39.2276072 22.1068742,39.2276072 C22.2395131,39.2276072 22.4517354,39.2276072 22.4782632,39.2276072 C22.6374299,39.2276072 22.8496522,39.3617383 22.9557634,39.8714366 L22.9557634,39.8982628 L23.0884023,39.8982628 L23.0884023,39.8446104 C23.0884023,39.5495219 23.0884023,39.2544334 23.0884023,38.9861711 C23.0884023,38.7179089 23.0884023,38.4228204 23.0884023,38.1813843 L23.0884023,38.1277319 L22.9557634,38.1277319 L22.9557634,38.1545581 C22.87618,38.5837777 22.6639577,38.7447351 22.504791,38.7447351 C22.4782632,38.7447351 22.2395131,38.7447351 22.1068742,38.7447351 C21.9742352,38.7447351 21.8681241,38.7447351 21.7620129,38.7447351 L21.0722904,38.7447351 L21.0722904,37.9936008 C21.0722904,37.8594696 21.0722904,37.6448598 21.0988182,37.2692926 L22.0538186,37.2692926 C22.1334019,37.2692926 22.2395131,37.2692926 22.372152,37.2692926 C22.4782632,37.2692926 22.6374299,37.2692926 22.6639577,37.2692926 C22.8231244,37.2692926 23.1149301,37.3229451 23.1945135,37.9131221 L23.1945135,37.9399483 L23.3271524,37.9399483 L23.3271524,37.8862958 C23.3271524,37.7789909 23.3271524,37.6985123 23.3271524,37.5912074 C23.3271524,37.3497713 23.3271524,37.0815091 23.3536802,36.8132468 L23.3536802,36.7595944 L23.3006246,36.7595944 C22.6904855,36.7864206 22.0538186,36.8132468 21.4171517,36.8132468 C20.7804848,36.8132468 20.1703457,36.7864206 19.5867343,36.7595944 L19.5336788,36.7595944 L19.5336788,36.9205517 C19.5336788,36.9205517 20.2764568,37.0278566 20.3029846,37.2961189 C20.3029846,37.3497713 20.3029846,37.5912074 20.3029846,37.9131221 C20.3029846,37.9131221 20.3560402,39.3349121 20.3029846,40.2201775 C20.2764568,40.515266 20.3295124,40.8908332 20.249929,40.9981381 C20.0907623,41.2664003 19.5336788,41.3200528 19.5336788,41.3200528 L19.5336788,41.4810101 L19.5867343,41.4810101 C20.3029846,41.4273577 21.0457627,41.4273577 21.629374,41.4273577 C22.2395131,41.4273577 22.7965966,41.4541839 23.3271524,41.4810101 L23.380208,41.4810101 L23.380208,41.4273577 C23.380208,41.0517905 23.380208,40.6493971 23.4067358,40.2470037 L23.4067358,40.1933513 L23.2740968,40.1933513 C23.2740968,40.1933513 23.1679857,40.9444856 22.7435411,40.9444856 Z M28.1860044,39.2759533 C27.870631,39.2759533 27.4501333,39.2500115 27.13476,39.2500115 L27.0821977,39.2500115 L27.0821977,39.3797207 C27.0821977,39.3797207 27.8180688,39.4834881 27.8180688,39.8207321 L27.8180688,40.6508711 L27.8180688,40.8843477 C27.6341011,40.9621732 27.4501333,40.9881151 27.2136033,41.0140569 C26.6354189,41.0399988 26.18864,40.8584059 25.95211,40.5471037 C25.6367366,40.157976 25.5053311,39.665081 25.5053311,39.1462441 C25.47905,38.6274072 25.6367366,38.160454 25.9258289,37.7972682 C26.2149211,37.4340823 26.6879811,37.2784313 27.2924466,37.2524894 C27.6866633,37.2524894 27.8443499,37.3043731 27.9757555,37.4081405 C28.107161,37.5378497 28.2648477,38.0566866 28.2648477,38.0566866 L28.3962533,38.0566866 L28.3962533,38.0048029 C28.3962533,37.7972682 28.3699721,37.6156752 28.3699721,37.4340823 C28.3699721,37.2524894 28.3699721,37.0708965 28.3962533,36.8893036 L28.3962533,36.8633617 L28.3699721,36.8633617 C28.0545988,36.811478 27.7129444,36.7595944 27.3712899,36.7595944 C26.6354189,36.7595944 25.9258289,37.0190128 25.4527689,37.4081405 C24.9008656,37.9010355 24.5854922,38.4717561 24.5854922,39.1981278 C24.5854922,39.9244994 24.8483033,40.49522 25.3739255,40.9102896 C25.8469855,41.2994172 26.4514511,41.4810101 27.1873222,41.4810101 C27.6603822,41.4810101 28.1597233,41.4031846 28.5539399,41.2734754 L28.6065021,41.2475335 L28.6065021,41.2215917 C28.6065021,41.0399988 28.580221,40.5211619 28.580221,39.7947902 C28.580221,39.4056625 29.1321244,39.327837 29.1321244,39.327837 L29.1321244,39.1981278 L29.0795621,39.1981278 C28.7641888,39.2759533 28.5013777,39.2759533 28.1860044,39.2759533 Z M18.1251637,39.4038113 C17.8466801,39.092727 17.1378128,38.7816426 16.8340125,38.6261005 C16.4795789,38.4187109 16.3023621,38.1853976 16.3023621,37.9261607 C16.3023621,37.7187711 16.4289455,37.3558394 16.8340125,37.2521446 C16.9099626,37.2262209 17.4162964,37.0966024 17.69478,37.3299157 C17.9226302,37.5113815 17.9226302,38.0298555 17.9226302,38.0298555 L18.0492136,38.0298555 L18.099847,36.9929076 C18.099847,36.9929076 17.6441466,36.7595944 17.0618627,36.7595944 C16.6567957,36.7595944 16.3023621,36.8632891 16.0238785,37.0706787 C15.6947615,37.303992 15.3909612,37.6928474 15.5934947,38.3668635 C15.7453949,38.8853374 16.6567957,39.351964 16.960596,39.5075061 C17.7200967,39.8963616 17.5428799,40.4926066 17.5428799,40.4926066 C17.4669298,40.7518435 17.2390796,40.9073857 16.960596,40.9851568 C16.7833792,41.0370042 16.0491952,41.0370042 15.9479284,40.8555383 C15.8719783,40.7259198 15.7960283,40.02598 15.7960283,40.02598 L15.6188114,40.0778274 L15.492228,41.2703175 C15.492228,41.2703175 15.897295,41.4517833 16.5302123,41.477707 C17.0112294,41.5036307 17.4162964,41.3740122 17.7454134,41.1925464 C18.1504804,40.9592331 18.3783306,40.5963014 18.3530139,40.1296748 C18.3276972,39.6371246 18.1251637,39.4038113 18.1251637,39.4038113 Z M43.4544587,36.7595944 C42.7365694,36.7595944 42.1516226,36.9917951 41.7262067,37.4303966 C41.3007908,37.8689981 41.0880829,38.4624 41.0880829,39.1590024 C41.0880829,39.8040045 41.3007908,40.3716064 41.6996182,40.8102079 C42.1250341,41.2488094 42.6568039,41.4810101 43.3481047,41.4810101 L43.3481047,41.4810101 C44.065994,41.4810101 44.6243523,41.2230093 45.0497682,40.7328076 C45.4485956,40.2684061 45.634715,39.6750041 45.634715,38.9784018 C45.634715,38.3333996 45.4485956,37.8173979 45.0497682,37.4045965 C44.6509408,36.965995 44.119171,36.7595944 43.4544587,36.7595944 Z M44.7927461,39.3066739 C44.7927461,39.8125399 44.6910744,40.2385323 44.5131489,40.5580266 C44.2843875,40.9573945 43.9539544,41.1437662 43.4964317,41.1437662 C42.9880731,41.1437662 42.6322221,40.8775209 42.3780428,40.3450304 C42.2001173,39.9456625 42.0984456,39.4397965 42.0984456,38.8274325 C42.0984456,38.348191 42.2001173,37.9488231 42.4288787,37.6293288 C42.683058,37.28321 43.0134911,37.0968383 43.4455959,37.0968383 C44.3606413,37.1234629 44.7927461,37.8157005 44.7927461,39.3066739 L44.7927461,39.3066739 Z M33.946616,36.8117647 C33.6429837,36.8117647 33.3393514,36.7856795 33.0610218,36.7595944 L33.0104164,36.7595944 L33.0104164,36.9161054 C33.0104164,36.9161054 33.5670756,36.9943609 33.6429837,37.2552126 C33.6935891,37.5421495 33.7188918,37.933427 33.7188918,38.4029601 C33.7188918,38.5594711 33.7188918,40.2028368 33.4658649,40.541944 C33.288746,40.7767105 33.0104164,40.9332216 32.6561787,40.9332216 C32.1754275,40.9332216 31.8970979,40.8027957 31.7199791,40.5680292 C31.2645306,39.9941554 31.4922548,37.5943198 31.4922548,37.4117236 C31.4922548,37.0726164 32.2007302,36.9421905 32.2007302,36.9421905 L32.2007302,36.7856795 L32.1501248,36.7856795 C31.7958871,36.8117647 31.4416494,36.8378499 31.062109,36.8378499 C30.7078714,36.8378499 30.3536337,36.8117647 30.0246986,36.7856795 L29.9740933,36.7856795 L29.9740933,36.9421905 C29.9740933,36.9421905 30.733174,37.0987016 30.733174,37.4899791 C30.733174,37.620405 30.6066606,38.9246635 30.6319633,39.472452 C30.6319633,40.072411 30.733174,40.541944 30.9608983,40.8549661 C31.2392279,41.2723288 31.8717952,41.4810101 32.5296652,41.4810101 C33.2381406,41.4810101 33.7441945,41.2201584 34.0225241,40.7245402 C34.1996429,40.385433 34.275551,39.8637296 34.275551,39.15943 C34.275551,39.1333448 34.275551,39.0811745 34.275551,39.0550893 C34.275551,38.5333859 34.275551,38.1160232 34.275551,37.8290863 C34.275551,37.5421495 34.275551,37.3856384 34.275551,37.3334681 C34.3008537,36.9943609 34.857513,36.9421905 34.857513,36.9421905 L34.857513,36.7856795 L34.8069076,36.7856795 C34.5285779,36.7856795 34.2249456,36.8117647 33.946616,36.8117647 Z M37.8057844,38.7830583 L37.3834197,38.7830583 L37.3834197,37.2654603 L37.9548543,37.2654603 L37.9796993,37.2654603 C38.6008239,37.2654603 38.8989637,37.5142469 38.8989637,38.0366986 C38.8989637,38.3601211 38.7995838,38.5591504 38.5759789,38.658665 C38.426909,38.733301 38.1536142,38.7830583 37.8057844,38.7830583 Z M39.3161211,40.3073249 C39.0750118,39.9072049 38.8339025,39.5070849 38.5927932,39.1336396 C39.342911,39.0002663 39.6911799,38.5734716 39.6911799,37.906605 C39.6911799,37.506485 39.5036505,37.186389 39.1553815,36.9996663 C38.8874823,36.8396183 38.5124235,36.7595944 38.0837847,36.7595944 C37.9230452,36.7595944 37.655146,36.7595944 37.333667,36.786269 C37.0121879,36.786269 36.663919,36.8129437 36.5031795,36.8129437 C36.2352803,36.8129437 35.9673811,36.8129437 35.7530617,36.786269 L35.6994819,36.786269 L35.6994819,36.946317 C35.6994819,36.946317 36.3960198,36.9996663 36.4763895,37.3197623 C36.4763895,37.3731117 36.5031795,37.5598343 36.5031795,37.8799303 L36.5031795,40.4940475 C36.5031795,40.7341195 36.4763895,40.9475168 36.4495996,41.0008662 C36.3960198,41.2142635 35.8334315,41.2942875 35.8334315,41.2942875 L35.7530617,41.4810101 L35.8066415,41.4810101 C36.1817004,41.4543355 36.5567593,41.4276608 36.9050283,41.4276608 C37.2532972,41.4276608 37.6015662,41.4543355 37.9498351,41.4810101 L38.003415,41.4810101 L38.003415,41.3476368 C38.003415,41.3476368 37.4944065,41.2142635 37.333667,41.0542155 C37.2532972,41.0008662 37.2265073,40.9208422 37.2265073,40.7074448 C37.2265073,40.6807702 37.2265073,40.5207222 37.2265073,40.3606742 C37.2265073,40.2006262 37.2265073,40.0939275 37.2265073,39.9872289 L37.2265073,39.2670129 L37.7087259,39.2670129 C38.2713142,40.0139035 38.6999529,40.7341195 39.1553815,41.4810101 L39.1821715,41.4810101 L39.2089614,41.4810101 C39.3964908,41.4543355 39.5840203,41.4543355 39.7715497,41.4543355 C39.9590791,41.4543355 40.1733985,41.4543355 40.3609279,41.4810101 L40.4145078,41.4810101 L40.4145078,41.2942875 L40.3877179,41.2942875 C40.0662388,41.2409382 39.7179699,40.9208422 39.3161211,40.3073249 Z M49.3721629,39.472452 L49.3468293,39.4985372 L49.3721629,39.472452 C49.3468293,39.4463669 49.3468293,39.4463669 49.3214957,39.4202817 L49.3214957,39.4202817 C49.1948278,39.2637707 49.0428264,39.15943 48.9161585,39.0811745 C48.6374891,38.9246635 48.3841533,38.8203228 48.0801504,38.6638118 C47.7254803,38.4551304 47.5481453,38.2203639 47.5481453,37.9595122 C47.5481453,37.7508308 47.624146,37.5682346 47.7761475,37.4117236 C47.801481,37.3856384 47.8268146,37.3595533 47.8521482,37.3595533 C47.8521482,37.3595533 47.8521482,37.3595533 47.8774818,37.3595533 C47.9281489,37.3073829 48.0041497,37.3073829 48.0801504,37.2812978 C48.1561511,37.2552126 48.2574854,37.2291274 48.4094869,37.2291274 C48.4854876,37.2291274 48.586822,37.2291274 48.6881563,37.2552126 C48.764157,37.2552126 48.8654913,37.2812978 48.9668256,37.3073829 L49.2201614,38.0377677 L49.3468293,38.0377677 L49.3974964,36.9943609 L49.3721629,36.9943609 C49.0428264,36.8378499 48.7134898,36.7595944 48.3588198,36.7595944 C47.9534825,36.7595944 47.5988124,36.863935 47.3201431,37.0726164 C46.9908065,37.3073829 46.8388051,37.6464901 46.8388051,38.0638529 C46.8388051,38.1942787 46.8641387,38.3247046 46.9148058,38.4290452 C47.0668073,38.7681525 47.3454766,39.002919 47.4974781,39.0811745 C47.5228117,39.0811745 47.5481453,39.1072597 47.5481453,39.1072597 L47.5481453,39.1072597 L47.5734788,39.1072597 C47.8268146,39.2637707 48.0548168,39.4202817 48.3334862,39.5767927 C48.6881563,39.7854741 48.8654913,40.0202406 48.8654913,40.2810923 C48.8654913,40.3593478 48.8654913,40.4636885 48.8401577,40.541944 L48.8401577,40.541944 C48.7134898,40.9853919 48.2321519,41.0114771 48.2321519,41.0114771 C48.105484,41.0375622 48.0041497,41.0375622 47.9028154,41.0375622 C47.5228117,41.0375622 47.2441423,40.8810512 47.2441423,40.8810512 L47.1174744,40.0463258 L46.965473,40.072411 L46.9401394,40.072411 L46.8134715,41.2723288 L46.8388051,41.2723288 C47.1681416,41.4027546 47.4974781,41.4810101 47.8521482,41.4810101 C48.3334862,41.4810101 48.7388234,41.3766695 49.0681599,41.1940733 C49.4734972,40.9593067 49.6761658,40.5941144 49.6761658,40.1245813 C49.5748315,39.8898148 49.4988308,39.6550482 49.3721629,39.472452 Z" id="Shape"></path>
                </g>
            </g>
        </g>
    </g>
</svg>