<svg width="56" height="56" viewBox="0 0 56 56" fill="none" xmlns="http://www.w3.org/2000/svg">
<path fill-rule="evenodd" clip-rule="evenodd" d="M8.17563 13C8.17563 13 5.37381 50.6741 38.9956 50.6741C39.3531 50.7989 16.735 64.2751 4.50986 39C-3.42862 22.2884 8.17563 13 8.17563 13Z" fill="#FFDC5D"/>
<path fill-rule="evenodd" clip-rule="evenodd" d="M0 27.55C0 42.775 12.325 55.1 27.55 55.1C42.775 55.1 55.1 42.775 55.1 27.55C55.1 12.325 42.775 0 27.55 0C12.325 0 0 12.325 0 27.55ZM3.38333 27.55C3.38333 14.2583 14.2583 3.38333 27.55 3.38333C40.8417 3.38333 51.7167 14.2583 51.7167 27.55C51.7167 40.8417 40.8417 51.7167 27.55 51.7167C14.2583 51.7167 3.38333 40.8417 3.38333 27.55Z" fill="#016D38"/>
<path d="M45.6158 27.3145L42.2939 25.1543C41.692 24.7629 40.8601 25.1615 40.8601 25.84V27.1613H24.9096C24.4073 27.1613 24 27.5369 24 28.0003C24 28.4637 24.4073 28.8393 24.9096 28.8393H40.8599V30.1605C40.8599 30.8436 41.6963 31.2347 42.2937 30.8463L45.6156 28.686C46.1229 28.3563 46.1332 27.6517 45.6158 27.3145Z" fill="#016D38"/>
<path d="M40.5552 33.7723C40.1297 33.5239 39.5848 33.6706 39.3385 34.1004C37.2467 37.7512 33.3364 40.202 28.868 40.202C22.2033 40.202 16.781 34.7282 16.781 28C16.781 21.2718 22.2033 15.798 28.868 15.798C33.3394 15.798 37.2479 18.2511 39.3384 21.8995C39.5847 22.3293 40.1297 22.4759 40.5552 22.2275C40.9809 21.9789 41.1263 21.429 40.8802 20.9992C38.4743 16.8006 33.981 14 28.868 14C21.2031 14 15 20.2615 15 28C15 35.7378 21.2025 42 28.868 42C33.9832 42 38.4754 39.1975 40.8802 35.0007C41.1264 34.5709 40.981 34.021 40.5552 33.7723Z" fill="#016D38"/>
</svg>
