<?xml version="1.0" encoding="UTF-8"?>
<svg width="27px" height="24px" viewBox="0 0 27 24" version="1.1" xmlns="http://www.w3.org/2000/svg" xmlns:xlink="http://www.w3.org/1999/xlink">
    <title>icon / yellow / heart-frecuency</title>
    <defs>
        <linearGradient x1="100%" y1="83.1880667%" x2="0%" y2="16.6974805%" id="linearGradient-1">
            <stop stop-color="#083E16" offset="0%"></stop>
            <stop stop-color="#128C31" offset="100%"></stop>
        </linearGradient>
    </defs>
    <g id="Menu-1" stroke="none" stroke-width="1" fill="none" fill-rule="evenodd">
        <g id="Cuerpo" transform="translate(-33.000000, -1007.000000)">
            <g id="Group-12" transform="translate(18.000000, 993.000000)">
                <g id="Group" transform="translate(14.000000, 12.000000)">
                    <g id="ritmo-cardiaco" transform="translate(0.000000, 2.333333)">
                        <path d="M14.9333333,15.05 C14.9333333,15.05 14.9333333,15.05 14.9333333,15.05 C14.5833333,15.05 14.35,14.8166667 14.2333333,14.5833333 L11.4333333,7.23333333 L9.1,10.5 C8.98333333,10.7333333 8.75,10.85 8.51666667,10.85 L3.15,10.9666667 C2.68333333,10.9666667 2.33333333,10.6166667 2.33333333,10.2666667 C2.33333333,9.8 2.68333333,9.45 3.03333333,9.45 L8.05,9.33333333 L11.0833333,5.25 C11.2,5.01666667 11.55,4.9 11.7833333,4.9 C12.0166667,4.9 12.25,5.13333333 12.3666667,5.36666667 L15.1666667,12.7166667 L18.6666667,7.81666667 C18.7833333,7.58333333 19.1333333,7.46666667 19.3666667,7.46666667 C19.6,7.46666667 19.8333333,7.7 19.95,7.93333333 L21.5833333,12.7166667 L26.3666667,12.7166667 C26.8333333,12.7166667 27.1833333,13.0666667 27.1833333,13.5333333 C27.1833333,14 26.8333333,14.35 26.3666667,14.35 L21,14.35 C20.65,14.35 20.4166667,14.1166667 20.3,13.8833333 L19.0166667,10.0333333 L15.5166667,14.8166667 C15.4,14.9333333 15.1666667,15.05 14.9333333,15.05 Z" id="Path-Copy" fill="#FFDC5D"></path>
                        <path d="M5.95,13.3 L13.7666667,21.1166667 L18.0833333,16.8 C18.4333333,16.45 18.9,16.45 19.1333333,16.8 C19.4833333,17.15 19.4833333,17.6166667 19.1333333,17.85 L14.2333333,22.75 C14.35,22.8666667 14.1166667,22.9833333 13.8833333,22.9833333 C13.65,22.9833333 13.5333333,22.8666667 13.3,22.75 L4.9,14.35 C4.55,14 4.55,13.5333333 4.9,13.3 C5.25,12.95 5.71666667,12.95 5.95,13.3 Z M10.6166667,6.06666667 C10.85,6.06666667 11.0833333,6.3 11.2,6.53333333 L14,13.8833333 L17.5,8.98333333 C17.6166667,8.75 17.9666667,8.63333333 18.2,8.63333333 C18.4333333,8.63333333 18.6666667,8.86666667 18.7833333,9.1 L20.4166667,13.8833333 L25.2,13.8833333 C25.6666667,13.8833333 26.0166667,14.2333333 26.0166667,14.7 C26.0166667,15.1666667 25.6666667,15.5166667 25.2,15.5166667 L19.8333333,15.5166667 C19.4833333,15.5166667 19.25,15.2833333 19.1333333,15.05 L17.85,11.2 L14.35,15.9833333 C14.2527778,16.0805556 14.074537,16.1777778 13.8827932,16.2074846 L13.7666667,16.2166667 L13.7666667,16.2166667 C13.4166667,16.2166667 13.1833333,15.9833333 13.0666667,15.75 L10.2666667,8.4 L7.93333333,11.6666667 C7.81666667,11.9 7.58333333,12.0166667 7.35,12.0166667 L1.98333333,12.1333333 C1.51666667,12.1333333 1.16666667,11.7833333 1.16666667,11.4333333 C1.16666667,10.9666667 1.51666667,10.6166667 1.86666667,10.6166667 L6.88333333,10.5 L9.91666667,6.41666667 C10.0333333,6.18333333 10.3833333,6.06666667 10.6166667,6.06666667 Z M24.9666667,2.33333333 C27.65,5.01666667 27.65,9.45 24.9666667,12.1333333 C24.85,12.3666667 24.6166667,12.4833333 24.5,12.4833333 C24.2666667,12.4833333 24.15,12.3666667 23.9166667,12.25 C23.5666667,11.9 23.5666667,11.4333333 23.9166667,11.2 C26.0166667,9.1 26.0166667,5.71666667 23.9166667,3.5 C22.8666667,2.45 21.5833333,1.86666667 20.0666667,1.86666667 C18.6666667,1.86666667 17.2666667,2.45 16.3333333,3.5 L14.4666667,5.36666667 C14.1166667,5.71666667 13.65,5.71666667 13.4166667,5.36666667 L11.7833333,3.73333333 C10.7333333,2.56666667 9.33333333,2.1 7.93333333,2.1 C6.53333333,2.1 5.13333333,2.68333333 4.08333333,3.73333333 C2.91666667,4.78333333 2.33333333,6.53333333 2.56666667,8.16666667 C2.56666667,8.63333333 2.33333333,8.98333333 1.86666667,8.98333333 C1.4,8.98333333 1.05,8.75 1.05,8.28333333 C0.7,6.06666667 1.51666667,3.96666667 3.03333333,2.45 C4.31666667,1.16666667 6.06666667,0.466666667 7.93333333,0.466666667 C9.8,0.466666667 11.55,1.16666667 12.8333333,2.45 L13.8833333,3.5 L15.1666667,2.33333333 C17.85,-0.35 22.2833333,-0.35 24.9666667,2.33333333 Z" id="Combined-Shape" fill="url(#linearGradient-1)"></path>
                    </g>
                </g>
            </g>
        </g>
    </g>
</svg>