<?xml version="1.0" encoding="UTF-8"?>
<svg width="28px" height="28px" viewBox="0 0 28 28" version="1.1" xmlns="http://www.w3.org/2000/svg" xmlns:xlink="http://www.w3.org/1999/xlink">
    <title>strong</title>
    <defs>
        <filter id="filter-1">
            <feColorMatrix in="SourceGraphic" type="matrix" values="0 0 0 0 0.003922 0 0 0 0 0.427451 0 0 0 0 0.219608 0 0 0 1.000000 0"></feColorMatrix>
        </filter>
    </defs>
    <g id="Menu-1" stroke="none" stroke-width="1" fill="none" fill-rule="evenodd">
        <g id="Cuerpo" transform="translate(-32.000000, -432.000000)">
            <g id="Group-11-Copy" transform="translate(18.000000, 423.000000)">
                <g id="strong" transform="translate(14.000000, 9.000000)">
                    <g id="Group-18" transform="translate(0.043469, 0.783070)">
                        <path d="M6.95653091,20.2169305 C12.1181216,17.5502638 17.1181216,17.5502638 21.9565309,20.2169305" id="Path-3" stroke="#FFDC5D" stroke-width="2"></path>
                        <g id="user-1" transform="translate(0.956531, 0.216930)" filter="url(#filter-1)">
                            <g transform="translate(0.000000, 1.083333)">
                                <path d="M25.4583333,22.425 C23.6166667,18.85 20.2583333,16.3583333 16.25,15.4916667 C18.9583333,14.1916667 20.8,11.4833333 20.8,8.23333333 C20.8,3.79166667 17.3333333,0.216666667 13,0.216666667 C8.66666667,0.216666667 5.2,3.79166667 5.2,8.23333333 C5.2,11.4833333 7.04166667,14.1916667 9.75,15.4916667 C5.74166667,16.3583333 2.38333333,18.85 0.541666667,22.425 C0.325,22.75 0.541666667,23.2916667 0.866666667,23.4 C0.975,23.5083333 1.08333333,23.5083333 1.19166667,23.5083333 C1.51666667,23.5083333 1.73333333,23.4 1.84166667,23.075 C3.9,19.0666667 8.125,16.575 13,16.575 C17.875,16.575 22.1,19.0666667 24.1583333,23.075 C24.375,23.4 24.8083333,23.6166667 25.1333333,23.4 C25.5666667,23.2916667 25.675,22.8583333 25.4583333,22.425 Z M6.71666667,8.23333333 C6.71666667,4.65833333 9.53333333,1.73333333 13,1.73333333 C16.4666667,1.73333333 19.2833333,4.65833333 19.2833333,8.23333333 C19.2833333,11.8083333 16.4666667,14.7333333 13,14.7333333 C9.53333333,14.7333333 6.71666667,11.8083333 6.71666667,8.23333333 Z" id="Shape" fill="#000000" fill-rule="nonzero"></path>
                            </g>
                        </g>
                    </g>
                </g>
            </g>
        </g>
    </g>
</svg>