<?xml version="1.0" encoding="UTF-8"?>
<svg width="27px" height="28px" viewBox="0 0 27 28" version="1.1" xmlns="http://www.w3.org/2000/svg" xmlns:xlink="http://www.w3.org/1999/xlink">
    <title>strong</title>
    <g id="Menu-1" stroke="none" stroke-width="1" fill="none" fill-rule="evenodd">
        <g id="Cuerpo" transform="translate(-31.000000, -691.000000)">
            <g id="Group-11" transform="translate(18.000000, 680.000000)">
                <g id="strong" transform="translate(13.000000, 11.000000)">
                    <path d="M22.6163523,1.75120546 C22.1987365,1.00928553 21.4022179,0.548387097 20.5375559,0.548387097 L13.5506394,0.548387097 C12.2419375,0.548387097 11.1772228,1.61293592 11.1772228,2.92143397 L11.1772228,6.08549647 C11.1772228,7.39399452 12.2419375,8.45854335 13.5506394,8.45854335 L18.2974726,8.45854335 C18.7337065,8.45854335 19.0886114,8.81339296 19.0886114,9.24955897 L19.0886114,15.4634086 C16.8074416,14.8398773 14.4028015,14.7628324 12.0912519,15.2329594 C10.3300186,13.5479379 7.8355578,12.8624437 5.34457799,13.485184 C2.85396738,14.1078187 0.786932516,16.1399379 0.195318878,18.6692894 C-0.31343615,20.8450043 0.182555171,23.086057 1.55628868,24.8177484 C2.93281755,26.5530785 4.97854441,27.5483871 7.16878597,27.5483871 C17.4965763,27.5483871 24.645729,23.6246332 26.5626584,22.6660805 C26.8306963,22.5320824 27,22.2581801 27,21.9585433 L27,18.5270121 C27,12.6464965 25.4841252,6.84550428 22.6163523,1.75120546 Z M25.417775,21.4711195 C22.8475231,22.7655375 16.3410389,25.9663558 7.16878597,25.9663558 C5.4644619,25.9663558 3.87063356,25.1893676 2.79589779,23.8345687 C1.72416835,22.483514 1.33782887,20.7321 1.73603543,19.0294125 C2.18339808,17.1163148 3.78782769,15.505016 5.72833308,15.0198598 C7.32158125,14.6215043 8.91889061,14.8939301 10.2087107,15.7451156 C9.59183332,15.9570551 8.98655935,16.2102855 8.39726639,16.5048598 C8.00644379,16.7002406 7.84805779,17.1753773 8.04346909,17.566139 C8.23882764,17.956848 8.71403838,18.1152621 9.10486098,17.9198812 C12.8629288,16.0411664 17.3500574,16.0411137 21.1082307,17.9198812 C21.4996862,18.1156312 21.9745805,17.9561625 22.1696226,17.566139 C22.3650339,17.1753773 22.2066479,16.7002406 21.8158253,16.5048598 C21.4403508,16.3171254 21.0582307,16.1465297 20.6708891,15.9923344 L20.6708891,9.24955897 C20.6708891,7.94106092 19.6061745,6.8765121 18.2974726,6.8765121 L17.5063337,6.8765121 L17.5063337,4.50346522 C17.5063337,4.06661366 17.1521145,3.7124496 16.7151949,3.7124496 L15.1329171,3.7124496 C14.6959975,3.7124496 14.3417783,4.06661366 14.3417783,4.50346522 C14.3417783,4.94031678 14.6959975,5.29448085 15.1329171,5.29448085 L15.924056,5.29448085 L15.924056,6.8765121 L13.5506394,6.8765121 C13.1144055,6.8765121 12.7595006,6.52166249 12.7595006,6.08549647 L12.7595006,2.92143397 C12.7595006,2.48526796 13.1144055,2.13041835 13.5506394,2.13041835 L20.5376086,2.13041835 C20.8315431,2.13041835 21.0997391,2.28245155 21.2375555,2.52713905 C23.9723116,7.38508241 25.417775,12.9177094 25.417775,18.5270121 L25.417775,21.4711195 L25.417775,21.4711195 Z" id="Shape" fill="#016D38" fill-rule="nonzero"></path>
                    <path d="M8.04346909,17.566139 C12.9043639,15.188713 17.6130817,15.188713 22.1696226,17.566139" id="Path-3" stroke="#FFDC5D" stroke-width="2"></path>
                </g>
            </g>
        </g>
    </g>
</svg>