<?xml version="1.0" encoding="UTF-8"?>
<svg width="25px" height="27px" viewBox="0 0 25 27" version="1.1" xmlns="http://www.w3.org/2000/svg" xmlns:xlink="http://www.w3.org/1999/xlink">
    <title>blood-drop</title>
    <g id="Menu-1" stroke="none" stroke-width="1" fill="none" fill-rule="evenodd">
        <g id="Cuerpo" transform="translate(-34.000000, -1260.000000)" fill-rule="nonzero">
            <g id="Group-13" transform="translate(18.000000, 1247.000000)">
                <g id="blood-drop" transform="translate(16.000000, 13.000000)">
                    <path d="M10.9363184,6.80535623 C10.5393698,6.31965558 10.193675,5.9305086 9.90876285,5.64873825 C9.50380763,5.24823515 9.1687131,5 8.75005638,5 C8.33139967,5 7.99630514,5.24823515 7.59134992,5.64868493 C7.30643781,5.93045529 6.96068657,6.31960227 6.56379436,6.80535623 C5.72591708,7.83060578 4.78609619,9.1295751 3.91743284,10.462826 C2.54773466,12.5651474 0.25,16.4648811 0.25,18.9627473 C0.25,23.3945124 4.06307463,27 8.75,27 C13.4369254,27 17.25,23.3945124 17.25,18.9627473 C17.25,16.4649344 14.9522653,12.5651474 13.5825672,10.462826 C12.7139602,9.1295751 11.7741393,7.8306591 10.9363184,6.80535623 L10.9363184,6.80535623 Z M8.75005638,25.4005467 C4.99584743,25.4005467 1.94159867,22.5125739 1.94159867,18.9627473 C1.94159867,17.4981812 3.09534328,14.8475673 5.10703814,11.6907263 C6.61786733,9.31985673 8.06971808,7.51535354 8.75005638,6.81569936 C9.43033831,7.51530022 10.8822454,9.31980341 12.3930746,11.6907263 C14.4047695,14.8476206 15.5585141,17.4981812 15.5585141,18.9627473 C15.5585141,22.5125739 12.504209,25.4005467 8.75005638,25.4005467 Z" id="Shape" fill="#0D6423"></path>
                    <path d="M22.2068214,2.97210947 C21.7298712,2.27820235 21.2130365,1.60121729 20.7515236,1.06588371 C20.0386521,0.23906903 19.701843,0 19.2499713,0 C18.7980996,0 18.4612905,0.23906903 17.7484764,1.06588371 C17.2869635,1.60121729 16.7701288,2.27815092 16.2931786,2.97210947 C15.3610856,4.32818842 14.25,6.21780073 14.25,7.51869013 C14.25,9.98972161 16.493003,12 19.2499713,12 C22.006997,12 24.25,9.98967017 24.25,7.51869013 C24.25,6.2177493 23.1389144,4.32818842 22.2068214,2.97210947 L22.2068214,2.97210947 Z M19.2499713,10.4569555 C17.4422549,10.4569555 15.9716346,9.13883543 15.9716346,7.51869013 C15.9716346,6.85569533 16.5703044,5.56133816 17.5730992,4.05614968 C18.2107926,3.09894773 18.8394188,2.31009194 19.2500287,1.84975033 C19.6606386,2.31014337 20.2892647,3.09899916 20.9269582,4.05614968 C21.929753,5.56133816 22.5284228,6.85569533 22.5284228,7.51869013 C22.5284228,9.13883543 21.0576877,10.4569555 19.2499713,10.4569555 L19.2499713,10.4569555 Z" id="Shape" fill="#FFDC5D"></path>
                </g>
            </g>
        </g>
    </g>
</svg>