<?xml version="1.0" encoding="UTF-8"?>
<svg width="30px" height="24px" viewBox="0 0 30 24" version="1.1" xmlns="http://www.w3.org/2000/svg" xmlns:xlink="http://www.w3.org/1999/xlink">
    <title>Group</title>
    <g id="Menu-1" stroke="none" stroke-width="1" fill="none" fill-rule="evenodd">
        <g id="Cuerpo" transform="translate(-34.000000, -1697.000000)">
            <g id="Group-3" transform="translate(18.000000, 1682.000000)">
                <g id="Group" transform="translate(16.933333, 15.000000)">
                    <line x1="19.5666667" y1="15.5" x2="27.347553" y2="15.3101152" id="Path-20" stroke="#FFDC5D" stroke-linecap="round"></line>
                    <g id="Group-14" transform="translate(0.000000, -0.000000)" fill="#0D6423" fill-rule="nonzero">
                        <path d="M24.9773856,7.82564525 C26.0724419,7.05066537 26.7913709,5.75565882 26.7913709,4.29183266 C26.7913709,1.92529979 24.9124251,0 22.6029183,0 C20.293357,0 18.4144658,1.92529979 18.4144658,4.29183266 C18.4144658,5.75571442 19.1333947,7.05072098 20.228451,7.82564525 C19.2499527,8.22800977 18.4297378,8.94894068 17.8922182,9.86176766 C17.5086185,9.08639854 16.8782126,8.45871878 16.1069225,8.08665949 C16.8784853,7.45942458 17.3741159,6.49071364 17.3741159,5.40561948 C17.3741159,3.51913262 15.8759882,1.98435329 14.0345679,1.98435329 C12.1931476,1.98435329 10.6950744,3.51913262 10.6950744,5.40561948 C10.6950744,6.49071364 11.1907051,7.45942458 11.9622678,8.08665949 C11.1909778,8.45871878 10.5605718,9.08639854 10.1769721,9.86176766 C9.63939805,8.94899629 8.81923761,8.22806538 7.84073934,7.82564525 C8.93579562,7.05066537 9.65472459,5.75565882 9.65472459,4.29183266 C9.65472459,1.92529979 7.77577884,0 5.46627204,0 C3.15676524,0 1.27781949,1.92529979 1.27781949,4.29183266 C1.27781949,5.75571442 1.99674846,7.05072098 3.09180474,7.82564525 C1.32303549,8.55297084 0.0716049383,10.3211283 0.0716049383,12.3816617 L0.0716049383,15.1295956 C0.0716049383,15.4367072 0.315793162,15.685655 0.617033179,15.685655 L7.72903564,15.685655 C7.71081834,15.8548082 7.70143697,16.0272978 7.70143697,16.2025677 C7.70143697,20.5493946 13.5502276,23.4536369 13.7992156,23.5751358 C13.8727939,23.6110016 13.9532446,23.6296296 14.034677,23.6296296 C14.0401313,23.6296296 14.0455856,23.6296296 14.0510398,23.6296296 L14.076784,23.6286287 C14.1530349,23.6262933 14.2279768,23.6076653 14.2967553,23.5739681 C14.5446524,23.4524691 20.3676443,20.5488386 20.3676443,16.2026233 C20.3676443,16.0273534 20.3582629,15.8548638 20.3400456,15.6857106 L20.4978926,15.6857106 C20.7991326,15.6857106 21.0433208,15.4367628 21.0433208,15.1296512 C21.0433208,14.8225397 20.7991326,14.5735919 20.4978926,14.5735919 L20.0778583,14.5735919 C19.7334749,13.6549263 19.1029598,12.9064149 18.2991622,12.4498902 L18.2991622,12.3817173 C18.2991622,10.2874867 19.9704089,8.58366531 22.0246007,8.58366531 L23.1812904,8.58366531 C25.2354823,8.58366531 26.9067289,10.2874867 26.9067289,12.3817173 L26.9067289,14.5735919 L25.4293274,14.5735919 C25.1280874,14.5735919 24.8838992,14.8225397 24.8838992,15.1296512 C24.8838992,15.4367628 25.1280874,15.6857106 25.4293274,15.6857106 L27.4521026,15.6857106 C27.7533426,15.6857106 27.9975309,15.4367628 27.9975309,15.1296512 L27.9975309,12.3817173 C27.9975309,10.3211283 26.7461003,8.55297084 24.9773856,7.82564525 Z M14.0345679,3.09641633 C15.2744899,3.09641633 16.2832595,4.13229924 16.2832595,5.40556387 C16.2832595,6.6788285 15.2744899,7.71471141 14.0345679,7.71471141 C12.7946459,7.71471141 11.7859309,6.6788285 11.7859309,5.40556387 C11.7859309,4.13229924 12.7946459,3.09641633 14.0345679,3.09641633 Z M13.5910257,8.82683005 L14.4781647,8.82683005 C15.9836012,8.82683005 17.2083603,10.0754613 17.2083603,11.6102406 L17.2083603,12.0393516 C16.9614449,11.9885834 16.7056391,11.9620593 16.4430154,11.9620593 C15.5330774,11.9620593 14.7100262,12.273953 14.0345679,12.8696593 C13.493994,12.393895 12.7059047,11.9620593 11.626284,11.9620593 C11.3636603,11.9620593 11.1078545,11.9885834 10.8609391,12.0393516 L10.8609391,11.6102406 C10.8608301,10.0754613 12.0855892,8.82683005 13.5910257,8.82683005 L13.5910257,8.82683005 Z M2.36862143,4.29183266 C2.36862143,2.53852201 3.75820896,1.11211864 5.4662175,1.11211864 C7.17422603,1.11211864 8.56381356,2.53852201 8.56381356,4.29183266 C8.56381356,6.0451433 7.17422603,7.47154667 5.4662175,7.47154667 C3.75815442,7.47154667 2.36862143,6.0450877 2.36862143,4.29183266 Z M1.16246142,14.5735363 L1.16246142,12.3816617 C1.16246142,10.2874311 2.83370809,8.58360971 4.88789993,8.58360971 L6.0445896,8.58360971 C8.09878144,8.58360971 9.77002812,10.2874311 9.77002812,12.3816617 L9.77002812,12.4498346 C8.96623052,12.9063593 8.33571547,13.6548707 7.99133208,14.5735363 L1.16246142,14.5735363 Z M19.2768424,16.2025677 C19.2768424,19.4219287 15.0701725,21.8997847 14.0464037,22.4548987 C13.0161988,21.898617 8.79234799,19.420483 8.79234799,16.2025677 C8.79234799,14.4483118 10.0371243,13.074178 11.6262295,13.074178 C12.610782,13.074178 13.2556964,13.5876431 13.6232605,14.0184779 C13.7282554,14.1414782 13.8810299,14.2080385 14.0416585,14.208539 C14.2005417,14.206704 14.3515163,14.1333598 14.453784,14.0094697 C14.458802,14.0041316 14.4637108,13.9987378 14.4685652,13.9932328 C14.9992123,13.3834582 15.6635439,13.074178 16.4430154,13.074178 C18.0320115,13.074178 19.2768424,14.4483118 19.2768424,16.2025677 L19.2768424,16.2025677 Z M19.5053222,4.29183266 C19.5053222,2.53852201 20.8949098,1.11211864 22.6029183,1.11211864 C24.3109268,1.11211864 25.7005144,2.53852201 25.7005144,4.29183266 C25.7005144,6.0451433 24.3109268,7.47154667 22.6029183,7.47154667 C20.8949098,7.47154667 19.5053222,6.0450877 19.5053222,4.29183266 Z" id="Shape"></path>
                    </g>
                </g>
            </g>
        </g>
    </g>
</svg>