<?xml version="1.0" encoding="UTF-8" standalone="no"?>
<svg
   xmlns:dc="http://purl.org/dc/elements/1.1/"
   xmlns:cc="http://creativecommons.org/ns#"
   xmlns:rdf="http://www.w3.org/1999/02/22-rdf-syntax-ns#"
   xmlns:svg="http://www.w3.org/2000/svg"
   xmlns="http://www.w3.org/2000/svg"
   viewBox="0 0 74.666664 74.666664"
   height="74.666664"
   width="74.666664"
   xml:space="preserve"
   id="svg2"
   version="1.1"><metadata
     id="metadata8"><rdf:RDF><cc:Work
         rdf:about=""><dc:format>image/svg+xml</dc:format><dc:type
           rdf:resource="http://purl.org/dc/dcmitype/StillImage" /></cc:Work></rdf:RDF></metadata><defs
     id="defs6"><clipPath
       id="clipPath20"
       clipPathUnits="userSpaceOnUse"><path
         style="clip-rule:evenodd"
         id="path18"
         d="M 81.7578,430 C 63.0781,178.84 165.813,53.2578 389.957,53.2578 393.531,52.0117 167.352,-82.75 45.0977,170 -7.82422,281.41 4.39453,368.078 81.7578,430 Z" /></clipPath><clipPath
       id="clipPath26"
       clipPathUnits="userSpaceOnUse"><path
         id="path24"
         d="M 0,0 H 560 V 560 H 0 Z" /></clipPath><clipPath
       id="clipPath36"
       clipPathUnits="userSpaceOnUse"><path
         id="path34"
         d="m 187.617,332.594 v -150.02 c 0,-8.867 3.313,-17.191 9.098,-23.168 5.762,-5.992 13.777,-9.39 22.164,-9.406 h 117.359 c 8.391,0.016 16.407,3.414 22.164,9.406 5.786,5.977 9.098,14.301 9.098,23.168 v 150.02 c 11.504,3 18.957,13.906 17.418,25.492 -1.539,11.582 -11.594,20.246 -23.496,20.25 h -31.758 v 7.609 c 0.035,6.403 -2.543,12.547 -7.156,17.071 -4.617,4.519 -10.887,7.035 -17.41,6.984 H 250.02 c -6.52,0.051 -12.793,-2.465 -17.407,-6.984 -4.617,-4.524 -7.195,-10.668 -7.16,-17.071 v -7.609 h -31.758 c -11.902,-0.004 -21.953,-8.668 -23.496,-20.25 -1.539,-11.586 5.918,-22.492 17.418,-25.492 z M 336.238,162.18 H 218.879 c -10.606,0 -18.856,8.941 -18.856,20.394 V 332.059 H 355.098 V 182.574 c 0,-11.453 -8.254,-20.394 -18.86,-20.394 z m -98.379,223.765 c -0.039,3.172 1.231,6.223 3.524,8.461 2.289,2.239 5.406,3.469 8.637,3.414 h 55.078 c 3.234,0.055 6.351,-1.175 8.64,-3.414 2.293,-2.234 3.563,-5.289 3.52,-8.461 v -7.609 h -79.399 z m -44.164,-19.789 h 167.727 c 6.168,0 11.164,-4.906 11.164,-10.957 0,-6.054 -4.996,-10.961 -11.164,-10.961 H 193.695 c -6.164,0 -11.164,4.907 -11.164,10.961 0,6.051 5,10.957 11.164,10.957 z" /></clipPath><clipPath
       id="clipPath42"
       clipPathUnits="userSpaceOnUse"><path
         id="path40"
         d="M 0,0 H 560 V 560 H 0 Z" /></clipPath><clipPath
       id="clipPath54"
       clipPathUnits="userSpaceOnUse"><path
         id="path52"
         d="m 313.793,310 c -2.762,0 -5,-2.582 -5,-5.766 V 195.289 c 0,-3.184 2.238,-5.766 5,-5.766 2.762,0 5,2.582 5,5.766 v 108.945 c 0,3.184 -2.238,5.766 -5,5.766 z" /></clipPath><clipPath
       id="clipPath60"
       clipPathUnits="userSpaceOnUse"><path
         id="path58"
         d="M 0,0 H 560 V 560 H 0 Z" /></clipPath><clipPath
       id="clipPath70"
       clipPathUnits="userSpaceOnUse"><path
         id="path68"
         d="m 239.055,310 c -2.762,0 -5,-2.582 -5,-5.766 V 195.289 c 0,-3.184 2.238,-5.766 5,-5.766 2.761,0 5,2.582 5,5.766 v 108.945 c 0,3.184 -2.239,5.766 -5,5.766 z" /></clipPath><clipPath
       id="clipPath76"
       clipPathUnits="userSpaceOnUse"><path
         id="path74"
         d="M 0,0 H 560 V 560 H 0 Z" /></clipPath><clipPath
       id="clipPath86"
       clipPathUnits="userSpaceOnUse"><path
         id="path84"
         d="m 273.793,310 c -2.762,0 -5,-2.582 -5,-5.766 V 195.289 c 0,-3.184 2.238,-5.766 5,-5.766 2.762,0 5,2.582 5,5.766 v 108.945 c 0,3.184 -2.238,5.766 -5,5.766 z" /></clipPath><clipPath
       id="clipPath92"
       clipPathUnits="userSpaceOnUse"><path
         id="path90"
         d="M 0,0 H 560 V 560 H 0 Z" /></clipPath><clipPath
       id="clipPath102"
       clipPathUnits="userSpaceOnUse"><path
         id="path100"
         d="M 275.5,9 C 123.25,9 0,132.25 0,284.5 0,436.75 123.25,560 275.5,560 427.75,560 551,436.75 551,284.5 551,132.25 427.75,9 275.5,9 Z m 0,517.168 C 142.582,526.168 33.832,417.418 33.832,284.5 33.832,151.582 142.582,42.832 275.5,42.832 c 132.918,0 241.668,108.75 241.668,241.668 0,132.918 -108.75,241.668 -241.668,241.668 z" /></clipPath><clipPath
       id="clipPath108"
       clipPathUnits="userSpaceOnUse"><path
         id="path106"
         d="M 0,0 H 560 V 560 H 0 Z" /></clipPath></defs><g
     transform="matrix(1.3333333,0,0,-1.3333333,0,74.666667)"
     id="g10"><g
       transform="scale(0.1)"
       id="g12"><g
         id="g14"><g
           clip-path="url(#clipPath20)"
           id="g16"><g
             clip-path="url(#clipPath26)"
             id="g22"><path
               id="path28"
               style="fill:#ffdd58;fill-opacity:1;fill-rule:nonzero;stroke:none"
               d="M 0,0 H 440 V 480 H 0 Z" /></g></g></g><g
         id="g30"><g
           clip-path="url(#clipPath36)"
           id="g32"><g
             clip-path="url(#clipPath42)"
             id="g38"><path
               id="path44"
               style="fill:#046c36;fill-opacity:1;fill-rule:nonzero;stroke:none"
               d="M 120,100 H 435.117 V 460 H 120 Z" /></g></g></g><path
         id="path46"
         style="fill:none;stroke:#046c36;stroke-width:4;stroke-linecap:butt;stroke-linejoin:miter;stroke-miterlimit:10;stroke-dasharray:none;stroke-opacity:1"
         d="m 187.617,332.594 v -150.02 c 0,-8.867 3.313,-17.191 9.098,-23.168 5.762,-5.992 13.777,-9.39 22.164,-9.406 h 117.359 c 8.391,0.016 16.407,3.414 22.164,9.406 5.786,5.977 9.098,14.301 9.098,23.168 v 150.02 c 11.504,3 18.957,13.906 17.418,25.492 -1.539,11.582 -11.594,20.246 -23.496,20.25 h -31.758 v 7.609 c 0.035,6.403 -2.543,12.547 -7.156,17.071 -4.617,4.519 -10.887,7.035 -17.41,6.984 H 250.02 c -6.52,0.051 -12.793,-2.465 -17.407,-6.984 -4.617,-4.524 -7.195,-10.668 -7.16,-17.071 v -7.609 h -31.758 c -11.902,-0.004 -21.953,-8.668 -23.496,-20.25 -1.539,-11.586 5.918,-22.492 17.418,-25.492 z M 336.238,162.18 H 218.879 c -10.606,0 -18.856,8.941 -18.856,20.394 V 332.059 H 355.098 V 182.574 c 0,-11.453 -8.254,-20.394 -18.86,-20.394 z m -98.379,223.765 c -0.039,3.172 1.231,6.223 3.524,8.461 2.289,2.239 5.406,3.469 8.637,3.414 h 55.078 c 3.234,0.055 6.351,-1.175 8.64,-3.414 2.293,-2.234 3.563,-5.289 3.52,-8.461 v -7.609 h -79.399 z m -44.164,-19.789 h 167.727 c 6.168,0 11.164,-4.906 11.164,-10.957 0,-6.054 -4.996,-10.961 -11.164,-10.961 H 193.695 c -6.164,0 -11.164,4.907 -11.164,10.961 0,6.051 5,10.957 11.164,10.957 z" /><g
         id="g48"><g
           clip-path="url(#clipPath54)"
           id="g50"><g
             clip-path="url(#clipPath60)"
             id="g56"><path
               id="path62"
               style="fill:#046c36;fill-opacity:1;fill-rule:nonzero;stroke:none"
               d="m 258.793,139.523 h 110 V 360 h -110 z" /></g></g></g><g
         id="g64"><g
           clip-path="url(#clipPath70)"
           id="g66"><g
             clip-path="url(#clipPath76)"
             id="g72"><path
               id="path78"
               style="fill:#046c36;fill-opacity:1;fill-rule:nonzero;stroke:none"
               d="m 184.055,139.523 h 110 V 360 h -110 z" /></g></g></g><g
         id="g80"><g
           clip-path="url(#clipPath86)"
           id="g82"><g
             clip-path="url(#clipPath92)"
             id="g88"><path
               id="path94"
               style="fill:#046c36;fill-opacity:1;fill-rule:nonzero;stroke:none"
               d="m 218.793,139.523 h 110 V 360 h -110 z" /></g></g></g><g
         id="g96"><g
           clip-path="url(#clipPath102)"
           id="g98"><g
             clip-path="url(#clipPath108)"
             id="g104"><path
               id="path110"
               style="fill:#046c36;fill-opacity:1;fill-rule:nonzero;stroke:none"
               d="M 0,0 H 601 V 610 H 0 Z" /></g></g></g></g></g></svg>