<?xml version="1.0" encoding="UTF-8"?>
<svg width="22px" height="19px" viewBox="0 0 22 19" version="1.1" xmlns="http://www.w3.org/2000/svg" xmlns:xlink="http://www.w3.org/1999/xlink">
    <title>atoms / icons / filled / favorite-heart copy 4</title>
    <defs>
        <filter id="filter-1">
            <feColorMatrix in="SourceGraphic" type="matrix" values="0 0 0 0 0.003922 0 0 0 0 0.427451 0 0 0 0 0.219608 0 0 0 1.000000 0"></feColorMatrix>
        </filter>
    </defs>
    <g id="Green-Button" stroke="none" stroke-width="1" fill="none" fill-rule="evenodd">
        <g id="mvp-home-" transform="translate(-275.000000, -600.000000)">
            <g id="heart" transform="translate(274.000000, 597.000000)" fill="#016D38">
                <g transform="translate(1.000000, 3.000000)">
                    <path d="M18.809608,10.5593156 L10.6756204,17.4048739 L3.02670765,10.3942077 C0.948071834,8.48904558 0.773804181,5.2125704 2.63954601,3.08909894 C3.6393393,1.95352327 5.02449765,1.37472824 6.41504573,1.37472824 C7.62054671,1.37472824 8.82964084,1.81042973 9.79440094,2.69375716 L10.5256065,3.36427882 C10.7726353,3.59176086 11.1463227,3.60093353 11.404131,3.38262415 L12.3626031,2.57634708 C14.5175933,0.761077092 17.7181894,1.0766167 19.4941026,3.27713853 C20.3555597,4.34300195 20.7588905,5.68771434 20.6286389,7.0626965 C20.4983873,8.43859594 19.8534173,9.68057449 18.809608,10.5593156 M20.5352171,2.40114922 C18.2850084,-0.383671238 14.2346329,-0.781764807 11.5056374,1.51415272 L10.9936139,1.94526787 L10.6944844,1.67008799 C8.066097,-0.738653292 4.00134891,-0.515757583 1.63615958,2.16999811 C-0.724538319,4.85758834 -0.504458036,9.00638377 2.12662421,11.4187941 L10.2067146,18.8238849 C10.3351696,18.9403777 10.495963,19 10.6567563,19 C10.8085668,19 10.9603773,18.9477158 11.0852392,18.8431475 L19.6665737,11.62151 C20.9870554,10.5079487 21.806293,8.93575427 21.9697812,7.19478285 C22.1341677,5.45289416 21.6239407,3.7513652 20.5352171,2.40114922" id="shape"></path>
                </g>
            </g>
        </g>
    </g>
</svg>