<?xml version="1.0" encoding="UTF-8"?>
<svg width="25px" height="21px" viewBox="0 0 25 21" version="1.1" xmlns="http://www.w3.org/2000/svg" xmlns:xlink="http://www.w3.org/1999/xlink">
    <title>icon / filled / home</title>
    <g id="Green-Button" stroke="none" stroke-width="1" fill="none" fill-rule="evenodd">
        <g id="mvp-home-" transform="translate(-62.000000, -599.000000)" fill="#016D38">
            <g id="icon-/-filled-/-home" transform="translate(62.000000, 597.000000)">
                <path d="M19.3880781,21.184 L15.8620781,21.184 L15.8620781,16.218 C15.8620781,15.804 15.5260781,15.468 15.1120781,15.468 L9.3670781,15.468 C8.9520781,15.468 8.6170781,15.804 8.6170781,16.218 L8.6170781,21.184 L5.0900781,21.184 L5.0900781,9.526 L12.2390781,3.717 L19.3880781,9.526 L19.3880781,21.184 Z M24.2010781,11.503 L12.7120781,2.168 C12.4360781,1.944 12.0420781,1.944 11.7660781,2.168 L0.277078095,11.503 C-0.0449219046,11.764 -0.0929219046,12.237 0.168078095,12.558 C0.428078095,12.878 0.900078095,12.929 1.2230781,12.667 L3.5900781,10.745 L3.5900781,21.934 C3.5900781,22.348 3.9260781,22.684 4.3400781,22.684 L9.3670781,22.684 C9.7810781,22.684 10.1170781,22.348 10.1170781,21.934 L10.1170781,16.968 L14.3620781,16.968 L14.3620781,21.934 C14.3620781,22.348 14.6980781,22.684 15.1120781,22.684 L20.1380781,22.684 C20.5520781,22.684 20.8880781,22.348 20.8880781,21.934 L20.8880781,10.745 L23.2550781,12.667 C23.3940781,12.781 23.5620781,12.835 23.7280781,12.835 C23.9460781,12.835 24.1620781,12.741 24.3100781,12.558 C24.5720781,12.237 24.5230781,11.764 24.2010781,11.503 L24.2010781,11.503 Z" id="home"></path>
            </g>
        </g>
    </g>
</svg>