<?xml version="1.0" encoding="UTF-8"?>
<svg width="46px" height="46px" viewBox="0 0 46 46" version="1.1" xmlns="http://www.w3.org/2000/svg" xmlns:xlink="http://www.w3.org/1999/xlink">
    <title>Group 2</title>
    <g id="Menu-1" stroke="none" stroke-width="1" fill="none" fill-rule="evenodd">
        <g id="Legal" transform="translate(-73.000000, -194.000000)">
            <g id="Group-2" transform="translate(73.000000, 194.000000)">
                <g id="terms-and-conditions" fill="#05571B">
                    <path d="M39.5046296,6.13333333 C39.9162863,6.13333333 40.25,5.79008497 40.25,5.36666667 L40.25,3.83333333 C40.2476894,1.717227 38.5804738,0.00237661135 36.5231481,0 L9.68981481,0 C7.63248921,0.00237661135 5.96527356,1.717227 5.96296296,3.83333333 L5.96296296,38.3333333 L7.4537037,38.3333333 L7.4537037,3.83333333 C7.45514129,2.5636914 8.45544071,1.534812 9.68981481,1.53333333 L33.5434369,1.53333333 C33.0577159,2.19595898 32.7954005,3.00347138 32.7962963,3.83333333 L32.7962963,42.1666667 C32.7962963,43.4369216 31.7951553,44.4666667 30.5601852,44.4666667 C29.3252151,44.4666667 28.3240741,43.4369216 28.3240741,42.1666667 L28.3240741,40.6333333 C28.3240741,40.209915 27.9903604,39.8666667 27.5787037,39.8666667 L0.74537037,39.8666667 C0.333713682,39.8666667 0,40.209915 0,40.6333333 L0,42.1666667 C0.00231059436,44.282773 1.66952625,45.9976234 3.72685185,46 L30.5601852,46 C32.6175108,45.9976234 34.2847264,44.282773 34.287037,42.1666667 L34.287037,6.13333333 L39.5046296,6.13333333 Z M3.72685185,44.4666667 C2.49245649,44.4652407 1.4921271,43.4363305 1.49074074,42.1666667 L1.49074074,41.4 L26.8333333,41.4 L26.8333333,42.1666667 C26.8324375,42.9965286 27.0947529,43.804041 27.580474,44.4666667 L3.72685185,44.4666667 Z M36.5231481,1.53333333 C37.7575223,1.534812 38.7578217,2.5636914 38.7592593,3.83333333 L38.7592593,4.6 L34.287037,4.6 L34.287037,3.83333333 C34.2884746,2.5636914 35.288774,1.534812 36.5231481,1.53333333 Z" id="Shape"></path>
                    <path d="M43.6041667,12.6143723 L42.8055556,12.6143723 C42.8055556,10.9403757 41.3753541,9.58333333 39.6111111,9.58333333 C37.8468682,9.58333333 36.4166667,10.9403757 36.4166667,12.6143723 L36.4166667,36.8626841 C36.4166667,36.9803054 36.4458147,37.096279 36.5016189,37.201308 L36.50102,37.201308 L38.8968533,41.7478665 C39.0321482,42.0045399 39.3086531,42.1666667 39.6111111,42.1666667 C39.9135691,42.1666667 40.190074,42.0045399 40.3253689,41.7478665 L42.7212023,37.201308 L42.7206033,37.201308 C42.7764075,37.096279 42.8055024,36.9803054 42.8055556,36.8626841 L42.8055556,14.1298918 L43.6041667,14.1298918 C44.0450222,14.1303616 44.4022827,14.4693471 44.4027778,14.8876515 L44.4027778,23.2230087 L46,23.2230087 L46,14.8876515 C45.9984597,13.63276 44.9267104,12.6158338 43.6041667,12.6143723 L43.6041667,12.6143723 Z M39.6111111,11.0988528 C40.4927993,11.0998445 41.2072882,11.7777851 41.2083333,12.6143723 L38.0138889,12.6143723 C38.014934,11.7777851 38.7294229,11.0998445 39.6111111,11.0988528 L39.6111111,11.0988528 Z M41.2083333,36.1049244 L38.0138889,36.1049244 L38.0138889,24.7385282 L41.2083333,24.7385282 L41.2083333,36.1049244 Z M41.2083333,23.2230087 L38.0138889,23.2230087 L38.0138889,21.7074892 L41.2083333,21.7074892 L41.2083333,23.2230087 Z M39.6111111,39.7147971 L38.5074306,37.6204439 L40.7147917,37.6204439 L39.6111111,39.7147971 Z M41.2083333,20.1919697 L38.0138889,20.1919697 L38.0138889,14.1298918 L41.2083333,14.1298918 L41.2083333,20.1919697 Z" id="Shape"></path>
                </g>
                <path d="M11.0956565,2.54185276 C9.51838593,2.38442864 8.64933784,2.63948547 8.48851226,3.30702325 C8.32768668,3.97456103 8.27871088,4.68015271 8.34158486,5.4237983 C8.31655601,5.54211776 8.31655601,7.9900043 8.34158486,12.7674579 C8.3666137,17.5449115 8.4155895,24.6386697 8.48851226,34.0487324 L8.48851226,38.3478935" id="Path-8" stroke="#FFDC5D" stroke-width="2" stroke-linecap="round"></path>
            </g>
        </g>
    </g>
</svg>