<?xml version="1.0" encoding="UTF-8"?>
<svg width="23px" height="23px" viewBox="0 0 23 23" version="1.1" xmlns="http://www.w3.org/2000/svg" xmlns:xlink="http://www.w3.org/1999/xlink">
    <title>Group 14</title>
    <g id="Home" stroke="none" stroke-width="1" fill="none" fill-rule="evenodd">
        <g id="Covid-amarillo-expandido--lite" transform="translate(-243.000000, -783.000000)">
            <g id="Group-14" transform="translate(243.000000, 783.000000)">
                <path d="M3.75,15.8559019 L8.35204692,16.8393054 L9.94620611,16.0409043 L9.5,14.7473054 L1.5,12.9406942 L0.75,13.5204143 L0.346595317,14.2866464 L0.346595317,21.762966 L1.5,22.2355279 L2.25,21.762966 L2.6708411,20.8613212 L2.6708411,18.8508243 L7.0219355,21.762966 L10.6277485,22.9999863 C10.1733869,22.2608126 9.94620611,21.7243061 9.94620611,21.390467 C9.94620611,21.0566279 10.1733869,20.7088082 10.6277485,20.347008 L7.50456717,19.5263553 L5.48717191,18.4811218 L3.75,15.8559019 Z" id="Path-10" fill="#FFDC5D"></path>
                <g id="processing" fill="#016D38" fill-rule="nonzero">
                    <path d="M9.5,3 C8.67157812,3 8,2.32842188 8,1.5 C8,0.671578125 8.67157812,0 9.5,0 C10.3284219,0 11,0.671578125 11,1.5 C10.9990625,2.328 10.3280469,2.9990625 9.5,3 Z M9.5,0.75 C9.08576563,0.75 8.75,1.08576562 8.75,1.5 C8.75,1.91423437 9.08576563,2.25 9.5,2.25 C9.91423437,2.25 10.25,1.91423437 10.25,1.5 C10.2495313,1.08595313 9.914,0.75046875 9.5,0.75 Z" id="Shape"></path>
                    <path d="M1.5,10 C0.671578125,10 0,9.32842188 0,8.5 C0,7.67157812 0.671578125,7 1.5,7 C2.32842188,7 3,7.67157812 3,8.5 C2.9990625,9.328 2.32804688,9.9990625 1.5,10 Z M1.5,7.75 C1.08576562,7.75 0.75,8.08576563 0.75,8.5 C0.75,8.91423437 1.08576562,9.25 1.5,9.25 C1.91423437,9.25 2.25,8.91423437 2.25,8.5 C2.24953125,8.08595312 1.914,7.75046875 1.5,7.75 Z" id="Shape"></path>
                    <path d="M4.5,5 C3.67157812,5 3,4.32842188 3,3.5 C3,2.67157812 3.67157812,2 4.5,2 C5.32842188,2 6,2.67157812 6,3.5 C5.9990625,4.328 5.32804688,4.9990625 4.5,5 Z M4.5,2.75 C4.08576562,2.75 3.75,3.08576562 3.75,3.5 C3.75,3.91423437 4.08576562,4.25 4.5,4.25 C4.91423437,4.25 5.25,3.91423437 5.25,3.5 C5.24953125,3.08595313 4.914,2.75046875 4.5,2.75 Z" id="Shape"></path>
                    <path d="M11.3055216,22.9999863 C8.21823753,23.0047155 5.25516365,21.7845298 3.0669178,19.607225 L3.0669178,21.0836261 C3.0669178,21.9303159 2.3803595,22.6167032 1.5334589,22.6167032 C0.686558302,22.6167032 0,21.9303159 0,21.0836261 L0,14.1850665 C0,13.3383768 0.686606222,12.6520373 1.53355474,12.6520852 C1.64535348,12.6520852 1.75686469,12.6643019 1.86597988,12.6885437 L8.76654493,14.2216208 C9.59480442,14.398308 10.1229372,15.212851 9.94620611,16.0409043 C9.76947497,16.8689576 8.95472909,17.3969589 8.1264696,17.2202718 C8.1180835,17.2184992 8.10969739,17.2166307 8.10131129,17.2146665 L4.3229644,16.375163 C4.81525263,17.0521603 5.40242363,17.6548033 6.06641133,18.1645994 C7.56872185,19.3179525 9.41141232,19.9401901 11.3055216,19.9338183 C16.0638445,19.9338183 19.9349657,16.0680206 19.9349657,11.3162002 C19.9413391,9.41489707 19.3120459,7.56600607 18.1470485,6.06320722 C17.007401,4.58891402 15.4238171,3.52002391 13.6301015,3.01430009 C12.8120491,2.79516588 12.3265656,1.95451262 12.5458023,1.13666389 C12.765039,0.318815154 13.6058537,-0.166547481 14.4239061,0.0526346391 C14.4337298,0.0552696154 14.4435535,0.058000409 14.4533773,0.06082702 C16.8844847,0.74548968 19.0309438,2.19348102 20.5759515,4.1910326 C24.51143,9.30633605 23.5539287,16.6426371 18.4373993,20.5770879 C16.3926277,22.1494022 13.885087,23.0012661 11.3055216,22.9999863 L11.3055216,22.9999863 Z M2.68355308,18.2446068 C2.79616646,18.2446068 2.90302938,18.2940965 2.97586868,18.3799488 C6.88139681,22.9800904 13.7775532,23.5439754 18.3788404,19.6394196 C20.8234135,17.5649746 22.233381,14.5218644 22.2352109,11.3162002 C22.2429651,8.90658619 21.4451831,6.56351735 19.9685101,4.65910021 C18.5249023,2.79229136 16.519186,1.43906335 14.2474146,0.799099471 C13.8385082,0.689149096 13.4178612,0.931471099 13.3078835,1.34027569 C13.1992954,1.74390616 13.4342021,2.16008869 13.8359204,2.27588392 C15.78902,2.82630651 17.5133466,3.98995995 18.7542982,5.5950917 C20.0231396,7.23179525 20.7085478,9.24544414 20.7016952,11.3162002 C20.7016952,16.4906708 16.4866,20.7003568 11.3055216,20.7003568 C9.24297144,20.7072078 7.23648839,20.029444 5.60071903,18.7734226 C4.61235685,18.0138787 3.7825639,17.0679222 3.15835029,15.989115 C3.05254162,15.8057686 3.11541344,15.5713994 3.29880554,15.4655692 C3.38189984,15.4176605 3.47989745,15.4025693 3.57353428,15.4234096 L8.26769158,16.4662374 C8.68033579,16.5611923 9.09187782,16.3037312 9.18685643,15.8911897 C9.28183504,15.4786483 9.02430979,15.0672087 8.61166558,14.9722537 C8.60787985,14.9713914 8.60414205,14.970529 8.60035632,14.9697625 L1.69979127,13.4366854 C1.28642826,13.3448445 0.876850967,13.6054197 0.784987195,14.0186798 C0.772863286,14.0733435 0.76672945,14.1291571 0.76672945,14.1851144 L0.76672945,21.0836261 C0.76672945,21.506995 1.10998464,21.8501647 1.5334589,21.8501647 C1.95693316,21.8501647 2.30018835,21.506995 2.30018835,21.0836261 L2.30018835,18.6278282 C2.30018835,18.4161678 2.47183991,18.2445589 2.68355308,18.2445589 L2.68355308,18.2446068 Z" id="Shape"></path>
                </g>
            </g>
        </g>
    </g>
</svg>