<?xml version="1.0" encoding="UTF-8"?>
<svg width="25px" height="25px" viewBox="0 0 25 25" version="1.1" xmlns="http://www.w3.org/2000/svg" xmlns:xlink="http://www.w3.org/1999/xlink">
    <title>Group 13</title>
    <g id="Home" stroke="none" stroke-width="1" fill="none" fill-rule="evenodd">
        <g id="Covid-amarillo-expandido--lite" transform="translate(-94.000000, -782.000000)">
            <g id="Group-13" transform="translate(94.000000, 782.000000)">
                <path d="M15.2164699,12.5 C14.0458974,13.2695915 13.3140185,13.8488441 13.0208333,14.2377578 C11.8386226,15.8059745 11.8644816,17.0682647 11.8167935,17.5480769 C11.6199809,19.5283014 12.4325059,21.072891 13.0208333,21.943131 C13.647195,22.8696304 15.0339467,24.243949 17.0781255,24.6931359 C17.6336705,24.8152112 19.0846608,24.5229177 21.4310965,23.8162555 C19.0540121,23.3980036 17.1710254,22.0892093 15.7821365,19.8898729 C14.3932476,17.6905364 14.2046921,15.2272454 15.2164699,12.5 Z" id="Path-8" fill="#FFDC5D"></path>
                <g id="clock" fill="#016D38" fill-rule="nonzero">
                    <path d="M15.776844,3.125 L6.09815598,3.125 C5.89432628,3.125 5.72916667,3.2415625 5.72916667,3.38541667 C5.72916667,3.52927083 5.89432628,3.64583333 6.09815598,3.64583333 L15.776844,3.64583333 C15.9806737,3.64583333 16.1458333,3.52927083 16.1458333,3.38541667 C16.1458333,3.2415625 15.9806737,3.125 15.776844,3.125 Z" id="Path"></path>
                    <path d="M15.776844,6.77083333 L6.09815598,6.77083333 C5.89432628,6.77083333 5.72916667,6.88739583 5.72916667,7.03125 C5.72916667,7.17510417 5.89432628,7.29166667 6.09815598,7.29166667 L15.776844,7.29166667 C15.9806737,7.29166667 16.1458333,7.17510417 16.1458333,7.03125 C16.1458333,6.88739583 15.9806737,6.77083333 15.776844,6.77083333 Z" id="Path"></path>
                    <path d="M15.776844,10.4166667 L6.09815598,10.4166667 C5.89432628,10.4166667 5.72916667,10.5332292 5.72916667,10.6770833 C5.72916667,10.8209375 5.89432628,10.9375 6.09815598,10.9375 L15.776844,10.9375 C15.9806737,10.9375 16.1458333,10.8209375 16.1458333,10.6770833 C16.1458333,10.5332292 15.9806737,10.4166667 15.776844,10.4166667 Z" id="Path"></path>
                    <path d="M18.2291667,13.0208333 C15.3572774,13.0208333 13.0208333,15.3572664 13.0208333,18.2291423 C13.0208333,21.1010181 15.3572286,23.4375 18.2291667,23.4375 C21.1011047,23.4375 23.4375,21.1010181 23.4375,18.2291423 C23.4375,15.3572664 21.101056,13.0208333 18.2291667,13.0208333 L18.2291667,13.0208333 Z M18.2291667,22.7056876 C15.7608006,22.7056876 13.7526492,20.6975455 13.7526492,18.2291423 C13.7526492,15.7607878 15.7608006,13.7526457 18.2291667,13.7526457 C20.6975327,13.7526457 22.7056842,15.7607878 22.7056842,18.2291423 C22.7056842,20.6975455 20.6974839,22.7056876 18.2291667,22.7056876 Z" id="Shape"></path>
                    <path d="M19.2244615,18.4142084 L18.5222308,18.4142084 L18.5222308,16.1534727 C18.5222308,15.8615444 18.3400805,15.625 18.1152821,15.625 C17.8904836,15.625 17.7083333,15.8615444 17.7083333,16.1534727 L17.7083333,18.9426811 C17.7083333,19.2346095 17.8904836,19.4711538 18.1152821,19.4711538 L19.2244615,19.4711538 C19.44926,19.4711538 19.6314103,19.2346095 19.6314103,18.9426811 C19.6314103,18.6507528 19.44926,18.4142084 19.2244615,18.4142084 Z" id="Path"></path>
                    <path d="M23.7071264,14.1228108 C23.5887668,13.9586932 23.3599577,13.9217178 23.1958461,14.0399216 C23.0318321,14.1582719 22.9947226,14.3872062 23.1129846,14.5513727 C23.8683572,15.5993322 24.2676255,16.8381761 24.2676255,18.1339239 C24.2676255,21.5158706 21.5171319,24.2672831 18.1363635,24.2672831 C14.7555464,24.2672831 12.0050527,21.5158706 12.0050527,18.1339239 C12.0050527,14.7520261 14.7555464,12.0006135 18.1363635,12.0006135 C19.6270891,12.0006135 21.0642013,12.5425436 22.1829047,13.5265167 C22.3347116,13.65996 22.5662062,13.6452578 22.6997514,13.4932536 C22.8332477,13.3413471 22.8184528,13.109824 22.6664993,12.9762342 C21.4622978,11.9170405 19.9286034,11.3157154 18.328942,11.270925 L18.328942,5.54546645 L21.4560478,5.54546645 C21.8461364,5.54546645 22.1635199,5.22797698 22.1635199,4.837758 L22.1635199,2.28431231 C22.1635199,0.99721 21.0976975,0 19.9176659,0 L11.3107155,0 C11.1084201,0 10.9445038,0.1639711 10.9445038,0.366334003 C10.9445038,0.568696906 11.1084201,0.732668006 11.3107155,0.732668006 L18.2061879,0.732668006 C17.8282086,1.14042217 17.5965187,1.6856737 17.5965187,2.28431231 L17.5965187,11.2890952 C15.6276184,11.4430531 13.8893826,12.4316177 12.73606,13.9005682 L6.03961141,13.9005682 C5.83731609,13.9005682 5.67339975,14.0645393 5.67339975,14.2669022 C5.67339975,14.4692651 5.83731609,14.6332362 6.03961141,14.6332362 L12.2340083,14.6332362 C11.8186266,15.3313711 11.5232647,16.1087807 11.3771218,16.9372328 L3.79805429,16.9372328 L3.79805429,1.89155341 C3.79805429,1.25256922 4.31778187,0.732668006 4.95655265,0.732668006 L9.84650361,0.732668006 C10.0487989,0.732668006 10.2127153,0.568696906 10.2127153,0.366334003 C10.2127153,0.1639711 10.0487989,0 9.84650361,0 L4.95655265,0 C3.91387483,0 3.06563099,0.84852724 3.06563099,1.89155341 L3.06563099,16.9372328 L0.366211653,16.9372328 C0.163916336,16.9372328 0,17.1012039 0,17.3035668 L0,18.0136198 C0,19.7108208 1.38037379,21.0916069 3.07700796,21.0916069 L4.2564048,21.0916069 C4.45870011,21.0916069 4.62261645,20.9276358 4.62261645,20.7252729 C4.62261645,20.52291 4.45870011,20.3589389 4.2564048,20.3589389 L3.07700796,20.3589389 C1.78418317,20.3589389 0.732423306,19.3068277 0.732423306,18.0136198 L0.732423306,17.6699008 L11.2885963,17.6699008 C11.2782935,17.8233215 11.2725806,17.9779633 11.2725806,18.1339239 C11.2725806,18.9123592 11.4030008,19.660804 11.6426985,20.3589389 L5.72061664,20.3589389 C5.51832132,20.3589389 5.35440499,20.52291 5.35440499,20.7252729 C5.35440499,20.9276358 5.51832132,21.0916069 5.72061664,21.0916069 L11.9427968,21.0916069 C13.0494395,23.4011719 15.4096981,25 18.1363147,25 C21.9209901,25 25,21.9198637 25,18.1339727 C25,16.6833878 24.5529776,15.2963496 23.7071264,14.1228108 Z M21.4310965,2.28431231 L21.4310965,4.81279844 L18.328942,4.81279844 L18.328942,2.28431231 C18.328942,1.42870261 19.0247442,0.732668006 19.8800681,0.732668006 C20.7352944,0.732668006 21.4310965,1.42870261 21.4310965,2.28431231 Z" id="Shape"></path>
                </g>
            </g>
        </g>
    </g>
</svg>