<?xml version="1.0" encoding="UTF-8"?>
<svg width="32px" height="23px" viewBox="0 0 32 23" version="1.1" xmlns="http://www.w3.org/2000/svg" xmlns:xlink="http://www.w3.org/1999/xlink">
    <title>Group 12</title>
    <g id="Home" stroke="none" stroke-width="1" fill="none" fill-rule="evenodd">
        <g id="Covid-amarillo-expandido--lite" transform="translate(-91.000000, -703.000000)">
            <g id="Group-12" transform="translate(91.000000, 703.000000)">
                <path d="M7.88571429,0.689559665 C5.99804015,3.97640752 5.05420308,6.44861393 5.05420308,8.10617889 C5.05420308,10.5142857 6.31308643,15.1142857 8.54285714,15.1142857 C8.54285714,15.1142857 7.17838728,15.634846 6.08531167,15.4714537 C5.34519354,15.3608212 4.46966012,15.1142857 2.43415209,13.1428571 C1.73122299,12.4620568 1.05199332,10.7831641 0.396463091,8.10617889 C1.14961866,5.24564806 1.97626906,3.36967491 2.87641429,2.47825943 C3.77655952,1.58684396 5.44632619,0.990610702 7.88571429,0.689559665 Z" id="Path-9" fill="#FFDC5D"></path>
                <g id="answer" fill="#016D38" fill-rule="nonzero">
                    <path d="M19.4989234,9.85714286 L20.5867908,9.85714286 C20.8309448,9.85714286 21.0285714,9.71015937 21.0285714,9.52857141 C21.0285714,9.34698344 20.8309448,9.2 20.5867908,9.2 L19.4989234,9.2 C19.2547694,9.2 19.0571429,9.34698344 19.0571429,9.52857141 C19.0571429,9.71015937 19.2547694,9.85714286 19.4989234,9.85714286 L19.4989234,9.85714286 Z" id="Path"></path>
                    <path d="M25.1777645,9.85714286 C25.4267772,9.85714286 25.6285714,9.71015937 25.6285714,9.52857141 C25.6285714,9.34698344 25.4267772,9.2 25.1777645,9.2 L22.1362863,9.2 C21.8875085,9.2 21.6857143,9.34698344 21.6857143,9.52857141 C21.6857143,9.71015937 21.8875085,9.85714286 22.1362863,9.85714286 L25.1777645,9.85714286 Z" id="Path"></path>
                    <path d="M19.5257055,11.8285714 L27.7885803,11.8285714 C28.0472913,11.8285714 28.2571429,11.6815879 28.2571429,11.5 C28.2571429,11.318412 28.0472913,11.1714286 27.7885803,11.1714286 L19.5257055,11.1714286 C19.2667501,11.1714286 19.0571429,11.318412 19.0571429,11.5 C19.0571429,11.6815879 19.2667501,11.8285714 19.5257055,11.8285714 L19.5257055,11.8285714 Z" id="Path"></path>
                    <path d="M19.5257055,13.8 L27.7885803,13.8 C28.0472913,13.8 28.2571429,13.6530166 28.2571429,13.4714285 C28.2571429,13.2898406 28.0472913,13.1428571 27.7885803,13.1428571 L19.5257055,13.1428571 C19.2667501,13.1428571 19.0571429,13.2898406 19.0571429,13.4714285 C19.0571429,13.6530166 19.2667501,13.8 19.5257055,13.8 L19.5257055,13.8 Z" id="Path"></path>
                    <path d="M19.5257055,15.1142857 L27.7885803,15.1142857 C28.0472913,15.1142857 28.2571429,14.9673023 28.2571429,14.7857143 C28.2571429,14.6041263 28.0472913,14.4571429 27.7885803,14.4571429 L19.5257055,14.4571429 C19.2667501,14.4571429 19.0571429,14.6041263 19.0571429,14.7857143 C19.0571429,14.9673023 19.2667501,15.1142857 19.5257055,15.1142857 L19.5257055,15.1142857 Z" id="Path"></path>
                    <path d="M19.4949337,17.0857143 L23.2193519,17.0857143 C23.4613011,17.0857143 23.6571429,16.9385979 23.6571429,16.7570572 C23.6571429,16.5756879 23.4613011,16.4285714 23.2193519,16.4285714 L19.4949337,16.4285714 C19.2529846,16.4285714 19.0571429,16.5756879 19.0571429,16.7570572 C19.0571429,16.9385979 19.2529846,17.0857143 19.4949337,17.0857143 L19.4949337,17.0857143 Z" id="Path"></path>
                    <path d="M23.5868722,4.59825677 L21.5759766,4.59825677 C20.1207484,4.59825677 18.7562465,4.99411556 17.581379,5.68341822 C16.5901297,2.39815359 13.5518868,0 9.96688058,0 L7.95598493,0 C3.5691232,0 0,3.59081437 0,8.00433702 C0,12.4181018 3.5691232,16.0089161 7.95598493,16.0089161 L9.33300087,16.0089161 L9.33300087,17.7962125 C9.33300087,18.0431703 9.47979911,18.2630111 9.70721608,18.3564676 C9.78133718,18.3869742 9.85882744,18.4017432 9.93535503,18.4017432 C10.093464,18.4017432 10.2484444,18.3385511 10.3641985,18.2194303 L13.0960903,15.41307 C13.1552909,15.352299 13.223155,15.3038759 13.297998,15.2687692 C13.5256557,15.1622384 13.748019,15.0450545 13.9643659,14.9174597 C14.2822684,15.9679987 14.8141114,16.9517138 15.5372733,17.8000863 C15.7030831,17.9949893 15.9945138,18.017506 16.1879988,17.8504464 C16.3817243,17.6836288 16.404105,17.3901848 16.2380546,17.1955241 C15.5363107,16.3720893 15.0379185,15.4048381 14.7703125,14.3734263 C15.3842181,13.903238 15.9314627,13.3444356 16.3899065,12.7144511 C16.5405552,12.5074424 16.4957938,12.2166617 16.2900356,12.0653396 C16.0842773,11.9137753 15.7954939,11.9585667 15.6448451,12.1658175 C14.9368443,13.1388795 13.9908377,13.9206703 12.9091029,14.4264495 C12.7329451,14.5087688 12.5738734,14.6220788 12.4364607,14.7632321 L10.256386,17.0030422 L10.256386,15.9198177 C10.256386,15.4566508 9.88193012,15.0799192 9.42180177,15.0799192 L7.95598493,15.0799192 C4.07810404,15.0799192 0.923144531,11.9057855 0.923144531,8.00433702 C0.923144531,4.10288851 4.07810404,0.928754895 7.95598493,0.928754895 L9.96688058,0.928754895 C13.8447614,0.928754895 16.999721,4.10288851 16.999721,8.00433702 C16.999721,8.80840244 16.8649554,9.5981831 16.5992746,10.3518885 C16.5140835,10.5935197 16.6397042,10.8588782 16.8801165,10.9448292 C17.1200474,11.0305381 17.3840437,10.9041538 17.4694754,10.6622805 C17.7702915,9.80882351 17.9228655,8.91444904 17.9228655,8.00433702 C17.9228655,7.53681206 17.8824358,7.07872962 17.8056675,6.63299507 C18.8960658,5.93328137 20.1895752,5.52701166 21.5759766,5.52701166 L23.5868722,5.52701166 C27.4647531,5.52701166 30.6197126,8.70114528 30.6197126,12.6025938 C30.6197126,16.5042844 27.4647531,19.6781759 23.5868722,19.6781759 L22.1210554,19.6781759 C21.660927,19.6781759 21.2864711,20.0549076 21.2864711,20.5180744 L21.2864711,21.601299 L19.1063965,19.3614889 C18.9689837,19.2203356 18.8101528,19.1070255 18.6337542,19.0247063 C18.3290876,18.8821003 18.0314,18.7160091 17.7493548,18.5305487 C17.5358956,18.3901217 17.25,18.4504084 17.1104213,18.6654069 C16.9708426,18.8799213 17.0310058,19.1677965 17.244465,19.3082235 C17.5633301,19.5178955 17.9000035,19.7060192 18.2448591,19.867026 C18.3197021,19.9021327 18.3875663,19.9507979 18.4467669,20.0113268 L21.178418,22.8179292 C21.2944127,22.9368079 21.4491525,23 21.6075021,23 C21.6840297,23 21.76152,22.985231 21.8356411,22.9547244 C22.0628174,22.86151 22.2098563,22.641427 22.2098563,22.3944693 L22.2098563,20.6071729 L23.5866316,20.6071729 C27.9737339,20.6071729 31.5428571,17.0163586 31.5428571,12.6025938 C31.5428571,8.18907113 27.9737339,4.59825677 23.5868722,4.59825677 L23.5868722,4.59825677 Z" id="Path"></path>
                    <path d="M8.53847992,10.5142857 C8.17775282,10.5142857 7.88571429,10.8130884 7.88571429,11.1714285 C7.88571429,11.5212953 8.1692229,11.8285714 8.53847992,11.8285714 C8.90796141,11.8285714 9.2,11.5212953 9.2,11.1714285 C9.2,10.8130884 8.89943149,10.5142857 8.53847992,10.5142857 Z" id="Path"></path>
                    <path d="M10.0944363,8.37151429 C10.3540101,8.18350142 11.1714286,7.57503213 11.1714286,6.73388528 C11.1714286,5.89273843 10.3540101,5.25714286 9.12323351,5.25714286 C7.82486234,5.25714286 7.22857143,5.97318172 7.22857143,6.45630914 C7.22857143,6.80544236 7.54593991,6.96656284 7.80576489,6.96656284 C8.32516365,6.96656284 8.11333337,6.27741637 9.09433613,6.27741637 C9.57503758,6.27741637 9.95974948,6.47431533 9.95974948,6.88611955 C9.95974948,7.36924696 9.42125333,7.64658921 9.10388486,7.89727296 C8.82496242,8.12106437 8.45959924,8.48796995 8.45959924,9.25755972 C8.45959924,9.72291478 8.59428609,9.85714286 8.98854666,9.85714286 C9.45969938,9.85714286 9.55594019,9.66024384 9.55594019,9.49023728 C9.55594019,9.02488216 9.56548885,8.75642605 10.0944363,8.37151429 Z" id="Path"></path>
                </g>
            </g>
        </g>
    </g>
</svg>