<?xml version="1.0" encoding="UTF-8"?>
<svg width="16px" height="29px" viewBox="0 0 16 29" version="1.1" xmlns="http://www.w3.org/2000/svg" xmlns:xlink="http://www.w3.org/1999/xlink">
    <title>icono termometro</title>
    <g id="Home" stroke="none" stroke-width="1" fill="none" fill-rule="evenodd">
        <g id="Covid-amarillo-expandido--lite" transform="translate(-246.000000, -700.000000)">
            <g id="icono-termometro" transform="translate(247.000000, 701.000000)">
                <path d="M2.36915437,16.5074336 C0.179807236,18.2843327 -0.492150106,20.4686045 0.353282342,23.0602493 C1.19871479,25.651894 3.06882251,26.912013 5.96360549,26.8406062 C9.23742482,26.4416998 11.0843389,24.6775332 11.5043478,21.5481065 C7.25762568,22.9767494 4.21256119,21.2965251 2.36915437,16.5074336 Z" id="Path-2" fill="#FFDC5D"></path>
                <path d="M5.79747964,0 C7.64548913,-3.39473836e-16 9.14359682,1.49810769 9.14359682,3.34611718 L9.14410599,16.3519611 C10.5821219,17.3989024 11.5167984,19.0954862 11.5167984,21.0103755 C11.5167984,24.1906516 8.93867528,26.7687747 5.75839921,26.7687747 C2.57812314,26.7687747 0,24.1906516 0,21.0103755 C0,19.0608793 0.968765784,17.3376505 2.45114887,16.2958376 L2.45136246,3.34611718 C2.45136246,1.49810769 3.94947015,3.39473836e-16 5.79747964,0 Z" id="Combined-Shape" stroke="#016D38"></path>
                <path d="M5.75839921,1.86758893 C6.53197987,1.86758893 7.15909091,2.49469997 7.15909091,3.26828063 L7.15893917,17.1183586 C8.62131197,17.7281269 9.64920949,19.1713958 9.64920949,20.8547431 C9.64920949,23.0895317 7.83755539,24.9011858 5.6027668,24.9011858 C3.36797821,24.9011858 1.55632411,23.0895317 1.55632411,20.8547431 C1.55632411,19.0544042 2.73206308,17.5286739 4.35759309,17.0035 L4.35770751,3.26828063 C4.35770751,2.49469997 4.98481854,1.86758893 5.75839921,1.86758893 Z" id="Combined-Shape" stroke="#016D38"></path>
                <line x1="10.583004" y1="2.33448617" x2="12.4505929" y2="2.33448617" id="Path-22" stroke="#016D38" stroke-linecap="round" stroke-linejoin="round"></line>
                <line x1="10.583004" y1="5.75839921" x2="12.4505929" y2="5.75839921" id="Path-23" stroke="#016D38" stroke-linecap="round" stroke-linejoin="round"></line>
                <line x1="10.583004" y1="8.55978261" x2="13.6956522" y2="8.55978261" id="Path-24" stroke="#016D38" stroke-linecap="round" stroke-linejoin="round"></line>
                <line x1="10.583004" y1="12.2949605" x2="12.4505929" y2="12.2949605" id="Path-25" stroke="#016D38" stroke-linecap="round" stroke-linejoin="round"></line>
                <line x1="10.583004" y1="15.4076087" x2="12.4505929" y2="15.4076087" id="Path-26" stroke="#016D38" stroke-linecap="round" stroke-linejoin="round"></line>
                <line x1="4.35770751" y1="15.4076087" x2="7.15909091" y2="15.4076087" id="Path-27" stroke="#016D38" stroke-linecap="round" stroke-linejoin="round"></line>
            </g>
        </g>
    </g>
</svg>