<?xml version="1.0" encoding="UTF-8"?>
<svg width="48px" height="45px" viewBox="0 0 48 45" version="1.1" xmlns="http://www.w3.org/2000/svg" xmlns:xlink="http://www.w3.org/1999/xlink">
    <title>Me siento regular</title>
    <defs>
        <polygon id="path-1" points="0.0723762058 0.0398778135 22.9818328 0.0398778135 22.9818328 9.02121222 0.0723762058 9.02121222"></polygon>
    </defs>
    <g id="Home" stroke="none" stroke-width="1" fill="none" fill-rule="evenodd">
        <g id="covid-invitación" transform="translate(-230.000000, -599.000000)">
            <g id="Group-14" transform="translate(214.000000, 581.000000)">
                <g id="Me-siento-regular" transform="translate(16.000000, 18.000000)">
                    <path d="M1.04910772,30.5522219 C1.04910772,30.5522219 6.15219453,11.9816913 14.6684807,9.64386174 C14.6684807,9.64386174 16.2275643,0.868282958 8.15910772,1.15767203 L1.01293408,1.15767203 L1.04910772,30.5522219 Z" id="Fill-1" fill="#FFDC5D"></path>
                    <path d="M28.1050756,44.960209 C27.4585804,44.960209 27.0252203,44.883955 26.9777605,44.8752733 C26.5212492,44.7912058 26.1686286,44.4258521 26.1007669,43.9664469 C24.5382106,33.374373 14.3777605,28.0199518 14.2753167,27.9671383 C13.7426961,27.6923633 13.5336125,27.0377653 13.8083875,26.5051447 C14.0831624,25.9725241 14.7377605,25.7634405 15.270381,26.0382154 C15.3858473,26.0976849 18.1311367,27.5492605 21.1043199,30.4201447 C24.8278891,34.0156592 27.2345932,38.1993569 28.1021817,42.829582 L28.1049309,42.829582 C28.900172,42.829582 30.190992,42.6533441 31.2063135,41.7811254 C32.3984518,40.7568328 32.9759277,38.9579904 32.9226801,36.4541961 C32.9225354,36.4462379 32.9223907,36.4332154 32.9223907,36.4254019 C32.9223907,36.375627 32.8902685,31.3243408 30.6334678,28.5320257 C30.2566833,28.0659646 30.3291752,27.3814148 30.7952363,27.0046302 C31.2614421,26.6278457 31.9446897,26.6997588 32.3214743,27.1658199 C35.0269727,30.513328 35.0916511,36.0283601 35.0928087,36.4090514 C35.1587894,39.6015916 34.3195611,41.9619936 32.598709,43.4261576 C31.0792717,44.7190032 29.2552524,44.960209 28.1050756,44.960209" id="Fill-3" fill="#016D38"></path>
                    <g id="Group-7" transform="translate(24.742765, 19.928055)">
                        <mask id="mask-2" fill="white">
                            <use xlink:href="#path-1"></use>
                        </mask>
                        <g id="Clip-6"></g>
                        <path d="M18.447135,9.02121222 C18.303164,9.02121222 18.1921833,9.01556913 18.1240322,9.01093891 L1.15758521,9.01093891 C0.55826045,9.01093891 0.0723762058,8.52505466 0.0723762058,7.9257299 C0.0723762058,7.32640514 0.55826045,6.8405209 1.15758521,6.8405209 L18.1658489,6.8405209 C18.1984051,6.8405209 18.2311061,6.84196785 18.2635177,6.84486174 C18.6164277,6.87278778 19.6794984,6.82489389 20.2769421,6.27042444 C20.6281158,5.94442765 20.7972637,5.46201608 20.7943698,4.79555305 C20.7942251,4.75605145 20.7961061,4.71640514 20.8003023,4.67704823 C20.8361865,4.30257878 20.816074,3.19175884 20.2932926,2.61645338 C20.1347074,2.44209646 19.84691,2.21029582 19.1787106,2.21029582 L14.4694823,2.21029582 C13.8700129,2.21029582 13.3842733,1.72441158 13.3842733,1.12508682 C13.3842733,0.525762058 13.8700129,0.0398778135 14.4694823,0.0398778135 L19.1787106,0.0398778135 C20.5964277,0.0398778135 21.446508,0.653527331 21.9101093,1.16849518 C23.0882122,2.47711254 23.0003826,4.41384887 22.9647878,4.84084244 C22.9568296,6.42409003 22.2954309,7.36388103 21.7382122,7.87523151 C20.6341929,8.88838264 19.1494823,9.02121222 18.447135,9.02121222" id="Fill-5" fill="#016D38" mask="url(#mask-2)"></path>
                    </g>
                    <path d="M44.2436093,22.136701 C43.6441399,22.136701 43.1584003,21.6508167 43.1584003,21.051492 C43.1584003,20.4521672 43.6441399,19.966283 44.2436093,19.966283 C44.5209887,19.966283 44.7216801,19.8874244 44.8941559,19.7106077 C45.4655547,19.1250289 45.5636576,17.7524566 45.5530949,17.3177942 C45.5528055,17.3088232 45.5526608,17.2968135 45.5526608,17.2879871 C45.5526608,16.7624566 45.4690273,16.0541768 45.070828,15.6639357 C44.7553939,15.3547235 44.3402653,15.3372154 44.2671945,15.3366367 C44.2411495,15.3389518 44.2427412,15.3376495 44.2107637,15.3376495 L38.9229019,15.3376495 C38.3234325,15.3376495 37.8376929,14.8517653 37.8376929,14.2524405 C37.8376929,13.6531158 38.3234325,13.1672315 38.9229019,13.1672315 L44.1909405,13.1672315 C44.4579019,13.1592733 45.6008441,13.182135 46.5425161,14.0682444 C47.3229984,14.8027138 47.7201849,15.8806881 47.7230788,17.2727942 C47.7313264,17.609209 47.7374035,19.8968296 46.453963,21.2197717 C45.8721463,21.8196752 45.1077251,22.136701 44.2436093,22.136701" id="Fill-8" fill="#016D38"></path>
                    <path d="M44.2436093,15.3360579 C43.6441399,15.3360579 43.1584003,14.8501736 43.1584003,14.2508489 C43.1584003,13.6515241 43.6441399,13.1656399 44.2436093,13.1656399 C44.5209887,13.1656399 44.7216801,13.0867814 44.8941559,12.9099646 C45.4442846,12.3462347 45.5556994,11.0530997 45.5538183,10.5695305 C45.2881592,8.70499678 44.3344775,8.54973955 44.1881913,8.53700643 L38.9229019,8.53700643 C38.3234325,8.53700643 37.8376929,8.05112219 37.8376929,7.45179743 C37.8376929,6.85247267 38.3234325,6.36658842 38.9229019,6.36658842 L44.2107637,6.36658842 C44.2120659,6.36658842 44.2135129,6.36658842 44.2148151,6.36658842 C45.2443167,6.36658842 47.2981109,7.19727974 47.7136736,10.345254 C47.7185932,10.3815723 47.7214871,10.4178907 47.7225,10.4544984 C47.7306029,10.7182765 47.7627251,13.0702862 46.453963,14.4191286 C45.8721463,15.0190322 45.1077251,15.3360579 44.2436093,15.3360579" id="Fill-10" fill="#016D38"></path>
                    <path d="M41.1239084,8.52975723 C40.5244389,8.52975723 40.0386994,8.04387299 40.0386994,7.44454823 C40.0386994,6.84522347 40.5244389,6.35933923 41.1239084,6.35933923 C41.4826061,6.35933923 41.6403232,6.2356254 41.7377026,6.12782797 C42.1765611,5.64208842 42.2163521,4.47744212 42.1668666,3.98953215 C42.1632492,3.95321383 42.1609341,3.91298875 42.1609341,3.87638103 C42.1609341,2.96856752 40.3076865,2.63678296 39.7966254,2.59583441 C39.4013199,2.57297267 28.1762074,1.93602733 24.5838762,2.58107556 C22.6176222,2.93413023 17.1500498,5.22348714 15.2092621,6.07573794 C14.6605804,6.31665434 14.0203071,6.06720096 13.7793907,5.51851929 C13.5384743,4.96969293 13.7879277,4.32956431 14.3366093,4.08850322 C14.6310627,3.9591463 21.5790048,0.915496785 24.200291,0.444805466 C28.0908376,-0.253635048 39.4518183,0.401397106 39.9333617,0.42961254 C40.0502749,0.437860129 40.9810949,0.513101286 41.9485225,0.886268489 C43.9700498,1.66602733 44.3148569,3.0326672 44.3307733,3.81734566 C44.3699855,4.24853537 44.4893585,6.31159003 43.354664,7.57564148 C42.7944068,8.1998537 42.0228955,8.52975723 41.1239084,8.52975723" id="Fill-12" fill="#016D38"></path>
                    <path d="M2.17041801,29.3730482 L10.368955,29.3730482 C11.4734084,29.3730482 12.2703859,29.0813441 12.8051768,28.4812958 C13.7921383,27.3738039 13.6105466,25.5302508 13.6083762,25.5120193 C13.603746,25.4706367 13.6012862,25.4291093 13.6012862,25.387582 L13.6012862,6.26489711 C13.6012862,4.54636013 12.9717203,3.38648875 11.6767042,2.71915756 C10.6243408,2.17669775 9.50324759,2.17047588 9.49210611,2.17047588 L2.17041801,2.17047588 L2.17041801,29.3730482 Z M10.368955,31.5434662 L1.085209,31.5434662 C0.485884244,31.5434662 0,31.057582 0,30.4582572 L0,1.08526688 C0,0.485942122 0.485884244,5.78778135e-05 1.085209,5.78778135e-05 L9.48414791,5.78778135e-05 C11.6641158,5.78778135e-05 15.7717042,1.30939871 15.7717042,6.26489711 L15.7717042,25.3362154 C15.8113505,25.7963441 15.9395498,28.2263441 14.4253215,29.9253473 C13.4684566,30.9991254 12.1036977,31.5434662 10.368955,31.5434662 L10.368955,31.5434662 Z" id="Fill-14" fill="#016D38"></path>
                    <path d="M9.58057235,7.83128778 C9.58057235,6.92101447 8.84263023,6.18321704 7.93235691,6.18321704 C7.0220836,6.18321704 6.28414148,6.92101447 6.28414148,7.83128778 C6.28414148,8.74170579 7.0220836,9.47964791 7.93235691,9.47964791 C8.84263023,9.47964791 9.58057235,8.74170579 9.58057235,7.83128778" id="Fill-16" fill="#016D38"></path>
                </g>
            </g>
        </g>
    </g>
</svg>