<?xml version="1.0" encoding="UTF-8"?>
<svg width="48px" height="45px" viewBox="0 0 48 45" version="1.1" xmlns="http://www.w3.org/2000/svg" xmlns:xlink="http://www.w3.org/1999/xlink">
    <title>Me siento bien</title>
    <defs>
        <polygon id="path-1" points="0.0721586538 0.133949276 22.9899519 0.133949276 22.9899519 9.08653846 0.0721586538 9.08653846"></polygon>
    </defs>
    <g id="Home" stroke="none" stroke-width="1" fill="none" fill-rule="evenodd">
        <g id="covid-invitación" transform="translate(-83.000000, -599.000000)">
            <g id="Group-12" transform="translate(67.000000, 581.000000)">
                <g id="Me-siento-bien" transform="translate(16.000000, 18.000000)">
                    <path d="M1.04567308,14.6532692 C1.04567308,14.6532692 6.13240385,33.1716346 14.6213942,35.5018269 C14.6213942,35.5018269 16.1754808,44.2566346 8.13288462,43.9681731 L1.00961538,43.9681731 L1.04567308,14.6532692 Z" id="Fill-1" fill="#FFDC5D"></path>
                    <path d="M14.9523894,18.9822548 C14.5603702,18.9822548 14.1821971,18.7685048 13.9900817,18.3962452 C13.716476,17.8656202 13.9243125,17.2136971 14.4545048,16.9395144 C14.4819087,16.9252356 17.0691202,15.568601 19.8080625,12.9105721 C23.4296971,9.39566827 25.5948894,5.3851875 26.2432067,0.990620192 C26.3107067,0.5326875 26.6621971,0.168504808 27.1173894,0.0847067308 C27.2484952,0.0606201923 30.3543606,-0.483418269 32.7200337,1.52932212 C34.4355144,2.98879327 35.2719087,5.34191827 35.2062837,8.52422596 C35.2051298,8.90369712 35.1406587,14.4011971 32.4436875,17.737976 C32.0681106,18.2026875 31.3870529,18.2749471 30.9224856,17.8993702 C30.457774,17.5239375 30.3856587,16.8427356 30.7610913,16.3781683 C33.0200337,13.5832644 33.0428221,8.56302404 33.0428221,8.5126875 C33.0428221,8.50475481 33.0428221,8.49682212 33.0429663,8.48888942 C33.0963317,5.9833125 32.5159471,4.19614904 31.3182548,3.17701442 C30.3087837,2.31826442 29.0272933,2.16408173 28.2380625,2.16408173 C27.3732548,6.67605288 24.9741202,10.9294183 21.2624856,14.5135529 C18.298976,17.3752356 15.5624856,18.8022548 15.4473894,18.8616779 C15.2888798,18.9434567 15.1192644,18.9822548 14.9523894,18.9822548" id="Fill-3" fill="#016D38"></path>
                    <g id="Group-7" transform="translate(24.807692, 15.843173)">
                        <mask id="mask-2" fill="white">
                            <use xlink:href="#path-1"></use>
                        </mask>
                        <g id="Clip-6"></g>
                        <path d="M19.1988894,9.08653846 L14.4231202,9.08653846 C13.8257163,9.08653846 13.3413894,8.60221154 13.3413894,8.00480769 C13.3413894,7.40740385 13.8257163,6.92307692 14.4231202,6.92307692 L19.1988894,6.92307692 C19.8681202,6.92307692 20.1555721,6.68956731 20.313649,6.51403846 C20.8470144,5.92153846 20.8451394,4.74649038 20.8154279,4.46423077 C20.8112452,4.425 20.8093702,4.38548077 20.8095144,4.34610577 C20.812399,3.68177885 20.643649,3.20076923 20.293601,2.87596154 C19.6980721,2.323125 18.6391298,2.27552885 18.2808606,2.30379808 C18.2524471,2.30610577 18.2176875,2.30769231 18.189274,2.30769231 L1.15388942,2.30769231 C0.556485577,2.30769231 0.0721586538,1.82336538 0.0721586538,1.22596154 C0.0721586538,0.628557692 0.556485577,0.144230769 1.15388942,0.144230769 L18.1475913,0.144230769 C18.5475433,0.116538462 20.4241298,0.0592788462 21.7501875,1.27615385 C22.3056202,1.78586538 22.964899,2.72278846 22.972976,4.30110577 C23.0084567,4.72644231 23.0960048,6.65697115 21.9215337,7.96153846 C21.4595625,8.47471154 20.6120625,9.08653846 19.1988894,9.08653846" id="Fill-5" fill="#016D38" mask="url(#mask-2)"></path>
                    </g>
                    <path d="M44.3361058,31.7093365 C44.3130288,31.7093365 44.293125,31.7090481 44.2765385,31.7086154 L38.9423077,31.7086154 C38.3449038,31.7086154 37.8605769,31.2242885 37.8605769,30.6268846 C37.8605769,30.0293365 38.3449038,29.5451538 38.9423077,29.5451538 L44.295,29.5451538 C44.3261538,29.5451538 44.3234135,29.5438558 44.3473558,29.5460192 C44.4201923,29.5451538 44.8351442,29.5261154 45.1508654,29.2155865 C45.5489423,28.824 45.6325962,28.1168365 45.6325962,27.5924135 C45.6325962,27.5854904 45.6325962,27.5785673 45.6327404,27.5715 C45.6386538,27.1414038 45.5254327,25.7727981 44.9469231,25.1863558 C44.7699519,25.0069327 44.5664423,24.9270288 44.2869231,24.9270288 C43.6895192,24.9270288 43.2051923,24.4427019 43.2051923,23.8452981 C43.2051923,23.24775 43.6895192,22.7635673 44.2869231,22.7635673 C45.1465385,22.7635673 45.9096635,23.0782788 46.4936538,23.6736635 C47.7902885,24.9956827 47.8008173,27.2898173 47.7960577,27.6020769 C47.7943269,28.9917404 47.3987019,30.0688558 46.6204327,30.8037115 C45.7393269,31.6357788 44.6821154,31.7093365 44.3361058,31.7093365" id="Fill-8" fill="#016D38"></path>
                    <path d="M38.9423077,38.4874038 C38.3449038,38.4874038 37.8605769,38.0030769 37.8605769,37.4056731 C37.8605769,36.8082692 38.3449038,36.3239423 38.9423077,36.3239423 L44.2691827,36.3239423 C44.4188942,36.3098077 45.3670673,36.1472596 45.6328846,34.2950481 C45.6289904,33.8131731 45.5025,32.5285096 44.9469231,31.9652885 C44.7699519,31.7858654 44.5664423,31.7058173 44.2869231,31.7058173 C43.6895192,31.7058173 43.2051923,31.2214904 43.2051923,30.6240865 C43.2051923,30.0266827 43.6895192,29.5423558 44.2869231,29.5423558 C45.1465385,29.5423558 45.9096635,29.8570673 46.4936538,30.4525962 C47.8075962,31.7922115 47.8008173,34.1301923 47.7957692,34.3922596 C47.7950481,34.4326442 47.7920192,34.4728846 47.7866827,34.5129808 C47.5279327,36.4733654 46.6536058,37.4463462 45.9657692,37.9172596 C45.1758173,38.458125 44.4375,38.4871154 44.2974519,38.4874038 L38.9423077,38.4874038 Z" id="Fill-10" fill="#016D38"></path>
                    <path d="M30.2732452,44.6926587 C27.9120433,44.6926587 25.6871394,44.6130433 24.3486779,44.3727548 C21.7357933,43.9035721 14.8101202,40.8696779 14.5164663,40.7407356 C13.9695433,40.5005913 13.7208894,39.8623702 13.9611779,39.3154471 C14.2013221,38.7683798 14.8396875,38.519726 15.3864663,38.7598702 C17.3210337,39.6095337 22.7710817,41.8914087 24.7310337,42.2433317 C28.3128606,42.8864567 39.4995433,42.2515529 39.8948798,42.2287644 C40.4041587,42.1878029 42.2517548,41.857226 42.2517548,40.9523221 C42.2517548,40.9133798 42.253774,40.8745817 42.2579567,40.8359279 C42.3069952,40.3530433 42.267476,39.1921298 41.8298798,38.7079471 C41.7328125,38.6004952 41.5754567,38.4771779 41.2180529,38.4771779 C40.620649,38.4771779 40.1363221,37.992851 40.1363221,37.3954471 C40.1363221,36.7980433 40.620649,36.3137163 41.2180529,36.3137163 C42.1141587,36.3137163 42.8830529,36.6425625 43.4416587,37.264774 C44.5727163,38.5246298 44.4535817,40.5809279 44.4146394,41.011024 C44.398774,41.7931875 44.0552163,43.1554471 42.040024,43.9327067 C41.0756971,44.3046779 40.1478606,44.3796779 40.0451683,44.3870337 C39.7216587,44.4060721 34.7530529,44.6926587 30.2732452,44.6926587" id="Fill-12" fill="#016D38"></path>
                    <path d="M2.16346154,42.8143269 L9.66259615,42.8143269 C10.1101442,42.7981731 13.5576923,42.5434615 13.5576923,38.5713462 L13.5576923,19.5099519 C13.5576923,19.4508173 13.5625962,19.3918269 13.5722596,19.3335577 C13.5741346,19.3210096 13.8308654,17.5952885 12.9416827,16.5568269 C12.4543269,15.9875481 11.6535577,15.6989423 10.5615865,15.6989423 L2.16346154,15.6989423 L2.16346154,42.8143269 Z M9.67961538,44.9777885 L1.08173077,44.9777885 C0.484326923,44.9777885 0,44.4934615 0,43.8960577 L0,14.6172115 C0,14.0198077 0.484326923,13.5354808 1.08173077,13.5354808 L10.5615865,13.5354808 C12.3229327,13.5354808 13.6808654,14.0837019 14.5978846,15.1648558 C15.9827885,16.7974038 15.7864904,19.0725 15.7211538,19.5848077 L15.7211538,38.5713462 C15.7211538,44.7833654 9.76182692,44.9763462 9.70168269,44.9777885 C9.69432692,44.9777885 9.68697115,44.9777885 9.67961538,44.9777885 L9.67961538,44.9777885 Z" id="Fill-14" fill="#016D38"></path>
                    <path d="M9.77578846,37.0099471 C9.77578846,37.9173029 9.04021154,38.6527356 8.13285577,38.6527356 C7.2255,38.6527356 6.48992308,37.9173029 6.48992308,37.0099471 C6.48992308,36.1025913 7.2255,35.3668702 8.13285577,35.3668702 C9.04021154,35.3668702 9.77578846,36.1025913 9.77578846,37.0099471" id="Fill-16" fill="#016D38"></path>
                </g>
            </g>
        </g>
    </g>
</svg>