<?xml version="1.0" encoding="UTF-8"?>
<svg width="87px" height="92px" viewBox="0 0 87 92" version="1.1" xmlns="http://www.w3.org/2000/svg" xmlns:xlink="http://www.w3.org/1999/xlink">
    <title>Group 2</title>
    <g id="Home" stroke="none" stroke-width="1" fill="none" fill-rule="evenodd">
        <g id="Covid-rojo-expandido--lite" transform="translate(-233.000000, -510.000000)">
            <g id="Group-2" transform="translate(233.000000, 511.000000)">
                <g id="QR-CovidPass-green" transform="translate(14.000000, 0.000000)" stroke="#979797" stroke-linecap="round" stroke-width="1.34160002">
                    <path d="M0.0258064516,80.1975808 C7.5840757,86.2546526 17.1375321,89.8709677 27.5251689,89.8709677 C52.0166773,89.8709677 71.8709677,69.7678309 71.8709677,44.9693548 C71.8709677,20.1708788 52.0166773,0.0677419355 27.5251689,0.0677419355" id="Path"></path>
                </g>
                <ellipse id="Oval" fill="#E95327" cx="41.1343184" cy="45" rx="40.8989649" ry="41"></ellipse>
                <g id="Codigo_QR_white" transform="translate(13.527517, 18.000000)" fill="#FFFFFF">
                    <path d="M6.86903486,53 L0.472482886,53 L0.472482886,46.6034483 L0.472482886,40.2068966 L6.86903486,40.2068966 L13.2655865,40.2068966 L13.2655865,46.6034483 L13.2655865,53 L6.86903486,53 Z M6.86903486,51.1724138 L11.4380004,51.1724138 L11.4380004,46.6034483 L11.4380004,42.0344828 L6.86903486,42.0344828 L2.30006908,42.0344828 L2.30006908,46.6034483 L2.30006908,51.1724138 L6.86903486,51.1724138 Z M6.86903486,49.3448276 L4.12765528,49.3448276 L4.12765528,46.6034483 L4.12765528,43.862069 L6.86903486,43.862069 L9.61041415,43.862069 L9.61041415,46.6034483 L9.61041415,49.3448276 L6.86903486,49.3448276 Z M16.0069658,53 L15.0931727,53 L15.0931727,48.4310345 L15.0931727,43.862069 L16.0069658,43.862069 L16.9207589,43.862069 L16.9207589,45.6896552 L16.9207589,47.5172414 L17.834552,47.5172414 L18.7483451,47.5172414 L18.7483451,48.4310345 L18.7483451,49.3448276 L17.834552,49.3448276 L16.9207589,49.3448276 L16.9207589,51.1724138 L16.9207589,53 L16.0069658,53 Z M20.5759313,53 L18.7483451,53 L18.7483451,52.0862069 L18.7483451,51.1724138 L19.6621382,51.1724138 L20.5759313,51.1724138 L20.5759313,49.3448276 L20.5759313,47.5172414 L22.4035175,47.5172414 L24.2311037,47.5172414 L24.2311037,48.4310345 L24.2311037,49.3448276 L23.3173106,49.3448276 L22.4035175,49.3448276 L22.4035175,51.1724138 L22.4035175,53 L20.5759313,53 Z M32.4552416,53 L31.5414485,53 L31.5414485,52.0862069 L31.5414485,51.1724138 L30.6276554,51.1724138 L29.7138623,51.1724138 L29.7138623,50.2586207 L29.7138623,49.3448276 L28.8000692,49.3448276 L27.8862761,49.3448276 L27.8862761,50.2586207 L27.8862761,51.1724138 L26.9724829,51.1724138 L26.0586899,51.1724138 L26.0586899,50.2586207 L26.0586899,49.3448276 L26.9724829,49.3448276 L27.8862761,49.3448276 L27.8862761,48.4310345 L27.8862761,47.5172414 L28.8000692,47.5172414 L29.7138623,47.5172414 L29.7138623,46.6034483 L29.7138623,45.6896552 L27.8862761,45.6896552 L26.0586899,45.6896552 L26.0586899,44.7758621 L26.0586899,43.862069 L25.1448968,43.862069 L24.2311037,43.862069 L24.2311037,44.7758621 L24.2311037,45.6896552 L23.3173106,45.6896552 L22.4035175,45.6896552 L22.4035175,43.862069 L22.4035175,42.0344828 L23.3173106,42.0344828 L24.2311037,42.0344828 L24.2311037,41.1206897 L24.2311037,40.2068966 L23.3173106,40.2068966 L22.4035175,40.2068966 L22.4035175,39.2931034 L22.4035175,38.3793103 L20.5759313,38.3793103 L18.7483451,38.3793103 L18.7483451,40.2068966 L18.7483451,42.0344828 L19.6621382,42.0344828 L20.5759313,42.0344828 L20.5759313,42.9482759 L20.5759313,43.862069 L19.6621382,43.862069 L18.7483451,43.862069 L18.7483451,42.9482759 L18.7483451,42.0344828 L16.9207589,42.0344828 L15.0931727,42.0344828 L15.0931727,40.2068966 L15.0931727,38.3793103 L16.9207589,38.3793103 L18.7483451,38.3793103 L18.7483451,37.4655172 L18.7483451,36.5517241 L16.0069658,36.5517241 L13.2655865,36.5517241 L13.2655865,37.4655172 L13.2655865,38.3793103 L12.3517934,38.3793103 L11.4380004,38.3793103 L11.4380004,37.4655172 L11.4380004,36.5517241 L12.3517934,36.5517241 L13.2655865,36.5517241 L13.2655865,35.637931 L13.2655865,34.7241379 L12.3517934,34.7241379 L11.4380004,34.7241379 L11.4380004,33.8103448 L11.4380004,32.8965517 L12.3517934,32.8965517 L13.2655865,32.8965517 L13.2655865,31.9827586 L13.2655865,31.0689655 L10.5242073,31.0689655 L7.78282796,31.0689655 L7.78282796,31.9827586 L7.78282796,32.8965517 L6.86903486,32.8965517 L5.95524176,32.8965517 L5.95524176,33.8103448 L5.95524176,34.7241379 L5.04144866,34.7241379 L4.12765528,34.7241379 L4.12765528,32.8965517 L4.12765528,31.0689655 L3.21386218,31.0689655 L2.30006908,31.0689655 L2.30006908,34.7241379 L2.30006908,38.3793103 L1.38627598,38.3793103 L0.472482886,38.3793103 L0.472482886,34.7241379 L0.472482886,31.0689655 L1.38627598,31.0689655 L2.30006908,31.0689655 L2.30006908,30.1551724 L2.30006908,29.2413793 L1.38627598,29.2413793 L0.472482886,29.2413793 L0.472482886,24.6724138 L0.472482886,20.1034483 L2.30006908,20.1034483 L4.12765528,20.1034483 L4.12765528,19.1896552 L4.12765528,18.2758621 L2.30006908,18.2758621 L0.472482886,18.2758621 L0.472482886,16.4482759 L0.472482886,14.6206897 L5.04144866,14.6206897 L9.61041415,14.6206897 L9.61041415,15.5344828 L9.61041415,16.4482759 L10.5242073,16.4482759 L11.4380004,16.4482759 L11.4380004,15.5344828 L11.4380004,14.6206897 L16.0069658,14.6206897 L20.5759313,14.6206897 L20.5759313,15.5344828 L20.5759313,16.4482759 L19.6621382,16.4482759 L18.7483451,16.4482759 L18.7483451,18.2758621 L18.7483451,20.1034483 L19.6621382,20.1034483 L20.5759313,20.1034483 L20.5759313,19.1896552 L20.5759313,18.2758621 L22.4035175,18.2758621 L24.2311037,18.2758621 L24.2311037,19.1896552 L24.2311037,20.1034483 L23.3173106,20.1034483 L22.4035175,20.1034483 L22.4035175,21.9310345 L22.4035175,23.7586207 L26.0586899,23.7586207 L29.7138623,23.7586207 L29.7138623,24.6724138 L29.7138623,25.5862069 L32.4552416,25.5862069 L35.1966209,25.5862069 L35.1966209,24.6724138 L35.1966209,23.7586207 L36.110414,23.7586207 L37.0242071,23.7586207 L37.0242071,22.8448276 L37.0242071,21.9310345 L36.110414,21.9310345 L35.1966209,21.9310345 L35.1966209,21.0172414 L35.1966209,20.1034483 L36.110414,20.1034483 L37.0242071,20.1034483 L37.0242071,19.1896552 L37.0242071,18.2758621 L35.1966209,18.2758621 L33.3690347,18.2758621 L33.3690347,17.362069 L33.3690347,16.4482759 L32.4552416,16.4482759 L31.5414485,16.4482759 L31.5414485,17.362069 L31.5414485,18.2758621 L29.7138623,18.2758621 L27.8862761,18.2758621 L27.8862761,17.362069 L27.8862761,16.4482759 L26.9724829,16.4482759 L26.0586899,16.4482759 L26.0586899,15.5344828 L26.0586899,14.6206897 L25.1448968,14.6206897 L24.2311037,14.6206897 L24.2311037,15.5344828 L24.2311037,16.4482759 L23.3173106,16.4482759 L22.4035175,16.4482759 L22.4035175,13.7068966 L22.4035175,10.9655172 L23.3173106,10.9655172 L24.2311037,10.9655172 L24.2311037,10.0517241 L24.2311037,9.13793103 L23.3173106,9.13793103 L22.4035175,9.13793103 L22.4035175,8.22413793 L22.4035175,7.31034483 L21.4897244,7.31034483 L20.5759313,7.31034483 L20.5759313,10.0517241 L20.5759313,12.7931034 L19.6621382,12.7931034 L18.7483451,12.7931034 L18.7483451,10.0517241 L18.7483451,7.31034483 L16.9207589,7.31034483 L15.0931727,7.31034483 L15.0931727,6.39655172 L15.0931727,5.48275862 L16.0069658,5.48275862 L16.9207589,5.48275862 L16.9207589,4.56896552 L16.9207589,3.65517241 L16.0069658,3.65517241 L15.0931727,3.65517241 L15.0931727,2.74137931 L15.0931727,1.82758621 L16.0069658,1.82758621 L16.9207589,1.82758621 L16.9207589,0.913793103 L16.9207589,-5.68434189e-13 L17.834552,-5.68434189e-13 L18.7483451,-5.68434189e-13 L18.7483451,1.82758621 L18.7483451,3.65517241 L19.6621382,3.65517241 L20.5759313,3.65517241 L20.5759313,2.74137931 L20.5759313,1.82758621 L22.4035175,1.82758621 L24.2311037,1.82758621 L24.2311037,2.74137931 L24.2311037,3.65517241 L23.3173106,3.65517241 L22.4035175,3.65517241 L22.4035175,5.48275862 L22.4035175,7.31034483 L26.0586899,7.31034483 L29.7138623,7.31034483 L29.7138623,5.48275862 L29.7138623,3.65517241 L30.6276554,3.65517241 L31.5414485,3.65517241 L31.5414485,2.74137931 L31.5414485,1.82758621 L29.7138623,1.82758621 L27.8862761,1.82758621 L27.8862761,0.913793103 L27.8862761,-5.68434189e-13 L33.3690347,-5.68434189e-13 L38.8517933,-5.68434189e-13 L38.8517933,1.82758621 L38.8517933,3.65517241 L37.9380002,3.65517241 L37.0242071,3.65517241 L37.0242071,2.74137931 L37.0242071,1.82758621 L35.1966209,1.82758621 L33.3690347,1.82758621 L33.3690347,2.74137931 L33.3690347,3.65517241 L34.2828278,3.65517241 L35.1966209,3.65517241 L35.1966209,4.56896552 L35.1966209,5.48275862 L36.110414,5.48275862 L37.0242071,5.48275862 L37.0242071,6.39655172 L37.0242071,7.31034483 L37.9380002,7.31034483 L38.8517933,7.31034483 L38.8517933,8.22413793 L38.8517933,9.13793103 L37.0242071,9.13793103 L35.1966209,9.13793103 L35.1966209,7.31034483 L35.1966209,5.48275862 L34.2828278,5.48275862 L33.3690347,5.48275862 L33.3690347,6.39655172 L33.3690347,7.31034483 L31.5414485,7.31034483 L29.7138623,7.31034483 L29.7138623,8.22413793 L29.7138623,9.13793103 L30.6276554,9.13793103 L31.5414485,9.13793103 L31.5414485,10.9655172 L31.5414485,12.7931034 L30.6276554,12.7931034 L29.7138623,12.7931034 L29.7138623,14.6206897 L29.7138623,16.4482759 L30.6276554,16.4482759 L31.5414485,16.4482759 L31.5414485,15.5344828 L31.5414485,14.6206897 L32.4552416,14.6206897 L33.3690347,14.6206897 L33.3690347,12.7931034 L33.3690347,10.9655172 L34.2828278,10.9655172 L35.1966209,10.9655172 L35.1966209,12.7931034 L35.1966209,14.6206897 L34.2828278,14.6206897 L33.3690347,14.6206897 L33.3690347,15.5344828 L33.3690347,16.4482759 L35.1966209,16.4482759 L37.0242071,16.4482759 L37.0242071,17.362069 L37.0242071,18.2758621 L37.9380002,18.2758621 L38.8517933,18.2758621 L38.8517933,16.4482759 L38.8517933,14.6206897 L39.7655864,14.6206897 L40.6793795,14.6206897 L40.6793795,15.5344828 L40.6793795,16.4482759 L41.5931726,16.4482759 L42.5069657,16.4482759 L42.5069657,15.5344828 L42.5069657,14.6206897 L43.4207588,14.6206897 L44.3345519,14.6206897 L44.3345519,15.5344828 L44.3345519,16.4482759 L45.248345,16.4482759 L46.1621381,16.4482759 L46.1621381,15.5344828 L46.1621381,14.6206897 L47.0759312,14.6206897 L47.9897243,14.6206897 L47.9897243,15.5344828 L47.9897243,16.4482759 L48.9035174,16.4482759 L49.8173105,16.4482759 L49.8173105,15.5344828 L49.8173105,14.6206897 L50.7311036,14.6206897 L51.6448967,14.6206897 L51.6448967,15.5344828 L51.6448967,16.4482759 L52.5586898,16.4482759 L53.4724829,16.4482759 L53.4724829,17.362069 L53.4724829,18.2758621 L48.9035174,18.2758621 L44.3345519,18.2758621 L44.3345519,19.1896552 L44.3345519,20.1034483 L47.0759312,20.1034483 L49.8173105,20.1034483 L49.8173105,21.0172414 L49.8173105,21.9310345 L50.7311036,21.9310345 L51.6448967,21.9310345 L51.6448967,22.8448276 L51.6448967,23.7586207 L52.5586898,23.7586207 L53.4724829,23.7586207 L53.4724829,24.6724138 L53.4724829,25.5862069 L51.6448967,25.5862069 L49.8173105,25.5862069 L49.8173105,26.5 L49.8173105,27.4137931 L51.6448967,27.4137931 L53.4724829,27.4137931 L53.4724829,30.1551724 L53.4724829,32.8965517 L51.6448967,32.8965517 L49.8173105,32.8965517 L49.8173105,31.9827586 L49.8173105,31.0689655 L48.9035174,31.0689655 L47.9897243,31.0689655 L47.9897243,29.2413793 L47.9897243,27.4137931 L47.0759312,27.4137931 L46.1621381,27.4137931 L46.1621381,28.3275862 L46.1621381,29.2413793 L45.248345,29.2413793 L44.3345519,29.2413793 L44.3345519,28.3275862 L44.3345519,27.4137931 L43.4207588,27.4137931 L42.5069657,27.4137931 L42.5069657,26.5 L42.5069657,25.5862069 L41.5931726,25.5862069 L40.6793795,25.5862069 L40.6793795,24.6724138 L40.6793795,23.7586207 L41.5931726,23.7586207 L42.5069657,23.7586207 L42.5069657,22.8448276 L42.5069657,21.9310345 L43.4207588,21.9310345 L44.3345519,21.9310345 L44.3345519,21.0172414 L44.3345519,20.1034483 L43.4207588,20.1034483 L42.5069657,20.1034483 L42.5069657,19.1896552 L42.5069657,18.2758621 L41.5931726,18.2758621 L40.6793795,18.2758621 L40.6793795,20.1034483 L40.6793795,21.9310345 L39.7655864,21.9310345 L38.8517933,21.9310345 L38.8517933,24.6724138 L38.8517933,27.4137931 L39.7655864,27.4137931 L40.6793795,27.4137931 L40.6793795,28.3275862 L40.6793795,29.2413793 L38.8517933,29.2413793 L37.0242071,29.2413793 L37.0242071,30.1551724 L37.0242071,31.0689655 L41.5931726,31.0689655 L46.1621381,31.0689655 L46.1621381,31.9827586 L46.1621381,32.8965517 L47.0759312,32.8965517 L47.9897243,32.8965517 L47.9897243,33.8103448 L47.9897243,34.7241379 L47.0759312,34.7241379 L46.1621381,34.7241379 L46.1621381,38.3793103 L46.1621381,42.0344828 L47.0759312,42.0344828 L47.9897243,42.0344828 L47.9897243,42.9482759 L47.9897243,43.862069 L49.8173105,43.862069 L51.6448967,43.862069 L51.6448967,44.7758621 L51.6448967,45.6896552 L52.5586898,45.6896552 L53.4724829,45.6896552 L53.4724829,46.6034483 L53.4724829,47.5172414 L52.5586898,47.5172414 L51.6448967,47.5172414 L51.6448967,49.3448276 L51.6448967,51.1724138 L50.7311036,51.1724138 L49.8173105,51.1724138 L49.8173105,52.0862069 L49.8173105,53 L48.9035174,53 L47.9897243,53 L47.9897243,52.0862069 L47.9897243,51.1724138 L45.248345,51.1724138 L42.5069657,51.1724138 L42.5069657,50.2586207 L42.5069657,49.3448276 L40.6793795,49.3448276 L38.8517933,49.3448276 L38.8517933,50.2586207 L38.8517933,51.1724138 L37.9380002,51.1724138 L37.0242071,51.1724138 L37.0242071,52.0862069 L37.0242071,53 L36.110414,53 L35.1966209,53 L35.1966209,52.0862069 L35.1966209,51.1724138 L36.110414,51.1724138 L37.0242071,51.1724138 L37.0242071,50.2586207 L37.0242071,49.3448276 L35.1966209,49.3448276 L33.3690347,49.3448276 L33.3690347,47.5172414 L33.3690347,45.6896552 L32.4552416,45.6896552 L31.5414485,45.6896552 L31.5414485,46.6034483 L31.5414485,47.5172414 L30.6276554,47.5172414 L29.7138623,47.5172414 L29.7138623,48.4310345 L29.7138623,49.3448276 L30.6276554,49.3448276 L31.5414485,49.3448276 L31.5414485,50.2586207 L31.5414485,51.1724138 L32.4552416,51.1724138 L33.3690347,51.1724138 L33.3690347,52.0862069 L33.3690347,53 L32.4552416,53 Z M48.9035174,51.1724138 L49.8173105,51.1724138 L49.8173105,50.2586207 L49.8173105,49.3448276 L48.9035174,49.3448276 L47.9897243,49.3448276 L47.9897243,48.4310345 L47.9897243,47.5172414 L48.9035174,47.5172414 L49.8173105,47.5172414 L49.8173105,46.6034483 L49.8173105,45.6896552 L48.9035174,45.6896552 L47.9897243,45.6896552 L47.9897243,46.6034483 L47.9897243,47.5172414 L47.0759312,47.5172414 L46.1621381,47.5172414 L46.1621381,46.6034483 L46.1621381,45.6896552 L45.248345,45.6896552 L44.3345519,45.6896552 L44.3345519,46.6034483 L44.3345519,47.5172414 L45.248345,47.5172414 L46.1621381,47.5172414 L46.1621381,48.4310345 L46.1621381,49.3448276 L47.0759312,49.3448276 L47.9897243,49.3448276 L47.9897243,50.2586207 L47.9897243,51.1724138 L48.9035174,51.1724138 Z M39.7655864,47.5172414 L42.5069657,47.5172414 L42.5069657,46.6034483 L42.5069657,45.6896552 L39.7655864,45.6896552 L37.0242071,45.6896552 L37.0242071,44.7758621 L37.0242071,43.862069 L36.110414,43.862069 L35.1966209,43.862069 L35.1966209,42.9482759 L35.1966209,42.0344828 L33.3690347,42.0344828 L31.5414485,42.0344828 L31.5414485,41.1206897 L31.5414485,40.2068966 L33.3690347,40.2068966 L35.1966209,40.2068966 L35.1966209,39.2931034 L35.1966209,38.3793103 L36.110414,38.3793103 L37.0242071,38.3793103 L37.0242071,37.4655172 L37.0242071,36.5517241 L39.7655864,36.5517241 L42.5069657,36.5517241 L42.5069657,35.637931 L42.5069657,34.7241379 L44.3345519,34.7241379 L46.1621381,34.7241379 L46.1621381,33.8103448 L46.1621381,32.8965517 L44.3345519,32.8965517 L42.5069657,32.8965517 L42.5069657,33.8103448 L42.5069657,34.7241379 L40.6793795,34.7241379 L38.8517933,34.7241379 L38.8517933,33.8103448 L38.8517933,32.8965517 L36.110414,32.8965517 L33.3690347,32.8965517 L33.3690347,31.9827586 L33.3690347,31.0689655 L34.2828278,31.0689655 L35.1966209,31.0689655 L35.1966209,30.1551724 L35.1966209,29.2413793 L34.2828278,29.2413793 L33.3690347,29.2413793 L33.3690347,28.3275862 L33.3690347,27.4137931 L29.7138623,27.4137931 L26.0586899,27.4137931 L26.0586899,28.3275862 L26.0586899,29.2413793 L25.1448968,29.2413793 L24.2311037,29.2413793 L24.2311037,30.1551724 L24.2311037,31.0689655 L23.3173106,31.0689655 L22.4035175,31.0689655 L22.4035175,29.2413793 L22.4035175,27.4137931 L23.3173106,27.4137931 L24.2311037,27.4137931 L24.2311037,26.5 L24.2311037,25.5862069 L23.3173106,25.5862069 L22.4035175,25.5862069 L22.4035175,24.6724138 L22.4035175,23.7586207 L21.4897244,23.7586207 L20.5759313,23.7586207 L20.5759313,22.8448276 L20.5759313,21.9310345 L19.6621382,21.9310345 L18.7483451,21.9310345 L18.7483451,22.8448276 L18.7483451,23.7586207 L19.6621382,23.7586207 L20.5759313,23.7586207 L20.5759313,24.6724138 L20.5759313,25.5862069 L19.6621382,25.5862069 L18.7483451,25.5862069 L18.7483451,27.4137931 L18.7483451,29.2413793 L19.6621382,29.2413793 L20.5759313,29.2413793 L20.5759313,31.0689655 L20.5759313,32.8965517 L19.6621382,32.8965517 L18.7483451,32.8965517 L18.7483451,31.9827586 L18.7483451,31.0689655 L17.834552,31.0689655 L16.9207589,31.0689655 L16.9207589,27.4137931 L16.9207589,23.7586207 L16.0069658,23.7586207 L15.0931727,23.7586207 L15.0931727,22.8448276 L15.0931727,21.9310345 L16.0069658,21.9310345 L16.9207589,21.9310345 L16.9207589,19.1896552 L16.9207589,16.4482759 L14.1793796,16.4482759 L11.4380004,16.4482759 L11.4380004,17.362069 L11.4380004,18.2758621 L10.5242073,18.2758621 L9.61041415,18.2758621 L9.61041415,17.362069 L9.61041415,16.4482759 L8.69662105,16.4482759 L7.78282796,16.4482759 L7.78282796,17.362069 L7.78282796,18.2758621 L6.86903486,18.2758621 L5.95524176,18.2758621 L5.95524176,17.362069 L5.95524176,16.4482759 L5.04144866,16.4482759 L4.12765528,16.4482759 L4.12765528,17.362069 L4.12765528,18.2758621 L5.04144866,18.2758621 L5.95524176,18.2758621 L5.95524176,19.1896552 L5.95524176,20.1034483 L5.04144866,20.1034483 L4.12765528,20.1034483 L4.12765528,21.0172414 L4.12765528,21.9310345 L3.21386218,21.9310345 L2.30006908,21.9310345 L2.30006908,23.7586207 L2.30006908,25.5862069 L4.12765528,25.5862069 L5.95524176,25.5862069 L5.95524176,24.6724138 L5.95524176,23.7586207 L6.86903486,23.7586207 L7.78282796,23.7586207 L7.78282796,26.5 L7.78282796,29.2413793 L6.86903486,29.2413793 L5.95524176,29.2413793 L5.95524176,28.3275862 L5.95524176,27.4137931 L4.12765528,27.4137931 L2.30006908,27.4137931 L2.30006908,28.3275862 L2.30006908,29.2413793 L3.21386218,29.2413793 L4.12765528,29.2413793 L4.12765528,30.1551724 L4.12765528,31.0689655 L5.95524176,31.0689655 L7.78282796,31.0689655 L7.78282796,30.1551724 L7.78282796,29.2413793 L10.5242073,29.2413793 L13.2655865,29.2413793 L13.2655865,30.1551724 L13.2655865,31.0689655 L15.0931727,31.0689655 L16.9207589,31.0689655 L16.9207589,31.9827586 L16.9207589,32.8965517 L16.0069658,32.8965517 L15.0931727,32.8965517 L15.0931727,33.8103448 L15.0931727,34.7241379 L17.834552,34.7241379 L20.5759313,34.7241379 L20.5759313,33.8103448 L20.5759313,32.8965517 L22.4035175,32.8965517 L24.2311037,32.8965517 L24.2311037,33.8103448 L24.2311037,34.7241379 L23.3173106,34.7241379 L22.4035175,34.7241379 L22.4035175,36.5517241 L22.4035175,38.3793103 L25.1448968,38.3793103 L27.8862761,38.3793103 L27.8862761,39.2931034 L27.8862761,40.2068966 L28.8000691,40.2068966 L29.7138623,40.2068966 L29.7138623,41.1206897 L29.7138623,42.0344828 L30.6276554,42.0344828 L31.5414485,42.0344828 L31.5414485,42.9482759 L31.5414485,43.862069 L32.4552416,43.862069 L33.3690347,43.862069 L33.3690347,44.7758621 L33.3690347,45.6896552 L35.1966209,45.6896552 L37.0242071,45.6896552 L37.0242071,46.6034483 L37.0242071,47.5172414 L39.7655864,47.5172414 Z M30.6276554,40.2068966 L29.7138623,40.2068966 L29.7138623,39.2931034 L29.7138623,38.3793103 L28.8000692,38.3793103 L27.8862761,38.3793103 L27.8862761,37.4655172 L27.8862761,36.5517241 L26.972483,36.5517241 L26.0586899,36.5517241 L26.0586899,35.637931 L26.0586899,34.7241379 L26.972483,34.7241379 L27.8862761,34.7241379 L27.8862761,33.8103448 L27.8862761,32.8965517 L28.8000692,32.8965517 L29.7138623,32.8965517 L29.7138623,31.9827586 L29.7138623,31.0689655 L27.8862761,31.0689655 L26.0586899,31.0689655 L26.0586899,30.1551724 L26.0586899,29.2413793 L29.7138623,29.2413793 L33.3690347,29.2413793 L33.3690347,30.1551724 L33.3690347,31.0689655 L32.4552416,31.0689655 L31.5414485,31.0689655 L31.5414485,33.8103448 L31.5414485,36.5517241 L32.4552416,36.5517241 L33.3690347,36.5517241 L33.3690347,37.4655172 L33.3690347,38.3793103 L32.4552416,38.3793103 L31.5414485,38.3793103 L31.5414485,39.2931034 L31.5414485,40.2068966 L30.6276554,40.2068966 Z M30.6276554,38.3793103 L31.5414485,38.3793103 L31.5414485,37.4655172 L31.5414485,36.5517241 L30.6276554,36.5517241 L29.7138623,36.5517241 L29.7138623,37.4655172 L29.7138623,38.3793103 L30.6276554,38.3793103 Z M12.3517934,27.4137931 L11.4380004,27.4137931 L11.4380004,26.5 L11.4380004,25.5862069 L12.3517934,25.5862069 L13.2655865,25.5862069 L13.2655865,24.6724138 L13.2655865,23.7586207 L11.4380004,23.7586207 L9.61041415,23.7586207 L9.61041415,22.8448276 L9.61041415,21.9310345 L8.69662105,21.9310345 L7.78282796,21.9310345 L7.78282796,21.0172414 L7.78282796,20.1034483 L9.61041415,20.1034483 L11.4380004,20.1034483 L11.4380004,19.1896552 L11.4380004,18.2758621 L13.2655865,18.2758621 L15.0931727,18.2758621 L15.0931727,19.1896552 L15.0931727,20.1034483 L13.2655865,20.1034483 L11.4380004,20.1034483 L11.4380004,21.0172414 L11.4380004,21.9310345 L12.3517934,21.9310345 L13.2655865,21.9310345 L13.2655865,22.8448276 L13.2655865,23.7586207 L14.1793796,23.7586207 L15.0931727,23.7586207 L15.0931727,24.6724138 L15.0931727,25.5862069 L14.1793796,25.5862069 L13.2655865,25.5862069 L13.2655865,26.5 L13.2655865,27.4137931 L12.3517934,27.4137931 Z M5.04144866,23.7586207 L4.12765528,23.7586207 L4.12765528,22.8448276 L4.12765528,21.9310345 L5.04144866,21.9310345 L5.95524176,21.9310345 L5.95524176,22.8448276 L5.95524176,23.7586207 L5.04144866,23.7586207 Z M26.972483,43.862069 L27.8862761,43.862069 L27.8862761,42.9482759 L27.8862761,42.0344828 L26.972483,42.0344828 L26.0586899,42.0344828 L26.0586899,42.9482759 L26.0586899,43.862069 L26.972483,43.862069 Z M41.5931726,43.862069 L44.3345519,43.862069 L44.3345519,41.1206897 L44.3345519,38.3793103 L41.5931726,38.3793103 L38.8517933,38.3793103 L38.8517933,41.1206897 L38.8517933,43.862069 L41.5931726,43.862069 Z M41.5931726,42.0344828 L40.6793795,42.0344828 L40.6793795,41.1206897 L40.6793795,40.2068966 L41.5931726,40.2068966 L42.5069657,40.2068966 L42.5069657,41.1206897 L42.5069657,42.0344828 L41.5931726,42.0344828 Z M36.110414,27.4137931 L37.0242071,27.4137931 L37.0242071,26.5 L37.0242071,25.5862069 L36.110414,25.5862069 L35.1966209,25.5862069 L35.1966209,26.5 L35.1966209,27.4137931 L36.110414,27.4137931 Z M47.9897243,25.5862069 L49.8173105,25.5862069 L49.8173105,23.7586207 L49.8173105,21.9310345 L47.0759312,21.9310345 L44.3345519,21.9310345 L44.3345519,22.8448276 L44.3345519,23.7586207 L45.248345,23.7586207 L46.1621381,23.7586207 L46.1621381,24.6724138 L46.1621381,25.5862069 L47.9897243,25.5862069 Z M37.9380002,21.9310345 L38.8517933,21.9310345 L38.8517933,21.0172414 L38.8517933,20.1034483 L37.9380002,20.1034483 L37.0242071,20.1034483 L37.0242071,21.0172414 L37.0242071,21.9310345 L37.9380002,21.9310345 Z M43.4207588,18.2758621 L44.3345519,18.2758621 L44.3345519,17.362069 L44.3345519,16.4482759 L43.4207588,16.4482759 L42.5069657,16.4482759 L42.5069657,17.362069 L42.5069657,18.2758621 L43.4207588,18.2758621 Z M26.972483,14.6206897 L27.8862761,14.6206897 L27.8862761,13.7068966 L27.8862761,12.7931034 L28.8000692,12.7931034 L29.7138623,12.7931034 L29.7138623,11.8793103 L29.7138623,10.9655172 L28.8000692,10.9655172 L27.8862761,10.9655172 L27.8862761,11.8793103 L27.8862761,12.7931034 L26.972483,12.7931034 L26.0586899,12.7931034 L26.0586899,11.8793103 L26.0586899,10.9655172 L25.1448968,10.9655172 L24.2311037,10.9655172 L24.2311037,11.8793103 L24.2311037,12.7931034 L25.1448968,12.7931034 L26.0586899,12.7931034 L26.0586899,13.7068966 L26.0586899,14.6206897 L26.972483,14.6206897 Z M19.6621382,7.31034483 L20.5759313,7.31034483 L20.5759313,6.39655172 L20.5759313,5.48275862 L19.6621382,5.48275862 L18.7483451,5.48275862 L18.7483451,6.39655172 L18.7483451,7.31034483 L19.6621382,7.31034483 Z M32.4552416,5.48275862 L33.3690347,5.48275862 L33.3690347,4.56896552 L33.3690347,3.65517241 L32.4552416,3.65517241 L31.5414485,3.65517241 L31.5414485,4.56896552 L31.5414485,5.48275862 L32.4552416,5.48275862 Z M50.7311036,40.2068966 L49.8173105,40.2068966 L49.8173105,39.2931034 L49.8173105,38.3793103 L48.9035174,38.3793103 L47.9897243,38.3793103 L47.9897243,37.4655172 L47.9897243,36.5517241 L48.9035174,36.5517241 L49.8173105,36.5517241 L49.8173105,37.4655172 L49.8173105,38.3793103 L50.7311036,38.3793103 L51.6448967,38.3793103 L51.6448967,36.5517241 L51.6448967,34.7241379 L52.5586898,34.7241379 L53.4724829,34.7241379 L53.4724829,36.5517241 L53.4724829,38.3793103 L52.5586898,38.3793103 L51.6448967,38.3793103 L51.6448967,39.2931034 L51.6448967,40.2068966 L50.7311036,40.2068966 Z M5.04144866,38.3793103 L4.12765528,38.3793103 L4.12765528,37.4655172 L4.12765528,36.5517241 L5.04144866,36.5517241 L5.95524176,36.5517241 L5.95524176,37.4655172 L5.95524176,38.3793103 L5.04144866,38.3793103 Z M32.4552416,23.7586207 L31.5414485,23.7586207 L31.5414485,22.8448276 L31.5414485,21.9310345 L30.6276554,21.9310345 L29.7138623,21.9310345 L29.7138623,21.0172414 L29.7138623,20.1034483 L30.6276554,20.1034483 L31.5414485,20.1034483 L31.5414485,21.0172414 L31.5414485,21.9310345 L32.4552416,21.9310345 L33.3690347,21.9310345 L33.3690347,22.8448276 L33.3690347,23.7586207 L32.4552416,23.7586207 Z M26.972483,21.9310345 L26.0586899,21.9310345 L26.0586899,21.0172414 L26.0586899,20.1034483 L26.972483,20.1034483 L27.8862761,20.1034483 L27.8862761,21.0172414 L27.8862761,21.9310345 L26.972483,21.9310345 Z M6.86903486,12.7931034 L0.472482886,12.7931034 L0.472482886,6.39655172 L0.472482886,-5.68434189e-13 L6.86903486,-5.68434189e-13 L13.2655865,-5.68434189e-13 L13.2655865,6.39655172 L13.2655865,12.7931034 L6.86903486,12.7931034 Z M6.86903486,10.9655172 L11.4380004,10.9655172 L11.4380004,6.39655172 L11.4380004,1.82758621 L6.86903486,1.82758621 L2.30006908,1.82758621 L2.30006908,6.39655172 L2.30006908,10.9655172 L6.86903486,10.9655172 Z M6.86903486,9.13793103 L4.12765528,9.13793103 L4.12765528,6.39655172 L4.12765528,3.65517241 L6.86903486,3.65517241 L9.61041415,3.65517241 L9.61041415,6.39655172 L9.61041415,9.13793103 L6.86903486,9.13793103 Z M16.0069658,12.7931034 L15.0931727,12.7931034 L15.0931727,10.9655172 L15.0931727,9.13793103 L16.0069658,9.13793103 L16.9207589,9.13793103 L16.9207589,10.9655172 L16.9207589,12.7931034 L16.0069658,12.7931034 Z M37.9380002,12.7931034 L37.0242071,12.7931034 L37.0242071,11.8793103 L37.0242071,10.9655172 L37.9380002,10.9655172 L38.8517933,10.9655172 L38.8517933,11.8793103 L38.8517933,12.7931034 L37.9380002,12.7931034 Z M47.0759312,12.7931034 L40.6793795,12.7931034 L40.6793795,6.39655172 L40.6793795,-5.68434189e-13 L47.0759312,-5.68434189e-13 L53.4724829,-5.68434189e-13 L53.4724829,6.39655172 L53.4724829,12.7931034 L47.0759312,12.7931034 Z M47.0759312,10.9655172 L51.6448967,10.9655172 L51.6448967,6.39655172 L51.6448967,1.82758621 L47.0759312,1.82758621 L42.5069657,1.82758621 L42.5069657,6.39655172 L42.5069657,10.9655172 L47.0759312,10.9655172 Z M47.0759312,9.13793103 L44.3345519,9.13793103 L44.3345519,6.39655172 L44.3345519,3.65517241 L47.0759312,3.65517241 L49.8173105,3.65517241 L49.8173105,6.39655172 L49.8173105,9.13793103 L47.0759312,9.13793103 Z M26.972483,5.48275862 L26.0586899,5.48275862 L26.0586899,4.56896552 L26.0586899,3.65517241 L26.972483,3.65517241 L27.8862761,3.65517241 L27.8862761,4.56896552 L27.8862761,5.48275862 L26.972483,5.48275862 Z" id="path2282"></path>
                </g>
            </g>
        </g>
    </g>
</svg>