<?xml version="1.0" encoding="UTF-8"?>
<svg width="87px" height="92px" viewBox="0 0 87 92" version="1.1" xmlns="http://www.w3.org/2000/svg" xmlns:xlink="http://www.w3.org/1999/xlink">
    <title>QR-CovidPass-green</title>
    <g id="Home" stroke="none" stroke-width="1" fill="none" fill-rule="evenodd">
        <g id="Covid-verde-expandido--lite-" transform="translate(-233.000000, -512.000000)">
            <g id="QR-CovidPass-green" transform="translate(233.000000, 513.000000)">
                <ellipse id="Oval" fill="#99BC06" cx="41.3096774" cy="44.8129032" rx="40.5677419" ry="40.9903226"></ellipse>
                <path d="M14.0258065,80.1975808 C21.5840757,86.2546526 31.1375321,89.8709677 41.5251689,89.8709677 C66.0166773,89.8709677 85.8709677,69.7678309 85.8709677,44.9693548 C85.8709677,20.1708788 66.0166773,0.0677419355 41.5251689,0.0677419355" id="Path" stroke="#016D38" stroke-width="1.34160002" stroke-linecap="round"></path>
                <g id="Codigo_QR_white" transform="translate(15.296774, 18.529032)" fill="#FFFFFF">
                    <path d="M6.24160202,52.2548387 L0,52.2548387 L0,45.9482202 L0,39.6416018 L6.24160202,39.6416018 L12.4832038,39.6416018 L12.4832038,45.9482202 L12.4832038,52.2548387 L6.24160202,52.2548387 Z M6.24160202,50.4529477 L10.699889,50.4529477 L10.699889,45.9482202 L10.699889,41.4434928 L6.24160202,41.4434928 L1.78331478,41.4434928 L1.78331478,45.9482202 L1.78331478,50.4529477 L6.24160202,50.4529477 Z M6.24160202,48.6510567 L3.56662957,48.6510567 L3.56662957,45.9482202 L3.56662957,43.2453838 L6.24160202,43.2453838 L8.9165742,43.2453838 L8.9165742,45.9482202 L8.9165742,48.6510567 L6.24160202,48.6510567 Z M15.1581759,52.2548387 L14.2665186,52.2548387 L14.2665186,47.7501112 L14.2665186,43.2453838 L15.1581759,43.2453838 L16.0498333,43.2453838 L16.0498333,45.0472747 L16.0498333,46.8491657 L16.9414907,46.8491657 L17.8331481,46.8491657 L17.8331481,47.7501112 L17.8331481,48.6510567 L16.9414907,48.6510567 L16.0498333,48.6510567 L16.0498333,50.4529477 L16.0498333,52.2548387 L15.1581759,52.2548387 Z M19.6164629,52.2548387 L17.8331481,52.2548387 L17.8331481,51.3538932 L17.8331481,50.4529477 L18.7248055,50.4529477 L19.6164629,50.4529477 L19.6164629,48.6510567 L19.6164629,46.8491657 L21.3997777,46.8491657 L23.1830925,46.8491657 L23.1830925,47.7501112 L23.1830925,48.6510567 L22.2914351,48.6510567 L21.3997777,48.6510567 L21.3997777,50.4529477 L21.3997777,52.2548387 L19.6164629,52.2548387 Z M31.208009,52.2548387 L30.3163516,52.2548387 L30.3163516,51.3538932 L30.3163516,50.4529477 L29.4246942,50.4529477 L28.5330368,50.4529477 L28.5330368,49.5520022 L28.5330368,48.6510567 L27.6413794,48.6510567 L26.749722,48.6510567 L26.749722,49.5520022 L26.749722,50.4529477 L25.8580647,50.4529477 L24.9664073,50.4529477 L24.9664073,49.5520022 L24.9664073,48.6510567 L25.8580647,48.6510567 L26.749722,48.6510567 L26.749722,47.7501112 L26.749722,46.8491657 L27.6413794,46.8491657 L28.5330368,46.8491657 L28.5330368,45.9482202 L28.5330368,45.0472747 L26.749722,45.0472747 L24.9664073,45.0472747 L24.9664073,44.1463293 L24.9664073,43.2453838 L24.0747499,43.2453838 L23.1830925,43.2453838 L23.1830925,44.1463293 L23.1830925,45.0472747 L22.2914351,45.0472747 L21.3997777,45.0472747 L21.3997777,43.2453838 L21.3997777,41.4434928 L22.2914351,41.4434928 L23.1830925,41.4434928 L23.1830925,40.5425473 L23.1830925,39.6416018 L22.2914351,39.6416018 L21.3997777,39.6416018 L21.3997777,38.7406563 L21.3997777,37.8397108 L19.6164629,37.8397108 L17.8331481,37.8397108 L17.8331481,39.6416018 L17.8331481,41.4434928 L18.7248055,41.4434928 L19.6164629,41.4434928 L19.6164629,42.3444383 L19.6164629,43.2453838 L18.7248055,43.2453838 L17.8331481,43.2453838 L17.8331481,42.3444383 L17.8331481,41.4434928 L16.0498333,41.4434928 L14.2665186,41.4434928 L14.2665186,39.6416018 L14.2665186,37.8397108 L16.0498333,37.8397108 L17.8331481,37.8397108 L17.8331481,36.9387653 L17.8331481,36.0378198 L15.1581759,36.0378198 L12.4832038,36.0378198 L12.4832038,36.9387653 L12.4832038,37.8397108 L11.5915464,37.8397108 L10.699889,37.8397108 L10.699889,36.9387653 L10.699889,36.0378198 L11.5915464,36.0378198 L12.4832038,36.0378198 L12.4832038,35.1368743 L12.4832038,34.2359288 L11.5915464,34.2359288 L10.699889,34.2359288 L10.699889,33.3349833 L10.699889,32.4340378 L11.5915464,32.4340378 L12.4832038,32.4340378 L12.4832038,31.5330923 L12.4832038,30.6321468 L9.80823159,30.6321468 L7.13325941,30.6321468 L7.13325941,31.5330923 L7.13325941,32.4340378 L6.24160202,32.4340378 L5.34994463,32.4340378 L5.34994463,33.3349833 L5.34994463,34.2359288 L4.45828724,34.2359288 L3.56662957,34.2359288 L3.56662957,32.4340378 L3.56662957,30.6321468 L2.67497218,30.6321468 L1.78331478,30.6321468 L1.78331478,34.2359288 L1.78331478,37.8397108 L0.891657392,37.8397108 L0,37.8397108 L0,34.2359288 L0,30.6321468 L0.891657392,30.6321468 L1.78331478,30.6321468 L1.78331478,29.7312013 L1.78331478,28.8302558 L0.891657392,28.8302558 L0,28.8302558 L0,24.3255284 L0,19.8208009 L1.78331478,19.8208009 L3.56662957,19.8208009 L3.56662957,18.9198554 L3.56662957,18.0189099 L1.78331478,18.0189099 L0,18.0189099 L0,16.2170189 L0,14.4151279 L4.45828724,14.4151279 L8.9165742,14.4151279 L8.9165742,15.3160734 L8.9165742,16.2170189 L9.80823159,16.2170189 L10.699889,16.2170189 L10.699889,15.3160734 L10.699889,14.4151279 L15.1581759,14.4151279 L19.6164629,14.4151279 L19.6164629,15.3160734 L19.6164629,16.2170189 L18.7248055,16.2170189 L17.8331481,16.2170189 L17.8331481,18.0189099 L17.8331481,19.8208009 L18.7248055,19.8208009 L19.6164629,19.8208009 L19.6164629,18.9198554 L19.6164629,18.0189099 L21.3997777,18.0189099 L23.1830925,18.0189099 L23.1830925,18.9198554 L23.1830925,19.8208009 L22.2914351,19.8208009 L21.3997777,19.8208009 L21.3997777,21.6226919 L21.3997777,23.4245829 L24.9664073,23.4245829 L28.5330368,23.4245829 L28.5330368,24.3255284 L28.5330368,25.2264739 L31.208009,25.2264739 L33.8829812,25.2264739 L33.8829812,24.3255284 L33.8829812,23.4245829 L34.7746386,23.4245829 L35.666296,23.4245829 L35.666296,22.5236374 L35.666296,21.6226919 L34.7746386,21.6226919 L33.8829812,21.6226919 L33.8829812,20.7217464 L33.8829812,19.8208009 L34.7746386,19.8208009 L35.666296,19.8208009 L35.666296,18.9198554 L35.666296,18.0189099 L33.8829812,18.0189099 L32.0996664,18.0189099 L32.0996664,17.1179644 L32.0996664,16.2170189 L31.208009,16.2170189 L30.3163516,16.2170189 L30.3163516,17.1179644 L30.3163516,18.0189099 L28.5330368,18.0189099 L26.749722,18.0189099 L26.749722,17.1179644 L26.749722,16.2170189 L25.8580647,16.2170189 L24.9664073,16.2170189 L24.9664073,15.3160734 L24.9664073,14.4151279 L24.0747499,14.4151279 L23.1830925,14.4151279 L23.1830925,15.3160734 L23.1830925,16.2170189 L22.2914351,16.2170189 L21.3997777,16.2170189 L21.3997777,13.5141824 L21.3997777,10.8113459 L22.2914351,10.8113459 L23.1830925,10.8113459 L23.1830925,9.91040044 L23.1830925,9.00945495 L22.2914351,9.00945495 L21.3997777,9.00945495 L21.3997777,8.10850945 L21.3997777,7.20756396 L20.5081203,7.20756396 L19.6164629,7.20756396 L19.6164629,9.91040044 L19.6164629,12.6132369 L18.7248055,12.6132369 L17.8331481,12.6132369 L17.8331481,9.91040044 L17.8331481,7.20756396 L16.0498333,7.20756396 L14.2665186,7.20756396 L14.2665186,6.30661846 L14.2665186,5.40567297 L15.1581759,5.40567297 L16.0498333,5.40567297 L16.0498333,4.50472747 L16.0498333,3.60378198 L15.1581759,3.60378198 L14.2665186,3.60378198 L14.2665186,2.70283648 L14.2665186,1.80189099 L15.1581759,1.80189099 L16.0498333,1.80189099 L16.0498333,0.900945495 L16.0498333,0 L16.9414907,0 L17.8331481,0 L17.8331481,1.80189099 L17.8331481,3.60378198 L18.7248055,3.60378198 L19.6164629,3.60378198 L19.6164629,2.70283648 L19.6164629,1.80189099 L21.3997777,1.80189099 L23.1830925,1.80189099 L23.1830925,2.70283648 L23.1830925,3.60378198 L22.2914351,3.60378198 L21.3997777,3.60378198 L21.3997777,5.40567297 L21.3997777,7.20756396 L24.9664073,7.20756396 L28.5330368,7.20756396 L28.5330368,5.40567297 L28.5330368,3.60378198 L29.4246942,3.60378198 L30.3163516,3.60378198 L30.3163516,2.70283648 L30.3163516,1.80189099 L28.5330368,1.80189099 L26.749722,1.80189099 L26.749722,0.900945495 L26.749722,0 L32.0996664,0 L37.4496108,0 L37.4496108,1.80189099 L37.4496108,3.60378198 L36.5579534,3.60378198 L35.666296,3.60378198 L35.666296,2.70283648 L35.666296,1.80189099 L33.8829812,1.80189099 L32.0996664,1.80189099 L32.0996664,2.70283648 L32.0996664,3.60378198 L32.9913238,3.60378198 L33.8829812,3.60378198 L33.8829812,4.50472747 L33.8829812,5.40567297 L34.7746386,5.40567297 L35.666296,5.40567297 L35.666296,6.30661846 L35.666296,7.20756396 L36.5579534,7.20756396 L37.4496108,7.20756396 L37.4496108,8.10850945 L37.4496108,9.00945495 L35.666296,9.00945495 L33.8829812,9.00945495 L33.8829812,7.20756396 L33.8829812,5.40567297 L32.9913238,5.40567297 L32.0996664,5.40567297 L32.0996664,6.30661846 L32.0996664,7.20756396 L30.3163516,7.20756396 L28.5330368,7.20756396 L28.5330368,8.10850945 L28.5330368,9.00945495 L29.4246942,9.00945495 L30.3163516,9.00945495 L30.3163516,10.8113459 L30.3163516,12.6132369 L29.4246942,12.6132369 L28.5330368,12.6132369 L28.5330368,14.4151279 L28.5330368,16.2170189 L29.4246942,16.2170189 L30.3163516,16.2170189 L30.3163516,15.3160734 L30.3163516,14.4151279 L31.208009,14.4151279 L32.0996664,14.4151279 L32.0996664,12.6132369 L32.0996664,10.8113459 L32.9913238,10.8113459 L33.8829812,10.8113459 L33.8829812,12.6132369 L33.8829812,14.4151279 L32.9913238,14.4151279 L32.0996664,14.4151279 L32.0996664,15.3160734 L32.0996664,16.2170189 L33.8829812,16.2170189 L35.666296,16.2170189 L35.666296,17.1179644 L35.666296,18.0189099 L36.5579534,18.0189099 L37.4496108,18.0189099 L37.4496108,16.2170189 L37.4496108,14.4151279 L38.3412681,14.4151279 L39.2329255,14.4151279 L39.2329255,15.3160734 L39.2329255,16.2170189 L40.1245829,16.2170189 L41.0162403,16.2170189 L41.0162403,15.3160734 L41.0162403,14.4151279 L41.9078977,14.4151279 L42.7995551,14.4151279 L42.7995551,15.3160734 L42.7995551,16.2170189 L43.6912125,16.2170189 L44.5828699,16.2170189 L44.5828699,15.3160734 L44.5828699,14.4151279 L45.4745273,14.4151279 L46.3661847,14.4151279 L46.3661847,15.3160734 L46.3661847,16.2170189 L47.2578421,16.2170189 L48.1494995,16.2170189 L48.1494995,15.3160734 L48.1494995,14.4151279 L49.0411569,14.4151279 L49.9328142,14.4151279 L49.9328142,15.3160734 L49.9328142,16.2170189 L50.8244716,16.2170189 L51.716129,16.2170189 L51.716129,17.1179644 L51.716129,18.0189099 L47.2578421,18.0189099 L42.7995551,18.0189099 L42.7995551,18.9198554 L42.7995551,19.8208009 L45.4745273,19.8208009 L48.1494995,19.8208009 L48.1494995,20.7217464 L48.1494995,21.6226919 L49.0411569,21.6226919 L49.9328142,21.6226919 L49.9328142,22.5236374 L49.9328142,23.4245829 L50.8244716,23.4245829 L51.716129,23.4245829 L51.716129,24.3255284 L51.716129,25.2264739 L49.9328142,25.2264739 L48.1494995,25.2264739 L48.1494995,26.1274194 L48.1494995,27.0283648 L49.9328142,27.0283648 L51.716129,27.0283648 L51.716129,29.7312013 L51.716129,32.4340378 L49.9328142,32.4340378 L48.1494995,32.4340378 L48.1494995,31.5330923 L48.1494995,30.6321468 L47.2578421,30.6321468 L46.3661847,30.6321468 L46.3661847,28.8302558 L46.3661847,27.0283648 L45.4745273,27.0283648 L44.5828699,27.0283648 L44.5828699,27.9293103 L44.5828699,28.8302558 L43.6912125,28.8302558 L42.7995551,28.8302558 L42.7995551,27.9293103 L42.7995551,27.0283648 L41.9078977,27.0283648 L41.0162403,27.0283648 L41.0162403,26.1274194 L41.0162403,25.2264739 L40.1245829,25.2264739 L39.2329255,25.2264739 L39.2329255,24.3255284 L39.2329255,23.4245829 L40.1245829,23.4245829 L41.0162403,23.4245829 L41.0162403,22.5236374 L41.0162403,21.6226919 L41.9078977,21.6226919 L42.7995551,21.6226919 L42.7995551,20.7217464 L42.7995551,19.8208009 L41.9078977,19.8208009 L41.0162403,19.8208009 L41.0162403,18.9198554 L41.0162403,18.0189099 L40.1245829,18.0189099 L39.2329255,18.0189099 L39.2329255,19.8208009 L39.2329255,21.6226919 L38.3412681,21.6226919 L37.4496108,21.6226919 L37.4496108,24.3255284 L37.4496108,27.0283648 L38.3412681,27.0283648 L39.2329255,27.0283648 L39.2329255,27.9293103 L39.2329255,28.8302558 L37.4496108,28.8302558 L35.666296,28.8302558 L35.666296,29.7312013 L35.666296,30.6321468 L40.1245829,30.6321468 L44.5828699,30.6321468 L44.5828699,31.5330923 L44.5828699,32.4340378 L45.4745273,32.4340378 L46.3661847,32.4340378 L46.3661847,33.3349833 L46.3661847,34.2359288 L45.4745273,34.2359288 L44.5828699,34.2359288 L44.5828699,37.8397108 L44.5828699,41.4434928 L45.4745273,41.4434928 L46.3661847,41.4434928 L46.3661847,42.3444383 L46.3661847,43.2453838 L48.1494995,43.2453838 L49.9328142,43.2453838 L49.9328142,44.1463293 L49.9328142,45.0472747 L50.8244716,45.0472747 L51.716129,45.0472747 L51.716129,45.9482202 L51.716129,46.8491657 L50.8244716,46.8491657 L49.9328142,46.8491657 L49.9328142,48.6510567 L49.9328142,50.4529477 L49.0411569,50.4529477 L48.1494995,50.4529477 L48.1494995,51.3538932 L48.1494995,52.2548387 L47.2578421,52.2548387 L46.3661847,52.2548387 L46.3661847,51.3538932 L46.3661847,50.4529477 L43.6912125,50.4529477 L41.0162403,50.4529477 L41.0162403,49.5520022 L41.0162403,48.6510567 L39.2329255,48.6510567 L37.4496108,48.6510567 L37.4496108,49.5520022 L37.4496108,50.4529477 L36.5579534,50.4529477 L35.666296,50.4529477 L35.666296,51.3538932 L35.666296,52.2548387 L34.7746386,52.2548387 L33.8829812,52.2548387 L33.8829812,51.3538932 L33.8829812,50.4529477 L34.7746386,50.4529477 L35.666296,50.4529477 L35.666296,49.5520022 L35.666296,48.6510567 L33.8829812,48.6510567 L32.0996664,48.6510567 L32.0996664,46.8491657 L32.0996664,45.0472747 L31.208009,45.0472747 L30.3163516,45.0472747 L30.3163516,45.9482202 L30.3163516,46.8491657 L29.4246942,46.8491657 L28.5330368,46.8491657 L28.5330368,47.7501112 L28.5330368,48.6510567 L29.4246942,48.6510567 L30.3163516,48.6510567 L30.3163516,49.5520022 L30.3163516,50.4529477 L31.208009,50.4529477 L32.0996664,50.4529477 L32.0996664,51.3538932 L32.0996664,52.2548387 L31.208009,52.2548387 Z M47.2578421,50.4529477 L48.1494995,50.4529477 L48.1494995,49.5520022 L48.1494995,48.6510567 L47.2578421,48.6510567 L46.3661847,48.6510567 L46.3661847,47.7501112 L46.3661847,46.8491657 L47.2578421,46.8491657 L48.1494995,46.8491657 L48.1494995,45.9482202 L48.1494995,45.0472747 L47.2578421,45.0472747 L46.3661847,45.0472747 L46.3661847,45.9482202 L46.3661847,46.8491657 L45.4745273,46.8491657 L44.5828699,46.8491657 L44.5828699,45.9482202 L44.5828699,45.0472747 L43.6912125,45.0472747 L42.7995551,45.0472747 L42.7995551,45.9482202 L42.7995551,46.8491657 L43.6912125,46.8491657 L44.5828699,46.8491657 L44.5828699,47.7501112 L44.5828699,48.6510567 L45.4745273,48.6510567 L46.3661847,48.6510567 L46.3661847,49.5520022 L46.3661847,50.4529477 L47.2578421,50.4529477 Z M38.3412681,46.8491657 L41.0162403,46.8491657 L41.0162403,45.9482202 L41.0162403,45.0472747 L38.3412681,45.0472747 L35.666296,45.0472747 L35.666296,44.1463293 L35.666296,43.2453838 L34.7746386,43.2453838 L33.8829812,43.2453838 L33.8829812,42.3444383 L33.8829812,41.4434928 L32.0996664,41.4434928 L30.3163516,41.4434928 L30.3163516,40.5425473 L30.3163516,39.6416018 L32.0996664,39.6416018 L33.8829812,39.6416018 L33.8829812,38.7406563 L33.8829812,37.8397108 L34.7746386,37.8397108 L35.666296,37.8397108 L35.666296,36.9387653 L35.666296,36.0378198 L38.3412681,36.0378198 L41.0162403,36.0378198 L41.0162403,35.1368743 L41.0162403,34.2359288 L42.7995551,34.2359288 L44.5828699,34.2359288 L44.5828699,33.3349833 L44.5828699,32.4340378 L42.7995551,32.4340378 L41.0162403,32.4340378 L41.0162403,33.3349833 L41.0162403,34.2359288 L39.2329255,34.2359288 L37.4496108,34.2359288 L37.4496108,33.3349833 L37.4496108,32.4340378 L34.7746386,32.4340378 L32.0996664,32.4340378 L32.0996664,31.5330923 L32.0996664,30.6321468 L32.9913238,30.6321468 L33.8829812,30.6321468 L33.8829812,29.7312013 L33.8829812,28.8302558 L32.9913238,28.8302558 L32.0996664,28.8302558 L32.0996664,27.9293103 L32.0996664,27.0283648 L28.5330368,27.0283648 L24.9664073,27.0283648 L24.9664073,27.9293103 L24.9664073,28.8302558 L24.0747499,28.8302558 L23.1830925,28.8302558 L23.1830925,29.7312013 L23.1830925,30.6321468 L22.2914351,30.6321468 L21.3997777,30.6321468 L21.3997777,28.8302558 L21.3997777,27.0283648 L22.2914351,27.0283648 L23.1830925,27.0283648 L23.1830925,26.1274194 L23.1830925,25.2264739 L22.2914351,25.2264739 L21.3997777,25.2264739 L21.3997777,24.3255284 L21.3997777,23.4245829 L20.5081203,23.4245829 L19.6164629,23.4245829 L19.6164629,22.5236374 L19.6164629,21.6226919 L18.7248055,21.6226919 L17.8331481,21.6226919 L17.8331481,22.5236374 L17.8331481,23.4245829 L18.7248055,23.4245829 L19.6164629,23.4245829 L19.6164629,24.3255284 L19.6164629,25.2264739 L18.7248055,25.2264739 L17.8331481,25.2264739 L17.8331481,27.0283648 L17.8331481,28.8302558 L18.7248055,28.8302558 L19.6164629,28.8302558 L19.6164629,30.6321468 L19.6164629,32.4340378 L18.7248055,32.4340378 L17.8331481,32.4340378 L17.8331481,31.5330923 L17.8331481,30.6321468 L16.9414907,30.6321468 L16.0498333,30.6321468 L16.0498333,27.0283648 L16.0498333,23.4245829 L15.1581759,23.4245829 L14.2665186,23.4245829 L14.2665186,22.5236374 L14.2665186,21.6226919 L15.1581759,21.6226919 L16.0498333,21.6226919 L16.0498333,18.9198554 L16.0498333,16.2170189 L13.3748612,16.2170189 L10.699889,16.2170189 L10.699889,17.1179644 L10.699889,18.0189099 L9.80823159,18.0189099 L8.9165742,18.0189099 L8.9165742,17.1179644 L8.9165742,16.2170189 L8.02491681,16.2170189 L7.13325941,16.2170189 L7.13325941,17.1179644 L7.13325941,18.0189099 L6.24160202,18.0189099 L5.34994463,18.0189099 L5.34994463,17.1179644 L5.34994463,16.2170189 L4.45828724,16.2170189 L3.56662957,16.2170189 L3.56662957,17.1179644 L3.56662957,18.0189099 L4.45828724,18.0189099 L5.34994463,18.0189099 L5.34994463,18.9198554 L5.34994463,19.8208009 L4.45828724,19.8208009 L3.56662957,19.8208009 L3.56662957,20.7217464 L3.56662957,21.6226919 L2.67497218,21.6226919 L1.78331478,21.6226919 L1.78331478,23.4245829 L1.78331478,25.2264739 L3.56662957,25.2264739 L5.34994463,25.2264739 L5.34994463,24.3255284 L5.34994463,23.4245829 L6.24160202,23.4245829 L7.13325941,23.4245829 L7.13325941,26.1274194 L7.13325941,28.8302558 L6.24160202,28.8302558 L5.34994463,28.8302558 L5.34994463,27.9293103 L5.34994463,27.0283648 L3.56662957,27.0283648 L1.78331478,27.0283648 L1.78331478,27.9293103 L1.78331478,28.8302558 L2.67497218,28.8302558 L3.56662957,28.8302558 L3.56662957,29.7312013 L3.56662957,30.6321468 L5.34994463,30.6321468 L7.13325941,30.6321468 L7.13325941,29.7312013 L7.13325941,28.8302558 L9.80823159,28.8302558 L12.4832038,28.8302558 L12.4832038,29.7312013 L12.4832038,30.6321468 L14.2665186,30.6321468 L16.0498333,30.6321468 L16.0498333,31.5330923 L16.0498333,32.4340378 L15.1581759,32.4340378 L14.2665186,32.4340378 L14.2665186,33.3349833 L14.2665186,34.2359288 L16.9414907,34.2359288 L19.6164629,34.2359288 L19.6164629,33.3349833 L19.6164629,32.4340378 L21.3997777,32.4340378 L23.1830925,32.4340378 L23.1830925,33.3349833 L23.1830925,34.2359288 L22.2914351,34.2359288 L21.3997777,34.2359288 L21.3997777,36.0378198 L21.3997777,37.8397108 L24.0747499,37.8397108 L26.749722,37.8397108 L26.749722,38.7406563 L26.749722,39.6416018 L27.6413794,39.6416018 L28.5330368,39.6416018 L28.5330368,40.5425473 L28.5330368,41.4434928 L29.4246942,41.4434928 L30.3163516,41.4434928 L30.3163516,42.3444383 L30.3163516,43.2453838 L31.208009,43.2453838 L32.0996664,43.2453838 L32.0996664,44.1463293 L32.0996664,45.0472747 L33.8829812,45.0472747 L35.666296,45.0472747 L35.666296,45.9482202 L35.666296,46.8491657 L38.3412681,46.8491657 Z M29.4246942,39.6416018 L28.5330368,39.6416018 L28.5330368,38.7406563 L28.5330368,37.8397108 L27.6413794,37.8397108 L26.749722,37.8397108 L26.749722,36.9387653 L26.749722,36.0378198 L25.8580647,36.0378198 L24.9664073,36.0378198 L24.9664073,35.1368743 L24.9664073,34.2359288 L25.8580647,34.2359288 L26.749722,34.2359288 L26.749722,33.3349833 L26.749722,32.4340378 L27.6413794,32.4340378 L28.5330368,32.4340378 L28.5330368,31.5330923 L28.5330368,30.6321468 L26.749722,30.6321468 L24.9664073,30.6321468 L24.9664073,29.7312013 L24.9664073,28.8302558 L28.5330368,28.8302558 L32.0996664,28.8302558 L32.0996664,29.7312013 L32.0996664,30.6321468 L31.208009,30.6321468 L30.3163516,30.6321468 L30.3163516,33.3349833 L30.3163516,36.0378198 L31.208009,36.0378198 L32.0996664,36.0378198 L32.0996664,36.9387653 L32.0996664,37.8397108 L31.208009,37.8397108 L30.3163516,37.8397108 L30.3163516,38.7406563 L30.3163516,39.6416018 L29.4246942,39.6416018 Z M29.4246942,37.8397108 L30.3163516,37.8397108 L30.3163516,36.9387653 L30.3163516,36.0378198 L29.4246942,36.0378198 L28.5330368,36.0378198 L28.5330368,36.9387653 L28.5330368,37.8397108 L29.4246942,37.8397108 Z M11.5915464,27.0283648 L10.699889,27.0283648 L10.699889,26.1274194 L10.699889,25.2264739 L11.5915464,25.2264739 L12.4832038,25.2264739 L12.4832038,24.3255284 L12.4832038,23.4245829 L10.699889,23.4245829 L8.9165742,23.4245829 L8.9165742,22.5236374 L8.9165742,21.6226919 L8.02491681,21.6226919 L7.13325941,21.6226919 L7.13325941,20.7217464 L7.13325941,19.8208009 L8.9165742,19.8208009 L10.699889,19.8208009 L10.699889,18.9198554 L10.699889,18.0189099 L12.4832038,18.0189099 L14.2665186,18.0189099 L14.2665186,18.9198554 L14.2665186,19.8208009 L12.4832038,19.8208009 L10.699889,19.8208009 L10.699889,20.7217464 L10.699889,21.6226919 L11.5915464,21.6226919 L12.4832038,21.6226919 L12.4832038,22.5236374 L12.4832038,23.4245829 L13.3748612,23.4245829 L14.2665186,23.4245829 L14.2665186,24.3255284 L14.2665186,25.2264739 L13.3748612,25.2264739 L12.4832038,25.2264739 L12.4832038,26.1274194 L12.4832038,27.0283648 L11.5915464,27.0283648 Z M4.45828724,23.4245829 L3.56662957,23.4245829 L3.56662957,22.5236374 L3.56662957,21.6226919 L4.45828724,21.6226919 L5.34994463,21.6226919 L5.34994463,22.5236374 L5.34994463,23.4245829 L4.45828724,23.4245829 Z M25.8580647,43.2453838 L26.749722,43.2453838 L26.749722,42.3444383 L26.749722,41.4434928 L25.8580647,41.4434928 L24.9664073,41.4434928 L24.9664073,42.3444383 L24.9664073,43.2453838 L25.8580647,43.2453838 Z M40.1245829,43.2453838 L42.7995551,43.2453838 L42.7995551,40.5425473 L42.7995551,37.8397108 L40.1245829,37.8397108 L37.4496108,37.8397108 L37.4496108,40.5425473 L37.4496108,43.2453838 L40.1245829,43.2453838 Z M40.1245829,41.4434928 L39.2329255,41.4434928 L39.2329255,40.5425473 L39.2329255,39.6416018 L40.1245829,39.6416018 L41.0162403,39.6416018 L41.0162403,40.5425473 L41.0162403,41.4434928 L40.1245829,41.4434928 Z M34.7746386,27.0283648 L35.666296,27.0283648 L35.666296,26.1274194 L35.666296,25.2264739 L34.7746386,25.2264739 L33.8829812,25.2264739 L33.8829812,26.1274194 L33.8829812,27.0283648 L34.7746386,27.0283648 Z M46.3661847,25.2264739 L48.1494995,25.2264739 L48.1494995,23.4245829 L48.1494995,21.6226919 L45.4745273,21.6226919 L42.7995551,21.6226919 L42.7995551,22.5236374 L42.7995551,23.4245829 L43.6912125,23.4245829 L44.5828699,23.4245829 L44.5828699,24.3255284 L44.5828699,25.2264739 L46.3661847,25.2264739 Z M36.5579534,21.6226919 L37.4496108,21.6226919 L37.4496108,20.7217464 L37.4496108,19.8208009 L36.5579534,19.8208009 L35.666296,19.8208009 L35.666296,20.7217464 L35.666296,21.6226919 L36.5579534,21.6226919 Z M41.9078977,18.0189099 L42.7995551,18.0189099 L42.7995551,17.1179644 L42.7995551,16.2170189 L41.9078977,16.2170189 L41.0162403,16.2170189 L41.0162403,17.1179644 L41.0162403,18.0189099 L41.9078977,18.0189099 Z M25.8580647,14.4151279 L26.749722,14.4151279 L26.749722,13.5141824 L26.749722,12.6132369 L27.6413794,12.6132369 L28.5330368,12.6132369 L28.5330368,11.7122914 L28.5330368,10.8113459 L27.6413794,10.8113459 L26.749722,10.8113459 L26.749722,11.7122914 L26.749722,12.6132369 L25.8580647,12.6132369 L24.9664073,12.6132369 L24.9664073,11.7122914 L24.9664073,10.8113459 L24.0747499,10.8113459 L23.1830925,10.8113459 L23.1830925,11.7122914 L23.1830925,12.6132369 L24.0747499,12.6132369 L24.9664073,12.6132369 L24.9664073,13.5141824 L24.9664073,14.4151279 L25.8580647,14.4151279 Z M18.7248055,7.20756396 L19.6164629,7.20756396 L19.6164629,6.30661846 L19.6164629,5.40567297 L18.7248055,5.40567297 L17.8331481,5.40567297 L17.8331481,6.30661846 L17.8331481,7.20756396 L18.7248055,7.20756396 Z M31.208009,5.40567297 L32.0996664,5.40567297 L32.0996664,4.50472747 L32.0996664,3.60378198 L31.208009,3.60378198 L30.3163516,3.60378198 L30.3163516,4.50472747 L30.3163516,5.40567297 L31.208009,5.40567297 Z M49.0411569,39.6416018 L48.1494995,39.6416018 L48.1494995,38.7406563 L48.1494995,37.8397108 L47.2578421,37.8397108 L46.3661847,37.8397108 L46.3661847,36.9387653 L46.3661847,36.0378198 L47.2578421,36.0378198 L48.1494995,36.0378198 L48.1494995,36.9387653 L48.1494995,37.8397108 L49.0411569,37.8397108 L49.9328142,37.8397108 L49.9328142,36.0378198 L49.9328142,34.2359288 L50.8244716,34.2359288 L51.716129,34.2359288 L51.716129,36.0378198 L51.716129,37.8397108 L50.8244716,37.8397108 L49.9328142,37.8397108 L49.9328142,38.7406563 L49.9328142,39.6416018 L49.0411569,39.6416018 Z M4.45828724,37.8397108 L3.56662957,37.8397108 L3.56662957,36.9387653 L3.56662957,36.0378198 L4.45828724,36.0378198 L5.34994463,36.0378198 L5.34994463,36.9387653 L5.34994463,37.8397108 L4.45828724,37.8397108 Z M31.208009,23.4245829 L30.3163516,23.4245829 L30.3163516,22.5236374 L30.3163516,21.6226919 L29.4246942,21.6226919 L28.5330368,21.6226919 L28.5330368,20.7217464 L28.5330368,19.8208009 L29.4246942,19.8208009 L30.3163516,19.8208009 L30.3163516,20.7217464 L30.3163516,21.6226919 L31.208009,21.6226919 L32.0996664,21.6226919 L32.0996664,22.5236374 L32.0996664,23.4245829 L31.208009,23.4245829 Z M25.8580647,21.6226919 L24.9664073,21.6226919 L24.9664073,20.7217464 L24.9664073,19.8208009 L25.8580647,19.8208009 L26.749722,19.8208009 L26.749722,20.7217464 L26.749722,21.6226919 L25.8580647,21.6226919 Z M6.24160202,12.6132369 L0,12.6132369 L0,6.30661846 L0,0 L6.24160202,0 L12.4832038,0 L12.4832038,6.30661846 L12.4832038,12.6132369 L6.24160202,12.6132369 Z M6.24160202,10.8113459 L10.699889,10.8113459 L10.699889,6.30661846 L10.699889,1.80189099 L6.24160202,1.80189099 L1.78331478,1.80189099 L1.78331478,6.30661846 L1.78331478,10.8113459 L6.24160202,10.8113459 Z M6.24160202,9.00945495 L3.56662957,9.00945495 L3.56662957,6.30661846 L3.56662957,3.60378198 L6.24160202,3.60378198 L8.9165742,3.60378198 L8.9165742,6.30661846 L8.9165742,9.00945495 L6.24160202,9.00945495 Z M15.1581759,12.6132369 L14.2665186,12.6132369 L14.2665186,10.8113459 L14.2665186,9.00945495 L15.1581759,9.00945495 L16.0498333,9.00945495 L16.0498333,10.8113459 L16.0498333,12.6132369 L15.1581759,12.6132369 Z M36.5579534,12.6132369 L35.666296,12.6132369 L35.666296,11.7122914 L35.666296,10.8113459 L36.5579534,10.8113459 L37.4496108,10.8113459 L37.4496108,11.7122914 L37.4496108,12.6132369 L36.5579534,12.6132369 Z M45.4745273,12.6132369 L39.2329255,12.6132369 L39.2329255,6.30661846 L39.2329255,0 L45.4745273,0 L51.716129,0 L51.716129,6.30661846 L51.716129,12.6132369 L45.4745273,12.6132369 Z M45.4745273,10.8113459 L49.9328142,10.8113459 L49.9328142,6.30661846 L49.9328142,1.80189099 L45.4745273,1.80189099 L41.0162403,1.80189099 L41.0162403,6.30661846 L41.0162403,10.8113459 L45.4745273,10.8113459 Z M45.4745273,9.00945495 L42.7995551,9.00945495 L42.7995551,6.30661846 L42.7995551,3.60378198 L45.4745273,3.60378198 L48.1494995,3.60378198 L48.1494995,6.30661846 L48.1494995,9.00945495 L45.4745273,9.00945495 Z M25.8580647,5.40567297 L24.9664073,5.40567297 L24.9664073,4.50472747 L24.9664073,3.60378198 L25.8580647,3.60378198 L26.749722,3.60378198 L26.749722,4.50472747 L26.749722,5.40567297 L25.8580647,5.40567297 Z" id="path2282"></path>
                </g>
            </g>
        </g>
    </g>
</svg>