<?xml version="1.0" encoding="UTF-8"?>
<svg width="59px" height="51px" viewBox="0 0 59 51" version="1.1" xmlns="http://www.w3.org/2000/svg" xmlns:xlink="http://www.w3.org/1999/xlink">
    <title>content</title>
    <g id="Menu-1" stroke="none" stroke-width="1" fill="none" fill-rule="evenodd">
        <g id="Bienestar-Home" transform="translate(-66.000000, -951.000000)" fill-rule="nonzero">
            <g id="content" transform="translate(66.000000, 951.000000)">
                <path d="M45.0666667,6 C45.0666667,5.4477 44.6196149,5 44.0681146,5 L44.0624228,5 C43.5109225,5 43.0666667,5.4477 43.0666667,6 C43.0666667,6.5523 43.5165144,7 44.0680147,7 C44.619515,7 45.0666667,6.5523 45.0666667,6 Z" id="Path" fill="#FFCD00"></path>
                <path d="M50.0666667,6 C50.0666667,5.4477 49.6196149,5 49.0681146,5 L49.0624228,5 C48.5109225,5 48.0666667,5.4477 48.0666667,6 C48.0666667,6.5523 48.5165144,7 49.0680147,7 C49.619515,7 50.0666667,6.5523 50.0666667,6 Z" id="Path" fill="#FFCD00"></path>
                <path d="M39.0666667,6 C39.0666667,5.4477 38.6196149,5 38.0681146,5 L38.0624228,5 C37.5109225,5 37.0666667,5.4477 37.0666667,6 C37.0666667,6.5523 37.5165144,7 38.0680147,7 C38.619515,7 39.0666667,6.5523 39.0666667,6 Z" id="Path" fill="#FFCD00"></path>
                <path d="M54.4295784,0 L18.9841514,0 C18.3579976,0 17.850431,0.445951172 17.850431,0.99609375 C17.850431,1.54623633 18.3579976,1.9921875 18.9841514,1.9921875 L54.4295784,1.9921875 C55.1848629,1.9921875 55.7992259,2.53077539 55.7992259,3.1927793 L55.7992259,10.4808984 L2.33410739,10.4808984 L2.33410739,3.1927793 C2.33410739,2.53077539 2.94710999,1.9921875 3.70058054,1.9921875 L8.80368264,1.9921875 C9.42983639,1.9921875 9.937403,1.54623633 9.937403,0.99609375 C9.937403,0.445951172 9.42983639,0 8.80368264,0 L3.70058054,0 C1.69684318,0 0.0666666667,1.4322832 0.0666666667,3.1927793 L0.0666666667,47.804332 C0.0666666667,49.5664219 1.69684318,51 3.70058054,51 L54.4295784,51 C56.4350163,51 58.0666667,49.5664219 58.0666667,47.804332 L58.0666667,3.1927793 C58.0666667,1.4322832 56.4350163,0 54.4295784,0 Z M54.6833167,49 L3.44681044,49 C2.68580193,49 2.06666667,48.4532417 2.06666667,47.7811931 L2.06666667,12 L56.0666667,12 L56.0666667,47.7811931 C56.0666667,48.4532417 55.4460428,49 54.6833167,49 Z" id="Shape" fill="#006D31"></path>
                <path d="M9.07011153,38.0665349 C9.10554446,38.5855728 9.5403852,39 10.0522925,39 L32.0810408,39 C32.6181449,39 33.0666667,38.5429053 33.0666667,37.9960582 L33.0666667,21.0039418 C33.0666667,20.4494647 32.6260189,20 32.0824187,20 L10.0509146,20 C9.50731447,20 9.06666667,20.4494647 9.06666667,21.0039418 L9.06666667,37.9959578 C9.06784776,38.0195504 9.06893044,38.0430427 9.07011153,38.0665349 Z M25.3866785,36.9921164 L23.5529262,34.0441417 L26.0059673,30.1027667 L30.2921702,36.9921164 L25.3866785,36.9921164 Z M23.0553888,36.9921164 L11.84136,36.9921164 L17.4494079,27.9800321 L23.0553888,36.9921164 Z M31.0981708,22.0078836 L31.0981708,34.5403902 L26.8371647,27.6914993 C26.6566536,27.4012597 26.3430722,27.2254695 26.0062626,27.2254695 C25.6693545,27.2254695 25.3558715,27.4012597 25.175262,27.6913989 L22.3874782,32.1705856 L18.2807037,25.5686643 C18.1001926,25.2784248 17.7866112,25.1026346 17.4497032,25.1025342 C17.4497032,25.1025342 17.4497032,25.1025342 17.4496047,25.1025342 C17.1126967,25.1025342 16.7992137,25.2783244 16.6186042,25.5684635 L11.0350641,34.5409925 L11.0350641,22.0078836 L31.0981708,22.0078836 Z" id="Shape" fill="#000000"></path>
                <path d="M38.0549742,20 L49.0783591,20 C49.6242014,20 50.0666667,19.5523 50.0666667,19 C50.0666667,18.4477 49.6242014,18 49.0783591,18 L38.0549742,18 C37.509132,18 37.0666667,18.4477 37.0666667,19 C37.0666667,19.5523 37.509132,20 38.0549742,20 Z" id="Path" fill="#FFCD00"></path>
                <path d="M38.0549742,27 L49.0783591,27 C49.6242014,27 50.0666667,26.5523 50.0666667,26 C50.0666667,25.4477 49.6242014,25 49.0783591,25 L38.0549742,25 C37.509132,25 37.0666667,25.4477 37.0666667,26 C37.0666667,26.5523 37.509132,27 38.0549742,27 Z" id="Path" fill="#FFCD00"></path>
                <path d="M38.0549742,33 L49.0783591,33 C49.6242014,33 50.0666667,32.5523 50.0666667,32 C50.0666667,31.4477 49.6242014,31 49.0783591,31 L38.0549742,31 C37.509132,31 37.0666667,31.4477 37.0666667,32 C37.0666667,32.5523 37.509132,33 38.0549742,33 Z" id="Path" fill="#FFCD00"></path>
                <path d="M38.0549742,40 L49.0783591,40 C49.6242014,40 50.0666667,39.5523 50.0666667,39 C50.0666667,38.4477 49.6242014,38 49.0783591,38 L38.0549742,38 C37.509132,38 37.0666667,38.4477 37.0666667,39 C37.0666667,39.5523 37.509132,40 38.0549742,40 Z" id="Path" fill="#FFCD00"></path>
            </g>
        </g>
    </g>
</svg>