<?xml version="1.0" encoding="UTF-8"?>
<svg width="56px" height="55px" viewBox="0 0 56 55" version="1.1" xmlns="http://www.w3.org/2000/svg" xmlns:xlink="http://www.w3.org/1999/xlink">
    <title>Group 23</title>
    <g id="Menu-1" stroke="none" stroke-width="1" fill="none" fill-rule="evenodd" stroke-linecap="round" stroke-linejoin="round">
        <g id="Bienestar-Home" transform="translate(-237.000000, -783.000000)" stroke-width="2">
            <g id="Group-23" transform="translate(238.000000, 784.000000)">
                <line x1="38" y1="23" x2="48.896" y2="5.138" id="Stroke-1" stroke="#FFCD00"></line>
                <line x1="16" y1="18" x2="5.112" y2="30.871" id="Stroke-2" stroke="#FFCD00"></line>
                <line x1="21.7676" y1="17.1528" x2="31.9996" y2="22.9998" id="Stroke-3" stroke="#FFCD00"></line>
                <g id="Group-22">
                    <line x1="0" y1="53" x2="54" y2="53" id="Stroke-4" stroke="#006D31"></line>
                    <path d="M6,33 C6,34.657 4.657,36 3,36 C1.343,36 0,34.657 0,33 C0,31.343 1.343,30 3,30 C4.657,30 6,31.343 6,33 Z" id="Stroke-6" stroke="#000000"></path>
                    <path d="M22,16 C22,17.657 20.657,19 19,19 C17.343,19 16,17.657 16,16 C16,14.343 17.343,13 19,13 C20.657,13 22,14.343 22,16 Z" id="Stroke-8" stroke="#000000"></path>
                    <path d="M38,24 C38,25.657 36.657,27 35,27 C33.343,27 32,25.657 32,24 C32,22.343 33.343,21 35,21 C36.657,21 38,22.343 38,24 Z" id="Stroke-10" stroke="#000000"></path>
                    <path d="M54,3 C54,4.657 52.657,6 51,6 C49.343,6 48,4.657 48,3 C48,1.343 49.343,0 51,0 C52.657,0 54,1.343 54,3 Z" id="Stroke-12" stroke="#000000"></path>
                    <line x1="3" y1="40" x2="3" y2="53" id="Stroke-14" stroke="#006D31"></line>
                    <line x1="19" y1="24" x2="19" y2="53" id="Stroke-16" stroke="#006D31"></line>
                    <line x1="35" y1="31" x2="35" y2="53" id="Stroke-18" stroke="#006D31"></line>
                    <line x1="51" y1="11" x2="51" y2="53" id="Stroke-20" stroke="#006D31"></line>
                </g>
            </g>
        </g>
    </g>
</svg>