<?xml version="1.0" encoding="UTF-8"?>
<svg width="58px" height="56px" viewBox="0 0 58 56" version="1.1" xmlns="http://www.w3.org/2000/svg" xmlns:xlink="http://www.w3.org/1999/xlink">
    <title>Group 2</title>
    <g id="Menu-1" stroke="none" stroke-width="1" fill="none" fill-rule="evenodd">
        <g id="Bienestar-Home" transform="translate(-236.000000, -957.000000)">
            <g id="Group-2" transform="translate(237.000000, 958.000000)">
                <g id="Group-19-Copy" stroke-linecap="round" stroke-linejoin="round" stroke-width="2">
                    <path d="M3.9121,53.9998 C1.7521,53.9998 0.0001,52.2548 0.0001,50.1028 L0.0001,8.2138 C0.0001,6.0608 1.7521,4.3158 3.9121,4.3158 L52.0881,4.3158 C54.2481,4.3158 56.0001,6.0608 56.0001,8.2138 L56.0001,50.2358 C56.0001,52.3148 54.1901,53.9998 51.9581,53.9998 L3.9121,53.9998 Z" id="Stroke-1" stroke="#006D31"></path>
                    <line x1="55.4404" y1="14.118" x2="0.6794" y2="14.118" id="Stroke-3" stroke="#006D31"></line>
                    <line x1="9" y1="7.9998" x2="9" y2="-0.0002" id="Stroke-9" stroke="#FFCD00"></line>
                    <line x1="18.5" y1="7.9998" x2="18.5" y2="-0.0002" id="Stroke-11" stroke="#FFCD00"></line>
                    <line x1="28" y1="7.9998" x2="28" y2="-0.0002" id="Stroke-13" stroke="#FFCD00"></line>
                    <line x1="37.5" y1="7.9998" x2="37.5" y2="-0.0002" id="Stroke-15" stroke="#FFCD00"></line>
                    <line x1="47" y1="7.9998" x2="47" y2="-0.0002" id="Stroke-17" stroke="#FFCD00"></line>
                </g>
                <g id="star" transform="translate(16.000000, 22.000000)" fill="#000000" fill-rule="nonzero">
                    <path d="M23.5596944,8.54349599 C23.2853676,8.23564764 22.910491,8.03542067 22.5020644,7.97857168 L22.5020644,7.97771794 L16.1230357,7.09660877 L13.5986962,1.06529223 C13.2300978,0.182475583 12.2155605,-0.234400291 11.3327121,0.134163983 C10.9118299,0.309883617 10.5771832,0.644448978 10.4014975,1.06529223 L7.877158,7.09660877 L1.49812932,7.97771794 C0.547728875,8.10999731 -0.115487201,8.98769152 0.0168044416,9.93800379 C0.0736587088,10.3463925 0.273904259,10.7212343 0.581781166,10.9955357 L5.3879255,15.2809554 L4.40040907,22.0056087 C4.29343064,22.6884494 4.60708337,23.3687792 5.19586657,23.7309153 C5.7763627,24.102091 6.52305209,24.0882303 7.08933465,23.6957613 L12.0000466,20.3565359 L16.9107586,23.6991763 C17.7031524,24.2369316 18.7815252,24.0305778 19.3193806,23.2382575 C19.5637736,22.8781804 19.6638713,22.4394087 19.5997344,22.0090236 L18.6122682,15.2817589 L23.4184126,10.9963392 C24.1348165,10.3580435 24.1980995,9.25983347 23.5596944,8.54349599 Z M17.1259209,14.313267 C16.9109093,14.5053583 16.8068941,14.7926165 16.8490326,15.0778156 L17.8776328,22.2773488 L12.4843626,18.6107395 C12.1936123,18.4131742 11.8116541,18.4131742 11.5209038,18.6107395 L6.09589171,22.2550512 L7.15106071,15.0744007 C7.192044,14.7903566 7.08807904,14.5046553 6.87417239,14.3133172 L1.73117154,9.67816572 L8.59537004,8.73106753 C8.89591415,8.68963607 9.15210992,8.49242229 9.26908306,8.21254646 L12.0102925,1.71413409 C12.0134064,1.71795081 12.0157167,1.72231994 12.0171732,1.7269904 L14.7301062,8.20913151 C14.8470793,8.48900733 15.1033253,8.68622111 15.4038192,8.72765258 L22.2766061,9.71673465 L17.1259209,14.313267 Z" id="Shape"></path>
                </g>
                <line x1="28" y1="28.0696879" x2="29.3246877" y2="31.5526452" id="Stroke-7" stroke="#FFCD00" stroke-width="2" stroke-linecap="round" stroke-linejoin="round"></line>
            </g>
        </g>
    </g>
</svg>