<?xml version="1.0" encoding="UTF-8"?>
<svg width="54px" height="54px" viewBox="0 0 54 54" version="1.1" xmlns="http://www.w3.org/2000/svg" xmlns:xlink="http://www.w3.org/1999/xlink">
    <title>Group 16</title>
    <g id="Menu-1" stroke="none" stroke-width="1" fill="none" fill-rule="evenodd">
        <g id="Bienestar-Home" transform="translate(-66.000000, -786.000000)" fill-rule="nonzero">
            <g id="Group-16" transform="translate(66.000000, 786.000000)">
                <path d="M31,51 C42.0456818,51 51,42.0456818 51,31 C51,19.9543182 42.0456818,11 31,11 C19.9543182,11 11,19.9543182 11,31 C11.0125,42.0404545 19.9594318,50.9875 31,51 Z M15.5454545,30.0909091 L12.8645455,30.0909091 C13.3384091,20.7803409 20.7803409,13.3384091 30.0909091,12.8645455 L30.0909091,15.5454545 C30.0909091,16.0475 30.4979545,16.4545455 31,16.4545455 C31.5020455,16.4545455 31.9090909,16.0475 31.9090909,15.5454545 L31.9090909,12.8645455 C41.2196591,13.3384091 48.6615909,20.7803409 49.1354545,30.0909091 L45.5454545,30.0909091 C45.0434091,30.0909091 44.6363636,30.4979545 44.6363636,31 C44.6363636,31.5020455 45.0434091,31.9090909 45.5454545,31.9090909 L49.1354545,31.9090909 C48.6615909,41.2195455 41.2196591,48.6615909 31.9090909,49.1354545 L31.9090909,46.4545455 C31.9090909,45.9525 31.5020455,45.5454545 31,45.5454545 C30.4979545,45.5454545 30.0909091,45.9525 30.0909091,46.4545455 L30.0909091,49.1354545 C20.7804545,48.6615909 13.3384091,41.2196591 12.8645455,31.9090909 L15.5454545,31.9090909 C16.0475,31.9090909 16.4545455,31.5020455 16.4545455,31 C16.4545455,30.4979545 16.0475,30.0909091 15.5454545,30.0909091 Z" id="Shape" fill="#000000"></path>
                <path d="M50.8311453,18.9141116 C50.5601272,18.4492963 50.2729729,17.9939304 49.9702507,17.5486886 L52.2147585,15.3267547 C52.5696389,14.9753309 52.5696389,14.4056735 52.2147585,14.0542498 L47.0784811,8.96962972 C46.723487,8.61831847 46.1480422,8.61831847 45.7930481,8.96962972 L43.5449041,11.1879639 C39.9083742,8.75747057 35.657082,7.38361074 31.2723829,7.22196032 L31.2723829,1.7998655 L37.6359124,1.7998655 C38.1379494,1.7998655 38.544988,1.39692061 38.544988,0.89993275 C38.544988,0.402944889 38.1379494,0 37.6359124,0 L23.0907021,0 C22.5886651,0 22.1816265,0.402944889 22.1816265,0.89993275 C22.1816265,1.39692061 22.5886651,1.7998655 23.0907021,1.7998655 L29.4542316,1.7998655 L29.4542316,7.23005971 C21.3466405,7.53648681 13.9658554,11.9427825 9.90910531,18.8985877 L4.90918928,18.8985877 C4.40715225,18.8985877 4,19.3015326 4,19.7985205 C4,20.2955084 4.40715225,20.6984532 4.90918928,20.6984532 L10.3636431,20.6984532 C10.3872791,20.6984532 10.4072788,20.6867541 10.4309147,20.6849543 C10.7585229,20.6891164 11.0623814,20.5167793 11.2245378,20.2349879 C17.0084179,9.77056987 30.2663771,5.92898194 40.8372223,11.6545791 C51.4080675,17.3801762 55.2884568,30.5050204 49.5046903,40.9694384 C43.7208102,51.4338565 30.462851,55.2754444 19.8920058,49.5498472 C16.2338855,47.5684203 13.2259814,44.5907678 11.2244241,40.9694384 C11.0638586,40.6865221 10.7604546,40.5123851 10.4326192,40.5149724 C10.4089833,40.5149724 10.3880745,40.5014734 10.3635295,40.5014734 L4.90907564,40.5014734 C4.40703862,40.5014734 4,40.9044183 4,41.4014062 C4,41.898394 4.40703862,42.3013389 4.90907564,42.3013389 L9.90899167,42.3013389 C16.4328594,53.487953 30.8821622,57.3212165 42.1824269,50.8629616 C53.4828054,44.4047067 57.3548994,30.1007256 50.8311453,18.9141116 Z M45.0304473,12.2694581 L46.435651,10.8783871 L50.2864954,14.6905022 L48.8792463,16.0835981 C47.7474471,14.6711537 46.4561052,13.3914493 45.0304473,12.2694581 Z" id="Shape" fill="#006D31"></path>
                <path d="M9,30 C9,29.44775 8.597025,29 8.1,29 L0.9,29 C0.402975,29 0,29.44775 0,30 C0,30.55225 0.402975,31 0.9,31 L8.1,31 C8.597025,31 9,30.55225 9,30 Z" id="Path" fill="#FFCD00"></path>
                <path d="M2.88888889,26 L9.11111111,26 C9.602,26 10,25.55225 10,25 C10,24.44775 9.602,24 9.11111111,24 L2.88888889,24 C2.398,24 2,24.44775 2,25 C2,25.55225 2.39788889,26 2.88888889,26 Z" id="Path" fill="#FFCD00"></path>
                <path d="M10,36 C10,35.44775 9.602,35 9.11111111,35 L2.88888889,35 C2.398,35 2,35.44775 2,36 C2,36.55225 2.398,37 2.88888889,37 L9.11111111,37 C9.602,37 10,36.55225 10,36 Z" id="Path" fill="#FFCD00"></path>
                <path d="M28.1579484,36.7420019 C28.5045594,37.0859994 29.0664154,37.0859994 29.4130265,36.7420019 L41.7507807,24.4933546 C42.0914003,24.1432989 42.0816366,23.5855008 41.7290343,23.2473412 C41.3850861,22.9175529 40.8397618,22.9175529 40.4957027,23.2473412 L28.7854874,34.8729817 L23.5042186,29.6298557 C23.1516162,29.2918062 22.5896492,29.3013893 22.2491405,29.651445 C21.9169532,29.9929091 21.9169532,30.5342949 22.2491405,30.8758692 L28.1579484,36.7420019 Z" id="Path" fill="#006D31"></path>
            </g>
        </g>
    </g>
</svg>