<?xml version="1.0" encoding="UTF-8"?>
<svg width="24px" height="20px" viewBox="0 0 24 20" version="1.1" xmlns="http://www.w3.org/2000/svg" xmlns:xlink="http://www.w3.org/1999/xlink">
    <title>icon / yellow / heart-frecuency</title>
    <defs>
        <linearGradient x1="100%" y1="83.1880667%" x2="0%" y2="16.6974805%" id="linearGradient-1">
            <stop stop-color="#083E16" offset="0%"></stop>
            <stop stop-color="#128C31" offset="100%"></stop>
        </linearGradient>
    </defs>
    <g id="Menu-1" stroke="none" stroke-width="1" fill="none" fill-rule="evenodd">
        <g id="Bienestar-Home" transform="translate(-193.000000, -411.000000)">
            <g id="Group" transform="translate(193.000000, 409.000000)">
                <g id="ritmo-cardiaco" transform="translate(0.000000, 2.000000)">
                    <path d="M12.8,12.9 C12.8,12.9 12.8,12.9 12.8,12.9 C12.5,12.9 12.3,12.7 12.2,12.5 L9.8,6.2 L7.8,9 C7.7,9.2 7.5,9.3 7.3,9.3 L2.7,9.4 C2.3,9.4 2,9.1 2,8.8 C2,8.4 2.3,8.1 2.6,8.1 L6.9,8 L9.5,4.5 C9.6,4.3 9.9,4.2 10.1,4.2 C10.3,4.2 10.5,4.4 10.6,4.6 L13,10.9 L16,6.7 C16.1,6.5 16.4,6.4 16.6,6.4 C16.8,6.4 17,6.6 17.1,6.8 L18.5,10.9 L22.6,10.9 C23,10.9 23.3,11.2 23.3,11.6 C23.3,12 23,12.3 22.6,12.3 L18,12.3 C17.7,12.3 17.5,12.1 17.4,11.9 L16.3,8.6 L13.3,12.7 C13.2,12.8 13,12.9 12.8,12.9 Z" id="Path-Copy" fill="#FFDC5D"></path>
                    <path d="M5.1,11.4 L11.8,18.1 L15.5,14.4 C15.8,14.1 16.2,14.1 16.4,14.4 C16.7,14.7 16.7,15.1 16.4,15.3 L12.2,19.5 C12.3,19.6 12.1,19.7 11.9,19.7 C11.7,19.7 11.6,19.6 11.4,19.5 L4.2,12.3 C3.9,12 3.9,11.6 4.2,11.4 C4.5,11.1 4.9,11.1 5.1,11.4 Z M9.1,5.2 C9.3,5.2 9.5,5.4 9.6,5.6 L12,11.9 L15,7.7 C15.1,7.5 15.4,7.4 15.6,7.4 C15.8,7.4 16,7.6 16.1,7.8 L17.5,11.9 L21.6,11.9 C22,11.9 22.3,12.2 22.3,12.6 C22.3,13 22,13.3 21.6,13.3 L17,13.3 C16.7,13.3 16.5,13.1 16.4,12.9 L15.3,9.6 L12.3,13.7 C12.2166667,13.7833333 12.0638889,13.8666667 11.899537,13.8921296 L11.8,13.9 L11.8,13.9 C11.5,13.9 11.3,13.7 11.2,13.5 L8.8,7.2 L6.8,10 C6.7,10.2 6.5,10.3 6.3,10.3 L1.7,10.4 C1.3,10.4 1,10.1 1,9.8 C1,9.4 1.3,9.1 1.6,9.1 L5.9,9 L8.5,5.5 C8.6,5.3 8.9,5.2 9.1,5.2 Z M21.4,2 C23.7,4.3 23.7,8.1 21.4,10.4 C21.3,10.6 21.1,10.7 21,10.7 C20.8,10.7 20.7,10.6 20.5,10.5 C20.2,10.2 20.2,9.8 20.5,9.6 C22.3,7.8 22.3,4.9 20.5,3 C19.6,2.1 18.5,1.6 17.2,1.6 C16,1.6 14.8,2.1 14,3 L12.4,4.6 C12.1,4.9 11.7,4.9 11.5,4.6 L10.1,3.2 C9.2,2.2 8,1.8 6.8,1.8 C5.6,1.8 4.4,2.3 3.5,3.2 C2.5,4.1 2,5.6 2.2,7 C2.2,7.4 2,7.7 1.6,7.7 C1.2,7.7 0.9,7.5 0.9,7.1 C0.6,5.2 1.3,3.4 2.6,2.1 C3.7,1 5.2,0.4 6.8,0.4 C8.4,0.4 9.9,1 11,2.1 L11.9,3 L13,2 C15.3,-0.3 19.1,-0.3 21.4,2 Z" id="Combined-Shape" fill="url(#linearGradient-1)"></path>
                </g>
            </g>
        </g>
    </g>
</svg>