<?xml version="1.0" encoding="UTF-8"?>
<svg width="26px" height="25px" viewBox="0 0 26 25" version="1.1" xmlns="http://www.w3.org/2000/svg" xmlns:xlink="http://www.w3.org/1999/xlink">
    <title>Group 26</title>
    <defs>
        <linearGradient x1="42.7727421%" y1="13.1390073%" x2="35.6906378%" y2="73.054679%" id="linearGradient-1">
            <stop stop-color="#0E6F27" offset="0%"></stop>
            <stop stop-color="#0B571E" offset="100%"></stop>
        </linearGradient>
        <linearGradient x1="33.7386697%" y1="13.1390073%" x2="17.8039351%" y2="73.054679%" id="linearGradient-2">
            <stop stop-color="#0E6F27" offset="0%"></stop>
            <stop stop-color="#0B571E" offset="100%"></stop>
        </linearGradient>
        <linearGradient x1="42.7727421%" y1="13.1390073%" x2="35.6906378%" y2="73.054679%" id="linearGradient-3">
            <stop stop-color="#0E6F27" offset="0%"></stop>
            <stop stop-color="#0B571E" offset="100%"></stop>
        </linearGradient>
        <linearGradient x1="33.7386697%" y1="33.6173366%" x2="17.8039351%" y2="60.246524%" id="linearGradient-4">
            <stop stop-color="#0E6F27" offset="0%"></stop>
            <stop stop-color="#0B571E" offset="100%"></stop>
        </linearGradient>
        <linearGradient x1="40.8530017%" y1="13.1390073%" x2="31.8897135%" y2="73.054679%" id="linearGradient-5">
            <stop stop-color="#0E6F27" offset="0%"></stop>
            <stop stop-color="#0B571E" offset="100%"></stop>
        </linearGradient>
    </defs>
    <g id="Bienestar-home" stroke="none" stroke-width="1" fill="none" fill-rule="evenodd">
        <g id="Bienestar-Home" transform="translate(-193.000000, -408.000000)">
            <g id="Group-26" transform="translate(193.000000, 408.000000)">
                <path d="M1.28740148,11 C1.75836751,13.0644512 2.30186001,14.5998458 2.91787899,15.6061838 C4.89854086,18.8418234 7.71315595,21.4383148 7.92091402,21.4383148 C8.22559645,21.4383148 7.64992642,22.2922099 6.19390395,24 C2.28134116,20.1931462 0.32505977,17.2458878 0.32505977,15.1582248 C0.32505977,13.0705618 0.645840341,11.6844869 1.28740148,11 Z" id="Path-4" fill="#FFDC5D"></path>
                <path d="M20.2614061,1.08596976 C20.0169565,2.75919547 20.095093,3.95871193 20.4958155,4.68451914 C21.7842428,7.01817886 24.4958692,8.75131737 24.6309246,8.75136817 C24.8289867,8.75144267 24.4368295,9.32141714 23.4544529,10.4612916 C20.6262919,7.88454419 19.0665558,6.0119779 18.7752446,4.8435927 C18.4839335,3.6752075 18.9793207,2.42266652 20.2614061,1.08596976 Z" id="Path-4-Copy" fill="#FFDC5D" transform="translate(21.687557, 5.773631) scale(1, -1) rotate(-166.000000) translate(-21.687557, -5.773631) "></path>
                <g id="distance" fill-rule="nonzero">
                    <path d="M20.8333333,0 C18.5358634,0 16.6666667,1.86911644 16.6666667,4.16648764 C16.6666667,6.15928089 19.6192661,10.1925706 20.3110657,11.1105523 C20.3108704,11.4070739 20.3110657,11.6982247 20.3038879,11.9654506 C20.2962707,12.2527929 20.523127,12.4923831 20.81097,12.5 C20.8155598,12.5 20.8201497,12.5 20.8252278,12.5 C21.1059906,12.5 21.3379251,12.2756924 21.3455424,11.9929397 C21.3527201,11.7187317 21.3525248,11.419427 21.3527201,11.1144584 C22.0399298,10.2027753 25,6.16162455 25,4.16648764 C25,1.86911644 23.1308032,0 20.8333333,0 Z M20.8333333,10.0653295 C19.688407,8.4901957 17.7083211,5.49246123 17.7083211,4.16648764 C17.7083211,2.44331276 19.1100844,1.0416097 20.8333333,1.0416097 C22.5565823,1.0416097 23.9583455,2.44331276 23.9583455,4.16648764 C23.9583455,5.49246123 21.9782597,8.49014687 20.8333333,10.0653295 Z" id="Shape" fill="url(#linearGradient-1)"></path>
                    <path d="M6.25,11.4583333 C4.52675781,11.4583333 3.125,12.8600911 3.125,14.5833333 C3.125,16.3065755 4.52675781,17.7083333 6.25,17.7083333 C7.97324219,17.7083333 9.375,16.3065755 9.375,14.5833333 C9.375,12.8600911 7.97324219,11.4583333 6.25,11.4583333 Z M6.25,16.6666341 C5.10102539,16.6666341 4.16665039,15.7323079 4.16665039,14.5832845 C4.16665039,13.4342611 5.10102539,12.4999837 6.25,12.4999837 C7.39897461,12.4999837 8.33334961,13.4343099 8.33334961,14.5833333 C8.33334961,15.7323568 7.39897461,16.6666341 6.25,16.6666341 Z" id="Shape" fill="url(#linearGradient-2)"></path>
                    <path d="M20.8333333,2.08333333 C19.6845052,2.08333333 18.75,3.01783854 18.75,4.16666667 C18.75,5.31549479 19.6845052,6.25 20.8333333,6.25 C21.9821615,6.25 22.9166667,5.31549479 22.9166667,4.16666667 C22.9166667,3.01783854 21.9821615,2.08333333 20.8333333,2.08333333 Z M20.8333333,5.41666667 C20.143954,5.41666667 19.5833333,4.85606877 19.5833333,4.16665202 C19.5833333,3.47723526 20.143954,2.91666667 20.8333333,2.91666667 C21.5227127,2.91666667 22.0833333,3.47726456 22.0833333,4.16668132 C22.0833333,4.85609807 21.5227127,5.41666667 20.8333333,5.41666667 Z" id="Shape-Copy" fill="url(#linearGradient-2)"></path>
                    <path d="M14.2370685,18.7862632 C13.9565668,18.6798371 13.6443111,18.8157213 13.5358396,19.0884815 C13.2929346,19.7011506 12.9891636,20.415584 12.5795121,21.0701094 C12.4233843,21.3196106 12.5043696,21.6450879 12.7594682,21.7974865 C12.8478712,21.8502036 12.9452161,21.875 13.0415449,21.875 C13.2241428,21.875 13.402473,21.7850883 13.5046445,21.6218785 C13.9587515,20.8955428 14.2862999,20.1268549 14.5466823,19.4707922 C14.6546457,19.1984783 14.5159953,18.8921437 14.2370685,18.7862632 Z" id="Path" fill="url(#linearGradient-3)"></path>
                    <path d="M10.5840092,21.9880539 C10.0436425,22.4019724 9.42961239,22.7135476 8.70597199,22.9411075 C8.42264349,23.0302058 8.26778353,23.3244794 8.35995124,23.5983723 C8.43422133,23.8183078 8.64540319,23.9583333 8.87291537,23.9583333 C8.92822611,23.9583333 8.98454801,23.9501713 9.03985875,23.9328697 C9.87563738,23.670169 10.62031,23.2909026 11.2539062,22.8056761 C11.4872325,22.6264532 11.5267185,22.2986028 11.3418775,22.0730468 C11.1554187,21.8480773 10.8167794,21.8078535 10.5840092,21.9880539 Z" id="Path" fill="url(#linearGradient-4)"></path>
                    <path d="M16.0053808,15.6770465 C15.274971,16.0474771 14.8691462,16.6905578 14.627087,17.1417118 C14.5212016,17.3387186 14.6141003,17.5751044 14.8345426,17.669325 C14.8963644,17.6959856 14.96163,17.7083333 15.0255678,17.7083333 C15.190661,17.7083333 15.3488667,17.6256817 15.4249199,17.4839244 C15.7322032,16.9111105 16.0460006,16.5661911 16.4427387,16.3645493 C16.6549658,16.2567944 16.7297329,16.0153657 16.6087032,15.82533 C16.4885864,15.6353314 16.219309,15.568513 16.0053808,15.6770465 Z" id="Path" fill="url(#linearGradient-2)"></path>
                    <path d="M20.5957067,13.6361113 C20.3501671,13.4662461 20.0127782,13.5314793 19.8448441,13.7838698 C19.6669242,14.052465 19.3025685,14.4218611 18.2005802,14.5227138 C17.9032866,14.5502049 17.6836493,14.8182306 17.7105654,15.1223935 C17.7359101,15.4093162 17.9719201,15.625 18.2486338,15.625 C18.2650065,15.625 18.2813791,15.6244823 18.2977518,15.6228256 C19.4683736,15.5155014 20.2672391,15.1164397 20.7403743,14.4029124 C20.9078015,14.1505737 20.8428177,13.8070638 20.5957067,13.6361113 Z" id="Path" fill="url(#linearGradient-4)"></path>
                    <path d="M7.48413086,23.9650411 C9.12753906,22.2125054 12.5,18.1806774 12.5,14.5833211 C12.5,11.0788846 9.75444336,8.33333333 6.25,8.33333333 C2.74555664,8.33333333 0,11.0788846 0,14.5833211 C0,19.2346792 5.65185547,24.6301765 5.89243164,24.8575686 C5.99262695,24.9526856 6.12133789,25 6.25,25 C6.62944336,25 6.99003906,24.9867676 7.33183594,24.9608399 C7.61870117,24.938965 7.83383789,24.6892096 7.81196289,24.4023449 C7.79633789,24.1970231 7.66347656,24.0369159 7.48413086,23.9650411 Z M6.25,23.7446802 C5.01962891,22.4894092 1.04165039,18.1538708 1.04165039,14.5833211 C1.04165039,11.6627702 3.32949219,9.37498169 6.25,9.37498169 C9.17050781,9.37498169 11.4583496,11.6627702 11.4583496,14.5833211 C11.4583496,18.1538708 7.48037109,22.4893604 6.25,23.7446802 Z" id="Shape" fill="url(#linearGradient-5)"></path>
                </g>
            </g>
        </g>
    </g>
</svg>