<?xml version="1.0" encoding="UTF-8"?>
<svg width="71px" height="68px" viewBox="0 0 71 68" version="1.1" xmlns="http://www.w3.org/2000/svg" xmlns:xlink="http://www.w3.org/1999/xlink">
    <title>Group 31</title>
    <defs>
        <polygon id="path-1" points="2.99411032 0 9.74458609e-13 2.64467766 6.05342141 7.15310555 18.2142857 8.32282455 29.4568486 4.5 30 3.31612349 26.4458784 0"></polygon>
        <polygon id="path-3" points="4.7295808 43.1031436 8.55282816 38.9387033 8.55282816 23.2878116 19.0901292 7.30976141 22.7468922 3.2195122 23 -1.22005387e-13 9.56582533 4.82926829 2.66155776 18.9036347 0 35.361677"></polygon>
        <polygon id="path-5" points="17.3732174 40.0832178 21.8366776 45 26.3413097 37.4200306 25.4931756 19.4654607 15.1538462 4.42201242 4.83655825 0 0.00400441086 1.20772671 1.38531266 2.60276193 1.95382541 6.02915528 11.8248187 14.059427 18.3846154 24.6573761 19.7247725 36.5119984"></polygon>
        <path d="M0,3.4405704 L2.34439651,2.17118083 L2.34439651,0 L8.44444444,1.7202852 L15.8333333,10.8712544 L19,21.4165019 L15.8333333,35.31467 L15.1517472,33.0368637 L14.9433452,32.5489046 C14.8065528,32.2034218 14.7381565,31.7961254 14.7381565,31.3270155 C14.7381565,30.8579056 14.7381565,30.4590425 14.7381565,30.1304262 L13.8914536,27.8062233 L9.5,13.9758553 L0,3.4405704 Z" id="path-7"></path>
        <path d="M4.15806788,2.85714286 C3.06307046,2.71294116 2.31963885,2.71294116 1.92777304,2.85714286 C1.53590722,3.00134455 1.12616558,3.42569783 0.6985481,4.13020269 L1.33963068,6.28571429 L8.01204685,8 L18.5454545,8 L23.5026704,4.57142857 C22.9874587,4.0067772 22.4933024,3.60136384 22.0202016,3.35518851 C21.5471008,3.10901317 20.9430833,2.94299796 20.2081489,2.85714286 L15.2727273,0 L5.08209302,0.137333151 L4.15806788,2.85714286 Z" id="path-9"></path>
        <polygon id="path-11" points="3.31775218 33.4650616 4.91420427 28.4620071 4.91420427 23.0322581 6.17351231 15.2525471 10.325865 8.25522546 16 3.57423144 15.8495881 2.16343643 14.6254512 1.60001272 14.1337391 1.24456579e-13 8.72586497 2.98129334 0.960723478 14.1185421 4.86011231e-13 20.4348702 4.86011231e-13 28.3414222"></polygon>
    </defs>
    <g id="Bienestar-home" stroke="none" stroke-width="1" fill="none" fill-rule="evenodd">
        <g id="Bienestar-Home" transform="translate(-61.000000, -1118.000000)">
            <g id="Group-31" transform="translate(61.946931, 1119.372788)">
                <g id="united" transform="translate(2.053069, 0.627212)" fill-rule="nonzero">
                    <path d="M61.6009061,44.849138 L57.3434825,40.6189093 C56.9811788,40.2590892 56.4998391,40.060907 55.9873233,40.060907 C55.4752799,40.060907 54.9934679,40.2590892 54.6316364,40.6189093 L54.5329122,40.716829 L54.2532723,40.4394677 C53.9079736,40.0960457 53.6406152,39.6964018 53.4592272,39.2611507 C53.4431667,39.2035232 53.4219103,39.1473013 53.3945131,39.0943591 C53.2556379,38.707365 53.1833662,38.2955397 53.1833662,37.87247 L53.1833662,36.6758808 C53.2660299,36.7189842 53.3562516,36.7503748 53.4530865,36.7667729 C53.5050465,36.7756747 53.5565343,36.7798913 53.6075496,36.7798913 C54.037874,36.7798913 54.4185999,36.475356 54.4984296,36.0424475 C54.5952644,35.5561282 54.2773629,35.0833957 53.7865759,34.9859445 C53.5707053,34.9433096 53.3571964,34.9803224 53.1776978,35.0768366 C53.1219587,33.7987256 52.5952721,32.6049475 51.6788843,31.6941529 L47.5485269,27.5904235 C46.6217473,26.6697901 45.3893477,26.162856 44.0785355,26.162856 C43.063896,26.162856 42.0974378,26.4678598 41.2821361,27.0324212 L40.8437817,26.5952961 L40.8437817,16.3066904 C40.8437817,15.0665293 40.3898392,13.86994 39.566035,12.9380622 C38.9798304,12.2755809 38.6572052,11.4247563 38.6572052,10.5420727 L38.6572052,9.78823088 L38.7195574,9.78823088 C39.7767096,9.78823088 40.6368858,8.93506375 40.6368858,7.88605697 L40.6368858,1.90217391 C40.6368858,0.853167136 39.7767096,0 38.7195574,0 L21.7781955,0 C20.7210431,0 19.8608669,0.853167136 19.8608669,1.90217391 L19.8608669,7.88605697 C19.8608669,8.93506375 20.7210431,9.78823088 21.7781955,9.78823088 L21.9180155,9.78823088 L21.9180155,10.1827212 C21.9180155,11.1525487 21.5377618,12.0642804 20.8476369,12.7497189 L19.0191129,14.566623 C18.0488758,15.5308283 17.5146312,16.8122189 17.5146312,18.1755996 L17.5146312,23.9791042 C17.5146312,24.7676162 17.7054665,25.5120877 18.0413179,26.1717578 C16.8386772,26.2406297 15.7177557,26.7377249 14.8589966,27.5904235 L10.7286392,31.6941529 C9.75840192,32.6583583 9.22415735,33.9402173 9.22415735,35.3031297 L9.22415735,37.87247 C9.22415735,38.8422976 8.84437609,39.7540293 8.15425122,40.4394677 L7.87791787,40.714018 C7.87650074,40.7149551 7.87555607,40.7158921 7.87461128,40.716829 L7.77635941,40.6189093 C7.41405562,40.2590892 6.9327159,40.060907 6.42020017,40.060907 C5.90815678,40.060907 5.42634473,40.2590892 5.06451339,40.6189093 L0.806617437,44.849138 C0.0602811259,45.5907983 0.0602811259,46.7976949 0.806617437,47.5393553 L2.26480746,48.9875375 C2.61860863,49.3393929 3.19300417,49.3398613 3.5472778,48.988943 C3.90155131,48.6375562 3.9024961,48.0683096 3.54822247,47.7164543 L2.0905049,46.2678035 C2.04940914,46.2270428 2.04940914,46.1609821 2.0905049,46.1202212 L6.34840073,41.8899924 C6.38807937,41.8506372 6.45279331,41.8501686 6.49247207,41.8899924 L7.23266755,42.6255622 L7.23314001,42.6255622 L17.3403286,52.6677287 L18.4725869,53.7931034 C18.5136827,53.8338643 18.5136827,53.899925 18.4725869,53.9406859 L14.2151634,58.1709145 C14.1750124,58.2107384 14.1102984,58.2107384 14.0706197,58.1709145 L6.11599727,50.2675225 C5.7621961,49.9156672 5.18780056,49.9151987 4.83352706,50.2661169 C4.4787811,50.6175038 4.47830876,51.1867503 4.83210993,51.5386057 L12.7872047,59.4419977 C13.1490361,59.8018178 13.6308482,60 14.143364,60 C14.6554074,60 15.136747,59.8018178 15.4990507,59.4419977 L19.7564744,55.2117691 C20.5028106,54.4705773 20.5028106,53.2636807 19.7564744,52.5220203 L19.7101826,52.4761057 L20.2472613,51.9424662 C20.8745616,51.3188718 21.7078131,50.9440593 22.593497,50.8873689 C23.8400676,50.8072527 25.0129493,50.2797039 25.895799,49.4021739 L29.8069792,45.5144302 C30.9349862,45.2206709 31.8131122,44.3094079 32.0516565,43.1681034 C32.453639,43.3578524 32.9028577,43.4646739 33.377112,43.4646739 C35.0828211,43.4646739 36.4706288,42.0867692 36.4706288,40.3926163 L36.4706288,38.256653 C36.8608021,38.4332834 37.2939605,38.5326087 37.7502649,38.5326087 C39.4559741,38.5326087 40.8433093,37.1547039 40.8433093,35.460551 L40.8433093,29.1458958 L43.6330955,31.9265367 C43.8102323,32.1031671 44.0431081,32.1912481 44.2759839,32.1912481 C44.5074427,32.1912481 44.7389015,32.1041042 44.9160382,31.9293479 C45.2707841,31.578898 45.2722013,31.0096515 44.9188724,30.6573276 L42.5929484,28.3391117 C43.043112,28.0931409 43.5504316,27.9619565 44.0785355,27.9619565 C44.9042291,27.9619565 45.6807967,28.2814843 46.2646396,28.8619753 L50.394997,32.9652361 C51.0232422,33.5897677 51.3694855,34.4199775 51.3694855,35.3031297 L51.3694855,37.87247 C51.3694855,39.3225262 51.9377403,40.6854386 52.969385,41.710551 L53.2509142,41.9902549 L51.9353784,43.2974139 L43.9788665,51.2026799 L43.535316,50.7618065 C43.5305924,50.7575899 43.5263411,50.7529048 43.5216174,50.7486882 L43.4436773,50.6709145 C42.5046161,49.7380997 41.2571008,49.1772864 39.9316453,49.0920166 C39.1253186,49.0400113 38.3667009,48.6989318 37.7927777,48.1292167 L34.8126285,45.1892804 C34.4574102,44.8388306 33.8830146,44.8402362 33.5296858,45.19256 C33.1768293,45.5448838 33.1782464,46.114599 33.5334647,46.4645803 L36.5117245,49.4021739 C37.3945742,50.2797039 38.5674559,50.8072527 39.8144988,50.8873689 C40.6997104,50.9440593 41.5329619,51.3188718 42.1602623,51.9419977 L42.2041921,51.9855698 C42.2278103,52.0122751 42.2528457,52.0371064 42.2792982,52.0605323 L42.697341,52.4756372 L42.6510491,52.5220203 C41.904713,53.2636807 41.904713,54.4701087 42.6510491,55.2117691 L46.9084728,59.4419977 C47.2707766,59.8018178 47.7521162,60 48.264632,60 C48.7766753,60 49.2584874,59.8018178 49.6207911,59.4419977 L61.6009061,47.5388868 C62.3472424,46.7972264 62.3472424,45.5907983 61.6009061,44.849138 L61.6009061,44.849138 Z M53.7912995,35.9042353 L53.7742945,35.9014243 L53.6089668,35.8681596 L53.7912995,35.9042353 Z M24.6119116,48.1310907 C24.0408226,48.6989318 23.2822049,49.0400113 22.4763506,49.0920166 C21.1504227,49.1772864 19.9029074,49.7380997 18.9638462,50.6709145 L18.428657,51.2026799 L17.946845,50.7238568 C17.9407041,50.7177661 17.9345634,50.711207 17.9284227,50.7055846 L9.15660929,41.9902549 L9.43813856,41.710551 C10.4697832,40.6854386 11.038038,39.3225262 11.038038,37.87247 L11.038038,35.3031297 C11.038038,34.4199775 11.383809,33.5897677 12.0125265,32.9652361 L16.1428839,28.8619753 C16.7267268,28.2814843 17.5032944,27.9619565 18.328988,27.9619565 C18.8585089,27.9619565 19.3677181,28.094078 19.8192988,28.3419228 L17.4895959,30.6563905 C17.1357946,31.0077774 17.136267,31.5774925 17.4905406,31.9284108 C17.6676774,32.1036356 17.8996085,32.1912481 18.1315396,32.1912481 C18.363943,32.1912481 18.5963465,32.1031671 18.7734832,31.9274737 L21.556184,29.1622939 L21.556184,40.3926163 C21.556184,42.0867692 22.9439916,43.4646739 24.6497008,43.4646739 C25.1305681,43.4646739 25.5859278,43.3550412 25.9921615,43.1601387 C26.1763836,44.0517241 26.7507792,44.8032234 27.5292363,45.2314468 L24.6119116,48.1310907 Z M39.029901,35.4610195 C39.029901,36.162856 38.4555055,36.7339767 37.7502649,36.7339767 C37.0445519,36.7339767 36.4706288,36.162856 36.4706288,35.4610195 L36.4706288,25.4268179 C36.4706288,24.9301912 36.0648675,24.5272676 35.5636885,24.5272676 C35.0625094,24.5272676 34.6567482,24.9301912 34.6567482,25.4268179 L34.6567482,40.3930847 C34.6567482,41.0949213 34.082825,41.6655735 33.377112,41.6655735 C32.7436709,41.6655735 32.2179289,41.205491 32.1163705,40.6034483 L32.1163705,25.4165105 C32.1163705,24.9194153 31.7106091,24.5169602 31.2094301,24.5169602 C31.0483538,24.5169602 30.8967247,24.5591267 30.7654073,24.6322152 C30.4786818,24.7835457 30.2835952,25.0824588 30.2835952,25.4268179 L30.2835952,40.3926163 C30.2835952,40.506934 30.2902083,40.6189093 30.3024898,40.7299476 L30.3024898,42.542635 C30.3024898,43.2444715 29.7285666,43.8155922 29.0228537,43.8155922 C28.317613,43.8155922 27.74369,43.2444715 27.74369,42.542635 L27.74369,25.4057346 C27.74369,24.909108 27.3374563,24.5061843 26.8367496,24.5061843 C26.3355707,24.5061843 25.9293369,24.909108 25.9293369,25.4057346 L25.9293369,40.3926163 C25.9293369,41.0944528 25.3554138,41.6655735 24.6501732,41.6655735 C23.9444602,41.6655735 23.370537,41.0944528 23.370537,40.3926163 L23.370537,23.6595765 C23.370537,23.1624813 22.9643033,22.7595577 22.4635967,22.7595577 C21.9624177,22.7595577 21.5566564,23.1624813 21.5566564,23.6595765 L21.5566564,26.7545914 C21.4806057,26.7789542 21.4069168,26.813156 21.3384239,26.8581335 C20.1655422,26.4210082 19.3285118,25.2956335 19.3285118,23.9791042 L19.3285118,18.1755996 C19.3285118,17.2924475 19.6747552,16.4622376 20.3030004,15.8377061 L22.1315242,14.0208022 C23.1636413,12.9956896 23.7318961,11.6327773 23.7318961,10.1827212 L23.7318961,9.78823088 L25.555224,9.78823088 C26.0564031,9.78823088 26.4621643,9.38530735 26.4621643,8.88868066 C26.4621643,8.39158549 26.0564031,7.98913043 25.555224,7.98913043 L21.7781955,7.98913043 C21.7210393,7.98913043 21.6747476,7.94274735 21.6747476,7.88605697 L21.6747476,1.90217391 C21.6747476,1.84548354 21.7210393,1.79910045 21.7781955,1.79910045 L38.7190851,1.79910045 C38.7767135,1.79910045 38.8230052,1.84548354 38.8230052,1.90217391 L38.8230052,7.88605697 C38.8230052,7.94321583 38.7767135,7.98913043 38.7190851,7.98913043 L29.8131199,7.98913043 C29.3124133,7.98913043 28.9061796,8.39158549 28.9061796,8.88868066 C28.9061796,9.38530735 29.3124133,9.78823088 29.8131199,9.78823088 L36.8433246,9.78823088 L36.8433246,10.5420727 C36.8433246,11.861413 37.325609,13.1334333 38.2018456,14.1248126 C38.7356177,14.7282609 39.029901,15.5031858 39.029901,16.3066904 L39.029901,35.4610195 Z M60.3170186,46.2678035 L48.3369038,58.1709145 C48.3170644,58.1910607 48.2929738,58.2008996 48.264632,58.2008996 C48.2367625,58.2008996 48.2126718,58.1910607 48.1923601,58.1709145 L43.9349366,53.9406859 C43.8938408,53.899925 43.8938408,53.8338643 43.9349366,53.7931034 L44.6203379,53.1118815 C44.6203379,53.1118815 44.6208102,53.111413 44.6208102,53.111413 L51.5754365,46.2017428 L55.9150514,41.8899924 C55.9547302,41.8501686 56.0194441,41.8501686 56.0591228,41.8899924 L60.3170186,46.1202212 C60.3581144,46.1609821 60.3581144,46.2270428 60.3170186,46.2678035 L60.3170186,46.2678035 Z" id="Shape" stroke="#FFFFFF" stroke-width="0.2" fill="#006D31"></path>
                    <path d="M16.2931034,54 C16.2931034,53.0979226 15.5623245,52.3636364 14.6641915,52.3636364 C13.7652617,52.3636364 13.0344828,53.0979226 13.0344828,54 C13.0344828,54.9020774 13.7652617,55.6363636 14.6641915,55.6363636 C15.5623245,55.6363636 16.2931034,54.9020774 16.2931034,54 Z" id="Path" fill="#FFCD00" transform="translate(14.663793, 54.000000) scale(1, -1) translate(-14.663793, -54.000000) "></path>
                    <path d="M38.0172414,4.90909091 C38.0172414,4.00701355 37.2864625,3.27272727 36.3883295,3.27272727 C35.4893996,3.27272727 34.7586207,4.00701355 34.7586207,4.90909091 C34.7586207,5.81116827 35.4893996,6.54545455 36.3883295,6.54545455 C37.2864625,6.54545455 38.0172414,5.81116827 38.0172414,4.90909091 Z" id="Path-Copy" fill="#FFCD00" transform="translate(36.387931, 4.909091) scale(1, -1) translate(-36.387931, -4.909091) "></path>
                    <path d="M57.5689655,46.3636364 C57.5689655,45.461559 56.8381866,44.7272727 55.9400536,44.7272727 C55.0411237,44.7272727 54.3103448,45.461559 54.3103448,46.3636364 C54.3103448,47.2657137 55.0411237,48 55.9400536,48 C56.8381866,48 57.5689655,47.2657137 57.5689655,46.3636364 Z" id="Path-Copy-2" fill="#FFCD00" transform="translate(55.939655, 46.363636) scale(1, -1) translate(-55.939655, -46.363636) "></path>
                </g>
                <g id="Oval" transform="translate(19.053069, 56.627212)">
                    <mask id="mask-2" fill="white">
                        <use xlink:href="#path-1"></use>
                    </mask>
                    <g id="Mask"></g>
                    <ellipse stroke="#006D31" stroke-width="1.5" stroke-linecap="round" stroke-linejoin="round" mask="url(#mask-2)" cx="15" cy="-25.875" rx="30" ry="31.5"></ellipse>
                </g>
                <g id="Oval" transform="translate(0.053069, 1.627212)">
                    <mask id="mask-4" fill="white">
                        <use xlink:href="#path-3"></use>
                    </mask>
                    <g id="Mask"></g>
                    <ellipse stroke="#006D31" stroke-width="1.5" stroke-linecap="round" stroke-linejoin="round" mask="url(#mask-4)" cx="34.4234625" cy="30.0487805" rx="30.6666667" ry="30.0487805"></ellipse>
                </g>
                <g id="Oval" transform="translate(42.053069, 0.627212)">
                    <mask id="mask-6" fill="white">
                        <use xlink:href="#path-5"></use>
                    </mask>
                    <g id="Mask"></g>
                    <ellipse stroke="#006D31" stroke-width="1.5" stroke-linecap="round" stroke-linejoin="round" mask="url(#mask-6)" cx="-7.46153846" cy="31.2077267" rx="30.1538462" ry="30"></ellipse>
                </g>
                <g id="Oval" transform="translate(41.053069, 7.627212)">
                    <mask id="mask-8" fill="white">
                        <use xlink:href="#path-7"></use>
                    </mask>
                    <g id="Mask"></g>
                    <ellipse stroke="#000000" stroke-width="1.5" stroke-linecap="round" stroke-linejoin="round" mask="url(#mask-8)" cx="-6.33333333" cy="24" rx="22.1666667" ry="22.9090909"></ellipse>
                </g>
                <g id="Oval" transform="translate(22.053069, 48.627212)">
                    <mask id="mask-10" fill="white">
                        <use xlink:href="#path-9"></use>
                    </mask>
                    <g id="Mask"></g>
                    <ellipse stroke="#000000" stroke-width="1.5" stroke-linecap="round" stroke-linejoin="round" mask="url(#mask-10)" cx="12" cy="-18.2857143" rx="22.9090909" ry="24"></ellipse>
                </g>
                <g id="Oval" transform="translate(8.053069, 8.627212)">
                    <mask id="mask-12" fill="white">
                        <use xlink:href="#path-11"></use>
                    </mask>
                    <g id="Mask"></g>
                    <ellipse stroke="#000000" stroke-width="1.5" stroke-linecap="round" stroke-linejoin="round" mask="url(#mask-12)" cx="25.2591983" cy="23.0322581" rx="22.4" ry="23.0322581"></ellipse>
                </g>
            </g>
        </g>
    </g>
</svg>