<?xml version="1.0" encoding="UTF-8"?>
<svg width="21px" height="21px" viewBox="0 0 21 21" version="1.1" xmlns="http://www.w3.org/2000/svg" xmlns:xlink="http://www.w3.org/1999/xlink">
    <title>icon / yellow / moon</title>
    <defs>
        <linearGradient x1="100%" y1="93.71521%" x2="0%" y2="6.1340332%" id="linearGradient-1">
            <stop stop-color="#083E16" offset="0%"></stop>
            <stop stop-color="#128C31" offset="100%"></stop>
        </linearGradient>
    </defs>
    <g id="Menu-1" stroke="none" stroke-width="1" fill="none" fill-rule="evenodd">
        <g id="Bienestar-Home" transform="translate(-35.000000, -492.000000)">
            <g id="Group" transform="translate(34.000000, 490.000000)">
                <g id="luna" transform="translate(1.000000, 2.000000)">
                    <path d="M4.28662109,3.35668945 C0.386621094,4.45668945 0.734130859,6.4 0.734130859,10.5 C0.734130859,15.6 4.9,20.3161621 10,20.3161621 C14.2,20.3161621 18.2880781,16.7054729 19.3880781,12.8054729 C17.9880781,13.8054729 14.6339844,17.9838867 12.8339844,17.9838867 C8.33398438,17.9838867 3.66577148,15.2460938 3.66577148,10.7460938 C3.76577148,8.94609375 3.28662109,4.65668945 4.28662109,3.35668945 Z" id="Path-Copy" fill="#FFDC5D"></path>
                    <path d="M10.6521739,21 C4.76811594,21 0,16.277512 0,10.4497608 C0,5.02392344 4.36231884,0.401913876 9.84057971,0 C10.1449275,0 10.3478261,0.100478469 10.4492754,0.401913876 C10.5507246,0.703349282 10.4492754,1.00478469 10.2463768,1.10526316 C8.62318841,2.41148325 7.71014493,4.32057416 7.71014493,6.33014354 C7.71014493,10.1483254 10.8550725,13.1626794 14.6086957,13.1626794 C16.6376812,13.1626794 18.5652174,12.2583732 19.884058,10.6507177 C20.0869565,10.4497608 20.3913043,10.3492823 20.5942029,10.4497608 C20.8985507,10.5502392 21,10.8516746 21,11.0526316 C20.7971014,16.6794258 16.1304348,21 10.6521739,21 Z M7.7,2 C6.7,3.3 6.2,5 6.1,6.8 C6.1,11.3 9.7,14.9 14.2,14.9 C16,14.9 17.6,14.3 19,13.3 C17.9,17.2 14.4,20 10.2,20 C5.1,20 1,15.9 1,10.8 C1,6.7 3.8,3.1 7.7,2 Z M18.9636429,0.0747680664 L18.9636429,2 L15.6953296,4.96875 L19.015625,4.96875 L19.015625,5.984375 L14.015625,5.984375 L14.015625,4.96875 L18.1693131,1 L14.015625,1 L14.015625,0.0747680664 L18.9636429,0.0747680664 Z" id="Shape" fill="url(#linearGradient-1)"></path>
                </g>
            </g>
        </g>
    </g>
</svg>