<?xml version="1.0" encoding="UTF-8"?>
<svg width="22px" height="22px" viewBox="0 0 22 22" version="1.1" xmlns="http://www.w3.org/2000/svg" xmlns:xlink="http://www.w3.org/1999/xlink">
    <title>icon / yellow / steps</title>
    <defs>
        <linearGradient x1="93.9859144%" y1="93.71521%" x2="6.01408565%" y2="6.1340332%" id="linearGradient-1">
            <stop stop-color="#083E16" offset="0%"></stop>
            <stop stop-color="#128C31" offset="100%"></stop>
        </linearGradient>
    </defs>
    <g id="Menu-1" stroke="none" stroke-width="1" fill="none" fill-rule="evenodd">
        <g id="Bienestar-Home" transform="translate(-35.000000, -410.000000)">
            <g id="Group" transform="translate(34.000000, 409.000000)">
                <path d="M20.4394531,6.08227539 C21.5746745,6.13777669 21.4224415,8.21459961 19.982754,12.3127441 C19.1784961,14.9294434 18.5482585,16.0546875 18.092041,15.6884766 C17.4077148,15.1391602 17.6819519,14.7578365 18.4499512,11.6149902 C19.2179504,8.47214392 18.7366211,5.99902344 20.4394531,6.08227539 Z M7.22363281,1.72216797 C10.418457,2.08007812 5.40588081,4.87774275 5.02880859,7.11499023 C4.65173638,9.35223772 6.65014648,12.1359863 4.6184082,12.0791016 C3.26391602,12.0411784 2.73702644,10.1631923 3.03773949,6.44514331 C3.69845223,3.05788631 5.09375,1.4835612 7.22363281,1.72216797 Z" id="Combined-Shape" fill="#FFDC5D"></path>
                <g id="pasos" transform="translate(1.000000, 1.000000)" fill="url(#linearGradient-1)">
                    <path d="M13.3,16 L18.2,16.7 C18.5,16.8 18.8,17.1 18.6,17.4 L18.6,17.4 L18.3,19.5 C18.1,20.9 16.9,21.9 15.5,21.9 L15.5,21.9 L15.1,21.9 L15.1,21.9 L14.5,21.8 C13.8,21.7 13.1,21.3 12.7,20.7 C12.3,20.1 12.1,19.3 12.2,18.6 L12.2,18.6 L12.5,16.5 C12.6,16.4 12.7,16.2 12.8,16.1 C13,16 13.1,16 13.3,16 L13.3,16 Z M13.7,17.4 L13.5,18.9 C13.5,19.3 13.6,19.7 13.8,20 C14,20.3 14.4,20.5 14.8,20.6 L14.8,20.6 L15.4,20.7 C16.2,20.8 17,20.2 17.1,19.4 L17.1,19.4 L17.3,18 L13.7,17.4 Z M1.8,12.5 L6.7,13.3 C7.1,13.3 7.3,13.7 7.3,14 L7.3,14 L6.8,16.1 C6.7,16.8 6.3,17.5 5.7,17.9 C5.2,18.2 4.6,18.4 4,18.4 L4,18.4 L3.6,18.4 L3,18.3 C2.3,18.2 1.6,17.8 1.2,17.2 C0.8,16.6 0.6,15.8 0.7,15.1 L0.7,15.1 L1,13 C1.1,12.9 1.2,12.7 1.3,12.6 C1.5,12.5 1.6,12.5 1.8,12.5 L1.8,12.5 Z M2.2,13.9 L2,15.4 C2,15.8 2.1,16.2 2.3,16.6 C2.5,16.9 2.9,17.1 3.3,17.2 L3.3,17.2 L3.9,17.3 C4.3,17.3 4.7,17.2 5,17 C5.3,16.8 5.5,16.4 5.6,16 L5.6,16 L5.8,14.5 L2.2,13.9 Z M14.7,4.1 C15.6,3.5 16.6,3.3 17.7,3.5 C20,3.9 21.6,5.8 21.1,7.8 L21.1,7.8 L21.1,7.9 L19,15 C18.9,15.3 18.7,15.5 18.4,15.5 L18.4,15.5 L18.3,15.5 L13.4,14.7 C13.1,14.6 12.9,14.3 12.9,14 L12.9,14 L13.1,6.6 L13.1,6.6 L13.1,6.5 C13.2,5.5 13.8,4.7 14.7,4.1 Z M17.4,4.8 C16.7,4.7 15.9,4.8 15.3,5.2 C14.8,5.6 14.4,6.1 14.3,6.7 L14.3,6.7 L14.2,13.5 L18,14.1 L20,7.5 C20.1,6.3 19.1,5 17.4,4.8 Z M3.3,0.7 C4.2,0.1 5.2,-0.1 6.3,0.1 C7.4,0.2 8.3,0.8 8.9,1.5 C9.6,2.3 9.9,3.3 9.7,4.3 L9.7,4.3 L7.6,11.5 C7.5,11.8 7.3,12 7,12 L7,12 L6.9,12 L2,11.3 C1.7,11.2 1.5,10.9 1.5,10.6 L1.5,10.6 L1.7,3.2 L1.7,3.2 L1.7,3.1 C1.8,2.1 2.4,1.2 3.3,0.7 Z M6.1,1.3 C5.4,1.2 4.6,1.3 4,1.7 C3.5,2.1 3.1,2.6 3,3.2 L3,3.2 L2.8,10 L6.5,10.7 L8.5,4.1 C8.6,3.5 8.4,2.9 8,2.3 C7.5,1.8 6.9,1.4 6.1,1.3 Z" id="Combined-Shape"></path>
                </g>
            </g>
        </g>
    </g>
</svg>